<svg xmlns="http://www.w3.org/2000/svg" xmlns:xlink="http://www.w3.org/1999/xlink" width="1918" height="1080" viewBox="0 0 1918 1080" fill="none">
<g clip-path="url(#clip0_523_8273)">
<rect width="1918" height="1080" fill="#007A70"/>
<path opacity="0.5" d="M350.178 660V670.234H368.997L358.769 654.438L350.178 660ZM191.014 660L182.493 665.668L185.53 670.234H191.014V660ZM78.2733 490.52L86.7945 484.852L78.16 471.872L69.6839 484.956L78.2733 490.52ZM-31.5201 660V670.234H-25.956L-22.9307 665.564L-31.5201 660ZM-201 660L-209.522 654.333L-220.096 670.234H-201V660ZM-4.99286 365.252L3.52914 370.92L7.29778 365.252L3.52914 359.585L-4.99286 365.252ZM-201 70.5048V60.2705H-220.096L-209.522 76.172L-201 70.5048ZM-31.5201 70.5048L-22.9307 64.9404L-25.956 60.2705H-31.5201V70.5048ZM78.2733 239.985L69.6839 245.549L78.16 258.633L86.7945 245.653L78.2733 239.985ZM191.014 70.5048V60.2705H185.53L182.493 64.8364L191.014 70.5048ZM350.178 70.5048L358.769 76.0673L368.997 60.2705H350.178V70.5048ZM159.329 365.252L150.738 359.69L147.137 365.252L150.738 370.815L159.329 365.252ZM350.178 649.766H191.014V670.234H350.178V649.766ZM199.535 654.332L86.7945 484.852L69.7522 496.189L182.493 665.668L199.535 654.332ZM69.6839 484.956L-40.1095 654.436L-22.9307 665.564L86.8627 496.085L69.6839 484.956ZM-31.5201 649.766H-201V670.234H-31.5201V649.766ZM-192.478 665.667L3.52914 370.92L-13.5148 359.585L-209.522 654.333L-192.478 665.667ZM3.52914 359.585L-192.478 64.8377L-209.522 76.172L-13.5148 370.92L3.52914 359.585ZM-201 80.7391H-31.5201V60.2705H-201V80.7391ZM-40.1095 76.0693L69.6839 245.549L86.8627 234.42L-22.9307 64.9404L-40.1095 76.0693ZM86.7945 245.653L199.535 76.1732L182.493 64.8364L69.7522 234.316L86.7945 245.653ZM191.014 80.7391H350.178V60.2705H191.014V80.7391ZM341.587 64.9424L150.738 359.69L167.92 370.815L358.769 76.0673L341.587 64.9424ZM150.738 370.815L341.587 665.562L358.769 654.438L167.92 359.69L150.738 370.815ZM685.258 660V670.234H695.492V660H685.258ZM537.884 660H527.65V670.234H537.884V660ZM537.884 209.036H548.118V198.802H537.884V209.036ZM456.091 209.036L446.841 213.415L449.613 219.27H456.091V209.036ZM390.51 70.5048V60.2705H374.342L381.26 74.8839L390.51 70.5048ZM685.258 70.5048H695.492V60.2705H685.258V70.5048ZM685.258 649.766H537.884V670.234H685.258V649.766ZM548.118 660V209.036H527.65V660H548.118ZM537.884 198.802H456.091V219.27H537.884V198.802ZM465.342 204.657L399.76 66.1258L381.26 74.8839L446.841 213.415L465.342 204.657ZM390.51 80.7391H685.258V60.2705H390.51V80.7391ZM675.023 70.5048V660H695.492V70.5048H675.023Z" fill="#003B36"/>
<path fill-rule="evenodd" clip-rule="evenodd" d="M1044.86 65.2238C1044.86 50.0116 1057.19 37.6797 1072.41 37.6797H1539.09C1546.4 37.6797 1553.41 40.5816 1558.57 45.7472C1563.74 50.9127 1566.64 57.9186 1566.64 65.2238C1566.64 80.436 1554.31 92.7679 1539.09 92.7679H1072.41C1057.19 92.7679 1044.86 80.436 1044.86 65.2238Z" fill="#0E0F30"/>
<path fill-rule="evenodd" clip-rule="evenodd" d="M1506.98 65.2236C1506.98 58.0441 1509.83 51.1587 1514.91 46.082C1519.98 41.0054 1526.87 38.1533 1534.05 38.1533H1671.5C1671.5 38.1533 1671.5 38.1535 1671.5 38.1538L1671.5 92.2939C1671.5 92.2941 1671.5 92.2943 1671.5 92.2943L1534.05 92.2939C1519.1 92.2939 1506.98 80.1741 1506.98 65.2236Z" fill="url(#paint0_linear_523_8273)"/>






<path fill-rule="evenodd" clip-rule="evenodd" d="M993.188 0H1107.7H1803.48H1918V1080H1803.48H1107.7H993.188V975.615L914 936.021V143.98L993.188 104.386V0Z" fill="#003B36"/>
<path opacity="0.7" d="M1463.91 577.091L1456.96 577.091L1456.96 589.864L1467.69 582.922L1463.91 577.091ZM1463.91 469.065L1460.06 463.282L1456.96 465.343L1456.96 469.065L1463.91 469.065ZM1578.94 392.546L1582.79 398.33L1591.6 392.469L1582.72 386.717L1578.94 392.546ZM1463.91 318.028L1456.96 318.028L1456.96 321.805L1460.13 323.858L1463.91 318.028ZM1463.91 203L1467.76 197.216L1456.96 190.039L1456.96 203L1463.91 203ZM1663.96 336.033L1660.11 341.817L1663.96 344.374L1667.81 341.817L1663.96 336.033ZM1864.01 203L1870.95 203L1870.95 190.039L1860.16 197.216L1864.01 203ZM1864.01 318.028L1867.79 323.858L1870.95 321.805L1870.95 318.028L1864.01 318.028ZM1748.98 392.546L1745.2 386.717L1736.32 392.469L1745.13 398.33L1748.98 392.546ZM1864.01 469.065L1870.95 469.065L1870.95 465.343L1867.86 463.282L1864.01 469.065ZM1864.01 577.091L1860.23 582.922L1870.95 589.864L1870.95 577.091L1864.01 577.091ZM1663.96 447.56L1667.73 441.729L1663.96 439.285L1660.18 441.729L1663.96 447.56ZM1470.86 577.091L1470.86 469.065L1456.96 469.065L1456.96 577.091L1470.86 577.091ZM1467.76 474.848L1582.79 398.33L1575.09 386.763L1460.06 463.282L1467.76 474.848ZM1582.72 386.717L1467.69 312.198L1460.13 323.858L1575.16 398.376L1582.72 386.717ZM1470.86 318.028L1470.86 203L1456.96 203L1456.96 318.028L1470.86 318.028ZM1460.06 208.784L1660.11 341.817L1667.81 330.249L1467.76 197.216L1460.06 208.784ZM1667.81 341.817L1867.85 208.784L1860.16 197.216L1660.11 330.249L1667.81 341.817ZM1857.06 203L1857.06 318.028L1870.95 318.028L1870.95 203L1857.06 203ZM1860.23 312.198L1745.2 386.717L1752.76 398.376L1867.79 323.858L1860.23 312.198ZM1745.13 398.33L1860.16 474.848L1867.86 463.282L1752.83 386.763L1745.13 398.33ZM1857.06 469.065L1857.06 577.091L1870.95 577.091L1870.95 469.065L1857.06 469.065ZM1867.78 571.261L1667.73 441.729L1660.18 453.39L1860.23 582.922L1867.78 571.261ZM1660.18 441.729L1460.14 571.261L1467.69 582.922L1667.73 453.39L1660.18 441.729ZM1463.91 934.046L1456.96 934.046L1456.96 940.992L1463.91 940.992L1463.91 934.046ZM1463.91 604.465L1463.91 597.519L1456.96 597.519L1456.96 604.465L1463.91 604.465ZM1598.44 614.468L1600.65 607.881L1600.6 607.864L1600.55 607.847L1598.44 614.468ZM1716.97 833.021L1722.59 828.936L1722.59 828.936L1716.97 833.021ZM1769.99 640.474L1769.99 633.528L1763.04 633.528L1763.04 640.474L1769.99 640.474ZM1864.01 640.474L1870.95 640.474L1870.95 633.528L1864.01 633.528L1864.01 640.474ZM1855.01 867.53L1861.39 870.266L1855.01 867.53ZM1829.5 903.038L1824.91 897.821L1824.83 897.894L1824.75 897.971L1829.5 903.038ZM1790.49 926.044L1788.21 919.483L1788.21 919.483L1790.49 926.044ZM1689.97 925.044L1687.39 931.493L1687.41 931.503L1687.43 931.512L1689.97 925.044ZM1650.46 899.537L1645.54 904.449L1645.58 904.486L1645.62 904.522L1650.46 899.537ZM1624.45 860.028L1617.98 862.559L1618.01 862.619L1618.03 862.68L1624.45 860.028ZM1611.45 736.998L1604.97 739.515L1605.01 739.605L1605.04 739.693L1611.45 736.998ZM1600.94 720.494L1595.85 725.22L1595.86 725.227L1595.87 725.233L1600.94 720.494ZM1585.44 709.491L1588.26 703.144L1585.44 709.491ZM1553.93 706.99L1552.25 700.252L1546.99 701.567L1546.99 706.99L1553.93 706.99ZM1553.93 934.046L1553.93 940.992L1560.88 940.992L1560.88 934.046L1553.93 934.046ZM1470.86 934.046L1470.86 604.465L1456.96 604.465L1456.96 934.046L1470.86 934.046ZM1463.91 611.411L1553.93 611.411L1553.93 597.519L1463.91 597.519L1463.91 611.411ZM1553.93 611.411C1561.39 611.411 1575.28 614.403 1596.34 621.088L1600.55 607.847C1579.59 601.195 1563.81 597.519 1553.93 597.519L1553.93 611.411ZM1596.24 621.054C1632.16 633.082 1658.48 650.467 1675.85 672.863C1693.17 695.201 1702.02 723.096 1702.02 757.003L1715.92 757.003C1715.92 720.559 1706.35 689.523 1686.83 664.349C1667.35 639.233 1638.42 620.527 1600.65 607.881L1596.24 621.054ZM1702.02 757.003L1702.02 806.515L1715.92 806.515L1715.92 757.003L1702.02 757.003ZM1702.02 806.515C1702.02 818.105 1705.04 828.423 1711.35 837.107L1722.59 828.936C1718.24 822.949 1715.92 815.596 1715.92 806.515L1702.02 806.515ZM1711.35 837.107C1718.15 846.443 1728.02 850.97 1739.98 850.97L1739.98 837.078C1731.93 837.078 1726.47 834.269 1722.59 828.936L1711.35 837.107ZM1739.98 850.97C1751.32 850.97 1761.02 847.663 1767.73 839.955C1774.27 832.432 1776.93 821.869 1776.93 809.515L1763.04 809.515C1763.04 820.167 1760.7 826.859 1757.24 830.839C1753.94 834.633 1748.64 837.078 1739.98 837.078L1739.98 850.97ZM1776.93 809.515L1776.93 640.474L1763.04 640.474L1763.04 809.515L1776.93 809.515ZM1769.99 647.42L1864.01 647.42L1864.01 633.528L1769.99 633.528L1769.99 647.42ZM1857.06 640.474L1857.06 821.018L1870.95 821.018L1870.95 640.474L1857.06 640.474ZM1857.06 821.018C1857.06 837.191 1854.21 851.75 1848.62 864.793L1861.39 870.266C1867.8 855.303 1870.95 838.854 1870.95 821.018L1857.06 821.018ZM1848.62 864.793C1843.01 877.885 1835.11 888.862 1824.91 897.821L1834.09 908.256C1845.9 897.877 1855 885.181 1861.39 870.266L1848.62 864.793ZM1824.75 897.971C1814.86 907.238 1802.73 914.433 1788.21 919.483L1792.77 932.605C1808.93 926.986 1822.8 918.843 1834.25 908.106L1824.75 897.971ZM1788.21 919.483C1773.69 924.532 1757.64 927.1 1739.98 927.1L1739.98 940.992C1758.99 940.992 1776.61 938.225 1792.77 932.605L1788.21 919.483ZM1739.98 927.1C1722.76 927.1 1706.96 924.233 1692.5 918.575L1687.43 931.512C1703.65 937.858 1721.19 940.992 1739.98 940.992L1739.98 927.1ZM1692.55 918.594C1678.36 912.921 1665.97 904.91 1655.29 894.553L1645.62 904.522C1657.62 916.17 1671.56 925.163 1687.39 931.493L1692.55 918.594ZM1655.37 894.626C1645.05 884.312 1636.88 871.925 1630.87 857.376L1618.03 862.68C1624.69 878.805 1633.85 892.758 1645.54 904.449L1655.37 894.626ZM1630.92 857.497C1625.27 843.053 1622.39 827.085 1622.39 809.515L1608.5 809.515C1608.5 828.621 1611.63 846.329 1617.98 862.559L1630.92 857.497ZM1622.39 809.515L1622.39 757.003L1608.5 757.003L1608.5 809.515L1622.39 809.515ZM1622.39 757.003C1622.39 749.093 1620.88 741.507 1617.85 734.302L1605.04 739.693C1607.35 745.159 1608.5 750.909 1608.5 757.003L1622.39 757.003ZM1617.92 734.48C1615.25 727.606 1611.25 721.36 1606.02 715.754L1595.87 725.233C1599.97 729.63 1602.98 734.387 1604.97 739.515L1617.92 734.48ZM1606.03 715.767C1601.04 710.39 1595.09 706.18 1588.26 703.144L1582.62 715.838C1587.79 718.137 1592.18 721.262 1595.85 725.22L1606.03 715.767ZM1588.26 703.144C1581.31 700.056 1573.84 698.544 1565.94 698.544L1565.94 712.436C1572.03 712.436 1577.56 713.592 1582.62 715.838L1588.26 703.144ZM1565.94 698.544C1561.35 698.544 1556.78 699.118 1552.25 700.252L1555.62 713.729C1559.08 712.862 1562.52 712.436 1565.94 712.436L1565.94 698.544ZM1546.99 706.99L1546.99 934.046L1560.88 934.046L1560.88 706.99L1546.99 706.99ZM1553.93 927.1L1463.91 927.1L1463.91 940.992L1553.93 940.992L1553.93 927.1Z" fill="#21A497"/>
<path opacity="0.3" d="M575.162 816.931C593.589 904.232 486.652 1000.75 336.367 1032.31C186.082 1063.88 49.3903 1018.57 30.9634 931.268C12.5365 843.816 119.473 747.452 269.758 715.885C420.044 684.166 556.886 729.478 575.162 816.931Z" fill="url(#paint1_radial_523_8273)"/>
<path opacity="0.3" d="M475.023 990.023C475.023 1020.23 412.643 1044.7 335.763 1044.7C258.884 1044.7 196.504 1020.23 196.504 990.023C196.504 959.815 258.884 935.347 335.763 935.347C412.643 935.347 475.023 959.815 475.023 990.023Z" fill="url(#paint2_linear_523_8273)"/>
<path opacity="0.3" d="M434.241 988.512C434.241 1008.45 390.138 1024.61 335.763 1024.61C281.388 1024.61 237.285 1008.45 237.285 988.512C237.285 968.575 281.388 952.414 335.763 952.414C390.138 952.414 434.241 968.575 434.241 988.512Z" fill="url(#paint3_linear_523_8273)"/>
<path opacity="0.3" d="M397.69 987.153C397.69 999.69 370.049 1009.81 335.763 1009.81C301.628 1009.81 273.836 999.69 273.836 987.153C273.836 974.617 301.477 964.497 335.763 964.497C369.898 964.346 397.69 974.617 397.69 987.153Z" fill="url(#paint4_linear_523_8273)"/>
<path opacity="0.3" d="M368.237 984.888C368.237 991.382 353.737 996.82 335.914 996.82C318.091 996.82 303.591 991.534 303.591 984.888C303.591 978.393 318.091 972.956 335.914 972.956C353.737 972.956 368.237 978.393 368.237 984.888Z" fill="url(#paint5_linear_523_8273)"/>
<rect x="1003" y="89" width="481.838" height="722.757" fill="url(#pattern0)"/>




<path d="M409.861 814.212C408.049 810.134 405.934 806.358 403.518 802.884L395.21 785.364L389.773 787.931C356.846 760.744 298.091 756.515 241.753 781.135C182.092 807.265 144.181 857.41 146.296 902.118L141.009 904.535L150.374 922.81C150.827 924.321 151.431 925.68 152.035 927.04C153.697 930.816 155.811 934.441 158.077 937.914L158.832 939.425L158.983 939.274C186.926 978.695 255.196 988.513 320.143 960.117C391.434 929.003 431.611 863.754 409.861 814.212Z" fill="#092D66"/>
<path d="M232.691 953.774C186.623 953.774 150.676 934.591 136.629 902.722C114.426 851.972 155.207 784.759 227.857 752.89C252.628 742.015 278.758 736.275 303.68 736.275C349.747 736.275 385.695 755.458 399.741 787.327C410.616 812.098 406.991 841.4 389.471 869.795C372.252 897.889 343.403 921.753 308.513 937.008C283.742 948.034 257.461 953.774 232.691 953.774Z" fill="#D4DDE8"/>
<path d="M228.915 986.247C227.404 986.247 225.894 986.247 224.384 986.247V984.737C225.894 984.737 227.404 984.737 228.915 984.737C229.066 984.737 229.217 984.737 229.519 984.737V986.247C229.217 986.247 229.066 986.247 228.915 986.247ZM234.05 984.586C235.561 984.586 237.071 984.435 238.581 984.435L238.732 985.945C237.222 986.096 235.712 986.096 234.201 986.096L234.05 984.586ZM215.17 985.643L215.321 984.133C216.832 984.284 218.342 984.284 219.852 984.435V985.945C218.191 985.945 216.681 985.794 215.17 985.643ZM243.113 984.133C244.623 983.982 246.133 983.831 247.644 983.68L247.795 985.19C246.284 985.341 244.774 985.492 243.264 985.643L243.113 984.133ZM206.108 984.737L206.259 983.227C207.769 983.378 209.28 983.529 210.79 983.68L210.639 985.19C209.129 985.19 207.618 985.039 206.108 984.737ZM252.024 983.227C253.534 983.076 255.045 982.925 256.555 982.622L256.706 984.133C255.196 984.284 253.685 984.586 252.175 984.737L252.024 983.227ZM197.196 983.378L197.498 981.867C199.009 982.169 200.519 982.32 202.03 982.622L201.727 984.133C200.066 983.831 198.556 983.68 197.196 983.378ZM261.086 982.018C262.597 981.716 264.107 981.565 265.618 981.263L265.92 982.774C264.409 983.076 262.899 983.378 261.388 983.529L261.086 982.018ZM188.134 981.414L188.436 979.904C189.946 980.206 191.306 980.659 192.816 980.961L192.514 982.471C191.155 982.169 189.644 981.867 188.134 981.414ZM269.998 980.357C271.508 980.055 273.019 979.753 274.378 979.451L274.68 980.961C273.17 981.263 271.659 981.565 270.149 981.867L269.998 980.357ZM179.374 978.998L179.827 977.487C181.186 977.94 182.696 978.393 184.207 978.846L183.754 980.357C182.243 979.904 180.884 979.451 179.374 978.998ZM278.758 978.242C280.269 977.94 281.628 977.487 283.138 977.034L283.591 978.544C282.081 978.998 280.722 979.3 279.211 979.753L278.758 978.242ZM170.764 975.977L171.368 974.617C172.728 975.222 174.238 975.675 175.598 976.128L175.144 977.487C173.634 977.034 172.124 976.43 170.764 975.977ZM287.518 975.977C289.029 975.524 290.388 975.07 291.899 974.617L292.352 976.128C290.841 976.581 289.482 977.034 287.972 977.487L287.518 975.977ZM296.128 973.258C297.487 972.805 298.997 972.352 300.357 971.748L300.81 973.107C299.3 973.56 297.94 974.164 296.43 974.617L296.128 973.258ZM162.306 972.352L162.91 970.992C164.269 971.597 165.629 972.201 166.988 972.805L166.384 974.164C165.176 973.56 163.816 972.956 162.306 972.352ZM304.737 970.086C306.096 969.482 307.607 969.029 308.966 968.425L309.57 969.784C308.211 970.388 306.701 970.841 305.341 971.445L304.737 970.086ZM154.301 968.123L155.056 966.763C156.415 967.518 157.624 968.274 158.983 968.878L158.228 970.237C156.868 969.633 155.66 968.878 154.301 968.123ZM313.195 966.763C314.555 966.159 315.914 965.555 317.273 964.951L317.878 966.31C316.518 966.914 315.159 967.518 313.648 968.123L313.195 966.763ZM146.447 963.289L147.353 962.081C148.561 962.987 149.921 963.742 151.129 964.498L150.374 965.706C149.014 964.951 147.806 964.045 146.447 963.289ZM321.352 962.987C322.711 962.383 324.07 961.628 325.43 961.024L326.034 962.383C324.674 962.987 323.315 963.742 321.956 964.347L321.352 962.987ZM139.197 957.701L140.103 956.493C141.311 957.399 142.52 958.305 143.728 959.211L142.822 960.42C141.613 959.664 140.405 958.758 139.197 957.701ZM329.508 959.06C330.867 958.305 332.226 957.701 333.435 956.946L334.19 958.305C332.831 959.06 331.471 959.815 330.112 960.42L329.508 959.06ZM337.513 954.68C338.872 953.925 340.081 953.17 341.44 952.414L342.195 953.774C340.836 954.529 339.627 955.284 338.268 956.039L337.513 954.68ZM132.4 951.659L133.457 950.602C134.514 951.659 135.572 952.717 136.78 953.623L135.723 954.68C134.514 953.774 133.457 952.716 132.4 951.659ZM345.216 949.998C346.424 949.243 347.784 948.336 348.992 947.581L349.747 948.789C348.539 949.545 347.179 950.451 345.971 951.206L345.216 949.998ZM126.056 945.013L127.265 944.107C128.171 945.315 129.228 946.373 130.285 947.43L129.228 948.487C128.02 947.279 127.114 946.222 126.056 945.013ZM352.768 945.164C353.976 944.258 355.185 943.503 356.544 942.597L357.45 943.805C356.242 944.711 355.034 945.618 353.674 946.373L352.768 945.164ZM120.468 937.764L121.676 936.857C122.582 938.066 123.489 939.274 124.395 940.482L123.186 941.388C122.28 940.18 121.374 938.972 120.468 937.764ZM360.169 939.878C361.377 938.972 362.586 938.066 363.794 937.159L364.7 938.368C363.492 939.274 362.283 940.18 361.075 941.086L360.169 939.878ZM367.419 934.441C368.627 933.534 369.835 932.477 370.893 931.571L371.799 932.779C370.591 933.685 369.533 934.743 368.325 935.649L367.419 934.441ZM115.483 930.06L116.843 929.305C117.598 930.665 118.353 931.873 119.108 933.081L117.9 933.836C117.145 932.628 116.239 931.42 115.483 930.06ZM374.216 928.55C375.424 927.493 376.481 926.587 377.539 925.529L378.596 926.586C377.539 927.644 376.33 928.55 375.273 929.607L374.216 928.55ZM111.405 921.904L112.765 921.3C113.369 922.659 113.973 924.019 114.728 925.378L113.369 926.133C112.614 924.623 112.009 923.264 111.405 921.904ZM381.012 922.508C382.07 921.451 383.127 920.394 384.184 919.337L385.242 920.394C384.184 921.451 383.127 922.508 381.919 923.566L381.012 922.508ZM107.931 913.446L109.291 912.993C109.744 914.352 110.348 915.863 110.801 917.222L109.442 917.826C108.989 916.316 108.536 914.805 107.931 913.446ZM387.356 916.014C388.413 914.956 389.471 913.748 390.377 912.691L391.434 913.748C390.377 914.805 389.32 916.014 388.262 917.071L387.356 916.014ZM393.398 909.368C394.455 908.16 395.361 907.102 396.268 905.894L397.476 906.8C396.57 908.009 395.512 909.066 394.455 910.274L393.398 909.368ZM105.364 904.686L106.874 904.384C107.176 905.894 107.629 907.253 108.082 908.764L106.572 909.217C106.119 907.555 105.817 906.045 105.364 904.686ZM399.288 902.42C400.195 901.212 401.101 900.003 402.007 898.795L403.215 899.701C402.309 900.91 401.403 902.118 400.497 903.326L399.288 902.42ZM103.702 895.623L105.213 895.472C105.364 896.983 105.666 898.493 105.968 899.852L104.457 900.154C104.155 898.644 103.853 897.134 103.702 895.623ZM404.726 895.17C405.632 893.962 406.538 892.753 407.294 891.394L408.502 892.3C407.596 893.509 406.84 894.868 405.934 896.076L404.726 895.17ZM102.645 886.561L104.155 886.41C104.306 887.92 104.306 889.431 104.457 890.941L102.947 891.092C102.947 889.582 102.796 888.071 102.645 886.561ZM409.71 887.769C410.465 886.561 411.372 885.201 412.127 883.993L413.486 884.748C412.731 886.108 411.976 887.316 411.07 888.675L409.71 887.769ZM102.494 880.368C102.494 879.311 102.494 878.405 102.494 877.347H104.004C104.004 878.405 104.004 879.311 104.004 880.368C104.004 880.821 104.004 881.425 104.004 881.879H102.494C102.494 881.425 102.494 880.972 102.494 880.368ZM414.392 879.915C415.148 878.556 415.903 877.196 416.507 875.988L417.866 876.743C417.111 878.103 416.356 879.462 415.752 880.821L414.392 879.915ZM102.796 872.816C102.947 871.306 103.098 869.795 103.249 868.285L104.76 868.436C104.608 869.946 104.457 871.457 104.306 872.967L102.796 872.816ZM418.622 871.91C419.226 870.55 419.981 869.191 420.585 867.832L421.944 868.436C421.34 869.795 420.736 871.155 419.981 872.514L418.622 871.91ZM422.398 863.754C423.002 862.394 423.606 860.884 424.059 859.525L425.418 860.129C424.814 861.488 424.361 862.998 423.757 864.358L422.398 863.754ZM103.853 863.754C104.155 862.243 104.306 860.733 104.608 859.222L106.119 859.525C105.817 861.035 105.515 862.545 105.364 863.905L103.853 863.754ZM425.569 855.295C426.023 853.785 426.476 852.426 426.929 851.066L428.439 851.519C427.986 853.03 427.533 854.389 427.08 855.9L425.569 855.295ZM107.025 855.144L105.515 854.842C105.817 853.332 106.27 851.821 106.572 850.462L108.082 850.915C107.629 852.124 107.327 853.634 107.025 855.144ZM428.137 846.686C428.59 845.176 428.892 843.816 429.194 842.306L430.705 842.608C430.403 844.118 429.95 845.629 429.648 846.988L428.137 846.686ZM107.931 845.931C108.385 844.42 108.838 843.061 109.291 841.551L110.65 842.004C110.197 843.514 109.744 844.874 109.291 846.233L107.931 845.931ZM430.252 837.775C430.554 836.264 430.856 834.754 431.007 833.395L432.517 833.546C432.215 835.056 432.064 836.566 431.762 838.077L430.252 837.775ZM110.952 837.322C111.556 835.962 112.009 834.452 112.614 833.092L113.973 833.697C113.369 835.056 112.765 836.566 112.312 837.926L110.952 837.322ZM114.426 828.863C115.03 827.504 115.634 826.145 116.39 824.785L117.749 825.389C117.145 826.749 116.39 828.108 115.786 829.467L114.426 828.863ZM431.611 828.863C431.762 827.353 431.913 825.843 432.064 824.332L433.575 824.483C433.423 825.994 433.272 827.504 433.121 829.014L431.611 828.863ZM118.504 820.707C119.259 819.348 120.015 817.988 120.77 816.629L122.129 817.384C121.374 818.744 120.619 820.103 120.015 821.311L118.504 820.707ZM432.215 819.952C432.215 819.046 432.215 818.139 432.215 817.233C432.215 816.629 432.215 816.025 432.215 815.421H433.726C433.726 816.025 433.726 816.629 433.726 817.233C433.726 818.139 433.726 819.046 433.726 819.952H432.215ZM123.035 812.702C123.791 811.343 124.697 810.134 125.452 808.775L126.66 809.53C125.905 810.738 124.999 812.098 124.244 813.306L123.035 812.702ZM431.611 806.358L433.121 806.207C433.272 807.718 433.423 809.228 433.575 810.738L432.064 810.89C431.913 809.379 431.762 807.869 431.611 806.358ZM127.869 804.999C128.775 803.791 129.53 802.431 130.436 801.223L131.645 802.129C130.739 803.337 129.832 804.546 129.077 805.905L127.869 804.999ZM430.252 797.447L431.762 797.145C432.064 798.655 432.366 800.166 432.517 801.676L431.007 801.978C430.856 800.468 430.554 798.957 430.252 797.447ZM133.155 797.598C134.061 796.39 134.968 795.181 135.874 793.973L137.082 794.879C136.176 796.088 135.27 797.296 134.363 798.504L133.155 797.598ZM428.137 788.687L429.648 788.233C430.101 789.744 430.554 791.103 430.856 792.614L429.345 792.916C428.892 791.556 428.59 790.197 428.137 788.687ZM138.895 790.499C139.801 789.291 140.858 788.233 141.916 787.025L143.124 788.082C142.067 789.291 141.16 790.348 140.254 791.556L138.895 790.499ZM144.785 783.551C145.843 782.494 146.9 781.286 147.957 780.228L149.014 781.286C147.957 782.343 146.9 783.4 145.994 784.608L144.785 783.551ZM425.116 780.228L426.476 779.624C427.08 780.983 427.533 782.494 428.137 783.853L426.778 784.306C426.174 783.098 425.72 781.588 425.116 780.228ZM151.129 777.056C152.186 775.999 153.244 774.942 154.452 773.885L155.509 774.942C154.452 775.999 153.395 777.056 152.337 778.114L151.129 777.056ZM421.34 772.072L422.7 771.317C423.455 772.676 424.059 774.036 424.663 775.395L423.304 775.999C422.7 774.64 422.096 773.431 421.34 772.072ZM157.775 770.713C158.832 769.655 160.04 768.749 161.249 767.692L162.306 768.9C161.098 769.958 160.04 770.864 158.983 771.921L157.775 770.713ZM416.96 764.218L418.168 763.463C418.924 764.671 419.83 766.03 420.585 767.39L419.226 768.145C418.47 766.786 417.715 765.426 416.96 764.218ZM164.572 764.822C165.78 763.916 166.837 762.859 168.045 761.952L168.952 763.161C167.743 764.067 166.535 765.124 165.478 766.03L164.572 764.822ZM411.674 756.817L412.882 755.911C413.788 757.119 414.695 758.327 415.601 759.536L414.392 760.442C413.486 759.234 412.58 758.025 411.674 756.817ZM171.67 759.083C172.879 758.176 174.087 757.27 175.295 756.364L176.202 757.572C174.993 758.478 173.785 759.385 172.577 760.291L171.67 759.083ZM179.071 753.645C180.28 752.739 181.488 751.984 182.847 751.077L183.754 752.286C182.545 753.192 181.186 753.947 179.978 754.854L179.071 753.645ZM405.783 750.02L406.84 748.963C407.898 750.02 408.955 751.229 409.861 752.437L408.653 753.494C407.898 752.286 406.84 751.077 405.783 750.02ZM186.623 748.51C187.832 747.755 189.191 746.848 190.399 746.093L191.155 747.301C189.795 748.057 188.587 748.963 187.379 749.718L186.623 748.51ZM399.288 743.828L400.346 742.619C401.554 743.677 402.611 744.734 403.669 745.791L402.611 746.848C401.554 745.791 400.497 744.734 399.288 743.828ZM194.327 743.828C195.686 743.072 196.894 742.317 198.254 741.562L199.009 742.921C197.649 743.677 196.441 744.432 195.082 745.187L194.327 743.828ZM392.341 738.088L393.247 736.88C394.455 737.786 395.663 738.692 396.872 739.749L395.966 740.958C394.757 739.9 393.549 738.994 392.341 738.088ZM202.332 739.296C203.691 738.541 205.05 737.937 206.41 737.182L207.165 738.541C205.806 739.296 204.446 739.9 203.238 740.656L202.332 739.296ZM210.337 735.067C211.696 734.463 213.056 733.708 214.415 733.104L215.019 734.463C213.66 735.067 212.3 735.822 210.941 736.427L210.337 735.067ZM384.789 732.953L385.544 731.744C386.903 732.5 388.111 733.406 389.32 734.312L388.414 735.52C387.356 734.614 386.148 733.859 384.789 732.953ZM218.644 731.14C220.003 730.536 221.363 729.932 222.873 729.328L223.477 730.687C222.118 731.291 220.759 731.895 219.248 732.5L218.644 731.14ZM376.934 728.572L377.69 727.213C379.049 727.968 380.408 728.572 381.768 729.328L381.012 730.687C379.653 729.932 378.294 729.177 376.934 728.572ZM226.951 727.666C228.311 727.062 229.821 726.609 231.18 726.005L231.785 727.364C230.425 727.968 228.915 728.421 227.555 729.026L226.951 727.666ZM368.778 724.645L369.382 723.286C370.742 723.89 372.252 724.494 373.611 725.099L373.007 726.458C371.648 725.854 370.289 725.25 368.778 724.645ZM235.561 724.343C236.92 723.89 238.43 723.286 239.941 722.833L240.394 724.192C239.035 724.645 237.524 725.099 236.165 725.703L235.561 724.343ZM360.471 721.474L360.924 720.114C362.435 720.567 363.794 721.171 365.153 721.625L364.549 722.984C363.19 722.38 361.83 721.927 360.471 721.474ZM244.17 721.474C245.68 721.02 247.04 720.567 248.55 720.114L249.003 721.625C247.493 722.078 246.133 722.531 244.623 722.984L244.17 721.474ZM252.93 718.906C254.441 718.453 255.8 718.151 257.31 717.698L257.612 719.208C256.102 719.51 254.743 719.963 253.232 720.416L252.93 718.906ZM351.711 718.755L352.164 717.244C353.674 717.698 355.034 718.151 356.544 718.604L356.091 720.114C354.731 719.51 353.221 719.057 351.711 718.755ZM261.842 716.64C263.352 716.338 264.862 716.036 266.373 715.734L266.675 717.244C265.164 717.547 263.654 717.849 262.295 718.151L261.842 716.64ZM342.95 716.489L343.252 714.979C344.763 715.281 346.273 715.583 347.633 716.036L347.33 717.547C345.971 717.244 344.461 716.942 342.95 716.489ZM270.753 714.828C272.263 714.526 273.774 714.224 275.284 714.073L275.586 715.583C274.076 715.885 272.565 716.036 271.055 716.338L270.753 714.828ZM334.039 714.979L334.341 713.468C335.851 713.77 337.362 713.922 338.872 714.224L338.57 715.734C337.06 715.432 335.549 715.13 334.039 714.979ZM279.664 713.468C281.175 713.317 282.685 713.015 284.196 712.864L284.347 714.375C282.836 714.526 281.326 714.677 279.815 714.979L279.664 713.468ZM325.128 713.77L325.279 712.26C326.789 712.411 328.299 712.562 329.81 712.713L329.659 714.224C328.148 714.073 326.638 713.922 325.128 713.77ZM288.727 712.26C290.237 712.109 291.748 711.958 293.258 711.807L293.409 713.317C291.899 713.468 290.388 713.619 288.878 713.77L288.727 712.26ZM316.065 713.166V711.656C317.576 711.656 319.086 711.807 320.596 711.958L320.445 713.468C319.086 713.317 317.576 713.166 316.065 713.166ZM297.94 711.656C299.451 711.656 300.961 711.505 302.471 711.505V713.015C300.961 713.015 299.451 713.166 297.94 713.166V711.656ZM307.305 713.015C307.154 713.015 307.154 713.015 307.003 713.015V711.505C307.154 711.505 307.154 711.505 307.305 711.505C308.664 711.505 310.175 711.505 311.534 711.505V713.015C310.175 713.015 308.664 713.015 307.305 713.015Z" fill="#092D66"/>
<path opacity="0.4" d="M307.305 934.592C236.165 965.706 160.795 950.904 139.197 901.514C117.598 852.124 157.775 786.723 228.915 755.458C300.055 724.343 375.424 739.145 397.023 788.536C418.772 837.926 378.596 903.326 307.305 934.592Z" fill="#18CFAE"/>
<path opacity="0.5" d="M228.915 762.406C300.055 731.292 375.424 746.094 397.023 795.484C400.496 803.489 402.46 811.947 402.762 820.556C403.366 809.379 401.403 798.505 397.023 788.234C375.424 738.844 300.055 723.891 228.915 755.156C169.103 781.286 131.342 831.582 133.457 876.29C135.421 833.546 172.274 787.177 228.915 762.406Z" fill="white"/>
<path opacity="0.4" d="M245.831 942.597C210.639 942.597 183.451 928.701 173.332 905.592C156.717 867.53 189.795 816.025 247.19 790.953C267.43 782.041 288.878 777.359 308.966 777.359C344.158 777.359 371.346 791.255 381.465 814.364C389.168 832.036 386.299 853.483 373.309 874.629C359.414 897.134 336.153 916.467 307.607 929.003C287.367 937.915 265.919 942.597 245.831 942.597Z" fill="#18CFAE"/>
<path d="M235.711 928.399C199.311 928.399 171.217 913.899 160.493 889.733C143.124 850.16 176.957 797.145 235.863 771.317C256.555 762.255 278.305 757.572 298.846 757.572C335.247 757.572 363.341 772.072 374.065 796.239C382.221 814.817 379.2 837.171 365.757 859.222C351.56 882.332 327.846 901.967 298.695 914.654C278.154 923.566 256.404 928.399 235.711 928.399Z" fill="#D4DDE8"/>
<path opacity="0.9" d="M235.711 925.529C200.519 925.529 173.332 911.633 163.212 888.524C146.598 850.462 179.675 798.957 237.071 773.884C257.31 764.973 278.758 760.291 298.846 760.291C334.039 760.291 361.226 774.186 371.346 797.295C379.049 814.967 376.179 836.415 363.19 857.561C349.294 880.066 326.034 899.399 297.487 911.935C277.399 920.847 255.951 925.529 235.711 925.529Z" fill="url(#paint6_linear_523_8273)"/>
<path opacity="0.3" d="M228.009 792.613C299.149 761.499 374.518 776.301 396.117 825.691C397.627 829.165 398.835 832.639 399.742 836.113C403.518 819.649 402.611 803.488 396.117 788.535C374.518 739.145 299.149 724.192 228.009 755.457C161.702 784.457 122.28 843.212 134.666 891.091C143.577 852.878 178.165 814.363 228.009 792.613Z" fill="white"/>
<path opacity="0.9" d="M245.68 793.066C265.919 784.155 287.367 779.473 307.455 779.473C337.664 779.473 361.83 789.592 374.517 807.113C373.762 803.79 372.705 800.467 371.346 797.295C361.226 774.186 334.039 760.291 298.846 760.291C278.607 760.291 257.31 764.973 237.071 773.884C179.675 799.108 146.446 850.462 163.212 888.524C164.722 891.847 166.535 895.019 168.649 897.888C160.946 861.186 193.118 816.175 245.68 793.066Z" fill="url(#paint7_linear_523_8273)"/>
<path opacity="0.9" d="M249.758 913.899C225.894 913.899 207.92 905.139 201.577 890.488C196.592 879.16 198.858 865.113 207.92 850.915C217.889 835.207 234.503 821.765 254.743 812.853C269.394 806.359 284.951 803.036 299.451 803.036C323.315 803.036 341.289 811.796 347.633 826.447C352.466 837.322 350.351 851.067 341.742 864.962C331.924 880.973 315.008 894.868 294.466 903.931C279.664 910.576 264.258 913.899 249.758 913.899Z" fill="url(#paint8_linear_523_8273)"/>
<path d="M239.639 898.191C214.717 898.191 195.686 888.826 188.889 873.118C183.603 860.884 185.868 845.931 195.384 830.978C205.655 814.817 222.722 801.072 243.415 791.858C258.519 785.213 274.378 781.739 289.331 781.739C314.253 781.739 333.284 791.103 340.081 806.811C345.216 818.593 343.101 833.244 334.039 847.894C323.919 864.509 306.55 878.707 285.404 887.92C270.451 894.717 254.592 898.191 239.639 898.191Z" fill="#D4DDE8"/>
<path opacity="0.4" d="M239.639 895.321C215.774 895.321 197.801 886.56 191.457 871.909C186.473 860.581 188.738 846.535 197.801 832.337C207.769 816.629 224.384 803.186 244.623 794.275C259.274 787.78 274.831 784.457 289.331 784.457C313.195 784.457 331.169 793.217 337.513 807.868C342.346 818.743 340.232 832.488 331.622 846.384C321.805 862.394 304.888 876.29 284.347 885.352C269.696 891.998 254.29 895.321 239.639 895.321Z" fill="#18CFAE"/>
<path opacity="0.4" d="M204.899 851.066C214.868 835.358 231.482 821.915 251.722 813.004C266.373 806.509 281.93 803.186 296.43 803.186C315.31 803.186 330.565 808.775 339.325 818.29C339.023 814.665 338.268 811.192 336.909 808.02C330.565 793.369 312.44 784.608 288.727 784.608C274.227 784.608 258.67 788.082 244.019 794.426C223.779 803.337 207.165 816.78 197.196 832.488C188.134 846.686 185.868 860.733 190.852 872.061C192.212 875.082 194.024 877.8 196.29 880.217C195.535 871.155 198.556 861.186 204.899 851.066Z" fill="#18CFAE"/>
<path opacity="0.4" d="M255.8 875.837C245.076 875.837 236.769 871.91 233.899 865.264C228.915 853.785 240.243 837.623 259.274 829.316C266.524 826.144 274.076 824.483 281.024 824.483C291.748 824.483 300.055 828.41 302.925 835.056C305.341 840.342 304.133 846.988 299.602 853.634C294.768 860.733 287.065 866.925 277.55 871.003C270.3 874.175 262.748 875.837 255.8 875.837Z" fill="#18CFAE"/>
<path d="M272.263 862.243C251.722 871.154 230.576 867.982 224.837 854.993C219.097 842.003 231.181 824.181 251.722 815.269C272.264 806.358 293.409 809.53 299.149 822.519C304.737 835.509 292.805 853.18 272.263 862.243Z" fill="#D4DDE8"/>
<path opacity="0.9" d="M249.305 864.509C238.581 864.509 230.274 860.581 227.404 853.936C222.42 842.457 233.748 826.295 252.779 817.988C260.029 814.816 267.581 813.155 274.529 813.155C285.252 813.155 293.56 817.082 296.429 823.728C298.846 829.014 297.638 835.66 293.107 842.306C288.273 849.404 280.57 855.597 271.055 859.675C263.956 862.696 256.404 864.509 249.305 864.509Z" fill="url(#paint9_linear_523_8273)"/>
<path opacity="0.2" d="M258.82 844.572L224.534 954.529C224.534 954.529 228.31 957.399 234.956 955.436L270.299 837.322C270.299 837.322 265.466 828.864 258.82 844.572Z" fill="url(#paint10_linear_523_8273)"/>
<path opacity="0.8" d="M161.4 679.937L164.27 677.369L181.035 676.312L182.244 678.729L161.4 679.937Z" fill="url(#paint11_linear_523_8273)"/>
<path d="M202.936 660H199.462L187.681 673.443L189.493 675.708L202.936 660Z" fill="#18CFAE"/>
<path opacity="0.8" d="M199.764 711.807L174.389 709.088L161.249 679.937L183.603 678.578L199.764 711.807Z" fill="url(#paint12_linear_523_8273)"/>
<path opacity="0.8" d="M201.576 711.354L216.831 692.323L202.936 660L188.134 677.068L201.576 711.354Z" fill="url(#paint13_linear_523_8273)"/>
<path d="M268.789 838.379C269.091 841.4 267.43 844.269 264.56 845.629C260.935 847.29 256.555 845.78 254.743 842.155L176.957 677.219C175.295 673.594 176.806 669.214 180.431 667.401C184.056 665.74 188.436 667.25 190.248 670.875L268.034 835.811C268.487 836.717 268.789 837.473 268.789 838.379Z" fill="url(#paint14_linear_523_8273)"/>
<path d="M259.274 840.493L181.941 676.614C180.431 673.291 181.639 669.364 184.66 667.401C183.754 667.401 182.999 667.703 182.092 668.005C178.467 669.666 176.957 674.047 178.618 677.672L255.951 841.551C257.613 845.175 261.993 846.686 265.618 845.024C265.92 844.873 266.071 844.722 266.373 844.571C263.503 844.873 260.633 843.212 259.274 840.493Z" fill="#092D66"/>
<path d="M181.186 667.401C180.884 667.552 180.582 667.703 180.28 667.854C182.243 667.703 184.207 668.307 185.717 669.667C184.207 668.307 182.243 667.703 180.28 667.854C179.525 668.307 178.77 669.063 178.316 669.818C181.941 668.307 186.019 669.969 187.681 673.443L265.467 838.379C265.92 839.134 266.071 840.04 266.071 840.796C266.222 842.457 265.618 844.27 264.712 845.629C264.863 845.629 265.014 845.478 265.165 845.478C268.034 844.119 269.545 841.249 269.394 838.228C269.394 837.322 269.092 836.567 268.639 835.811L190.853 670.875C189.191 667.25 184.811 665.589 181.186 667.401Z" fill="white"/>
<path d="M247.493 844.722L243.566 842.306C243.264 842.155 243.112 841.551 243.264 841.249C243.415 840.946 244.019 840.795 244.321 840.946L248.248 843.363C248.55 843.514 248.701 844.118 248.55 844.42C248.399 844.722 248.097 844.722 247.946 844.722C247.644 844.874 247.493 844.874 247.493 844.722ZM239.79 840.04L235.863 837.624C235.561 837.473 235.409 836.868 235.56 836.566C235.712 836.264 236.316 836.113 236.618 836.264L240.545 838.681C240.847 838.832 240.998 839.436 240.847 839.738C240.696 840.04 240.394 840.04 240.243 840.04C239.941 840.04 239.79 840.04 239.79 840.04ZM232.087 835.207L228.159 832.79C227.857 832.639 227.706 832.035 227.857 831.733C228.008 831.431 228.613 831.28 228.915 831.431L232.842 833.848C233.144 833.999 233.295 834.603 233.144 834.905C232.993 835.207 232.691 835.207 232.54 835.207C232.238 835.358 232.087 835.358 232.087 835.207ZM224.383 830.525L220.456 828.108C220.154 827.957 220.003 827.353 220.154 827.051C220.305 826.749 220.91 826.598 221.212 826.749L225.139 829.165C225.441 829.316 225.592 829.921 225.441 830.223C225.29 830.525 224.988 830.525 224.837 830.525C224.534 830.525 224.383 830.525 224.383 830.525ZM216.68 825.691L212.753 823.275C212.451 823.124 212.3 822.52 212.451 822.217C212.602 821.915 213.206 821.764 213.509 821.915L217.436 824.332C217.738 824.483 217.889 825.087 217.738 825.389C217.587 825.691 217.285 825.691 217.134 825.691C216.831 825.842 216.68 825.691 216.68 825.691ZM208.977 820.858L205.05 818.441C204.748 818.29 204.597 817.686 204.748 817.384C204.899 817.082 205.503 816.931 205.806 817.082L209.733 819.499C210.035 819.65 210.186 820.254 210.035 820.556C209.884 820.858 209.582 820.858 209.431 820.858C209.128 821.009 208.977 821.009 208.977 820.858ZM201.274 816.176L197.347 813.759C197.045 813.608 196.894 813.004 197.045 812.702C197.196 812.4 197.8 812.249 198.102 812.4L202.029 814.816C202.332 814.968 202.483 815.572 202.332 815.874C202.181 816.176 201.878 816.176 201.727 816.176C201.425 816.327 201.274 816.176 201.274 816.176ZM193.571 811.343L189.644 808.926C189.342 808.775 189.191 808.171 189.342 807.869C189.493 807.567 190.097 807.415 190.399 807.567L194.326 809.983C194.629 810.134 194.78 810.738 194.628 811.04C194.477 811.343 194.175 811.343 194.024 811.343C193.722 811.494 193.571 811.494 193.571 811.343ZM185.868 806.66L181.941 804.244C181.639 804.093 181.488 803.488 181.639 803.186C181.79 802.884 182.394 802.733 182.696 802.884L186.623 805.301C186.925 805.452 187.076 806.056 186.925 806.358C186.774 806.66 186.472 806.66 186.321 806.66C186.019 806.66 185.868 806.66 185.868 806.66ZM178.165 801.827L174.238 799.41C173.936 799.259 173.785 798.655 173.936 798.353C174.087 798.051 174.691 797.9 174.993 798.051L178.92 800.468C179.222 800.619 179.373 801.223 179.222 801.525C179.071 801.827 178.769 801.827 178.618 801.827C178.316 801.978 178.165 801.978 178.165 801.827ZM170.462 796.994L166.535 794.577C166.233 794.426 166.082 793.822 166.233 793.52C166.384 793.218 166.988 793.067 167.29 793.218L171.217 795.634C171.519 795.785 171.67 796.39 171.519 796.692C171.368 796.994 171.066 796.994 170.915 796.994C170.613 797.145 170.462 797.145 170.462 796.994ZM162.759 792.311L158.832 789.895C158.53 789.744 158.379 789.14 158.53 788.838C158.681 788.535 159.285 788.384 159.587 788.535L163.514 790.952C163.816 791.103 163.967 791.707 163.816 792.009C163.665 792.311 163.363 792.311 163.212 792.311C162.91 792.462 162.759 792.311 162.759 792.311ZM155.056 787.478L151.129 785.062C150.827 784.91 150.676 784.306 150.827 784.004C150.978 783.702 151.582 783.551 151.884 783.702L155.811 786.119C156.113 786.27 156.264 786.874 156.113 787.176C155.962 787.478 155.66 787.478 155.509 787.478C155.207 787.629 155.056 787.629 155.056 787.478ZM147.202 782.796L143.275 780.379C142.973 780.228 142.822 779.624 142.973 779.322C143.124 779.02 143.728 778.869 144.03 779.02L147.806 781.437C148.108 781.588 148.259 782.192 148.108 782.494C147.957 782.796 147.655 782.796 147.504 782.796C147.504 782.796 147.353 782.796 147.202 782.796ZM139.499 777.963L135.572 775.546C135.27 775.395 135.119 774.791 135.27 774.489C135.421 774.187 136.025 774.036 136.327 774.187L140.254 776.603C140.556 776.754 140.707 777.358 140.556 777.661C140.405 777.963 140.103 777.963 139.952 777.963C139.801 778.114 139.65 778.114 139.499 777.963ZM131.796 773.28L127.869 770.864C127.567 770.713 127.416 770.109 127.567 769.806C127.718 769.504 128.322 769.353 128.624 769.504L132.551 771.921C132.853 772.072 133.004 772.676 132.853 772.978C132.702 773.28 132.4 773.28 132.249 773.28C132.098 773.28 131.947 773.28 131.796 773.28ZM124.093 768.447L120.166 766.03C119.863 765.879 119.712 765.275 119.863 764.973C120.014 764.671 120.619 764.52 120.921 764.671L124.848 767.088C125.15 767.239 125.301 767.843 125.15 768.145C124.999 768.447 124.697 768.447 124.546 768.447C124.395 768.598 124.244 768.447 124.093 768.447ZM116.39 763.614L112.463 761.197C112.16 761.046 112.009 760.442 112.16 760.14C112.311 759.838 112.916 759.687 113.218 759.838L117.145 762.254C117.447 762.405 117.598 763.01 117.447 763.312C117.296 763.614 116.994 763.614 116.843 763.614C116.692 763.765 116.541 763.765 116.39 763.614ZM108.687 758.932L104.759 756.515C104.457 756.364 104.306 755.76 104.457 755.458C104.608 755.155 105.213 755.004 105.515 755.156L109.442 757.572C109.744 757.723 109.895 758.327 109.744 758.629C109.593 758.932 109.291 758.932 109.14 758.932C108.989 759.083 108.838 758.932 108.687 758.932ZM100.983 754.098L97.0564 751.682C96.7543 751.531 96.6032 750.926 96.7543 750.624C96.9053 750.322 97.5095 750.171 97.8116 750.322L101.739 752.739C102.041 752.89 102.192 753.494 102.041 753.796C101.89 754.098 101.588 754.098 101.437 754.098C101.286 754.249 101.134 754.249 100.983 754.098ZM93.2804 749.416L89.3534 746.999C89.0513 746.848 88.9002 746.244 89.0513 745.942C89.2023 745.64 89.8065 745.489 90.1086 745.64L94.0356 748.057C94.3377 748.208 94.4887 748.812 94.3377 749.114C94.1866 749.416 93.8845 749.416 93.7335 749.416C93.5824 749.416 93.4314 749.416 93.2804 749.416ZM85.5773 744.583L83.4627 743.223H81.8013C81.3482 743.223 81.0461 742.921 81.0461 742.468C81.0461 742.015 81.3482 741.713 81.8013 741.713H83.6137L84.0669 741.864L86.3326 743.223C86.6346 743.374 86.7856 743.979 86.6346 744.281C86.4835 744.583 86.1815 744.583 86.0304 744.583C85.8794 744.734 85.7284 744.734 85.5773 744.583ZM72.8899 743.223C72.4368 743.223 72.1347 742.921 72.1347 742.468C72.1347 742.015 72.4368 741.713 72.8899 741.713H77.4211C77.8742 741.713 78.1763 742.015 78.1763 742.468C78.1763 742.921 77.8742 743.223 77.4211 743.223H72.8899ZM63.8275 743.223C63.3744 743.223 63.0723 742.921 63.0723 742.468C63.0723 742.015 63.3744 741.713 63.8275 741.713H68.3587C68.8118 741.713 69.1139 742.015 69.1139 742.468C69.1139 742.921 68.8118 743.223 68.3587 743.223H63.8275ZM54.7651 743.223C54.3119 743.223 54.0099 742.921 54.0099 742.468C54.0099 742.015 54.3119 741.713 54.7651 741.713H59.2963C59.7494 741.713 60.0515 742.015 60.0515 742.468C60.0515 742.921 59.7494 743.223 59.2963 743.223H54.7651ZM45.7026 743.223C45.2495 743.223 44.9474 742.921 44.9474 742.468C44.9474 742.015 45.2495 741.713 45.7026 741.713H50.2338C50.687 741.713 50.989 742.015 50.989 742.468C50.989 742.921 50.687 743.223 50.2338 743.223H45.7026ZM36.6402 743.223C36.1871 743.223 35.885 742.921 35.885 742.468C35.885 742.015 36.1871 741.713 36.6402 741.713H41.1714C41.6245 741.713 41.9266 742.015 41.9266 742.468C41.9266 742.921 41.6245 743.223 41.1714 743.223H36.6402ZM27.5778 743.223C27.1247 743.223 26.8226 742.921 26.8226 742.468C26.8226 742.015 27.1247 741.713 27.5778 741.713H32.109C32.5621 741.713 32.8642 742.015 32.8642 742.468C32.8642 742.921 32.5621 743.223 32.109 743.223H27.5778ZM18.5154 743.223C18.0622 743.223 17.7601 742.921 17.7601 742.468C17.7601 742.015 18.0622 741.713 18.5154 741.713H23.0466C23.4997 741.713 23.8018 742.015 23.8018 742.468C23.8018 742.921 23.4997 743.223 23.0466 743.223H18.5154ZM9.45292 743.223C8.9998 743.223 8.69772 742.921 8.69772 742.468C8.69772 742.015 8.9998 741.713 9.45292 741.713H13.9841C14.4373 741.713 14.7393 742.015 14.7393 742.468C14.7393 742.921 14.4373 743.223 13.9841 743.223H9.45292ZM3.10921 743.223C2.65608 743.223 2.354 742.921 2.354 742.468C2.354 742.015 2.65608 741.713 3.10921 741.713H4.77071C5.22383 741.713 5.52591 742.015 5.52591 742.468C5.52591 742.921 5.22383 743.223 4.77071 743.223H3.10921Z" fill="#092D66"/>
<path d="M239.336 880.973L235.409 878.707C235.107 878.556 234.956 878.103 235.107 877.65C235.258 877.348 235.711 877.197 236.165 877.348L240.092 879.613C240.394 879.764 240.545 880.217 240.394 880.671C240.243 880.973 239.941 881.124 239.79 881.124C239.638 881.124 239.487 880.973 239.336 880.973ZM231.482 876.441L227.555 874.176C227.253 874.025 227.102 873.572 227.253 873.119C227.404 872.816 227.857 872.665 228.31 872.816L232.238 875.082C232.54 875.233 232.691 875.686 232.54 876.139C232.389 876.441 232.086 876.593 231.935 876.593C231.784 876.593 231.633 876.441 231.482 876.441ZM223.628 871.91L219.701 869.645C219.399 869.494 219.248 869.04 219.399 868.587C219.55 868.285 220.003 868.134 220.456 868.285L224.383 870.551C224.685 870.702 224.837 871.155 224.685 871.608C224.534 871.91 224.232 872.061 224.081 872.061C223.93 872.061 223.779 872.061 223.628 871.91ZM215.774 867.379L211.847 865.113C211.545 864.962 211.394 864.509 211.545 864.056C211.696 863.754 212.149 863.603 212.602 863.754L216.529 866.02C216.831 866.171 216.982 866.624 216.831 867.077C216.68 867.379 216.378 867.53 216.227 867.53C216.076 867.53 215.925 867.53 215.774 867.379ZM207.92 862.848L203.993 860.582C203.691 860.431 203.54 859.978 203.691 859.525C203.842 859.223 204.295 859.072 204.748 859.223L208.675 861.488C208.977 861.639 209.128 862.093 208.977 862.546C208.826 862.848 208.524 862.999 208.373 862.999C208.222 862.999 208.071 862.999 207.92 862.848ZM200.066 858.317L196.139 856.051C195.837 855.9 195.686 855.447 195.837 854.994C195.988 854.692 196.441 854.541 196.894 854.692L200.821 856.957C201.123 857.108 201.274 857.561 201.123 858.015C200.972 858.317 200.67 858.468 200.519 858.468C200.368 858.468 200.217 858.468 200.066 858.317ZM192.212 853.936L188.285 851.671C187.983 851.52 187.832 851.067 187.983 850.614C188.134 850.311 188.587 850.16 189.04 850.311L192.967 852.577C193.269 852.728 193.42 853.181 193.269 853.634C193.118 853.936 192.816 854.087 192.665 854.087C192.514 853.936 192.363 853.936 192.212 853.936ZM184.358 849.405L180.431 847.14C180.129 846.989 179.978 846.535 180.129 846.082C180.28 845.78 180.733 845.629 181.186 845.78L185.113 848.046C185.415 848.197 185.566 848.65 185.415 849.103C185.264 849.405 184.962 849.556 184.811 849.556C184.66 849.405 184.509 849.405 184.358 849.405ZM176.504 844.874L172.577 842.608C172.274 842.457 172.123 842.004 172.274 841.551C172.425 841.249 172.879 841.098 173.332 841.249L177.259 843.515C177.561 843.666 177.712 844.119 177.561 844.572C177.41 844.874 177.108 845.025 176.957 845.025C176.806 844.874 176.655 844.874 176.504 844.874ZM168.65 840.343L164.722 838.077C164.42 837.926 164.269 837.473 164.42 837.02C164.571 836.718 165.024 836.567 165.478 836.718L169.405 838.983C169.707 839.134 169.858 839.588 169.707 840.041C169.556 840.343 169.254 840.494 169.103 840.494C168.952 840.494 168.801 840.343 168.65 840.343ZM160.795 835.812L156.868 833.546C156.566 833.395 156.415 832.942 156.566 832.489C156.717 832.187 157.17 832.036 157.623 832.187L161.551 834.452C161.853 834.603 162.004 835.056 161.853 835.51C161.702 835.812 161.4 835.963 161.249 835.963C161.097 835.963 160.946 835.963 160.795 835.812ZM152.941 831.28L149.014 829.015C148.712 828.864 148.561 828.411 148.712 827.957C148.863 827.655 149.316 827.504 149.769 827.655L153.696 829.921C153.999 830.072 154.15 830.525 153.999 830.978C153.848 831.28 153.545 831.431 153.394 831.431C153.243 831.431 153.092 831.431 152.941 831.28ZM145.087 826.749L141.16 824.484C140.858 824.333 140.707 823.879 140.858 823.426C141.009 823.124 141.462 822.973 141.915 823.124L145.842 825.39C146.144 825.541 146.296 825.994 146.144 826.447C145.993 826.749 145.691 826.9 145.54 826.9C145.389 826.9 145.238 826.9 145.087 826.749ZM137.233 822.218L133.306 819.952C133.004 819.801 132.853 819.348 133.004 818.895C133.155 818.593 133.608 818.442 134.061 818.593L137.988 820.859C138.29 821.01 138.441 821.463 138.29 821.916C138.139 822.218 137.837 822.369 137.686 822.369C137.384 822.369 137.384 822.369 137.233 822.218ZM129.379 817.838L125.452 815.572C125.15 815.421 124.999 814.968 125.15 814.515C125.301 814.213 125.754 814.062 126.207 814.213L130.134 816.478C130.436 816.629 130.587 817.083 130.436 817.536C130.285 817.838 129.983 817.989 129.832 817.989C129.53 817.838 129.53 817.838 129.379 817.838ZM121.525 813.307L117.598 811.041C117.296 810.89 117.145 810.437 117.296 809.984C117.447 809.682 117.9 809.531 118.353 809.682L122.28 811.947C122.582 812.098 122.733 812.551 122.582 813.004C122.431 813.307 122.129 813.458 121.978 813.458C121.676 813.307 121.676 813.307 121.525 813.307ZM113.671 808.775L109.744 806.51C109.442 806.359 109.291 805.906 109.442 805.452C109.593 805.15 110.046 804.999 110.499 805.15L114.426 807.416C114.728 807.567 114.879 808.02 114.728 808.473C114.577 808.775 114.275 808.926 114.124 808.926C113.822 808.775 113.822 808.775 113.671 808.775ZM105.817 804.244L101.89 801.979C101.588 801.827 101.436 801.374 101.588 800.921C101.739 800.619 102.192 800.468 102.645 800.619L106.572 802.885C106.874 803.036 107.025 803.489 106.874 803.942C106.723 804.244 106.421 804.395 106.27 804.395C105.968 804.395 105.817 804.244 105.817 804.244ZM97.9625 799.713L94.0355 797.447C93.7334 797.296 93.5824 796.843 93.7334 796.39C93.8844 796.088 94.3376 795.937 94.7907 796.088L98.7177 798.354C99.0198 798.505 99.1709 798.958 99.0198 799.411C98.8688 799.713 98.5668 799.864 98.4157 799.864C98.1136 799.864 97.9625 799.713 97.9625 799.713ZM90.1085 795.182L86.1814 792.916C85.8793 792.765 85.7282 792.312 85.8793 791.859C86.0303 791.557 86.4835 791.406 86.9366 791.557L90.8637 793.822C91.1658 793.973 91.3167 794.427 91.1657 794.88C91.0147 795.182 90.7126 795.333 90.5616 795.333C90.2595 795.333 90.1085 795.333 90.1085 795.182ZM82.2544 790.651L78.3273 788.385C78.0252 788.234 77.8742 787.781 78.0253 787.328C78.1763 787.026 78.6293 786.874 79.0825 787.026L83.0096 789.291C83.3117 789.442 83.4627 789.895 83.3117 790.348C83.1606 790.651 82.8585 790.802 82.7075 790.802C82.4054 790.802 82.2544 790.802 82.2544 790.651ZM74.4003 786.119L73.494 785.666H70.4732C70.0201 785.666 69.718 785.364 69.718 784.911C69.718 784.458 70.0201 784.156 70.4732 784.156H73.7961L74.0982 784.307L75.1555 784.911C75.4575 785.062 75.6086 785.515 75.4576 785.968C75.3065 786.27 75.0044 786.421 74.8534 786.421C74.5513 786.27 74.4003 786.27 74.4003 786.119ZM61.2597 785.666C60.8066 785.666 60.5045 785.364 60.5045 784.911C60.5045 784.458 60.8066 784.156 61.2597 784.156H65.7909C66.244 784.156 66.5461 784.458 66.5461 784.911C66.5461 785.364 66.244 785.666 65.7909 785.666H61.2597ZM52.1973 785.666C51.7442 785.666 51.4421 785.364 51.4421 784.911C51.4421 784.458 51.7442 784.156 52.1973 784.156H56.7285C57.1816 784.156 57.4837 784.458 57.4837 784.911C57.4837 785.364 57.1816 785.666 56.7285 785.666H52.1973ZM43.1349 785.666C42.6817 785.666 42.3797 785.364 42.3797 784.911C42.3797 784.458 42.6817 784.156 43.1349 784.156H47.6661C48.1192 784.156 48.4213 784.458 48.4213 784.911C48.4213 785.364 48.1192 785.666 47.6661 785.666H43.1349ZM34.0724 785.666C33.6193 785.666 33.3172 785.364 33.3172 784.911C33.3172 784.458 33.6193 784.156 34.0724 784.156H38.6036C39.0568 784.156 39.3589 784.458 39.3589 784.911C39.3589 785.364 39.0568 785.666 38.6036 785.666H34.0724ZM25.01 785.666C24.5569 785.666 24.2548 785.364 24.2548 784.911C24.2548 784.458 24.5569 784.156 25.01 784.156H29.5412C29.9943 784.156 30.2964 784.458 30.2964 784.911C30.2964 785.364 29.9943 785.666 29.5412 785.666H25.01ZM15.9476 785.666C15.4945 785.666 15.1924 785.364 15.1924 784.911C15.1924 784.458 15.4945 784.156 15.9476 784.156H20.4788C20.9319 784.156 21.234 784.458 21.234 784.911C21.234 785.364 20.9319 785.666 20.4788 785.666H15.9476ZM6.88516 785.666C6.43204 785.666 6.12996 785.364 6.12996 784.911C6.12996 784.458 6.43204 784.156 6.88516 784.156H11.4164C11.8695 784.156 12.1716 784.458 12.1716 784.911C12.1716 785.364 11.8695 785.666 11.4164 785.666H6.88516ZM-1.87517 785.666C-2.32829 785.666 -2.63037 785.364 -2.63037 784.911C-2.63037 784.458 -2.32829 784.156 -1.87517 784.156H2.35394C2.80707 784.156 3.10915 784.458 3.10915 784.911C3.10915 785.364 2.80707 785.666 2.35394 785.666H-1.87517Z" fill="#18CFAE"/>
<path d="M224.686 917.524L220.759 915.258C220.457 915.107 220.305 914.654 220.456 914.201C220.608 913.899 221.061 913.748 221.514 913.899L225.441 916.164C225.743 916.315 225.894 916.768 225.743 917.221C225.592 917.524 225.29 917.524 225.139 917.524C224.837 917.675 224.686 917.675 224.686 917.524ZM216.831 912.992L212.904 910.727C212.602 910.576 212.451 910.123 212.602 909.669C212.753 909.367 213.207 909.216 213.66 909.367L217.587 911.633C217.889 911.784 218.04 912.237 217.889 912.69C217.738 912.992 217.436 912.992 217.285 912.992C216.983 913.143 216.831 913.143 216.831 912.992ZM208.977 908.461L205.05 906.195C204.748 906.044 204.597 905.591 204.748 905.138C204.899 904.836 205.352 904.685 205.806 904.836L209.733 907.102C210.035 907.253 210.186 907.706 210.035 908.159C209.884 908.461 209.582 908.461 209.431 908.461C209.128 908.612 209.128 908.612 208.977 908.461ZM201.123 903.93L197.196 901.664C196.894 901.513 196.743 901.06 196.894 900.607C197.045 900.305 197.498 900.154 197.951 900.305L201.879 902.571C202.181 902.722 202.332 903.175 202.181 903.628C202.03 903.93 201.727 903.93 201.576 903.93C201.425 904.081 201.274 904.081 201.123 903.93ZM193.269 899.399L189.342 897.133C189.04 896.982 188.889 896.529 189.04 896.076C189.191 895.774 189.644 895.623 190.097 895.774L194.024 898.039C194.326 898.19 194.478 898.644 194.327 899.097C194.175 899.399 193.873 899.399 193.722 899.399C193.571 899.55 193.42 899.399 193.269 899.399ZM185.415 894.867L181.488 892.602C181.186 892.451 181.035 891.998 181.186 891.545C181.337 891.243 181.79 891.091 182.243 891.243L186.17 893.508C186.472 893.659 186.623 894.112 186.472 894.565C186.321 894.867 186.019 894.867 185.868 894.867C185.717 895.019 185.566 894.867 185.415 894.867ZM177.561 890.336L173.634 888.071C173.332 887.92 173.181 887.467 173.332 887.013C173.483 886.711 173.936 886.56 174.389 886.711L178.316 888.977C178.618 889.128 178.769 889.581 178.618 890.034C178.467 890.336 178.165 890.336 178.014 890.336C177.863 890.336 177.712 890.336 177.561 890.336ZM169.707 885.805L165.78 883.539C165.478 883.388 165.327 882.935 165.478 882.482C165.629 882.18 166.082 882.029 166.535 882.18L170.462 884.446C170.764 884.597 170.915 885.05 170.764 885.503C170.613 885.805 170.311 885.805 170.16 885.805C170.009 885.805 169.858 885.805 169.707 885.805ZM161.853 881.123L157.926 878.857C157.624 878.706 157.473 878.253 157.624 877.8C157.775 877.498 158.228 877.347 158.681 877.498L162.608 879.763C162.91 879.914 163.061 880.368 162.91 880.821C162.759 881.123 162.457 881.123 162.306 881.123C162.155 881.274 162.004 881.274 161.853 881.123ZM154.15 876.592L150.223 874.326C149.921 874.175 149.77 873.722 149.921 873.269C150.072 872.967 150.525 872.816 150.978 872.967L154.905 875.232C155.207 875.383 155.358 875.836 155.207 876.29C155.056 876.592 154.754 876.592 154.603 876.592C154.301 876.743 154.15 876.743 154.15 876.592ZM146.296 872.06L142.369 869.795C142.066 869.644 141.915 869.191 142.066 868.737C142.218 868.435 142.671 868.284 143.124 868.435L147.051 870.701C147.353 870.852 147.504 871.305 147.353 871.758C147.202 872.06 146.9 872.06 146.749 872.06C146.447 872.211 146.296 872.211 146.296 872.06ZM138.442 867.529L134.514 865.264C134.212 865.113 134.061 864.659 134.212 864.206C134.363 863.904 134.817 863.753 135.27 863.904L139.197 866.17C139.499 866.321 139.65 866.774 139.499 867.227C139.348 867.529 139.046 867.529 138.895 867.529C138.593 867.68 138.593 867.68 138.442 867.529ZM130.587 862.998L126.66 860.732C126.358 860.581 126.207 860.128 126.358 859.675C126.509 859.373 126.962 859.222 127.416 859.373L131.343 861.639C131.645 861.79 131.796 862.243 131.645 862.696C131.494 862.998 131.192 862.998 131.041 862.998C130.89 863.149 130.738 862.998 130.587 862.998ZM122.733 858.467L118.806 856.201C118.504 856.05 118.353 855.597 118.504 855.144C118.655 854.842 119.108 854.691 119.562 854.842L123.489 857.107C123.791 857.258 123.942 857.712 123.791 858.165C123.64 858.467 123.337 858.467 123.186 858.467C123.035 858.467 122.884 858.467 122.733 858.467ZM114.879 853.936L110.952 851.67C110.65 851.519 110.499 851.066 110.65 850.613C110.801 850.311 111.254 850.16 111.707 850.311L115.634 852.576C115.936 852.727 116.088 853.18 115.937 853.633C115.785 853.936 115.483 853.936 115.332 853.936C115.181 853.936 115.03 853.936 114.879 853.936ZM107.025 849.404L103.098 847.139C102.796 846.988 102.645 846.535 102.796 846.081C102.947 845.779 103.4 845.628 103.853 845.779L107.78 848.045C108.082 848.196 108.233 848.649 108.082 849.102C107.931 849.404 107.629 849.404 107.478 849.404C107.327 849.404 107.176 849.404 107.025 849.404ZM99.1711 844.722L95.2439 842.456C94.9419 842.305 94.7908 841.852 94.9418 841.399C95.0929 841.097 95.546 840.946 95.9991 841.097L99.9263 843.363C100.228 843.514 100.379 843.967 100.228 844.42C100.077 844.722 99.7752 844.722 99.6242 844.722C99.4731 844.873 99.3221 844.873 99.1711 844.722ZM91.3169 840.191L87.3898 837.925C87.0877 837.774 86.9368 837.321 87.0878 836.868C87.2389 836.566 87.6919 836.415 88.145 836.566L92.0721 838.831C92.3742 838.983 92.5253 839.436 92.3742 839.889C92.2232 840.191 91.9211 840.191 91.77 840.191C91.619 840.342 91.468 840.342 91.3169 840.191ZM83.6138 835.66L79.6868 833.394C79.3847 833.243 79.2337 832.79 79.3847 832.337C79.5357 832.035 79.9889 831.884 80.442 832.035L84.369 834.3C84.6711 834.451 84.8222 834.904 84.6711 835.358C84.5201 835.66 84.218 835.66 84.067 835.66C83.7649 835.811 83.6138 835.811 83.6138 835.66ZM75.7598 831.128L75.3066 830.826C75.0045 830.675 74.8535 830.222 75.0046 829.769C75.1556 829.467 75.6087 829.316 76.0618 829.467L76.515 829.769C76.8171 829.92 76.968 830.373 76.817 830.826C76.666 831.128 76.3639 831.128 76.2129 831.128C75.9108 831.279 75.7598 831.128 75.7598 831.128Z" fill="#092D66"/>
<path d="M217.587 950.904L213.508 948.789C213.206 948.638 213.055 948.185 213.206 947.732C213.358 947.43 213.811 947.279 214.264 947.43L218.342 949.545C218.644 949.696 218.795 950.149 218.644 950.602C218.493 950.904 218.191 951.055 218.04 951.055C217.738 951.055 217.587 951.055 217.587 950.904ZM209.43 946.826L205.352 944.711C205.05 944.56 204.899 944.107 205.05 943.654C205.201 943.352 205.654 943.201 206.108 943.352L210.186 945.466C210.488 945.617 210.639 946.071 210.488 946.524C210.337 946.826 210.035 946.977 209.884 946.977C209.581 946.977 209.582 946.977 209.43 946.826ZM201.274 942.748L197.196 940.633C196.894 940.482 196.743 940.029 196.894 939.576C197.045 939.274 197.498 939.123 197.951 939.274L202.029 941.388C202.332 941.539 202.483 941.992 202.332 942.446C202.181 942.748 201.878 942.899 201.727 942.899C201.576 942.899 201.425 942.899 201.274 942.748ZM193.269 938.67L189.191 936.555C188.889 936.404 188.738 935.951 188.889 935.498C189.04 935.196 189.493 935.045 189.946 935.196L194.024 937.31C194.326 937.461 194.477 937.914 194.326 938.368C194.175 938.67 193.873 938.821 193.722 938.821C193.42 938.821 193.42 938.67 193.269 938.67ZM185.113 934.592L181.035 932.477C180.733 932.326 180.582 931.873 180.733 931.42C180.884 931.118 181.337 930.967 181.79 931.118L185.868 933.232C186.17 933.383 186.321 933.836 186.17 934.289C186.019 934.592 185.717 934.743 185.566 934.743C185.415 934.743 185.264 934.592 185.113 934.592ZM177.108 930.513L173.03 928.399C172.728 928.248 172.577 927.795 172.728 927.342C172.879 927.039 173.332 926.888 173.785 927.04L177.863 929.154C178.165 929.305 178.316 929.758 178.165 930.211C178.014 930.513 177.712 930.664 177.561 930.664C177.259 930.664 177.108 930.513 177.108 930.513ZM168.952 926.435L164.874 924.321C164.571 924.17 164.42 923.717 164.571 923.264C164.722 922.961 165.176 922.81 165.629 922.961L169.707 925.076C170.009 925.227 170.16 925.68 170.009 926.133C169.858 926.435 169.556 926.586 169.405 926.586C169.254 926.586 169.103 926.435 168.952 926.435ZM160.946 922.357L156.868 920.243C156.566 920.092 156.415 919.639 156.566 919.185C156.717 918.883 157.17 918.732 157.624 918.883L161.702 920.998C162.004 921.149 162.155 921.602 162.004 922.055C161.853 922.357 161.551 922.508 161.4 922.508C161.097 922.508 160.946 922.357 160.946 922.357ZM152.79 918.279L148.712 916.165C148.41 916.014 148.259 915.56 148.41 915.107C148.561 914.805 149.014 914.654 149.467 914.805L153.546 916.92C153.848 917.071 153.999 917.524 153.848 917.977C153.696 918.279 153.394 918.43 153.243 918.43C152.941 918.43 152.941 918.279 152.79 918.279ZM144.634 914.201L140.556 912.087C140.254 911.935 140.103 911.482 140.254 911.029C140.405 910.727 140.858 910.576 141.311 910.727L145.389 912.842C145.691 912.993 145.842 913.446 145.691 913.899C145.54 914.201 145.238 914.352 145.087 914.352C144.936 914.201 144.785 914.201 144.634 914.201ZM136.629 910.123L132.551 908.008C132.249 907.857 132.098 907.404 132.249 906.951C132.4 906.649 132.853 906.498 133.306 906.649L137.384 908.764C137.686 908.915 137.837 909.368 137.686 909.821C137.535 910.123 137.233 910.274 137.082 910.274C136.78 910.123 136.78 910.123 136.629 910.123ZM128.473 906.045L124.395 903.93C124.093 903.779 123.942 903.326 124.093 902.873C124.244 902.571 124.697 902.42 125.15 902.571L129.228 904.685C129.53 904.837 129.681 905.29 129.53 905.743C129.379 906.045 129.077 906.196 128.926 906.196C128.775 906.045 128.624 906.045 128.473 906.045ZM120.468 901.967L116.39 899.852C116.087 899.701 115.936 899.248 116.087 898.795C116.238 898.493 116.692 898.342 117.145 898.493L121.223 900.607C121.525 900.758 121.676 901.212 121.525 901.665C121.374 901.967 121.072 902.118 120.921 902.118C120.619 901.967 120.468 901.967 120.468 901.967ZM112.311 897.889L108.233 895.774C107.931 895.623 107.78 895.17 107.931 894.717C108.082 894.415 108.535 894.264 108.989 894.415L113.067 896.529C113.369 896.68 113.52 897.134 113.369 897.587C113.218 897.889 112.916 898.04 112.765 898.04C112.614 897.889 112.462 897.889 112.311 897.889ZM104.306 893.811L100.228 891.696C99.9261 891.545 99.7751 891.092 99.9262 890.639C100.077 890.337 100.53 890.186 100.983 890.337L105.061 892.451C105.364 892.602 105.515 893.055 105.364 893.509C105.213 893.811 104.91 893.962 104.759 893.962C104.457 893.811 104.306 893.811 104.306 893.811ZM96.1501 889.733L92.072 887.618C91.77 887.467 91.6189 887.014 91.7699 886.561C91.921 886.259 92.3741 886.108 92.8272 886.259L96.9053 888.373C97.2074 888.524 97.3584 888.977 97.2074 889.43C97.0563 889.733 96.7543 889.884 96.6032 889.884C96.4522 889.733 96.3012 889.733 96.1501 889.733ZM87.9939 885.654L83.9158 883.54C83.6137 883.389 83.4627 882.936 83.6137 882.483C83.7647 882.18 84.2179 882.029 84.671 882.18L88.7491 884.295C89.0512 884.446 89.2023 884.899 89.0512 885.352C88.9002 885.654 88.5981 885.805 88.447 885.805C88.296 885.654 88.145 885.654 87.9939 885.654ZM79.9888 881.576L76.5149 879.764H76.2128C75.7597 879.764 75.4576 879.462 75.4576 879.009C75.4576 878.555 75.7597 878.253 76.2128 878.253H76.6659L76.968 878.404L80.5929 880.217C80.895 880.368 81.046 880.821 80.895 881.274C80.744 881.576 80.4419 881.727 80.2909 881.727C80.1399 881.576 80.1398 881.576 79.9888 881.576ZM67.1504 879.764C66.6972 879.764 66.3952 879.462 66.3952 879.009C66.3952 878.555 66.6972 878.253 67.1504 878.253H71.6816C72.1347 878.253 72.4368 878.555 72.4368 879.009C72.4368 879.462 72.1347 879.764 71.6816 879.764H67.1504ZM58.0879 879.764C57.6348 879.764 57.3327 879.462 57.3327 879.009C57.3327 878.555 57.6348 878.253 58.0879 878.253H62.6191C63.0723 878.253 63.3743 878.555 63.3743 879.009C63.3743 879.462 63.0723 879.764 62.6191 879.764H58.0879ZM49.0255 879.764C48.5724 879.764 48.2703 879.462 48.2703 879.009C48.2703 878.555 48.5724 878.253 49.0255 878.253H53.5567C54.0098 878.253 54.3119 878.555 54.3119 879.009C54.3119 879.462 54.0098 879.764 53.5567 879.764H49.0255ZM39.9631 879.764C39.51 879.764 39.2079 879.462 39.2079 879.009C39.2079 878.555 39.51 878.253 39.9631 878.253H44.4943C44.9474 878.253 45.2495 878.555 45.2495 879.009C45.2495 879.462 44.9474 879.764 44.4943 879.764H39.9631ZM30.9007 879.764C30.4475 879.764 30.1454 879.462 30.1454 879.009C30.1454 878.555 30.4475 878.253 30.9007 878.253H35.4319C35.885 878.253 36.1871 878.555 36.1871 879.009C36.1871 879.462 35.885 879.764 35.4319 879.764H30.9007ZM21.8382 879.764C21.3851 879.764 21.083 879.462 21.083 879.009C21.083 878.555 21.3851 878.253 21.8382 878.253H26.3694C26.8226 878.253 27.1246 878.555 27.1246 879.009C27.1246 879.462 26.8226 879.764 26.3694 879.764H21.8382ZM12.7758 879.764C12.3227 879.764 12.0206 879.462 12.0206 879.009C12.0206 878.555 12.3227 878.253 12.7758 878.253H17.307C17.7601 878.253 18.0622 878.555 18.0622 879.009C18.0622 879.462 17.7601 879.764 17.307 879.764H12.7758ZM3.71337 879.764C3.26025 879.764 2.95817 879.462 2.95817 879.009C2.95817 878.555 3.26025 878.253 3.71337 878.253H8.24458C8.6977 878.253 8.99978 878.555 8.99978 879.009C8.99978 879.462 8.6977 879.764 8.24458 879.764H3.71337ZM-5.34906 879.764C-5.80218 879.764 -6.10426 879.462 -6.10426 879.009C-6.10426 878.555 -5.80218 878.253 -5.34906 878.253H-0.817844C-0.364723 878.253 -0.0626431 878.555 -0.0626431 879.009C-0.0626431 879.462 -0.364723 879.764 -0.817844 879.764H-5.34906ZM-14.4115 879.764C-14.8646 879.764 -15.1667 879.462 -15.1667 879.009C-15.1667 878.555 -14.8646 878.253 -14.4115 878.253H-9.88027C-9.42715 878.253 -9.12507 878.555 -9.12507 879.009C-9.12507 879.462 -9.42715 879.764 -9.88027 879.764H-14.4115ZM-19.2448 879.764C-19.6979 879.764 -20 879.462 -20 879.009C-20 878.555 -19.6979 878.253 -19.2448 878.253H-18.9427C-18.4896 878.253 -18.1875 878.555 -18.1875 879.009C-18.1875 879.462 -18.4896 879.764 -18.9427 879.764H-19.2448Z" fill="#18CFAE"/>
<path d="M249.456 847.441C249.456 845.175 251.268 843.363 253.534 843.363C255.8 843.363 257.612 845.175 257.612 847.441C257.612 849.706 255.8 851.519 253.534 851.519C251.268 851.519 249.456 849.706 249.456 847.441ZM250.966 847.441C250.966 848.8 252.175 850.009 253.534 850.009C254.893 850.009 256.102 848.8 256.102 847.441C256.102 846.082 254.893 844.873 253.534 844.873C252.175 844.873 250.966 846.082 250.966 847.441Z" fill="#092D66"/>
<path d="M239.941 882.634C239.941 880.368 241.753 878.556 244.019 878.556C246.285 878.556 248.097 880.368 248.097 882.634C248.097 884.899 246.285 886.712 244.019 886.712C241.753 886.712 239.941 884.899 239.941 882.634ZM241.451 882.634C241.451 883.993 242.66 885.201 244.019 885.201C245.378 885.201 246.587 883.993 246.587 882.634C246.587 881.274 245.378 880.066 244.019 880.066C242.66 880.066 241.451 881.274 241.451 882.634Z" fill="#18CFAE"/>
<path d="M226.196 919.336C226.196 917.071 228.008 915.258 230.274 915.258C232.54 915.258 234.352 917.071 234.352 919.336C234.352 921.602 232.54 923.415 230.274 923.415C228.008 923.415 226.196 921.602 226.196 919.336ZM227.706 919.336C227.706 920.696 228.915 921.904 230.274 921.904C231.633 921.904 232.842 920.696 232.842 919.336C232.842 917.977 231.633 916.769 230.274 916.769C228.764 916.769 227.706 917.826 227.706 919.336Z" fill="#092D66"/>
<path d="M218.04 951.659C218.04 949.394 219.853 947.581 222.118 947.581C224.384 947.581 226.196 949.394 226.196 951.659C226.196 953.925 224.384 955.737 222.118 955.737C219.853 955.737 218.04 953.925 218.04 951.659ZM219.55 951.659C219.55 953.018 220.759 954.227 222.118 954.227C223.478 954.227 224.686 953.018 224.686 951.659C224.686 950.3 223.478 949.091 222.118 949.091C220.759 949.091 219.55 950.3 219.55 951.659Z" fill="#18CFAE"/>

<path d="M895 659.135L895 646.546L822.476 650.958L822.476 665.807L848.731 671.617C857.877 673.447 866.055 675.061 874.125 676.137L874.125 676.459C865.947 677.751 857.877 679.58 848.731 681.517L822.476 687.327L822.476 702.284L895 707.449L895 695.398L869.821 694.106C862.612 693.784 853.465 693.246 845.61 693.03L845.61 692.815C853.465 691.631 862.504 689.695 868.314 688.296L893.816 682.27L893.816 672.371L867.884 666.022C862.289 664.623 853.358 662.686 845.61 661.395L845.61 661.18C853.358 661.287 862.719 660.857 869.606 660.427L895 659.135ZM863.472 601.608C852.712 601.608 841.521 604.191 841.521 620.224C841.521 627.648 843.889 633.674 845.503 636.687L855.079 634.104C853.142 630.876 851.959 627.541 851.959 623.344C851.959 618.287 854.972 615.919 859.168 615.919L860.352 615.919C860.459 627.863 866.055 640.022 879.936 640.022C889.189 640.022 895.861 634.104 895.861 626.142C895.861 621.515 893.816 617.318 889.835 614.521L889.835 614.198L895 613.445L895 600.855C891.449 601.393 887.145 601.608 882.948 601.608L863.472 601.608ZM878.537 615.489C879.505 615.489 880.258 615.597 881.012 615.812C884.132 616.78 885.531 619.255 885.531 621.622C885.531 623.774 883.594 626.68 878.429 626.68C871.112 626.68 869.498 620.116 869.391 615.489L878.537 615.489ZM895 591.722L895 577.626L868.207 577.626C866.055 577.626 864.118 577.411 862.934 576.981C857.554 575.474 855.51 571.493 855.51 568.48C855.51 567.296 855.51 566.328 855.617 565.467L841.737 565.467C841.521 566.22 841.414 566.974 841.414 568.48C841.414 572.246 844.427 576.55 850.022 578.81L850.022 579.24L842.382 579.994L842.382 592.153C847.332 591.937 853.035 591.722 858.2 591.722L895 591.722ZM820.539 546.105L820.539 560.201L895 560.201L895 546.105L877.891 546.105L873.372 543.737L895 536.205L895 520.495L864.441 534.053L842.382 521.248L842.382 536.42L858.092 543.307C860.244 544.168 862.396 544.921 865.409 545.889L865.409 546.105L820.539 546.105ZM873.695 480.107C872.188 479.892 870.144 479.677 866.378 479.677C850.345 479.677 841.414 486.24 841.414 497.539C841.414 509.375 851.959 518.629 869.713 518.629C886.177 518.629 895.646 510.774 895.646 496.355C895.646 491.082 894.677 485.595 893.278 482.044L883.164 483.873C884.025 486.456 884.885 489.899 884.885 493.88C884.885 500.014 881.872 504.856 873.695 504.963L873.695 480.107ZM863.795 504.963C858.523 504.856 851.744 502.919 851.744 498.399C851.744 494.203 857.016 492.481 863.795 492.481L863.795 504.963ZM833.128 469.245L842.382 469.245L842.382 475.486L852.389 475.486L852.389 469.245L877.246 469.245C885.531 469.245 889.512 467.631 892.31 464.833C894.677 462.251 895.646 458.7 895.646 454.611C895.646 450.953 895.215 447.94 894.677 446.003L883.702 446.11C883.917 447.402 884.024 448.478 884.024 449.876C884.024 452.567 882.518 455.149 876.385 455.149L852.389 455.149L852.389 444.819L842.382 444.819L842.382 455.149L828.717 455.149L833.128 469.245ZM895 424.208L842.382 424.208L842.382 438.304L895 438.304L895 424.208ZM820.754 431.418C820.754 435.291 823.767 438.735 828.501 438.627C833.021 438.735 836.141 435.506 836.141 431.633C836.141 427.329 833.021 424.101 828.501 424.208C823.767 424.208 820.754 427.329 820.754 431.418ZM895 414.346L895 400.25L862.934 400.25C860.89 400.25 859.168 399.927 858.092 399.497C854.972 398.528 853.358 396.591 853.358 394.224C853.358 390.135 857.662 389.059 862.074 389.059L895 389.059L895 374.963L861.213 374.963C849.484 374.963 841.521 378.944 841.521 388.951C841.521 394.439 844.319 398.959 848.408 401.649L848.408 401.864L842.382 402.617L842.382 414.776C847.44 414.561 852.497 414.346 858.2 414.346L895 414.346ZM859.061 326.649C852.712 326.649 847.224 326.433 842.382 326.111L842.382 338.485L847.762 339.238L847.762 339.453C843.673 341.498 841.414 344.941 841.414 349.138C841.414 358.822 851.636 366.784 869.175 366.784C881.765 366.784 894.677 362.157 894.677 350.429C894.677 346.447 892.74 342.789 889.405 340.96L889.405 340.745L892.633 340.745C900.703 340.745 905.437 343.542 905.437 350.644C905.437 354.733 904.469 358.069 903.178 360.651L914.046 363.233C915.66 359.467 916.521 355.056 916.521 350.106C916.521 342.466 914.368 336.871 910.71 332.997C906.621 328.801 900.38 326.649 889.082 326.649L859.061 326.649ZM875.631 340.745C877.03 340.745 878.644 340.852 879.828 341.39C882.626 342.466 883.594 344.188 883.594 346.017C883.594 350.106 878.644 352.904 868.852 352.904C860.244 352.904 853.358 350.859 853.358 345.802C853.358 343.435 855.402 341.928 857.662 341.283C858.738 340.96 860.137 340.745 861.535 340.745L875.631 340.745Z" fill="white"/>
<path d="M1017 334.127L1017 355.648L1001.4 360.813L1001.4 374.693L987.086 381.472L1017 391.479L1017 413L930.918 384.27L930.918 362.749L1017 334.127ZM981.168 367.592L963.199 373.51L981.168 379.536L981.168 367.592ZM1017 256.534L1017 279.668L973.851 307.968L1017 307.968L1017 328.305L930.918 328.305L930.918 282.036C930.918 278.592 931.707 275.4 933.285 272.459C934.791 269.446 936.836 266.864 939.418 264.712C942.001 262.559 945.014 260.874 948.457 259.654C951.829 258.363 955.379 257.717 959.11 257.717C962.625 257.717 965.745 258.04 968.471 258.686C971.197 259.331 973.636 260.336 975.788 261.699C977.94 263.062 979.841 264.783 981.491 266.864C983.069 268.944 984.504 271.383 985.795 274.181C985.867 274.324 985.975 274.468 986.118 274.611C986.261 274.754 986.405 274.97 986.548 275.257L1017 256.534ZM959.863 277.086C957.496 277.086 955.415 277.875 953.622 279.453C951.829 281.031 950.932 282.968 950.932 285.264L950.932 308.075L968.686 308.075L968.686 284.403C968.686 283.47 968.399 282.574 967.825 281.713C967.252 280.78 966.534 279.991 965.673 279.346C964.813 278.628 963.88 278.09 962.876 277.731C961.8 277.301 960.795 277.086 959.863 277.086ZM930.918 177.203L951.147 187.102L951.147 214.541C951.147 215.545 951.47 216.657 952.115 217.877C952.689 219.024 953.478 220.136 954.483 221.212C955.415 222.288 956.455 223.257 957.603 224.118C958.751 224.907 959.827 225.445 960.831 225.732C965.351 227.023 968.148 227.668 969.224 227.668C987.589 227.668 996.771 222.432 996.771 211.958L996.771 177.31L1017 177.31L1017 214.003C1017 214.648 1016.86 215.76 1016.57 217.339C1016.28 218.845 1015.85 220.818 1015.28 223.257C1014.63 226.27 1013.34 229.175 1011.4 231.973C1009.47 234.698 1007.17 237.173 1004.52 239.397C1001.79 241.549 998.815 243.378 995.587 244.885C992.287 246.391 988.952 247.36 985.58 247.79C980.63 248.436 976.9 248.759 974.389 248.759C967.933 248.759 962.051 247.862 956.742 246.069C951.362 244.203 946.771 241.621 942.969 238.321C939.167 234.95 936.226 230.932 934.146 226.27C931.994 221.607 930.918 216.406 930.918 210.667L930.918 177.203Z" fill="#21A497"/>
<rect x="406" y="85" width="481.838" height="722.757" fill="url(#pattern1)"/>


<g filter="url(#filter2_d_523_8273)">

</g>








</g>
<defs>
<pattern id="pattern0" patternContentUnits="objectBoundingBox" width="1" height="1">
<use xlink:href="#image0_523_8273" transform="translate(0 -0.00012209) scale(0.0003663 0.0002442)"/>
</pattern>
<filter id="filter0_i_523_8273" x="1102.81" y="190.53" width="277.917" height="42.7565" filterUnits="userSpaceOnUse" color-interpolation-filters="sRGB">
<feFlood flood-opacity="0" result="BackgroundImageFix"/>
<feBlend mode="normal" in="SourceGraphic" in2="BackgroundImageFix" result="shape"/>
<feColorMatrix in="SourceAlpha" type="matrix" values="0 0 0 0 0 0 0 0 0 0 0 0 0 0 0 0 0 0 127 0" result="hardAlpha"/>
<feOffset dy="1.12517"/>
<feGaussianBlur stdDeviation="0.562586"/>
<feComposite in2="hardAlpha" operator="arithmetic" k2="-1" k3="1"/>
<feColorMatrix type="matrix" values="0 0 0 0 0 0 0 0 0 0 0 0 0 0 0 0 0 0 0.25 0"/>
<feBlend mode="normal" in2="shape" result="effect1_innerShadow_523_8273"/>
</filter>
<pattern id="pattern1" patternContentUnits="objectBoundingBox" width="1" height="1">
<use xlink:href="#image1_523_8273" transform="translate(0 -0.00012209) scale(0.0003663 0.0002442)"/>
</pattern>
<filter id="filter1_i_523_8273" x="505.81" y="186" width="277.917" height="42.7565" filterUnits="userSpaceOnUse" color-interpolation-filters="sRGB">
<feFlood flood-opacity="0" result="BackgroundImageFix"/>
<feBlend mode="normal" in="SourceGraphic" in2="BackgroundImageFix" result="shape"/>
<feColorMatrix in="SourceAlpha" type="matrix" values="0 0 0 0 0 0 0 0 0 0 0 0 0 0 0 0 0 0 127 0" result="hardAlpha"/>
<feOffset dy="1.12517"/>
<feGaussianBlur stdDeviation="0.562586"/>
<feComposite in2="hardAlpha" operator="arithmetic" k2="-1" k3="1"/>
<feColorMatrix type="matrix" values="0 0 0 0 0 0 0 0 0 0 0 0 0 0 0 0 0 0 0.25 0"/>
<feBlend mode="normal" in2="shape" result="effect1_innerShadow_523_8273"/>
</filter>
<filter id="filter2_d_523_8273" x="398.307" y="719.307" width="1118.39" height="340.385" filterUnits="userSpaceOnUse" color-interpolation-filters="sRGB">
<feFlood flood-opacity="0" result="BackgroundImageFix"/>
<feColorMatrix in="SourceAlpha" type="matrix" values="0 0 0 0 0 0 0 0 0 0 0 0 0 0 0 0 0 0 127 0" result="hardAlpha"/>
<feOffset dy="4"/>
<feGaussianBlur stdDeviation="2.34628"/>
<feComposite in2="hardAlpha" operator="out"/>
<feColorMatrix type="matrix" values="0 0 0 0 0 0 0 0 0 0 0 0 0 0 0 0 0 0 0.25 0"/>
<feBlend mode="normal" in2="BackgroundImageFix" result="effect1_dropShadow_523_8273"/>
<feBlend mode="normal" in="SourceGraphic" in2="effect1_dropShadow_523_8273" result="shape"/>
</filter>
<linearGradient id="paint0_linear_523_8273" x1="1671.5" y1="92.2943" x2="1671.5" y2="38.1533" gradientUnits="userSpaceOnUse">
<stop stop-color="#7871E9"/>
<stop offset="1" stop-color="#62CDF8"/>
</linearGradient>
<radialGradient id="paint1_radial_523_8273" cx="0" cy="0" r="1" gradientUnits="userSpaceOnUse" gradientTransform="translate(303.09 874.027) rotate(-11.8646) scale(278.021 161.729)">
<stop offset="0.2692" stop-color="#98A2AE"/>
<stop offset="1" stop-color="white"/>
</radialGradient>
<linearGradient id="paint2_linear_523_8273" x1="196.55" y1="989.984" x2="474.958" y2="989.984" gradientUnits="userSpaceOnUse">
<stop stop-color="#98A2AE"/>
<stop offset="0.4835" stop-color="#98A2AE"/>
<stop offset="0.8516" stop-color="#D4DDE8"/>
</linearGradient>
<linearGradient id="paint3_linear_523_8273" x1="237.235" y1="988.554" x2="434.273" y2="988.554" gradientUnits="userSpaceOnUse">
<stop stop-color="#98A2AE"/>
<stop offset="0.4835" stop-color="#98A2AE"/>
<stop offset="0.8516" stop-color="#D4DDE8"/>
</linearGradient>
<linearGradient id="paint4_linear_523_8273" x1="273.883" y1="987.128" x2="397.625" y2="987.128" gradientUnits="userSpaceOnUse">
<stop stop-color="#98A2AE"/>
<stop offset="0.4835" stop-color="#98A2AE"/>
<stop offset="0.8516" stop-color="#D4DDE8"/>
</linearGradient>
<linearGradient id="paint5_linear_523_8273" x1="250.532" y1="957.671" x2="447.57" y2="1020.49" gradientUnits="userSpaceOnUse">
<stop stop-color="#98A2AE"/>
<stop offset="0.4835" stop-color="#98A2AE"/>
<stop offset="0.8516" stop-color="#D4DDE8"/>
</linearGradient>
<linearGradient id="paint6_linear_523_8273" x1="158.945" y1="842.859" x2="375.79" y2="842.859" gradientUnits="userSpaceOnUse">
<stop stop-color="#092D66"/>
<stop offset="0.978" stop-color="#7195BA"/>
</linearGradient>
<linearGradient id="paint7_linear_523_8273" x1="158.945" y1="829.072" x2="375.791" y2="829.072" gradientUnits="userSpaceOnUse">
<stop stop-color="#092D66"/>
<stop offset="0.978" stop-color="#7195BA"/>
</linearGradient>
<linearGradient id="paint8_linear_523_8273" x1="158.169" y1="864.69" x2="483.712" y2="847.556" gradientUnits="userSpaceOnUse">
<stop stop-color="#092D66"/>
<stop offset="0.978" stop-color="#7195BA"/>
</linearGradient>
<linearGradient id="paint9_linear_523_8273" x1="226.276" y1="838.724" x2="297.657" y2="838.724" gradientUnits="userSpaceOnUse">
<stop stop-color="#092D66"/>
<stop offset="0.978" stop-color="#7195BA"/>
</linearGradient>
<linearGradient id="paint10_linear_523_8273" x1="251.164" y1="886.873" x2="226.528" y2="962.794" gradientUnits="userSpaceOnUse">
<stop stop-color="#092D66"/>
<stop offset="0.978" stop-color="#7195BA"/>
</linearGradient>
<linearGradient id="paint11_linear_523_8273" x1="180.659" y1="683.31" x2="207.787" y2="698.063" gradientUnits="userSpaceOnUse">
<stop offset="0.1593" stop-color="#18CFAE"/>
<stop offset="0.4015" stop-color="#63D5C5"/>
<stop offset="0.6196" stop-color="#A0D9D8"/>
<stop offset="0.7789" stop-color="#C6DCE4"/>
<stop offset="0.8626" stop-color="#D4DDE8"/>
</linearGradient>
<linearGradient id="paint12_linear_523_8273" x1="215.926" y1="717.26" x2="129.304" y2="662.289" gradientUnits="userSpaceOnUse">
<stop offset="0.1593" stop-color="#18CFAE"/>
<stop offset="0.4015" stop-color="#63D5C5"/>
<stop offset="0.6196" stop-color="#A0D9D8"/>
<stop offset="0.7789" stop-color="#C6DCE4"/>
<stop offset="0.8626" stop-color="#D4DDE8"/>
</linearGradient>
<linearGradient id="paint13_linear_523_8273" x1="192.768" y1="702.953" x2="228.7" y2="635.608" gradientUnits="userSpaceOnUse">
<stop offset="0.1593" stop-color="#18CFAE"/>
<stop offset="0.4015" stop-color="#63D5C5"/>
<stop offset="0.6196" stop-color="#A0D9D8"/>
<stop offset="0.7789" stop-color="#C6DCE4"/>
<stop offset="0.8626" stop-color="#D4DDE8"/>
</linearGradient>
<linearGradient id="paint14_linear_523_8273" x1="215.284" y1="759.951" x2="229.564" y2="753.287" gradientUnits="userSpaceOnUse">
<stop stop-color="#4D575D"/>
<stop offset="0.4835" stop-color="#98A2AE"/>
<stop offset="0.8516" stop-color="#D4DDE8"/>
</linearGradient>
<clipPath id="clip0_523_8273">
<rect width="1918" height="1080" fill="white"/>
</clipPath>


</defs>
</svg>