<svg xmlns="http://www.w3.org/2000/svg" width="375" height="1020" viewBox="0 0 375 1020" fill="none">
<g clip-path="url(#clip0_526_12488)">
<path fill-rule="evenodd" clip-rule="evenodd" d="M411 659H-207L-25.0609 1023H411V659Z" fill="url(#paint0_linear_526_12488)"/>
<path d="M354.618 434.153V430.577H356.243V434.153H354.618ZM354.618 425.701V420.825H356.243V425.701H354.618ZM354.618 415.949V411.073H356.243V415.949H354.618ZM354.618 406.197V401.32H356.243V406.197H354.618ZM354.618 396.444V391.568H356.243V396.444H354.618ZM354.618 386.692V381.816H356.243V386.692H354.618ZM354.618 376.94V372.064H356.243V376.94H354.618ZM354.618 367.188V362.311H356.243V367.188H354.618ZM354.618 357.435V352.559H356.243V357.435H354.618ZM354.618 347.683V342.807H356.243V347.683H354.618ZM354.618 337.931V333.055H356.243V337.931H354.618ZM354.618 328.178V323.302H356.243V328.178H354.618ZM354.618 318.426V313.55H356.243V318.426H354.618ZM354.618 308.674V303.798H356.243V308.674H354.618ZM354.618 298.922V294.045H356.243V298.922H354.618ZM354.618 289.169V284.293H356.243V289.169H354.618ZM354.618 279.417V274.541H356.243V279.417H354.618ZM354.618 269.665V264.789H356.243V269.665H354.618ZM354.618 259.913V255.036H356.243V259.913H354.618ZM354.618 250.16V245.284H356.243V250.16H354.618ZM354.618 240.408V235.532H356.243V240.408H354.618ZM354.618 230.656V225.78H356.243V230.656H354.618ZM354.618 220.903V216.027H356.243V220.903H354.618ZM354.618 211.151V206.275H356.243V211.151H354.618ZM354.618 201.399V196.523H356.243V201.399H354.618ZM354.618 191.647V186.77H356.243V191.647H354.618ZM354.618 181.894V177.018H356.243V181.894H354.618ZM354.618 172.142V167.266H356.243V172.142H354.618ZM354.618 162.39V157.514H356.243V162.39H354.618ZM354.618 152.638V147.761H356.243V152.638H354.618ZM354.618 142.885V138.009H356.243V142.885H354.618ZM354.618 133.133V128.257H356.243V133.133H354.618ZM354.618 123.381V118.505H356.243V123.381H354.618ZM354.618 113.628V108.752H356.243V113.628H354.618ZM354.618 103.876V99H356.243V103.876H354.618Z" fill="#18CFAE"/>
<path opacity="0.3" d="M152.746 518.673C316.661 518.673 449.54 441.754 449.54 346.87C449.54 251.986 316.661 175.068 152.746 175.068C-11.1691 175.068 -144.048 251.986 -144.048 346.87C-144.048 441.754 -11.1691 518.673 152.746 518.673Z" fill="url(#paint1_radial_526_12488)"/>
<path d="M-130.395 505.345C-130.557 504.857 -130.232 504.532 -129.745 504.37L369.734 378.565V133.946C369.734 133.458 370.059 133.133 370.547 133.133C371.035 133.133 371.36 133.458 371.36 133.946V379.053C371.36 379.378 371.035 379.703 370.71 379.866L-129.42 505.832H-129.582C-129.907 505.832 -130.232 505.67 -130.395 505.345Z" fill="#7195BA"/>
<path d="M-128.12 455.933L371.197 332.405L371.522 333.38L-127.794 456.909L-128.12 455.933Z" fill="#7195BA"/>
<path d="M-127.307 345.407L368.759 237.482L368.922 238.62L-126.981 346.545L-127.307 345.407Z" fill="#7195BA"/>
<path d="M-128.607 285.594L370.384 189.209L370.547 190.346L-128.444 286.731L-128.607 285.594Z" fill="#7195BA"/>
<path d="M-128.607 231.794L371.197 138.497L371.36 139.635L-128.444 232.931L-128.607 231.794Z" fill="#7195BA"/>
<path d="M61.0744 464.71V187.583H62.2122V464.71H61.0744Z" fill="#7195BA"/>
<path d="M126.09 451.707V174.58H127.227V451.707H126.09Z" fill="#7195BA"/>
<path d="M191.105 438.704V161.577H192.242V438.704H191.105Z" fill="#7195BA"/>
<path d="M256.12 425.701V148.574H257.257V425.701H256.12Z" fill="#7195BA"/>
<path d="M321.135 417.574V140.447H322.273V417.574H321.135Z" fill="#7195BA"/>
<g opacity="0.75">
<path opacity="0.33" d="M408.256 362.149L-166.64 518.348L-167.128 503.232L408.256 350.284V362.149Z" fill="#7195BA"/>
<g opacity="0.75">
<path opacity="0.6" d="M-61.3156 587.426L543 408.96L408.256 350.284L-167.128 503.232L-61.3156 587.426Z" fill="#D4DDE8"/>
</g>
</g>
<path opacity="0.36" d="M542.837 421.638L-60.9913 603.68L-61.3163 587.427L543 408.96L542.837 421.638Z" fill="#7195BA"/>
<path opacity="0.8" d="M-119.505 522.411L356.731 379.378V212.777C356.731 212.777 342.915 209.526 334.789 223.342C326.662 237.157 328.287 255.036 314.471 262.351C300.656 269.665 291.716 283.481 288.465 299.734C285.214 315.988 280.338 336.305 271.399 335.493C262.459 334.68 255.145 316.801 253.52 311.112C251.894 305.423 246.205 291.607 242.142 300.547C238.078 309.487 238.078 312.737 228.326 320.052C218.574 327.366 216.136 342.807 215.323 352.559C214.51 362.311 210.447 372.876 199.069 360.686C187.692 348.496 174.689 345.245 165.749 370.438C156.81 395.632 153.884 401.483 138.118 398.882C128.365 397.257 115.362 401.321 100.734 420.012C93.2572 429.602 72.2898 419.2 60.9122 437.079C49.5345 454.958 41.7327 443.905 30.8427 453.333C6.46197 474.463 -2.47762 459.021 -28.4837 478.526C-48.9635 493.805 -62.6166 494.78 -74.807 495.593C-86.9973 496.405 -119.505 522.411 -119.505 522.411Z" fill="url(#paint2_linear_526_12488)"/>
<path opacity="0.9" d="M-91.8733 543.541L403.055 393.194V237.157C403.055 237.157 394.603 242.033 390.052 255.849C386.963 265.439 383.225 289.169 380.299 296.484C372.985 314.363 368.109 307.861 365.671 298.922C363.233 289.982 352.668 274.541 346.979 291.607C341.29 308.674 339.665 340.369 320.973 338.743C302.281 337.118 304.719 333.055 293.341 346.058C281.964 359.061 267.335 348.496 260.834 365.562C254.332 382.629 248.644 376.94 237.266 374.502C225.888 372.064 225.076 371.251 204.758 386.692C184.441 402.133 165.749 388.317 151.934 410.26C138.118 432.203 128.366 425.701 111.299 433.015C94.2326 440.33 83.6676 454.958 71.4773 453.333C59.2869 451.707 47.9093 454.145 35.7189 471.212C30.5177 478.526 12.6386 499.006 -26.0455 510.221C-91.0606 528.913 -91.8733 543.541 -91.8733 543.541Z" fill="url(#paint3_linear_526_12488)"/>
<path opacity="0.7" d="M439.625 307.861V414.324L-71.5562 566.297C-71.5562 566.297 -45.5501 536.227 -11.4172 529.726C-11.4172 529.726 33.2807 528.1 59.2868 513.472C72.1273 506.32 103.172 482.59 121.864 479.339C140.556 476.088 146.245 461.46 167.374 451.707C188.504 441.955 185.254 427.327 195.819 421.638C206.384 415.949 213.698 450.895 228.326 433.828C228.326 433.828 236.453 415.136 245.393 414.324C254.332 413.511 255.145 424.889 266.523 415.949C277.9 407.009 278.388 383.929 291.391 379.866C304.394 375.802 302.281 402.133 313.659 400.508C325.036 398.883 320.648 377.102 338.039 381.816C355.918 386.692 361.607 369.626 370.547 361.499C379.486 353.372 386.313 348.496 394.928 353.372C403.542 358.248 411.181 328.829 420.934 316.801C427.76 308.349 439.625 307.861 439.625 307.861Z" fill="url(#paint4_linear_526_12488)"/>
<g opacity="0.7">
<path opacity="0.7" d="M-72.0439 566.946C-72.369 566.621 -72.369 566.134 -72.2065 565.809C-72.2065 565.809 -46.0379 535.577 -11.5798 528.913H-11.4173C-11.4173 528.913 -0.364716 528.587 14.1012 526.312C28.4045 524.036 46.1211 519.973 58.9616 512.821C71.6396 505.67 102.684 481.939 121.864 478.526C140.068 475.438 145.757 460.972 167.212 450.894C177.614 446.018 181.84 440.167 185.091 434.641C188.179 429.114 190.13 423.913 195.656 420.825C196.631 420.337 197.444 420.012 198.419 420.012C202.808 420.175 206.058 424.726 209.634 429.114C213.21 433.503 216.786 437.729 220.687 437.566C222.8 437.566 225.075 436.429 228.001 433.178C228.326 432.365 230.277 428.139 233.202 423.751C236.453 418.874 240.679 413.836 245.718 413.348C246.043 413.348 246.368 413.348 246.693 413.348C252.869 413.511 255.307 418.712 259.371 418.387C260.996 418.387 263.272 417.574 266.523 415.136C271.886 410.91 274.975 402.946 278.063 395.631C281.313 388.317 284.727 381.166 291.716 379.053C292.691 378.728 293.666 378.565 294.479 378.565C300.168 378.728 302.443 384.416 304.719 389.618C306.994 394.981 309.107 399.695 313.171 399.695C313.496 399.695 313.821 399.695 313.984 399.695C318.535 399.045 320.485 394.656 322.598 389.943C324.711 385.392 327.474 380.353 333.976 380.353C335.439 380.353 336.901 380.515 338.689 381.003C340.802 381.653 342.753 381.816 344.541 381.816C357.219 381.978 362.42 368.325 370.547 360.848C377.048 354.997 382.412 350.609 388.589 350.609C390.864 350.609 393.302 351.259 395.74 352.722C396.228 353.047 396.878 353.209 397.366 353.209C400.454 353.372 404.517 347.195 408.256 339.231C412.156 331.429 416.22 322.002 420.771 316.313C427.923 307.536 439.95 307.048 440.113 307.048C440.601 307.048 440.926 307.373 440.926 307.861C440.926 308.349 440.601 308.674 440.113 308.674C440.113 308.674 437.187 308.836 433.611 309.974C429.873 311.112 425.322 313.225 422.071 317.288C417.683 322.652 413.619 331.917 409.718 339.881C405.655 347.683 402.242 354.509 397.366 354.672C396.553 354.672 395.74 354.509 395.09 354.022C392.814 352.721 390.701 352.234 388.751 352.234C383.387 352.234 378.186 356.135 371.685 362.149C364.045 368.975 358.682 383.441 344.703 383.604C342.753 383.604 340.64 383.279 338.527 382.791C336.901 382.303 335.439 382.141 334.301 382.141C328.775 382.141 326.662 386.042 324.386 390.755C322.273 395.306 320.16 400.67 314.471 401.483C314.146 401.483 313.659 401.483 313.333 401.483C307.807 401.32 305.694 395.631 303.419 390.43C301.143 385.067 298.868 380.353 294.642 380.353C293.991 380.353 293.179 380.515 292.366 380.678C286.352 382.466 282.939 388.967 279.851 396.444C276.6 403.758 273.674 411.885 267.823 416.599C264.572 419.199 261.971 420.175 259.696 420.175C254.332 420.012 252.219 414.974 247.018 415.136C246.693 415.136 246.53 415.136 246.205 415.136C242.304 415.461 238.078 420.175 234.99 424.888C231.902 429.602 229.952 434.153 229.952 434.153L229.789 434.315C226.863 437.891 223.938 439.354 221.174 439.354C216.136 439.354 212.397 434.641 208.984 430.252C205.408 425.864 201.995 421.638 199.069 421.8C198.419 421.8 197.769 421.963 197.119 422.288C192.08 424.888 190.292 429.764 187.204 435.453C183.953 441.142 179.402 447.481 168.675 452.357C147.87 461.947 142.181 476.575 123.002 479.989C104.635 483.077 73.59 506.807 60.7495 513.959C35.0685 528.425 -8.16653 530.213 -10.2795 530.375C-27.1835 533.626 -42.137 542.728 -52.7019 550.855C-63.4294 559.145 -69.7684 566.621 -69.9309 566.621C-70.0935 566.784 -70.256 566.946 -70.5811 566.946C-71.7189 567.109 -72.0439 567.109 -72.0439 566.946Z" fill="#D4DDE8"/>
</g>
<g opacity="0.7">
<path opacity="0.7" d="M-91.7112 544.354C-92.1989 544.354 -92.5239 543.866 -92.5239 543.541C-92.3614 542.891 -91.2236 528.262 -26.0459 509.408C12.4756 498.355 30.0296 478.038 35.2309 470.724C45.4707 456.258 55.3856 452.032 65.6254 452.032C67.5759 452.032 69.6889 452.195 71.6393 452.52C72.2895 452.52 72.7771 452.682 73.4273 452.682C84.1548 452.845 94.7197 439.354 110.973 432.365C119.588 428.627 126.415 428.464 132.591 426.514C138.767 424.563 144.456 420.825 151.283 409.935C158.272 398.72 166.887 396.607 175.826 395.306C184.766 394.006 194.355 393.681 204.27 386.042C218.249 375.477 223.125 372.389 228.813 372.389C231.414 372.389 233.852 373.039 237.428 373.689C242.629 374.827 246.693 376.615 249.943 376.615C253.519 376.615 256.607 374.502 260.183 365.237C263.434 356.46 269.285 354.509 275.137 353.372C281.151 352.234 287.327 351.746 292.691 345.407C299.03 338.093 301.305 335.98 305.531 335.98C308.782 335.98 312.846 337.118 320.972 337.931C321.46 337.931 321.785 337.931 322.273 337.931C330.4 337.931 334.951 330.779 338.201 321.189C341.452 311.599 343.24 299.734 346.003 291.282C347.954 285.593 350.392 282.993 353.48 282.993C356.568 282.993 359.169 285.431 361.444 288.519C363.72 291.607 365.508 295.346 366.32 298.596C367.621 303.31 369.734 307.048 371.522 306.886C373.147 307.048 376.073 304.285 379.324 295.996C382.249 288.844 385.825 265.114 389.076 255.361C393.627 241.22 402.404 236.344 402.404 236.182C402.729 236.019 403.217 236.019 403.542 236.507C403.704 236.832 403.704 237.32 403.217 237.645C403.217 237.645 402.729 237.97 401.916 238.62C401.104 239.27 399.966 240.245 398.666 241.708C396.065 244.634 392.814 249.185 390.701 256.011C387.613 265.601 384.037 289.169 380.949 296.646C377.536 304.935 374.772 308.349 371.522 308.511C367.946 308.349 366.158 303.798 364.695 299.084C363.882 296.158 362.257 292.42 360.144 289.657C358.031 286.731 355.593 284.781 353.48 284.781C351.53 284.781 349.417 286.406 347.629 291.932C344.866 300.222 343.078 311.924 339.827 321.839C336.576 331.592 331.537 339.718 322.273 339.718C321.785 339.718 321.298 339.718 320.81 339.718C312.52 339.068 308.295 337.768 305.531 337.768C302.118 337.768 300.33 339.393 293.829 346.708C287.977 353.372 281.151 354.022 275.299 355.16C269.448 356.297 264.734 357.76 261.484 365.887C257.908 375.152 254.332 378.24 249.781 378.24C246.042 378.24 242.142 376.452 236.94 375.314C233.365 374.502 230.926 374.014 228.651 374.014C223.775 374.014 219.061 376.777 205.083 387.342C194.681 395.144 184.766 395.632 175.826 396.769C166.887 398.07 159.247 399.857 152.421 410.585C145.432 421.638 139.418 425.701 132.916 427.814C126.415 429.927 119.913 430.089 111.461 433.665C95.5324 440.492 85.2925 453.983 73.2647 454.145C72.6146 454.145 71.9644 454.145 71.3143 453.983C69.3638 453.657 67.4133 453.495 65.4629 453.495C55.7106 453.495 46.446 457.396 36.3686 471.537C31.0049 479.013 13.1257 499.656 -25.8834 510.871C-82.7717 527.125 -90.2484 540.453 -91.0611 543.053C-91.2236 543.378 -91.2236 543.541 -91.2236 543.541C-90.8985 544.029 -91.2236 544.354 -91.7112 544.354Z" fill="#D4DDE8"/>
</g>
<g opacity="0.7">
<path opacity="0.7" d="M-120.155 522.899C-120.48 522.574 -120.318 522.086 -119.993 521.761C-119.83 521.761 -87.6475 495.755 -74.807 494.78C-62.6167 493.967 -49.2886 492.992 -28.9713 477.876C-15.8057 467.961 -6.86618 466.986 1.74833 465.686C10.2003 464.385 18.3272 463.085 30.355 452.682C36.0438 447.806 41.0825 448.131 45.6336 447.481C50.1846 446.831 54.5732 445.368 60.262 436.591C66.1133 427.327 74.5653 425.376 82.2046 424.563C89.8439 423.751 96.833 423.751 100.084 419.525C112.924 403.108 124.627 397.745 134.217 397.745C135.68 397.745 136.98 397.907 138.28 398.07C140.556 398.395 142.344 398.557 144.132 398.557C149.333 398.557 152.421 396.932 155.509 392.543C158.597 388.155 161.198 380.841 165.099 370.113C169.975 356.298 176.314 350.609 183.141 350.609C188.829 350.609 194.518 354.51 199.719 360.198C203.295 364.099 206.058 365.4 208.009 365.4C209.959 365.4 211.422 363.937 212.56 361.499C213.698 359.061 214.348 355.81 214.673 352.559C215.486 342.807 217.924 327.041 228.001 319.401C237.591 312.087 237.428 309.324 241.492 300.222C242.467 298.109 243.767 296.809 245.23 296.809C247.668 296.971 249.294 299.572 250.919 302.335C252.382 305.261 253.682 308.674 254.332 310.949C255.145 313.713 257.42 319.564 260.509 324.765C263.597 329.966 267.66 334.355 271.561 334.68C271.724 334.68 271.886 334.68 272.049 334.68C275.625 334.843 279.038 330.291 281.639 323.302C284.239 316.476 286.19 307.536 287.815 299.572C291.066 283.155 300.168 269.015 314.309 261.7C327.637 254.874 326.011 237.157 334.301 223.016C339.99 213.264 348.604 211.639 353.318 211.639C355.593 211.639 357.056 211.964 357.056 211.964C357.544 212.126 357.706 212.451 357.706 212.939C357.544 213.427 357.219 213.589 356.731 213.589C356.731 213.589 356.406 213.589 355.756 213.427C355.106 213.427 354.293 213.264 353.318 213.264C348.767 213.264 340.965 214.727 335.601 223.829C327.637 237.32 329.262 255.361 314.959 263.163C301.468 270.315 292.529 283.968 289.44 300.059C287.815 308.024 285.865 316.963 283.101 324.115C280.338 331.104 277.087 336.468 272.049 336.468C271.886 336.468 271.724 336.468 271.399 336.468C266.36 335.98 262.297 331.104 259.046 325.74C255.795 320.377 253.682 314.525 252.707 311.6C252.057 309.487 250.919 306.073 249.456 303.31C247.993 300.547 246.205 298.434 245.23 298.597C244.742 298.597 243.767 299.084 242.955 301.035C238.891 309.812 238.729 313.55 228.814 320.864C219.387 327.853 216.948 343.132 216.136 352.722C215.811 356.135 215.161 359.548 214.023 362.311C212.722 365.075 210.772 367.025 208.009 367.188C205.408 367.188 202.32 365.4 198.582 361.499C193.543 355.972 188.017 352.559 183.141 352.559C177.289 352.559 171.438 357.435 166.562 371.088C162.661 381.978 160.06 389.13 156.809 393.844C153.559 398.557 149.658 400.67 144.132 400.67C142.344 400.67 140.231 400.508 137.955 400.02C136.655 399.858 135.517 399.695 134.054 399.695C125.115 399.695 113.899 404.734 101.221 420.825C97.1581 426.026 89.6813 425.701 82.2046 426.514C74.7278 427.327 66.926 429.114 61.3997 437.892C55.7109 446.994 50.5097 448.944 45.6336 449.594C40.7574 450.244 36.5314 449.757 31.1677 454.308C18.8148 465.035 10.2003 466.498 1.74833 467.636C-6.86618 468.936 -15.3181 469.749 -28.1586 479.501C-48.6384 494.942 -62.7792 495.918 -74.9695 496.73C-80.6584 497.055 -91.8735 503.719 -101.463 510.383C-111.053 517.047 -119.18 523.386 -119.18 523.386C-119.342 523.549 -119.505 523.549 -119.667 523.549C-119.83 523.224 -119.993 523.224 -120.155 522.899Z" fill="#D4DDE8"/>
</g>






</g>
<defs>
<filter id="filter0_d_526_12488" x="16.3074" y="82.3074" width="342.385" height="211.385" filterUnits="userSpaceOnUse" color-interpolation-filters="sRGB">
<feFlood flood-opacity="0" result="BackgroundImageFix"/>
<feColorMatrix in="SourceAlpha" type="matrix" values="0 0 0 0 0 0 0 0 0 0 0 0 0 0 0 0 0 0 127 0" result="hardAlpha"/>
<feOffset dy="4"/>
<feGaussianBlur stdDeviation="2.34628"/>
<feComposite in2="hardAlpha" operator="out"/>
<feColorMatrix type="matrix" values="0 0 0 0 0 0 0 0 0 0 0 0 0 0 0 0 0 0 0.25 0"/>
<feBlend mode="normal" in2="BackgroundImageFix" result="effect1_dropShadow_526_12488"/>
<feBlend mode="normal" in="SourceGraphic" in2="effect1_dropShadow_526_12488" result="shape"/>
</filter>
<linearGradient id="paint0_linear_526_12488" x1="-207" y1="659" x2="-207" y2="1023" gradientUnits="userSpaceOnUse">
<stop stop-color="#05AB9C" stop-opacity="0"/>
<stop offset="1" stop-color="#05AB9C" stop-opacity="0.207843"/>
</linearGradient>
<radialGradient id="paint1_radial_526_12488" cx="0" cy="0" r="1" gradientUnits="userSpaceOnUse" gradientTransform="translate(152.714 346.877) scale(296.857 171.842)">
<stop offset="0.2692" stop-color="#98A2AE"/>
<stop offset="1" stop-color="white"/>
</radialGradient>
<linearGradient id="paint2_linear_526_12488" x1="359.878" y1="300.037" x2="-471.461" y2="529.206" gradientUnits="userSpaceOnUse">
<stop offset="0.1593" stop-color="#18CFAE"/>
<stop offset="0.4015" stop-color="#63D5C5"/>
<stop offset="0.6196" stop-color="#A0D9D8"/>
<stop offset="0.7789" stop-color="#C6DCE4"/>
<stop offset="0.8626" stop-color="#D4DDE8"/>
</linearGradient>
<linearGradient id="paint3_linear_526_12488" x1="-141.007" y1="411.208" x2="224.545" y2="385.529" gradientUnits="userSpaceOnUse">
<stop stop-color="#94BFDD"/>
<stop offset="0.6868" stop-color="#94BFDD"/>
<stop offset="1" stop-color="#7195BA"/>
</linearGradient>
<linearGradient id="paint4_linear_526_12488" x1="328.27" y1="405.502" x2="-327.168" y2="548.394" gradientUnits="userSpaceOnUse">
<stop stop-color="#092D66"/>
<stop offset="0.978" stop-color="#7195BA"/>
</linearGradient>
<clipPath id="clip0_526_12488">
<rect width="375" height="1020" fill="white"/>
</clipPath>
</defs>
</svg>