<svg xmlns="http://www.w3.org/2000/svg" width="1118" height="804" viewBox="0 0 1118 804" fill="none">
<g opacity="0.5">
<g opacity="0.5">
<path opacity="0.5" d="M760.599 191.608C760.577 191.787 760.555 191.967 760.741 191.988C789.891 207.845 812.789 234.812 826.77 270.042C839.449 302.032 843.506 338.316 839.026 375.087C837.234 389.795 834.098 404.714 829.497 419.285C813.619 470.764 782.647 514.71 742.504 542.704C709.564 565.696 673.65 575.985 639.189 572.8C639.003 572.779 638.796 572.937 638.774 573.116C638.752 573.296 638.916 573.496 639.102 573.517L666.032 581.303C667.125 581.609 668.218 581.914 669.311 582.22C670.404 582.526 671.497 582.832 672.59 583.138L674.59 583.729L674.776 583.75C679.891 585.058 685.072 585.828 690.088 586.398C768.311 595.278 850.301 531.484 880.244 434.139C884.866 419.389 887.98 404.649 889.75 390.12C900.392 302.768 862.015 223.489 793.06 200.385L792.896 200.185L790.896 199.594C789.803 199.288 788.71 198.982 787.617 198.676C786.524 198.37 785.431 198.064 784.338 197.758L760.85 191.091C760.828 191.271 760.621 191.429 760.599 191.608ZM761.014 191.292L760.785 191.629L761.014 191.292ZM742.996 543.305C783.346 515.154 814.341 471.028 830.219 419.549C834.841 404.799 837.977 389.879 839.769 375.171C844.271 338.221 840.214 301.937 827.556 269.767C814.046 235.319 791.847 208.794 763.856 192.705L784.415 198.676C785.508 198.982 786.6 199.288 787.693 199.594C788.786 199.9 789.879 200.206 790.787 200.491L792.601 201.061C792.601 201.061 792.787 201.082 792.765 201.261C861.37 224.143 899.791 303.063 889.149 390.415C887.379 404.944 884.287 419.505 879.664 434.255C849.766 531.241 768.005 594.698 690.34 585.881C685.137 585.29 679.978 584.341 674.842 583.212L674.656 583.191L672.841 582.621C671.749 582.315 670.655 582.009 669.562 581.703C668.47 581.397 667.377 581.092 666.469 580.807L642.632 573.918C676.251 576.28 711.072 565.685 742.996 543.305Z" fill="#7195BA"/>
</g>
<g opacity="0.5">
<path opacity="0.5" d="M606.21 206.449C565.838 234.78 534.865 278.726 518.987 330.205C514.365 344.955 511.228 359.875 509.437 374.583C504.935 411.533 508.992 447.817 521.65 479.987C539.652 525.492 572.519 557.228 614.379 569.255C621.472 571.333 628.839 572.715 636.085 573.538C671.759 577.588 708.81 567.246 742.581 543.621C782.931 515.47 813.925 471.344 829.804 419.865C834.426 405.115 837.562 390.195 839.354 375.487C843.855 338.537 839.799 302.253 827.141 270.083C809.138 224.577 776.272 192.841 734.411 180.815C727.318 178.737 719.952 177.355 712.705 176.532C677.031 172.482 639.981 182.824 606.21 206.449ZM614.63 568.738C572.956 556.732 540.068 525.176 522.229 479.871C509.549 447.88 505.493 411.596 509.972 374.825C511.764 360.117 514.9 345.198 519.501 330.627C535.379 279.148 566.329 235.381 606.494 207.208C640.265 183.583 677.108 173.4 712.596 177.429C719.842 178.252 727.209 179.633 734.302 181.712C775.977 193.717 808.865 225.274 826.704 270.579C839.384 302.569 843.44 338.854 838.961 375.624C837.169 390.332 834.033 405.252 829.432 419.823C813.554 471.302 782.603 515.069 742.439 543.241C708.668 566.866 671.825 577.05 636.337 573.021C629.09 572.198 621.724 570.816 614.63 568.738ZM568.476 344.552C564.761 356.496 562.16 368.566 560.718 380.405C552.524 447.668 579.697 509.126 628.651 523.231C632.837 524.433 636.881 525.256 641.155 525.741C695.966 531.964 757.464 480.209 780.478 405.718C784.194 393.774 786.794 381.704 788.237 369.866C796.431 302.603 769.257 241.144 720.304 227.039C716.118 225.837 712.074 225.014 707.8 224.529C652.803 218.285 591.491 270.061 568.476 344.552ZM628.924 522.534C580.506 508.672 553.289 447.573 561.461 380.489C562.903 368.651 565.482 356.76 569.198 344.816C592.19 270.504 653.459 219.087 707.713 225.246C711.8 225.71 716.03 226.554 720.03 227.736C768.449 241.598 795.666 302.698 787.493 369.781C786.051 381.619 783.472 393.511 779.757 405.454C756.765 479.766 695.496 531.184 641.242 525.024C637.154 524.56 633.11 523.737 628.924 522.534Z" fill="#7195BA"/>
</g>
<g opacity="0.5">
<path opacity="0.5" d="M567.733 344.468C563.996 356.592 561.395 368.662 559.931 380.68C551.737 447.943 578.583 509 626.979 523.042C630.793 524.202 634.673 524.825 638.575 525.268C643.22 525.795 647.723 525.942 652.478 525.573C652.663 525.594 652.685 525.415 652.871 525.436C652.893 525.256 652.915 525.077 652.729 525.056C618.649 495.546 601.368 444.121 608.12 388.697C609.584 376.679 612.184 364.608 615.922 352.485L615.55 352.443L615.179 352.401C611.441 364.524 608.819 376.774 607.355 388.792C600.624 444.037 617.72 495.441 651.57 525.288C647.21 525.52 642.892 525.394 638.619 524.909C634.717 524.466 630.859 523.664 627.208 522.704C579.162 508.884 552.458 448.206 560.631 381.123C562.073 369.285 564.695 357.035 568.411 345.091C591.425 270.6 652.53 218.982 706.412 225.099C710.5 225.563 714.544 226.386 718.544 227.568C721.823 228.486 724.872 229.741 727.922 230.996C678.86 245.612 634.346 290.93 615.321 352.781L615.692 352.823L616.064 352.865C635.297 290.856 679.997 245.559 729.2 231.324C729.386 231.345 729.408 231.165 729.43 230.986C729.452 230.807 729.266 230.785 729.288 230.606C725.889 229.129 722.468 227.831 718.839 226.692C714.839 225.51 710.609 224.667 706.521 224.203C652.103 217.843 590.955 269.819 567.733 344.468Z" fill="#7195BA"/>
</g>
</g>
<path d="M452.076 298.041C471.691 234.439 517.68 187.834 568.065 173.187C564.666 171.71 561.059 170.391 557.43 169.252C499.197 152.457 428.606 207.726 403.144 289.94C377.682 372.155 405.556 455.696 463.789 472.491C472.161 474.896 480.915 475.708 489.823 475.265C447.426 438.264 430.329 368.312 452.076 298.041Z" fill="url(#paint0_linear_523_3210)"/>
<path d="M402.423 289.676C398.641 302.158 395.997 314.587 394.511 326.784C386.098 395.841 413.654 458.797 463.701 473.208C467.701 474.39 471.56 475.191 475.647 475.655C480.292 476.183 485.167 476.372 489.921 476.003C490.293 476.045 490.522 475.708 490.752 475.37C490.795 475.011 490.839 474.652 490.489 474.431C455.732 444.299 438.024 391.734 444.929 335.054C446.415 322.857 449.06 310.428 452.819 298.125L451.912 297.84L451.004 297.556C447.223 310.038 444.579 322.467 443.071 334.843C436.21 391.165 453.382 443.486 487.495 474.273C483.527 474.368 479.582 474.284 475.68 473.841C471.778 473.398 467.92 472.596 464.084 471.615C415.294 457.711 387.814 395.672 396.183 326.974C397.669 314.777 400.314 302.348 404.073 290.045C427.47 213.961 490.028 161.235 544.839 167.458C548.927 167.922 553.157 168.766 557.157 169.947C560.064 170.823 562.786 171.678 565.463 172.891C515.549 188.318 470.533 234.671 451.004 297.556L451.912 297.84L452.819 298.125C472.413 234.702 518.172 188.434 568.349 173.946C568.742 173.809 568.972 173.471 569.015 173.112C569.059 172.753 568.917 172.374 568.545 172.331C565.168 170.675 561.561 169.356 557.911 168.396C553.725 167.194 549.495 166.35 545.222 165.865C488.902 159.652 426.071 213.075 402.423 289.676Z" fill="#D4DDE8"/>
<path d="M481.932 484.37L523.465 495.996C502.262 503.045 480.228 504.544 458.817 499.385L457.188 498.837C456.281 498.552 455.352 498.447 454.445 498.162C453.538 497.877 452.631 497.592 451.723 497.307L428.236 490.64C445.745 492.264 463.735 489.942 481.276 483.569L481.44 483.769C481.396 484.128 481.746 484.349 481.932 484.37Z" fill="#7195BA"/>
<path d="M559.036 169.979C500.246 153.121 429.305 208.168 404.05 290.224C378.796 372.281 406.856 455.843 465.646 472.701C482.204 477.491 499.834 476.583 517.124 470.726L518.468 473.607C500.413 479.558 482.019 480.561 464.739 475.508C403.949 458.059 374.435 372.513 400.258 288.885C426.081 205.256 499.382 149.386 560.173 166.835C620.963 184.284 650.477 269.83 624.654 353.458C623.091 358.554 621.343 363.629 619.409 368.683L615.594 367.523C617.506 362.648 619.255 357.573 620.84 352.298C645.886 270.4 617.641 186.816 559.036 169.979Z" fill="#D4DDE8"/>
<path d="M665.783 382.313L662.155 381.174C664.089 376.12 665.837 371.045 667.4 365.949C700.719 257.894 658.439 150.35 572.74 125.527C487.019 100.883 390.624 168.498 357.119 276.531C323.8 384.585 366.08 492.13 451.779 516.953C479.988 525.065 509.421 523.133 537.215 513.014L538.559 515.894L538.723 516.095C509.378 526.584 479.245 528.072 450.686 519.738C407.919 507.427 374.189 475.047 355.76 428.402C337.615 382.517 336.716 328.042 352.933 275.328C369.172 222.436 401.018 177.498 442.2 148.713C484.004 119.453 530.53 110.187 573.297 122.499C616.065 134.81 649.795 167.19 668.224 213.835C686.369 259.72 687.268 314.195 671.051 366.909C669.488 372.005 667.718 377.259 665.805 382.134L665.783 382.313Z" fill="#D4DDE8"/>
<path d="M559.966 166.993C499.175 149.544 425.873 205.415 400.051 289.043C374.228 372.671 403.741 458.218 464.532 475.666C481.812 480.72 500.206 479.717 518.261 473.765L537.193 513.193C509.214 523.292 479.967 525.245 451.757 517.132C366.036 492.489 323.756 384.944 357.097 276.711C390.417 168.656 486.997 101.063 572.718 125.706C658.44 150.35 700.719 257.895 667.378 366.128C665.794 371.404 664.045 376.479 662.133 381.353L619.179 369.021C621.092 364.146 622.84 359.071 624.425 353.796C650.27 269.988 620.756 184.442 559.966 166.993Z" fill="#D4DDE8"/>
<path opacity="0.9" d="M559.966 166.993C499.175 149.544 425.873 205.415 400.051 289.043C374.228 372.671 403.741 458.218 464.532 475.666C481.812 480.72 500.206 479.717 518.261 473.765L537.193 513.193C509.214 523.292 479.967 525.245 451.757 517.132C366.036 492.489 323.756 384.944 357.097 276.711C390.417 168.656 486.997 101.063 572.718 125.706C658.44 150.35 700.719 257.895 667.378 366.128C665.794 371.404 664.045 376.479 662.133 381.353L619.179 369.021C621.092 364.146 622.84 359.071 624.425 353.796C650.27 269.988 620.756 184.442 559.966 166.993Z" fill="url(#paint1_linear_523_3210)"/>
<path d="M516.916 470.904L538.886 516.314L588.561 530.683L566.635 488.005L516.916 470.904Z" fill="url(#paint2_linear_523_3210)"/>
<path d="M516.239 470.281C516.009 470.619 515.965 470.977 516.129 471.178L538.078 516.768C538.242 516.968 538.406 517.169 538.592 517.19L588.452 531.579C588.824 531.622 589.196 531.664 589.425 531.326C589.655 530.988 589.698 530.63 589.534 530.429L567.422 487.73C567.258 487.53 567.094 487.329 566.908 487.308L517.189 470.207L517.004 470.186C516.654 469.965 516.446 470.123 516.239 470.281ZM517.725 470.45L516.938 470.724L517.725 470.45ZM539.346 515.639L518.436 472.349L565.805 488.638L586.835 529.395L539.346 515.639Z" fill="#D4DDE8"/>
<path d="M665.281 383.348L714.541 401.124C714.541 401.124 757.544 309.445 719.113 225.977C689.644 161.712 647.313 142.722 590.119 131.319C590.119 131.319 665.032 202.926 665.79 272.478C666.547 342.03 665.281 383.348 665.281 383.348Z" fill="url(#paint3_linear_523_3210)"/>
<path d="M589.048 130.833C588.796 131.35 588.916 131.909 589.244 132.31C589.244 132.31 593.988 136.668 600.939 144.549C607.913 152.251 617.302 163.319 626.8 176.581C645.611 203.084 664.324 238.123 664.653 272.53C664.939 307.295 664.94 335.118 664.689 354.184C664.439 373.25 664.122 383.579 664.122 383.579C664.057 384.117 664.385 384.518 664.92 384.761L714.18 402.537C714.716 402.78 715.503 402.506 715.754 401.989C715.754 401.989 729.732 372.298 734.714 331.402C738.516 300.192 737.115 262.208 720.457 225.766C690.846 161.121 647.816 141.688 590.599 130.464C590.599 130.464 590.6 130.464 590.414 130.443C589.714 130 589.299 130.316 589.048 130.833ZM667.112 272.446C666.388 210.353 607.574 147.303 593.824 133.376C648.931 144.906 689.36 164.044 717.91 226.568C734.448 262.451 735.729 299.875 731.948 330.906C729.479 351.174 724.715 368.637 720.748 381.097C717.502 390.731 714.814 397.336 713.765 399.762L666.483 382.756C666.69 376.415 667.825 336.174 667.112 272.446Z" fill="#D4DDE8"/>
<path d="M542.839 182.324L510.772 167.227C510.772 167.227 546.587 159.291 571.595 173.587C571.616 173.408 560.534 171.604 542.839 182.324Z" fill="url(#paint4_linear_523_3210)"/>
<path d="M510.553 165.929C509.974 166.045 509.744 166.383 509.679 166.921C509.613 167.459 509.941 167.86 510.291 168.081L542.359 183.179C542.708 183.4 543.288 183.284 543.495 183.126C559.365 173.471 569.627 174.273 571.114 174.441C571.3 174.462 571.3 174.462 571.3 174.462C571.857 174.526 572.458 174.23 572.709 173.713C572.961 173.196 572.655 172.616 572.141 172.194C563.867 167.436 554.522 165.284 545.79 164.292C527.188 162.362 510.739 165.95 510.553 165.929ZM521.559 166.815C527.844 166.256 536.565 165.791 545.67 166.825C552.73 167.626 560.053 169.367 566.665 172.3C561.703 172.827 553.386 174.611 543.014 180.889L514.859 167.691C516.597 167.343 518.707 167.037 521.559 166.815ZM542.206 181.343L542.84 182.324L542.206 181.343Z" fill="#D4DDE8"/>
<path d="M504.737 123.99L510.794 167.048C510.794 167.048 564.14 151.283 601.357 196.788C638.574 242.293 641.353 312.257 617.977 369.613L665.259 383.528C665.259 383.528 706.732 288.947 656.955 193.462C609.812 102.641 513.043 117.659 504.737 123.99Z" fill="url(#paint5_linear_523_3210)"/>
<path d="M552.083 118.818C539.635 117.405 528.661 117.796 520.246 118.841C511.83 119.885 506.158 121.606 503.895 123.167L504.715 124.169L505.874 123.937L504.715 124.169L503.895 123.167C503.48 123.484 503.436 123.842 503.393 124.201L509.45 167.26C509.406 167.618 509.756 167.84 510.105 168.061C510.455 168.283 510.827 168.325 511.22 168.188C511.22 168.188 514.554 167.112 520.466 166.51C526.215 165.708 534.38 165.18 543.67 166.235C561.135 168.218 582.634 175.75 600.526 197.421C626.594 229.295 635.701 273.608 630.391 317.195C628.228 334.952 623.649 352.435 616.928 368.948C616.884 369.307 616.841 369.666 617.005 369.866C617.147 370.246 617.496 370.467 617.682 370.489L664.964 384.403C665.499 384.646 666.286 384.372 666.559 383.675C666.559 383.675 676.734 360.463 681.017 325.306C685.387 289.433 683.538 241.215 658.179 192.692C630.514 139.906 586.271 122.7 552.083 118.818C552.269 118.839 552.083 118.818 552.083 118.818ZM520.705 121.257C528.935 120.191 539.7 119.958 551.777 121.329C585.222 125.126 628.558 142.048 655.939 194.074C680.991 242.017 682.698 289.855 678.372 325.37C676.252 342.769 672.624 357.087 669.685 367.3C667.444 374.865 665.302 380.077 664.505 381.987L619.573 368.885C626.086 352.53 630.457 335.205 632.599 317.627C637.952 273.682 628.933 228.651 602.188 196.155C583.989 173.904 561.583 166.086 543.746 164.061C528.139 162.289 515.789 164.706 511.712 165.698L505.972 124.676C508.169 123.652 513.448 122.07 520.705 121.257Z" fill="#D4DDE8"/>
<path d="M561.544 523.614L587.679 579.681L656.076 599.63C656.076 599.63 762.047 555.47 808.229 436.147L746.695 412.431L689.435 392.291C689.249 392.27 648.88 491.704 561.544 523.614Z" fill="url(#paint6_linear_523_3210)"/>
<path d="M688.527 392.006C688.527 392.006 686.09 398.094 680.921 408.055C675.774 417.836 668.102 431.331 657.512 445.586C636.496 474.296 604.813 507.068 561.445 522.876L561.729 523.635L562.516 523.361L561.729 523.635L561.445 522.876C561.237 523.034 561.03 523.192 561.008 523.372C560.986 523.551 560.942 523.91 560.92 524.089L587.055 580.156C587.219 580.356 587.383 580.557 587.569 580.578L655.967 600.527C656.152 600.548 656.338 600.569 656.546 600.411C656.546 600.411 762.91 556.114 809.136 436.432C809.366 436.094 809.06 435.514 808.71 435.292L746.99 411.555L689.73 391.415L689.544 391.394C688.986 391.331 688.571 391.648 688.527 392.006ZM689.675 393.41L746.214 413.285L807.027 436.738C772.493 525.378 704.809 572.248 672.852 590.26C663.541 595.568 657.365 598.322 655.977 598.892L588.301 579.206L562.593 524.279C645.48 493.319 685.73 402.6 689.675 393.41Z" fill="#D4DDE8"/>
<path d="M561.544 523.614L587.678 579.681C587.678 579.681 695.802 544.13 744.848 413.676L689.271 392.09C689.249 392.27 648.224 490.902 561.544 523.614Z" fill="url(#paint7_linear_523_3210)"/>
<path d="M688.965 391.511C688.757 391.669 688.55 391.827 688.528 392.007C688.528 392.007 685.905 398.073 680.758 407.854C675.61 417.635 667.774 430.93 657.184 445.185C636.168 473.895 604.321 506.467 561.26 522.855L561.544 523.614L562.331 523.34L561.544 523.614L561.26 522.855C561.052 523.013 560.844 523.171 560.822 523.351C560.801 523.53 560.757 523.889 560.735 524.068L586.87 580.135C587.012 580.515 587.548 580.757 587.941 580.62C588.127 580.641 696.458 544.932 745.548 414.119C745.777 413.781 745.471 413.201 745.121 412.98L689.544 391.395L689.358 391.373C689.173 391.352 689.172 391.352 688.965 391.511ZM689.675 393.41L743.646 414.267C706.971 511.211 637.363 555.317 604.903 571.271C596.094 575.545 590.171 577.782 588.181 578.647L562.615 524.1C644.639 492.496 685.708 402.779 689.675 393.41Z" fill="#D4DDE8"/>
<path d="M262.709 253.648C255.54 275.383 250.831 297.034 248.23 318.379C232.104 450.752 299.566 571.157 416.972 603.217C428.088 606.298 439.334 608.302 450.668 609.589C484.856 613.47 519.425 609.575 552.552 598.97L552.76 598.812C552.782 598.632 552.782 598.632 552.804 598.453L522.111 541.141C521.947 540.941 521.761 540.92 521.761 540.92C500.668 547.072 479.104 549.352 458.108 546.968C451.048 546.166 443.867 544.806 436.938 542.928C354.714 520.5 307.506 427.125 319.895 325.424C322.037 307.846 325.894 290.099 331.817 272.405C368.404 160.721 469.837 84.2219 561.252 94.6003C568.498 95.423 575.493 96.7626 582.608 98.6615C664.832 121.09 712.04 214.464 699.651 316.166C697.509 333.744 693.652 351.491 687.729 369.185C685.303 376.729 686.931 377.278 683.992 384.4C683.97 384.579 683.948 384.758 684.134 384.779L747.93 410.025L748.116 410.046L748.324 409.888C751.264 402.766 754.039 395.444 756.465 387.899C763.634 366.164 768.344 344.513 770.944 323.169C787.07 190.795 719.63 70.2105 602.202 38.3302C591.087 35.2497 579.654 33.2243 568.506 31.9587C441.418 17.5301 309.525 110.574 262.709 253.648ZM417.245 602.521C300.189 570.683 232.869 450.657 248.973 318.463C251.574 297.118 256.283 275.467 263.43 253.912C310.224 111.017 441.888 18.3109 568.233 32.6551C579.567 33.9419 590.792 36.1254 601.929 39.0264C718.985 70.8646 786.305 190.89 770.201 323.084C767.601 344.429 762.891 366.08 755.744 387.636C753.34 395 750.586 402.144 747.832 409.287L684.571 384.283C687.489 377.341 685.882 376.613 688.265 369.428C694.002 351.712 698.067 333.807 700.208 316.229C712.62 214.348 665.269 120.594 582.696 97.9441C575.581 96.0452 568.585 94.7055 561.339 93.8828C469.367 83.4411 367.705 160.278 331.096 272.141C325.358 289.856 321.293 307.761 319.152 325.339C306.741 427.22 354.069 521.154 436.665 543.624C443.78 545.523 450.775 546.863 458.021 547.685C479.017 550.069 500.558 547.969 521.652 541.817L552.06 598.369C519.141 608.815 484.757 612.731 450.756 608.871C439.422 607.584 428.197 605.401 417.245 602.521Z" fill="#7195BA"/>
<path d="M488.373 329.458C488.351 329.637 488.33 329.817 488.515 329.838L495.587 332.095C495.773 332.117 495.958 332.138 495.98 331.958C496.002 331.779 496.024 331.599 495.838 331.578L488.767 329.321C488.603 329.12 488.395 329.279 488.373 329.458ZM502.516 333.973C502.494 334.153 502.473 334.332 502.658 334.353L509.73 336.611C509.916 336.632 510.101 336.653 510.123 336.473C510.145 336.294 510.167 336.115 509.981 336.094L502.91 333.836C502.724 333.815 502.538 333.794 502.516 333.973ZM488.286 333.267C488.1 333.246 488.057 333.604 488.035 333.784L490.8 340.462C490.778 340.642 491.15 340.684 491.336 340.705C491.522 340.726 491.565 340.367 491.587 340.188L488.822 333.509C488.658 333.309 488.658 333.309 488.286 333.267C488.472 333.288 488.286 333.267 488.286 333.267ZM516.659 338.488C516.637 338.668 516.615 338.847 516.801 338.868L523.873 341.126C524.059 341.147 524.244 341.168 524.266 340.989C524.288 340.809 524.31 340.63 524.124 340.609L517.053 338.351C516.867 338.33 516.681 338.309 516.659 338.488ZM530.78 343.183C530.758 343.362 530.737 343.542 530.922 343.563L537.994 345.82C538.18 345.842 538.365 345.863 538.387 345.683C538.409 345.504 538.431 345.325 538.245 345.303L531.174 343.046C531.01 342.845 530.988 343.025 530.78 343.183ZM545.109 347.719C545.087 347.899 545.065 348.078 545.251 348.099L552.323 350.357C552.508 350.378 552.694 350.399 552.716 350.22C552.738 350.04 552.76 349.861 552.574 349.84L545.502 347.582C545.338 347.382 545.131 347.54 545.109 347.719ZM559.252 352.235C559.23 352.414 559.208 352.593 559.394 352.614L566.466 354.872C566.651 354.893 566.837 354.914 566.859 354.735C566.881 354.556 566.903 354.376 566.717 354.355L559.645 352.098C559.46 352.076 559.274 352.055 559.252 352.235ZM493.609 346.782C493.423 346.761 493.38 347.12 493.358 347.3L496.123 353.978C496.101 354.158 496.473 354.2 496.659 354.221C496.845 354.242 496.888 353.883 496.91 353.704L494.145 347.025C493.981 346.825 494.003 346.645 493.609 346.782C493.817 346.624 493.795 346.804 493.609 346.782ZM573.373 356.929C573.351 357.109 573.329 357.288 573.515 357.309L580.587 359.567C580.772 359.588 580.958 359.609 580.98 359.429C581.002 359.25 581.024 359.071 580.838 359.05L573.767 356.792C573.603 356.592 573.395 356.75 573.373 356.929ZM587.702 361.466C587.68 361.645 587.658 361.824 587.844 361.845L594.915 364.103C595.101 364.124 595.287 364.145 595.309 363.966C595.331 363.787 595.353 363.607 595.167 363.586L588.095 361.328C587.745 361.107 587.724 361.286 587.702 361.466ZM601.845 365.981C601.823 366.16 601.801 366.34 601.987 366.361L609.058 368.618C609.244 368.639 609.43 368.66 609.452 368.481C609.474 368.302 609.495 368.122 609.31 368.101L602.238 365.844C602.052 365.823 601.867 365.802 601.845 365.981ZM615.966 370.675C615.944 370.855 615.922 371.034 616.108 371.055L623.179 373.313C623.365 373.334 623.551 373.355 623.573 373.176C623.595 372.996 623.617 372.817 623.431 372.796L616.359 370.538C616.195 370.338 615.988 370.496 615.966 370.675ZM630.109 375.191C630.087 375.37 630.065 375.549 630.251 375.571L637.322 377.828C637.508 377.849 637.694 377.87 637.716 377.691C637.738 377.512 637.76 377.332 637.574 377.311L630.502 375.053C630.338 374.853 630.131 375.011 630.109 375.191ZM498.954 360.119C498.769 360.098 498.725 360.456 498.703 360.636L501.468 367.314C501.447 367.494 501.818 367.536 502.004 367.557C502.19 367.578 502.234 367.219 502.255 367.04L499.49 360.361C499.49 360.361 499.326 360.161 498.954 360.119C499.14 360.14 499.14 360.14 498.954 360.119ZM644.438 379.727C644.416 379.906 644.394 380.086 644.58 380.107L651.651 382.364C651.837 382.386 652.023 382.407 652.045 382.227C652.066 382.048 652.088 381.869 651.902 381.848L644.831 379.59C644.459 379.548 644.459 379.548 644.438 379.727ZM658.581 384.242C658.559 384.422 658.537 384.601 658.723 384.622L665.794 386.88C665.98 386.901 666.166 386.922 666.188 386.743C666.209 386.563 666.231 386.384 666.045 386.363L658.974 384.105C658.788 384.084 658.581 384.242 658.581 384.242ZM672.702 388.937C672.68 389.116 672.658 389.296 672.844 389.317L679.915 391.574C680.101 391.595 680.287 391.617 680.309 391.437C680.331 391.258 680.352 391.078 680.167 391.057L673.095 388.8C672.931 388.599 672.723 388.758 672.702 388.937ZM686.845 393.452C686.823 393.632 686.801 393.811 686.987 393.832L694.058 396.09C694.244 396.111 694.43 396.132 694.452 395.952C694.473 395.773 694.495 395.594 694.31 395.573L687.238 393.315C687.052 393.294 686.866 393.273 686.845 393.452ZM504.463 373.655C504.278 373.634 504.234 373.993 504.212 374.172L506.977 380.851C506.956 381.03 507.327 381.073 507.513 381.094C507.699 381.115 507.743 380.756 507.764 380.577L504.999 373.898C504.835 373.698 504.649 373.677 504.463 373.655ZM701.173 397.988C701.151 398.168 701.13 398.347 701.315 398.368L708.387 400.626C708.573 400.647 708.759 400.668 708.78 400.489C708.802 400.309 708.824 400.13 708.638 400.109L701.567 397.851C701.381 397.83 701.173 397.988 701.173 397.988ZM715.294 402.683C715.273 402.862 715.251 403.042 715.437 403.063L722.508 405.321C722.694 405.342 722.88 405.363 722.901 405.183C722.923 405.004 722.945 404.825 722.759 404.804L715.688 402.546C715.524 402.346 715.316 402.504 715.294 402.683ZM729.437 407.198C729.415 407.378 729.394 407.557 729.579 407.578L736.651 409.836C736.837 409.857 737.023 409.878 737.044 409.699C737.066 409.519 737.088 409.34 736.902 409.319L729.831 407.061C729.645 407.04 729.459 407.019 729.437 407.198ZM743.58 411.714C743.558 411.893 743.537 412.072 743.722 412.093L750.794 414.351C750.98 414.372 751.165 414.393 751.187 414.214C751.209 414.034 751.231 413.855 751.045 413.834L743.974 411.576C743.788 411.555 743.602 411.534 743.58 411.714ZM509.787 387.171C509.601 387.15 509.557 387.509 509.535 387.688L512.301 394.367C512.279 394.546 512.65 394.588 512.836 394.609C513.022 394.63 513.066 394.272 513.088 394.092L510.322 387.414C510.158 387.213 509.973 387.192 509.787 387.171ZM757.887 416.429C757.865 416.609 757.844 416.788 758.029 416.809L765.101 419.067C765.287 419.088 765.472 419.109 765.494 418.93C765.516 418.75 765.538 418.571 765.352 418.55L758.281 416.292C758.117 416.092 757.909 416.25 757.887 416.429ZM772.03 420.945C772.008 421.124 771.986 421.303 772.172 421.324L779.244 423.582C779.429 423.603 779.615 423.624 779.637 423.445C779.659 423.266 779.681 423.086 779.495 423.065L772.424 420.807C772.238 420.786 772.052 420.765 772.03 420.945ZM786.173 425.46C786.151 425.639 786.129 425.819 786.315 425.84L793.387 428.097C793.573 428.118 793.758 428.139 793.78 427.96C793.802 427.781 793.824 427.601 793.638 427.58L786.567 425.323C786.381 425.302 786.195 425.28 786.173 425.46ZM800.294 430.154C800.272 430.334 800.25 430.513 800.436 430.534L807.508 432.792C807.694 432.813 807.879 432.834 807.901 432.655C807.923 432.475 807.945 432.296 807.759 432.275L800.688 430.017C800.524 429.817 800.316 429.975 800.294 430.154ZM814.623 434.691C814.601 434.87 814.579 435.049 814.765 435.071L821.836 437.328C822.022 437.349 822.208 437.37 822.23 437.191C822.252 437.012 822.274 436.832 822.088 436.811L815.016 434.554C814.852 434.353 814.645 434.511 814.623 434.691ZM515.11 400.687C514.924 400.666 514.88 401.024 514.859 401.204L517.624 407.882C517.602 408.062 517.974 408.104 518.16 408.125C518.345 408.146 518.389 407.787 518.411 407.608L515.646 400.929C515.482 400.729 515.296 400.708 515.11 400.687ZM828.766 439.206C828.744 439.385 828.722 439.565 828.908 439.586L835.98 441.843C836.165 441.865 836.351 441.886 836.373 441.706C836.395 441.527 836.417 441.348 836.231 441.327L829.159 439.069C828.974 439.048 828.788 439.027 828.766 439.206ZM842.887 443.901C842.865 444.08 842.843 444.259 843.029 444.281L850.101 446.538C850.286 446.559 850.472 446.58 850.494 446.401C850.516 446.222 850.538 446.042 850.352 446.021L843.28 443.763C843.117 443.563 842.909 443.721 842.887 443.901ZM857.03 448.416C857.008 448.595 856.986 448.775 857.172 448.796L864.244 451.053C864.429 451.074 864.615 451.096 864.637 450.916C864.659 450.737 864.681 450.557 864.495 450.536L857.423 448.279C857.259 448.078 857.238 448.258 857.03 448.416ZM520.433 414.202C520.247 414.181 520.204 414.54 520.182 414.719L522.947 421.398C522.925 421.577 523.297 421.62 523.483 421.641C523.669 421.662 523.712 421.303 523.734 421.124L520.969 414.445C520.805 414.244 520.641 414.044 520.433 414.202C520.455 414.023 520.433 414.202 520.433 414.202ZM525.778 427.538C525.592 427.517 525.549 427.876 525.527 428.055L528.292 434.734C528.27 434.913 528.642 434.956 528.828 434.977C529.014 434.998 529.057 434.639 529.079 434.46L526.314 427.781C526.128 427.76 526.15 427.581 525.778 427.538C525.964 427.56 525.778 427.538 525.778 427.538ZM531.102 441.054C530.916 441.033 530.872 441.392 530.85 441.571L533.616 448.25C533.594 448.429 533.965 448.471 534.151 448.492C534.337 448.514 534.381 448.155 534.403 447.975L531.637 441.297C531.473 441.096 531.473 441.096 531.102 441.054C531.287 441.075 531.102 441.054 531.102 441.054ZM536.425 454.57C536.239 454.549 536.195 454.907 536.173 455.087L538.939 461.765C538.917 461.945 539.289 461.987 539.474 462.008C539.66 462.029 539.704 461.67 539.726 461.491L536.96 454.812C536.796 454.612 536.796 454.612 536.425 454.57C536.611 454.591 536.611 454.591 536.425 454.57ZM541.748 468.085C541.562 468.064 541.519 468.423 541.497 468.602L544.262 475.281C544.24 475.46 544.612 475.503 544.798 475.524C544.983 475.545 545.027 475.186 545.049 475.007L542.284 468.328C542.305 468.149 542.12 468.127 541.748 468.085C541.934 468.106 541.934 468.106 541.748 468.085ZM547.071 481.601C546.885 481.58 546.842 481.939 546.82 482.118L549.585 488.797C549.564 488.976 549.935 489.018 550.121 489.039C550.307 489.06 550.35 488.702 550.372 488.522L547.607 481.844C547.629 481.664 547.465 481.464 547.071 481.601C547.279 481.443 547.257 481.622 547.071 481.601ZM552.602 494.958C552.416 494.937 552.373 495.296 552.351 495.475L555.116 502.154C555.094 502.333 555.466 502.375 555.652 502.397C555.838 502.418 555.881 502.059 555.903 501.88L553.138 495.201C552.952 495.18 552.788 494.979 552.602 494.958ZM557.925 508.474C557.74 508.453 557.696 508.811 557.674 508.991L560.44 515.67C560.418 515.849 560.789 515.891 560.975 515.912C561.161 515.933 561.205 515.575 561.226 515.395L558.461 508.716C558.297 508.516 558.111 508.495 557.925 508.474ZM563.249 521.989C563.063 521.968 563.019 522.327 562.997 522.507L565.763 529.185C565.741 529.365 566.113 529.407 566.298 529.428C566.484 529.449 566.528 529.09 566.55 528.911L563.784 522.232C563.62 522.032 563.434 522.011 563.249 521.989ZM568.572 535.505C568.386 535.484 568.342 535.843 568.321 536.022L571.086 542.701C571.064 542.88 571.436 542.922 571.622 542.943C571.807 542.964 571.851 542.606 571.873 542.426L569.107 535.748C568.944 535.547 568.758 535.526 568.572 535.505C568.758 535.526 568.572 535.505 568.572 535.505ZM573.895 549.021C573.709 549 573.666 549.358 573.644 549.538L576.409 556.216C576.387 556.396 576.759 556.438 576.945 556.459C577.131 556.48 577.174 556.121 577.196 555.942L574.431 549.263C574.267 549.063 574.289 548.884 573.895 549.021C574.103 548.862 573.895 549.021 573.895 549.021ZM579.24 562.357C579.055 562.336 579.011 562.695 578.989 562.874L581.754 569.553C581.733 569.732 582.104 569.774 582.29 569.795C582.476 569.816 582.519 569.458 582.541 569.278L579.776 562.6C579.59 562.579 579.612 562.399 579.24 562.357C579.426 562.378 579.24 562.357 579.24 562.357ZM584.563 575.873C584.378 575.852 584.334 576.21 584.312 576.39L587.078 583.068C587.056 583.248 587.427 583.29 587.613 583.311C587.799 583.332 587.843 582.973 587.865 582.794L585.099 576.115C584.935 575.915 584.935 575.915 584.563 575.873C584.749 575.894 584.749 575.894 584.563 575.873ZM589.887 589.388C589.701 589.367 589.657 589.726 589.635 589.905L592.401 596.584C592.379 596.763 592.751 596.805 592.936 596.827C593.122 596.848 593.166 596.489 593.188 596.309L590.422 589.631C590.444 589.451 590.258 589.43 589.887 589.388C590.073 589.409 590.073 589.409 589.887 589.388ZM595.396 602.925C595.21 602.904 595.166 603.263 595.145 603.442L597.91 610.121C597.888 610.3 598.26 610.342 598.446 610.363C598.631 610.384 598.675 610.026 598.697 609.846L595.931 603.168C595.767 602.967 595.582 602.946 595.396 602.925ZM600.719 616.441C600.533 616.419 600.49 616.778 600.468 616.958L603.233 623.636C603.211 623.816 603.583 623.858 603.769 623.879C603.955 623.9 603.998 623.541 604.02 623.362L601.255 616.683C601.091 616.483 600.927 616.282 600.719 616.441C600.741 616.261 600.719 616.441 600.719 616.441ZM606.064 629.777C605.878 629.756 605.835 630.114 605.813 630.294L608.578 636.972C608.556 637.152 608.928 637.194 609.114 637.215C609.3 637.236 609.343 636.877 609.365 636.698L606.6 630.019C606.414 629.998 606.25 629.798 606.064 629.777ZM611.387 643.292C611.202 643.271 611.158 643.63 611.136 643.809L613.902 650.488C613.88 650.667 614.251 650.71 614.437 650.731C614.623 650.752 614.667 650.393 614.689 650.214L611.923 643.535C611.759 643.335 611.573 643.313 611.387 643.292ZM616.711 656.808C616.525 656.787 616.481 657.146 616.459 657.325L619.225 664.004C619.203 664.183 619.575 664.225 619.76 664.246C619.946 664.267 619.99 663.909 620.012 663.729L617.246 657.051C617.082 656.85 617.082 656.85 616.711 656.808C616.897 656.829 616.711 656.808 616.711 656.808ZM622.034 670.324C621.848 670.302 621.804 670.661 621.783 670.841L624.548 677.519C624.526 677.699 624.898 677.741 625.084 677.762C625.269 677.783 625.313 677.424 625.335 677.245L622.57 670.566C622.406 670.366 622.406 670.366 622.034 670.324C622.22 670.345 622.034 670.324 622.034 670.324Z" fill="#092D66"/>
<path d="M655.591 92.0499C662.14 75.7718 658.404 58.2842 647.475 49.8816C645.65 48.5084 637.343 44.5521 635.134 43.6303C619.634 37.504 607.496 50.642 599.804 69.5995C592.113 88.557 598.481 109.002 613.981 115.129C629.299 121.399 647.9 111.007 655.591 92.0499Z" fill="#18CFAE"/>
<path d="M647.698 88.8044C655.389 69.8469 649.021 49.4015 633.521 43.2751C618.021 37.1488 599.419 47.5405 591.891 66.5172C584.2 85.4747 590.568 105.92 606.068 112.046C621.405 118.154 640.006 107.762 647.698 88.8044Z" fill="white"/>
<path d="M591.113 66.0947C589.509 69.8785 588.54 73.9024 588.079 77.8206C586.274 93.1669 592.843 107.677 605.645 112.824C607.691 113.727 609.957 114.159 612.243 114.428C626.61 116.117 641.725 105.812 648.475 89.2269L647.678 88.9676L646.881 88.7084C640.351 104.823 625.784 114.696 612.416 112.959C610.293 112.709 608.209 112.133 606.308 111.413C594.447 106.707 587.945 93.0324 589.692 78.1758C590.134 74.4208 591.065 70.7235 592.506 66.9205C599.035 50.8056 613.584 41.096 626.971 42.6704C629.094 42.92 631.178 43.4961 633.079 44.2163C644.94 48.9214 651.442 62.5965 649.695 77.4531C649.253 81.208 648.321 84.9054 646.881 88.7084L647.678 88.9676L648.475 89.2269C650.079 85.443 651.049 81.4192 651.49 77.6643C653.295 62.3179 646.726 47.8074 633.924 42.6605C631.879 41.7578 629.612 41.3258 627.327 41.057C612.998 39.0409 597.883 49.346 591.113 66.0947Z" fill="#4ABFAA"/>
<path opacity="0.4" d="M637.114 88.7182L640.879 90.4851C635.713 100.636 626.59 107.839 616.89 108.685L617.485 103.624C625.351 102.893 632.831 96.9869 637.114 88.7182Z" fill="#18CFAE"/>
<path opacity="0.4" d="M622.285 51.554C610.444 52.3132 599.708 64.7884 598.182 79.1744C596.771 92.5809 603.983 103.029 614.489 103.768L614.038 109.012C601.208 108.33 592.43 95.7118 594.167 79.5299C595.857 62.3493 608.859 47.4923 622.88 46.4929C626.059 46.2047 629.142 46.7327 631.821 47.8754L628.96 52.5044C626.751 51.5826 624.628 51.333 622.285 51.554Z" fill="#18CFAE"/>
<path d="M638.66 85.4247C639.822 82.582 640.696 79.3744 640.897 76.2533C641.925 66.112 637.968 57.5363 631.312 53.6088L634.155 49.1431C641.713 53.8389 646.169 63.7974 645.075 75.917C644.614 79.8352 643.664 83.6958 642.262 87.1723L638.66 85.4247Z" fill="#18CFAE"/>
<path d="M655.698 659.05C662.247 642.772 658.511 625.285 647.582 616.882C645.757 615.509 637.45 611.553 635.241 610.631C619.741 604.504 607.603 617.642 599.911 636.6C592.22 655.557 598.588 676.003 614.088 682.129C629.405 688.4 648.007 678.008 655.698 659.05Z" fill="url(#paint8_linear_523_3210)"/>
<path d="M599.114 636.341C597.51 640.125 596.541 644.149 596.08 648.067C594.275 663.413 600.844 677.924 613.646 683.07C615.692 683.973 617.958 684.405 620.244 684.674C634.61 686.364 649.726 676.058 656.476 659.473L655.679 659.214L654.882 658.955C648.352 675.069 633.804 684.779 620.416 683.205C618.294 682.955 616.21 682.379 614.309 681.659C602.448 676.954 595.946 663.279 597.693 648.422C598.135 644.667 599.066 640.97 600.507 637.167C607.094 620.562 617.427 608.701 629.652 610.305C631.285 610.497 633.061 610.871 634.78 611.735C636.845 612.475 645.296 616.613 646.977 617.804C655.178 624.065 659.279 635.637 657.839 647.882C657.398 651.637 656.467 655.334 655.026 659.137L655.823 659.396L656.62 659.656C658.224 655.872 659.194 651.848 659.655 647.93C661.152 635.195 656.926 623.278 648.292 616.469C646.324 614.914 638.016 610.957 635.808 610.036C633.906 609.315 631.985 608.758 630.19 608.547C616.313 606.915 605.884 619.592 599.114 636.341Z" fill="#D4DDE8"/>
<path d="M647.823 655.641C655.515 636.684 649.147 616.239 633.647 610.112C618.147 603.986 599.545 614.378 592.017 633.354C584.325 652.312 590.693 672.757 606.194 678.884C621.511 685.154 640.113 674.762 647.823 655.641Z" fill="white"/>
<path d="M591.22 633.095C589.616 636.879 588.647 640.903 588.186 644.821C586.381 660.167 592.95 674.678 605.752 679.825C607.798 680.728 610.064 681.16 612.35 681.428C626.716 683.118 641.832 672.813 648.582 656.227L647.785 655.968L646.988 655.709C640.458 671.824 625.89 681.697 612.522 679.959C610.4 679.709 608.316 679.133 606.415 678.413C594.554 673.708 588.052 660.033 589.799 645.176C590.241 641.421 591.172 637.724 592.613 633.921C599.142 617.806 613.691 608.096 627.078 609.671C629.201 609.92 631.285 610.497 633.186 611.217C645.047 615.922 651.549 629.597 649.801 644.454C649.36 648.209 648.428 651.906 646.988 655.709L647.785 655.968L648.582 656.227C650.186 652.444 651.156 648.42 651.597 644.665C653.402 629.318 646.833 614.808 634.031 609.661C631.986 608.758 629.719 608.326 627.434 608.057C613.105 606.041 597.826 616.327 591.22 633.095Z" fill="#092D66"/>
<path d="M637.221 655.719L640.986 657.486C635.82 667.637 626.697 674.84 616.997 675.686L617.429 670.605C625.458 669.894 632.938 663.988 637.221 655.719Z" fill="#092D66"/>
<g opacity="0.4">
<path opacity="0.4" d="M622.392 618.554C610.551 619.313 599.815 631.789 598.289 646.175C596.878 659.581 604.09 670.029 614.596 670.768L614.145 676.012C601.315 675.33 592.537 662.712 594.274 646.53C595.964 629.349 608.966 614.492 622.987 613.493C626.166 613.205 629.249 613.733 631.928 614.875L629.067 619.504C626.858 618.583 624.735 618.333 622.392 618.554Z" fill="#092D66"/>
</g>
<g opacity="0.4">
<path opacity="0.4" d="M638.767 652.425C639.929 649.582 640.803 646.374 641.004 643.253C642.032 633.112 638.075 624.536 631.419 620.609L634.262 616.143C641.82 620.839 646.439 630.817 645.182 642.917C644.721 646.835 643.771 650.696 642.369 654.172L638.767 652.425Z" fill="#092D66"/>
</g>
<path d="M316.842 368.716C323.391 352.438 319.655 334.951 308.726 326.548C306.901 325.175 298.594 321.219 296.385 320.297C280.885 314.17 268.747 327.308 261.055 346.266C253.364 365.223 259.732 385.669 275.232 391.795C290.549 398.066 309.314 387.693 316.842 368.716Z" fill="url(#paint9_linear_523_3210)"/>
<path d="M260.422 346.025C258.818 349.809 257.848 353.833 257.407 357.588C255.602 372.935 262.171 387.445 274.973 392.592C277.018 393.495 279.285 393.927 281.57 394.195C295.937 395.885 311.052 385.58 317.803 368.995L317.006 368.735L316.209 368.476C309.679 384.591 295.111 394.464 281.743 392.726C279.621 392.476 277.537 391.9 275.635 391.18C263.775 386.475 257.273 372.8 259.02 357.943C259.462 354.189 260.393 350.491 261.833 346.688C268.421 330.084 278.753 318.223 290.978 319.826C292.611 320.018 294.388 320.393 296.27 321.276C298.335 322.015 306.786 326.154 308.467 327.345C316.668 333.606 320.769 345.178 319.329 357.422C318.888 361.177 317.956 364.875 316.516 368.678L317.313 368.937L318.11 369.196C319.714 365.412 320.684 361.388 321.125 357.633C322.623 344.899 318.397 332.982 309.763 326.173C307.794 324.617 299.487 320.661 297.259 319.903C295.358 319.182 293.437 318.626 291.641 318.414C277.457 316.581 267.028 329.258 260.422 346.025Z" fill="#D4DDE8"/>
<path d="M308.968 365.307C316.659 346.35 310.291 325.904 294.791 319.778C279.291 313.652 260.689 324.043 253.161 343.02C245.47 361.977 251.838 382.423 267.338 388.549C282.675 394.656 301.42 384.447 308.968 365.307Z" fill="white"/>
<path d="M252.22 342.578C250.597 346.525 249.646 350.386 249.186 354.304C247.362 369.814 254.094 384.344 266.896 389.49C269.105 390.412 271.189 390.988 273.474 391.257C288.004 392.966 303.283 382.68 309.909 365.749L308.968 365.307L308.026 364.865C301.497 380.98 287.13 390.546 273.743 388.971C271.621 388.722 269.7 388.165 267.635 387.426C255.938 382.74 249.58 369.247 251.327 354.39C251.769 350.636 252.7 346.938 254.141 343.135C260.507 327.001 275.037 317.455 288.424 319.029C290.546 319.279 292.467 319.836 294.532 320.575C306.229 325.261 312.587 338.753 310.84 353.61C310.398 357.365 309.467 361.062 308.045 364.702L308.987 365.144L309.928 365.586C311.551 361.639 312.501 357.778 312.962 353.86C314.786 338.35 308.053 323.82 295.252 318.673C293.043 317.752 290.777 317.32 288.654 317.07C274.124 315.361 258.826 325.81 252.22 342.578Z" fill="#7195BA"/>
<g opacity="0.5">
<path opacity="0.5" d="M298.529 365.403L302.293 367.17C297.127 377.321 288.004 384.524 278.305 385.37L278.9 380.309C286.765 379.578 294.083 373.653 298.529 365.403Z" fill="#7195BA"/>
</g>
<path d="M283.536 328.22C271.695 328.979 260.959 341.454 259.433 355.84C258.021 369.246 265.234 379.695 275.74 380.434L275.289 385.677C262.459 384.996 253.681 372.377 255.418 356.195C257.108 339.015 270.11 324.158 284.131 323.158C287.31 322.87 290.393 323.398 293.072 324.541L290.211 329.17C288.165 328.267 285.879 327.999 283.536 328.22Z" fill="url(#paint10_linear_523_3210)"/>
<g opacity="0.5">
<path opacity="0.5" d="M300.075 362.11C301.237 359.267 302.11 356.059 302.312 352.938C303.358 342.634 299.382 334.221 292.727 330.294L295.569 325.828C303.127 330.524 307.584 340.482 306.489 352.602C306.029 356.52 305.078 360.381 303.676 363.857L300.075 362.11Z" fill="#7195BA"/>
</g>
<path d="M617.321 78.9247L584.4 173.001C584.348 173.24 584.475 173.639 584.726 173.718C584.976 173.797 585.369 173.716 585.421 173.477L618.342 79.4008C618.394 79.1611 618.267 78.7622 618.016 78.6831C617.766 78.604 617.534 78.6845 617.463 78.7646C617.392 78.8446 617.321 78.9247 617.321 78.9247Z" fill="#4ABFAA"/>
<path d="M620.522 73.3262C617.725 71.4181 614.619 71.6667 613.525 73.9854C612.501 76.2241 613.949 79.6533 616.675 81.6415C619.472 83.5496 622.579 83.301 623.673 80.9823C624.767 78.6635 623.319 75.2344 620.522 73.3262Z" fill="#4ABFAA"/>
<path d="M616.794 643.531L632.764 494.29C632.885 493.611 633.285 493.332 633.963 493.453C634.642 493.574 634.921 493.973 634.8 494.652L618.83 643.893C618.678 644.356 618.31 644.851 617.631 644.73C617.168 644.578 616.705 644.426 616.61 643.779C616.826 643.747 616.794 643.531 616.794 643.531Z" fill="#092D66"/>
<path d="M619.638 655.22C613.973 657.651 608.241 655.784 606.749 650.823C605.371 646.048 608.881 640.08 614.432 637.463C620.097 635.032 625.829 636.898 627.321 641.86C628.813 646.821 625.303 652.788 619.638 655.22Z" fill="#092D66"/>
<path d="M349.259 336.501L277.762 354.741C277.417 354.866 277.033 355.317 277.157 355.663C277.282 356.009 277.734 356.393 278.079 356.268L349.576 338.028C349.922 337.903 350.306 337.452 350.181 337.106C350.056 336.76 349.749 336.559 349.586 336.539C349.442 336.357 349.278 336.338 349.259 336.501Z" fill="#7195BA"/>
<path d="M288.662 353.541C288.547 348.893 285.464 345.551 281.594 346.089C277.887 346.646 274.9 350.929 274.852 355.558C274.968 360.206 278.051 363.548 281.921 363.01C285.791 362.472 288.778 358.189 288.662 353.541Z" fill="#7195BA"/>















<path d="M523.146 271.357C531.649 275.778 538.372 283.997 542.656 295.212C548.078 309.466 548.582 326.981 544.374 344.506C540.167 362.032 531.512 377.415 520.244 387.956C510.911 396.535 500.736 401.199 490.757 401.157L498.451 402.94C498.823 402.982 499.009 403.003 499.358 403.225C499.73 403.267 499.916 403.288 500.288 403.33L500.845 403.393C524.453 407.528 550.234 382.996 558.67 347.766C567.106 312.536 555.279 279.733 532.141 273.288L531.584 273.224C531.212 273.182 531.026 273.161 530.677 272.939C530.305 272.897 530.119 272.876 529.748 272.834L523.146 271.357Z" fill="url(#paint11_linear_523_3210)"/>
<path d="M522.053 271.051C521.802 271.568 522.086 272.328 522.621 272.571C530.775 276.77 537.333 284.788 541.454 295.803C545.575 306.818 546.832 319.69 545.193 333.143C544.735 336.91 544.09 340.655 543.074 344.359C538.888 361.705 530.44 376.93 519.38 387.313C510.255 395.733 500.309 400.059 490.888 400.081C490.33 400.017 489.707 400.492 489.62 401.21C489.554 401.748 490.046 402.349 490.582 402.592L498.276 404.375C498.648 404.417 498.834 404.438 499.183 404.66C499.555 404.702 499.927 404.744 500.112 404.765L500.67 404.828C500.856 404.849 500.856 404.849 501.041 404.87C501.599 404.934 502.156 404.997 502.528 405.039C526.704 407.602 551.557 382.965 559.927 348.272C560.779 344.369 561.61 340.644 562.069 336.877C565.827 306.026 554.273 278.71 532.808 272.454C532.622 272.433 532.622 272.433 532.436 272.412L531.879 272.349C531.507 272.306 531.157 272.085 530.971 272.064C530.6 272.022 530.414 272 530.042 271.958L523.255 270.46C523.255 270.46 523.255 270.46 523.069 270.439C522.741 270.038 522.304 270.534 522.053 271.051ZM523.834 270.344L523.332 271.378L523.834 270.344ZM521.064 388.959C532.539 378.26 541.238 362.517 545.467 344.812C546.32 340.908 547.15 337.184 547.631 333.238C549.313 319.427 547.914 306.174 543.836 294.801C540.59 285.885 535.617 278.774 529.594 274.09L529.78 274.111C530.152 274.153 530.338 274.174 530.709 274.216C531.081 274.258 531.267 274.28 531.616 274.501L531.988 274.543L532.174 274.564C551.869 279.892 563.554 306.132 559.861 336.445C559.424 340.032 558.779 343.778 557.741 347.661C549.644 381.656 525.108 405.239 503.02 402.549C502.462 402.486 501.905 402.423 501.347 402.359L501.162 402.338L500.79 402.296C500.418 402.254 500.233 402.233 499.861 402.191C499.489 402.148 499.304 402.127 498.954 401.906L498.211 401.821C506.156 399.996 514.036 395.617 521.064 388.959Z" fill="#D4DDE8"/>
<path d="M542.656 295.213C537.256 280.78 527.67 271.327 515.56 268.679C503.45 266.031 490.488 270.379 479.013 281.078C467.745 291.619 459.089 307.002 454.882 324.528C450.675 342.053 451.364 359.589 456.6 373.822C462 388.255 471.586 397.709 483.674 400.536C495.784 403.184 508.746 398.836 520.221 388.137C531.489 377.596 540.145 362.212 544.352 344.687C548.581 326.982 548.077 309.468 542.656 295.213Z" fill="url(#paint12_linear_523_3210)"/>
<path d="M478.193 280.075C466.717 290.774 458.018 306.517 453.789 324.222C452.937 328.125 452.085 332.029 451.626 335.796C449.943 349.607 451.343 362.859 455.606 374.254C461.148 389.068 471.061 398.922 483.543 401.612C484.636 401.918 485.936 402.066 487.051 402.192C498.571 403.5 510.44 398.846 521.063 388.96C532.539 378.261 541.238 362.518 545.467 344.813C546.319 340.909 547.15 337.185 547.63 333.239C549.313 319.428 547.913 306.175 543.836 294.802L542.656 295.213L543.836 294.802C538.294 279.988 528.359 270.313 515.899 267.444C514.806 267.138 513.505 266.991 512.391 266.864C500.871 265.556 488.816 270.188 478.193 280.075ZM484.198 399.322C472.646 396.738 463.388 387.685 457.967 373.431C453.846 362.416 452.588 349.544 454.227 336.091C454.686 332.325 455.331 328.579 456.347 324.876C460.532 307.53 468.98 292.304 480.04 281.922C490.248 272.351 501.494 268.173 512.085 269.375C513.2 269.502 514.314 269.628 515.407 269.934C526.96 272.519 536.218 281.571 541.639 295.825C545.76 306.84 547.018 319.712 545.379 333.165C544.92 336.932 544.275 340.677 543.259 344.381C539.074 361.727 530.626 376.952 519.566 387.335C509.358 396.905 498.112 401.084 487.521 399.881C486.22 399.734 485.106 399.607 484.198 399.322Z" fill="#D4DDE8"/>
<g filter="url(#filter1_d_523_3210)">

</g>



<mask id="path-74-outside-1_523_3210" maskUnits="userSpaceOnUse" x="702" y="68.9995" width="64" height="64" fill="black">
<rect fill="white" x="702" y="68.9995" width="64" height="64"/>
<path d="M711.944 83.7578V79.2515C711.944 79.1681 711.976 79.0882 712.034 79.0302C712.092 78.9721 712.172 78.9395 712.256 78.9395H716.762C716.889 78.9395 717.001 79.0157 717.049 79.1318C717.096 79.2479 717.07 79.3821 716.98 79.4728L716.007 80.4452L723.597 88.0355C723.721 88.1588 723.721 88.3548 723.597 88.4745C723.474 88.5978 723.278 88.5978 723.158 88.4745L715.347 80.6665C715.224 80.5432 715.224 80.3472 715.347 80.2275L716.007 79.5672H712.564V83.0104L713.224 82.35C713.348 82.2267 713.544 82.2267 713.663 82.35L719.432 88.1189C719.556 88.2423 719.556 88.4382 719.432 88.5579C719.371 88.6196 719.291 88.6486 719.211 88.6486C719.131 88.6486 719.051 88.6196 718.99 88.5579L713.446 83.0067L712.473 83.9791C712.383 84.0698 712.248 84.0952 712.132 84.048C712.02 83.9972 711.944 83.8848 711.944 83.7578ZM755.544 117.631C755.428 117.584 755.294 117.609 755.203 117.7L754.231 118.672L748.611 113.052C748.487 112.929 748.291 112.929 748.172 113.052C748.048 113.176 748.048 113.371 748.172 113.491L754.013 119.333C754.136 119.456 754.332 119.456 754.452 119.333L755.112 118.672V122.115H751.669L752.329 121.455C752.453 121.332 752.453 121.136 752.329 121.016L744.445 113.132C744.322 113.009 744.126 113.009 744.006 113.132C743.883 113.255 743.883 113.451 744.006 113.571L751.669 121.234L750.697 122.206C750.606 122.297 750.581 122.428 750.628 122.547C750.675 122.663 750.791 122.74 750.914 122.74H755.421C755.504 122.74 755.584 122.707 755.642 122.649C755.7 122.591 755.733 122.511 755.733 122.428V117.921C755.736 117.794 755.66 117.682 755.544 117.631ZM746.564 86.4354L752.333 80.6665C752.456 80.5432 752.456 80.3472 752.333 80.2275L751.673 79.5672H755.116V83.0104L754.456 82.35C754.332 82.2267 754.136 82.2267 754.017 82.35L746.205 90.1616C746.082 90.285 746.082 90.4809 746.205 90.6006C746.267 90.6623 746.347 90.6913 746.426 90.6913C746.506 90.6913 746.586 90.6623 746.648 90.6006L754.238 83.0104L755.21 83.9827C755.301 84.0734 755.435 84.0988 755.551 84.0517C755.667 84.0045 755.744 83.8884 755.744 83.765V79.2588C755.744 79.1753 755.711 79.0955 755.653 79.0374C755.595 78.9794 755.515 78.9467 755.432 78.9467H750.925C750.798 78.9467 750.686 79.0229 750.639 79.139C750.592 79.2551 750.617 79.3894 750.708 79.4801L751.68 80.4525L746.132 86C746.009 86.1234 746.009 86.3193 746.132 86.439C746.245 86.5588 746.444 86.5588 746.564 86.4354ZM721.188 115.171L715.347 121.012C715.224 121.136 715.224 121.332 715.347 121.452L716.007 122.112H712.564V118.669L713.224 119.329C713.348 119.452 713.544 119.452 713.663 119.329L721.548 111.445C721.671 111.321 721.671 111.126 721.548 111.006C721.424 110.882 721.228 110.882 721.109 111.006L713.446 118.669L712.473 117.696C712.383 117.606 712.252 117.58 712.132 117.627C712.016 117.675 711.94 117.791 711.94 117.914V122.42C711.94 122.504 711.973 122.584 712.031 122.642C712.089 122.7 712.169 122.732 712.252 122.732H716.758C716.885 122.732 716.998 122.656 717.045 122.54C717.092 122.424 717.067 122.29 716.976 122.199L716.004 121.227L721.624 115.606C721.747 115.483 721.747 115.287 721.624 115.167C721.508 115.048 721.308 115.048 721.188 115.171ZM730.654 73.8092H732.03V81.2434C732.03 81.4139 732.167 81.5554 732.342 81.5554C732.512 81.5554 732.654 81.4176 732.654 81.2434V73.4971C732.654 73.3266 732.516 73.1851 732.342 73.1851H731.405L733.84 70.7506L736.275 73.1851H735.338C735.168 73.1851 735.026 73.323 735.026 73.4971V81.2434C735.026 81.4139 735.164 81.5554 735.338 81.5554C735.509 81.5554 735.65 81.4176 735.65 81.2434V73.8092H737.026C737.153 73.8092 737.265 73.733 737.312 73.6169C737.359 73.5008 737.334 73.3665 737.243 73.2758L734.058 70.0902C734 70.0322 733.92 69.9995 733.836 69.9995C733.753 69.9995 733.673 70.0322 733.615 70.0902L730.429 73.2758C730.339 73.3665 730.313 73.4971 730.361 73.6169C730.415 73.733 730.527 73.8092 730.654 73.8092ZM737.026 127.87H735.65V120.334C735.65 120.163 735.513 120.022 735.338 120.022C735.168 120.022 735.026 120.16 735.026 120.334V128.182C735.026 128.352 735.164 128.494 735.338 128.494H736.275L733.84 130.928L731.405 128.494H732.342C732.512 128.494 732.654 128.356 732.654 128.182V120.334C732.654 120.163 732.516 120.022 732.342 120.022C732.171 120.022 732.03 120.16 732.03 120.334V127.87H730.654C730.527 127.87 730.415 127.946 730.368 128.062C730.321 128.178 730.346 128.312 730.437 128.403L733.622 131.589C733.68 131.647 733.76 131.68 733.844 131.68C733.927 131.68 734.007 131.647 734.065 131.589L737.251 128.403C737.341 128.312 737.367 128.182 737.319 128.062C737.265 127.946 737.153 127.87 737.026 127.87ZM764.589 100.622L761.404 97.4362C761.313 97.3455 761.179 97.3201 761.063 97.3673C760.947 97.4145 760.87 97.5306 760.87 97.6539V99.029H753.436C753.266 99.029 753.124 99.1669 753.124 99.341C753.124 99.5116 753.262 99.6531 753.436 99.6531H761.182C761.353 99.6531 761.494 99.5152 761.494 99.341V98.405L763.929 100.84L761.494 103.274V102.338C761.494 102.167 761.357 102.026 761.182 102.026H753.436C753.266 102.026 753.124 102.164 753.124 102.338C753.124 102.508 753.262 102.65 753.436 102.65H760.87V104.025C760.87 104.152 760.947 104.265 761.063 104.312C761.103 104.326 761.142 104.337 761.182 104.337C761.262 104.337 761.342 104.304 761.404 104.246L764.589 101.061C764.647 101.003 764.68 100.923 764.68 100.84C764.68 100.76 764.647 100.68 764.589 100.622ZM714.658 102.338C714.658 102.167 714.52 102.026 714.345 102.026H706.498C706.327 102.026 706.186 102.164 706.186 102.338V103.274L703.751 100.84L706.186 98.405V99.341C706.186 99.5116 706.323 99.6531 706.498 99.6531H714.345C714.516 99.6531 714.658 99.5152 714.658 99.341C714.658 99.1705 714.52 99.029 714.345 99.029H706.81V97.6539C706.81 97.5269 706.733 97.4145 706.617 97.3673C706.501 97.3201 706.367 97.3455 706.276 97.4362L703.091 100.622C703.033 100.68 703 100.76 703 100.843C703 100.927 703.033 101.006 703.091 101.064L706.276 104.25C706.334 104.308 706.414 104.341 706.498 104.341C706.538 104.341 706.577 104.333 706.617 104.315C706.733 104.268 706.81 104.152 706.81 104.029V102.654H714.345C714.52 102.65 714.658 102.508 714.658 102.338ZM724.853 102.178L722.204 104.827C721.849 105.183 721.373 105.382 720.865 105.382C720.361 105.382 719.886 105.186 719.527 104.827L716.878 102.178C716.141 101.442 716.141 100.241 716.878 99.5043L719.527 96.8557C719.882 96.5001 720.357 96.3006 720.865 96.3006C721.37 96.3006 721.845 96.4965 722.204 96.8557L724.853 99.5043C725.589 100.241 725.589 101.438 724.853 102.178ZM724.414 99.9433L721.765 97.2947C721.526 97.0553 721.206 96.9246 720.869 96.9246C720.532 96.9246 720.212 97.0553 719.973 97.2947L717.324 99.9433C716.831 100.437 716.831 101.242 717.324 101.736L719.973 104.384C720.212 104.624 720.532 104.754 720.869 104.754C721.206 104.754 721.526 104.624 721.765 104.384L724.414 101.736C724.907 101.242 724.907 100.437 724.414 99.9433ZM723.369 93.017L726.018 90.3684C726.373 90.0129 726.848 89.8133 727.356 89.8133C727.861 89.8133 728.336 90.0092 728.695 90.3684L731.344 93.017C732.08 93.7536 732.08 94.9545 731.344 95.691L728.695 98.3397C728.34 98.6952 727.864 98.8948 727.356 98.8948C726.852 98.8948 726.377 98.6988 726.018 98.3397L723.369 95.691C722.629 94.9545 722.629 93.7536 723.369 93.017ZM723.808 95.2484L726.457 97.897C726.696 98.1365 727.015 98.2671 727.353 98.2671C727.69 98.2671 728.009 98.1365 728.249 97.897L730.897 95.2484C731.391 94.755 731.391 93.9495 730.897 93.456L728.249 90.8074C728.009 90.568 727.69 90.4374 727.353 90.4374C727.015 90.4374 726.696 90.568 726.457 90.8074L723.808 93.456C723.314 93.9495 723.314 94.755 723.808 95.2484ZM729.853 89.2038C729.116 88.4672 729.116 87.2663 729.853 86.5297L732.501 83.8811C732.857 83.5256 733.332 83.326 733.84 83.326C734.344 83.326 734.82 83.5219 735.179 83.8811L737.827 86.5297C738.564 87.2663 738.564 88.4672 737.827 89.2038L735.179 91.8524C734.823 92.2079 734.348 92.4075 733.84 92.4075C733.336 92.4075 732.86 92.2116 732.501 91.8524L729.853 89.2038ZM730.295 88.7647L732.944 91.4134C733.183 91.6528 733.503 91.7834 733.84 91.7834C734.177 91.7834 734.497 91.6528 734.736 91.4134L737.385 88.7647C737.878 88.2713 737.878 87.4658 737.385 86.9724L734.736 84.3238C734.497 84.0843 734.177 83.9537 733.84 83.9537C733.503 83.9537 733.183 84.0843 732.944 84.3238L730.295 86.9724C729.802 87.4658 729.802 88.2677 730.295 88.7647ZM731.34 108.662L728.692 111.311C728.336 111.666 727.861 111.866 727.353 111.866C726.848 111.866 726.373 111.67 726.014 111.311L723.365 108.662C722.629 107.925 722.629 106.725 723.365 105.988L726.014 103.339C726.369 102.984 726.845 102.784 727.353 102.784C727.857 102.784 728.332 102.98 728.692 103.339L731.34 105.988C732.077 106.725 732.077 107.925 731.34 108.662ZM730.897 106.431L728.249 103.782C728.009 103.543 727.69 103.412 727.353 103.412C727.015 103.412 726.696 103.543 726.457 103.782L723.808 106.431C723.314 106.924 723.314 107.73 723.808 108.223L726.457 110.872C726.696 111.111 727.015 111.242 727.353 111.242C727.69 111.242 728.009 111.111 728.249 110.872L730.897 108.223C731.395 107.73 731.395 106.924 730.897 106.431ZM735.179 96.8521L737.827 99.5007C738.564 100.237 738.564 101.438 737.827 102.175L735.179 104.823C734.823 105.179 734.348 105.378 733.84 105.378C733.336 105.378 732.86 105.183 732.501 104.823L729.853 102.175C729.116 101.438 729.116 100.237 729.853 99.5007L732.501 96.8521C732.857 96.4965 733.332 96.297 733.84 96.297C734.344 96.3006 734.82 96.4965 735.179 96.8521ZM737.385 99.9433L734.736 97.2947C734.497 97.0553 734.177 96.9246 733.84 96.9246C733.503 96.9246 733.183 97.0553 732.944 97.2947L730.295 99.9433C729.802 100.437 729.802 101.242 730.295 101.736L732.944 104.384C733.183 104.624 733.503 104.754 733.84 104.754C734.177 104.754 734.497 104.624 734.736 104.384L737.385 101.736C737.878 101.242 737.878 100.437 737.385 99.9433ZM736.34 93.017L738.988 90.3684C739.344 90.0129 739.819 89.8133 740.327 89.8133C740.832 89.8133 741.307 90.0092 741.666 90.3684L744.315 93.017C745.051 93.7536 745.051 94.9545 744.315 95.691L741.666 98.3397C741.311 98.6952 740.835 98.8948 740.327 98.8948C739.823 98.8948 739.348 98.6988 738.988 98.3397L736.34 95.691C735.603 94.9545 735.603 93.7536 736.34 93.017ZM736.782 95.2484L739.431 97.897C739.671 98.1365 739.99 98.2671 740.327 98.2671C740.665 98.2671 740.984 98.1365 741.223 97.897L743.872 95.2484C744.366 94.755 744.366 93.9495 743.872 93.456L741.223 90.8074C740.984 90.568 740.665 90.4374 740.327 90.4374C739.99 90.4374 739.671 90.568 739.431 90.8074L736.782 93.456C736.285 93.9495 736.285 94.755 736.782 95.2484ZM737.827 112.475C738.564 113.212 738.564 114.413 737.827 115.149L735.179 117.798C734.823 118.153 734.348 118.353 733.84 118.353C733.332 118.353 732.86 118.157 732.501 117.798L729.853 115.149C729.116 114.413 729.116 113.212 729.853 112.475L732.501 109.827C732.857 109.471 733.332 109.272 733.84 109.272C734.344 109.272 734.82 109.467 735.179 109.827L737.827 112.475ZM737.385 112.914L734.736 110.266C734.497 110.026 734.177 109.896 733.84 109.896C733.503 109.896 733.183 110.026 732.944 110.266L730.295 112.914C729.802 113.408 729.802 114.213 730.295 114.707L732.944 117.355C733.183 117.595 733.503 117.725 733.84 117.725C734.177 117.725 734.497 117.595 734.736 117.355L737.385 114.707C737.878 114.213 737.878 113.411 737.385 112.914ZM744.311 108.662L741.662 111.311C741.307 111.666 740.832 111.866 740.324 111.866C739.819 111.866 739.344 111.67 738.985 111.311L736.336 108.662C735.6 107.925 735.6 106.725 736.336 105.988L738.985 103.339C739.34 102.984 739.816 102.784 740.324 102.784C740.828 102.784 741.303 102.98 741.662 103.339L744.311 105.988C745.051 106.725 745.051 107.925 744.311 108.662ZM743.872 106.431L741.223 103.782C740.984 103.543 740.665 103.412 740.327 103.412C739.99 103.412 739.671 103.543 739.431 103.782L736.782 106.431C736.289 106.924 736.289 107.73 736.782 108.223L739.431 110.872C739.671 111.111 739.99 111.242 740.327 111.242C740.665 111.242 740.984 111.111 741.223 110.872L743.872 108.223C744.366 107.73 744.366 106.924 743.872 106.431ZM742.827 99.5007L745.476 96.8521C745.831 96.4965 746.307 96.297 746.815 96.297C747.319 96.297 747.794 96.4929 748.153 96.8521L750.802 99.5007C751.539 100.237 751.539 101.438 750.802 102.175L748.153 104.823C747.798 105.179 747.323 105.378 746.815 105.378C746.31 105.378 745.835 105.183 745.476 104.823L742.827 102.175C742.091 101.438 742.091 100.241 742.827 99.5007ZM743.266 101.736L745.915 104.384C746.154 104.624 746.474 104.754 746.811 104.754C747.148 104.754 747.468 104.624 747.707 104.384L750.356 101.736C750.849 101.242 750.849 100.437 750.356 99.9433L747.707 97.2947C747.468 97.0553 747.148 96.9246 746.811 96.9246C746.474 96.9246 746.154 97.0553 745.915 97.2947L743.266 99.9433C742.773 100.437 742.773 101.242 743.266 101.736Z"/>
</mask>







<defs>
<filter id="filter0_d_523_3210" x="0.307443" y="57.307" width="453.385" height="260.385" filterUnits="userSpaceOnUse" color-interpolation-filters="sRGB">
<feFlood flood-opacity="0" result="BackgroundImageFix"/>
<feColorMatrix in="SourceAlpha" type="matrix" values="0 0 0 0 0 0 0 0 0 0 0 0 0 0 0 0 0 0 127 0" result="hardAlpha"/>
<feOffset dy="4"/>
<feGaussianBlur stdDeviation="2.34628"/>
<feComposite in2="hardAlpha" operator="out"/>
<feColorMatrix type="matrix" values="0 0 0 0 0 0 0 0 0 0 0 0 0 0 0 0 0 0 0.25 0"/>
<feBlend mode="normal" in2="BackgroundImageFix" result="effect1_dropShadow_523_3210"/>
<feBlend mode="normal" in="SourceGraphic" in2="effect1_dropShadow_523_3210" result="shape"/>
</filter>
<filter id="filter1_d_523_3210" x="663.307" y="57.307" width="453.385" height="260.385" filterUnits="userSpaceOnUse" color-interpolation-filters="sRGB">
<feFlood flood-opacity="0" result="BackgroundImageFix"/>
<feColorMatrix in="SourceAlpha" type="matrix" values="0 0 0 0 0 0 0 0 0 0 0 0 0 0 0 0 0 0 127 0" result="hardAlpha"/>
<feOffset dy="4"/>
<feGaussianBlur stdDeviation="2.34628"/>
<feComposite in2="hardAlpha" operator="out"/>
<feColorMatrix type="matrix" values="0 0 0 0 0 0 0 0 0 0 0 0 0 0 0 0 0 0 0.25 0"/>
<feBlend mode="normal" in2="BackgroundImageFix" result="effect1_dropShadow_523_3210"/>
<feBlend mode="normal" in="SourceGraphic" in2="effect1_dropShadow_523_3210" result="shape"/>
</filter>
<filter id="filter2_d_523_3210" x="664.307" y="543.307" width="453.385" height="260.385" filterUnits="userSpaceOnUse" color-interpolation-filters="sRGB">
<feFlood flood-opacity="0" result="BackgroundImageFix"/>
<feColorMatrix in="SourceAlpha" type="matrix" values="0 0 0 0 0 0 0 0 0 0 0 0 0 0 0 0 0 0 127 0" result="hardAlpha"/>
<feOffset dy="4"/>
<feGaussianBlur stdDeviation="2.34628"/>
<feComposite in2="hardAlpha" operator="out"/>
<feColorMatrix type="matrix" values="0 0 0 0 0 0 0 0 0 0 0 0 0 0 0 0 0 0 0.25 0"/>
<feBlend mode="normal" in2="BackgroundImageFix" result="effect1_dropShadow_523_3210"/>
<feBlend mode="normal" in="SourceGraphic" in2="effect1_dropShadow_523_3210" result="shape"/>
</filter>
<linearGradient id="paint0_linear_523_3210" x1="493.032" y1="755.269" x2="480.113" y2="188.998" gradientUnits="userSpaceOnUse">
<stop stop-color="#092D66"/>
<stop offset="0.978" stop-color="#7195BA"/>
</linearGradient>
<linearGradient id="paint1_linear_523_3210" x1="667.306" y1="365.978" x2="358.948" y2="270.754" gradientUnits="userSpaceOnUse">
<stop stop-color="#94BFDD"/>
<stop offset="0.6868" stop-color="#94BFDD"/>
<stop offset="1" stop-color="#7195BA"/>
</linearGradient>
<linearGradient id="paint2_linear_523_3210" x1="513.745" y1="496.352" x2="591.653" y2="505.843" gradientUnits="userSpaceOnUse">
<stop stop-color="#092D66"/>
<stop offset="0.978" stop-color="#7195BA"/>
</linearGradient>
<linearGradient id="paint3_linear_523_3210" x1="574.761" y1="257.429" x2="739.859" y2="277.542" gradientUnits="userSpaceOnUse">
<stop offset="0.1593" stop-color="#18CFAE"/>
<stop offset="0.4015" stop-color="#63D5C5"/>
<stop offset="0.6196" stop-color="#A0D9D8"/>
<stop offset="0.7789" stop-color="#C6DCE4"/>
<stop offset="0.8626" stop-color="#D4DDE8"/>
</linearGradient>
<linearGradient id="paint4_linear_523_3210" x1="485.018" y1="310.651" x2="543.877" y2="152.977" gradientUnits="userSpaceOnUse">
<stop offset="0.1593" stop-color="#18CFAE"/>
<stop offset="0.4015" stop-color="#63D5C5"/>
<stop offset="0.6196" stop-color="#A0D9D8"/>
<stop offset="0.7789" stop-color="#C6DCE4"/>
<stop offset="0.8626" stop-color="#D4DDE8"/>
</linearGradient>
<linearGradient id="paint5_linear_523_3210" x1="736.352" y1="176.645" x2="974.902" y2="46.2826" gradientUnits="userSpaceOnUse">
<stop offset="0.1593" stop-color="#18CFAE"/>
<stop offset="0.4015" stop-color="#63D5C5"/>
<stop offset="0.6196" stop-color="#A0D9D8"/>
<stop offset="0.7789" stop-color="#C6DCE4"/>
<stop offset="0.8626" stop-color="#D4DDE8"/>
</linearGradient>
<linearGradient id="paint6_linear_523_3210" x1="566.425" y1="483.875" x2="798.953" y2="512.202" gradientUnits="userSpaceOnUse">
<stop stop-color="#092D66"/>
<stop offset="0.978" stop-color="#7195BA"/>
</linearGradient>
<linearGradient id="paint7_linear_523_3210" x1="738.843" y1="421.709" x2="932.217" y2="281.354" gradientUnits="userSpaceOnUse">
<stop stop-color="#092D66"/>
<stop offset="0.978" stop-color="#7195BA"/>
</linearGradient>
<linearGradient id="paint8_linear_523_3210" x1="628.888" y1="634.198" x2="618.942" y2="751.593" gradientUnits="userSpaceOnUse">
<stop stop-color="#092D66"/>
<stop offset="0.978" stop-color="#7195BA"/>
</linearGradient>
<linearGradient id="paint9_linear_523_3210" x1="258.7" y1="352.913" x2="319.502" y2="360.064" gradientUnits="userSpaceOnUse">
<stop stop-color="#092D66"/>
<stop offset="0.978" stop-color="#7195BA"/>
</linearGradient>
<linearGradient id="paint10_linear_523_3210" x1="343.771" y1="579.406" x2="267.162" y2="321.141" gradientUnits="userSpaceOnUse">
<stop stop-color="#092D66"/>
<stop offset="0.978" stop-color="#7195BA"/>
</linearGradient>
<linearGradient id="paint11_linear_523_3210" x1="519.866" y1="305.903" x2="544.148" y2="532.01" gradientUnits="userSpaceOnUse">
<stop stop-color="#4D575D"/>
<stop offset="0.4835" stop-color="#98A2AE"/>
<stop offset="0.8516" stop-color="#D4DDE8"/>
</linearGradient>
<linearGradient id="paint12_linear_523_3210" x1="386.895" y1="248.339" x2="577.438" y2="422.195" gradientUnits="userSpaceOnUse">
<stop stop-color="#4D575D"/>
<stop offset="0.4835" stop-color="#98A2AE"/>
<stop offset="0.8516" stop-color="#D4DDE8"/>
</linearGradient>
</defs>
</svg>