<svg width="80" height="68" viewBox="0 0 80 68" fill="none" xmlns="http://www.w3.org/2000/svg">
<path fill-rule="evenodd" clip-rule="evenodd" d="M0.94696 34.2551L17.8119 0.597656H62.3356L79.2005 34.2551L62.3356 67.9125H17.8119L0.94696 34.2551Z" fill="url(#paint0_linear_366_8407)"/>
<mask id="path-2-outside-1_366_8407" maskUnits="userSpaceOnUse" x="20.0042" y="4.51904" width="39" height="56" fill="black">
<rect fill="white" x="20.0042" y="4.51904" width="39" height="56"/>
<path d="M44.4851 10.7212C44.3311 10.5671 44.3311 10.3144 44.4851 10.1603L45.6216 9.02308C45.7756 8.86899 46.0281 8.86899 46.1821 9.02308C46.3361 9.17717 46.3361 9.42988 46.1821 9.58397L45.0457 10.7212C44.9687 10.7982 44.867 10.8383 44.7654 10.8383C44.6638 10.8352 44.5621 10.7982 44.4851 10.7212ZM26.2399 44.6182H36.0247C36.2434 44.6182 36.422 44.4395 36.422 44.2206C36.422 44.0018 36.2434 43.8231 36.0247 43.8231H26.2399C26.0213 43.8231 25.8426 44.0018 25.8426 44.2206C25.8426 44.4395 26.0213 44.6182 26.2399 44.6182ZM26.2399 48.2578H37.0934C37.3121 48.2578 37.4907 48.0791 37.4907 47.8603C37.4907 47.6415 37.3121 47.4627 37.0934 47.4627H26.2399C26.0213 47.4627 25.8426 47.6415 25.8426 47.8603C25.8426 48.0791 26.0213 48.2578 26.2399 48.2578ZM45.831 25.8745C45.9327 25.8745 46.0343 25.8345 46.1113 25.7574C46.2653 25.6033 46.2653 25.3506 46.1113 25.1965L44.9748 24.0593C44.8208 23.9052 44.5683 23.9052 44.4143 24.0593C44.2603 24.2134 44.2603 24.4661 44.4143 24.6202L45.5508 25.7574C45.6278 25.8375 45.7294 25.8745 45.831 25.8745ZM47.6081 17.8001H49.2158C49.4345 17.8001 49.6131 17.6214 49.6131 17.4026C49.6131 17.1838 49.4345 17.005 49.2158 17.005H47.6081C47.3894 17.005 47.2108 17.1838 47.2108 17.4026C47.2108 17.6245 47.3894 17.8001 47.6081 17.8001ZM37.8357 7.92287C38.0543 7.92287 38.233 7.74412 38.233 7.52531V5.9166C38.233 5.69779 38.0543 5.51904 37.8357 5.51904C37.617 5.51904 37.4384 5.69779 37.4384 5.9166V7.52531C37.4384 7.74412 37.6139 7.92287 37.8357 7.92287ZM37.0934 40.1865H26.2399C26.0213 40.1865 25.8426 40.3653 25.8426 40.5841C25.8426 40.8029 26.0213 40.9816 26.2399 40.9816H37.0934C37.3121 40.9816 37.4907 40.8029 37.4907 40.5841C37.4876 40.3653 37.3121 40.1865 37.0934 40.1865ZM39.0923 36.9444C39.0923 36.7256 38.9136 36.5469 38.695 36.5469H26.2399C26.0213 36.5469 25.8426 36.7256 25.8426 36.9444C25.8426 37.1633 26.0213 37.342 26.2399 37.342H38.695C38.9136 37.342 39.0923 37.1633 39.0923 36.9444ZM49.724 33.3079C49.724 33.0891 49.5454 32.9103 49.3267 32.9103H26.2399C26.0213 32.9103 25.8426 33.0891 25.8426 33.3079C25.8426 33.5267 26.0213 33.7054 26.2399 33.7054H49.3267C49.5454 33.7024 49.724 33.5267 49.724 33.3079ZM26.3539 16.9064C26.1352 16.9064 25.9566 17.0851 25.9566 17.304C25.9566 17.5228 26.1352 17.7015 26.3539 17.7015H27.9616C28.1803 17.7015 28.3589 17.5228 28.3589 17.304C28.3589 17.0851 28.1803 16.9064 27.9616 16.9064H26.3539ZM54.0543 44.6983C54.0543 48.0205 51.3532 50.7233 48.0331 50.7233C44.713 50.7233 42.012 48.0205 42.012 44.6983C42.012 41.3761 44.713 38.6734 48.0331 38.6734C51.3532 38.6734 54.0543 41.3761 54.0543 44.6983ZM53.2628 44.6983C53.2628 41.8137 50.919 39.4685 48.0362 39.4685C45.1535 39.4685 42.8066 41.8137 42.8066 44.6983C42.8066 47.5829 45.1535 49.9313 48.0362 49.9313C50.9159 49.9282 53.2628 47.5829 53.2628 44.6983ZM38.8828 51.3828H25.2883C23.3633 51.3828 21.7957 49.8142 21.7957 47.888V18.1114C21.7957 16.1853 23.3633 14.6166 25.2883 14.6166H27.6197C27.8384 14.6166 28.017 14.4379 28.017 14.219C28.017 14.0002 27.8384 13.8215 27.6197 13.8215H25.2883C22.926 13.8215 21.0042 15.7445 21.0042 18.1114V47.8911C21.0042 50.2549 22.926 52.1779 25.2883 52.1779H38.8828C39.1015 52.1779 39.2801 51.9992 39.2801 51.7804C39.2801 51.5616 39.1015 51.3828 38.8828 51.3828ZM57.9257 44.9295L56.1825 47.3456L56.1732 50.3257C56.1732 50.4983 56.0624 50.6493 55.8991 50.7017L53.5492 51.4722L54.1097 59.0227C54.119 59.1583 54.0604 59.2908 53.9496 59.3709C53.8387 59.451 53.697 59.4726 53.5708 59.4202L48.0331 57.266L42.4955 59.4202C42.4493 59.4387 42.4 59.448 42.3508 59.448C42.2676 59.448 42.1845 59.4202 42.1136 59.3709C42.0058 59.2908 41.9442 59.1583 41.9535 59.0227L42.514 51.4722L40.1641 50.7017C40.0008 50.6493 39.8899 50.4983 39.8899 50.3257L39.8838 47.3456L38.1406 44.9295C38.0389 44.7908 38.0389 44.6028 38.1406 44.4641L39.8838 42.048L39.893 39.0678C39.893 38.8952 40.0039 38.7442 40.1671 38.6918L43.0006 37.7642L44.7561 35.3542C44.8578 35.2155 45.0364 35.157 45.1996 35.2094L48.0362 36.1278L50.8728 35.2094C51.036 35.157 51.2146 35.2155 51.3163 35.3542L53.0718 37.7642L53.774 37.9954V18.1114C53.774 16.1853 52.2094 14.6166 50.2845 14.6166H47.95C47.7313 14.6166 47.5527 14.4379 47.5527 14.219C47.5527 14.0002 47.7313 13.8215 47.95 13.8215H50.2845C52.6437 13.8215 54.5655 15.7445 54.5655 18.1083V38.2542L55.9022 38.6918C56.0654 38.7442 56.1732 38.8952 56.1763 39.0678L56.1856 42.048L57.9288 44.4641C58.0243 44.6028 58.0243 44.7908 57.9257 44.9295ZM53.272 58.4556L52.7915 52.0053L51.3101 54.0394C51.2331 54.1441 51.113 54.2027 50.9898 54.2027C50.9498 54.2027 50.9067 54.1965 50.8666 54.1842L48.0301 53.2658L45.1935 54.1842C45.0303 54.2366 44.8516 54.178 44.75 54.0394L43.2686 52.0053L42.7881 58.4556L47.8822 56.4709C47.9746 56.4339 48.0763 56.4339 48.1686 56.4709L53.272 58.4556ZM57.1157 44.6983L55.4649 42.4116C55.4156 42.3438 55.391 42.2637 55.391 42.1805L55.3848 39.3575L52.7022 38.4792C52.6221 38.4545 52.5544 38.4022 52.5051 38.3344L50.8451 36.0538L48.1594 36.9229C48.0793 36.9475 47.9962 36.9475 47.9161 36.9229L45.2304 36.0538L43.5704 38.3344C43.5211 38.4022 43.4534 38.4515 43.3733 38.4792L40.6907 39.3575L40.6846 42.1805C40.6846 42.2637 40.6568 42.3438 40.6106 42.4116L38.9598 44.6983L40.6106 46.985C40.6599 47.0528 40.6846 47.133 40.6846 47.2162L40.6907 50.0391L43.3733 50.9175C43.4534 50.9421 43.5211 50.9945 43.5704 51.0623L45.2304 53.3429L47.9161 52.4738C47.9962 52.4491 48.0793 52.4491 48.1594 52.4738L50.8451 53.3429L52.5051 51.0623C52.5544 50.9945 52.6221 50.9452 52.7022 50.9175L55.3848 50.0391L55.391 47.2162C55.391 47.133 55.4187 47.0528 55.4649 46.985L57.1157 44.6983ZM36.77 20.6015C36.8439 20.6786 36.9456 20.7217 37.0534 20.7217C37.0565 20.7217 37.0595 20.7217 37.0657 20.7217C37.1766 20.7186 37.2813 20.6693 37.3521 20.5861L41.9565 15.3377C42.1013 15.1744 42.0859 14.9217 41.9196 14.7769C41.7563 14.632 41.5038 14.6505 41.359 14.8138L37.038 19.7417L34.5032 17.1499C34.3492 16.9927 34.0998 16.9896 33.9427 17.1437C33.7856 17.2978 33.7826 17.5474 33.9365 17.7046L36.77 20.6015ZM29.6648 25.8036C29.7664 25.8036 29.868 25.7636 29.945 25.6865L31.0815 24.5493C31.2355 24.3952 31.2355 24.1425 31.0815 23.9884C30.9275 23.8343 30.675 23.8343 30.521 23.9884L29.3845 25.1256C29.2305 25.2797 29.2305 25.5324 29.3845 25.6865C29.4615 25.7667 29.5631 25.8036 29.6648 25.8036ZM29.9173 17.6553C29.9173 15.4764 30.7889 13.4486 32.3689 11.9447C33.9489 10.4438 36.0216 9.67951 38.2022 9.79354C42.3569 10.0123 45.6955 13.578 45.6462 17.7477C45.6154 20.3642 44.3003 22.7742 42.1198 24.2165L41.935 25.4092H42.1229C42.3415 25.4092 42.5202 25.5879 42.5202 25.8067C42.5202 26.0255 42.3415 26.2043 42.1229 26.2043H41.8118L41.6147 27.474H41.7594C41.9781 27.474 42.1567 27.6527 42.1567 27.8715C42.1567 28.0904 41.9781 28.2691 41.7594 28.2691H41.4915L41.3498 29.169C41.2636 29.7268 40.7893 30.1336 40.2226 30.1336H39.7175L39.5573 30.8209C39.4372 31.3417 38.9783 31.7053 38.4455 31.7053H37.1181C36.5852 31.7053 36.1263 31.3417 36.0062 30.8209L35.8461 30.1336H35.341C34.7743 30.1336 34.3 29.7268 34.2137 29.169L34.0721 28.2691H33.8041C33.5854 28.2691 33.4068 28.0904 33.4068 27.8715C33.4068 27.6527 33.5854 27.474 33.8041 27.474H33.9489L33.7518 26.2043H33.4407C33.222 26.2043 33.0434 26.0255 33.0434 25.8067C33.0434 25.5879 33.222 25.4092 33.4407 25.4092H33.6286L33.4438 24.2165C31.2355 22.7557 29.9173 20.3118 29.9173 17.6553ZM38.9044 30.1367H36.6622L36.7793 30.6452C36.8162 30.8054 36.9548 30.9164 37.1181 30.9164H38.4455C38.6087 30.9164 38.7473 30.8054 38.7843 30.6452L38.9044 30.1367ZM40.6876 28.2691H34.879L34.9991 29.0457C35.0268 29.2152 35.1685 29.3385 35.341 29.3385H40.2226C40.395 29.3385 40.5398 29.2152 40.5675 29.0457L40.6876 28.2691ZM41.011 26.2074H34.5587L34.7558 27.4771H40.8108L41.011 26.2074ZM41.2974 24.3613H34.2723L34.4355 25.4122H41.1342L41.2974 24.3613ZM30.7119 17.6553C30.7119 20.0468 31.9007 22.2503 33.8965 23.5693H41.667C43.6382 22.2719 44.827 20.0992 44.8547 17.7416C44.8978 13.9941 41.898 10.7828 38.1621 10.5887C36.1972 10.487 34.3369 11.1742 32.914 12.521C31.4942 13.8739 30.7119 15.6952 30.7119 17.6553ZM30.5949 10.6503C30.6719 10.7273 30.7735 10.7674 30.8752 10.7674C30.9768 10.7674 31.0784 10.7273 31.1554 10.6503C31.3094 10.4962 31.3094 10.2435 31.1554 10.0894L30.0189 8.9522C29.865 8.79811 29.6124 8.79811 29.4584 8.9522C29.3044 9.10629 29.3044 9.359 29.4584 9.51309L30.5949 10.6503Z"/>
</mask>
<path d="M44.4851 10.7212C44.3311 10.5671 44.3311 10.3144 44.4851 10.1603L45.6216 9.02308C45.7756 8.86899 46.0281 8.86899 46.1821 9.02308C46.3361 9.17717 46.3361 9.42988 46.1821 9.58397L45.0457 10.7212C44.9687 10.7982 44.867 10.8383 44.7654 10.8383C44.6638 10.8352 44.5621 10.7982 44.4851 10.7212ZM26.2399 44.6182H36.0247C36.2434 44.6182 36.422 44.4395 36.422 44.2206C36.422 44.0018 36.2434 43.8231 36.0247 43.8231H26.2399C26.0213 43.8231 25.8426 44.0018 25.8426 44.2206C25.8426 44.4395 26.0213 44.6182 26.2399 44.6182ZM26.2399 48.2578H37.0934C37.3121 48.2578 37.4907 48.0791 37.4907 47.8603C37.4907 47.6415 37.3121 47.4627 37.0934 47.4627H26.2399C26.0213 47.4627 25.8426 47.6415 25.8426 47.8603C25.8426 48.0791 26.0213 48.2578 26.2399 48.2578ZM45.831 25.8745C45.9327 25.8745 46.0343 25.8345 46.1113 25.7574C46.2653 25.6033 46.2653 25.3506 46.1113 25.1965L44.9748 24.0593C44.8208 23.9052 44.5683 23.9052 44.4143 24.0593C44.2603 24.2134 44.2603 24.4661 44.4143 24.6202L45.5508 25.7574C45.6278 25.8375 45.7294 25.8745 45.831 25.8745ZM47.6081 17.8001H49.2158C49.4345 17.8001 49.6131 17.6214 49.6131 17.4026C49.6131 17.1838 49.4345 17.005 49.2158 17.005H47.6081C47.3894 17.005 47.2108 17.1838 47.2108 17.4026C47.2108 17.6245 47.3894 17.8001 47.6081 17.8001ZM37.8357 7.92287C38.0543 7.92287 38.233 7.74412 38.233 7.52531V5.9166C38.233 5.69779 38.0543 5.51904 37.8357 5.51904C37.617 5.51904 37.4384 5.69779 37.4384 5.9166V7.52531C37.4384 7.74412 37.6139 7.92287 37.8357 7.92287ZM37.0934 40.1865H26.2399C26.0213 40.1865 25.8426 40.3653 25.8426 40.5841C25.8426 40.8029 26.0213 40.9816 26.2399 40.9816H37.0934C37.3121 40.9816 37.4907 40.8029 37.4907 40.5841C37.4876 40.3653 37.3121 40.1865 37.0934 40.1865ZM39.0923 36.9444C39.0923 36.7256 38.9136 36.5469 38.695 36.5469H26.2399C26.0213 36.5469 25.8426 36.7256 25.8426 36.9444C25.8426 37.1633 26.0213 37.342 26.2399 37.342H38.695C38.9136 37.342 39.0923 37.1633 39.0923 36.9444ZM49.724 33.3079C49.724 33.0891 49.5454 32.9103 49.3267 32.9103H26.2399C26.0213 32.9103 25.8426 33.0891 25.8426 33.3079C25.8426 33.5267 26.0213 33.7054 26.2399 33.7054H49.3267C49.5454 33.7024 49.724 33.5267 49.724 33.3079ZM26.3539 16.9064C26.1352 16.9064 25.9566 17.0851 25.9566 17.304C25.9566 17.5228 26.1352 17.7015 26.3539 17.7015H27.9616C28.1803 17.7015 28.3589 17.5228 28.3589 17.304C28.3589 17.0851 28.1803 16.9064 27.9616 16.9064H26.3539ZM54.0543 44.6983C54.0543 48.0205 51.3532 50.7233 48.0331 50.7233C44.713 50.7233 42.012 48.0205 42.012 44.6983C42.012 41.3761 44.713 38.6734 48.0331 38.6734C51.3532 38.6734 54.0543 41.3761 54.0543 44.6983ZM53.2628 44.6983C53.2628 41.8137 50.919 39.4685 48.0362 39.4685C45.1535 39.4685 42.8066 41.8137 42.8066 44.6983C42.8066 47.5829 45.1535 49.9313 48.0362 49.9313C50.9159 49.9282 53.2628 47.5829 53.2628 44.6983ZM38.8828 51.3828H25.2883C23.3633 51.3828 21.7957 49.8142 21.7957 47.888V18.1114C21.7957 16.1853 23.3633 14.6166 25.2883 14.6166H27.6197C27.8384 14.6166 28.017 14.4379 28.017 14.219C28.017 14.0002 27.8384 13.8215 27.6197 13.8215H25.2883C22.926 13.8215 21.0042 15.7445 21.0042 18.1114V47.8911C21.0042 50.2549 22.926 52.1779 25.2883 52.1779H38.8828C39.1015 52.1779 39.2801 51.9992 39.2801 51.7804C39.2801 51.5616 39.1015 51.3828 38.8828 51.3828ZM57.9257 44.9295L56.1825 47.3456L56.1732 50.3257C56.1732 50.4983 56.0624 50.6493 55.8991 50.7017L53.5492 51.4722L54.1097 59.0227C54.119 59.1583 54.0604 59.2908 53.9496 59.3709C53.8387 59.451 53.697 59.4726 53.5708 59.4202L48.0331 57.266L42.4955 59.4202C42.4493 59.4387 42.4 59.448 42.3508 59.448C42.2676 59.448 42.1845 59.4202 42.1136 59.3709C42.0058 59.2908 41.9442 59.1583 41.9535 59.0227L42.514 51.4722L40.1641 50.7017C40.0008 50.6493 39.8899 50.4983 39.8899 50.3257L39.8838 47.3456L38.1406 44.9295C38.0389 44.7908 38.0389 44.6028 38.1406 44.4641L39.8838 42.048L39.893 39.0678C39.893 38.8952 40.0039 38.7442 40.1671 38.6918L43.0006 37.7642L44.7561 35.3542C44.8578 35.2155 45.0364 35.157 45.1996 35.2094L48.0362 36.1278L50.8728 35.2094C51.036 35.157 51.2146 35.2155 51.3163 35.3542L53.0718 37.7642L53.774 37.9954V18.1114C53.774 16.1853 52.2094 14.6166 50.2845 14.6166H47.95C47.7313 14.6166 47.5527 14.4379 47.5527 14.219C47.5527 14.0002 47.7313 13.8215 47.95 13.8215H50.2845C52.6437 13.8215 54.5655 15.7445 54.5655 18.1083V38.2542L55.9022 38.6918C56.0654 38.7442 56.1732 38.8952 56.1763 39.0678L56.1856 42.048L57.9288 44.4641C58.0243 44.6028 58.0243 44.7908 57.9257 44.9295ZM53.272 58.4556L52.7915 52.0053L51.3101 54.0394C51.2331 54.1441 51.113 54.2027 50.9898 54.2027C50.9498 54.2027 50.9067 54.1965 50.8666 54.1842L48.0301 53.2658L45.1935 54.1842C45.0303 54.2366 44.8516 54.178 44.75 54.0394L43.2686 52.0053L42.7881 58.4556L47.8822 56.4709C47.9746 56.4339 48.0763 56.4339 48.1686 56.4709L53.272 58.4556ZM57.1157 44.6983L55.4649 42.4116C55.4156 42.3438 55.391 42.2637 55.391 42.1805L55.3848 39.3575L52.7022 38.4792C52.6221 38.4545 52.5544 38.4022 52.5051 38.3344L50.8451 36.0538L48.1594 36.9229C48.0793 36.9475 47.9962 36.9475 47.9161 36.9229L45.2304 36.0538L43.5704 38.3344C43.5211 38.4022 43.4534 38.4515 43.3733 38.4792L40.6907 39.3575L40.6846 42.1805C40.6846 42.2637 40.6568 42.3438 40.6106 42.4116L38.9598 44.6983L40.6106 46.985C40.6599 47.0528 40.6846 47.133 40.6846 47.2162L40.6907 50.0391L43.3733 50.9175C43.4534 50.9421 43.5211 50.9945 43.5704 51.0623L45.2304 53.3429L47.9161 52.4738C47.9962 52.4491 48.0793 52.4491 48.1594 52.4738L50.8451 53.3429L52.5051 51.0623C52.5544 50.9945 52.6221 50.9452 52.7022 50.9175L55.3848 50.0391L55.391 47.2162C55.391 47.133 55.4187 47.0528 55.4649 46.985L57.1157 44.6983ZM36.77 20.6015C36.8439 20.6786 36.9456 20.7217 37.0534 20.7217C37.0565 20.7217 37.0595 20.7217 37.0657 20.7217C37.1766 20.7186 37.2813 20.6693 37.3521 20.5861L41.9565 15.3377C42.1013 15.1744 42.0859 14.9217 41.9196 14.7769C41.7563 14.632 41.5038 14.6505 41.359 14.8138L37.038 19.7417L34.5032 17.1499C34.3492 16.9927 34.0998 16.9896 33.9427 17.1437C33.7856 17.2978 33.7826 17.5474 33.9365 17.7046L36.77 20.6015ZM29.6648 25.8036C29.7664 25.8036 29.868 25.7636 29.945 25.6865L31.0815 24.5493C31.2355 24.3952 31.2355 24.1425 31.0815 23.9884C30.9275 23.8343 30.675 23.8343 30.521 23.9884L29.3845 25.1256C29.2305 25.2797 29.2305 25.5324 29.3845 25.6865C29.4615 25.7667 29.5631 25.8036 29.6648 25.8036ZM29.9173 17.6553C29.9173 15.4764 30.7889 13.4486 32.3689 11.9447C33.9489 10.4438 36.0216 9.67951 38.2022 9.79354C42.3569 10.0123 45.6955 13.578 45.6462 17.7477C45.6154 20.3642 44.3003 22.7742 42.1198 24.2165L41.935 25.4092H42.1229C42.3415 25.4092 42.5202 25.5879 42.5202 25.8067C42.5202 26.0255 42.3415 26.2043 42.1229 26.2043H41.8118L41.6147 27.474H41.7594C41.9781 27.474 42.1567 27.6527 42.1567 27.8715C42.1567 28.0904 41.9781 28.2691 41.7594 28.2691H41.4915L41.3498 29.169C41.2636 29.7268 40.7893 30.1336 40.2226 30.1336H39.7175L39.5573 30.8209C39.4372 31.3417 38.9783 31.7053 38.4455 31.7053H37.1181C36.5852 31.7053 36.1263 31.3417 36.0062 30.8209L35.8461 30.1336H35.341C34.7743 30.1336 34.3 29.7268 34.2137 29.169L34.0721 28.2691H33.8041C33.5854 28.2691 33.4068 28.0904 33.4068 27.8715C33.4068 27.6527 33.5854 27.474 33.8041 27.474H33.9489L33.7518 26.2043H33.4407C33.222 26.2043 33.0434 26.0255 33.0434 25.8067C33.0434 25.5879 33.222 25.4092 33.4407 25.4092H33.6286L33.4438 24.2165C31.2355 22.7557 29.9173 20.3118 29.9173 17.6553ZM38.9044 30.1367H36.6622L36.7793 30.6452C36.8162 30.8054 36.9548 30.9164 37.1181 30.9164H38.4455C38.6087 30.9164 38.7473 30.8054 38.7843 30.6452L38.9044 30.1367ZM40.6876 28.2691H34.879L34.9991 29.0457C35.0268 29.2152 35.1685 29.3385 35.341 29.3385H40.2226C40.395 29.3385 40.5398 29.2152 40.5675 29.0457L40.6876 28.2691ZM41.011 26.2074H34.5587L34.7558 27.4771H40.8108L41.011 26.2074ZM41.2974 24.3613H34.2723L34.4355 25.4122H41.1342L41.2974 24.3613ZM30.7119 17.6553C30.7119 20.0468 31.9007 22.2503 33.8965 23.5693H41.667C43.6382 22.2719 44.827 20.0992 44.8547 17.7416C44.8978 13.9941 41.898 10.7828 38.1621 10.5887C36.1972 10.487 34.3369 11.1742 32.914 12.521C31.4942 13.8739 30.7119 15.6952 30.7119 17.6553ZM30.5949 10.6503C30.6719 10.7273 30.7735 10.7674 30.8752 10.7674C30.9768 10.7674 31.0784 10.7273 31.1554 10.6503C31.3094 10.4962 31.3094 10.2435 31.1554 10.0894L30.0189 8.9522C29.865 8.79811 29.6124 8.79811 29.4584 8.9522C29.3044 9.10629 29.3044 9.359 29.4584 9.51309L30.5949 10.6503Z" fill="white"/>
<path d="M44.4851 10.7212C44.3311 10.5671 44.3311 10.3144 44.4851 10.1603L45.6216 9.02308C45.7756 8.86899 46.0281 8.86899 46.1821 9.02308C46.3361 9.17717 46.3361 9.42988 46.1821 9.58397L45.0457 10.7212C44.9687 10.7982 44.867 10.8383 44.7654 10.8383C44.6638 10.8352 44.5621 10.7982 44.4851 10.7212ZM26.2399 44.6182H36.0247C36.2434 44.6182 36.422 44.4395 36.422 44.2206C36.422 44.0018 36.2434 43.8231 36.0247 43.8231H26.2399C26.0213 43.8231 25.8426 44.0018 25.8426 44.2206C25.8426 44.4395 26.0213 44.6182 26.2399 44.6182ZM26.2399 48.2578H37.0934C37.3121 48.2578 37.4907 48.0791 37.4907 47.8603C37.4907 47.6415 37.3121 47.4627 37.0934 47.4627H26.2399C26.0213 47.4627 25.8426 47.6415 25.8426 47.8603C25.8426 48.0791 26.0213 48.2578 26.2399 48.2578ZM45.831 25.8745C45.9327 25.8745 46.0343 25.8345 46.1113 25.7574C46.2653 25.6033 46.2653 25.3506 46.1113 25.1965L44.9748 24.0593C44.8208 23.9052 44.5683 23.9052 44.4143 24.0593C44.2603 24.2134 44.2603 24.4661 44.4143 24.6202L45.5508 25.7574C45.6278 25.8375 45.7294 25.8745 45.831 25.8745ZM47.6081 17.8001H49.2158C49.4345 17.8001 49.6131 17.6214 49.6131 17.4026C49.6131 17.1838 49.4345 17.005 49.2158 17.005H47.6081C47.3894 17.005 47.2108 17.1838 47.2108 17.4026C47.2108 17.6245 47.3894 17.8001 47.6081 17.8001ZM37.8357 7.92287C38.0543 7.92287 38.233 7.74412 38.233 7.52531V5.9166C38.233 5.69779 38.0543 5.51904 37.8357 5.51904C37.617 5.51904 37.4384 5.69779 37.4384 5.9166V7.52531C37.4384 7.74412 37.6139 7.92287 37.8357 7.92287ZM37.0934 40.1865H26.2399C26.0213 40.1865 25.8426 40.3653 25.8426 40.5841C25.8426 40.8029 26.0213 40.9816 26.2399 40.9816H37.0934C37.3121 40.9816 37.4907 40.8029 37.4907 40.5841C37.4876 40.3653 37.3121 40.1865 37.0934 40.1865ZM39.0923 36.9444C39.0923 36.7256 38.9136 36.5469 38.695 36.5469H26.2399C26.0213 36.5469 25.8426 36.7256 25.8426 36.9444C25.8426 37.1633 26.0213 37.342 26.2399 37.342H38.695C38.9136 37.342 39.0923 37.1633 39.0923 36.9444ZM49.724 33.3079C49.724 33.0891 49.5454 32.9103 49.3267 32.9103H26.2399C26.0213 32.9103 25.8426 33.0891 25.8426 33.3079C25.8426 33.5267 26.0213 33.7054 26.2399 33.7054H49.3267C49.5454 33.7024 49.724 33.5267 49.724 33.3079ZM26.3539 16.9064C26.1352 16.9064 25.9566 17.0851 25.9566 17.304C25.9566 17.5228 26.1352 17.7015 26.3539 17.7015H27.9616C28.1803 17.7015 28.3589 17.5228 28.3589 17.304C28.3589 17.0851 28.1803 16.9064 27.9616 16.9064H26.3539ZM54.0543 44.6983C54.0543 48.0205 51.3532 50.7233 48.0331 50.7233C44.713 50.7233 42.012 48.0205 42.012 44.6983C42.012 41.3761 44.713 38.6734 48.0331 38.6734C51.3532 38.6734 54.0543 41.3761 54.0543 44.6983ZM53.2628 44.6983C53.2628 41.8137 50.919 39.4685 48.0362 39.4685C45.1535 39.4685 42.8066 41.8137 42.8066 44.6983C42.8066 47.5829 45.1535 49.9313 48.0362 49.9313C50.9159 49.9282 53.2628 47.5829 53.2628 44.6983ZM38.8828 51.3828H25.2883C23.3633 51.3828 21.7957 49.8142 21.7957 47.888V18.1114C21.7957 16.1853 23.3633 14.6166 25.2883 14.6166H27.6197C27.8384 14.6166 28.017 14.4379 28.017 14.219C28.017 14.0002 27.8384 13.8215 27.6197 13.8215H25.2883C22.926 13.8215 21.0042 15.7445 21.0042 18.1114V47.8911C21.0042 50.2549 22.926 52.1779 25.2883 52.1779H38.8828C39.1015 52.1779 39.2801 51.9992 39.2801 51.7804C39.2801 51.5616 39.1015 51.3828 38.8828 51.3828ZM57.9257 44.9295L56.1825 47.3456L56.1732 50.3257C56.1732 50.4983 56.0624 50.6493 55.8991 50.7017L53.5492 51.4722L54.1097 59.0227C54.119 59.1583 54.0604 59.2908 53.9496 59.3709C53.8387 59.451 53.697 59.4726 53.5708 59.4202L48.0331 57.266L42.4955 59.4202C42.4493 59.4387 42.4 59.448 42.3508 59.448C42.2676 59.448 42.1845 59.4202 42.1136 59.3709C42.0058 59.2908 41.9442 59.1583 41.9535 59.0227L42.514 51.4722L40.1641 50.7017C40.0008 50.6493 39.8899 50.4983 39.8899 50.3257L39.8838 47.3456L38.1406 44.9295C38.0389 44.7908 38.0389 44.6028 38.1406 44.4641L39.8838 42.048L39.893 39.0678C39.893 38.8952 40.0039 38.7442 40.1671 38.6918L43.0006 37.7642L44.7561 35.3542C44.8578 35.2155 45.0364 35.157 45.1996 35.2094L48.0362 36.1278L50.8728 35.2094C51.036 35.157 51.2146 35.2155 51.3163 35.3542L53.0718 37.7642L53.774 37.9954V18.1114C53.774 16.1853 52.2094 14.6166 50.2845 14.6166H47.95C47.7313 14.6166 47.5527 14.4379 47.5527 14.219C47.5527 14.0002 47.7313 13.8215 47.95 13.8215H50.2845C52.6437 13.8215 54.5655 15.7445 54.5655 18.1083V38.2542L55.9022 38.6918C56.0654 38.7442 56.1732 38.8952 56.1763 39.0678L56.1856 42.048L57.9288 44.4641C58.0243 44.6028 58.0243 44.7908 57.9257 44.9295ZM53.272 58.4556L52.7915 52.0053L51.3101 54.0394C51.2331 54.1441 51.113 54.2027 50.9898 54.2027C50.9498 54.2027 50.9067 54.1965 50.8666 54.1842L48.0301 53.2658L45.1935 54.1842C45.0303 54.2366 44.8516 54.178 44.75 54.0394L43.2686 52.0053L42.7881 58.4556L47.8822 56.4709C47.9746 56.4339 48.0763 56.4339 48.1686 56.4709L53.272 58.4556ZM57.1157 44.6983L55.4649 42.4116C55.4156 42.3438 55.391 42.2637 55.391 42.1805L55.3848 39.3575L52.7022 38.4792C52.6221 38.4545 52.5544 38.4022 52.5051 38.3344L50.8451 36.0538L48.1594 36.9229C48.0793 36.9475 47.9962 36.9475 47.9161 36.9229L45.2304 36.0538L43.5704 38.3344C43.5211 38.4022 43.4534 38.4515 43.3733 38.4792L40.6907 39.3575L40.6846 42.1805C40.6846 42.2637 40.6568 42.3438 40.6106 42.4116L38.9598 44.6983L40.6106 46.985C40.6599 47.0528 40.6846 47.133 40.6846 47.2162L40.6907 50.0391L43.3733 50.9175C43.4534 50.9421 43.5211 50.9945 43.5704 51.0623L45.2304 53.3429L47.9161 52.4738C47.9962 52.4491 48.0793 52.4491 48.1594 52.4738L50.8451 53.3429L52.5051 51.0623C52.5544 50.9945 52.6221 50.9452 52.7022 50.9175L55.3848 50.0391L55.391 47.2162C55.391 47.133 55.4187 47.0528 55.4649 46.985L57.1157 44.6983ZM36.77 20.6015C36.8439 20.6786 36.9456 20.7217 37.0534 20.7217C37.0565 20.7217 37.0595 20.7217 37.0657 20.7217C37.1766 20.7186 37.2813 20.6693 37.3521 20.5861L41.9565 15.3377C42.1013 15.1744 42.0859 14.9217 41.9196 14.7769C41.7563 14.632 41.5038 14.6505 41.359 14.8138L37.038 19.7417L34.5032 17.1499C34.3492 16.9927 34.0998 16.9896 33.9427 17.1437C33.7856 17.2978 33.7826 17.5474 33.9365 17.7046L36.77 20.6015ZM29.6648 25.8036C29.7664 25.8036 29.868 25.7636 29.945 25.6865L31.0815 24.5493C31.2355 24.3952 31.2355 24.1425 31.0815 23.9884C30.9275 23.8343 30.675 23.8343 30.521 23.9884L29.3845 25.1256C29.2305 25.2797 29.2305 25.5324 29.3845 25.6865C29.4615 25.7667 29.5631 25.8036 29.6648 25.8036ZM29.9173 17.6553C29.9173 15.4764 30.7889 13.4486 32.3689 11.9447C33.9489 10.4438 36.0216 9.67951 38.2022 9.79354C42.3569 10.0123 45.6955 13.578 45.6462 17.7477C45.6154 20.3642 44.3003 22.7742 42.1198 24.2165L41.935 25.4092H42.1229C42.3415 25.4092 42.5202 25.5879 42.5202 25.8067C42.5202 26.0255 42.3415 26.2043 42.1229 26.2043H41.8118L41.6147 27.474H41.7594C41.9781 27.474 42.1567 27.6527 42.1567 27.8715C42.1567 28.0904 41.9781 28.2691 41.7594 28.2691H41.4915L41.3498 29.169C41.2636 29.7268 40.7893 30.1336 40.2226 30.1336H39.7175L39.5573 30.8209C39.4372 31.3417 38.9783 31.7053 38.4455 31.7053H37.1181C36.5852 31.7053 36.1263 31.3417 36.0062 30.8209L35.8461 30.1336H35.341C34.7743 30.1336 34.3 29.7268 34.2137 29.169L34.0721 28.2691H33.8041C33.5854 28.2691 33.4068 28.0904 33.4068 27.8715C33.4068 27.6527 33.5854 27.474 33.8041 27.474H33.9489L33.7518 26.2043H33.4407C33.222 26.2043 33.0434 26.0255 33.0434 25.8067C33.0434 25.5879 33.222 25.4092 33.4407 25.4092H33.6286L33.4438 24.2165C31.2355 22.7557 29.9173 20.3118 29.9173 17.6553ZM38.9044 30.1367H36.6622L36.7793 30.6452C36.8162 30.8054 36.9548 30.9164 37.1181 30.9164H38.4455C38.6087 30.9164 38.7473 30.8054 38.7843 30.6452L38.9044 30.1367ZM40.6876 28.2691H34.879L34.9991 29.0457C35.0268 29.2152 35.1685 29.3385 35.341 29.3385H40.2226C40.395 29.3385 40.5398 29.2152 40.5675 29.0457L40.6876 28.2691ZM41.011 26.2074H34.5587L34.7558 27.4771H40.8108L41.011 26.2074ZM41.2974 24.3613H34.2723L34.4355 25.4122H41.1342L41.2974 24.3613ZM30.7119 17.6553C30.7119 20.0468 31.9007 22.2503 33.8965 23.5693H41.667C43.6382 22.2719 44.827 20.0992 44.8547 17.7416C44.8978 13.9941 41.898 10.7828 38.1621 10.5887C36.1972 10.487 34.3369 11.1742 32.914 12.521C31.4942 13.8739 30.7119 15.6952 30.7119 17.6553ZM30.5949 10.6503C30.6719 10.7273 30.7735 10.7674 30.8752 10.7674C30.9768 10.7674 31.0784 10.7273 31.1554 10.6503C31.3094 10.4962 31.3094 10.2435 31.1554 10.0894L30.0189 8.9522C29.865 8.79811 29.6124 8.79811 29.4584 8.9522C29.3044 9.10629 29.3044 9.359 29.4584 9.51309L30.5949 10.6503Z" stroke="white" stroke-width="0.6" mask="url(#path-2-outside-1_366_8407)"/>
<defs>
<linearGradient id="paint0_linear_366_8407" x1="10.5045" y1="42.6692" x2="66.6677" y2="42.667" gradientUnits="userSpaceOnUse">
<stop stop-color="#21A497"/>
<stop offset="1" stop-color="#107A6A"/>
</linearGradient>
</defs>
</svg>
