<svg width="588" height="357" viewBox="0 0 588 357" fill="none" xmlns="http://www.w3.org/2000/svg">
<path d="M83.867 91.841C78.025 89.3857 72.31 86.9303 66.722 84.475C61.2187 81.935 55.5883 79.522 49.831 77.236C44.0737 75.0347 38.3587 72.791 32.686 70.505C27.0133 68.219 21.256 66.1023 15.414 64.155C14.2287 69.235 13.763 74.188 14.017 79.014C14.271 83.7553 14.4827 88.539 14.652 93.365C13.128 94.127 11.9003 94.635 10.969 94.889C10.0377 95.143 9.27567 95.1007 8.683 94.762C8.175 94.4233 7.75167 93.746 7.413 92.73C7.159 91.714 6.905 90.317 6.651 88.539C4.95767 77.7863 4.40733 67.203 5 56.789C5.508 46.375 7.11667 35.9187 9.826 25.42C10.6727 22.0333 11.5617 18.689 12.493 15.387C13.509 12.0003 14.5673 8.69833 15.668 5.481C16.0913 4.12633 16.4723 3.06799 16.811 2.30599C17.1497 1.45933 17.5307 0.908995 17.954 0.654998C18.462 0.316331 19.097 0.18933 19.859 0.273996C20.621 0.358661 21.5947 0.527995 22.78 0.781997C23.6267 0.951328 24.3887 1.20533 25.066 1.54399C25.7433 1.798 26.463 2.09433 27.225 2.433C25.3623 9.88366 23.4573 17.2497 21.51 24.531C19.6473 31.7277 18.081 39.2207 16.811 47.01C18.5043 45.8247 19.732 44.6393 20.494 43.454C21.256 42.184 21.764 40.7023 22.018 39.009C22.9493 34.2677 23.923 29.611 24.939 25.039C25.955 20.3823 26.9287 15.7257 27.86 11.069C27.9447 10.1377 28.4103 9.37566 29.257 8.783C28.3257 13.6937 27.4367 18.6043 26.59 23.515C25.7433 28.341 24.8543 33.2093 23.923 38.12C24.0077 38.2047 24.0923 38.2893 24.177 38.374C24.3463 38.374 24.4733 38.4163 24.558 38.501C24.9813 38.247 25.3623 37.993 25.701 37.739C26.1243 37.485 26.5053 37.1463 26.844 36.723C30.654 32.9977 34.591 29.611 38.655 26.563C42.8037 23.515 47.1217 20.6363 51.609 17.927C51.7783 17.8423 51.9053 17.7577 51.99 17.673C52.0747 17.5883 52.1593 17.546 52.244 17.546C52.8367 17.2073 53.4293 16.911 54.022 16.657C54.6993 16.403 55.292 16.6147 55.8 17.292C56.054 17.8 56.1387 18.3927 56.054 19.07C56.054 19.7473 56.0963 20.4247 56.181 21.102C56.689 21.102 57.197 20.8903 57.705 20.467C58.2977 19.959 58.8903 19.5357 59.483 19.197C60.0757 18.7737 60.6683 18.6043 61.261 18.689C61.9383 18.7737 62.658 19.3663 63.42 20.467C59.9487 23.4303 56.435 26.3513 52.879 29.23C49.323 32.1087 45.767 35.0297 42.211 37.993C38.7397 40.9563 35.2683 44.0467 31.797 47.264C28.4103 50.4813 25.1507 53.9527 22.018 57.678C22.9493 58.1013 23.7113 58.5247 24.304 58.948C24.8967 59.2867 25.4893 59.583 26.082 59.837C30.2307 61.9537 34.337 64.028 38.401 66.06C42.5497 68.092 46.656 70.0817 50.72 72.029C52.9213 73.045 55.1227 74.0187 57.324 74.95C59.5253 75.8813 61.7267 76.8127 63.928 77.744C66.468 78.6753 69.0503 79.5643 71.675 80.411C74.3843 81.2577 76.9667 82.1467 79.422 83.078C81.2847 83.6707 82.5547 84.602 83.232 85.872C83.9093 87.142 84.121 89.1317 83.867 91.841ZM86.0796 66.822C84.9789 68.4307 83.9629 69.9547 83.0316 71.394C82.1002 72.8333 81.1689 74.2727 80.2376 75.712C79.3062 77.236 78.0786 78.3367 76.5546 79.014C75.1152 79.6067 73.5489 79.9877 71.8556 80.157C69.6542 80.411 67.9186 79.649 66.6486 77.871C66.3099 77.4477 66.0136 77.0243 65.7596 76.601C65.5056 76.1777 65.2939 75.712 65.1246 75.204C63.7699 70.8013 63.2196 66.4833 63.4736 62.25C63.6429 58.0167 65.1246 53.9103 67.9186 49.931C69.1039 48.153 70.5856 46.756 72.3636 45.74C74.2262 44.6393 76.1736 43.9197 78.2056 43.581C80.2376 43.1577 82.3119 43.1153 84.4286 43.454C86.5452 43.7927 88.4502 44.5547 90.1436 45.74C91.2442 46.4173 92.3872 46.756 93.5726 46.756C94.5039 46.8407 95.2236 46.9253 95.7316 47.01C96.2396 47.0947 96.5782 47.264 96.7476 47.518C97.0016 47.772 97.0862 48.153 97.0016 48.661C96.9169 49.169 96.7476 49.8887 96.4936 50.82C96.0702 52.7673 95.6469 54.757 95.2236 56.789C94.8849 58.7363 94.5039 60.726 94.0806 62.758C93.9959 63.1813 93.9536 63.647 93.9536 64.155C94.0382 64.5783 94.0806 65.171 94.0806 65.933C94.6732 65.5097 95.1812 65.171 95.6046 64.917C96.0279 64.663 96.3666 64.3667 96.6206 64.028C97.4672 63.0967 98.1869 62.3347 98.7796 61.742C99.4569 61.0647 100.092 60.472 100.685 59.964C101.277 59.3713 101.87 58.7787 102.463 58.186C103.055 57.5933 103.775 56.8313 104.622 55.9C105.468 54.884 106.146 54.3337 106.654 54.249C107.246 54.1643 108.432 54.3337 110.21 54.757C109.956 55.1803 109.702 55.6037 109.448 56.027C109.278 56.3657 109.067 56.7043 108.813 57.043C107.881 58.059 107.077 58.948 106.4 59.71C105.807 60.472 105.214 61.234 104.622 61.996C104.029 62.6733 103.394 63.393 102.717 64.155C102.124 64.917 101.362 65.806 100.431 66.822C99.4146 68.092 98.3139 69.1503 97.1286 69.997C95.1812 71.4363 93.1916 71.8597 91.1596 71.267C89.1276 70.6743 87.4342 69.1927 86.0796 66.822ZM73.3796 72.918C73.5489 73.0027 73.7182 73.0873 73.8876 73.172C74.1416 73.2567 74.3532 73.3413 74.5226 73.426C76.8932 69.87 79.2216 66.3563 81.5076 62.885C83.7936 59.4137 86.0372 55.9423 88.2386 52.471C87.5612 51.7937 86.9262 51.1587 86.3336 50.566C85.8256 49.9733 85.3176 49.423 84.8096 48.915C83.6242 47.7297 82.6929 47.137 82.0156 47.137C81.3382 47.0523 80.4069 47.6027 79.2216 48.788C78.6289 49.296 78.0786 49.8463 77.5706 50.439C75.0306 53.9103 73.5066 57.5087 72.9986 61.234C72.5752 64.9593 72.7022 68.854 73.3796 72.918ZM117.518 59.583C119.381 62.5463 121.032 64.3667 122.471 65.044C123.91 65.7213 125.223 65.7213 126.408 65.044C127.678 64.3667 128.906 63.1813 130.091 61.488C131.276 59.71 132.631 57.805 134.155 55.773C134.578 55.1803 135.044 54.757 135.552 54.503C136.145 54.1643 136.568 54.0373 136.822 54.122C137.161 54.2067 137.33 54.503 137.33 55.011C137.415 55.4343 137.161 56.154 136.568 57.17C135.044 59.7947 133.52 62.3347 131.996 64.79C130.557 67.1607 128.948 68.9387 127.17 70.124C125.392 71.3093 123.36 71.648 121.074 71.14C118.788 70.5473 116.079 68.6 112.946 65.298C112.692 65.806 112.523 66.695 112.438 67.965C112.438 69.1503 112.48 70.4627 112.565 71.902C112.65 73.2567 112.734 74.569 112.819 75.839C112.988 77.0243 113.073 77.871 113.073 78.379C113.073 79.5643 112.819 80.665 112.311 81.681C111.888 82.6123 111.337 83.2473 110.66 83.586C109.983 83.9247 109.263 83.84 108.501 83.332C107.739 82.7393 107.062 81.427 106.469 79.395C105.538 76.601 104.903 73.2567 104.564 69.362C104.225 65.4673 104.141 61.4457 104.31 57.297C104.395 53.1483 104.649 49.1267 105.072 45.232C105.411 41.2527 105.792 37.866 106.215 35.072C106.638 32.6167 107.062 30.1613 107.485 27.706C107.993 25.166 108.543 22.6683 109.136 20.213C109.305 19.451 109.559 18.689 109.898 17.927C110.237 17.165 110.575 16.403 110.914 15.641C111.676 13.9477 112.48 12.9317 113.327 12.593C114.258 12.2543 115.698 12.1697 117.645 12.339C117.222 15.3023 116.756 18.5197 116.248 21.991C115.74 25.4623 115.232 29.0183 114.724 32.659C114.301 36.2997 113.962 39.9403 113.708 43.581C113.454 47.137 113.369 50.4813 113.454 53.614C113.962 52.7673 114.597 51.836 115.359 50.82C116.206 49.7193 117.095 48.661 118.026 47.645C118.957 46.629 119.889 45.6977 120.82 44.851C121.836 43.9197 122.81 43.2 123.741 42.692C125.18 41.8453 126.62 41.4643 128.059 41.549C128.99 41.4643 129.625 41.676 129.964 42.184C130.387 42.692 130.303 43.327 129.71 44.089C127.763 46.629 125.604 49.1267 123.233 51.582C120.862 54.0373 118.957 56.7043 117.518 59.583Z" fill="white"/>
<g filter="url(#filter0_d_186_9451)">
<path d="M5.916 129.252V198H19.278V140.88H32.946V198H46.308V129.252H5.916ZM58.1113 198H71.4733V172.398C72.3913 172.5 73.2073 172.5 74.1253 172.5C79.7353 172.5 86.5693 170.46 90.8533 165.87C94.4233 162.096 96.6673 156.792 96.6673 149.346C96.6673 143.532 94.8313 137.82 90.7513 134.25C86.3653 130.068 80.0413 128.946 72.0853 128.946C66.9853 128.946 61.8853 129.456 58.1113 130.272V198ZM71.4733 140.268C72.2893 139.962 73.5133 139.758 74.7373 139.758C80.9593 139.758 83.4073 144.45 83.4073 150.468C83.4073 156.894 80.4493 161.688 73.7173 161.688C72.9013 161.688 72.1873 161.688 71.4733 161.586V140.268ZM124.109 128.436C108.809 128.436 101.363 144.654 101.363 163.422C101.363 182.292 107.483 198.816 123.089 198.816C136.145 198.816 145.325 188.31 145.325 162.402C145.325 146.694 140.633 128.436 124.109 128.436ZM123.497 140.064C129.617 140.064 131.453 150.978 131.453 163.014C131.453 176.988 129.311 187.188 123.599 187.188C118.193 187.188 115.235 179.232 115.235 163.626C115.235 148.836 118.193 140.064 123.497 140.064ZM157.976 129.252V146.592C157.976 154.65 157.364 162.708 156.038 170.562C154.916 176.172 153.488 181.374 151.346 186.576L146.552 186.78L147.062 212.994H157.16L157.67 198H187.454L188.066 212.994H198.164L198.776 186.78L193.37 186.576V129.252H157.976ZM170.216 140.88H180.008V186.372H165.116C166.544 182.19 167.768 176.988 168.482 171.99C169.604 164.646 170.216 156.69 170.216 148.836V140.88ZM206.23 197.694C209.29 198.204 213.574 198.51 218.674 198.51C230.2 198.51 237.136 196.062 241.216 191.574C244.48 188.208 246.316 183.72 246.316 178.11C246.316 170.46 242.134 163.932 234.178 161.688V161.28C240.91 158.322 244.072 152.406 244.072 146.286C244.072 141.492 242.542 136.902 238.87 133.842C234.076 129.762 227.854 128.946 221.428 128.946C215.716 128.946 210.31 129.354 206.23 130.272V197.694ZM219.592 139.35C220.408 139.044 221.632 138.942 223.162 138.942C228.568 138.942 230.914 142.818 230.914 147.816C230.914 153.426 227.242 157.506 222.448 157.506H219.592V139.35ZM219.592 167.4H222.448C227.752 167.4 232.444 170.97 232.444 177.906C232.444 184.842 228.058 188.208 222.55 188.208C221.428 188.208 220.408 188.208 219.592 188.004V167.4ZM255.537 129.252V198H267.879L277.977 171.786C280.221 165.972 283.281 157.71 284.913 151.59H285.117C284.709 158.526 284.199 168.726 284.199 182.496V198H295.929V129.252H283.791L273.693 155.874C271.653 161.076 268.185 170.154 266.247 176.07H266.043C266.553 168.93 267.369 157.098 267.369 144.45V129.252H255.537ZM307.832 129.252V198H321.194V169.236H335.168V198H348.53V129.252H335.168V156.792H321.194V129.252H307.832ZM353.288 129.252L369.302 177.09C369.812 178.62 369.914 179.742 369.404 181.17C368.384 184.536 365.528 188.106 362.06 188.106C360.428 188.106 359.408 187.902 358.796 187.8L358.286 198.714C359.612 199.122 361.346 199.326 363.692 199.326C369.404 199.326 374.402 195.756 377.666 190.35C381.134 184.536 383.786 175.05 386.132 166.38L396.332 129.252H382.766L378.176 155.364C377.564 159.24 377.054 163.422 376.544 166.686H376.238C375.728 163.626 374.912 159.546 373.994 155.67L367.67 129.252H353.288ZM412.198 198H425.56V141.594H437.8V129.252H400.06V141.594H412.198V198ZM444.795 129.252V197.694C447.855 198.204 452.139 198.51 457.239 198.51C467.031 198.51 474.477 195.96 479.169 191.064C482.739 187.392 484.881 182.394 484.881 175.56C484.881 162.504 476.517 154.548 463.461 154.548C460.707 154.548 459.177 154.752 458.055 154.956V129.252H444.795ZM458.157 165.666C458.973 165.462 460.095 165.36 461.217 165.36C467.643 165.36 471.009 170.154 471.009 176.376C471.009 182.598 467.541 187.8 460.707 187.8C459.891 187.8 459.075 187.8 458.157 187.596V165.666ZM524.825 185.76C523.193 186.27 520.643 186.78 518.399 186.78C510.239 186.78 504.017 180.354 504.017 163.932C504.017 146.898 510.851 140.37 518.399 140.37C521.357 140.37 523.091 140.982 524.621 141.696L526.865 130.476C525.539 129.558 522.275 128.64 517.583 128.64C504.221 128.64 489.839 138.738 489.839 164.646C489.839 184.23 498.203 198.612 515.849 198.612C520.439 198.612 524.213 197.898 526.151 196.98L524.825 185.76ZM543.614 198C544.532 196.062 545.144 194.022 545.552 191.982C546.674 186.78 547.184 176.886 550.142 173.01C551.468 171.378 553.406 170.562 555.752 170.562H557.18V198H570.542V130.272C566.36 129.456 561.056 128.946 555.956 128.946C548.918 128.946 542.798 130.578 538.514 134.046C534.74 137.106 532.088 141.9 532.088 149.04C532.088 157.71 536.78 163.32 543.92 165.462V165.666C542.186 166.278 540.35 167.4 539.024 168.726C533.924 174.03 534.026 183.72 532.088 190.656C531.374 193.308 530.456 195.858 529.538 198H543.614ZM557.18 160.158C556.466 160.26 556.16 160.26 555.242 160.26C549.428 160.26 545.654 156.078 545.654 149.55C545.654 144.348 548.306 139.35 554.528 139.35C555.548 139.35 556.466 139.452 557.18 139.656V160.158Z" fill="#02B8FA"/>
<path d="M5.916 129.252V127.252H3.916V129.252H5.916ZM5.916 198H3.916V200H5.916V198ZM19.278 198V200H21.278V198H19.278ZM19.278 140.88V138.88H17.278V140.88H19.278ZM32.946 140.88H34.946V138.88H32.946V140.88ZM32.946 198H30.946V200H32.946V198ZM46.308 198V200H48.308V198H46.308ZM46.308 129.252H48.308V127.252H46.308V129.252ZM3.916 129.252V198H7.916V129.252H3.916ZM5.916 200H19.278V196H5.916V200ZM21.278 198V140.88H17.278V198H21.278ZM19.278 142.88H32.946V138.88H19.278V142.88ZM30.946 140.88V198H34.946V140.88H30.946ZM32.946 200H46.308V196H32.946V200ZM48.308 198V129.252H44.308V198H48.308ZM46.308 127.252H5.916V131.252H46.308V127.252ZM58.1113 198H56.1113V200H58.1113V198ZM71.4733 198V200H73.4733V198H71.4733ZM71.4733 172.398L71.6942 170.41L69.4733 170.163V172.398H71.4733ZM90.8533 165.87L89.4003 164.496L89.3912 164.505L90.8533 165.87ZM90.7513 134.25L89.3712 135.697L89.4021 135.727L89.4343 135.755L90.7513 134.25ZM58.1113 130.272L57.6886 128.317L56.1113 128.658V130.272H58.1113ZM71.4733 140.268L70.7711 138.395L69.4733 138.882V140.268H71.4733ZM71.4733 161.586H69.4733V163.321L71.1905 163.566L71.4733 161.586ZM58.1113 200H71.4733V196H58.1113V200ZM73.4733 198V172.398H69.4733V198H73.4733ZM71.2524 174.386C72.2965 174.502 73.219 174.5 74.1253 174.5V170.5C73.1957 170.5 72.4861 170.498 71.6942 170.41L71.2524 174.386ZM74.1253 174.5C80.112 174.5 87.547 172.344 92.3154 167.235L89.3912 164.505C85.5917 168.576 79.3586 170.5 74.1253 170.5V174.5ZM92.3063 167.244C96.2756 163.048 98.6673 157.229 98.6673 149.346H94.6673C94.6673 156.355 92.571 161.144 89.4004 164.496L92.3063 167.244ZM98.6673 149.346C98.6673 143.174 96.7234 136.818 92.0683 132.745L89.4343 135.755C92.9392 138.822 94.6673 143.89 94.6673 149.346H98.6673ZM92.1315 132.803C87.1491 128.052 80.1257 126.946 72.0853 126.946V130.946C79.9569 130.946 85.5816 132.084 89.3712 135.697L92.1315 132.803ZM72.0853 126.946C66.8728 126.946 61.6277 127.465 57.6886 128.317L58.534 132.227C62.1429 131.447 67.0978 130.946 72.0853 130.946V126.946ZM56.1113 130.272V198H60.1113V130.272H56.1113ZM72.1756 142.141C72.7154 141.938 73.6911 141.758 74.7373 141.758V137.758C73.3356 137.758 71.8632 137.986 70.7711 138.395L72.1756 142.141ZM74.7373 141.758C77.2748 141.758 78.8087 142.676 79.7839 144.027C80.8334 145.481 81.4073 147.683 81.4073 150.468H85.4073C85.4073 147.235 84.7573 144.082 83.0272 141.686C81.2229 139.186 78.4218 137.758 74.7373 137.758V141.758ZM81.4073 150.468C81.4073 153.411 80.7254 155.718 79.5173 157.248C78.3672 158.704 76.5597 159.688 73.7173 159.688V163.688C77.6069 163.688 80.6445 162.275 82.6563 159.727C84.6102 157.254 85.4073 153.951 85.4073 150.468H81.4073ZM73.7173 159.688C72.8734 159.688 72.3047 159.684 71.7562 159.606L71.1905 163.566C72.0699 163.692 72.9292 163.688 73.7173 163.688V159.688ZM73.4733 161.586V140.268H69.4733V161.586H73.4733ZM124.108 126.436C115.61 126.436 109.331 130.996 105.275 137.875C101.262 144.681 99.3625 153.815 99.3625 163.422H103.363C103.363 154.261 105.186 145.902 108.721 139.907C112.213 133.985 117.307 130.436 124.108 130.436V126.436ZM99.3625 163.422C99.3625 173.022 100.911 182.243 104.611 189.141C108.366 196.142 114.404 200.816 123.089 200.816V196.816C116.167 196.816 111.342 193.228 108.136 187.25C104.874 181.168 103.363 172.692 103.363 163.422H99.3625ZM123.089 200.816C130.239 200.816 136.442 197.893 140.764 191.437C145.006 185.102 147.325 175.539 147.325 162.402H143.325C143.325 175.173 141.053 183.817 137.441 189.212C133.909 194.486 128.994 196.816 123.089 196.816V200.816ZM147.325 162.402C147.325 154.405 146.138 145.561 142.705 138.64C139.218 131.611 133.312 126.436 124.108 126.436V130.436C131.429 130.436 136.131 134.39 139.121 140.417C142.165 146.552 143.325 154.691 143.325 162.402H147.325ZM123.496 142.064C124.339 142.064 125.075 142.405 125.8 143.255C126.572 144.161 127.274 145.597 127.848 147.581C128.993 151.54 129.452 157.052 129.452 163.014H133.452C133.452 156.94 132.994 150.977 131.691 146.47C131.041 144.221 130.136 142.176 128.843 140.66C127.502 139.087 125.714 138.064 123.496 138.064V142.064ZM129.452 163.014C129.452 169.944 128.917 175.761 127.747 179.783C127.161 181.798 126.459 183.206 125.715 184.076C125.018 184.891 124.338 185.188 123.599 185.188V189.188C125.715 189.188 127.444 188.21 128.756 186.675C130.02 185.197 130.925 183.181 131.588 180.9C132.917 176.328 133.452 170.058 133.452 163.014H129.452ZM123.599 185.188C122.172 185.188 120.582 184.232 119.271 180.583C117.973 176.969 117.235 171.353 117.235 163.626H113.235C113.235 171.505 113.975 177.67 115.507 181.935C117.027 186.166 119.619 189.188 123.599 189.188V185.188ZM117.235 163.626C117.235 156.321 117.97 150.688 119.266 146.954C120.608 143.088 122.212 142.064 123.496 142.064V138.064C119.477 138.064 116.95 141.426 115.487 145.643C113.978 149.993 113.235 156.141 113.235 163.626H117.235ZM157.976 129.252V127.252H155.976V129.252H157.976ZM156.038 170.562L157.999 170.954L158.005 170.925L158.01 170.895L156.038 170.562ZM151.346 186.576L151.431 188.574L152.708 188.52L153.195 187.337L151.346 186.576ZM146.552 186.78L146.467 184.782L144.514 184.865L144.552 186.819L146.552 186.78ZM147.062 212.994L145.062 213.033L145.1 214.994H147.062V212.994ZM157.16 212.994V214.994H159.093L159.159 213.062L157.16 212.994ZM157.67 198V196H155.737L155.671 197.932L157.67 198ZM187.454 198L189.452 197.918L189.374 196H187.454V198ZM188.066 212.994L186.067 213.076L186.146 214.994H188.066V212.994ZM198.164 212.994V214.994H200.118L200.163 213.041L198.164 212.994ZM198.776 186.78L200.775 186.827L200.821 184.856L198.851 184.781L198.776 186.78ZM193.37 186.576H191.37V188.502L193.294 188.575L193.37 186.576ZM193.37 129.252H195.37V127.252H193.37V129.252ZM170.216 140.88V138.88H168.216V140.88H170.216ZM180.008 140.88H182.008V138.88H180.008V140.88ZM180.008 186.372V188.372H182.008V186.372H180.008ZM165.116 186.372L163.223 185.726L162.319 188.372H165.116V186.372ZM168.482 171.99L166.505 171.688L166.503 171.698L166.502 171.707L168.482 171.99ZM155.976 129.252V146.592H159.976V129.252H155.976ZM155.976 146.592C155.976 154.55 155.371 162.496 154.066 170.229L158.01 170.895C159.356 162.92 159.976 154.75 159.976 146.592H155.976ZM154.077 170.17C152.972 175.69 151.577 180.762 149.496 185.815L153.195 187.337C155.399 181.986 156.859 176.654 157.999 170.954L154.077 170.17ZM151.261 184.578L146.467 184.782L146.637 188.778L151.431 188.574L151.261 184.578ZM144.552 186.819L145.062 213.033L149.061 212.955L148.551 186.741L144.552 186.819ZM147.062 214.994H157.16V210.994H147.062V214.994ZM159.159 213.062L159.669 198.068L155.671 197.932L155.161 212.926L159.159 213.062ZM157.67 200H187.454V196H157.67V200ZM185.455 198.082L186.067 213.076L190.064 212.912L189.452 197.918L185.455 198.082ZM188.066 214.994H198.164V210.994H188.066V214.994ZM200.163 213.041L200.775 186.827L196.776 186.733L196.164 212.947L200.163 213.041ZM198.851 184.781L193.445 184.577L193.294 188.575L198.7 188.779L198.851 184.781ZM195.37 186.576V129.252H191.37V186.576H195.37ZM193.37 127.252H157.976V131.252H193.37V127.252ZM170.216 142.88H180.008V138.88H170.216V142.88ZM178.008 140.88V186.372H182.008V140.88H178.008ZM180.008 184.372H165.116V188.372H180.008V184.372ZM167.008 187.018C168.481 182.705 169.732 177.38 170.462 172.273L166.502 171.707C165.803 176.596 164.606 181.675 163.223 185.726L167.008 187.018ZM170.459 172.292C171.596 164.847 172.216 156.79 172.216 148.836H168.216C168.216 156.59 167.611 164.445 166.505 171.688L170.459 172.292ZM172.216 148.836V140.88H168.216V148.836H172.216ZM206.23 197.694H204.23V199.388L205.902 199.667L206.23 197.694ZM241.216 191.574L239.781 190.182L239.758 190.205L239.737 190.229L241.216 191.574ZM234.178 161.688H232.178V163.202L233.636 163.613L234.178 161.688ZM234.178 161.28L233.374 159.449L232.178 159.974V161.28H234.178ZM238.87 133.842L237.574 135.365L237.582 135.372L237.59 135.378L238.87 133.842ZM206.23 130.272L205.791 128.321L204.23 128.672V130.272H206.23ZM219.592 139.35L218.89 137.477L217.592 137.964V139.35H219.592ZM219.592 157.506H217.592V159.506H219.592V157.506ZM219.592 167.4V165.4H217.592V167.4H219.592ZM219.592 188.004H217.592V189.566L219.107 189.944L219.592 188.004ZM205.902 199.667C209.108 200.201 213.51 200.51 218.674 200.51V196.51C213.639 196.51 209.473 196.207 206.559 195.721L205.902 199.667ZM218.674 200.51C230.41 200.51 238.051 198.029 242.696 192.919L239.737 190.229C236.222 194.095 229.991 196.51 218.674 196.51V200.51ZM242.652 192.966C246.31 189.194 248.316 184.192 248.316 178.11H244.316C244.316 183.248 242.651 187.222 239.781 190.182L242.652 192.966ZM248.316 178.11C248.316 169.666 243.633 162.277 234.721 159.763L233.636 163.613C240.636 165.587 244.316 171.254 244.316 178.11H248.316ZM236.178 161.688V161.28H232.178V161.688H236.178ZM234.983 163.111C242.5 159.808 246.072 153.134 246.072 146.286H242.072C242.072 151.678 239.321 156.836 233.374 159.449L234.983 163.111ZM246.072 146.286C246.072 141.092 244.409 135.854 240.151 132.306L237.59 135.378C240.676 137.95 242.072 141.892 242.072 146.286H246.072ZM240.167 132.319C234.8 127.752 227.95 126.946 221.428 126.946V130.946C227.759 130.946 233.352 131.772 237.574 135.365L240.167 132.319ZM221.428 126.946C215.649 126.946 210.077 127.357 205.791 128.321L206.669 132.223C210.544 131.351 215.784 130.946 221.428 130.946V126.946ZM204.23 130.272V197.694H208.23V130.272H204.23ZM220.295 141.223C220.738 141.057 221.633 140.942 223.162 140.942V136.942C221.632 136.942 220.079 137.031 218.89 137.477L220.295 141.223ZM223.162 140.942C225.338 140.942 226.664 141.693 227.498 142.746C228.389 143.871 228.914 145.594 228.914 147.816H232.914C232.914 145.04 232.267 142.326 230.634 140.263C228.943 138.129 226.393 136.942 223.162 136.942V140.942ZM228.914 147.816C228.914 152.566 225.908 155.506 222.448 155.506V159.506C228.577 159.506 232.914 154.286 232.914 147.816H228.914ZM222.448 155.506H219.592V159.506H222.448V155.506ZM221.592 157.506V139.35H217.592V157.506H221.592ZM219.592 169.4H222.448V165.4H219.592V169.4ZM222.448 169.4C224.657 169.4 226.637 170.14 228.052 171.496C229.446 172.832 230.444 174.913 230.444 177.906H234.444C234.444 173.963 233.097 170.791 230.819 168.608C228.562 166.445 225.544 165.4 222.448 165.4V169.4ZM230.444 177.906C230.444 180.937 229.499 182.951 228.18 184.213C226.843 185.493 224.905 186.208 222.55 186.208V190.208C225.704 190.208 228.713 189.24 230.946 187.103C233.197 184.948 234.444 181.811 234.444 177.906H230.444ZM222.55 186.208C221.345 186.208 220.603 186.195 220.078 186.064L219.107 189.944C220.214 190.221 221.512 190.208 222.55 190.208V186.208ZM221.592 188.004V167.4H217.592V188.004H221.592ZM255.537 129.252V127.252H253.537V129.252H255.537ZM255.537 198H253.537V200H255.537V198ZM267.879 198V200H269.252L269.745 198.719L267.879 198ZM277.977 171.786L276.111 171.066L276.111 171.067L277.977 171.786ZM284.913 151.59V149.59H283.377L282.981 151.075L284.913 151.59ZM285.117 151.59L287.114 151.707L287.238 149.59H285.117V151.59ZM284.199 198H282.199V200H284.199V198ZM295.929 198V200H297.929V198H295.929ZM295.929 129.252H297.929V127.252H295.929V129.252ZM283.791 129.252V127.252H282.411L281.921 128.543L283.791 129.252ZM273.693 155.874L275.555 156.604L275.559 156.594L275.563 156.583L273.693 155.874ZM266.247 176.07V178.07H267.697L268.148 176.693L266.247 176.07ZM266.043 176.07L264.048 175.928L263.895 178.07H266.043V176.07ZM267.369 129.252H269.369V127.252H267.369V129.252ZM253.537 129.252V198H257.537V129.252H253.537ZM255.537 200H267.879V196H255.537V200ZM269.745 198.719L279.843 172.505L276.111 171.067L266.013 197.281L269.745 198.719ZM279.843 172.506C282.086 166.696 285.182 158.342 286.846 152.105L282.981 151.075C281.38 157.078 278.357 165.248 276.111 171.066L279.843 172.506ZM284.913 153.59H285.117V149.59H284.913V153.59ZM283.121 151.473C282.711 158.432 282.199 168.674 282.199 182.496H286.199C286.199 168.778 286.707 158.62 287.114 151.707L283.121 151.473ZM282.199 182.496V198H286.199V182.496H282.199ZM284.199 200H295.929V196H284.199V200ZM297.929 198V129.252H293.929V198H297.929ZM295.929 127.252H283.791V131.252H295.929V127.252ZM281.921 128.543L271.823 155.165L275.563 156.583L285.661 129.961L281.921 128.543ZM271.831 155.144C269.791 160.346 266.304 169.472 264.346 175.447L268.148 176.693C270.066 170.836 273.515 161.806 275.555 156.604L271.831 155.144ZM266.247 174.07H266.043V178.07H266.247V174.07ZM268.038 176.212C268.548 169.068 269.369 157.175 269.369 144.45H265.369C265.369 157.021 264.558 168.792 264.048 175.928L268.038 176.212ZM269.369 144.45V129.252H265.369V144.45H269.369ZM267.369 127.252H255.537V131.252H267.369V127.252ZM307.832 129.252V127.252H305.832V129.252H307.832ZM307.832 198H305.832V200H307.832V198ZM321.194 198V200H323.194V198H321.194ZM321.194 169.236V167.236H319.194V169.236H321.194ZM335.168 169.236H337.168V167.236H335.168V169.236ZM335.168 198H333.168V200H335.168V198ZM348.53 198V200H350.53V198H348.53ZM348.53 129.252H350.53V127.252H348.53V129.252ZM335.168 129.252V127.252H333.168V129.252H335.168ZM335.168 156.792V158.792H337.168V156.792H335.168ZM321.194 156.792H319.194V158.792H321.194V156.792ZM321.194 129.252H323.194V127.252H321.194V129.252ZM305.832 129.252V198H309.832V129.252H305.832ZM307.832 200H321.194V196H307.832V200ZM323.194 198V169.236H319.194V198H323.194ZM321.194 171.236H335.168V167.236H321.194V171.236ZM333.168 169.236V198H337.168V169.236H333.168ZM335.168 200H348.53V196H335.168V200ZM350.53 198V129.252H346.53V198H350.53ZM348.53 127.252H335.168V131.252H348.53V127.252ZM333.168 129.252V156.792H337.168V129.252H333.168ZM335.168 154.792H321.194V158.792H335.168V154.792ZM323.194 156.792V129.252H319.194V156.792H323.194ZM321.194 127.252H307.832V131.252H321.194V127.252ZM353.288 129.252V127.252H350.51L351.392 129.887L353.288 129.252ZM369.302 177.09L371.2 176.458L371.199 176.455L369.302 177.09ZM369.404 181.17L367.521 180.497L367.504 180.543L367.49 180.59L369.404 181.17ZM358.796 187.8L359.125 185.827L356.903 185.457L356.798 187.707L358.796 187.8ZM358.286 198.714L356.288 198.621L356.216 200.17L357.698 200.626L358.286 198.714ZM377.666 190.35L379.378 191.384L379.384 191.375L377.666 190.35ZM386.132 166.38L384.204 165.85L384.202 165.858L386.132 166.38ZM396.332 129.252L398.261 129.782L398.956 127.252H396.332V129.252ZM382.766 129.252V127.252H381.087L380.796 128.906L382.766 129.252ZM378.176 155.364L376.206 155.018L376.203 155.035L376.201 155.052L378.176 155.364ZM376.544 166.686V168.686H378.256L378.52 166.995L376.544 166.686ZM376.238 166.686L374.265 167.015L374.544 168.686H376.238V166.686ZM373.994 155.67L375.94 155.209L375.939 155.204L373.994 155.67ZM367.67 129.252L369.615 128.786L369.248 127.252H367.67V129.252ZM351.392 129.887L367.406 177.725L371.199 176.455L355.185 128.617L351.392 129.887ZM367.405 177.722C367.821 178.971 367.836 179.613 367.521 180.497L371.288 181.843C371.992 179.871 371.803 178.269 371.2 176.458L367.405 177.722ZM367.49 180.59C367.065 181.994 366.249 183.442 365.215 184.507C364.175 185.578 363.079 186.106 362.06 186.106V190.106C364.509 190.106 366.575 188.849 368.085 187.293C369.601 185.732 370.724 183.712 371.318 181.75L367.49 180.59ZM362.06 186.106C360.614 186.106 359.744 185.93 359.125 185.827L358.467 189.773C359.073 189.874 360.243 190.106 362.06 190.106V186.106ZM356.798 187.707L356.288 198.621L360.284 198.807L360.794 187.893L356.798 187.707ZM357.698 200.626C359.295 201.117 361.254 201.326 363.692 201.326V197.326C361.439 197.326 359.929 197.127 358.874 196.802L357.698 200.626ZM363.692 201.326C370.307 201.326 375.871 197.193 379.378 191.384L375.954 189.316C372.934 194.319 368.501 197.326 363.692 197.326V201.326ZM379.384 191.375C383.024 185.272 385.742 175.48 388.063 166.902L384.202 165.858C381.831 174.62 379.245 183.8 375.949 189.325L379.384 191.375ZM388.061 166.91L398.261 129.782L394.404 128.722L384.204 165.85L388.061 166.91ZM396.332 127.252H382.766V131.252H396.332V127.252ZM380.796 128.906L376.206 155.018L380.146 155.71L384.736 129.598L380.796 128.906ZM376.201 155.052C375.891 157.012 375.608 159.044 375.341 160.981C375.072 162.926 374.82 164.767 374.568 166.377L378.52 166.995C378.779 165.341 379.036 163.459 379.303 161.528C379.571 159.589 379.849 157.592 380.152 155.676L376.201 155.052ZM376.544 164.686H376.238V168.686H376.544V164.686ZM378.211 166.357C377.693 163.25 376.868 159.126 375.94 155.209L372.048 156.131C372.956 159.966 373.763 164.002 374.265 167.015L378.211 166.357ZM375.939 155.204L369.615 128.786L365.725 129.718L372.049 156.136L375.939 155.204ZM367.67 127.252H353.288V131.252H367.67V127.252ZM412.198 198H410.198V200H412.198V198ZM425.56 198V200H427.56V198H425.56ZM425.56 141.594V139.594H423.56V141.594H425.56ZM437.8 141.594V143.594H439.8V141.594H437.8ZM437.8 129.252H439.8V127.252H437.8V129.252ZM400.06 129.252V127.252H398.06V129.252H400.06ZM400.06 141.594H398.06V143.594H400.06V141.594ZM412.198 141.594H414.198V139.594H412.198V141.594ZM412.198 200H425.56V196H412.198V200ZM427.56 198V141.594H423.56V198H427.56ZM425.56 143.594H437.8V139.594H425.56V143.594ZM439.8 141.594V129.252H435.8V141.594H439.8ZM437.8 127.252H400.06V131.252H437.8V127.252ZM398.06 129.252V141.594H402.06V129.252H398.06ZM400.06 143.594H412.198V139.594H400.06V143.594ZM410.198 141.594V198H414.198V141.594H410.198ZM444.795 129.252V127.252H442.795V129.252H444.795ZM444.795 197.694H442.795V199.388L444.466 199.667L444.795 197.694ZM479.169 191.064L477.735 189.67L477.73 189.675L477.725 189.68L479.169 191.064ZM458.055 154.956H456.055V157.352L458.413 156.924L458.055 154.956ZM458.055 129.252H460.055V127.252H458.055V129.252ZM458.157 165.666L457.672 163.726L456.157 164.104V165.666H458.157ZM458.157 187.596H456.157V189.2L457.723 189.548L458.157 187.596ZM442.795 129.252V197.694H446.795V129.252H442.795ZM444.466 199.667C447.672 200.201 452.074 200.51 457.239 200.51V196.51C452.203 196.51 448.038 196.207 445.124 195.721L444.466 199.667ZM457.239 200.51C467.339 200.51 475.406 197.881 480.613 192.448L477.725 189.68C473.548 194.039 466.723 196.51 457.239 196.51V200.51ZM480.603 192.458C484.575 188.373 486.881 182.856 486.881 175.56H482.881C482.881 181.932 480.903 186.411 477.735 189.67L480.603 192.458ZM486.881 175.56C486.881 168.595 484.639 162.788 480.461 158.724C476.29 154.668 470.395 152.548 463.461 152.548V156.548C469.582 156.548 474.397 158.406 477.672 161.592C480.94 164.77 482.881 169.469 482.881 175.56H486.881ZM463.461 152.548C460.592 152.548 458.942 152.762 457.697 152.988L458.413 156.924C459.412 156.742 460.822 156.548 463.461 156.548V152.548ZM460.055 154.956V129.252H456.055V154.956H460.055ZM458.055 127.252H444.795V131.252H458.055V127.252ZM458.642 167.606C459.24 167.457 460.184 167.36 461.217 167.36V163.36C460.006 163.36 458.706 163.467 457.672 163.726L458.642 167.606ZM461.217 167.36C463.886 167.36 465.752 168.332 466.985 169.814C468.258 171.344 469.009 173.604 469.009 176.376H473.009C473.009 172.926 472.077 169.678 470.06 167.255C468.004 164.785 464.973 163.36 461.217 163.36V167.36ZM469.009 176.376C469.009 179.137 468.238 181.506 466.88 183.146C465.563 184.737 463.566 185.8 460.707 185.8V189.8C464.682 189.8 467.836 188.262 469.961 185.697C472.046 183.18 473.009 179.837 473.009 176.376H469.009ZM460.707 185.8C459.877 185.8 459.267 185.794 458.591 185.644L457.723 189.548C458.883 189.806 459.905 189.8 460.707 189.8V185.8ZM460.157 187.596V165.666H456.157V187.596H460.157ZM524.825 185.76L526.811 185.525L526.528 183.132L524.229 183.851L524.825 185.76ZM524.621 141.696L523.775 143.508L526.083 144.585L526.582 142.088L524.621 141.696ZM526.865 130.476L528.826 130.868L529.084 129.58L528.003 128.832L526.865 130.476ZM526.151 196.98L527.007 198.787L528.306 198.172L528.137 196.745L526.151 196.98ZM524.229 183.851C522.742 184.315 520.397 184.78 518.399 184.78V188.78C520.89 188.78 523.644 188.225 525.422 187.669L524.229 183.851ZM518.399 184.78C514.915 184.78 511.954 183.447 509.784 180.363C507.542 177.178 506.017 171.939 506.017 163.932H502.017C502.017 172.347 503.603 178.532 506.513 182.665C509.493 186.9 513.723 188.78 518.399 188.78V184.78ZM506.017 163.932C506.017 155.644 507.685 150.216 510.012 146.916C512.286 143.691 515.269 142.37 518.399 142.37V138.37C513.981 138.37 509.773 140.313 506.743 144.611C503.766 148.833 502.017 155.186 502.017 163.932H506.017ZM518.399 142.37C521.011 142.37 522.457 142.893 523.775 143.508L525.467 139.884C523.725 139.071 521.703 138.37 518.399 138.37V142.37ZM526.582 142.088L528.826 130.868L524.904 130.084L522.66 141.304L526.582 142.088ZM528.003 128.832C527.033 128.16 525.597 127.629 523.915 127.26C522.189 126.881 520.055 126.64 517.583 126.64V130.64C519.803 130.64 521.647 130.858 523.057 131.167C524.512 131.487 525.371 131.874 525.727 132.12L528.003 128.832ZM517.583 126.64C510.396 126.64 502.904 129.361 497.224 135.578C491.543 141.796 487.839 151.323 487.839 164.646H491.839C491.839 152.061 495.326 143.585 500.177 138.277C505.028 132.968 511.408 130.64 517.583 130.64V126.64ZM487.839 164.646C487.839 174.682 489.976 183.633 494.597 190.132C499.282 196.721 506.401 200.612 515.849 200.612V196.612C507.651 196.612 501.766 193.312 497.857 187.814C493.884 182.226 491.839 174.194 491.839 164.646H487.839ZM515.849 200.612C520.563 200.612 524.68 199.89 527.007 198.787L525.295 195.173C523.746 195.906 520.315 196.612 515.849 196.612V200.612ZM528.137 196.745L526.811 185.525L522.839 185.995L524.165 197.215L528.137 196.745ZM543.614 198V200H544.879L545.421 198.856L543.614 198ZM545.552 191.982L543.597 191.56L543.594 191.575L543.591 191.59L545.552 191.982ZM550.142 173.01L548.59 171.749L548.57 171.772L548.552 171.797L550.142 173.01ZM557.18 170.562H559.18V168.562H557.18V170.562ZM557.18 198H555.18V200H557.18V198ZM570.542 198V200H572.542V198H570.542ZM570.542 130.272H572.542V128.625L570.925 128.309L570.542 130.272ZM538.514 134.046L537.255 132.492L537.254 132.492L538.514 134.046ZM543.92 165.462H545.92V163.974L544.495 163.546L543.92 165.462ZM543.92 165.666L544.585 167.552L545.92 167.081V165.666H543.92ZM539.024 168.726L537.61 167.312L537.596 167.326L537.582 167.34L539.024 168.726ZM532.088 190.656L530.162 190.118L530.159 190.127L530.157 190.136L532.088 190.656ZM529.538 198L527.699 197.212L526.505 200H529.538V198ZM557.18 160.158L557.463 162.138L559.18 161.893V160.158H557.18ZM557.18 139.656H559.18V138.147L557.729 137.733L557.18 139.656ZM545.421 198.856C546.424 196.74 547.08 194.537 547.513 192.374L543.591 191.59C543.207 193.507 542.64 195.384 541.806 197.144L545.421 198.856ZM547.507 192.404C547.804 191.027 548.055 189.367 548.305 187.658C548.559 185.923 548.815 184.114 549.128 182.347C549.44 180.578 549.799 178.908 550.245 177.47C550.698 176.007 551.2 174.92 551.732 174.223L548.552 171.797C547.604 173.038 546.934 174.641 546.424 176.286C545.907 177.955 545.514 179.811 545.189 181.651C544.864 183.491 544.597 185.373 544.347 187.078C544.094 188.808 543.861 190.336 543.597 191.56L547.507 192.404ZM551.694 174.271C552.576 173.186 553.897 172.562 555.752 172.562V168.562C552.914 168.562 550.36 169.57 548.59 171.749L551.694 174.271ZM555.752 172.562H557.18V168.562H555.752V172.562ZM555.18 170.562V198H559.18V170.562H555.18ZM557.18 200H570.542V196H557.18V200ZM572.542 198V130.272H568.542V198H572.542ZM570.925 128.309C566.606 127.466 561.173 126.946 555.956 126.946V130.946C560.939 130.946 566.114 131.446 570.159 132.235L570.925 128.309ZM555.956 126.946C548.65 126.946 542.02 128.635 537.255 132.492L539.772 135.6C543.576 132.521 549.185 130.946 555.956 130.946V126.946ZM537.254 132.492C532.979 135.959 530.088 141.341 530.088 149.04H534.088C534.088 142.459 536.501 138.253 539.773 135.6L537.254 132.492ZM530.088 149.04C530.088 153.747 531.367 157.753 533.726 160.899C536.083 164.041 539.425 166.202 543.345 167.378L544.495 163.546C541.275 162.58 538.7 160.865 536.926 158.499C535.155 156.137 534.088 153.003 534.088 149.04H530.088ZM541.92 165.462V165.666H545.92V165.462H541.92ZM543.254 163.78C541.255 164.485 539.159 165.762 537.61 167.312L540.438 170.14C541.54 169.038 543.116 168.071 544.585 167.552L543.254 163.78ZM537.582 167.34C534.626 170.414 533.285 174.634 532.415 178.656C531.977 180.684 531.639 182.772 531.302 184.706C530.959 186.671 530.617 188.489 530.162 190.118L534.014 191.194C534.528 189.355 534.899 187.361 535.242 185.392C535.591 183.393 535.909 181.426 536.325 179.502C537.164 175.619 538.322 172.342 540.465 170.112L537.582 167.34ZM530.157 190.136C529.469 192.689 528.584 195.149 527.699 197.212L531.376 198.788C532.328 196.567 533.278 193.927 534.019 191.176L530.157 190.136ZM529.538 200H543.614V196H529.538V200ZM556.897 158.178C556.332 158.259 556.146 158.26 555.242 158.26V162.26C556.174 162.26 556.6 162.261 557.463 162.138L556.897 158.178ZM555.242 158.26C552.841 158.26 551.008 157.412 549.756 156.017C548.485 154.6 547.654 152.436 547.654 149.55H543.654C543.654 153.192 544.71 156.383 546.779 158.689C548.868 161.017 551.828 162.26 555.242 162.26V158.26ZM547.654 149.55C547.654 147.254 548.244 145.168 549.351 143.708C550.403 142.32 552.025 141.35 554.528 141.35V137.35C550.809 137.35 547.993 138.879 546.164 141.291C544.39 143.63 543.654 146.644 543.654 149.55H547.654ZM554.528 141.35C555.436 141.35 556.155 141.443 556.63 141.579L557.729 137.733C556.777 137.461 555.659 137.35 554.528 137.35V141.35ZM555.18 139.656V160.158H559.18V139.656H555.18Z" fill="#02B8FA"/>
</g>
<rect y="242" width="456.685" height="86" fill="white"/>
<path d="M72.176 299.122C70.804 299.808 69.236 300.102 67.374 300.102C61.396 300.102 57.77 294.81 57.77 286.186C57.77 277.856 61.396 271.976 67.57 271.976C69.726 271.976 71.294 272.466 72.372 272.858L74.038 262.764C72.764 262.176 70.02 261.49 66.982 261.49C53.752 261.49 45.03 271.78 45.03 286.578C45.03 302.16 52.968 310.588 65.12 310.588C68.746 310.588 71.98 309.804 73.254 309.216L72.176 299.122ZM151.545 310H138.945L135.921 300.865H127.794L123.825 292.486L117.966 310H105.366L122.187 259.6H134.787L151.545 310ZM131.952 289.021L128.487 278.5L124.959 289.021H131.952ZM196.975 310H183.43L166.861 284.737V310H154.954V259.6H182.044C184.06 259.6 185.929 260.062 187.651 260.986C189.415 261.868 190.927 263.065 192.187 264.577C193.447 266.089 194.434 267.853 195.148 269.869C195.904 271.843 196.282 273.922 196.282 276.106C196.282 278.164 196.093 279.991 195.715 281.587C195.337 283.183 194.749 284.611 193.951 285.871C193.153 287.131 192.145 288.244 190.927 289.21C189.709 290.134 188.281 290.974 186.643 291.73C186.559 291.772 186.475 291.835 186.391 291.919C186.307 292.003 186.181 292.087 186.013 292.171L196.975 310ZM184.942 276.547C184.942 275.161 184.48 273.943 183.556 272.893C182.632 271.843 181.498 271.318 180.154 271.318H166.798V281.713H180.658C181.204 281.713 181.729 281.545 182.233 281.209C182.779 280.873 183.241 280.453 183.619 279.949C184.039 279.445 184.354 278.899 184.564 278.311C184.816 277.681 184.942 277.093 184.942 276.547ZM243.422 259.6L237.626 271.444H221.561C220.973 271.444 220.322 271.633 219.608 272.011C218.936 272.347 218.285 272.809 217.655 273.397C217.025 273.943 216.458 274.552 215.954 275.224C215.492 275.896 215.177 276.526 215.009 277.114C214.253 279.76 213.875 281.398 213.875 282.028C213.875 292.78 216.941 298.156 223.073 298.156H243.359V310H221.876C221.498 310 220.847 309.916 219.923 309.748C219.041 309.58 217.886 309.328 216.458 308.992C214.694 308.614 212.993 307.858 211.355 306.724C209.759 305.59 208.31 304.246 207.008 302.692C205.748 301.096 204.677 299.353 203.795 297.463C202.913 295.531 202.346 293.578 202.094 291.604C201.716 288.706 201.527 286.522 201.527 285.052C201.527 281.272 202.052 277.828 203.102 274.72C204.194 271.57 205.706 268.882 207.638 266.656C209.612 264.43 211.964 262.708 214.694 261.49C217.424 260.23 220.469 259.6 223.829 259.6H243.422ZM290.56 310H277.141L257.989 279.823V310H245.578V259.6H259.501L278.149 289.84V259.6H290.56V310ZM332.955 259.6L327.348 271.381H308.133V278.752H327.411V290.533H308.133V298.219H330.372V310H295.596V259.6H332.955ZM378.476 259.6L372.68 271.255H361.655V310H349.622V271.255H336.14V259.6H378.476Z" fill="#208991"/>
<defs>
<filter id="filter0_d_186_9451" x="1.91602" y="128.436" width="572.626" height="92.5586" filterUnits="userSpaceOnUse" color-interpolation-filters="sRGB">
<feFlood flood-opacity="0" result="BackgroundImageFix"/>
<feColorMatrix in="SourceAlpha" type="matrix" values="0 0 0 0 0 0 0 0 0 0 0 0 0 0 0 0 0 0 127 0" result="hardAlpha"/>
<feOffset dy="4"/>
<feGaussianBlur stdDeviation="2"/>
<feComposite in2="hardAlpha" operator="out"/>
<feColorMatrix type="matrix" values="0 0 0 0 0 0 0 0 0 0 0 0 0 0 0 0 0 0 0.25 0"/>
<feBlend mode="normal" in2="BackgroundImageFix" result="effect1_dropShadow_186_9451"/>
<feBlend mode="normal" in="SourceGraphic" in2="effect1_dropShadow_186_9451" result="shape"/>
</filter>
</defs>
</svg>
