<svg width="182" height="74" viewBox="0 0 182 74" fill="none" xmlns="http://www.w3.org/2000/svg">
<path d="M6.09053 73.4938C4.0532 73.5367 2.03732 73.5367 0 73.4938L31.3962 19.1723L6.09053 73.4938ZM34.9562 43.8132L36.8863 43.8561C36.5217 44.2207 35.2136 44.3708 34.9562 43.8132ZM33.841 42.1405L39.3525 42.9768L34.3343 42.5908C34.2056 42.4836 33.9697 42.2477 33.841 42.1405ZM33.1977 39.9316L40.961 42.0332L33.3263 40.7036C33.3049 40.532 33.2191 40.146 33.1977 39.9316ZM32.5758 37.5511L43.2342 41.4328L32.7473 38.6877C32.683 38.3017 32.6401 37.9157 32.5758 37.5511ZM32.1897 34.6345L46.7512 41.4328L32.2755 36.2215C32.2326 35.6854 32.2112 35.1492 32.1897 34.6345ZM31.9538 31.1603L49.6678 41.4757L31.9753 33.3049C31.9753 32.5758 31.9538 31.8681 31.9538 31.1603ZM32.1683 27.4288L53.2278 42.0976L32.0396 29.9594C31.7823 29.1445 32.104 28.2652 32.1683 27.4288ZM32.683 22.7537L57.1094 43.4057L32.9618 26.5281C32.683 26.2922 32.1683 26.0778 32.2755 25.6274C32.3399 24.6624 32.5543 23.7188 32.683 22.7537ZM33.8839 17.8212L60.7337 44.7568L33.3478 21.8959C33.0476 21.7243 32.9189 21.467 33.0047 21.1238C33.2191 20.0301 33.5837 18.9364 33.8839 17.8212ZM34.1842 16.4916C34.6774 15.0977 34.9991 13.575 35.7926 12.3097L66.3953 48.5956L34.1842 16.4916ZM36.3502 11.0444C37.0579 9.45748 37.6583 7.80617 38.6234 6.36932C48.9172 21.0595 59.2111 35.7282 69.3977 50.4828L36.3502 11.0444ZM39.2024 5.25416C40.1675 3.47418 41.1969 1.71564 42.2477 0L73.6011 54.3644L39.2024 5.25416ZM50.3755 45.2501L49.389 46.9014C49.2389 46.4081 49.7751 45.2072 50.3755 45.2501ZM52.3914 45.1214L48.8958 49.4748L51.7481 45.3358C51.9196 45.2715 52.2413 45.1643 52.3914 45.1214ZM54.6218 45.6575L48.9172 51.3406L53.8712 45.4002C54.0642 45.4645 54.4287 45.5932 54.6218 45.6575ZM57.0022 46.3223L48.2953 53.6138L55.9299 45.9149C56.2945 46.0435 56.6591 46.1937 57.0022 46.3223ZM59.7258 47.459L46.5582 56.6591L58.3104 46.7298C58.7822 46.9657 59.254 47.2016 59.7258 47.459ZM62.8568 48.9816L45.057 59.1682L60.9696 47.9308C61.613 48.2953 62.2349 48.6385 62.8568 48.9816ZM65.9664 51.0189L42.7409 61.9347L63.8433 49.6678C64.6797 49.8394 65.2802 50.5471 65.9664 51.0189ZM69.7623 53.8068L39.6742 64.6368L66.3739 52.1555C66.717 52.0268 67.1674 51.6837 67.5105 52.0269C68.2826 52.5844 68.9903 53.2278 69.7623 53.8068ZM73.4295 57.3239L36.6718 67.1031L70.1698 54.8148C70.47 54.6432 70.7488 54.6646 71.0061 54.9006C71.864 55.6511 72.636 56.509 73.4295 57.3239ZM74.4374 58.2461C75.4025 59.3827 76.5605 60.412 77.2468 61.7417L30.517 70.1054L74.4374 58.2461ZM78.0617 62.8568C79.0697 64.2508 80.2063 65.6019 80.9783 67.1674C63.1142 68.7544 45.2501 70.3199 27.3859 71.7782L78.0617 62.8568ZM81.6646 68.2182C82.7154 69.9553 83.7233 71.7138 84.6884 73.4938L21.9388 73.4509L81.6646 68.2182ZM41.6043 57.8815L40.6607 56.1873C41.1754 56.316 41.9474 57.3882 41.6043 57.8815ZM40.7036 59.6829L38.6663 54.4931L40.8323 59.0395C40.8108 59.1897 40.7465 59.5328 40.7036 59.6829ZM39.1381 61.3557L37.0793 53.5709L39.7386 60.841C39.5884 60.9696 39.2882 61.227 39.1381 61.3557ZM37.3581 63.0927L35.4066 51.9196L38.2588 62.3636C37.9586 62.5995 37.6583 62.8354 37.3581 63.0927ZM35.0205 64.8727L33.6266 48.8744L36.3502 64.0149C35.9213 64.3151 35.4709 64.5939 35.0205 64.8727ZM32.1468 66.8028L32.2326 46.3009L33.9912 65.7091C33.3692 66.0737 32.7473 66.4597 32.1468 66.8028ZM28.8013 68.497L30.9673 42.9125L31.0531 67.339C30.4955 67.9823 29.5519 68.1324 28.8013 68.497ZM24.5122 70.3842L30.1739 38.9022L27.6433 68.2826C27.5789 68.6471 27.6647 69.2047 27.1929 69.3334C26.3137 69.7194 25.3915 69.9982 24.5122 70.3842ZM19.6227 71.7996L29.5305 35.0634L23.4185 70.2341C23.4185 70.5987 23.2469 70.8131 22.9253 70.9204C21.853 71.2849 20.7378 71.5208 19.6227 71.7996ZM18.3145 72.2071C16.8562 72.4859 15.3764 72.9577 13.8967 72.8933L30.0237 28.2438L18.3145 72.2071ZM12.5242 73.0649C10.8085 73.2365 9.07145 73.5582 7.33437 73.4295C14.9046 57.1738 22.4749 40.9181 30.1524 24.7267L12.5242 73.0649Z" fill="white"/>
<path d="M98.1298 12.202L99.438 16.2981H102.29L97.5937 1.84382H94.2267L89.5945 16.2981H92.3181L93.5619 12.202H98.1298ZM93.9908 10.2076L95.106 6.64762C95.3419 5.78979 95.5778 4.78185 95.7922 3.94548H95.8351C96.0496 4.78185 96.2855 5.76835 96.5643 6.64762L97.7009 10.2076H93.9908Z" fill="white"/>
<path d="M110.912 1.07178V6.9693H110.869C110.398 6.19726 109.368 5.61823 107.931 5.61823C105.422 5.61823 103.235 7.69845 103.256 11.1941C103.256 14.4109 105.229 16.534 107.738 16.534C109.24 16.534 110.505 15.8049 111.127 14.6468H111.17L111.298 16.2981H113.636C113.593 15.5904 113.55 14.4323 113.55 13.3601V1.07178H110.912ZM110.912 11.7731C110.912 12.0519 110.891 12.3092 110.827 12.5451C110.569 13.6817 109.626 14.4109 108.553 14.4109C106.881 14.4109 105.937 13.0169 105.937 11.0868C105.937 9.15674 106.881 7.65555 108.575 7.65555C109.776 7.65555 110.612 8.49193 110.848 9.49987C110.891 9.71433 110.912 9.99312 110.912 10.2076V11.7731Z" fill="white"/>
<path d="M115.203 5.85413L119.084 16.2981H121.679L125.668 5.85413H122.902L121.229 11.1512C120.95 12.0948 120.714 12.9097 120.521 13.7675H120.457C120.264 12.9097 120.049 12.0733 119.749 11.1512L118.055 5.85413H115.203Z" fill="white"/>
<path d="M135.253 10.036C135.253 7.74134 134.288 5.61823 130.943 5.61823C129.291 5.61823 127.94 6.06859 127.168 6.54039L127.683 8.25603C128.391 7.80567 129.463 7.48399 130.492 7.48399C132.337 7.48399 132.615 8.6206 132.615 9.30686V9.47843C128.755 9.45698 126.418 10.808 126.418 13.4244C126.418 15.0114 127.597 16.534 129.699 16.534C131.071 16.534 132.165 15.955 132.787 15.14H132.851L133.044 16.2981H135.425C135.296 15.6547 135.253 14.7326 135.253 13.789V10.036ZM132.68 12.6309C132.68 12.8239 132.68 13.0169 132.615 13.2099C132.358 13.9605 131.607 14.6468 130.535 14.6468C129.699 14.6468 129.034 14.175 129.034 13.1456C129.034 11.5586 130.814 11.1726 132.68 11.1941V12.6309Z" fill="white"/>
<path d="M138.037 16.2981H140.675V10.1432C140.675 9.843 140.718 9.52132 140.804 9.30686C141.082 8.51338 141.811 7.76278 142.862 7.76278C144.299 7.76278 144.857 8.8994 144.857 10.4006V16.2981H147.495V10.1003C147.495 6.79773 145.607 5.61823 143.784 5.61823C142.047 5.61823 140.911 6.60472 140.439 7.41965H140.375L140.246 5.85413H137.951C137.994 6.75484 138.037 7.76278 138.037 8.96373V16.2981Z" fill="white"/>
<path d="M157.623 14.0249C157.108 14.2393 156.443 14.4323 155.542 14.4323C153.741 14.4323 152.347 13.2099 152.347 11.0654C152.325 9.15674 153.526 7.677 155.542 7.677C156.486 7.677 157.108 7.87001 157.537 8.08447L158.009 6.09003C157.408 5.83268 156.422 5.61823 155.457 5.61823C151.789 5.61823 149.645 8.04157 149.645 11.1726C149.645 14.4109 151.768 16.5126 155.028 16.5126C156.336 16.5126 157.43 16.2338 157.987 15.9764L157.623 14.0249Z" fill="white"/>
<path d="M168.612 11.816C168.655 11.5801 168.698 11.1941 168.698 10.7008C168.698 8.40615 167.582 5.61823 164.194 5.61823C160.849 5.61823 159.09 8.34181 159.09 11.237C159.09 14.4323 161.084 16.5126 164.473 16.5126C165.974 16.5126 167.218 16.2338 168.119 15.8477L167.733 14.0463C166.918 14.3251 166.06 14.5181 164.837 14.5181C163.143 14.5181 161.685 13.7032 161.621 11.816H168.612ZM161.621 9.97167C161.728 8.8994 162.414 7.41965 164.044 7.41965C165.802 7.41965 166.231 9.00662 166.21 9.97167H161.621Z" fill="white"/>
<path d="M177.804 1.07178V6.9693H177.761C177.289 6.19726 176.26 5.61823 174.823 5.61823C172.314 5.61823 170.126 7.69845 170.148 11.1941C170.148 14.4109 172.121 16.534 174.63 16.534C176.131 16.534 177.396 15.8049 178.018 14.6468H178.061L178.19 16.2981H180.528C180.485 15.5904 180.442 14.4323 180.442 13.3601V1.07178H177.804ZM177.804 11.7731C177.804 12.0519 177.783 12.3092 177.718 12.5451C177.461 13.6817 176.517 14.4109 175.445 14.4109C173.772 14.4109 172.829 13.0169 172.829 11.0868C172.829 9.15674 173.772 7.65555 175.466 7.65555C176.667 7.65555 177.504 8.49193 177.74 9.49987C177.783 9.71433 177.804 9.99312 177.804 10.2076V11.7731Z" fill="white"/>
<path d="M78.5638 42.0327H81.2016V29.7873H85.362V27.5784H74.4462V29.7873H78.5638V42.0327Z" fill="white"/>
<path d="M94.1599 37.5506C94.2028 37.3147 94.2456 36.9287 94.2456 36.4355C94.2456 34.1408 93.1305 31.3529 89.7421 31.3529C86.3966 31.3529 84.638 34.0764 84.638 36.9716C84.638 40.167 86.6325 42.2472 90.0209 42.2472C91.5221 42.2472 92.7659 41.9684 93.6666 41.5824L93.2806 39.781C92.4657 40.0597 91.6078 40.2528 90.3854 40.2528C88.6913 40.2528 87.233 39.4378 87.1686 37.5506H94.1599ZM87.1686 35.7063C87.2758 34.634 87.9621 33.1543 89.592 33.1543C91.3505 33.1543 91.7794 34.7413 91.758 35.7063H87.1686Z" fill="white"/>
<path d="M103.674 39.7595C103.159 39.974 102.494 40.167 101.593 40.167C99.792 40.167 98.398 38.9446 98.398 36.8C98.3766 34.8914 99.5775 33.4116 101.593 33.4116C102.537 33.4116 103.159 33.6046 103.588 33.8191L104.06 31.8247C103.459 31.5673 102.473 31.3529 101.508 31.3529C97.8404 31.3529 95.6959 33.7762 95.6959 36.9073C95.6959 40.1455 97.819 42.2472 101.079 42.2472C102.387 42.2472 103.481 41.9684 104.038 41.7111L103.674 39.7595Z" fill="white"/>
<path d="M105.994 42.0327H108.632V35.7706C108.632 35.4919 108.654 35.2131 108.739 34.9772C109.04 34.1837 109.769 33.4974 110.798 33.4974C112.257 33.4974 112.814 34.6555 112.814 36.1567V42.0327H115.452V35.8779C115.452 32.5324 113.586 31.3529 111.806 31.3529C111.141 31.3529 110.519 31.5244 109.983 31.8247C109.447 32.1035 108.997 32.5109 108.675 33.0042H108.632V26.8064H105.994V42.0327Z" fill="white"/>
<path d="M118.267 42.0327H120.905V35.8779C120.905 35.5776 120.948 35.256 121.033 35.0415C121.312 34.248 122.041 33.4974 123.092 33.4974C124.529 33.4974 125.087 34.634 125.087 36.1352V42.0327H127.724V35.835C127.724 32.5324 125.837 31.3529 124.014 31.3529C122.277 31.3529 121.141 32.3394 120.669 33.1543H120.605L120.476 31.5888H118.181C118.224 32.4895 118.267 33.4974 118.267 34.6984V42.0327Z" fill="white"/>
<path d="M135.279 31.3529C132.126 31.3529 129.875 33.4545 129.875 36.8858C129.875 40.2528 132.169 42.2686 135.107 42.2686C137.767 42.2686 140.469 40.553 140.469 36.7142C140.469 33.5403 138.389 31.3529 135.279 31.3529ZM135.215 33.2615C137.016 33.2615 137.745 35.1487 137.745 36.7786C137.745 38.9017 136.694 40.36 135.193 40.36C133.606 40.36 132.598 38.8374 132.598 36.8215C132.598 35.0844 133.349 33.2615 135.215 33.2615Z" fill="white"/>
<path d="M142.645 42.0327H145.282V26.8064H142.645V42.0327Z" fill="white"/>
<path d="M152.892 31.3529C149.739 31.3529 147.488 33.4545 147.488 36.8858C147.488 40.2528 149.782 42.2686 152.72 42.2686C155.38 42.2686 158.082 40.553 158.082 36.7142C158.082 33.5403 156.002 31.3529 152.892 31.3529ZM152.828 33.2615C154.629 33.2615 155.358 35.1487 155.358 36.7786C155.358 38.9017 154.307 40.36 152.806 40.36C151.219 40.36 150.211 38.8374 150.211 36.8215C150.211 35.0844 150.962 33.2615 152.828 33.2615Z" fill="white"/>
<path d="M169.715 34.5911C169.715 33.1543 169.758 32.2965 169.801 31.5888H167.506L167.399 32.9827H167.356C166.863 32.1249 165.941 31.3529 164.332 31.3529C161.823 31.3529 159.593 33.4331 159.593 36.8644C159.593 39.8238 161.437 41.9684 164.032 41.9684C165.426 41.9684 166.477 41.3465 167.077 40.4243H167.12V41.325C167.12 43.5768 165.833 44.4775 164.118 44.4775C162.852 44.4775 161.737 44.0701 161.072 43.684L160.493 45.6785C161.394 46.2146 162.81 46.5149 164.139 46.5149C165.576 46.5149 167.099 46.2146 168.171 45.2496C169.265 44.2631 169.715 42.6975 169.715 40.5101V34.5911ZM167.077 37.4648C167.077 37.7651 167.056 38.1297 166.97 38.387C166.67 39.352 165.812 39.9954 164.825 39.9954C163.174 39.9954 162.273 38.5586 162.273 36.7786C162.273 34.6555 163.367 33.3687 164.847 33.3687C165.962 33.3687 166.713 34.0979 166.991 35.0629C167.056 35.2774 167.077 35.5133 167.077 35.7706V37.4648Z" fill="white"/>
<path d="M171.307 31.5888L175.146 41.1749C175.253 41.4323 175.275 41.5824 175.275 41.6896C175.275 41.8183 175.232 41.9684 175.124 42.1614C174.76 42.8691 174.181 43.491 173.666 43.8127C173.13 44.1987 172.594 44.4346 172.144 44.5419L172.744 46.7508C173.387 46.665 174.46 46.3218 175.51 45.4211C176.733 44.3489 177.698 42.6118 179.135 38.7087L181.751 31.5888H178.942L177.312 37.1646C177.097 37.8294 176.904 38.6229 176.754 39.2019H176.69C176.54 38.6229 176.304 37.8294 176.089 37.186L174.224 31.5888H171.307Z" fill="white"/>
<path d="M151.173 65.2797C150.465 65.5799 149.35 65.7944 148.299 65.7944C145.104 65.7944 143.26 63.7785 143.26 60.5831C143.26 57.1089 145.383 55.2646 148.321 55.2646C149.5 55.2646 150.465 55.522 151.152 55.8222L151.709 53.7206C151.173 53.4418 149.951 53.0772 148.214 53.0772C143.796 53.0772 140.472 55.9509 140.472 60.7118C140.472 65.1296 143.26 68.0033 147.849 68.0033C149.608 68.0033 150.98 67.6601 151.602 67.3599L151.173 65.2797Z" fill="white"/>
<path d="M158.149 57.0875C154.996 57.0875 152.744 59.1892 152.744 62.6204C152.744 65.9874 155.039 68.0033 157.977 68.0033C160.636 68.0033 163.338 66.2876 163.338 62.4489C163.338 59.2749 161.258 57.0875 158.149 57.0875ZM158.084 58.9962C159.886 58.9962 160.615 60.8834 160.615 62.5132C160.615 64.6363 159.564 66.0946 158.063 66.0946C156.476 66.0946 155.468 64.572 155.468 62.5561C155.468 60.819 156.219 58.9962 158.084 58.9962Z" fill="white"/>
<path d="M168.152 67.7674V57.3234H165.514V67.7674H168.152ZM166.844 52.97C165.965 52.97 165.364 53.5919 165.364 54.4068C165.364 55.1789 165.943 55.8222 166.822 55.8222C167.744 55.8222 168.324 55.1789 168.324 54.4068C168.302 53.5919 167.744 52.97 166.844 52.97Z" fill="white"/>
<path d="M171.001 67.7674H173.639V61.6125C173.639 61.3123 173.682 60.9906 173.768 60.7761C174.046 59.9826 174.776 59.232 175.826 59.232C177.263 59.232 177.821 60.3687 177.821 61.8699V67.7674H180.459V61.5696C180.459 58.267 178.571 57.0875 176.749 57.0875C175.012 57.0875 173.875 58.074 173.403 58.8889H173.339L173.21 57.3234H170.915C170.958 58.2241 171.001 59.232 171.001 60.433V67.7674Z" fill="white"/>
</svg>
