<svg xmlns="http://www.w3.org/2000/svg" width="253" height="136" viewBox="0 0 253 136" fill="none">
<path d="M132.284 41.0533C129.723 39.9767 127.217 38.9001 124.766 37.8235C122.353 36.7098 119.885 35.6518 117.36 34.6494C114.836 33.6842 112.33 32.7004 109.843 31.698C107.355 30.6957 104.831 29.7676 102.269 28.9137C101.749 31.1412 101.545 33.3129 101.657 35.429C101.768 37.508 101.861 39.6055 101.935 41.7216C101.267 42.0557 100.729 42.2784 100.32 42.3898C99.9118 42.5012 99.5777 42.4826 99.3179 42.3341C99.0951 42.1856 98.9095 41.8886 98.761 41.4431C98.6496 40.9976 98.5382 40.3851 98.4269 39.6055C97.6844 34.8907 97.4431 30.2502 97.703 25.6839C97.9257 21.1176 98.6311 16.5328 99.819 11.9294C100.19 10.4444 100.58 8.97802 100.988 7.53018C101.434 6.04521 101.898 4.59737 102.381 3.18665C102.566 2.59266 102.733 2.1286 102.882 1.79449C103.03 1.42324 103.197 1.18194 103.383 1.07057C103.606 0.92207 103.884 0.866383 104.218 0.903507C104.552 0.940631 104.979 1.01488 105.499 1.12625C105.87 1.2005 106.204 1.31187 106.501 1.46037C106.798 1.57174 107.114 1.70168 107.448 1.85018C106.631 5.1171 105.796 8.34691 104.942 11.5396C104.125 14.6951 103.439 17.9806 102.882 21.3961C103.624 20.8763 104.163 20.3566 104.497 19.8368C104.831 19.28 105.054 18.6303 105.165 17.8878C105.573 15.8089 106 13.767 106.446 11.7623C106.891 9.7205 107.318 7.67867 107.726 5.63684C107.764 5.22848 107.968 4.89436 108.339 4.63449C107.931 6.78769 107.541 8.9409 107.17 11.0941C106.798 13.2102 106.409 15.3448 106 17.498C106.037 17.5352 106.074 17.5723 106.112 17.6094C106.186 17.6094 106.242 17.628 106.279 17.6651C106.464 17.5537 106.631 17.4423 106.78 17.331C106.965 17.2196 107.132 17.0711 107.281 16.8855C108.952 15.252 110.678 13.767 112.46 12.4306C114.279 11.0941 116.172 9.83188 118.14 8.6439C118.214 8.60678 118.27 8.56966 118.307 8.53253C118.344 8.49541 118.381 8.47684 118.418 8.47684C118.678 8.32835 118.938 8.19841 119.198 8.08704C119.495 7.97567 119.755 8.06848 119.977 8.36547C120.089 8.58822 120.126 8.84809 120.089 9.14508C120.089 9.44207 120.107 9.73907 120.145 10.0361C120.367 10.0361 120.59 9.94325 120.813 9.75763C121.073 9.53488 121.333 9.34926 121.592 9.20077C121.852 9.01514 122.112 8.9409 122.372 8.97802C122.669 9.01515 122.985 9.27502 123.319 9.75763C121.797 11.057 120.256 12.3378 118.697 13.6C117.137 14.8622 115.578 16.143 114.019 17.4423C112.497 18.7417 110.975 20.0967 109.453 21.5074C107.968 22.9182 106.539 24.4403 105.165 26.0737C105.573 26.2593 105.907 26.445 106.167 26.6306C106.427 26.7791 106.687 26.909 106.947 27.0204C108.766 27.9485 110.566 28.858 112.348 29.749C114.168 30.64 115.968 31.5124 117.75 32.3663C118.715 32.8118 119.68 33.2387 120.646 33.6471C121.611 34.0554 122.576 34.4638 123.541 34.8722C124.655 35.2805 125.787 35.6703 126.938 36.0416C128.126 36.4128 129.259 36.8026 130.335 37.211C131.152 37.4708 131.709 37.8792 132.006 38.4361C132.303 38.9929 132.396 39.8654 132.284 41.0533ZM133.254 30.0831C132.772 30.7885 132.326 31.4567 131.918 32.0878C131.509 32.7189 131.101 33.3501 130.693 33.9812C130.284 34.6494 129.746 35.132 129.078 35.429C128.447 35.6889 127.76 35.8559 127.017 35.9302C126.052 36.0416 125.291 35.7074 124.734 34.9278C124.586 34.7422 124.456 34.5566 124.344 34.371C124.233 34.1854 124.14 33.9812 124.066 33.7584C123.472 31.828 123.231 29.9346 123.342 28.0784C123.416 26.2222 124.066 24.4217 125.291 22.6769C125.811 21.8972 126.461 21.2847 127.24 20.8392C128.057 20.3566 128.911 20.041 129.802 19.8925C130.693 19.7069 131.602 19.6884 132.53 19.8368C133.458 19.9853 134.294 20.3195 135.036 20.8392C135.519 21.1362 136.02 21.2847 136.54 21.2847C136.948 21.3218 137.264 21.3589 137.486 21.3961C137.709 21.4332 137.858 21.5074 137.932 21.6188C138.043 21.7302 138.08 21.8972 138.043 22.12C138.006 22.3427 137.932 22.6583 137.821 23.0667C137.635 23.9205 137.449 24.7929 137.264 25.6839C137.115 26.5378 136.948 27.4102 136.763 28.3012C136.725 28.4868 136.707 28.691 136.707 28.9137C136.744 29.0993 136.763 29.3592 136.763 29.6933C137.022 29.5077 137.245 29.3592 137.431 29.2478C137.616 29.1365 137.765 29.0065 137.876 28.858C138.248 28.4497 138.563 28.1155 138.823 27.8557C139.12 27.5587 139.398 27.2988 139.658 27.0761C139.918 26.8162 140.178 26.5563 140.438 26.2965C140.698 26.0366 141.013 25.7025 141.385 25.2941C141.756 24.8486 142.053 24.6073 142.275 24.5702C142.535 24.5331 143.055 24.6073 143.835 24.7929C143.723 24.9786 143.612 25.1642 143.501 25.3498C143.426 25.4983 143.334 25.6468 143.222 25.7953C142.814 26.2408 142.461 26.6306 142.164 26.9647C141.904 27.2988 141.644 27.6329 141.385 27.9671C141.125 28.264 140.846 28.5796 140.549 28.9137C140.289 29.2478 139.955 29.6376 139.547 30.0831C139.101 30.64 138.619 31.104 138.099 31.4753C137.245 32.1064 136.373 32.292 135.482 32.0322C134.591 31.7723 133.848 31.1226 133.254 30.0831ZM127.686 32.7561C127.76 32.7932 127.834 32.8303 127.908 32.8674C128.02 32.9046 128.113 32.9417 128.187 32.9788C129.226 31.4196 130.247 29.8789 131.25 28.3569C132.252 26.8348 133.236 25.3127 134.201 23.7906C133.904 23.4936 133.626 23.2152 133.366 22.9553C133.143 22.6954 132.92 22.4541 132.697 22.2314C132.178 21.7116 131.769 21.4518 131.472 21.4518C131.175 21.4146 130.767 21.6559 130.247 22.1757C129.987 22.3984 129.746 22.6397 129.523 22.8996C128.41 24.4217 127.741 25.9995 127.519 27.6329C127.333 29.2664 127.389 30.9741 127.686 32.7561ZM147.039 26.909C147.856 28.2084 148.58 29.0065 149.211 29.3035C149.842 29.6005 150.418 29.6005 150.937 29.3035C151.494 29.0065 152.032 28.4868 152.552 27.7443C153.072 26.9647 153.666 26.1294 154.334 25.2384C154.52 24.9786 154.724 24.7929 154.947 24.6816C155.207 24.5331 155.392 24.4774 155.504 24.5145C155.652 24.5516 155.726 24.6816 155.726 24.9043C155.763 25.0899 155.652 25.4055 155.392 25.851C154.724 27.0018 154.056 28.1155 153.388 29.1922C152.756 30.2316 152.051 31.0112 151.271 31.531C150.492 32.0507 149.601 32.1992 148.598 31.9765C147.596 31.7166 146.408 30.8627 145.035 29.4149C144.923 29.6376 144.849 30.0274 144.812 30.5843C144.812 31.104 144.83 31.6795 144.868 32.3106C144.905 32.9046 144.942 33.48 144.979 34.0369C145.053 34.5566 145.09 34.9278 145.09 35.1506C145.09 35.6703 144.979 36.1529 144.756 36.5984C144.571 37.0068 144.329 37.2852 144.032 37.4337C143.735 37.5822 143.42 37.5451 143.086 37.3224C142.751 37.0625 142.454 36.4871 142.195 35.5961C141.786 34.371 141.508 32.9046 141.359 31.1969C141.211 29.4891 141.174 27.7257 141.248 25.9067C141.285 24.0876 141.396 22.3242 141.582 20.6165C141.731 18.8716 141.898 17.3867 142.083 16.1616C142.269 15.085 142.454 14.0084 142.64 12.9317C142.863 11.818 143.104 10.7229 143.364 9.64626C143.438 9.31214 143.55 8.97802 143.698 8.6439C143.847 8.30979 143.995 7.97567 144.144 7.64155C144.478 6.89907 144.83 6.45358 145.202 6.30508C145.61 6.15658 146.241 6.11946 147.095 6.19371C146.909 7.49305 146.705 8.90377 146.482 10.4259C146.26 11.948 146.037 13.5072 145.814 15.1035C145.629 16.6999 145.48 18.2962 145.369 19.8925C145.257 21.4518 145.22 22.9182 145.257 24.2918C145.48 23.9205 145.758 23.5121 146.093 23.0667C146.464 22.584 146.854 22.12 147.262 21.6745C147.67 21.229 148.079 20.8206 148.487 20.4494C148.933 20.041 149.36 19.7255 149.768 19.5027C150.399 19.1315 151.03 18.9644 151.661 19.0016C152.07 18.9644 152.348 19.0572 152.497 19.28C152.682 19.5027 152.645 19.7812 152.385 20.1153C151.531 21.229 150.585 22.3242 149.545 23.4008C148.506 24.4774 147.67 25.6468 147.039 26.909Z" fill="white"/>
<g filter="url(#filter0_d_366_8407)">
<path d="M2.71693 57.4729V87.6172H8.57583V62.5715H14.5689V87.6172H20.4278V57.4729H2.71693ZM25.6033 87.6172H31.4622V76.3914C31.8647 76.4361 32.2225 76.4361 32.625 76.4361C35.0848 76.4361 38.0814 75.5416 39.9598 73.529C41.5252 71.8742 42.5091 69.5485 42.5091 66.2836C42.5091 63.7343 41.7041 61.2298 39.9151 59.6644C37.9919 57.8307 35.219 57.3387 31.7305 57.3387C29.4943 57.3387 27.2581 57.5624 25.6033 57.9202V87.6172ZM31.4622 62.3032C31.82 62.169 32.3566 62.0795 32.8933 62.0795C35.6215 62.0795 36.6949 64.1369 36.6949 66.7756C36.6949 69.5932 35.3979 71.6953 32.4461 71.6953C32.0883 71.6953 31.7752 71.6953 31.4622 71.6506V62.3032ZM54.5414 57.1151C47.8327 57.1151 44.5678 64.2263 44.5678 72.4556C44.5678 80.7296 47.2513 87.975 54.0941 87.975C59.8188 87.975 63.844 83.3684 63.844 72.0084C63.844 65.1208 61.7867 57.1151 54.5414 57.1151ZM54.273 62.2137C56.9565 62.2137 57.7615 66.9992 57.7615 72.2767C57.7615 78.404 56.8223 82.8764 54.3177 82.8764C51.9473 82.8764 50.6503 79.3879 50.6503 72.5451C50.6503 66.06 51.9473 62.2137 54.273 62.2137ZM69.3913 57.4729V65.0761C69.3913 68.6093 69.1229 72.1425 68.5415 75.5863C68.0495 78.0462 67.4234 80.3271 66.4842 82.6081L64.3821 82.6975L64.6058 94.1917H69.0335L69.2571 87.6172H82.3166L82.585 94.1917H87.0127L87.281 82.6975L84.9106 82.6081V57.4729H69.3913ZM74.7582 62.5715H79.0517V82.5186H72.522C73.1481 80.6849 73.6848 78.404 73.9979 76.2125C74.4899 72.9923 74.7582 69.5038 74.7582 66.06V62.5715ZM90.5498 87.483C91.8915 87.7066 93.7699 87.8408 96.0061 87.8408C101.06 87.8408 104.101 86.7674 105.89 84.7995C107.321 83.3236 108.126 81.3558 108.126 78.8959C108.126 75.5416 106.293 72.6792 102.804 71.6953V71.5164C105.756 70.2194 107.143 67.6254 107.143 64.9419C107.143 62.8399 106.472 60.8273 104.862 59.4855C102.76 57.6965 100.031 57.3387 97.2137 57.3387C94.7091 57.3387 92.3387 57.5176 90.5498 57.9202V87.483ZM96.4087 61.9006C96.7665 61.7665 97.3032 61.7217 97.974 61.7217C100.344 61.7217 101.373 63.4213 101.373 65.6128C101.373 68.0726 99.763 69.8616 97.661 69.8616H96.4087V61.9006ZM96.4087 74.1999H97.661C99.9866 74.1999 102.044 75.7652 102.044 78.8065C102.044 81.8477 100.121 83.3236 97.7057 83.3236C97.2137 83.3236 96.7665 83.3236 96.4087 83.2342V74.1999ZM112.169 57.4729V87.6172H117.581L122.009 76.123C122.993 73.5737 124.335 69.951 125.05 67.2676H125.14C124.961 70.3088 124.737 74.7813 124.737 80.8191V87.6172H129.88V57.4729H124.558L120.13 69.146C119.236 71.4269 117.715 75.4074 116.866 78.0014H116.776C117 74.8707 117.358 69.6827 117.358 64.1369V57.4729H112.169ZM135.099 57.4729V87.6172H140.958V75.0049H147.086V87.6172H152.945V57.4729H147.086V69.5485H140.958V57.4729H135.099ZM155.031 57.4729L162.053 78.4487C162.276 79.1195 162.321 79.6115 162.097 80.2377C161.65 81.7136 160.398 83.2789 158.877 83.2789C158.162 83.2789 157.714 83.1895 157.446 83.1447L157.222 87.9303C157.804 88.1092 158.564 88.1986 159.593 88.1986C162.097 88.1986 164.289 86.6332 165.72 84.2629C167.241 81.7136 168.403 77.5542 169.432 73.7526L173.905 57.4729H167.956L165.944 68.9224C165.675 70.6219 165.452 72.4556 165.228 73.8868H165.094C164.87 72.5451 164.512 70.7561 164.11 69.0565L161.337 57.4729H155.031ZM180.861 87.6172H186.72V62.8846H192.087V57.4729H175.539V62.8846H180.861V87.6172ZM195.154 57.4729V87.483C196.496 87.7066 198.374 87.8408 200.611 87.8408C204.904 87.8408 208.169 86.7227 210.226 84.5759C211.792 82.9658 212.731 80.7743 212.731 77.7778C212.731 72.0531 209.064 68.5646 203.339 68.5646C202.131 68.5646 201.46 68.654 200.968 68.7435V57.4729H195.154ZM201.013 73.4395C201.371 73.3501 201.863 73.3054 202.355 73.3054C205.173 73.3054 206.648 75.4074 206.648 78.1356C206.648 80.8638 205.128 83.1447 202.131 83.1447C201.773 83.1447 201.416 83.1447 201.013 83.0553V73.4395ZM230.245 82.2503C229.53 82.4739 228.412 82.6975 227.428 82.6975C223.85 82.6975 221.122 79.8799 221.122 72.6792C221.122 65.2102 224.118 62.3479 227.428 62.3479C228.725 62.3479 229.485 62.6162 230.156 62.9293L231.14 58.0096C230.559 57.6071 229.127 57.2046 227.07 57.2046C221.211 57.2046 214.905 61.6323 214.905 72.9923C214.905 81.5794 218.572 87.8855 226.31 87.8855C228.322 87.8855 229.977 87.5725 230.827 87.1699L230.245 82.2503ZM238.484 87.6172C238.886 86.7674 239.155 85.8729 239.334 84.9784C239.826 82.6975 240.049 78.3592 241.346 76.6597C241.928 75.9441 242.777 75.5863 243.806 75.5863H244.432V87.6172H250.291V57.9202C248.457 57.5624 246.132 57.3387 243.896 57.3387C240.81 57.3387 238.126 58.0543 236.248 59.575C234.593 60.9167 233.43 63.0188 233.43 66.1495C233.43 69.951 235.487 72.4109 238.618 73.3501V73.4395C237.858 73.7079 237.053 74.1999 236.471 74.7813C234.235 77.1069 234.28 81.3558 233.43 84.397C233.117 85.5599 232.714 86.678 232.312 87.6172H238.484ZM244.432 71.0244C244.119 71.0691 243.985 71.0691 243.582 71.0691C241.033 71.0691 239.378 69.2354 239.378 66.3731C239.378 64.0921 240.541 61.9006 243.269 61.9006C243.717 61.9006 244.119 61.9454 244.432 62.0348V71.0244Z" fill="#02B8FA"/>
<path d="M2.71693 57.4729V56.596H1.83998V57.4729H2.71693ZM2.71693 87.6172H1.83998V88.4941H2.71693V87.6172ZM8.57583 87.6172V88.4941H9.45278V87.6172H8.57583ZM8.57583 62.5715V61.6946H7.69888V62.5715H8.57583ZM14.5689 62.5715H15.4459V61.6946H14.5689V62.5715ZM14.5689 87.6172H13.692V88.4941H14.5689V87.6172ZM20.4278 87.6172V88.4941H21.3048V87.6172H20.4278ZM20.4278 57.4729H21.3048V56.596H20.4278V57.4729ZM1.83998 57.4729V87.6172H3.59388V57.4729H1.83998ZM2.71693 88.4941H8.57583V86.7402H2.71693V88.4941ZM9.45278 87.6172V62.5715H7.69888V87.6172H9.45278ZM8.57583 63.4485H14.5689V61.6946H8.57583V63.4485ZM13.692 62.5715V87.6172H15.4459V62.5715H13.692ZM14.5689 88.4941H20.4278V86.7402H14.5689V88.4941ZM21.3048 87.6172V57.4729H19.5509V87.6172H21.3048ZM20.4278 56.596H2.71693V58.3499H20.4278V56.596ZM25.6033 87.6172H24.7263V88.4941H25.6033V87.6172ZM31.4622 87.6172V88.4941H32.3391V87.6172H31.4622ZM31.4622 76.3914L31.559 75.5198L30.5852 75.4116V76.3914H31.4622ZM39.9598 73.529L39.3227 72.9263L39.3187 72.9306L39.9598 73.529ZM39.9151 59.6644L39.3099 60.2991L39.3235 60.312L39.3376 60.3244L39.9151 59.6644ZM25.6033 57.9202L25.4179 57.063L24.7263 57.2126V57.9202H25.6033ZM31.4622 62.3032L31.1542 61.482L30.5852 61.6954V62.3032H31.4622ZM31.4622 71.6506H30.5852V72.4111L31.3381 72.5187L31.4622 71.6506ZM25.6033 88.4941H31.4622V86.7402H25.6033V88.4941ZM32.3391 87.6172V76.3914H30.5852V87.6172H32.3391ZM31.3653 77.2629C31.8231 77.3138 32.2276 77.313 32.625 77.313V75.5591C32.2174 75.5591 31.9063 75.5584 31.559 75.5198L31.3653 77.2629ZM32.625 77.313C35.25 77.313 38.5101 76.3675 40.6009 74.1273L39.3187 72.9306C37.6527 74.7156 34.9197 75.5591 32.625 75.5591V77.313ZM40.5969 74.1316C42.3373 72.2917 43.386 69.74 43.386 66.2836H41.6321C41.6321 69.357 40.713 71.4567 39.3227 72.9264L40.5969 74.1316ZM43.386 66.2836C43.386 63.5773 42.5337 60.7904 40.4925 59.0044L39.3376 60.3244C40.8744 61.6691 41.6321 63.8914 41.6321 66.2836H43.386ZM40.5202 59.0297C38.3356 56.9467 35.256 56.4618 31.7305 56.4618V58.2157C35.182 58.2157 37.6483 58.7147 39.3099 60.2991L40.5202 59.0297ZM31.7305 56.4618C29.4449 56.4618 27.1451 56.6896 25.4179 57.063L25.7886 58.7773C27.371 58.4352 29.5436 58.2157 31.7305 58.2157V56.4618ZM24.7263 57.9202V87.6172H26.4802V57.9202H24.7263ZM31.7701 63.1243C32.0068 63.0355 32.4346 62.9565 32.8933 62.9565V61.2026C32.2787 61.2026 31.6331 61.3025 31.1542 61.482L31.7701 63.1243ZM32.8933 62.9565C34.006 62.9565 34.6785 63.3589 35.1061 63.9513C35.5663 64.5888 35.818 65.5543 35.818 66.7756H37.5719C37.5719 65.3581 37.2868 63.9757 36.5282 62.9248C35.7371 61.8288 34.5089 61.2026 32.8933 61.2026V62.9565ZM35.818 66.7756C35.818 68.066 35.519 69.0778 34.9892 69.7485C34.4849 70.387 33.6924 70.8183 32.4461 70.8183V72.5722C34.1516 72.5722 35.4835 71.9525 36.3656 70.8356C37.2223 69.7509 37.5719 68.3028 37.5719 66.7756H35.818ZM32.4461 70.8183C32.0761 70.8183 31.8267 70.8168 31.5862 70.7824L31.3381 72.5187C31.7237 72.5738 32.1005 72.5722 32.4461 72.5722V70.8183ZM32.3391 71.6506V62.3032H30.5852V71.6506H32.3391ZM54.5414 56.2382C50.815 56.2382 48.0619 58.2378 46.2834 61.254C44.5237 64.2383 43.6909 68.243 43.6909 72.4556H45.4448C45.4448 68.4389 46.2443 64.7734 47.7942 62.1448C49.3254 59.548 51.5591 57.9921 54.5414 57.9921V56.2382ZM43.6909 72.4556C43.6909 76.6652 44.37 80.7083 45.9921 83.7325C47.6386 86.8025 50.2864 88.8519 54.0941 88.8519V87.098C51.059 87.098 48.9436 85.5248 47.5377 82.9036C46.1073 80.2366 45.4448 76.5201 45.4448 72.4556H43.6909ZM54.0941 88.8519C57.2295 88.8519 59.9493 87.5701 61.8445 84.7396C63.7046 81.9616 64.721 77.7684 64.721 72.0084H62.9671C62.9671 77.6083 61.9709 81.3985 60.3872 83.7638C58.8386 86.0765 56.6834 87.098 54.0941 87.098V88.8519ZM64.721 72.0084C64.721 68.5017 64.2009 64.6241 62.6953 61.5892C61.1664 58.5073 58.577 56.2382 54.5414 56.2382V57.9921C57.7511 57.9921 59.813 59.7258 61.1241 62.3686C62.4585 65.0584 62.9671 68.6274 62.9671 72.0084H64.721ZM54.273 63.0907C54.6422 63.0907 54.9652 63.2403 55.2829 63.6129C55.6216 64.0102 55.9296 64.6398 56.1811 65.5097C56.6831 67.2457 56.8846 69.6627 56.8846 72.2767H58.6385C58.6385 69.6132 58.4374 66.9987 57.866 65.0226C57.5809 64.0365 57.1844 63.1398 56.6175 62.4749C56.0295 61.7853 55.2455 61.3368 54.273 61.3368V63.0907ZM56.8846 72.2767C56.8846 75.3152 56.6496 77.866 56.1368 79.6294C55.8798 80.5131 55.5721 81.1304 55.2458 81.512C54.9404 81.8694 54.6422 81.9994 54.3177 81.9994V83.7533C55.2456 83.7533 56.004 83.3243 56.579 82.6517C57.1333 82.0033 57.53 81.1195 57.8209 80.1191C58.4039 78.1145 58.6385 75.3655 58.6385 72.2767H56.8846ZM54.3177 81.9994C53.6921 81.9994 52.9952 81.5802 52.4205 79.9803C51.8512 78.3958 51.5273 75.9333 51.5273 72.5451H49.7734C49.7734 75.9997 50.0979 78.7028 50.7698 80.5733C51.4362 82.4283 52.573 83.7533 54.3177 83.7533V81.9994ZM51.5273 72.5451C51.5273 69.3421 51.8499 66.8723 52.418 65.235C53.0064 63.5395 53.7097 63.0907 54.273 63.0907V61.3368C52.5107 61.3368 51.4026 62.8111 50.7611 64.66C50.0993 66.5671 49.7734 69.2629 49.7734 72.5451H51.5273ZM69.3913 57.4729V56.596H68.5143V57.4729H69.3913ZM68.5415 75.5863L69.4014 75.7583L69.404 75.7453L69.4062 75.7323L68.5415 75.5863ZM66.4842 82.6081L66.5215 83.4842L67.0816 83.4604L67.2951 82.9419L66.4842 82.6081ZM64.3821 82.6975L64.3448 81.8213L63.4887 81.8578L63.5053 82.7146L64.3821 82.6975ZM64.6058 94.1917L63.729 94.2087L63.7457 95.0686H64.6058V94.1917ZM69.0335 94.1917V95.0686H69.8811L69.9099 94.2215L69.0335 94.1917ZM69.2571 87.6172V86.7402H68.4095L68.3807 87.5874L69.2571 87.6172ZM82.3166 87.6172L83.1928 87.5814L83.1585 86.7402H82.3166V87.6172ZM82.585 94.1917L81.7088 94.2274L81.7431 95.0686H82.585V94.1917ZM87.0127 94.1917V95.0686H87.8694L87.8894 94.2121L87.0127 94.1917ZM87.281 82.6975L88.1578 82.718L88.1779 81.8538L87.3141 81.8212L87.281 82.6975ZM84.9106 82.6081H84.0337V83.4525L84.8776 83.4844L84.9106 82.6081ZM84.9106 57.4729H85.7876V56.596H84.9106V57.4729ZM74.7582 62.5715V61.6946H73.8812V62.5715H74.7582ZM79.0517 62.5715H79.9287V61.6946H79.0517V62.5715ZM79.0517 82.5186V83.3956H79.9287V82.5186H79.0517ZM72.522 82.5186L71.6921 82.2352L71.2959 83.3956H72.522V82.5186ZM73.9979 76.2125L73.131 76.08L73.1297 76.0884L73.9979 76.2125ZM68.5143 57.4729V65.0761H70.2682V57.4729H68.5143ZM68.5143 65.0761C68.5143 68.5654 68.2493 72.0495 67.6768 75.4403L69.4062 75.7323C69.9966 72.2356 70.2682 68.6532 70.2682 65.0761H68.5143ZM67.6816 75.4143C67.1975 77.8349 66.5855 80.0588 65.6733 82.2742L67.2951 82.9419C68.2613 80.5954 68.9016 78.2574 69.4014 75.7583L67.6816 75.4143ZM66.4469 81.7319L64.3448 81.8213L64.4194 83.5737L66.5215 83.4842L66.4469 81.7319ZM63.5053 82.7146L63.729 94.2087L65.4825 94.1746L65.2589 82.6804L63.5053 82.7146ZM64.6058 95.0686H69.0335V93.3147H64.6058V95.0686ZM69.9099 94.2215L70.1335 87.647L68.3807 87.5874L68.157 94.1619L69.9099 94.2215ZM69.2571 88.4941H82.3166V86.7402H69.2571V88.4941ZM81.4404 87.653L81.7088 94.2274L83.4612 94.1559L83.1928 87.5814L81.4404 87.653ZM82.585 95.0686H87.0127V93.3147H82.585V95.0686ZM87.8894 94.2121L88.1578 82.718L86.4043 82.677L86.136 94.1712L87.8894 94.2121ZM87.3141 81.8212L84.9437 81.7317L84.8776 83.4844L87.248 83.5738L87.3141 81.8212ZM85.7876 82.6081V57.4729H84.0337V82.6081H85.7876ZM84.9106 56.596H69.3913V58.3499H84.9106V56.596ZM74.7582 63.4485H79.0517V61.6946H74.7582V63.4485ZM78.1748 62.5715V82.5186H79.9287V62.5715H78.1748ZM79.0517 81.6417H72.522V83.3956H79.0517V81.6417ZM73.3519 82.802C73.9977 80.9108 74.5461 78.5759 74.866 76.3365L73.1297 76.0884C72.8235 78.232 72.2986 80.459 71.6921 82.2352L73.3519 82.802ZM74.8648 76.3449C75.3635 73.0803 75.6351 69.5475 75.6351 66.06H73.8812C73.8812 69.4601 73.6162 72.9043 73.131 76.08L74.8648 76.3449ZM75.6351 66.06V62.5715H73.8812V66.06H75.6351ZM90.5498 87.483H89.6728V88.2259L90.4056 88.348L90.5498 87.483ZM105.89 84.7995L105.261 84.1891L105.251 84.1992L105.241 84.2096L105.89 84.7995ZM102.804 71.6953H101.927V72.3591L102.566 72.5393L102.804 71.6953ZM102.804 71.5164L102.451 70.7135L101.927 70.9438V71.5164H102.804ZM104.862 59.4855L104.293 60.1534L104.3 60.1592L104.862 59.4855ZM90.5498 57.9202L90.3573 57.0646L89.6728 57.2186V57.9202H90.5498ZM96.4087 61.9006L96.1008 61.0795L95.5317 61.2929V61.9006H96.4087ZM96.4087 69.8616H95.5317V70.7385H96.4087V69.8616ZM96.4087 74.1999V73.3229H95.5317V74.1999H96.4087ZM96.4087 83.2342H95.5317V83.9189L96.196 84.085L96.4087 83.2342ZM90.4056 88.348C91.8113 88.5823 93.7417 88.7178 96.0061 88.7178V86.9639C93.7982 86.9639 91.9717 86.831 90.6939 86.618L90.4056 88.348ZM96.0061 88.7178C101.152 88.7178 104.502 87.6299 106.539 85.3894L105.241 84.2096C103.7 85.905 100.968 86.9639 96.0061 86.9639V88.7178ZM106.52 85.41C108.124 83.756 109.003 81.5627 109.003 78.8959H107.25C107.25 81.1488 106.519 82.8912 105.261 84.1891L106.52 85.41ZM109.003 78.8959C109.003 75.1935 106.95 71.9534 103.042 70.8513L102.566 72.5393C105.636 73.405 107.25 75.8897 107.25 78.8959H109.003ZM103.681 71.6953V71.5164H101.927V71.6953H103.681ZM103.157 72.3193C106.453 70.8711 108.019 67.9446 108.019 64.9419H106.266C106.266 67.3062 105.059 69.5677 102.451 70.7135L103.157 72.3193ZM108.019 64.9419C108.019 62.6644 107.29 60.3678 105.423 58.8118L104.3 60.1592C105.653 61.2867 106.266 63.0153 106.266 64.9419H108.019ZM105.43 58.8177C103.077 56.8152 100.073 56.4618 97.2137 56.4618V58.2157C99.9895 58.2157 102.442 58.5779 104.293 60.1534L105.43 58.8177ZM97.2137 56.4618C94.6796 56.4618 92.2364 56.6418 90.3573 57.0646L90.7423 58.7757C92.4411 58.3935 94.7387 58.2157 97.2137 58.2157V56.4618ZM89.6728 57.9202V87.483H91.4267V57.9202H89.6728ZM96.7166 62.7218C96.9108 62.6489 97.3035 62.5987 97.974 62.5987V60.8448C97.3028 60.8448 96.6221 60.884 96.1008 61.0795L96.7166 62.7218ZM97.974 62.5987C98.9277 62.5987 99.5092 62.9281 99.875 63.3899C100.266 63.8832 100.496 64.6386 100.496 65.6128H102.25C102.25 64.3954 101.966 63.2054 101.25 62.301C100.509 61.3651 99.3907 60.8448 97.974 60.8448V62.5987ZM100.496 65.6128C100.496 67.6955 99.178 68.9846 97.6609 68.9846V70.7385C100.348 70.7385 102.25 68.4497 102.25 65.6128H100.496ZM97.6609 68.9846H96.4087V70.7385H97.6609V68.9846ZM97.2856 69.8616V61.9006H95.5317V69.8616H97.2856ZM96.4087 75.0768H97.6609V73.3229H96.4087V75.0768ZM97.6609 75.0768C98.6294 75.0768 99.4976 75.4015 100.118 75.9958C100.729 76.5817 101.167 77.494 101.167 78.8065H102.921C102.921 77.0777 102.33 75.6867 101.331 74.7295C100.341 73.7809 99.0181 73.3229 97.6609 73.3229V75.0768ZM101.167 78.8065C101.167 80.1355 100.752 81.0186 100.174 81.572C99.5879 82.1331 98.738 82.4467 97.7057 82.4467V84.2006C99.0885 84.2006 100.408 83.7763 101.387 82.8391C102.374 81.8942 102.921 80.5187 102.921 78.8065H101.167ZM97.7057 82.4467C97.1773 82.4467 96.8518 82.441 96.6214 82.3834L96.196 84.085C96.6811 84.2063 97.2502 84.2006 97.7057 84.2006V82.4467ZM97.2856 83.2342V74.1999H95.5317V83.2342H97.2856ZM112.169 57.4729V56.596H111.293V57.4729H112.169ZM112.169 87.6172H111.293V88.4941H112.169V87.6172ZM117.581 87.6172V88.4941H118.183L118.399 87.9324L117.581 87.6172ZM122.009 76.123L121.191 75.8072L121.191 75.8078L122.009 76.123ZM125.05 67.2676V66.3906H124.376L124.203 67.0416L125.05 67.2676ZM125.14 67.2676L126.015 67.3191L126.07 66.3906H125.14V67.2676ZM124.737 87.6172H123.86V88.4941H124.737V87.6172ZM129.88 87.6172V88.4941H130.757V87.6172H129.88ZM129.88 57.4729H130.757V56.596H129.88V57.4729ZM124.558 57.4729V56.596H123.953L123.738 57.1619L124.558 57.4729ZM120.13 69.146L120.947 69.4662L120.95 69.457L120.13 69.146ZM116.866 78.0014V78.8784H117.501L117.699 78.2744L116.866 78.0014ZM116.776 78.0014L115.901 77.939L115.834 78.8784H116.776V78.0014ZM117.358 57.4729H118.234V56.596H117.358V57.4729ZM111.293 57.4729V87.6172H113.046V57.4729H111.293ZM112.169 88.4941H117.581V86.7402H112.169V88.4941ZM118.399 87.9324L122.827 76.4382L121.191 75.8078L116.763 87.302L118.399 87.9324ZM122.827 76.4388C123.81 73.8911 125.168 70.2281 125.897 67.4935L124.203 67.0416C123.501 69.674 122.175 73.2564 121.191 75.8072L122.827 76.4388ZM125.05 68.1445H125.14V66.3906H125.05V68.1445ZM124.264 67.2161C124.085 70.2677 123.86 74.7584 123.86 80.8191H125.614C125.614 74.8041 125.837 70.35 126.015 67.3191L124.264 67.2161ZM123.86 80.8191V87.6172H125.614V80.8191H123.86ZM124.737 88.4941H129.88V86.7402H124.737V88.4941ZM130.757 87.6172V57.4729H129.003V87.6172H130.757ZM129.88 56.596H124.558V58.3499H129.88V56.596ZM123.738 57.1619L119.31 68.835L120.95 69.457L125.378 57.7839L123.738 57.1619ZM119.314 68.8258C118.419 71.107 116.891 75.1082 116.032 77.7284L117.699 78.2744C118.54 75.7067 120.052 71.7469 120.947 69.4662L119.314 68.8258ZM116.866 77.1245H116.776V78.8784H116.866V77.1245ZM117.651 78.0639C117.875 74.9313 118.234 69.7164 118.234 64.1369H116.481C116.481 69.649 116.125 74.8101 115.901 77.939L117.651 78.0639ZM118.234 64.1369V57.4729H116.481V64.1369H118.234ZM117.358 56.596H112.169V58.3499H117.358V56.596ZM135.1 57.4729V56.596H134.223V57.4729H135.1ZM135.1 87.6172H134.223V88.4941H135.1V87.6172ZM140.958 87.6172V88.4941H141.835V87.6172H140.958ZM140.958 75.0049V74.1279H140.081V75.0049H140.958ZM147.086 75.0049H147.963V74.1279H147.086V75.0049ZM147.086 87.6172H146.209V88.4941H147.086V87.6172ZM152.945 87.6172V88.4941H153.821V87.6172H152.945ZM152.945 57.4729H153.821V56.596H152.945V57.4729ZM147.086 57.4729V56.596H146.209V57.4729H147.086ZM147.086 69.5485V70.4255H147.963V69.5485H147.086ZM140.958 69.5485H140.081V70.4255H140.958V69.5485ZM140.958 57.4729H141.835V56.596H140.958V57.4729ZM134.223 57.4729V87.6172H135.976V57.4729H134.223ZM135.1 88.4941H140.958V86.7402H135.1V88.4941ZM141.835 87.6172V75.0049H140.081V87.6172H141.835ZM140.958 75.8818H147.086V74.1279H140.958V75.8818ZM146.209 75.0049V87.6172H147.963V75.0049H146.209ZM147.086 88.4941H152.945V86.7402H147.086V88.4941ZM153.821 87.6172V57.4729H152.068V87.6172H153.821ZM152.945 56.596H147.086V58.3499H152.945V56.596ZM146.209 57.4729V69.5485H147.963V57.4729H146.209ZM147.086 68.6716H140.958V70.4255H147.086V68.6716ZM141.835 69.5485V57.4729H140.081V69.5485H141.835ZM140.958 56.596H135.1V58.3499H140.958V56.596ZM155.031 57.4729V56.596H153.813L154.199 57.7513L155.031 57.4729ZM162.053 78.4487L162.885 78.1714L162.884 78.1703L162.053 78.4487ZM162.097 80.2377L161.271 79.9427L161.264 79.9629L161.258 79.9833L162.097 80.2377ZM157.446 83.1447L157.59 82.2797L156.616 82.1174L156.57 83.1038L157.446 83.1447ZM157.222 87.9303L156.346 87.8893L156.315 88.5685L156.964 88.7684L157.222 87.9303ZM165.72 84.2629L166.471 84.7161L166.473 84.7121L165.72 84.2629ZM169.432 73.7526L168.587 73.5203L168.586 73.5236L169.432 73.7526ZM173.905 57.4729L174.75 57.7052L175.055 56.596H173.905V57.4729ZM167.956 57.4729V56.596H167.22L167.093 57.3211L167.956 57.4729ZM165.944 68.9224L165.08 68.7706L165.079 68.7781L165.077 68.7856L165.944 68.9224ZM165.228 73.8868V74.7637H165.979L166.094 74.0222L165.228 73.8868ZM165.094 73.8868L164.229 74.031L164.351 74.7637H165.094V73.8868ZM164.11 69.0565L164.963 68.8544L164.963 68.8524L164.11 69.0565ZM161.337 57.4729L162.19 57.2688L162.029 56.596H161.337V57.4729ZM154.199 57.7513L161.221 78.7271L162.884 78.1703L155.862 57.1945L154.199 57.7513ZM161.221 78.726C161.403 79.2735 161.41 79.5551 161.271 79.9427L162.923 80.5326C163.232 79.6679 163.149 78.9656 162.885 78.1714L161.221 78.726ZM161.258 79.9833C161.072 80.599 160.714 81.2338 160.261 81.7009C159.805 82.1706 159.324 82.402 158.877 82.402V84.1559C159.951 84.1559 160.857 83.6046 161.519 82.9226C162.184 82.238 162.676 81.3522 162.937 80.492L161.258 79.9833ZM158.877 82.402C158.243 82.402 157.861 82.3249 157.59 82.2797L157.302 84.0098C157.567 84.054 158.08 84.1559 158.877 84.1559V82.402ZM156.57 83.1038L156.346 87.8893L158.098 87.9712L158.322 83.1857L156.57 83.1038ZM156.964 88.7684C157.665 88.9839 158.524 89.0756 159.593 89.0756V87.3217C158.605 87.3217 157.943 87.2344 157.48 87.0921L156.964 88.7684ZM159.593 89.0756C162.493 89.0756 164.933 87.2635 166.471 84.7161L164.969 83.8096C163.645 86.003 161.702 87.3217 159.593 87.3217V89.0756ZM166.473 84.7121C168.069 82.0365 169.261 77.7427 170.279 73.9817L168.586 73.5236C167.546 77.3657 166.412 81.3907 164.967 83.8136L166.473 84.7121ZM170.278 73.9849L174.75 57.7052L173.059 57.2406L168.587 73.5203L170.278 73.9849ZM173.905 56.596H167.956V58.3499H173.905V56.596ZM167.093 57.3211L165.08 68.7706L166.807 69.0742L168.82 57.6247L167.093 57.3211ZM165.077 68.7856C164.942 69.6449 164.818 70.536 164.7 71.3852C164.583 72.2381 164.472 73.0453 164.362 73.7514L166.094 74.0222C166.208 73.2971 166.321 72.4718 166.438 71.6252C166.555 70.7748 166.677 69.8994 166.81 69.0591L165.077 68.7856ZM165.228 73.0098H165.094V74.7637H165.228V73.0098ZM165.959 73.7426C165.732 72.3802 165.37 70.5718 164.963 68.8544L163.257 69.2587C163.655 70.9403 164.009 72.71 164.229 74.031L165.959 73.7426ZM164.963 68.8524L162.19 57.2688L160.484 57.6771L163.257 69.2607L164.963 68.8524ZM161.337 56.596H155.031V58.3499H161.337V56.596ZM180.861 87.6172H179.984V88.4941H180.861V87.6172ZM186.72 87.6172V88.4941H187.597V87.6172H186.72ZM186.72 62.8846V62.0076H185.843V62.8846H186.72ZM192.087 62.8846V63.7615H192.964V62.8846H192.087ZM192.087 57.4729H192.964V56.596H192.087V57.4729ZM175.539 57.4729V56.596H174.662V57.4729H175.539ZM175.539 62.8846H174.662V63.7615H175.539V62.8846ZM180.861 62.8846H181.738V62.0076H180.861V62.8846ZM180.861 88.4941H186.72V86.7402H180.861V88.4941ZM187.597 87.6172V62.8846H185.843V87.6172H187.597ZM186.72 63.7615H192.087V62.0076H186.72V63.7615ZM192.964 62.8846V57.4729H191.21V62.8846H192.964ZM192.087 56.596H175.539V58.3499H192.087V56.596ZM174.662 57.4729V62.8846H176.416V57.4729H174.662ZM175.539 63.7615H180.861V62.0076H175.539V63.7615ZM179.984 62.8846V87.6172H181.738V62.8846H179.984ZM195.154 57.4729V56.596H194.277V57.4729H195.154ZM195.154 87.483H194.277V88.2259L195.01 88.348L195.154 87.483ZM210.226 84.5759L209.598 83.9646L209.593 83.9692L210.226 84.5759ZM200.968 68.7435H200.092V69.7942L201.125 69.6063L200.968 68.7435ZM200.968 57.4729H201.845V56.596H200.968V57.4729ZM201.013 73.4395L200.8 72.5888L200.136 72.7548V73.4395H201.013ZM201.013 83.0553H200.136V83.7588L200.823 83.9114L201.013 83.0553ZM194.277 57.4729V87.483H196.031V57.4729H194.277ZM195.01 88.348C196.416 88.5823 198.346 88.7178 200.611 88.7178V86.9639C198.403 86.9639 196.576 86.831 195.298 86.618L195.01 88.348ZM200.611 88.7178C205.039 88.7178 208.576 87.565 210.86 85.1827L209.593 83.9692C207.762 85.8803 204.769 86.9639 200.611 86.9639V88.7178ZM210.855 85.1872C212.597 83.396 213.608 80.977 213.608 77.7778H211.854C211.854 80.5717 210.987 82.5357 209.598 83.9646L210.855 85.1872ZM213.608 77.7778C213.608 74.7237 212.625 72.1776 210.793 70.3958C208.964 68.617 206.379 67.6876 203.339 67.6876V69.4415C206.023 69.4415 208.134 70.2564 209.57 71.6531C211.003 73.0467 211.854 75.1072 211.854 77.7778H213.608ZM203.339 67.6876C202.081 67.6876 201.357 67.7814 200.812 67.8807L201.125 69.6063C201.563 69.5266 202.182 69.4415 203.339 69.4415V67.6876ZM201.845 68.7435V57.4729H200.092V68.7435H201.845ZM200.968 56.596H195.154V58.3499H200.968V56.596ZM201.226 74.2903C201.488 74.2247 201.902 74.1823 202.355 74.1823V72.4284C201.824 72.4284 201.254 72.4755 200.8 72.5888L201.226 74.2903ZM202.355 74.1823C203.525 74.1823 204.343 74.6085 204.884 75.2584C205.442 75.929 205.771 76.9202 205.771 78.1356H207.525C207.525 76.6228 207.117 75.1989 206.232 74.1364C205.331 73.0533 204.002 72.4284 202.355 72.4284V74.1823ZM205.771 78.1356C205.771 79.3464 205.433 80.3851 204.838 81.1039C204.26 81.8015 203.385 82.2678 202.131 82.2678V84.0217C203.874 84.0217 205.257 83.3475 206.189 82.2226C207.103 81.1188 207.525 79.653 207.525 78.1356H205.771ZM202.131 82.2678C201.767 82.2678 201.5 82.2651 201.203 82.1992L200.823 83.9114C201.331 84.0244 201.78 84.0217 202.131 84.0217V82.2678ZM201.89 83.0553V73.4395H200.136V83.0553H201.89ZM230.245 82.2503L231.116 82.1473L230.992 81.0981L229.984 81.4132L230.245 82.2503ZM230.156 62.9293L229.785 63.724L230.797 64.1961L231.016 63.1013L230.156 62.9293ZM231.14 58.0096L232 58.1816L232.113 57.6166L231.639 57.2886L231.14 58.0096ZM230.827 87.1699L231.202 87.9625L231.772 87.6927L231.698 87.067L230.827 87.1699ZM229.984 81.4132C229.332 81.6169 228.304 81.8205 227.428 81.8205V83.5744C228.52 83.5744 229.728 83.3309 230.507 83.0873L229.984 81.4132ZM227.428 81.8205C225.9 81.8205 224.602 81.2359 223.65 79.8839C222.667 78.4873 221.999 76.19 221.999 72.6792H220.245C220.245 76.3691 220.94 79.0809 222.216 80.8933C223.523 82.7503 225.378 83.5744 227.428 83.5744V81.8205ZM221.999 72.6792C221.999 69.0452 222.73 66.665 223.75 65.218C224.747 63.804 226.055 63.2248 227.428 63.2248V61.4709C225.491 61.4709 223.646 62.3229 222.317 64.2073C221.011 66.0588 220.245 68.8443 220.245 72.6792H221.999ZM227.428 63.2248C228.573 63.2248 229.207 63.4542 229.785 63.724L230.527 62.1346C229.763 61.7783 228.877 61.4709 227.428 61.4709V63.2248ZM231.016 63.1013L232 58.1816L230.28 57.8376L229.296 62.7573L231.016 63.1013ZM231.639 57.2886C231.214 56.994 230.584 56.7615 229.846 56.5996C229.09 56.4335 228.154 56.3276 227.07 56.3276V58.0815C228.043 58.0815 228.852 58.1769 229.47 58.3127C230.108 58.4527 230.485 58.6227 230.641 58.7306L231.639 57.2886ZM227.07 56.3276C223.919 56.3276 220.634 57.5209 218.143 60.2469C215.652 62.9731 214.028 67.1504 214.028 72.9923H215.782C215.782 67.4741 217.311 63.7576 219.438 61.43C221.565 59.1021 224.363 58.0815 227.07 58.0815V56.3276ZM214.028 72.9923C214.028 77.3929 214.965 81.3176 216.991 84.1672C219.045 87.0565 222.167 88.7625 226.31 88.7625V87.0086C222.715 87.0086 220.134 85.5615 218.421 83.1509C216.679 80.7007 215.782 77.1787 215.782 72.9923H214.028ZM226.31 88.7625C228.377 88.7625 230.182 88.4457 231.202 87.9625L230.451 86.3774C229.772 86.6992 228.268 87.0086 226.31 87.0086V88.7625ZM231.698 87.067L231.116 82.1473L229.375 82.3532L229.956 87.2729L231.698 87.067ZM238.484 87.6172V88.4941H239.039L239.276 87.9926L238.484 87.6172ZM239.334 84.9784L238.476 84.7935L238.474 84.8065L239.334 84.9784ZM241.346 76.6597L240.666 76.1067L240.657 76.1171L240.649 76.1277L241.346 76.6597ZM244.432 75.5863H245.309V74.7094H244.432V75.5863ZM244.432 87.6172H243.555V88.4941H244.432V87.6172ZM250.291 87.6172V88.4941H251.168V87.6172H250.291ZM250.291 57.9202H251.168V57.1978L250.459 57.0594L250.291 57.9202ZM236.248 59.575L235.696 58.8934L235.695 58.8938L236.248 59.575ZM238.618 73.3501H239.495V72.6976L238.87 72.5101L238.618 73.3501ZM238.618 73.4395L238.91 74.2665L239.495 74.06V73.4395H238.618ZM236.471 74.7813L235.851 74.1612L235.845 74.1673L235.839 74.1735L236.471 74.7813ZM233.43 84.397L232.585 84.161L232.583 84.169L233.43 84.397ZM232.312 87.6172L231.506 87.2717L230.982 88.4941H232.312V87.6172ZM244.432 71.0244L244.556 71.8926L245.309 71.785V71.0244H244.432ZM244.432 62.0348H245.309V61.3733L244.673 61.1916L244.432 62.0348ZM239.276 87.9926C239.716 87.0645 240.004 86.0989 240.194 85.1504L238.474 84.8065C238.306 85.647 238.057 86.4703 237.691 87.2418L239.276 87.9926ZM240.191 85.1633C240.321 84.5597 240.431 83.8319 240.541 83.0824C240.652 82.3219 240.765 81.5287 240.902 80.7536C241.039 79.9781 241.196 79.246 241.391 78.6152C241.59 77.9738 241.81 77.4972 242.043 77.1917L240.649 76.1277C240.234 76.672 239.939 77.3749 239.716 78.0963C239.489 78.8281 239.317 79.6418 239.174 80.4485C239.032 81.2555 238.915 82.0808 238.806 82.8283C238.694 83.5868 238.592 84.2567 238.476 84.7936L240.191 85.1633ZM242.027 77.2127C242.413 76.7369 242.993 76.4633 243.806 76.4633V74.7094C242.562 74.7094 241.442 75.1513 240.666 76.1067L242.027 77.2127ZM243.806 76.4633H244.432V74.7094H243.806V76.4633ZM243.555 75.5863V87.6172H245.309V75.5863H243.555ZM244.432 88.4941H250.291V86.7402H244.432V88.4941ZM251.168 87.6172V57.9202H249.414V87.6172H251.168ZM250.459 57.0594C248.565 56.6899 246.183 56.4618 243.896 56.4618V58.2157C246.081 58.2157 248.35 58.4348 250.123 58.7809L250.459 57.0594ZM243.896 56.4618C240.692 56.4618 237.785 57.2023 235.696 58.8934L236.799 60.2566C238.467 58.9064 240.927 58.2157 243.896 58.2157V56.4618ZM235.695 58.8938C233.821 60.4138 232.553 62.7736 232.553 66.1495H234.307C234.307 63.2639 235.365 61.4196 236.8 60.2561L235.695 58.8938ZM232.553 66.1495C232.553 68.2132 233.114 69.9698 234.148 71.3493C235.182 72.7272 236.647 73.6744 238.366 74.1901L238.87 72.5101C237.458 72.0866 236.329 71.3342 235.552 70.297C234.775 69.2614 234.307 67.8873 234.307 66.1495H232.553ZM237.741 73.3501V73.4395H239.495V73.3501H237.741ZM238.326 72.6126C237.45 72.9219 236.531 73.4818 235.851 74.1612L237.091 75.4014C237.575 74.918 238.266 74.4939 238.91 74.2665L238.326 72.6126ZM235.839 74.1735C234.543 75.5215 233.955 77.3717 233.574 79.1355C233.381 80.0247 233.233 80.9402 233.085 81.7881C232.935 82.6495 232.785 83.447 232.585 84.161L234.275 84.633C234.5 83.8264 234.663 82.9523 234.813 82.0891C234.966 81.2123 235.105 80.35 235.288 79.5061C235.656 77.8038 236.163 76.3667 237.103 75.3891L235.839 74.1735ZM232.583 84.169C232.282 85.2883 231.894 86.3672 231.506 87.2717L233.118 87.9626C233.535 86.9888 233.952 85.8314 234.277 84.625L232.583 84.169ZM232.312 88.4941H238.484V86.7402H232.312V88.4941ZM244.308 70.1563C244.06 70.1917 243.979 70.1922 243.582 70.1922V71.9461C243.991 71.9461 244.178 71.9466 244.556 71.8926L244.308 70.1563ZM243.582 70.1922C242.53 70.1922 241.726 69.8205 241.177 69.2088C240.62 68.5875 240.255 67.6386 240.255 66.3731H238.501C238.501 67.9699 238.964 69.369 239.872 70.3802C240.788 71.401 242.086 71.9461 243.582 71.9461V70.1922ZM240.255 66.3731C240.255 65.3664 240.514 64.4517 241 63.8114C241.461 63.2031 242.172 62.7776 243.269 62.7776V61.0237C241.639 61.0237 240.404 61.6939 239.602 62.7516C238.824 63.7773 238.501 65.0989 238.501 66.3731H240.255ZM243.269 62.7776C243.668 62.7776 243.983 62.8184 244.191 62.878L244.673 61.1916C244.256 61.0723 243.765 61.0237 243.269 61.0237V62.7776ZM243.555 62.0348V71.0244H245.309V62.0348H243.555Z" fill="#02B8FA"/>
</g>
<rect x="18" y="98" width="200.245" height="37.7088" fill="white"/>
<path d="M49.6474 122.546C49.0458 122.846 48.3583 122.975 47.5418 122.975C44.9206 122.975 43.3307 120.655 43.3307 116.874C43.3307 113.221 44.9206 110.643 47.6278 110.643C48.5731 110.643 49.2607 110.858 49.7333 111.03L50.4638 106.604C49.9052 106.346 48.702 106.045 47.37 106.045C41.5689 106.045 37.7446 110.557 37.7446 117.045C37.7446 123.878 41.2252 127.573 46.5535 127.573C48.1434 127.573 49.5615 127.229 50.1201 126.972L49.6474 122.546ZM84.4486 127.315H78.9238L77.5979 123.31H74.0344L72.2941 119.636L69.725 127.315H64.2003L71.5758 105.216H77.1006L84.4486 127.315ZM75.8576 118.117L74.3382 113.503L72.7913 118.117H75.8576ZM104.368 127.315H98.4293L91.1642 116.238V127.315H85.9433V105.216H97.8216C98.7056 105.216 99.5251 105.419 100.28 105.824C101.054 106.211 101.717 106.736 102.269 107.399C102.822 108.062 103.254 108.835 103.567 109.719C103.899 110.585 104.065 111.496 104.065 112.454C104.065 113.356 103.982 114.157 103.816 114.857C103.65 115.557 103.392 116.183 103.043 116.735C102.693 117.288 102.251 117.776 101.717 118.2C101.183 118.605 100.556 118.973 99.8381 119.304C99.8013 119.323 99.7645 119.351 99.7276 119.387C99.6908 119.424 99.6356 119.461 99.5619 119.498L104.368 127.315ZM99.0923 112.647C99.0923 112.039 98.8897 111.505 98.4846 111.045C98.0794 110.585 97.5822 110.354 96.9929 110.354H91.1366V114.912H97.2139C97.4533 114.912 97.6835 114.839 97.9045 114.691C98.1439 114.544 98.3464 114.36 98.5122 114.139C98.6963 113.918 98.8345 113.678 98.9265 113.421C99.037 113.144 99.0923 112.887 99.0923 112.647ZM124.734 105.216L122.193 110.41H115.149C114.891 110.41 114.606 110.492 114.293 110.658C113.998 110.806 113.712 111.008 113.436 111.266C113.16 111.505 112.911 111.772 112.69 112.067C112.488 112.362 112.35 112.638 112.276 112.896C111.945 114.056 111.779 114.774 111.779 115.05C111.779 119.765 113.123 122.122 115.812 122.122H124.707V127.315H115.287C115.121 127.315 114.836 127.279 114.431 127.205C114.044 127.131 113.538 127.021 112.911 126.873C112.138 126.708 111.392 126.376 110.674 125.879C109.974 125.382 109.339 124.792 108.768 124.111C108.215 123.411 107.746 122.647 107.359 121.818C106.972 120.971 106.724 120.115 106.613 119.249C106.447 117.979 106.365 117.021 106.365 116.376C106.365 114.719 106.595 113.209 107.055 111.846C107.534 110.465 108.197 109.286 109.044 108.31C109.91 107.334 110.941 106.579 112.138 106.045C113.335 105.493 114.67 105.216 116.143 105.216H124.734ZM145.403 127.315H139.519L131.122 114.084V127.315H125.68V105.216H131.785L139.961 118.476V105.216H145.403V127.315ZM163.993 105.216L161.534 110.382H153.109V113.614H161.562V118.78H153.109V122.15H162.86V127.315H147.612V105.216H163.993ZM183.952 105.216L181.411 110.327H176.577V127.315H171.301V110.327H165.389V105.216H183.952Z" fill="#21A497"/>
<defs>
<filter id="filter0_d_366_8407" x="0.963019" y="57.1152" width="251.082" height="40.584" filterUnits="userSpaceOnUse" color-interpolation-filters="sRGB">
<feFlood flood-opacity="0" result="BackgroundImageFix"/>
<feColorMatrix in="SourceAlpha" type="matrix" values="0 0 0 0 0 0 0 0 0 0 0 0 0 0 0 0 0 0 127 0" result="hardAlpha"/>
<feOffset dy="1.7539"/>
<feGaussianBlur stdDeviation="0.87695"/>
<feComposite in2="hardAlpha" operator="out"/>
<feColorMatrix type="matrix" values="0 0 0 0 0 0 0 0 0 0 0 0 0 0 0 0 0 0 0.25 0"/>
<feBlend mode="normal" in2="BackgroundImageFix" result="effect1_dropShadow_366_8407"/>
<feBlend mode="normal" in="SourceGraphic" in2="effect1_dropShadow_366_8407" result="shape"/>
</filter>
</defs>
</svg>