<svg width="202" height="144" viewBox="0 0 202 144" fill="none" xmlns="http://www.w3.org/2000/svg">
<path d="M62.5696 25.2196C62.7181 24.143 62.8666 23.085 63.0151 22.0455C63.2007 20.9689 63.3307 19.8923 63.4049 18.8157C63.4792 17.7019 63.4606 16.5882 63.3492 15.4745C63.275 14.3608 62.978 13.2842 62.4582 12.2447C62.5325 13.0985 62.6253 13.9338 62.7367 14.7506C62.8481 15.5302 62.8852 16.3469 62.8481 17.2008C62.7738 18.4259 62.6624 19.651 62.5139 20.8761C62.3654 22.1012 62.1984 23.3448 62.0128 24.607C61.9756 24.9412 61.8457 25.201 61.623 25.3867C61.4002 25.5351 61.1403 25.5723 60.8433 25.498C60.6577 25.3867 60.4535 25.2382 60.2308 25.0525C60.0081 24.8298 59.8781 24.607 59.841 24.3843C59.8039 23.9759 59.8224 23.5676 59.8967 23.1592C59.9709 22.7508 60.0081 22.3053 60.0081 21.8227C60.0452 20.7461 60.0823 19.651 60.1194 18.5372C60.1565 17.3864 60.1565 16.2541 60.1194 15.1404C60.1194 14.5093 60.0452 13.8967 59.8967 13.3027C59.7482 12.6716 59.5811 12.0219 59.3955 11.3537C58.7644 11.428 58.2261 11.6321 57.7806 11.9663C57.3351 12.3004 56.9267 12.6716 56.5555 13.08C54.4394 15.2332 52.6389 17.6091 51.1539 20.2078C49.7061 22.7694 48.5552 25.5723 47.7014 28.6165C47.1445 30.6583 46.7176 32.7187 46.4206 34.7976C46.1607 36.8766 46.1607 39.0112 46.4206 41.2016C46.532 42.1668 46.699 43.0949 46.9218 43.9859C47.1816 44.8769 47.5714 45.7493 48.0912 46.6031C48.7223 47.6426 49.5019 47.9396 50.43 47.4941C51.3581 46.9744 52.2862 46.4918 53.2143 46.0463C54.1424 45.5637 55.0334 45.0068 55.8873 44.3757C56.8525 43.6332 57.5207 43.1135 57.892 42.8165C58.3003 42.4823 58.6345 42.2039 58.8943 41.9812C59.1913 41.7584 59.5254 41.4986 59.8967 41.2016C60.305 40.8674 60.9918 40.3291 61.9571 39.5867C62.1798 39.401 62.4026 39.2154 62.6253 39.0298C62.8481 38.8071 63.0708 38.64 63.2935 38.5286C63.5534 38.4172 63.8133 38.3987 64.0732 38.4729C64.333 38.5472 64.63 38.7699 64.9641 39.1412C65.1126 39.2525 65.3539 39.2711 65.6881 39.1969C66.0222 39.0855 66.4491 39.0112 66.9688 38.9741C66.6718 39.3825 66.4305 39.698 66.2449 39.9208C66.0593 40.1435 65.8737 40.3477 65.6881 40.5333C64.9827 41.1273 64.4258 41.6285 64.0175 42.0369C63.6091 42.4081 63.2564 42.7422 62.9594 43.0392C62.6624 43.2991 62.4026 43.5404 62.1798 43.7631C61.9571 43.9859 61.6972 44.2457 61.4002 44.5427C61.1032 44.8026 60.732 45.1182 60.2865 45.4894C59.8781 45.8607 59.3213 46.3433 58.6159 46.9373C57.1309 48.2366 55.516 49.0533 53.7712 49.3875C52.0635 49.6844 50.2629 49.7587 48.3696 49.6102C47.4786 49.5359 46.6619 49.2575 45.9194 48.7749C45.1769 48.2552 44.5087 47.6241 43.9147 46.8816C42.9495 45.5822 42.2441 44.1901 41.7986 42.7051C41.3903 41.2201 41.1675 39.6609 41.1304 38.0274C41.0561 32.7558 41.8729 27.9297 43.5806 23.549C45.2883 19.1312 47.8313 15.0661 51.2096 11.3537C52.0635 10.3885 53.0287 9.62743 54.1053 9.07057C55.4046 8.10534 56.8525 7.86403 58.4488 8.34664C58.9314 8.53227 59.4141 8.68076 59.8967 8.79214C60.3793 8.86638 60.8433 8.97776 61.2888 9.12625C62.2541 9.46037 63.0522 9.96155 63.6833 10.6298C64.3145 11.298 64.7228 12.2261 64.9084 13.4141C65.0569 14.3793 65.1312 15.4002 65.1312 16.4768C65.1312 17.5534 65.0384 18.63 64.8528 19.7066C64.7043 20.7461 64.463 21.7485 64.1288 22.7137C63.7947 23.6789 63.4049 24.5328 62.9594 25.2753C62.8109 25.2753 62.681 25.2567 62.5696 25.2196ZM47.8127 24.3843C46.9218 26.1663 46.2164 28.0967 45.6967 30.1757C45.2141 32.2546 44.9356 34.2779 44.8614 36.2455C44.7871 38.2131 44.9171 40.0693 45.2512 41.8141C45.5853 43.5218 46.1793 44.8954 47.0331 45.9349C46.3649 44.0416 45.9194 42.1854 45.6967 40.3663C45.4739 38.5472 45.4182 36.7467 45.5296 34.9647C45.6781 33.1827 45.9565 31.4193 46.3649 29.6745C46.7733 27.8925 47.2559 26.1291 47.8127 24.3843ZM54.7179 47.7169C54.7179 47.8654 54.7735 47.9953 54.8849 48.1067C54.9963 48.0324 55.1262 47.9582 55.2747 47.8839C55.4603 47.8097 55.646 47.7169 55.8316 47.6055C55.7573 47.5312 55.7202 47.4384 55.7202 47.3271C55.5346 47.4013 55.349 47.4756 55.1633 47.5498C55.0148 47.5869 54.8663 47.6426 54.7179 47.7169ZM59.1728 45.0439C59.1728 45.0439 59.1356 45.0254 59.0614 44.9882C59.0243 44.9882 58.9871 45.0068 58.95 45.0439C58.9129 45.081 58.8572 45.1182 58.783 45.1553C58.7458 45.1924 58.6901 45.3038 58.6159 45.4894C58.7644 45.378 58.95 45.2481 59.1728 45.0996V45.0439ZM78.2888 12.7459C78.4744 12.5602 78.6415 12.4117 78.79 12.3004C78.9385 12.1519 79.087 11.9848 79.2355 11.7992C80.0893 10.7597 81.0546 9.98011 82.1312 9.46037C83.2449 8.94063 84.5071 8.77357 85.9178 8.95919C87.3286 9.14481 88.5351 9.60887 89.5375 10.3514C90.5398 11.0567 91.2637 12.0776 91.7092 13.4141C91.9691 14.1566 92.1733 14.9176 92.3218 15.6972C92.5074 16.4768 92.5816 17.2565 92.5445 18.0361C92.4703 22.5281 91.9134 26.8716 90.8739 31.0667C89.8716 35.2617 88.201 39.3268 85.8622 43.262C85.3424 44.1158 84.7299 44.9325 84.0245 45.7122C83.3563 46.4918 82.688 47.2528 82.0198 47.9953C81.5001 48.5893 80.8875 49.0719 80.1822 49.4431C79.5139 49.7773 78.7714 49.9629 77.9547 50C77.2865 50.0742 76.5811 50.0186 75.8386 49.8329C75.3931 49.6473 74.9476 49.4988 74.5021 49.3875C74.0567 49.2761 73.574 49.2575 73.0543 49.3318C72.4232 49.4431 71.8849 49.3503 71.4394 49.0533C71.031 48.7563 70.6412 48.3851 70.27 47.9396C69.676 47.1971 69.2491 46.4175 68.9892 45.6008C68.7665 44.784 68.6551 43.9302 68.6551 43.0392C68.618 42.1111 68.5994 41.183 68.5994 40.2549C68.6365 39.2897 68.7108 38.3244 68.8221 37.3592C69.2676 34.7234 69.9359 32.1989 70.8269 29.7859C71.755 27.3728 73.0357 25.0711 74.6692 22.8808C74.892 22.5838 75.059 22.2497 75.1704 21.8784C75.2818 21.4701 75.356 21.0617 75.3931 20.6533C75.5416 19.6138 75.7087 18.5744 75.8943 17.5349C76.1171 16.4583 76.4512 15.4374 76.8967 14.4721C77.0823 14.0638 77.2865 13.7297 77.5092 13.4698C77.732 13.1728 78.0475 12.9315 78.4559 12.7459C78.3074 13.0429 78.1589 13.3584 78.0104 13.6925C77.8619 14.0266 77.732 14.3422 77.6206 14.6392C76.9523 15.5302 76.544 16.4954 76.3955 17.5349C76.247 18.5744 76.0799 19.6138 75.8943 20.6533C76.2284 20.6162 76.414 20.5791 76.4512 20.5419C76.6368 19.5025 76.8224 18.5001 77.008 17.5349C77.1937 16.5697 77.3793 15.6044 77.5649 14.6392C77.8619 14.3422 78.0846 14.0638 78.2331 13.8039C78.4188 13.5069 78.4373 13.1542 78.2888 12.7459ZM76.5625 47.3827C76.5254 47.5684 76.5069 47.7354 76.5069 47.8839C76.5069 48.0324 76.4883 48.1995 76.4512 48.3851C77.1565 48.3851 77.7505 48.218 78.2331 47.8839C78.7157 47.5127 79.1612 47.1229 79.5696 46.7145C80.9803 45.2295 82.1497 43.6332 83.0778 41.9255C84.0059 40.2178 84.8227 38.4729 85.528 36.691C88.1267 30.2314 89.3518 23.5676 89.2033 16.6996C89.2033 15.8829 89.1105 15.0847 88.9249 14.3051C88.7393 13.4883 88.4423 12.7087 88.0339 11.9663C87.1801 10.2957 85.8993 9.94298 84.1916 10.9082C83.5605 11.2052 82.9665 11.6507 82.4096 12.2447C81.8527 12.8015 81.3516 13.4327 80.9061 14.138C80.4977 14.8434 80.1822 15.5859 79.9594 16.3655C79.7367 17.1451 79.6253 17.9061 79.6253 18.6486C80.0337 18.6486 80.4235 18.6486 80.7947 18.6486C81.2031 18.6115 81.6114 18.6115 82.0198 18.6486C82.4282 18.6857 82.818 18.76 83.1892 18.8714C83.5976 18.9827 84.0616 19.0941 84.5814 19.2055C84.2844 19.5025 84.0431 19.7623 83.8574 19.9851C83.709 20.2078 83.5419 20.412 83.3563 20.5976C83.0964 20.8946 82.7808 21.1731 82.4096 21.4329C82.0755 21.6928 81.7971 21.9898 81.5743 22.3239C81.2031 22.9179 80.8504 23.5304 80.5163 24.1616C80.1822 24.7555 79.8666 25.3681 79.5696 25.9992C78.8642 27.447 79.1798 28.7093 80.5163 29.7859C80.7761 29.9715 81.1288 30.2685 81.5743 30.6769C80.7947 30.8996 80.145 30.8625 79.6253 30.5655C79.1056 30.2314 78.5487 29.9715 77.9547 29.7859C77.7691 30.417 77.5835 30.9924 77.3978 31.5121C77.2122 32.0319 77.0452 32.5887 76.8967 33.1827C76.5625 34.5935 76.2099 36.0227 75.8386 37.4706C75.4674 38.9184 75.1889 40.3477 75.0033 41.7584C74.9291 42.538 74.9291 43.3362 75.0033 44.1529C75.1147 44.9697 75.2261 45.7864 75.3374 46.6031C75.3746 46.9001 75.4859 47.1414 75.6716 47.3271C75.8572 47.5127 76.1542 47.5684 76.5625 47.4941V47.3827ZM73.5555 48.4408C72.7016 47.0301 72.1633 45.6193 71.9406 44.2086C71.755 42.7979 71.6993 41.3501 71.7735 39.8651C71.9591 37.8233 72.2376 35.8186 72.6088 33.851C73.0172 31.8834 73.5926 29.9529 74.3351 28.0596C74.4836 27.7626 74.6135 27.447 74.7249 27.1129C74.8363 26.7788 74.9476 26.4261 75.059 26.0549C74.6506 26.389 74.3722 26.7788 74.2237 27.2243C73.7411 28.5236 73.2771 29.8044 72.8316 31.0667C72.3861 32.3289 71.9591 33.6282 71.5508 34.9647C71.2909 36.0042 71.0682 37.0622 70.8825 38.1388C70.6969 39.2154 70.5299 40.292 70.3814 41.3686C70.27 42.2967 70.27 43.2248 70.3814 44.1529C70.4927 45.081 70.7526 45.972 71.161 46.8259C71.3466 47.2342 71.625 47.5869 71.9963 47.8839C72.3675 48.1809 72.8872 48.3665 73.5555 48.4408ZM86.4747 0.88468C86.8459 0.550562 87.2543 0.550562 87.6998 0.88468C88.0339 0.81043 88.2938 0.866116 88.4794 1.05174C88.7022 1.23736 88.9063 1.46011 89.092 1.71997C88.795 2.31396 88.4423 2.88939 88.0339 3.44625C87.6256 4.00311 87.1801 4.52285 86.6975 5.00547C86.2148 5.45096 85.7322 5.84076 85.2496 6.17488C84.767 6.47187 84.3215 6.67605 83.9131 6.78743C83.5048 6.41619 83.3934 6.10063 83.579 5.84076C83.7646 5.54377 83.9503 5.24677 84.1359 4.94978C84.5442 4.46717 84.9341 4.00311 85.3053 3.55762C85.6765 3.07501 86.0478 2.61095 86.419 2.16546C85.8622 2.72233 85.3053 3.29775 84.7484 3.89174C84.2287 4.4486 83.709 4.9869 83.1892 5.50664C83.115 5.61801 83.0036 5.69226 82.8551 5.72939C82.7066 5.72939 82.5952 5.74795 82.521 5.78507C82.4467 5.74795 82.3539 5.6737 82.2425 5.56233C82.9479 4.7456 83.6533 3.96599 84.3586 3.2235C85.064 2.48102 85.7693 1.70141 86.4747 0.88468ZM135.343 48.4408C134.601 49.2575 133.803 49.7216 132.949 49.8329C132.132 49.9443 131.278 49.9072 130.387 49.7216C129.942 49.6102 129.589 49.3318 129.329 48.8863C129.069 48.4037 128.921 47.9025 128.884 47.3827C128.475 45.1182 128.271 42.8907 128.271 40.7004C128.271 37.4335 128.438 34.2408 128.772 31.1223C129.144 28.0039 129.645 24.8669 130.276 21.7114C130.313 21.5629 130.332 21.4144 130.332 21.2659C130.332 21.1174 130.35 20.8946 130.387 20.5976C130.202 20.7833 130.053 20.9132 129.942 20.9874C129.83 21.0246 129.738 21.0988 129.663 21.2102C126.99 24.5885 124.429 28.0596 121.979 31.6235C119.528 35.1503 117.357 38.937 115.463 42.9835C115.389 43.2063 115.296 43.4476 115.185 43.7074C115.074 43.9302 114.981 44.1344 114.906 44.32C114.721 44.617 114.554 44.914 114.405 45.211C114.257 45.508 114.09 45.7307 113.904 45.8792C113.496 46.0648 113.05 46.2319 112.568 46.3804C112.122 46.5289 111.658 46.6588 111.175 46.7702C110.99 46.8444 110.767 46.863 110.507 46.8259C110.285 46.7888 110.08 46.7888 109.895 46.8259C108.892 47.0115 108.057 46.8816 107.389 46.4361C106.758 45.9535 106.405 45.1367 106.331 43.9859C106.219 42.6865 106.145 41.4057 106.108 40.1435C106.108 38.8442 106.164 37.5448 106.275 36.2455C106.386 34.8348 106.572 33.424 106.832 32.0133C107.129 30.6026 107.389 29.1548 107.612 27.6698C107.649 27.4099 107.686 27.1686 107.723 26.9459C107.76 26.686 107.742 26.389 107.667 26.0549C107.148 26.5004 106.702 27.0387 106.331 27.6698C105.96 28.2638 105.588 28.8763 105.217 29.5074C104.363 30.7325 103.584 32.0133 102.878 33.3498C102.47 33.9809 102.08 34.6306 101.709 35.2988C101.375 35.9299 101.003 36.5796 100.595 37.2478C100.261 37.9161 99.9269 38.5843 99.5927 39.2525C99.2586 39.8837 98.9059 40.5705 98.5347 41.3129C98.2377 41.944 97.9407 42.6123 97.6437 43.3176C97.3839 43.9859 97.1054 44.6541 96.8084 45.3224C96.6971 45.2852 96.6228 45.2667 96.5857 45.2667C96.5486 45.2295 96.4929 45.211 96.4186 45.211C96.9012 44.023 97.3653 42.8165 97.8108 41.5914C98.2934 40.3663 98.7946 39.104 99.3143 37.8047C98.9431 38.1017 98.5347 38.6771 98.0892 39.531C97.6437 40.3477 97.1982 41.2944 96.7527 42.371C96.3444 43.4105 95.9917 44.4871 95.6947 45.6008C95.3977 46.6774 95.1935 47.6241 95.0822 48.4408C93.1146 49.1461 92.4463 48.4408 93.0774 46.3247C93.4487 45.1367 93.8385 43.9302 94.2469 42.7051C94.6552 41.48 95.1378 40.3291 95.6947 39.2525C96.6971 37.2478 97.7365 35.2803 98.8131 33.3498C99.9269 31.4193 101.022 29.4889 102.099 27.5584C103.287 25.5166 104.53 23.5119 105.83 21.5443C107.166 19.5767 108.447 17.572 109.672 15.5302C110.229 14.6392 110.711 13.7111 111.12 12.7459C111.565 11.7806 112.029 10.8154 112.512 9.85018C112.66 9.5903 112.809 9.349 112.957 9.12625C113.106 8.90351 113.347 8.8107 113.681 8.84782C114.275 8.99632 114.628 9.44181 114.739 10.1843C114.739 10.3328 114.739 10.4813 114.739 10.6298C114.739 10.7783 114.758 10.9453 114.795 11.131C115.055 10.8711 115.315 10.5741 115.575 10.24C115.872 9.90586 116.169 9.64599 116.466 9.46037C116.8 9.27475 117.134 9.18194 117.468 9.18194C117.802 9.18194 118.192 9.36756 118.637 9.7388C117.561 14.1195 116.707 18.5187 116.076 22.9365C115.445 27.3171 114.925 31.772 114.517 36.3012C114.777 36.1155 114.962 35.9114 115.074 35.6886C116.484 33.1642 118.006 30.7511 119.64 28.4494C121.31 26.1477 123.018 23.8831 124.763 21.6557C125.951 20.0965 127.12 18.5558 128.271 17.0337C129.459 15.4745 130.647 13.9153 131.835 12.3561C132.095 12.0591 132.429 11.8178 132.837 11.6321C133.246 11.4465 133.691 11.3351 134.174 11.298C134.657 11.2238 135.121 11.2423 135.566 11.3537C136.012 11.428 136.401 11.5764 136.736 11.7992C137.033 12.0219 137.2 12.2818 137.237 12.5788C137.274 12.8387 137.255 13.1357 137.181 13.4698C136.958 14.6949 136.736 15.9385 136.513 17.2008C136.29 18.4259 136.086 19.6695 135.9 20.9317C135.603 23.4191 135.288 25.9064 134.954 28.3937C134.657 30.8439 134.397 33.3312 134.174 35.8557C134.025 37.4149 133.933 38.937 133.896 40.422C133.896 41.8698 133.896 43.3733 133.896 44.9325C133.896 45.4152 133.914 45.805 133.951 46.102C133.988 46.399 134.063 46.6774 134.174 46.9373C134.285 47.1971 134.434 47.4384 134.619 47.6612C134.805 47.8839 135.046 48.1438 135.343 48.4408ZM111.398 29.4518C111.807 27.447 112.196 25.4423 112.568 23.4376C112.976 21.4329 113.384 19.4282 113.793 17.4235C113.681 17.3864 113.589 17.3678 113.514 17.3678C113.477 17.3678 113.422 17.3493 113.347 17.3121C112.79 19.3168 112.363 21.3216 112.066 23.3263C111.807 25.331 111.584 27.3728 111.398 29.4518ZM106.943 23.6047C107.055 23.6418 107.148 23.6975 107.222 23.7718C107.333 23.549 107.445 23.3448 107.556 23.1592C107.667 22.9365 107.779 22.6951 107.89 22.4353C107.816 22.361 107.723 22.3239 107.612 22.3239C107.426 22.8065 107.203 23.2334 106.943 23.6047ZM110.062 42.4267C110.062 42.241 110.062 42.0554 110.062 41.8698C110.062 41.6842 110.043 41.4986 110.006 41.3129H109.95C109.913 41.4986 109.895 41.6842 109.895 41.8698C109.895 42.0554 109.895 42.241 109.895 42.4267H110.062ZM147.081 12.7459C147.267 12.5602 147.434 12.4117 147.582 12.3004C147.731 12.1519 147.879 11.9848 148.028 11.7992C148.882 10.7597 149.847 9.98011 150.923 9.46037C152.037 8.94063 153.299 8.77357 154.71 8.95919C156.121 9.14481 157.327 9.60887 158.33 10.3514C159.332 11.0567 160.056 12.0776 160.501 13.4141C160.761 14.1566 160.965 14.9176 161.114 15.6972C161.3 16.4768 161.374 17.2565 161.337 18.0361C161.262 22.5281 160.706 26.8716 159.666 31.0667C158.664 35.2617 156.993 39.3268 154.654 43.262C154.135 44.1158 153.522 44.9325 152.817 45.7122C152.148 46.4918 151.48 47.2528 150.812 47.9953C150.292 48.5893 149.68 49.0719 148.974 49.4431C148.306 49.7773 147.564 49.9629 146.747 50C146.079 50.0742 145.373 50.0186 144.631 49.8329C144.185 49.6473 143.74 49.4988 143.294 49.3875C142.849 49.2761 142.366 49.2575 141.846 49.3318C141.215 49.4431 140.677 49.3503 140.232 49.0533C139.823 48.7563 139.433 48.3851 139.062 47.9396C138.468 47.1971 138.041 46.4175 137.781 45.6008C137.559 44.784 137.447 43.9302 137.447 43.0392C137.41 42.1111 137.392 41.183 137.392 40.2549C137.429 39.2897 137.503 38.3244 137.614 37.3592C138.06 34.7234 138.728 32.1989 139.619 29.7859C140.547 27.3728 141.828 25.0711 143.461 22.8808C143.684 22.5838 143.851 22.2497 143.963 21.8784C144.074 21.4701 144.148 21.0617 144.185 20.6533C144.334 19.6138 144.501 18.5744 144.686 17.5349C144.909 16.4583 145.243 15.4374 145.689 14.4721C145.874 14.0638 146.079 13.7297 146.301 13.4698C146.524 13.1728 146.84 12.9315 147.248 12.7459C147.1 13.0429 146.951 13.3584 146.803 13.6925C146.654 14.0266 146.524 14.3422 146.413 14.6392C145.745 15.5302 145.336 16.4954 145.188 17.5349C145.039 18.5744 144.872 19.6138 144.686 20.6533C145.021 20.6162 145.206 20.5791 145.243 20.5419C145.429 19.5025 145.615 18.5001 145.8 17.5349C145.986 16.5697 146.171 15.6044 146.357 14.6392C146.654 14.3422 146.877 14.0638 147.025 13.8039C147.211 13.5069 147.229 13.1542 147.081 12.7459ZM145.355 47.3827C145.318 47.5684 145.299 47.7354 145.299 47.8839C145.299 48.0324 145.28 48.1995 145.243 48.3851C145.949 48.3851 146.543 48.218 147.025 47.8839C147.508 47.5127 147.953 47.1229 148.362 46.7145C149.772 45.2295 150.942 43.6332 151.87 41.9255C152.798 40.2178 153.615 38.4729 154.32 36.691C156.919 30.2314 158.144 23.5676 157.996 16.6996C157.996 15.8829 157.903 15.0847 157.717 14.3051C157.531 13.4883 157.234 12.7087 156.826 11.9663C155.972 10.2957 154.691 9.94298 152.984 10.9082C152.353 11.2052 151.759 11.6507 151.202 12.2447C150.645 12.8015 150.144 13.4327 149.698 14.138C149.29 14.8434 148.974 15.5859 148.752 16.3655C148.529 17.1451 148.417 17.9061 148.417 18.6486C148.826 18.6486 149.216 18.6486 149.587 18.6486C149.995 18.6115 150.404 18.6115 150.812 18.6486C151.22 18.6857 151.61 18.76 151.981 18.8714C152.39 18.9827 152.854 19.0941 153.374 19.2055C153.077 19.5025 152.835 19.7623 152.65 19.9851C152.501 20.2078 152.334 20.412 152.148 20.5976C151.889 20.8946 151.573 21.1731 151.202 21.4329C150.868 21.6928 150.589 21.9898 150.366 22.3239C149.995 22.9179 149.643 23.5304 149.308 24.1616C148.974 24.7555 148.659 25.3681 148.362 25.9992C147.656 27.447 147.972 28.7093 149.308 29.7859C149.568 29.9715 149.921 30.2685 150.366 30.6769C149.587 30.8996 148.937 30.8625 148.417 30.5655C147.898 30.2314 147.341 29.9715 146.747 29.7859C146.561 30.417 146.376 30.9924 146.19 31.5121C146.004 32.0319 145.837 32.5887 145.689 33.1827C145.355 34.5935 145.002 36.0227 144.631 37.4706C144.26 38.9184 143.981 40.3477 143.795 41.7584C143.721 42.538 143.721 43.3362 143.795 44.1529C143.907 44.9697 144.018 45.7864 144.13 46.6031C144.167 46.9001 144.278 47.1414 144.464 47.3271C144.649 47.5127 144.946 47.5684 145.355 47.4941V47.3827ZM142.348 48.4408C141.494 47.0301 140.955 45.6193 140.733 44.2086C140.547 42.7979 140.491 41.3501 140.566 39.8651C140.751 37.8233 141.03 35.8186 141.401 33.851C141.809 31.8834 142.385 29.9529 143.127 28.0596C143.276 27.7626 143.406 27.447 143.517 27.1129C143.628 26.7788 143.74 26.4261 143.851 26.0549C143.443 26.389 143.164 26.7788 143.016 27.2243C142.533 28.5236 142.069 29.8044 141.624 31.0667C141.178 32.3289 140.751 33.6282 140.343 34.9647C140.083 36.0042 139.86 37.0622 139.675 38.1388C139.489 39.2154 139.322 40.292 139.174 41.3686C139.062 42.2967 139.062 43.2248 139.174 44.1529C139.285 45.081 139.545 45.972 139.953 46.8259C140.139 47.2342 140.417 47.5869 140.788 47.8839C141.16 48.1809 141.679 48.3665 142.348 48.4408Z" fill="white"/>
<g filter="url(#filter0_d_366_8407)">
<path d="M19.9985 90.3411L21.8174 100H29.7829L21.5665 57.7267H11.7195L2.56238 100H10.5278L12.4094 90.3411H19.9985ZM13.2248 83.9437L14.7928 75.1002C15.2318 72.6541 15.859 68.3264 16.2981 65.504H16.4862C16.8625 68.2637 17.427 72.5286 17.8661 75.1002L19.2459 83.9437H13.2248ZM48.1927 100L57.8515 57.7267H48.8199L45.9347 75.7901C45.1821 80.5568 44.4922 85.6371 43.9277 90.6547H43.8023C43.2378 85.6998 42.3597 80.5568 41.6698 75.9782L38.6592 57.7267H29.5648L38.9728 100H48.1927ZM74.756 90.3411L76.5749 100H84.5404L76.324 57.7267H66.477L57.3199 100H65.2853L67.1669 90.3411H74.756ZM67.9823 83.9437L69.5503 75.1002C69.9893 72.6541 70.6165 68.3264 71.0556 65.504H71.2437C71.62 68.2637 72.1845 72.5286 72.6236 75.1002L74.0034 83.9437H67.9823ZM96.3949 100V90.5293C96.3949 81.9994 96.0813 75.4765 95.8305 71.2115H95.9559C96.9594 74.9747 98.841 80.3686 100.284 83.9437L106.744 100H114.27V57.7267H107.057V67.072C107.057 74.8493 107.622 82.1875 107.873 86.6406H107.747C106.556 83.0029 104.549 77.5462 103.231 74.2848L96.7085 57.7267H89.1821V100H96.3949ZM118.574 100H141.153V92.8499H128.421V92.6618L141.216 63.8106V57.7267H119.829V64.8768H131.996V65.065L118.574 95.1706V100ZM160.69 90.3411L162.509 100H170.474L162.258 57.7267H152.411L143.254 100H151.219L153.101 90.3411H160.69ZM153.916 83.9437L155.484 75.1002C155.923 72.6541 156.55 68.3264 156.989 65.504H157.177C157.554 68.2637 158.118 72.5286 158.557 75.1002L159.937 83.9437H153.916ZM175.116 100H183.332V83.1283H184.587C187.284 83.1283 188.601 84.6336 189.353 89.8394C189.981 94.5434 190.921 98.8083 191.486 100H200.078C199.326 98.432 198.197 93.2262 197.381 88.5222C196.566 83.9437 195.124 81.3094 192.238 80.1178V79.9923C196.503 78.048 198.761 73.9712 198.761 69.4554C198.761 65.8176 197.946 62.9952 195.374 60.6746C192.677 58.2285 188.601 57.5386 184.085 57.5386C180.949 57.5386 177.687 57.8522 175.116 58.3539V100ZM183.332 64.1869C183.771 63.9987 184.587 63.936 185.339 63.936C188.977 64.0614 190.42 66.5702 190.42 70.208C190.42 73.9085 188.413 76.7936 184.837 76.7936H183.332V64.1869Z" fill="#02B8FA"/>
<path d="M19.9985 90.3411L20.8603 90.1788L20.7258 89.4642H19.9985V90.3411ZM21.8174 100L20.9556 100.162L21.0902 100.877H21.8174V100ZM29.7829 100V100.877H30.8467L30.6437 99.8327L29.7829 100ZM21.5665 57.7267L22.4274 57.5594L22.2895 56.8498H21.5665V57.7267ZM11.7195 57.7267V56.8498H11.0122L10.8624 57.5411L11.7195 57.7267ZM2.56238 100L1.70531 99.8143L1.47513 100.877H2.56238V100ZM10.5278 100V100.877H11.2504L11.3886 100.168L10.5278 100ZM12.4094 90.3411V89.4642H11.6868L11.5487 90.1734L12.4094 90.3411ZM13.2248 83.9437L12.3613 83.7906L12.1787 84.8206H13.2248V83.9437ZM14.7928 75.1002L13.9296 74.9452L13.9293 74.9471L14.7928 75.1002ZM16.2981 65.504V64.627H15.547L15.4315 65.3692L16.2981 65.504ZM16.4862 65.504L17.3551 65.3855L17.2517 64.627H16.4862V65.504ZM17.8661 75.1002L18.7326 74.965L18.7305 74.9526L17.8661 75.1002ZM19.2459 83.9437V84.8206H20.2703L20.1124 83.8085L19.2459 83.9437ZM19.1367 90.5034L20.9556 100.162L22.6792 99.8377L20.8603 90.1788L19.1367 90.5034ZM21.8174 100.877H29.7829V99.1231H21.8174V100.877ZM30.6437 99.8327L22.4274 57.5594L20.7057 57.894L28.922 100.167L30.6437 99.8327ZM21.5665 56.8498H11.7195V58.6037H21.5665V56.8498ZM10.8624 57.5411L1.70531 99.8143L3.41946 100.186L12.5766 57.9124L10.8624 57.5411ZM2.56238 100.877H10.5278V99.1231H2.56238V100.877ZM11.3886 100.168L13.2702 90.5088L11.5487 90.1734L9.66705 99.8323L11.3886 100.168ZM12.4094 91.2181H19.9985V89.4642H12.4094V91.2181ZM14.0883 84.0968L15.6563 75.2533L13.9293 74.9471L12.3613 83.7906L14.0883 84.0968ZM15.6559 75.2551C16.0973 72.7959 16.7285 68.4421 17.1646 65.6388L15.4315 65.3692C14.9895 68.2107 14.3663 72.5123 13.9296 74.9452L15.6559 75.2551ZM16.2981 66.3809H16.4862V64.627H16.2981V66.3809ZM15.6173 65.6225C15.9921 68.3711 16.5594 72.6574 17.0016 75.2477L18.7305 74.9526C18.2947 72.3999 17.733 68.1563 17.3551 65.3855L15.6173 65.6225ZM16.9996 75.2354L18.3794 84.0789L20.1124 83.8085L18.7325 74.965L16.9996 75.2354ZM19.2459 83.0667H13.2248V84.8206H19.2459V83.0667ZM48.1927 100V100.877H48.8918L49.0476 100.195L48.1927 100ZM57.8515 57.7267L58.7065 57.9221L58.9515 56.8498H57.8515V57.7267ZM48.8199 57.7267V56.8498H48.0719L47.9539 57.5884L48.8199 57.7267ZM45.9347 75.7901L45.0688 75.6518L45.0685 75.6533L45.9347 75.7901ZM43.9277 90.6547V91.5317H44.7115L44.7991 90.7528L43.9277 90.6547ZM43.8023 90.6547L42.9309 90.754L43.0195 91.5317H43.8023V90.6547ZM41.6698 75.9782L42.537 75.8476L42.535 75.8355L41.6698 75.9782ZM38.6592 57.7267L39.5245 57.584L39.4034 56.8498H38.6592V57.7267ZM29.5648 57.7267V56.8498H28.4712L28.7088 57.9172L29.5648 57.7267ZM38.9728 100L38.1168 100.191L38.2696 100.877H38.9728V100ZM49.0476 100.195L58.7065 57.9221L56.9966 57.5314L47.3377 99.8047L49.0476 100.195ZM57.8515 56.8498H48.8199V58.6037H57.8515V56.8498ZM47.9539 57.5884L45.0688 75.6518L46.8007 75.9284L49.6858 57.865L47.9539 57.5884ZM45.0685 75.6533C44.3139 80.4328 43.6222 85.526 43.0562 90.5567L44.7991 90.7528C45.3622 85.7482 46.0503 80.6808 46.801 75.9269L45.0685 75.6533ZM43.9277 89.7778H43.8023V91.5317H43.9277V89.7778ZM44.6736 90.5555C44.1067 85.5796 43.2233 80.4025 42.5369 75.8476L40.8026 76.1089C41.4961 80.7111 42.3688 85.82 42.9309 90.754L44.6736 90.5555ZM42.535 75.8355L39.5245 57.584L37.794 57.8694L40.8045 76.121L42.535 75.8355ZM38.6592 56.8498H29.5648V58.6037H38.6592V56.8498ZM28.7088 57.9172L38.1168 100.191L39.8288 99.8095L30.4208 57.5362L28.7088 57.9172ZM38.9728 100.877H48.1927V99.1231H38.9728V100.877ZM74.756 90.3411L75.6178 90.1788L75.4833 89.4642H74.756V90.3411ZM76.5749 100L75.7131 100.162L75.8477 100.877H76.5749V100ZM84.5404 100V100.877H85.6042L85.4012 99.8327L84.5404 100ZM76.324 57.7267L77.1849 57.5594L77.047 56.8498H76.324V57.7267ZM66.477 57.7267V56.8498H65.7697L65.6199 57.5411L66.477 57.7267ZM57.3199 100L56.4628 99.8143L56.2326 100.877H57.3199V100ZM65.2853 100V100.877H66.0079L66.1461 100.168L65.2853 100ZM67.1669 90.3411V89.4642H66.4443L66.3062 90.1734L67.1669 90.3411ZM67.9823 83.9437L67.1188 83.7906L66.9362 84.8206H67.9823V83.9437ZM69.5503 75.1002L68.6871 74.9452L68.6868 74.9471L69.5503 75.1002ZM71.0556 65.504V64.627H70.3045L70.189 65.3692L71.0556 65.504ZM71.2437 65.504L72.1126 65.3855L72.0092 64.627H71.2437V65.504ZM72.6236 75.1002L73.4901 74.965L73.488 74.9526L72.6236 75.1002ZM74.0034 83.9437V84.8206H75.0278L74.8699 83.8085L74.0034 83.9437ZM73.8942 90.5034L75.7131 100.162L77.4367 99.8377L75.6178 90.1788L73.8942 90.5034ZM76.5749 100.877H84.5404V99.1231H76.5749V100.877ZM85.4012 99.8327L77.1849 57.5594L75.4632 57.894L83.6795 100.167L85.4012 99.8327ZM76.324 56.8498H66.477V58.6037H76.324V56.8498ZM65.6199 57.5411L56.4628 99.8143L58.177 100.186L67.3341 57.9124L65.6199 57.5411ZM57.3199 100.877H65.2853V99.1231H57.3199V100.877ZM66.1461 100.168L68.0277 90.5088L66.3062 90.1734L64.4246 99.8323L66.1461 100.168ZM67.1669 91.2181H74.756V89.4642H67.1669V91.2181ZM68.8458 84.0968L70.4138 75.2533L68.6868 74.9471L67.1188 83.7906L68.8458 84.0968ZM70.4134 75.2551C70.8548 72.7959 71.486 68.4421 71.9221 65.6388L70.189 65.3692C69.747 68.2107 69.1238 72.5123 68.6871 74.9452L70.4134 75.2551ZM71.0556 66.3809H71.2437V64.627H71.0556V66.3809ZM70.3748 65.6225C70.7496 68.3711 71.3169 72.6574 71.7591 75.2477L73.488 74.9526C73.0522 72.3999 72.4905 68.1563 72.1126 65.3855L70.3748 65.6225ZM71.7571 75.2354L73.1369 84.0789L74.8699 83.8085L73.49 74.965L71.7571 75.2354ZM74.0034 83.0667H67.9823V84.8206H74.0034V83.0667ZM96.3949 100V100.877H97.2719V100H96.3949ZM95.8305 71.2115V70.3346H94.9004L94.955 71.263L95.8305 71.2115ZM95.9559 71.2115L96.8032 70.9856L96.6296 70.3346H95.9559V71.2115ZM100.284 83.9437L101.097 83.6163L101.097 83.6155L100.284 83.9437ZM106.744 100L105.93 100.327L106.151 100.877H106.744V100ZM114.27 100V100.877H115.147V100H114.27ZM114.27 57.7267H115.147V56.8498H114.27V57.7267ZM107.057 57.7267V56.8498H106.18V57.7267H107.057ZM107.873 86.6406V87.5176H108.8L108.748 86.5913L107.873 86.6406ZM107.747 86.6406L106.914 86.9136L107.112 87.5176H107.747V86.6406ZM103.231 74.2848L102.415 74.6062L102.418 74.6132L103.231 74.2848ZM96.7085 57.7267L97.5245 57.4053L97.3056 56.8498H96.7085V57.7267ZM89.1821 57.7267V56.8498H88.3052V57.7267H89.1821ZM89.1821 100H88.3052V100.877H89.1821V100ZM97.2719 100V90.5293H95.518V100H97.2719ZM97.2719 90.5293C97.2719 81.9772 96.9574 75.4364 96.7059 71.16L94.955 71.263C95.2052 75.5166 95.518 82.0215 95.518 90.5293H97.2719ZM95.8305 72.0885H95.9559V70.3346H95.8305V72.0885ZM95.1086 71.4375C96.1236 75.2438 98.018 80.6727 99.4703 84.2718L101.097 83.6155C99.664 80.0646 97.7952 74.7056 96.8032 70.9856L95.1086 71.4375ZM99.47 84.271L105.93 100.327L107.557 99.6727L101.097 83.6163L99.47 84.271ZM106.744 100.877H114.27V99.1231H106.744V100.877ZM115.147 100V57.7267H113.393V100H115.147ZM114.27 56.8498H107.057V58.6037H114.27V56.8498ZM106.18 57.7267V67.072H107.934V57.7267H106.18ZM106.18 67.072C106.18 74.8817 106.747 82.2585 106.997 86.69L108.748 86.5913C108.496 82.1166 107.934 74.8169 107.934 67.072H106.18ZM107.873 85.7637H107.747V87.5176H107.873V85.7637ZM108.581 86.3676C107.383 82.7103 105.369 77.2352 104.045 73.9564L102.418 74.6132C103.728 77.8573 105.729 83.2955 106.914 86.9136L108.581 86.3676ZM104.047 73.9634L97.5245 57.4053L95.8926 58.0481L102.415 74.6062L104.047 73.9634ZM96.7085 56.8498H89.1821V58.6037H96.7085V56.8498ZM88.3052 57.7267V100H90.0591V57.7267H88.3052ZM89.1821 100.877H96.3949V99.1231H89.1821V100.877ZM118.574 100H117.697V100.877H118.574V100ZM141.153 100V100.877H142.03V100H141.153ZM141.153 92.8499H142.03V91.973H141.153V92.8499ZM128.421 92.8499H127.544V93.7269H128.421V92.8499ZM128.421 92.6618L127.62 92.3062L127.544 92.476V92.6618H128.421ZM141.216 63.8106L142.018 64.1661L142.093 63.9963V63.8106H141.216ZM141.216 57.7267H142.093V56.8498H141.216V57.7267ZM119.829 57.7267V56.8498H118.952V57.7267H119.829ZM119.829 64.8768H118.952V65.7537H119.829V64.8768ZM131.996 64.8768H132.873V63.9998H131.996V64.8768ZM131.996 65.065L132.797 65.422L132.873 65.2516V65.065H131.996ZM118.574 95.1706L117.773 94.8135L117.697 94.9839V95.1706H118.574ZM118.574 100.877H141.153V99.1231H118.574V100.877ZM142.03 100V92.8499H140.277V100H142.03ZM141.153 91.973H128.421V93.7269H141.153V91.973ZM129.298 92.8499V92.6618H127.544V92.8499H129.298ZM129.223 93.0173L142.018 64.1661L140.415 63.455L127.62 92.3062L129.223 93.0173ZM142.093 63.8106V57.7267H140.339V63.8106H142.093ZM141.216 56.8498H119.829V58.6037H141.216V56.8498ZM118.952 57.7267V64.8768H120.706V57.7267H118.952ZM119.829 65.7537H131.996V63.9998H119.829V65.7537ZM131.119 64.8768V65.065H132.873V64.8768H131.119ZM131.195 64.7079L117.773 94.8135L119.375 95.5277L132.797 65.422L131.195 64.7079ZM117.697 95.1706V100H119.451V95.1706H117.697ZM160.69 90.3411L161.552 90.1788L161.417 89.4642H160.69V90.3411ZM162.509 100L161.647 100.162L161.781 100.877H162.509V100ZM170.474 100V100.877H171.538L171.335 99.8327L170.474 100ZM162.258 57.7267L163.119 57.5594L162.981 56.8498H162.258V57.7267ZM152.411 57.7267V56.8498H151.703L151.554 57.5411L152.411 57.7267ZM143.254 100L142.397 99.8143L142.166 100.877H143.254V100ZM151.219 100V100.877H151.942L152.08 100.168L151.219 100ZM153.101 90.3411V89.4642H152.378L152.24 90.1734L153.101 90.3411ZM153.916 83.9437L153.053 83.7906L152.87 84.8206H153.916V83.9437ZM155.484 75.1002L154.621 74.9452L154.621 74.9471L155.484 75.1002ZM156.989 65.504V64.627H156.238L156.123 65.3692L156.989 65.504ZM157.177 65.504L158.046 65.3855L157.943 64.627H157.177V65.504ZM158.557 75.1002L159.424 74.965L159.422 74.9526L158.557 75.1002ZM159.937 83.9437V84.8206H160.962L160.804 83.8085L159.937 83.9437ZM159.828 90.5034L161.647 100.162L163.37 99.8377L161.552 90.1788L159.828 90.5034ZM162.509 100.877H170.474V99.1231H162.509V100.877ZM171.335 99.8327L163.119 57.5594L161.397 57.894L169.613 100.167L171.335 99.8327ZM162.258 56.8498H152.411V58.6037H162.258V56.8498ZM151.554 57.5411L142.397 99.8143L144.111 100.186L153.268 57.9124L151.554 57.5411ZM143.254 100.877H151.219V99.1231H143.254V100.877ZM152.08 100.168L153.961 90.5088L152.24 90.1734L150.358 99.8323L152.08 100.168ZM153.101 91.2181H160.69V89.4642H153.101V91.2181ZM154.78 84.0968L156.348 75.2533L154.621 74.9471L153.053 83.7906L154.78 84.0968ZM156.347 75.2551C156.789 72.7959 157.42 68.4421 157.856 65.6388L156.123 65.3692C155.681 68.2107 155.058 72.5123 154.621 74.9452L156.347 75.2551ZM156.989 66.3809H157.177V64.627H156.989V66.3809ZM156.309 65.6225C156.683 68.3711 157.251 72.6574 157.693 75.2477L159.422 74.9526C158.986 72.3999 158.424 68.1563 158.046 65.3855L156.309 65.6225ZM157.691 75.2354L159.071 84.0789L160.804 83.8085L159.424 74.965L157.691 75.2354ZM159.937 83.0667H153.916V84.8206H159.937V83.0667ZM175.116 100H174.239V100.877H175.116V100ZM183.332 100V100.877H184.209V100H183.332ZM183.332 83.1283V82.2514H182.455V83.1283H183.332ZM189.353 89.8394L190.223 89.7235L190.221 89.7139L189.353 89.8394ZM191.486 100L190.693 100.375L190.931 100.877H191.486V100ZM200.078 100V100.877H201.472L200.869 99.6205L200.078 100ZM197.381 88.5222L198.246 88.3725L198.245 88.3685L197.381 88.5222ZM192.238 80.1178H191.361V80.7044L191.904 80.9283L192.238 80.1178ZM192.238 79.9923L191.875 79.1944L191.361 79.4283V79.9923H192.238ZM195.374 60.6746L194.785 61.3241L194.787 61.3256L195.374 60.6746ZM175.116 58.3539L174.948 57.4932L174.239 57.6315V58.3539H175.116ZM183.332 64.1869L182.987 63.3808L182.455 63.6086V64.1869H183.332ZM185.339 63.936L185.369 63.0596L185.354 63.059H185.339V63.936ZM183.332 76.7936H182.455V77.6705H183.332V76.7936ZM175.116 100.877H183.332V99.1231H175.116V100.877ZM184.209 100V83.1283H182.455V100H184.209ZM183.332 84.0053H184.587V82.2514H183.332V84.0053ZM184.587 84.0053C185.738 84.0053 186.442 84.3079 186.994 85.0535C187.616 85.893 188.112 87.3806 188.485 89.9648L190.221 89.7139C189.842 87.0923 189.303 85.2244 188.404 84.0098C187.435 82.7014 186.132 82.2514 184.587 82.2514V84.0053ZM188.484 89.9553C188.8 92.3281 189.196 94.5927 189.585 96.4195C189.967 98.2091 190.36 99.6727 190.693 100.375L192.278 99.6246C192.047 99.1356 191.688 97.8709 191.301 96.0541C190.922 94.2745 190.533 92.0547 190.223 89.7235L188.484 89.9553ZM191.486 100.877H200.078V99.1231H191.486V100.877ZM200.869 99.6205C200.542 98.9401 200.091 97.3453 199.608 95.2411C199.134 93.1744 198.651 90.7129 198.246 88.3725L196.517 88.672C196.927 91.0356 197.416 93.5289 197.899 95.6331C198.373 97.6999 198.862 99.4919 199.288 100.379L200.869 99.6205ZM198.245 88.3685C197.414 83.7013 195.885 80.6751 192.573 79.3072L191.904 80.9283C194.362 81.9438 195.719 84.186 196.518 88.676L198.245 88.3685ZM193.115 80.1178V79.9923H191.361V80.1178H193.115ZM192.602 80.7903C197.217 78.6863 199.638 74.2714 199.638 69.4554H197.884C197.884 73.671 195.789 77.4097 191.875 79.1944L192.602 80.7903ZM199.638 69.4554C199.638 65.6672 198.78 62.5663 195.962 60.0235L194.787 61.3256C197.112 63.4241 197.884 65.968 197.884 69.4554H199.638ZM195.964 60.025C193.009 57.345 188.638 56.6616 184.085 56.6616V58.4155C188.563 58.4155 192.346 59.1119 194.785 61.3241L195.964 60.025ZM184.085 56.6616C180.898 56.6616 177.58 56.9797 174.948 57.4932L175.284 59.2146C177.795 58.7246 181 58.4155 184.085 58.4155V56.6616ZM174.239 58.3539V100H175.993V58.3539H174.239ZM183.678 64.9929C183.776 64.9507 183.986 64.899 184.315 64.8625C184.626 64.8279 184.984 64.8129 185.339 64.8129V63.059C184.942 63.059 184.516 63.0755 184.121 63.1193C183.744 63.1612 183.327 63.2349 182.987 63.3808L183.678 64.9929ZM185.309 64.8124C186.911 64.8677 187.911 65.4311 188.54 66.2778C189.198 67.1637 189.543 68.4847 189.543 70.208H191.297C191.297 68.2935 190.92 66.5413 189.948 65.2319C188.946 63.8834 187.406 63.1298 185.369 63.0596L185.309 64.8124ZM189.543 70.208C189.543 71.9092 189.081 73.347 188.285 74.3401C187.506 75.3122 186.364 75.9166 184.837 75.9166V77.6705C186.886 77.6705 188.535 76.8325 189.654 75.4369C190.755 74.0623 191.297 72.2073 191.297 70.208H189.543ZM184.837 75.9166H183.332V77.6705H184.837V75.9166ZM184.209 76.7936V64.1869H182.455V76.7936H184.209Z" fill="#02B8FA"/>
</g>
<rect x="1" y="106" width="200.245" height="37.7088" fill="white"/>
<path d="M24.149 133.23C23.5474 133.531 22.8599 133.66 22.0434 133.66C19.4222 133.66 17.8323 131.34 17.8323 127.558C17.8323 123.906 19.4222 121.327 22.1294 121.327C23.0747 121.327 23.7623 121.542 24.2349 121.714L24.9654 117.288C24.4068 117.03 23.2036 116.73 21.8715 116.73C16.0705 116.73 12.2461 121.241 12.2461 127.73C12.2461 134.562 15.7268 138.258 21.0551 138.258C22.645 138.258 24.063 137.914 24.6217 137.656L24.149 133.23ZM34.2575 116.601C30.0893 116.601 26.136 119.995 26.136 127.558C26.136 134.39 29.144 138.344 34.1715 138.344C37.3513 138.344 42.207 136.195 42.207 127.429C42.207 120.769 39.2421 116.601 34.2575 116.601ZM34.2145 120.898C36.1482 120.898 36.6208 124.55 36.6208 127.429C36.6208 130.523 36.1482 134.047 34.3004 134.047C32.2808 134.047 31.7222 131.039 31.7222 127.429C31.7222 124.55 32.1519 120.898 34.2145 120.898ZM45.3724 138H51.0015V125.195C51.0015 124.378 51.1305 123.691 51.3023 123.261C51.6891 122.015 52.4625 121.37 53.4079 121.37C55.0408 121.37 55.4705 123.089 55.4705 124.851V138H61.0996V124.507C61.0996 119.823 59.5097 116.644 55.5135 116.644C53.322 116.644 51.5172 117.761 50.4429 119.394H50.357L50.0562 116.987H45.2005C45.2865 119.007 45.3724 121.027 45.3724 123.304V138ZM90.165 138H84.6402L83.3142 133.995H79.7508L78.0104 130.321L75.4414 138H69.9166L77.2922 115.901H82.817L90.165 138ZM81.5739 128.801L80.0546 124.188L78.5077 128.801H81.5739ZM110.085 138H104.146L96.8806 126.923V138H91.6597V115.901H103.538C104.422 115.901 105.241 116.103 105.996 116.509C106.77 116.895 107.433 117.42 107.985 118.083C108.538 118.746 108.971 119.52 109.284 120.404C109.615 121.269 109.781 122.181 109.781 123.138C109.781 124.041 109.698 124.842 109.532 125.542C109.367 126.241 109.109 126.868 108.759 127.42C108.409 127.973 107.967 128.461 107.433 128.884C106.899 129.289 106.273 129.658 105.555 129.989C105.518 130.007 105.481 130.035 105.444 130.072C105.407 130.109 105.352 130.146 105.278 130.182L110.085 138ZM104.809 123.332C104.809 122.724 104.606 122.19 104.201 121.73C103.796 121.269 103.299 121.039 102.709 121.039H96.853V125.597H102.93C103.17 125.597 103.4 125.523 103.621 125.376C103.86 125.229 104.063 125.044 104.229 124.823C104.413 124.602 104.551 124.363 104.643 124.105C104.753 123.829 104.809 123.571 104.809 123.332ZM130.451 115.901L127.909 121.094H120.865C120.607 121.094 120.322 121.177 120.009 121.343C119.714 121.49 119.429 121.693 119.153 121.951C118.876 122.19 118.628 122.457 118.407 122.752C118.204 123.046 118.066 123.322 117.992 123.58C117.661 124.741 117.495 125.459 117.495 125.735C117.495 130.449 118.84 132.807 121.528 132.807H130.423V138H121.003C120.838 138 120.552 137.963 120.147 137.89C119.76 137.816 119.254 137.705 118.628 137.558C117.854 137.392 117.108 137.061 116.39 136.564C115.69 136.066 115.055 135.477 114.484 134.796C113.932 134.096 113.462 133.332 113.075 132.503C112.689 131.656 112.44 130.799 112.329 129.934C112.164 128.663 112.081 127.705 112.081 127.061C112.081 125.403 112.311 123.893 112.771 122.531C113.25 121.149 113.913 119.971 114.76 118.995C115.626 118.019 116.657 117.264 117.854 116.73C119.051 116.177 120.386 115.901 121.86 115.901H130.451ZM151.12 138H145.236L136.838 124.768V138H131.396V115.901H137.501L145.678 129.16V115.901H151.12V138ZM169.709 115.901L167.25 121.067H158.825V124.299H167.278V129.464H158.825V132.834H168.576V138H153.328V115.901H169.709ZM189.669 115.901L187.127 121.011H182.293V138H177.017V121.011H171.105V115.901H189.669Z" fill="#21A497"/>
<defs>
<filter id="filter0_d_366_8407" x="0.808478" y="57.5381" width="201.024" height="45.9697" filterUnits="userSpaceOnUse" color-interpolation-filters="sRGB">
<feFlood flood-opacity="0" result="BackgroundImageFix"/>
<feColorMatrix in="SourceAlpha" type="matrix" values="0 0 0 0 0 0 0 0 0 0 0 0 0 0 0 0 0 0 127 0" result="hardAlpha"/>
<feOffset dy="1.7539"/>
<feGaussianBlur stdDeviation="0.87695"/>
<feComposite in2="hardAlpha" operator="out"/>
<feColorMatrix type="matrix" values="0 0 0 0 0 0 0 0 0 0 0 0 0 0 0 0 0 0 0.25 0"/>
<feBlend mode="normal" in2="BackgroundImageFix" result="effect1_dropShadow_366_8407"/>
<feBlend mode="normal" in="SourceGraphic" in2="effect1_dropShadow_366_8407" result="shape"/>
</filter>
</defs>
</svg>
