<svg xmlns="http://www.w3.org/2000/svg" width="201" height="140" viewBox="0 0 201 140" fill="none">
<path d="M80.8582 2.01723C80.5983 3.68782 80.357 5.30272 80.1343 6.86194C79.9115 8.42116 79.6888 10.0175 79.466 11.651C79.2804 13.2473 79.002 14.7508 78.6307 16.1616C78.5194 16.904 78.4822 17.6094 78.5194 18.2776C78.5565 18.9087 78.9648 19.4842 79.7445 20.0039C79.4103 20.1895 79.0948 20.3752 78.7978 20.5608C78.5379 20.7093 78.3337 20.8763 78.1852 21.0619C77.9996 21.2847 77.8882 21.5631 77.8511 21.8972C77.8511 22.2314 77.814 22.5469 77.7398 22.8439C77.4799 25.1827 77.2015 27.4844 76.9045 29.749C76.6075 32.0136 76.3476 34.3153 76.1248 36.6541C76.0506 37.3966 76.032 38.1762 76.0692 38.9929C76.1063 39.8097 76.1248 40.5893 76.1248 41.3318C75.4937 41.8144 74.8812 42.0371 74.2872 42C73.7303 42 73.1363 41.9072 72.5052 41.7216C72.1711 40.0139 72.0783 38.3247 72.2268 36.6541C72.4124 34.9464 72.5981 33.2573 72.7837 31.5867C72.9693 29.8789 73.192 28.2084 73.4519 26.5749C73.7118 24.9414 73.9716 23.2337 74.2315 21.4518C74.0088 21.4146 73.786 21.3775 73.5633 21.3404C73.3405 21.3033 73.0807 21.3218 72.7837 21.3961C70.482 21.8416 68.1988 22.3056 65.9343 22.7882C63.6697 23.2337 61.368 23.6978 59.0292 24.1804C58.1753 24.3289 57.637 24.9043 57.4143 25.9067C57.3029 26.5006 57.1544 27.0761 56.9688 27.6329C56.8203 28.1527 56.6532 28.7095 56.4676 29.3035C56.3933 29.3035 56.3191 29.3035 56.2448 29.3035C56.2077 29.2664 56.152 29.2478 56.0778 29.2478C56.152 28.5425 56.2077 27.8742 56.2448 27.2431C56.3191 26.5749 56.4119 25.8881 56.5233 25.1827C55.8922 25.9995 55.5209 26.8719 55.4095 27.8C55.3353 28.7281 55.2239 29.6562 55.0754 30.5843C54.8898 31.5867 54.7227 32.589 54.5742 33.5914C54.4629 34.5937 54.3515 35.5961 54.2401 36.5984C54.1659 37.5637 54.1102 38.5289 54.0731 39.4941C54.0359 40.4593 53.9803 41.4246 53.906 42.3898C52.3468 42.3527 51.2702 42.0557 50.6762 41.4988C50.1193 40.942 49.8595 39.8839 49.8966 38.3247C49.8966 36.7655 49.9523 35.2248 50.0637 33.7027C50.2122 32.1806 50.3235 30.64 50.3978 29.0808C50.472 28.6724 50.5277 28.2826 50.5648 27.9114C50.602 27.503 50.6576 27.0204 50.7319 26.4635C50.175 26.6491 49.6553 26.8162 49.1727 26.9647C48.7272 27.1132 48.3003 27.2246 47.8919 27.2988C47.5578 27.3731 47.2051 27.4102 46.8339 27.4102C46.4997 27.3731 46.2027 27.2988 45.9429 27.1874C45.4974 27.0389 45.2746 26.7791 45.2746 26.4078C45.2375 26.0366 45.4231 25.7396 45.8315 25.5169C46.3141 25.257 46.8153 24.9971 47.335 24.7372C47.8919 24.4774 48.4673 24.3103 49.0613 24.2361C49.9152 24.0504 50.5463 23.6978 50.9546 23.178C51.4001 22.6212 51.7157 21.8416 51.9013 20.8392C52.421 18.389 52.9779 15.9759 53.5719 13.6C54.1659 11.1869 54.7784 8.75528 55.4095 6.30508C55.5209 5.97096 55.6323 5.63684 55.7437 5.30272C55.855 4.93148 55.985 4.56024 56.1335 4.189C56.6903 3.00103 57.2472 2.31423 57.8041 2.12861C58.3609 1.94299 59.1405 2.23998 60.1429 3.01959C59.3261 6.06377 58.5837 9.12652 57.9154 12.2078C57.2472 15.2891 56.7646 18.4447 56.4676 21.6745C56.579 21.7859 56.7275 21.8601 56.9131 21.8972C56.9873 21.7116 57.0616 21.5446 57.1358 21.3961C57.2472 21.2476 57.34 21.0805 57.4143 20.8949C57.8226 19.1501 58.231 17.3867 58.6393 15.6047C59.0848 13.8227 59.5118 12.0408 59.9201 10.2588C60.18 9.21933 60.5327 8.29122 60.9782 7.47449C60.7926 9.81332 60.4213 12.1336 59.8644 14.4353C59.3447 16.737 58.8807 19.1129 58.4723 21.5631C58.8435 21.526 59.1405 21.526 59.3633 21.5631C59.6231 21.5631 59.8644 21.526 60.0872 21.4518C62.2404 21.0805 64.375 20.7093 66.4911 20.338C68.6443 19.9297 70.8161 19.5399 73.0064 19.1686C73.5262 19.0944 73.9345 19.0016 74.2315 18.8902C74.5656 18.7417 74.8255 18.5561 75.0111 18.3333C75.2339 18.1106 75.4009 17.8136 75.5123 17.4423C75.6608 17.0711 75.7907 16.607 75.9021 16.0502C76.459 13.4515 76.9973 10.8714 77.517 8.30979C78.0739 5.71109 78.6493 3.13096 79.2433 0.56939C79.2433 0.383769 79.4103 0.198149 79.7445 0.0125277C79.6331 0.755011 79.5217 1.47893 79.4103 2.18429C79.3361 2.88965 79.2433 3.55789 79.1319 4.189C79.2062 4.22612 79.299 4.24469 79.4103 4.24469C79.5588 3.83632 79.7073 3.44652 79.8558 3.07527C80.0043 2.70403 80.1343 2.31423 80.2456 1.90586C80.357 1.94298 80.4498 1.98011 80.5241 2.01723C80.5983 2.01723 80.7097 2.01723 80.8582 2.01723ZM96.0849 26.1851C95.6765 26.2593 95.1754 26.3336 94.5814 26.4078C94.0245 26.445 93.5976 26.4821 93.3006 26.5192H93.1892C93.0036 27.3359 92.7066 28.264 92.2982 29.3035C91.927 30.3059 91.4815 31.2525 90.9618 32.1435C90.442 33.0345 89.8666 33.7956 89.2355 34.4267C88.6044 35.0578 87.9918 35.4105 87.3978 35.4847C86.3212 35.6332 85.2632 35.6146 84.2237 35.429C83.1842 35.2434 82.2933 34.5937 81.5508 33.48C80.9197 32.4405 80.5484 31.3268 80.4371 30.1388C80.2886 28.9137 80.3628 27.7629 80.6598 26.6863C80.9568 25.6097 81.4394 24.6816 82.1076 23.902C82.813 23.1223 83.6669 22.6769 84.6692 22.5655C84.4836 22.0086 84.3908 21.3589 84.3908 20.6165C84.4279 19.874 84.595 19.1686 84.892 18.5004C85.2261 17.8321 85.6901 17.2753 86.2841 16.8298C86.9152 16.3843 87.7505 16.1801 88.79 16.2172C89.9408 16.2915 90.8504 16.6813 91.5186 17.3867C92.1869 18.0549 92.6695 18.8345 92.9665 19.7255C93.2635 20.6165 93.4305 21.5074 93.4676 22.3984C93.5419 23.2523 93.5605 23.902 93.5233 24.3474C93.9688 24.3846 94.3958 24.4031 94.8041 24.4031C95.2125 24.4031 95.6394 24.4217 96.0849 24.4588C97.2358 24.4588 97.8483 24.6816 97.9226 25.1271C97.9968 25.5725 97.3843 25.9252 96.0849 26.1851ZM85.6716 24.4588C85.2261 25.2755 84.9291 26.1294 84.7806 27.0204C84.6321 27.8742 84.6321 28.691 84.7806 29.4706C84.9291 30.2131 85.189 30.8813 85.5602 31.4753C85.9686 32.0693 86.4883 32.4776 87.1194 32.7004C87.602 32.3291 88.029 31.8837 88.4002 31.3639C88.8086 30.8442 89.1427 30.2873 89.4025 29.6933C89.6995 29.0993 89.9408 28.5239 90.1265 27.9671C90.3121 27.4102 90.4606 26.9276 90.572 26.5192C89.5696 26.4821 88.5673 26.2965 87.5649 25.9623C86.5997 25.6282 85.9686 25.127 85.6716 24.4588ZM90.9061 24.2918C90.9803 23.4008 90.9432 22.4541 90.7947 21.4518C90.6833 20.4494 90.4606 19.577 90.1265 18.8345C89.7181 18.0178 89.2726 17.5723 88.79 17.498C88.3074 17.3867 87.8619 17.498 87.4535 17.8321C87.0823 18.1663 86.7853 18.6489 86.5625 19.28C86.3398 19.9111 86.3212 20.5236 86.5069 21.1176C86.7296 22.0086 87.2308 22.7882 88.0104 23.4565C88.79 24.0876 89.7552 24.366 90.9061 24.2918ZM119.491 27.8C118.971 28.2084 118.452 28.4682 117.932 28.5796C117.449 28.691 116.948 28.7281 116.428 28.691C115.946 28.6167 115.444 28.4868 114.925 28.3012C114.442 28.1155 113.941 27.9299 113.421 27.7443C113.198 28.2269 112.976 28.7095 112.753 29.1922C112.53 29.6748 112.326 30.1945 112.14 30.7514C111.843 31.6423 111.472 32.4591 111.027 33.2016C110.581 33.944 110.024 34.5752 109.356 35.0949C108.614 35.726 107.908 35.9488 107.24 35.7631C106.609 35.5775 106.089 35.0021 105.681 34.0369C105.31 32.9974 105.013 31.8094 104.79 30.4729C104.641 29.9532 104.53 29.4149 104.456 28.858C104.381 28.264 104.27 27.6144 104.122 26.909C103.49 27.6886 103.026 28.5425 102.729 29.4706C102.47 30.3616 102.191 31.234 101.894 32.0878C101.449 33.3872 100.947 34.2782 100.391 34.7608C99.8337 35.2063 99.0356 35.4105 97.9961 35.3733C96.9937 35.3733 96.3997 34.7422 96.2141 33.48C95.88 31.4382 95.7315 29.4335 95.7686 27.4659C95.8057 25.4612 96.0471 23.4936 96.4925 21.5631C96.5668 21.2661 96.7153 20.9877 96.938 20.7278C97.1979 20.468 97.4206 20.3009 97.6063 20.2267C97.9775 20.1153 98.3673 20.0967 98.7757 20.171C99.184 20.2081 99.6481 20.2267 100.168 20.2267C100.094 21.9344 100.019 23.5307 99.9451 25.0157C99.8708 26.4635 99.7966 27.9114 99.7223 29.3592C99.7966 29.3963 99.8523 29.452 99.8894 29.5263C99.9265 29.5634 99.9822 29.6005 100.056 29.6376C100.242 29.3406 100.428 29.0251 100.613 28.691C100.836 28.3197 101.04 27.9485 101.226 27.5772C101.523 26.8348 101.801 26.148 102.061 25.5169C102.358 24.8857 102.674 24.2546 103.008 23.6235C103.416 22.584 103.862 21.8972 104.344 21.5631C104.827 21.229 105.644 21.0619 106.795 21.0619C106.98 22.881 107.166 24.6816 107.351 26.4635C107.537 28.2455 107.741 30.1388 107.964 32.1435C108.298 31.9208 108.558 31.6609 108.744 31.3639C108.929 31.0669 109.078 30.7514 109.189 30.4172C109.338 30.0831 109.449 29.749 109.523 29.4149C109.635 29.0808 109.764 28.7652 109.913 28.4682C110.136 27.8 110.358 27.1503 110.581 26.5192C110.804 25.851 111.008 25.1642 111.194 24.4588C111.416 23.7535 111.621 23.0667 111.806 22.3984C111.992 21.6931 112.215 20.932 112.475 20.1153C112.809 20.338 113.106 20.5422 113.365 20.7278C113.662 20.8763 113.959 21.0434 114.256 21.229C114.665 21.6003 114.962 21.9344 115.147 22.2314C115.37 22.5284 115.203 23.0667 114.646 23.8463C114.238 24.366 114.127 24.9229 114.312 25.5169C114.535 26.0737 114.962 26.4264 115.593 26.5749C116.261 26.7605 116.911 26.9647 117.542 27.1874C118.173 27.4102 118.823 27.6144 119.491 27.8ZM107.24 33.2573C107.314 33.2573 107.351 33.2387 107.351 33.2016C107.351 33.1644 107.388 33.1459 107.463 33.1459C107.463 32.9974 107.463 32.8489 107.463 32.7004C107.463 32.5148 107.426 32.3291 107.351 32.1435C107.351 31.995 107.314 31.8651 107.24 31.7537C107.166 31.6052 107.092 31.4567 107.017 31.3082C106.943 31.3825 106.887 31.4196 106.85 31.4196C106.85 31.4196 106.832 31.4382 106.795 31.4753C106.869 31.7723 106.943 32.0693 107.017 32.3663C107.092 32.6261 107.166 32.9231 107.24 33.2573ZM134.906 14.1012C134.497 14.1012 134.145 14.0826 133.848 14.0455C133.588 14.0084 133.328 14.0269 133.068 14.1012C131.546 14.3982 130.061 14.7137 128.613 15.0478C127.128 15.3819 125.625 15.7161 124.103 16.0502C123.768 16.1244 123.509 16.1801 123.323 16.2172C123.137 16.2544 122.97 16.2358 122.822 16.1616C122.673 16.0873 122.525 15.9574 122.376 15.7718C122.228 15.549 122.042 15.252 121.819 14.8808C122.079 14.7323 122.339 14.5838 122.599 14.4353C122.822 14.2868 123.063 14.1754 123.323 14.1012C124.325 13.8042 125.328 13.5443 126.33 13.3216C127.332 13.0988 128.335 12.8575 129.337 12.5976C129.634 12.5605 130.005 12.4863 130.451 12.3749C130.896 12.2635 131.379 12.1521 131.899 12.0408C132.418 11.9294 132.938 11.818 133.458 11.7066C133.978 11.5953 134.442 11.5025 134.85 11.4282C134.887 11.0941 134.943 10.6857 135.017 10.2031C135.128 9.7205 135.258 9.23789 135.407 8.75528C135.555 8.23554 135.722 7.75292 135.908 7.30743C136.094 6.86194 136.298 6.47214 136.521 6.13802L137.412 9.53489C137.56 10.166 137.709 10.5558 137.857 10.7043C138.006 10.8157 138.377 10.8342 138.971 10.76C140.233 10.6115 141.477 10.463 142.702 10.3145C143.927 10.1289 145.17 9.99894 146.433 9.92469C148.103 9.85044 149.755 9.81332 151.389 9.81332C153.059 9.77619 154.73 9.7205 156.401 9.64626C156.92 9.64626 157.366 9.75763 157.737 9.98037C158.108 10.166 158.368 10.5744 158.517 11.2055C157.403 11.2797 156.289 11.3354 155.175 11.3725C154.062 11.4097 152.967 11.4839 151.89 11.5953C150.813 11.7066 149.663 11.8551 148.437 12.0408C147.212 12.2264 145.969 12.412 144.706 12.5976C143.444 12.7461 142.201 12.9132 140.975 13.0988C139.75 13.2473 138.581 13.3772 137.467 13.4886C137.17 15.4562 136.873 17.2567 136.576 18.8902C136.316 20.4865 136.075 22.0643 135.852 23.6235C135.667 25.1456 135.518 26.7048 135.407 28.3012C135.295 29.8604 135.24 31.5681 135.24 33.4243C135.314 33.7956 135.463 33.8698 135.685 33.6471C135.945 33.4243 136.242 33.0345 136.576 32.4776C136.91 31.9208 137.263 31.2525 137.634 30.4729C138.006 29.6562 138.377 28.8395 138.748 28.0227C139.119 27.206 139.453 26.4635 139.75 25.7953C140.084 25.0899 140.344 24.5516 140.53 24.1804C140.938 24.3289 141.198 24.5702 141.31 24.9043C141.421 25.2013 141.421 25.4983 141.31 25.7953L137.857 34.3153C137.597 34.8722 137.319 35.3548 137.022 35.7631C136.725 36.2086 136.372 36.5427 135.964 36.7655C135.555 36.9511 135.128 37.0439 134.683 37.0439C134.275 37.0068 133.866 36.8769 133.458 36.6541C133.087 36.3942 132.79 36.0416 132.567 35.5961C132.084 34.668 131.824 33.7027 131.787 32.7004C131.713 31.4753 131.713 30.0646 131.787 28.4682C131.824 26.8719 131.936 25.2384 132.121 23.5678C132.307 21.8972 132.548 20.2823 132.845 18.7231C133.142 17.1639 133.458 15.7903 133.792 14.6023C133.866 14.4538 133.959 14.361 134.07 14.3239C134.182 14.2497 134.237 14.3982 134.237 14.7694C134.237 14.9921 134.2 15.2706 134.126 15.6047C134.089 15.9388 134.033 16.2729 133.959 16.607C133.885 16.9412 133.81 17.2753 133.736 17.6094C133.699 17.9064 133.681 18.1477 133.681 18.3333C133.718 18.7046 133.773 18.8716 133.848 18.8345C133.922 18.7602 133.996 18.6303 134.07 18.4447C134.107 18.3333 134.163 18.0735 134.237 17.6651C134.349 17.2567 134.442 16.8298 134.516 16.3843C134.627 15.9017 134.72 15.4562 134.794 15.0478C134.869 14.6023 134.906 14.2868 134.906 14.1012ZM154.817 26.1851C154.408 26.2593 153.907 26.3336 153.313 26.4078C152.756 26.445 152.329 26.4821 152.032 26.5192H151.921C151.735 27.3359 151.438 28.264 151.03 29.3035C150.659 30.3059 150.213 31.2525 149.693 32.1435C149.174 33.0345 148.598 33.7956 147.967 34.4267C147.336 35.0578 146.723 35.4105 146.129 35.4847C145.053 35.6332 143.995 35.6146 142.955 35.429C141.916 35.2434 141.025 34.5937 140.282 33.48C139.651 32.4405 139.28 31.3268 139.169 30.1388C139.02 28.9137 139.094 27.7629 139.391 26.6863C139.688 25.6097 140.171 24.6816 140.839 23.902C141.545 23.1223 142.399 22.6769 143.401 22.5655C143.215 22.0086 143.122 21.3589 143.122 20.6165C143.16 19.874 143.327 19.1686 143.624 18.5004C143.958 17.8321 144.422 17.2753 145.016 16.8298C145.647 16.3843 146.482 16.1801 147.522 16.2172C148.672 16.2915 149.582 16.6813 150.25 17.3867C150.919 18.0549 151.401 18.8345 151.698 19.7255C151.995 20.6165 152.162 21.5074 152.199 22.3984C152.274 23.2523 152.292 23.902 152.255 24.3474C152.7 24.3846 153.127 24.4031 153.536 24.4031C153.944 24.4031 154.371 24.4217 154.817 24.4588C155.967 24.4588 156.58 24.6816 156.654 25.1271C156.728 25.5725 156.116 25.9252 154.817 26.1851ZM144.403 24.4588C143.958 25.2755 143.661 26.1294 143.512 27.0204C143.364 27.8742 143.364 28.691 143.512 29.4706C143.661 30.2131 143.921 30.8813 144.292 31.4753C144.7 32.0693 145.22 32.4776 145.851 32.7004C146.334 32.3291 146.761 31.8837 147.132 31.3639C147.54 30.8442 147.874 30.2873 148.134 29.6933C148.431 29.0993 148.672 28.5239 148.858 27.9671C149.044 27.4102 149.192 26.9276 149.304 26.5192C148.301 26.4821 147.299 26.2965 146.297 25.9623C145.331 25.6282 144.7 25.127 144.403 24.4588ZM149.638 24.2918C149.712 23.4008 149.675 22.4541 149.526 21.4518C149.415 20.4494 149.192 19.577 148.858 18.8345C148.45 18.0178 148.004 17.5723 147.522 17.498C147.039 17.3867 146.594 17.498 146.185 17.8321C145.814 18.1663 145.517 18.6489 145.294 19.28C145.071 19.9111 145.053 20.5236 145.239 21.1176C145.461 22.0086 145.962 22.7882 146.742 23.4565C147.522 24.0876 148.487 24.366 149.638 24.2918Z" fill="white"/>
<g filter="url(#filter0_d_366_8407)">
<path d="M19.2335 82.3411L21.0524 92H29.0179L20.8015 49.7267H10.9545L1.79738 92H9.76282L11.6444 82.3411H19.2335ZM12.4598 75.9437L14.0278 67.1002C14.4668 64.6541 15.094 60.3264 15.5331 57.504H15.7212C16.0975 60.2637 16.662 64.5286 17.1011 67.1002L18.4809 75.9437H12.4598ZM33.6596 91.8118C35.2904 92.0627 37.8619 92.3136 40.4961 92.3136C46.3291 92.3136 50.4686 90.9338 53.3537 88.2368C57.0542 84.9754 59.2494 78.8915 59.2494 70.3616C59.2494 62.1453 57.3678 56.5632 53.73 53.3018C51.0331 50.793 47.3326 49.5386 42.0014 49.5386C38.74 49.5386 35.7294 49.8522 33.6596 50.3539V91.8118ZM41.876 56.3123C42.3777 56.1242 42.9422 56.1242 43.5067 56.1242C48.4616 56.1242 50.7195 61.3926 50.7195 70.048C50.7195 81.7139 47.2699 85.6026 43.3185 85.6026C42.8795 85.6026 42.315 85.6026 41.876 85.4771V56.3123ZM79.5839 92L89.2428 49.7267H80.2111L77.326 67.7901C76.5733 72.5568 75.8834 77.6371 75.3189 82.6547H75.1935C74.629 77.6998 73.7509 72.5568 73.061 67.9782L70.0505 49.7267H60.9561L70.3641 92H79.5839ZM106.147 82.3411L107.966 92H115.932L107.715 49.7267H97.8683L88.7111 92H96.6766L98.5582 82.3411H106.147ZM99.3735 75.9437L100.942 67.1002C101.381 64.6541 102.008 60.3264 102.447 57.504H102.635C103.011 60.2637 103.576 64.5286 104.015 67.1002L105.395 75.9437H99.3735ZM127.786 92V82.5293C127.786 73.9994 127.473 67.4765 127.222 63.2115H127.347C128.351 66.9747 130.232 72.3686 131.675 75.9437L138.135 92H145.661V49.7267H138.449V59.072C138.449 66.8493 139.013 74.1875 139.264 78.6406H139.139C137.947 75.0029 135.94 69.5462 134.623 66.2848L128.1 49.7267H120.573V92H127.786ZM172.357 84.4736C171.353 84.7872 169.785 85.1008 168.405 85.1008C163.388 85.1008 159.562 81.1494 159.562 71.0515C159.562 60.5773 163.764 56.5632 168.405 56.5632C170.224 56.5632 171.29 56.9395 172.231 57.3786L173.611 50.4794C172.796 49.9149 170.789 49.3504 167.903 49.3504C159.687 49.3504 150.844 55.5597 150.844 71.4906C150.844 83.5328 155.987 92.3763 166.837 92.3763C169.66 92.3763 171.98 91.9373 173.172 91.3728L172.357 84.4736ZM195.471 66.5984H185.875V56.8768H196.035V49.7267H177.658V92H196.725V84.8499H185.875V73.4349H195.471V66.5984Z" fill="#02B8FA"/>
<path d="M19.2335 82.3411L20.0953 82.1788L19.9608 81.4642H19.2335V82.3411ZM21.0524 92L20.1906 92.1623L20.3252 92.8769H21.0524V92ZM29.0179 92V92.8769H30.0817L29.8787 91.8327L29.0179 92ZM20.8015 49.7267L21.6624 49.5594L21.5245 48.8498H20.8015V49.7267ZM10.9545 49.7267V48.8498H10.2472L10.0974 49.5411L10.9545 49.7267ZM1.79738 92L0.940312 91.8143L0.710133 92.8769H1.79738V92ZM9.76282 92V92.8769H10.4854L10.6236 92.1677L9.76282 92ZM11.6444 82.3411V81.4642H10.9218L10.7837 82.1734L11.6444 82.3411ZM12.4598 75.9437L11.5963 75.7906L11.4137 76.8206H12.4598V75.9437ZM14.0278 67.1002L13.1646 66.9452L13.1643 66.9471L14.0278 67.1002ZM15.5331 57.504V56.627H14.782L14.6665 57.3692L15.5331 57.504ZM15.7212 57.504L16.5901 57.3855L16.4867 56.627H15.7212V57.504ZM17.1011 67.1002L17.9676 66.965L17.9655 66.9526L17.1011 67.1002ZM18.4809 75.9437V76.8206H19.5053L19.3474 75.8085L18.4809 75.9437ZM18.3717 82.5034L20.1906 92.1623L21.9142 91.8377L20.0953 82.1788L18.3717 82.5034ZM21.0524 92.8769H29.0179V91.1231H21.0524V92.8769ZM29.8787 91.8327L21.6624 49.5594L19.9407 49.894L28.157 92.1673L29.8787 91.8327ZM20.8015 48.8498H10.9545V50.6037H20.8015V48.8498ZM10.0974 49.5411L0.940312 91.8143L2.65446 92.1857L11.8116 49.9124L10.0974 49.5411ZM1.79738 92.8769H9.76282V91.1231H1.79738V92.8769ZM10.6236 92.1677L12.5052 82.5088L10.7837 82.1734L8.90206 91.8323L10.6236 92.1677ZM11.6444 83.2181H19.2335V81.4642H11.6444V83.2181ZM13.3233 76.0968L14.8913 67.2533L13.1643 66.9471L11.5963 75.7906L13.3233 76.0968ZM14.8909 67.2551C15.3323 64.7959 15.9635 60.4421 16.3996 57.6388L14.6665 57.3692C14.2245 60.2107 13.6013 64.5123 13.1646 66.9452L14.8909 67.2551ZM15.5331 58.3809H15.7212V56.627H15.5331V58.3809ZM14.8523 57.6225C15.2271 60.3711 15.7944 64.6574 16.2366 67.2477L17.9655 66.9526C17.5297 64.3999 16.968 60.1563 16.5901 57.3855L14.8523 57.6225ZM16.2346 67.2354L17.6144 76.0789L19.3474 75.8085L17.9675 66.965L16.2346 67.2354ZM18.4809 75.0667H12.4598V76.8206H18.4809V75.0667ZM33.6596 91.8118H32.7827V92.5642L33.5263 92.6786L33.6596 91.8118ZM53.3537 88.2368L52.7739 87.5789L52.7642 87.5874L52.7549 87.5962L53.3537 88.2368ZM53.73 53.3018L53.1327 53.9438L53.1386 53.9493L53.1446 53.9547L53.73 53.3018ZM33.6596 50.3539L33.453 49.5017L32.7827 49.6642V50.3539H33.6596ZM41.876 56.3123L41.568 55.4912L40.999 55.7046V56.3123H41.876ZM41.876 85.4771H40.999V86.1386L41.635 86.3203L41.876 85.4771ZM33.5263 92.6786C35.197 92.9356 37.8132 93.1905 40.4961 93.1905V91.4367C37.9105 91.4367 35.3837 91.1898 33.793 90.9451L33.5263 92.6786ZM40.4961 93.1905C46.4627 93.1905 50.8501 91.7776 53.9526 88.8774L52.7549 87.5962C50.0871 90.09 46.1954 91.4367 40.4961 91.4367V93.1905ZM53.9336 88.8947C57.9073 85.3924 60.1263 79.0033 60.1263 70.3616H58.3724C58.3724 78.7797 56.2011 84.5583 52.7739 87.5789L53.9336 88.8947ZM60.1263 70.3616C60.1263 62.0446 58.2262 56.155 54.3154 52.6488L53.1446 53.9547C56.5094 56.9714 58.3724 62.246 58.3724 70.3616H60.1263ZM54.3273 52.6597C51.417 49.9524 47.4728 48.6616 42.0014 48.6616V50.4155C47.1924 50.4155 50.6492 51.6336 53.1327 53.9438L54.3273 52.6597ZM42.0014 48.6616C38.6956 48.6616 35.6112 48.9785 33.453 49.5017L33.8662 51.2062C35.8476 50.7259 38.7843 50.4155 42.0014 50.4155V48.6616ZM32.7827 50.3539V91.8118H34.5366V50.3539H32.7827ZM42.1839 57.1334C42.5099 57.0112 42.9071 57.0011 43.5067 57.0011V55.2472C42.9773 55.2472 42.2455 55.2371 41.568 55.4912L42.1839 57.1334ZM43.5067 57.0011C44.5808 57.0011 45.4739 57.2836 46.2247 57.8035C46.983 58.3287 47.6419 59.1284 48.1847 60.2284C49.2805 62.449 49.8425 65.7709 49.8425 70.048H51.5964C51.5964 65.6697 51.0294 62.0297 49.7576 59.4523C49.1165 58.1532 48.282 57.0948 47.2233 56.3617C46.1572 55.6233 44.91 55.2472 43.5067 55.2472V57.0011ZM49.8425 70.048C49.8425 75.8192 48.9851 79.5326 47.735 81.7726C46.5163 83.9564 44.9424 84.7256 43.3185 84.7256V86.4795C45.646 86.4795 47.7726 85.3044 49.2665 82.6274C50.7291 80.0066 51.5964 75.9427 51.5964 70.048H49.8425ZM43.3185 84.7256C42.8456 84.7256 42.4144 84.7189 42.1169 84.6339L41.635 86.3203C42.2156 86.4862 42.9133 86.4795 43.3185 86.4795V84.7256ZM42.7529 85.4771V56.3123H40.999V85.4771H42.7529ZM79.5839 92V92.8769H80.2831L80.4388 92.1953L79.5839 92ZM89.2428 49.7267L90.0977 49.9221L90.3427 48.8498H89.2428V49.7267ZM80.2111 49.7267V48.8498H79.4631L79.3451 49.5884L80.2111 49.7267ZM77.326 67.7901L76.46 67.6518L76.4598 67.6533L77.326 67.7901ZM75.3189 82.6547V83.5317H76.1028L76.1904 82.7528L75.3189 82.6547ZM75.1935 82.6547L74.3222 82.754L74.4108 83.5317H75.1935V82.6547ZM73.061 67.9782L73.9283 67.8476L73.9263 67.8355L73.061 67.9782ZM70.0505 49.7267L70.9157 49.584L70.7946 48.8498H70.0505V49.7267ZM60.9561 49.7267V48.8498H59.8625L60.1001 49.9172L60.9561 49.7267ZM70.3641 92L69.5081 92.1905L69.6608 92.8769H70.3641V92ZM80.4388 92.1953L90.0977 49.9221L88.3879 49.5314L78.729 91.8047L80.4388 92.1953ZM89.2428 48.8498H80.2111V50.6037H89.2428V48.8498ZM79.3451 49.5884L76.46 67.6518L78.192 67.9284L81.0771 49.865L79.3451 49.5884ZM76.4598 67.6533C75.7051 72.4328 75.0134 77.526 74.4475 82.5567L76.1904 82.7528C76.7534 77.7482 77.4416 72.6808 78.1922 67.9269L76.4598 67.6533ZM75.3189 81.7778H75.1935V83.5317H75.3189V81.7778ZM76.0648 82.5555C75.498 77.5796 74.6145 72.4025 73.9282 67.8476L72.1939 68.1089C72.8874 72.7111 73.7601 77.82 74.3222 82.754L76.0648 82.5555ZM73.9263 67.8355L70.9157 49.584L69.1852 49.8694L72.1958 68.121L73.9263 67.8355ZM70.0505 48.8498H60.9561V50.6037H70.0505V48.8498ZM60.1001 49.9172L69.5081 92.1905L71.2201 91.8095L61.8121 49.5362L60.1001 49.9172ZM70.3641 92.8769H79.5839V91.1231H70.3641V92.8769ZM106.147 82.3411L107.009 82.1788L106.875 81.4642H106.147V82.3411ZM107.966 92L107.104 92.1623L107.239 92.8769H107.966V92ZM115.932 92V92.8769H116.995L116.792 91.8327L115.932 92ZM107.715 49.7267L108.576 49.5594L108.438 48.8498H107.715V49.7267ZM97.8683 49.7267V48.8498H97.1609L97.0112 49.5411L97.8683 49.7267ZM88.7111 92L87.8541 91.8143L87.6239 92.8769H88.7111V92ZM96.6766 92V92.8769H97.3992L97.5373 92.1677L96.6766 92ZM98.5582 82.3411V81.4642H97.8356L97.6974 82.1734L98.5582 82.3411ZM99.3735 75.9437L98.5101 75.7906L98.3274 76.8206H99.3735V75.9437ZM100.942 67.1002L100.078 66.9452L100.078 66.9471L100.942 67.1002ZM102.447 57.504V56.627H101.696L101.58 57.3692L102.447 57.504ZM102.635 57.504L103.504 57.3855L103.4 56.627H102.635V57.504ZM104.015 67.1002L104.881 66.965L104.879 66.9526L104.015 67.1002ZM105.395 75.9437V76.8206H106.419L106.261 75.8085L105.395 75.9437ZM105.285 82.5034L107.104 92.1623L108.828 91.8377L107.009 82.1788L105.285 82.5034ZM107.966 92.8769H115.932V91.1231H107.966V92.8769ZM116.792 91.8327L108.576 49.5594L106.854 49.894L115.071 92.1673L116.792 91.8327ZM107.715 48.8498H97.8683V50.6037H107.715V48.8498ZM97.0112 49.5411L87.8541 91.8143L89.5682 92.1857L98.7253 49.9124L97.0112 49.5411ZM88.7111 92.8769H96.6766V91.1231H88.7111V92.8769ZM97.5373 92.1677L99.4189 82.5088L97.6974 82.1734L95.8158 91.8323L97.5373 92.1677ZM98.5582 83.2181H106.147V81.4642H98.5582V83.2181ZM100.237 76.0968L101.805 67.2533L100.078 66.9471L98.5101 75.7906L100.237 76.0968ZM101.805 67.2551C102.246 64.7959 102.877 60.4421 103.313 57.6388L101.58 57.3692C101.138 60.2107 100.515 64.5123 100.078 66.9452L101.805 67.2551ZM102.447 58.3809H102.635V56.627H102.447V58.3809ZM101.766 57.6225C102.141 60.3711 102.708 64.6574 103.15 67.2477L104.879 66.9526C104.443 64.3999 103.882 60.1563 103.504 57.3855L101.766 57.6225ZM103.148 67.2354L104.528 76.0789L106.261 75.8085L104.881 66.965L103.148 67.2354ZM105.395 75.0667H99.3735V76.8206H105.395V75.0667ZM127.786 92V92.8769H128.663V92H127.786ZM127.222 63.2115V62.3346H126.292L126.346 63.263L127.222 63.2115ZM127.347 63.2115L128.194 62.9856L128.021 62.3346H127.347V63.2115ZM131.675 75.9437L132.488 75.6163L132.488 75.6155L131.675 75.9437ZM138.135 92L137.321 92.3273L137.543 92.8769H138.135V92ZM145.661 92V92.8769H146.538V92H145.661ZM145.661 49.7267H146.538V48.8498H145.661V49.7267ZM138.449 49.7267V48.8498H137.572V49.7267H138.449ZM139.264 78.6406V79.5176H140.192L140.14 78.5913L139.264 78.6406ZM139.139 78.6406L138.305 78.9136L138.503 79.5176H139.139V78.6406ZM134.623 66.2848L133.807 66.6062L133.81 66.6132L134.623 66.2848ZM128.1 49.7267L128.916 49.4053L128.697 48.8498H128.1V49.7267ZM120.573 49.7267V48.8498H119.696V49.7267H120.573ZM120.573 92H119.696V92.8769H120.573V92ZM128.663 92V82.5293H126.909V92H128.663ZM128.663 82.5293C128.663 73.9772 128.349 67.4364 128.097 63.16L126.346 63.263C126.596 67.5166 126.909 74.0215 126.909 82.5293H128.663ZM127.222 64.0885H127.347V62.3346H127.222V64.0885ZM126.5 63.4375C127.515 67.2438 129.409 72.6727 130.862 76.2718L132.488 75.6155C131.055 72.0646 129.186 66.7056 128.194 62.9856L126.5 63.4375ZM130.861 76.271L137.321 92.3273L138.949 91.6727L132.488 75.6163L130.861 76.271ZM138.135 92.8769H145.661V91.1231H138.135V92.8769ZM146.538 92V49.7267H144.784V92H146.538ZM145.661 48.8498H138.449V50.6037H145.661V48.8498ZM137.572 49.7267V59.072H139.326V49.7267H137.572ZM137.572 59.072C137.572 66.8817 138.139 74.2585 138.388 78.69L140.14 78.5913C139.887 74.1166 139.326 66.8169 139.326 59.072H137.572ZM139.264 77.7637H139.139V79.5176H139.264V77.7637ZM139.972 78.3676C138.774 74.7103 136.76 69.2352 135.436 65.9564L133.81 66.6132C135.12 69.8573 137.12 75.2955 138.305 78.9136L139.972 78.3676ZM135.439 65.9634L128.916 49.4053L127.284 50.0481L133.807 66.6062L135.439 65.9634ZM128.1 48.8498H120.573V50.6037H128.1V48.8498ZM119.696 49.7267V92H121.45V49.7267H119.696ZM120.573 92.8769H127.786V91.1231H120.573V92.8769ZM172.357 84.4736L173.227 84.3707L173.103 83.3214L172.095 83.6366L172.357 84.4736ZM172.231 57.3786L171.86 58.1732L172.872 58.6454L173.091 57.5505L172.231 57.3786ZM173.611 50.4794L174.471 50.6513L174.584 50.0863L174.11 49.7583L173.611 50.4794ZM173.172 91.3728L173.547 92.1653L174.117 91.8956L174.043 91.2699L173.172 91.3728ZM172.095 83.6366C171.155 83.9302 169.677 84.2239 168.405 84.2239V85.9777C169.893 85.9777 171.551 85.6442 172.618 85.3106L172.095 83.6366ZM168.405 84.2239C166.158 84.2239 164.225 83.3557 162.819 81.3581C161.382 79.316 160.439 76.0109 160.439 71.0515H158.685C158.685 76.1901 159.655 79.9096 161.385 82.3676C163.146 84.8702 165.635 85.9777 168.405 85.9777V84.2239ZM160.439 71.0515C160.439 65.9149 161.472 62.4954 162.96 60.3849C164.425 58.3073 166.367 57.4401 168.405 57.4401V55.6862C165.802 55.6862 163.323 56.8262 161.526 59.3742C159.753 61.8893 158.685 65.7139 158.685 71.0515H160.439ZM168.405 57.4401C170.072 57.4401 171.012 57.7775 171.86 58.1732L172.602 56.5839C171.568 56.1016 170.376 55.6862 168.405 55.6862V57.4401ZM173.091 57.5505L174.471 50.6513L172.751 50.3074L171.371 57.2066L173.091 57.5505ZM174.11 49.7583C173.568 49.3828 172.735 49.0692 171.721 48.8466C170.688 48.6198 169.401 48.4734 167.903 48.4734V50.2273C169.291 50.2273 170.45 50.3632 171.345 50.5598C172.26 50.7605 172.839 51.0114 173.112 51.2004L174.11 49.7583ZM167.903 48.4734C163.573 48.4734 159.065 50.1121 155.645 53.8549C152.225 57.5978 149.967 63.3633 149.967 71.4906H151.721C151.721 63.687 153.884 58.3823 156.94 55.0379C159.996 51.6933 164.017 50.2273 167.903 50.2273V48.4734ZM149.967 71.4906C149.967 77.6188 151.273 83.0416 154.057 86.9574C156.869 90.9129 161.138 93.2533 166.837 93.2533V91.4994C161.686 91.4994 157.958 89.418 155.486 85.9411C152.986 82.4246 151.721 77.4046 151.721 71.4906H149.967ZM166.837 93.2533C169.714 93.2533 172.185 92.8106 173.547 92.1653L172.797 90.5803C171.775 91.064 169.605 91.4994 166.837 91.4994V93.2533ZM174.043 91.2699L173.227 84.3707L171.486 84.5765L172.301 91.4757L174.043 91.2699ZM195.471 66.5984H196.348V65.7214H195.471V66.5984ZM185.875 66.5984H184.998V67.4753H185.875V66.5984ZM185.875 56.8768V55.9998H184.998V56.8768H185.875ZM196.035 56.8768V57.7537H196.912V56.8768H196.035ZM196.035 49.7267H196.912V48.8498H196.035V49.7267ZM177.658 49.7267V48.8498H176.781V49.7267H177.658ZM177.658 92H176.781V92.8769H177.658V92ZM196.725 92V92.8769H197.602V92H196.725ZM196.725 84.8499H197.602V83.973H196.725V84.8499ZM185.875 84.8499H184.998V85.7269H185.875V84.8499ZM185.875 73.4349V72.5579H184.998V73.4349H185.875ZM195.471 73.4349V74.3118H196.348V73.4349H195.471ZM195.471 65.7214H185.875V67.4753H195.471V65.7214ZM186.752 66.5984V56.8768H184.998V66.5984H186.752ZM185.875 57.7537H196.035V55.9998H185.875V57.7537ZM196.912 56.8768V49.7267H195.158V56.8768H196.912ZM196.035 48.8498H177.658V50.6037H196.035V48.8498ZM176.781 49.7267V92H178.535V49.7267H176.781ZM177.658 92.8769H196.725V91.1231H177.658V92.8769ZM197.602 92V84.8499H195.848V92H197.602ZM196.725 83.973H185.875V85.7269H196.725V83.973ZM186.752 84.8499V73.4349H184.998V84.8499H186.752ZM185.875 74.3118H195.471V72.5579H185.875V74.3118ZM196.348 73.4349V66.5984H194.594V73.4349H196.348Z" fill="#02B8FA"/>
</g>
<rect y="98" width="200.245" height="37.7088" fill="white"/>
<path d="M20.4321 123.769C20.4321 125.746 20.3461 128.152 20.2602 130H25.0729L25.3737 127.508H25.5026C26.6198 129.613 27.866 130.344 29.6278 130.344C33.5381 130.344 36.4601 126.305 36.4601 118.914C36.4601 113.241 34.5694 108.601 30.5302 108.601C28.5105 108.601 27.1355 109.589 26.1472 111.093H26.0612V100.264H20.4321V123.769ZM26.0612 116.593C26.0612 116.206 26.1472 115.648 26.2761 115.304C26.5769 114.273 27.3074 113.37 28.1668 113.37C30.0575 113.37 30.8739 115.691 30.8739 119.343C30.8739 123.383 30.1005 125.746 28.2098 125.746C27.5222 125.746 26.7488 125.316 26.2761 123.812C26.1472 123.511 26.0612 122.996 26.0612 122.48V116.593ZM37.5119 108.987L43.3129 128.453C43.3988 128.711 43.4848 128.969 43.4848 129.227C43.4848 129.527 43.3559 129.785 43.184 130.129C42.7972 131.031 42.1957 131.934 41.4222 132.664C40.5628 133.438 39.5745 134.039 38.6291 134.383L40.3479 139.239C41.2073 139.024 43.3129 138.035 45.1177 135.93C47.3951 133.266 48.7702 129.184 49.8014 125.23L54.0985 108.987H48.5553L46.8365 120.031C46.6646 121.191 46.4927 122.394 46.3208 123.468H46.2349C46.063 122.308 45.8911 121.191 45.6333 119.945L43.5707 108.987H37.5119ZM88.1856 130H82.6609L81.3349 125.995H77.7714L76.0311 122.321L73.4621 130H67.9373L75.3129 107.901H80.8377L88.1856 130ZM79.5946 120.801L78.0753 116.188L76.5283 120.801H79.5946ZM108.106 130H102.166L94.9013 118.923V130H89.6804V107.901H101.559C102.443 107.901 103.262 108.103 104.017 108.509C104.791 108.895 105.454 109.42 106.006 110.083C106.559 110.746 106.991 111.52 107.304 112.404C107.636 113.269 107.802 114.181 107.802 115.138C107.802 116.041 107.719 116.842 107.553 117.542C107.387 118.241 107.129 118.868 106.78 119.42C106.43 119.973 105.988 120.461 105.454 120.884C104.92 121.289 104.293 121.658 103.575 121.989C103.538 122.007 103.502 122.035 103.465 122.072C103.428 122.109 103.373 122.146 103.299 122.182L108.106 130ZM102.829 115.332C102.829 114.724 102.627 114.19 102.222 113.73C101.816 113.269 101.319 113.039 100.73 113.039H94.8737V117.597H100.951C101.19 117.597 101.421 117.523 101.642 117.376C101.881 117.229 102.083 117.044 102.249 116.823C102.433 116.602 102.572 116.363 102.664 116.105C102.774 115.829 102.829 115.571 102.829 115.332ZM128.471 107.901L125.93 113.094H118.886C118.628 113.094 118.343 113.177 118.03 113.343C117.735 113.49 117.45 113.693 117.173 113.951C116.897 114.19 116.648 114.457 116.427 114.752C116.225 115.046 116.087 115.322 116.013 115.58C115.682 116.741 115.516 117.459 115.516 117.735C115.516 122.449 116.86 124.807 119.549 124.807H128.444V130H119.024C118.858 130 118.573 129.963 118.168 129.89C117.781 129.816 117.275 129.705 116.648 129.558C115.875 129.392 115.129 129.061 114.411 128.564C113.711 128.066 113.076 127.477 112.505 126.796C111.952 126.096 111.483 125.332 111.096 124.503C110.709 123.656 110.461 122.799 110.35 121.934C110.184 120.663 110.102 119.705 110.102 119.061C110.102 117.403 110.332 115.893 110.792 114.531C111.271 113.149 111.934 111.971 112.781 110.995C113.647 110.019 114.678 109.264 115.875 108.73C117.072 108.177 118.407 107.901 119.88 107.901H128.471ZM149.14 130H143.256L134.859 116.768V130H129.417V107.901H135.522L143.698 121.16V107.901H149.14V130ZM167.73 107.901L165.271 113.067H156.846V116.299H165.299V121.464H156.846V124.834H166.597V130H151.349V107.901H167.73ZM187.689 107.901L185.148 113.011H180.314V130H175.038V113.011H169.126V107.901H187.689Z" fill="#21A497"/>
<defs>
<filter id="filter0_d_366_8407" x="0.0434791" y="49.3506" width="198.436" height="46.5332" filterUnits="userSpaceOnUse" color-interpolation-filters="sRGB">
<feFlood flood-opacity="0" result="BackgroundImageFix"/>
<feColorMatrix in="SourceAlpha" type="matrix" values="0 0 0 0 0 0 0 0 0 0 0 0 0 0 0 0 0 0 127 0" result="hardAlpha"/>
<feOffset dy="1.7539"/>
<feGaussianBlur stdDeviation="0.87695"/>
<feComposite in2="hardAlpha" operator="out"/>
<feColorMatrix type="matrix" values="0 0 0 0 0 0 0 0 0 0 0 0 0 0 0 0 0 0 0.25 0"/>
<feBlend mode="normal" in2="BackgroundImageFix" result="effect1_dropShadow_366_8407"/>
<feBlend mode="normal" in="SourceGraphic" in2="effect1_dropShadow_366_8407" result="shape"/>
</filter>
</defs>
</svg>