<svg xmlns="http://www.w3.org/2000/svg" width="375" height="807" viewBox="0 0 375 807" fill="none">
<g clip-path="url(#clip0_587_6293)">
<rect width="375" height="806.295" transform="translate(0 0.706055)" fill="#003B36"/>
<path opacity="0.7" d="M99 617.889L94.233 617.889L94.233 626.654L101.591 621.89L99 617.889ZM99 543.752L96.3597 539.783L94.233 541.198L94.233 543.752L99 543.752ZM177.942 491.238L180.582 495.207L186.628 491.186L180.534 487.237L177.942 491.238ZM99 440.098L94.233 440.098L94.233 442.689L96.4081 444.099L99 440.098ZM99 361.156L101.64 357.186L94.233 352.261L94.233 361.156L99 361.156ZM236.29 452.454L233.651 456.423L236.29 458.179L238.93 456.423L236.29 452.454ZM373.581 361.156L378.348 361.156L378.348 352.261L370.941 357.186L373.581 361.156ZM373.581 440.098L376.172 444.099L378.348 442.689L378.348 440.098L373.581 440.098ZM294.639 491.238L292.047 487.237L285.952 491.186L291.998 495.207L294.639 491.238ZM373.581 543.752L378.348 543.752L378.348 541.198L376.221 539.783L373.581 543.752ZM373.581 617.889L370.99 621.89L378.348 626.654L378.348 617.889L373.581 617.889ZM236.29 528.993L238.881 524.992L236.29 523.314L233.699 524.992L236.29 528.993ZM103.767 617.889L103.767 543.752L94.233 543.752L94.233 617.889L103.767 617.889ZM101.64 547.721L180.582 495.207L175.302 487.269L96.3597 539.783L101.64 547.721ZM180.534 487.237L101.592 436.097L96.4081 444.099L175.35 495.239L180.534 487.237ZM103.767 440.098L103.767 361.156L94.233 361.156L94.233 440.098L103.767 440.098ZM96.3603 365.125L233.651 456.423L238.93 448.484L101.64 357.186L96.3603 365.125ZM238.93 456.423L376.22 365.125L370.941 357.186L233.651 448.484L238.93 456.423ZM368.814 361.156L368.814 440.098L378.348 440.098L378.348 361.156L368.814 361.156ZM370.989 436.097L292.047 487.237L297.231 495.239L376.172 444.099L370.989 436.097ZM291.998 495.207L370.94 547.721L376.221 539.783L297.279 487.269L291.998 495.207ZM368.814 543.752L368.814 617.889L378.348 617.889L378.348 543.752L368.814 543.752ZM376.171 613.887L238.881 524.992L233.699 532.995L370.99 621.89L376.171 613.887ZM233.699 524.992L96.409 613.887L101.591 621.89L238.881 532.995L233.699 524.992ZM-77 587.341L-81.767 587.341L-81.767 592.109L-77 592.109L-77 587.341ZM-77 361.156L-77 356.389L-81.767 356.389L-81.767 361.156L-77 361.156ZM15.3277 368.02L16.8413 363.5L16.8058 363.488L16.7701 363.477L15.3277 368.02ZM96.6722 518.01L100.527 515.206L100.527 515.206L96.6722 518.01ZM133.054 385.868L133.054 381.101L128.287 381.101L128.287 385.868L133.054 385.868ZM197.581 385.868L202.348 385.868L202.348 381.101L197.581 381.101L197.581 385.868ZM191.402 541.692L195.784 543.57L191.402 541.692ZM173.898 566.061L170.751 562.481L170.694 562.531L170.638 562.584L173.898 566.061ZM147.126 581.85L145.56 577.347L145.56 577.347L147.126 581.85ZM78.138 581.163L76.3676 585.59L76.3842 585.596L76.4009 585.603L78.138 581.163ZM51.0232 563.659L47.6524 567.03L47.6775 567.055L47.7031 567.08L51.0232 563.659ZM33.1754 536.544L28.7362 538.281L28.7524 538.323L28.7695 538.364L33.1754 536.544ZM24.2516 452.111L19.8087 453.838L19.8326 453.9L19.8581 453.96L24.2516 452.111ZM17.0438 440.784L13.5506 444.028L13.5589 444.037L17.0438 440.784ZM6.40384 433.233L8.33992 428.877L6.40384 433.233ZM-15.2194 431.517L-16.3756 426.892L-19.9864 427.795L-19.9864 431.517L-15.2194 431.517ZM-15.2194 587.341L-15.2194 592.109L-10.4524 592.109L-10.4524 587.341L-15.2194 587.341ZM-72.233 587.341L-72.233 361.156L-81.767 361.156L-81.767 587.341L-72.233 587.341ZM-77 365.923L-15.2194 365.923L-15.2194 356.389L-77 356.389L-77 365.923ZM-15.2194 365.923C-10.0983 365.923 -0.565949 367.976 13.8853 372.564L16.7701 363.477C2.39043 358.912 -8.44199 356.389 -15.2194 356.389L-15.2194 365.923ZM13.8141 372.541C38.4644 380.795 56.532 392.726 68.4502 408.096C80.3381 423.426 86.4136 442.57 86.4136 465.84L95.9476 465.84C95.9476 440.829 89.3809 419.529 75.9845 402.253C62.6185 385.017 42.7596 372.178 16.8413 363.5L13.8141 372.541ZM86.4136 465.84L86.4136 499.819L95.9476 499.819L95.9476 465.84L86.4136 465.84ZM86.4136 499.819C86.4136 507.773 88.4826 514.854 92.8169 520.814L100.527 515.206C97.5396 511.098 95.9476 506.051 95.9476 499.819L86.4136 499.819ZM92.8169 520.814C97.4769 527.221 104.253 530.328 112.461 530.328L112.461 520.794C106.939 520.794 103.19 518.867 100.527 515.206L92.8169 520.814ZM112.461 530.328C120.247 530.328 126.903 528.058 131.503 522.768C135.992 517.605 137.821 510.357 137.821 501.878L128.287 501.878C128.287 509.188 126.684 513.781 124.309 516.512C122.044 519.116 118.403 520.794 112.461 520.794L112.461 530.328ZM137.821 501.878L137.821 385.868L128.287 385.868L128.287 501.878L137.821 501.878ZM133.054 390.635L197.581 390.635L197.581 381.101L133.054 381.101L133.054 390.635ZM192.814 385.868L192.814 509.772L202.348 509.772L202.348 385.868L192.814 385.868ZM192.814 509.772C192.814 520.872 190.857 530.863 187.021 539.815L195.784 543.57C200.185 533.301 202.348 522.013 202.348 509.772L192.814 509.772ZM187.021 539.815C183.17 548.799 177.747 556.333 170.751 562.481L177.045 569.642C185.151 562.519 191.397 553.806 195.784 543.57L187.021 539.815ZM170.638 562.584C163.854 568.944 155.526 573.881 145.56 577.347L148.692 586.352C159.778 582.496 169.298 576.908 177.158 569.539L170.638 562.584ZM145.56 577.347C135.599 580.812 124.581 582.574 112.461 582.574L112.461 592.109C125.511 592.109 137.603 590.21 148.692 586.352L145.56 577.347ZM112.461 582.574C100.643 582.574 89.7977 580.607 79.8751 576.724L76.4009 585.603C87.5295 589.957 99.5656 592.109 112.461 592.109L112.461 582.574ZM79.9084 576.737C70.1753 572.844 61.6667 567.346 54.3433 560.238L47.7031 567.08C55.9392 575.074 65.5072 581.245 76.3676 585.59L79.9084 576.737ZM54.394 560.288C47.3157 553.21 41.7055 544.709 37.5814 534.724L28.7695 538.364C33.3405 549.431 39.6287 559.006 47.6524 567.03L54.394 560.288ZM37.6147 534.807C33.7358 524.894 31.7644 513.936 31.7644 501.878L22.2304 501.878C22.2304 514.99 24.3776 527.143 28.7362 538.281L37.6147 534.807ZM31.7644 501.878L31.7644 465.84L22.2304 465.84L22.2304 501.878L31.7644 501.878ZM31.7644 465.84C31.7644 460.411 30.7268 455.205 28.645 450.261L19.8581 453.96C21.4374 457.711 22.2304 461.658 22.2304 465.84L31.7644 465.84ZM28.6945 450.383C26.8598 445.665 24.1194 441.379 20.5288 437.531L13.5589 444.037C16.3751 447.054 18.44 450.319 19.8087 453.838L28.6945 450.383ZM20.5371 437.54C17.1102 433.85 13.0288 430.961 8.33992 428.877L4.46777 437.589C8.01626 439.166 11.0282 441.311 13.5506 444.028L20.5371 437.54ZM8.33992 428.877C3.57202 426.758 -1.55463 425.72 -6.98197 425.72L-6.98197 435.254C-2.79897 435.254 0.998242 436.047 4.46777 437.589L8.33992 428.877ZM-6.98197 425.72C-10.1294 425.72 -13.2633 426.114 -16.3756 426.892L-14.0632 436.142C-11.6838 435.547 -9.32614 435.254 -6.98197 435.254L-6.98197 425.72ZM-19.9864 431.517L-19.9864 587.341L-10.4524 587.341L-10.4523 431.517L-19.9864 431.517ZM-15.2194 582.574L-77 582.574L-77 592.109L-15.2194 592.109L-15.2194 582.574Z" fill="#21A497"/>
</g>
<defs>
<filter id="filter0_i_587_6293" x="61" y="18.7061" width="247" height="38" filterUnits="userSpaceOnUse" color-interpolation-filters="sRGB">
<feFlood flood-opacity="0" result="BackgroundImageFix"/>
<feBlend mode="normal" in="SourceGraphic" in2="BackgroundImageFix" result="shape"/>
<feColorMatrix in="SourceAlpha" type="matrix" values="0 0 0 0 0 0 0 0 0 0 0 0 0 0 0 0 0 0 127 0" result="hardAlpha"/>
<feOffset dy="1"/>
<feGaussianBlur stdDeviation="0.5"/>
<feComposite in2="hardAlpha" operator="arithmetic" k2="-1" k3="1"/>
<feColorMatrix type="matrix" values="0 0 0 0 0 0 0 0 0 0 0 0 0 0 0 0 0 0 0.25 0"/>
<feBlend mode="normal" in2="shape" result="effect1_innerShadow_587_6293"/>
</filter>
<filter id="filter1_d_587_6293" x="3.30255" y="507.422" width="368.395" height="274.519" filterUnits="userSpaceOnUse" color-interpolation-filters="sRGB">
<feFlood flood-opacity="0" result="BackgroundImageFix"/>
<feColorMatrix in="SourceAlpha" type="matrix" values="0 0 0 0 0 0 0 0 0 0 0 0 0 0 0 0 0 0 127 0" result="hardAlpha"/>
<feOffset dy="4.00417"/>
<feGaussianBlur stdDeviation="2.34872"/>
<feComposite in2="hardAlpha" operator="out"/>
<feColorMatrix type="matrix" values="0 0 0 0 0 0 0 0 0 0 0 0 0 0 0 0 0 0 0.25 0"/>
<feBlend mode="normal" in2="BackgroundImageFix" result="effect1_dropShadow_587_6293"/>
<feBlend mode="normal" in="SourceGraphic" in2="effect1_dropShadow_587_6293" result="shape"/>
</filter>
<clipPath id="clip0_587_6293">
<rect width="375" height="806.295" fill="white" transform="translate(0 0.706055)"/>
</clipPath>
</defs>
</svg>