<svg xmlns="http://www.w3.org/2000/svg" xmlns:xlink="http://www.w3.org/1999/xlink" width="375" height="812" viewBox="0 0 375 812" fill="none">
<g clip-path="url(#clip0_374_25404)">
<path fill-rule="evenodd" clip-rule="evenodd" d="M0 0H376.736V666.667H0V0Z" fill="url(#paint0_linear_374_25404)"/>

<g opacity="0.4">
<path fill-rule="evenodd" clip-rule="evenodd" d="M-38.8506 -6.39039L-20.4243 -43.1953H27.2749L45.7012 -6.39039L27.2749 30.4145H-20.4243L-38.8506 -6.39039Z" stroke="white" stroke-opacity="0.3" stroke-width="1.33333" stroke-miterlimit="800"/>
<path fill-rule="evenodd" clip-rule="evenodd" d="M-38.8506 67.22L-20.4243 30.415H27.2749L45.7012 67.22L27.2749 104.025H-20.4243L-38.8506 67.22Z" stroke="white" stroke-opacity="0.3" stroke-width="1.33333" stroke-miterlimit="800"/>
<path fill-rule="evenodd" clip-rule="evenodd" d="M-38.8506 140.829L-20.4243 104.024H27.2749L45.7012 140.829L27.2749 177.634H-20.4243L-38.8506 140.829Z" stroke="white" stroke-opacity="0.3" stroke-width="1.33333" stroke-miterlimit="800"/>
<path fill-rule="evenodd" clip-rule="evenodd" d="M-38.8506 214.44L-20.4243 177.635H27.2749L45.7012 214.44L27.2749 251.245H-20.4243L-38.8506 214.44Z" stroke="white" stroke-opacity="0.3" stroke-width="1.33333" stroke-miterlimit="800"/>
<path fill-rule="evenodd" clip-rule="evenodd" d="M-38.8506 288.049L-20.4243 251.244H27.2749L45.7012 288.049L27.2749 324.854H-20.4243L-38.8506 288.049Z" stroke="white" stroke-opacity="0.3" stroke-width="1.33333" stroke-miterlimit="800"/>
<path fill-rule="evenodd" clip-rule="evenodd" d="M27.2988 30.9123L45.725 -5.89258H93.4243L111.851 30.9123L93.4243 67.7173H45.725L27.2988 30.9123Z" stroke="white" stroke-opacity="0.3" stroke-width="1.33333" stroke-miterlimit="800"/>
<path fill-rule="evenodd" clip-rule="evenodd" d="M27.2988 104.522L45.725 67.7168H93.4243L111.851 104.522L93.4243 141.327H45.725L27.2988 104.522Z" stroke="white" stroke-opacity="0.3" stroke-width="1.33333" stroke-miterlimit="800"/>
<path fill-rule="evenodd" clip-rule="evenodd" d="M27.2988 178.132L45.725 141.327H93.4243L111.851 178.132L93.4243 214.937H45.725L27.2988 178.132Z" stroke="white" stroke-opacity="0.3" stroke-width="1.33333" stroke-miterlimit="800"/>
<path fill-rule="evenodd" clip-rule="evenodd" d="M27.2988 251.741L45.725 214.937H93.4243L111.851 251.741L93.4243 288.546H45.725L27.2988 251.741Z" stroke="white" stroke-opacity="0.3" stroke-width="1.33333" stroke-miterlimit="800"/>
<path fill-rule="evenodd" clip-rule="evenodd" d="M93.4482 -5.89332L111.874 -42.6982H159.574L178 -5.89332L159.574 30.9116H111.874L93.4482 -5.89332Z" stroke="white" stroke-opacity="0.3" stroke-width="1.33333" stroke-miterlimit="800"/>
<path fill-rule="evenodd" clip-rule="evenodd" d="M93.4482 67.717L111.874 30.9121H159.574L178 67.717L159.574 104.522H111.874L93.4482 67.717Z" stroke="white" stroke-opacity="0.3" stroke-width="1.33333" stroke-miterlimit="800"/>
<path fill-rule="evenodd" clip-rule="evenodd" d="M93.4482 214.937L111.874 178.132H159.574L178 214.937L159.574 251.742H111.874L93.4482 214.937Z" stroke="white" stroke-opacity="0.3" stroke-width="1.33333" stroke-miterlimit="800"/>
</g>
<g filter="url(#filter0_d_374_25404)">


</g>


<g clip-path="url(#clip1_374_25404)">
<path opacity="0.8" fill-rule="evenodd" clip-rule="evenodd" d="M54.827 566.466L311.431 424.389V690.885H54.827V566.466Z" fill="url(#paint1_linear_374_25404)"/>
<path opacity="0.8" fill-rule="evenodd" clip-rule="evenodd" d="M189.544 478.077L446.147 336V602.497H189.544V478.077Z" fill="url(#paint2_linear_374_25404)"/>
<path opacity="0.8" fill-rule="evenodd" clip-rule="evenodd" d="M36.3837 542.367L135.016 487.904V590.061H36.3837V542.367Z" fill="url(#paint3_linear_374_25404)"/>
<g clip-path="url(#clip2_374_25404)">
<path d="M-19.6774 900.333V623.888L397.963 392.558V900.333H-19.6774Z" fill="url(#pattern0)" stroke="black" stroke-width="1.74537"/>
</g>




</g>











</g>
<defs>
<filter id="filter0_d_374_25404" x="88.0435" y="118.351" width="198.436" height="46.5332" filterUnits="userSpaceOnUse" color-interpolation-filters="sRGB">
<feFlood flood-opacity="0" result="BackgroundImageFix"/>
<feColorMatrix in="SourceAlpha" type="matrix" values="0 0 0 0 0 0 0 0 0 0 0 0 0 0 0 0 0 0 127 0" result="hardAlpha"/>
<feOffset dy="1.7539"/>
<feGaussianBlur stdDeviation="0.87695"/>
<feComposite in2="hardAlpha" operator="out"/>
<feColorMatrix type="matrix" values="0 0 0 0 0 0 0 0 0 0 0 0 0 0 0 0 0 0 0.25 0"/>
<feBlend mode="normal" in2="BackgroundImageFix" result="effect1_dropShadow_374_25404"/>
<feBlend mode="normal" in="SourceGraphic" in2="effect1_dropShadow_374_25404" result="shape"/>
</filter>
<pattern id="pattern0" patternContentUnits="objectBoundingBox" width="1" height="1">
<use xlink:href="#image0_374_25404" transform="translate(-0.921942 -0.0515154) scale(0.00112627 0.000925926)"/>
</pattern>
<linearGradient id="paint0_linear_374_25404" x1="188.368" y1="0" x2="188.368" y2="666.667" gradientUnits="userSpaceOnUse">
<stop stop-color="#0D5D78"/>
<stop offset="0.232001" stop-color="#21A497"/>
<stop offset="0.46638" stop-color="#2CA6A0"/>
<stop offset="0.690342" stop-color="#095373"/>
</linearGradient>
<linearGradient id="paint1_linear_374_25404" x1="54.8352" y1="691.009" x2="54.8352" y2="424.316" gradientUnits="userSpaceOnUse">
<stop stop-color="#006BFF"/>
<stop offset="1" stop-color="#00C6FF"/>
</linearGradient>
<linearGradient id="paint2_linear_374_25404" x1="189.229" y1="602.693" x2="189.229" y2="336" gradientUnits="userSpaceOnUse">
<stop stop-color="#006BFF"/>
<stop offset="1" stop-color="#00C6FF"/>
</linearGradient>
<linearGradient id="paint3_linear_374_25404" x1="36.3343" y1="590.126" x2="36.3343" y2="487.848" gradientUnits="userSpaceOnUse">
<stop stop-color="#006BFF"/>
<stop offset="1" stop-color="#00C6FF"/>
</linearGradient>
<linearGradient id="paint4_linear_374_25404" x1="-38" y1="480" x2="-38" y2="397" gradientUnits="userSpaceOnUse">
<stop stop-color="#006BFF"/>
<stop offset="1" stop-color="#00C6FF"/>
</linearGradient>
<linearGradient id="paint5_linear_374_25404" x1="10" y1="501" x2="10" y2="419" gradientUnits="userSpaceOnUse">
<stop stop-color="#006BFF"/>
<stop offset="1" stop-color="#00C6FF"/>
</linearGradient>
<clipPath id="clip0_374_25404">
<rect width="377" height="812" fill="white"/>
</clipPath>
<clipPath id="clip1_374_25404">
<rect width="491" height="565" fill="white" transform="matrix(-1 0 0 1 446 247)"/>
</clipPath>
<clipPath id="clip2_374_25404">
<rect width="420" height="510" fill="white" transform="matrix(-1 0 0 1 399 302)"/>
</clipPath>

</defs>
</svg>