<svg xmlns="http://www.w3.org/2000/svg" width="80" height="68" viewBox="0 0 80 68" fill="none">
<path fill-rule="evenodd" clip-rule="evenodd" d="M0.946899 33.6574L17.8118 0H62.3355L79.2005 33.6574L62.3355 67.3149H17.8118L0.946899 33.6574Z" fill="url(#paint0_linear_366_8407)"/>
<path d="M34.9515 21.6582C34.5869 20.8073 34.1006 20.0779 33.4929 19.4702C33.8575 18.9839 34.2222 18.6193 34.5869 18.2546C34.83 18.0115 34.9515 17.8899 35.1947 17.6468C36.4102 16.4312 37.7473 15.4588 39.0845 14.6079C39.206 14.4863 39.4491 14.4863 39.5707 14.4863H39.6923H39.8138H39.9354C40.3 14.6079 40.5432 14.7294 40.7863 15.0941C41.1509 15.7019 40.9078 16.4312 40.4216 16.7959C40.3 16.7959 40.1785 16.9175 40.1785 16.9175C39.9354 17.039 39.8138 17.1606 39.5707 17.2821C37.8689 18.6193 36.2887 20.0779 34.9515 21.6582Z" fill="white"/>
<path d="M40.7863 53.3844C40.5431 53.7491 40.1785 53.9922 39.6922 53.9922C39.4491 53.9922 39.206 53.9922 39.0845 53.7491C37.3827 52.7767 35.924 51.5611 34.5869 50.1024C32.642 48.0359 30.9402 45.6048 29.8461 42.9306C28.8737 40.4994 28.2659 37.9467 28.1443 35.394C28.1443 35.0294 28.1443 34.5431 28.1443 34.1785C28.1443 33.8138 28.1443 33.3276 28.1443 32.9629H30.697C30.697 33.3276 30.697 33.8138 30.697 34.1785C30.697 34.6647 30.697 35.0294 30.697 35.394C30.8186 37.7036 31.3048 39.8916 32.2773 41.9581C33.736 45.6048 36.4102 48.7653 39.6922 50.9533C39.9354 51.1964 40.3 51.318 40.5431 51.5611C41.0294 52.0473 41.1509 52.7767 40.7863 53.3844Z" fill="white"/>
<path d="M40.3 53.9924C39.8138 53.9924 39.4491 53.7493 39.206 53.3846C38.8413 52.7768 39.0844 52.0475 39.5707 51.6828C43.2174 49.4948 46.1347 46.0912 47.8365 42.0798C48.9305 39.6487 49.4168 36.9744 49.4168 34.1786C49.4168 31.5044 48.9305 28.8301 47.8365 26.2774C46.1347 22.3876 43.2174 18.984 39.5707 16.6744C38.9629 16.3098 38.8413 15.5804 39.206 14.9726C39.5707 14.3648 40.3 14.2433 40.9078 14.608C45.0407 17.1607 48.3227 20.9289 50.1461 25.4265C51.3617 28.2223 51.8479 31.2613 51.8479 34.3002C51.8479 37.3391 51.2401 40.378 50.0245 43.1738C48.2012 47.5499 44.9192 51.4397 40.7862 53.9924C40.7862 53.9924 40.5431 53.9924 40.3 53.9924Z" fill="white"/>
<path d="M40.0569 14C35.4377 14 31.0617 15.5802 27.6581 18.2545C28.0228 18.1329 28.3874 18.0114 28.7521 18.0114C28.9952 18.0114 29.1168 18.0114 29.3599 18.0114C30.4539 18.0114 31.4263 18.2545 32.3988 18.8623C32.5204 18.9838 32.6419 18.9838 32.7635 19.1054C33.3713 18.8623 33.979 18.6192 34.5868 18.376C35.924 17.8898 37.3826 17.6467 38.8413 17.5252C39.0844 17.5252 39.3275 17.5252 39.5707 17.5252C39.6922 17.5252 39.9353 17.5252 40.0569 17.5252C40.1784 17.5252 40.4216 17.5252 40.5431 17.5252C40.7862 17.5252 41.0293 17.5252 41.394 17.5252C42.8527 17.6467 44.1898 17.8898 45.5269 18.376C46.621 18.7407 47.5934 19.2269 48.5659 19.7132C48.5659 19.5916 48.5659 19.4701 48.6874 19.3485C48.9305 18.4976 49.2952 17.7683 49.7814 17.0389C49.903 16.9174 50.0246 16.7958 50.1461 16.6743C47.1072 14.9725 43.7036 14 40.0569 14ZM58.1689 25.3048C57.8042 25.5479 57.4395 25.9126 56.9533 26.0341L55.9808 28.8299C56.4671 30.1671 56.7102 31.6257 56.8317 33.0844C56.8317 33.4491 56.8317 33.9353 56.8317 34.3C56.8317 34.7862 56.8317 35.1509 56.8317 35.5156C56.5886 38.676 55.4946 41.5934 53.7928 44.0245C53.3066 44.7539 52.8204 45.3617 52.2126 45.9695C50.3892 47.9144 48.0796 49.3731 45.5269 50.2239C44.1898 50.7102 42.8527 50.9533 41.394 51.0748C41.1509 51.0748 40.9078 51.0748 40.5431 51.0748C40.4216 51.0748 40.1784 51.0748 40.0569 51.0748C39.9353 51.0748 39.6922 51.0748 39.5707 51.0748C39.3275 51.0748 39.0844 51.0748 38.8413 51.0748C37.3826 50.9533 35.924 50.7102 34.5868 50.2239C32.0341 49.3731 29.7246 47.7928 27.9012 45.9695C27.2934 45.3617 26.8072 44.7539 26.321 44.0245C24.6192 41.5934 23.5252 38.676 23.282 35.5156C23.282 35.1509 23.282 34.6647 23.282 34.3C23.282 33.9353 23.282 33.4491 23.282 33.0844C23.4036 31.1395 23.8898 29.1946 24.7407 27.4928C24.0114 26.5204 23.6467 25.3048 23.6467 23.9677C23.6467 23.3599 23.7683 22.8737 23.8898 22.3874C21.4587 25.791 20 29.924 20 34.4216C20 45.6048 29.1168 54.7216 40.3 54.7216C51.4832 54.7216 60.6 45.6048 60.6 34.4216C60.3569 31.018 59.506 27.979 58.1689 25.3048Z" fill="white"/>
<path d="M55.13 45.1185C54.6437 44.7538 54.2791 44.3891 53.7928 44.0245C52.8204 43.2951 51.7264 42.5658 50.6324 41.958C50.2677 41.7149 49.903 41.5933 49.5384 41.4718C49.1737 41.2287 48.6875 41.1071 48.3228 40.9855C46.1348 40.1346 43.7036 39.6484 41.2725 39.5269C40.7863 39.5269 40.4216 39.5269 39.9354 39.5269C39.5707 39.5269 39.0845 39.5269 38.7198 39.5269C36.2886 39.6484 33.8575 40.1346 31.6695 40.9855C31.3048 41.1071 30.8186 41.3502 30.4539 41.4718C30.0892 41.5933 29.7246 41.8364 29.3599 41.958C28.2659 42.5658 27.1719 43.1736 26.1994 43.9029C25.7132 44.2676 25.227 44.6322 24.8623 44.9969C24.3761 45.4831 24.2545 46.2125 24.7407 46.6987C28.3875 51.1963 33.8575 53.8706 39.6922 53.8706H39.8138H39.9354C40.0569 53.8706 40.1785 53.8706 40.1785 53.8706C46.0132 53.749 51.4833 51.1963 55.13 46.6987C55.7378 46.334 55.7378 45.4831 55.13 45.1185ZM44.9192 50.8316C43.7036 51.1963 42.6096 51.4394 41.2725 51.4394C40.9078 51.4394 40.5431 51.4394 40.3 51.4394H40.1785H40.0569H39.9354H39.8138C39.4491 51.4394 39.206 51.4394 38.8413 51.4394C37.6258 51.3179 36.4102 51.0748 35.1946 50.8316C32.2773 49.9807 29.7246 48.4005 27.5366 46.2125C27.6581 46.0909 27.7797 46.0909 27.9012 45.9694C28.7521 45.3616 29.603 44.8754 30.4539 44.3891C30.8186 44.146 31.1833 44.0245 31.5479 43.7813C31.9126 43.6598 32.2773 43.4167 32.7635 43.2951C34.7084 42.5658 36.7749 42.0795 38.8413 41.958C39.206 41.958 39.6922 41.958 40.0569 41.958C40.5431 41.958 40.9078 41.958 41.394 41.958C43.4605 42.0795 45.527 42.5658 47.4719 43.2951C47.8366 43.4167 48.2012 43.6598 48.6875 43.7813C49.0521 43.9029 49.4168 44.146 49.7815 44.3891C50.6324 44.8754 51.4833 45.3616 52.3342 45.9694C52.4557 46.0909 52.5773 46.0909 52.5773 46.2125C50.3892 48.4005 47.8366 49.9807 44.9192 50.8316Z" fill="white"/>
<path d="M40.5431 14.4863C40.4216 14.4863 40.4216 14.4863 40.5431 14.4863C40.4216 14.4863 40.4216 14.4863 40.4216 14.4863H40.3H40.1785H40.0569H39.9354H39.8138C35.924 14.6079 32.1557 15.8235 28.9952 18.0115C29.2384 18.0115 29.3599 18.0115 29.603 18.0115C30.697 18.0115 31.6695 18.2546 32.6419 18.8624C33.4928 18.3761 34.4653 18.133 35.4378 17.7684C36.6533 17.4037 37.8689 17.1606 39.0845 17.1606C39.4491 17.1606 39.6922 17.1606 40.0569 17.1606H40.1785H40.3H40.4216H40.5431C40.9078 17.1606 41.2725 17.1606 41.6372 17.1606C42.8527 17.2821 44.0683 17.5252 45.1623 17.7684C46.4994 18.133 47.715 18.6193 48.809 19.3486C49.0521 18.4977 49.4168 17.7684 49.903 17.039C46.9857 15.4588 43.8252 14.4863 40.5431 14.4863ZM49.7815 24.5755C49.6599 24.454 49.6599 24.3324 49.5384 24.3324C49.1737 24.5755 48.809 24.6971 48.4443 24.8187C48.0797 24.9402 47.715 25.1833 47.2288 25.3049C45.2839 26.0342 43.339 26.5205 41.1509 26.642C40.6647 26.642 40.3 26.642 39.8138 26.642C39.4491 26.642 38.9629 26.642 38.5982 26.642C37.2611 26.5205 36.0455 26.3989 34.83 26.0342C34.7084 26.8851 34.1006 27.6145 33.4928 28.2223C35.1946 28.7085 37.018 29.0732 38.8413 29.1947C39.206 29.1947 39.6922 29.1947 40.0569 29.1947C40.5431 29.1947 40.9078 29.1947 41.394 29.1947C43.8252 29.0732 46.1348 28.5869 48.4443 27.736C48.809 27.6145 49.2952 27.3714 49.6599 27.2498C50.0246 27.1282 50.3893 26.8851 50.7539 26.7636C51.1186 26.642 51.4833 26.3989 51.7264 26.1558C50.997 25.6696 50.3893 25.1833 49.7815 24.5755Z" fill="white"/>
<path d="M59.8707 34.3C59.8707 35.0293 59.2629 35.5156 58.6551 35.5156H21.4587C20.7294 35.5156 20.2432 34.9078 20.2432 34.3C20.2432 33.5706 20.8509 33.0844 21.4587 33.0844H58.5336C59.2629 32.9629 59.8707 33.5706 59.8707 34.3Z" fill="white"/>
<path d="M40.0569 54.1139C39.3275 54.1139 38.8413 53.5061 38.8413 52.8983V15.7019C38.8413 14.9726 39.4491 14.4863 40.0569 14.4863C40.7862 14.4863 41.2724 15.0941 41.2724 15.7019V52.7767C41.394 53.5061 40.7862 54.1139 40.0569 54.1139Z" fill="white"/>
<path d="M29.3599 19.1055C26.6856 19.1055 24.6191 21.2935 24.6191 23.8462C24.6191 25.9127 25.8347 27.6145 27.6581 28.3438C28.1443 28.5869 28.7521 28.7085 29.3599 28.7085C29.9676 28.7085 30.5754 28.5869 31.0617 28.3438C32.885 27.6145 34.1006 25.9127 34.1006 23.8462C34.2221 21.2935 32.0341 19.1055 29.3599 19.1055ZM29.3599 25.9127C28.2658 25.9127 27.2934 24.9402 27.2934 23.8462C27.2934 22.7522 28.2658 21.7797 29.3599 21.7797C30.4539 21.7797 31.4263 22.7522 31.4263 23.8462C31.5479 25.0618 30.5754 25.9127 29.3599 25.9127Z" fill="white"/>
<path d="M29.3599 32.9628L31.3048 27.8574H27.5365L29.3599 32.9628Z" fill="white"/>
<path d="M54.4006 15.9448C51.7263 15.9448 49.6599 18.1328 49.6599 20.6855C49.6599 22.752 50.8754 24.4538 52.6988 25.1831C53.185 25.4263 53.7928 25.5478 54.4006 25.5478C55.0084 25.5478 55.6161 25.4263 56.1024 25.1831C57.9257 24.4538 59.1413 22.752 59.1413 20.6855C59.1413 18.1328 56.9533 15.9448 54.4006 15.9448ZM54.4006 22.752C53.3066 22.752 52.3341 21.7796 52.3341 20.6855C52.3341 19.5915 53.3066 18.6191 54.4006 18.6191C55.4946 18.6191 56.467 19.5915 56.467 20.6855C56.467 21.9011 55.4946 22.752 54.4006 22.752Z" fill="white"/>
<path d="M54.4005 29.8022L56.2239 24.6968H52.4556L54.4005 29.8022Z" fill="white"/>
<defs>
<linearGradient id="paint0_linear_366_8407" x1="10.5044" y1="42.0715" x2="66.6677" y2="42.0694" gradientUnits="userSpaceOnUse">
<stop stop-color="#21A497"/>
<stop offset="1" stop-color="#107A6A"/>
</linearGradient>
</defs>
</svg>