<svg xmlns="http://www.w3.org/2000/svg" width="375" height="919" viewBox="0 0 375 919" fill="none">
<path fill-rule="evenodd" clip-rule="evenodd" d="M381.823 812H622V305H128L381.823 812Z" fill="url(#paint0_linear_366_8407)"/>
<path fill-rule="evenodd" clip-rule="evenodd" d="M-3 0H399L-3 609V0Z" fill="url(#paint1_linear_366_8407)"/>


<g opacity="0.2">
<path opacity="0.2" d="M336.658 81.9894C165.601 -16.8603 -54.2586 41.9017 -153.108 213.208C-251.958 384.265 -193.196 604.125 -21.8897 702.974C149.417 801.824 369.027 743.062 467.877 571.756C566.726 400.45 507.964 180.839 336.658 81.9894ZM5.00137 656.662C-140.659 572.503 -190.955 385.51 -106.796 239.85C-22.6367 94.19 164.356 43.8937 310.016 128.053C455.676 212.212 505.973 399.205 421.813 544.865C337.654 690.774 150.661 740.821 5.00137 656.662Z" fill="url(#paint2_linear_366_8407)"/>
</g>
<path d="M517.675 437.798L512.944 435.06C512.446 434.811 512.197 434.063 512.446 433.565C512.695 433.068 513.442 432.818 513.94 433.067L517.675 435.06C517.924 434.811 518.422 434.561 518.671 434.81C519.169 435.059 519.418 435.557 519.418 436.055C519.418 436.304 519.169 436.553 519.169 436.802C519.169 437.051 518.92 437.3 518.422 437.549C518.422 437.549 518.173 437.549 517.924 437.549C517.924 437.798 517.675 437.798 517.675 437.798ZM507.466 431.823L501.989 428.586C501.491 428.337 501.242 427.59 501.491 427.092C501.74 426.594 502.487 426.345 502.985 426.594L508.462 429.831C508.96 430.08 509.209 430.827 508.96 431.325C508.711 431.574 508.462 431.823 507.964 431.823C507.715 432.072 507.466 432.072 507.466 431.823ZM519.667 430.827C519.169 430.578 518.671 430.08 518.92 429.582C519.418 427.59 519.667 425.598 520.165 423.357C520.165 422.859 520.912 422.361 521.41 422.61C521.908 422.61 522.406 423.357 522.157 423.855C521.908 425.847 521.41 428.088 520.912 430.08C520.912 430.578 520.414 431.076 519.667 430.827C519.916 431.076 519.667 431.076 519.667 430.827ZM496.511 425.598L491.033 422.361C490.535 422.112 490.286 421.365 490.535 420.867C490.784 420.369 491.531 420.12 492.029 420.369L497.507 423.606C498.005 423.855 498.254 424.602 498.005 425.1C497.756 425.349 497.507 425.598 497.009 425.598C496.76 425.847 496.76 425.598 496.511 425.598ZM485.555 419.373L480.077 416.136C479.579 415.887 479.33 415.14 479.579 414.642C479.828 414.144 480.575 413.895 481.073 414.144L486.551 417.381C487.049 417.63 487.298 418.377 487.049 418.875C486.8 419.124 486.551 419.373 486.053 419.373C486.053 419.373 485.804 419.373 485.555 419.373ZM521.908 418.626C521.41 418.626 520.912 418.128 520.912 417.381C521.161 415.389 521.41 413.148 521.659 411.156C521.659 410.658 522.157 410.16 522.904 410.16C523.402 410.16 523.9 410.658 523.9 411.405C523.651 413.646 523.402 415.638 523.153 417.63C523.153 418.128 522.655 418.626 521.908 418.626C522.157 418.626 522.157 418.626 521.908 418.626ZM474.6 412.899L469.122 409.662C468.624 409.413 468.375 408.666 468.624 408.168C468.873 407.67 469.62 407.421 470.118 407.67L475.596 410.907C476.094 411.156 476.342 411.903 476.093 412.401C475.844 412.65 475.596 412.899 475.098 412.899C475.098 413.148 474.849 413.148 474.6 412.899ZM463.893 406.674L458.415 403.438C457.917 403.189 457.668 402.441 457.917 401.944C458.166 401.446 458.913 401.197 459.411 401.446L464.889 404.682C465.387 404.931 465.636 405.678 465.387 406.176C465.138 406.425 464.889 406.674 464.391 406.674C464.142 406.923 463.893 406.923 463.893 406.674ZM523.153 405.927C522.655 405.927 522.157 405.429 522.157 404.931C522.157 402.94 522.406 400.699 522.406 398.707C522.406 398.209 522.904 397.711 523.402 397.711C523.9 397.711 524.398 398.209 524.398 398.707C524.398 400.948 524.398 402.94 524.149 404.931C524.149 405.678 523.651 405.927 523.153 405.927ZM452.937 400.45L447.459 397.213C446.961 396.964 446.713 396.217 446.962 395.719C447.211 395.221 447.957 394.972 448.455 395.221L453.933 398.458C454.431 398.707 454.68 399.454 454.431 399.952C454.182 400.201 453.933 400.45 453.435 400.45C453.186 400.45 452.937 400.45 452.937 400.45ZM441.982 394.225L436.504 390.988C436.006 390.739 435.757 389.992 436.006 389.494C436.255 388.996 437.002 388.747 437.5 388.996L442.978 392.233C443.476 392.482 443.725 393.229 443.476 393.727C443.227 393.976 442.978 394.225 442.48 394.225C442.231 394.225 442.231 394.225 441.982 394.225ZM522.406 392.482C522.406 390.49 522.406 388.249 522.157 386.257C522.157 385.759 522.655 385.261 523.153 385.261C523.651 385.261 524.149 385.759 524.149 386.257C524.149 388.249 524.149 390.49 524.149 392.482C524.149 392.98 523.651 393.478 523.153 393.478C522.904 393.478 522.406 392.98 522.406 392.482ZM431.026 387.751L425.548 384.514C425.05 384.265 424.801 383.518 425.05 383.02C425.299 382.522 426.046 382.273 426.544 382.522L432.022 385.759C432.52 386.008 432.769 386.755 432.52 387.253C432.271 387.502 432.022 387.751 431.524 387.751C431.275 388 431.275 388 431.026 387.751ZM420.07 381.526L414.593 378.289C414.095 378.04 413.846 377.293 414.095 376.795C414.344 376.297 415.091 376.048 415.589 376.297L421.066 379.534C421.564 379.783 421.813 380.53 421.564 381.028C421.315 381.277 421.066 381.526 420.568 381.526C420.568 381.775 420.319 381.526 420.07 381.526ZM521.908 379.783C521.908 377.791 521.659 375.55 521.41 373.559C521.41 373.061 521.908 372.563 522.406 372.314C522.904 372.314 523.402 372.811 523.651 373.309C523.9 375.301 523.9 377.542 524.149 379.534C524.149 380.032 523.651 380.53 523.153 380.53C522.406 380.779 522.157 380.281 521.908 379.783ZM409.115 375.302L407.123 374.057C406.625 373.808 406.376 373.061 406.625 372.563C406.874 372.065 407.621 371.816 408.119 372.065L410.111 373.309C410.609 373.558 410.858 374.306 410.609 374.803C410.36 375.052 410.111 375.302 409.613 375.302C409.613 375.302 409.364 375.302 409.115 375.302ZM521.161 367.334C520.912 365.342 520.663 363.101 520.414 361.109C520.414 360.611 520.663 360.113 521.41 359.864C521.908 359.864 522.406 360.113 522.655 360.86C522.904 362.852 523.153 365.093 523.402 367.085C523.402 367.583 522.904 368.081 522.406 368.33C521.659 368.33 521.161 367.832 521.161 367.334ZM519.667 354.884C519.418 352.892 519.169 350.651 518.92 348.659C518.92 348.161 519.169 347.663 519.916 347.414C520.414 347.414 520.912 347.663 521.161 348.41C521.41 350.402 521.659 352.643 521.908 354.635C521.908 355.133 521.659 355.631 520.912 355.88C520.912 355.88 520.912 355.88 520.663 355.88C520.165 355.631 519.916 355.382 519.667 354.884ZM517.924 342.186C517.675 340.194 517.177 337.953 516.928 335.961C516.928 335.463 517.177 334.965 517.675 334.716C518.173 334.716 518.671 334.965 518.92 335.463C519.169 337.455 519.667 339.696 519.916 341.688C519.916 342.186 519.667 342.684 518.92 342.933C518.92 342.933 518.92 342.933 518.671 342.933C518.422 343.182 518.173 342.933 517.924 342.186ZM515.932 329.985C515.434 327.993 515.185 325.752 514.687 323.76C514.687 323.262 514.936 322.764 515.434 322.515C515.932 322.515 516.43 322.764 516.679 323.262C517.177 325.254 517.426 327.246 517.924 329.487C517.924 329.985 517.675 330.483 517.177 330.732H516.928C516.43 330.732 515.932 330.483 515.932 329.985ZM513.442 317.535C512.944 315.295 512.695 313.303 512.197 311.311C512.197 310.813 512.446 310.066 512.944 310.066C513.442 309.817 514.189 310.315 514.189 310.813C514.687 312.805 514.936 314.796 515.434 317.037C515.434 317.535 515.185 318.282 514.687 318.282H514.438C514.189 318.282 513.691 318.033 513.442 317.535ZM510.952 305.335C510.454 303.094 509.956 301.102 509.458 299.11C509.209 298.612 509.707 297.865 510.205 297.865C510.703 297.616 511.45 298.114 511.45 298.612C511.948 300.604 512.446 302.596 512.944 304.837C513.193 305.335 512.695 306.082 512.197 306.082H511.948C511.45 306.082 510.952 305.833 510.952 305.335ZM507.964 292.885C507.467 290.395 506.719 288.403 506.47 286.909C506.221 286.411 506.719 285.664 507.217 285.664C507.715 285.415 508.462 285.913 508.462 286.411C508.96 288.154 509.458 290.146 509.956 292.636C510.205 293.134 509.707 293.881 509.209 293.881H508.96C508.462 293.881 507.964 293.383 507.964 292.885ZM504.727 280.934C503.98 278.942 503.483 276.95 502.736 274.958C502.487 274.46 502.736 273.713 503.483 273.713C503.98 273.464 504.727 273.713 504.727 274.46C505.474 276.452 505.973 278.444 506.72 280.436C506.969 280.934 506.47 281.681 505.972 281.681H505.724C505.226 281.681 504.727 281.183 504.727 280.934ZM500.744 268.982C499.997 266.99 499.25 264.998 498.503 263.006C498.254 262.508 498.503 261.761 499.001 261.761C499.499 261.512 500.246 261.761 500.246 262.259C500.993 264.251 501.74 266.243 502.487 268.235C502.736 268.733 502.487 269.48 501.74 269.48H501.491C501.242 269.729 500.744 269.48 500.744 268.982ZM496.262 257.279C495.515 255.287 494.768 253.296 494.021 251.553C493.772 251.055 494.021 250.308 494.519 250.059C495.017 249.81 495.764 250.059 496.013 250.557C496.76 252.549 497.507 254.541 498.254 256.532C498.503 257.03 498.254 257.777 497.756 257.777C497.507 257.777 497.507 257.777 497.258 257.777C496.76 257.777 496.511 257.528 496.262 257.279ZM491.531 245.577C490.784 243.585 489.788 241.842 489.041 239.85C488.792 239.352 489.041 238.605 489.539 238.356C490.037 238.107 490.784 238.356 491.033 238.854C491.78 240.846 492.776 242.589 493.523 244.581C493.772 245.079 493.523 245.826 493.025 246.075C492.776 246.075 492.776 246.075 492.527 246.075C492.029 246.324 491.531 246.075 491.531 245.577ZM486.302 234.123C485.306 232.131 484.559 230.388 483.563 228.396C483.314 227.898 483.563 227.151 484.061 226.902C484.559 226.653 485.306 226.902 485.555 227.4C486.551 229.392 487.298 231.135 488.294 233.127C488.543 233.625 488.294 234.372 487.796 234.621C487.547 234.621 487.547 234.621 487.298 234.621C486.8 234.621 486.551 234.621 486.302 234.123ZM480.824 222.919C479.828 221.176 478.832 219.184 477.836 217.441C477.587 216.943 477.836 216.196 478.334 215.947C478.832 215.698 479.579 215.947 479.828 216.445C480.824 218.188 481.82 220.18 482.816 221.923C483.065 222.421 482.816 223.168 482.318 223.417C482.069 223.417 482.069 223.417 481.82 223.417C481.322 223.417 480.824 223.168 480.824 222.919ZM474.848 211.714C473.853 209.971 472.857 207.979 471.861 206.236C471.612 205.738 471.612 204.991 472.359 204.742C472.857 204.493 473.604 204.742 473.853 205.24C474.849 206.983 475.845 208.975 477.089 210.718C477.338 211.216 477.089 211.963 476.591 212.212C476.342 212.212 476.342 212.461 476.093 212.461C475.346 212.212 475.097 212.212 474.848 211.714ZM468.624 201.007C467.628 199.264 466.383 197.521 465.387 195.778C465.138 195.28 465.138 194.534 465.636 194.285C466.134 194.036 466.881 194.036 467.13 194.534C468.375 196.276 469.371 198.019 470.367 200.011C470.616 200.509 470.616 201.256 470.118 201.505C469.869 201.505 469.869 201.754 469.62 201.754C469.122 201.505 468.624 201.256 468.624 201.007ZM461.901 190.301C460.656 188.558 459.66 186.815 458.415 185.072C458.166 184.574 458.166 183.827 458.664 183.578C459.162 183.329 459.909 183.329 460.158 183.827C461.403 185.57 462.399 187.313 463.644 189.056C463.893 189.554 463.893 190.301 463.395 190.55C463.146 190.55 462.897 190.799 462.897 190.799C462.399 190.799 461.901 190.55 461.901 190.301ZM454.68 179.843C453.435 178.1 452.19 176.357 450.945 174.863C450.696 174.365 450.696 173.618 451.194 173.369C451.692 173.12 452.439 173.12 452.688 173.618C453.933 175.361 455.178 177.104 456.423 178.847C456.672 179.345 456.672 180.092 456.174 180.341C455.925 180.59 455.676 180.59 455.676 180.59C455.178 180.341 454.929 180.092 454.68 179.843ZM447.21 169.883C445.966 168.14 444.721 166.646 443.227 164.904C442.978 164.406 442.978 163.908 443.476 163.41C443.974 163.161 444.472 163.161 444.969 163.659C446.214 165.402 447.46 166.895 448.953 168.638C449.202 169.136 449.202 169.634 448.704 170.132C448.455 170.381 448.206 170.381 447.957 170.381C447.708 170.132 447.459 170.132 447.21 169.883ZM439.492 159.924C438.247 158.43 436.753 156.687 435.508 155.193C435.01 154.695 435.259 154.197 435.508 153.699C436.006 153.201 436.504 153.45 437.002 153.699C438.247 155.193 439.741 156.936 440.986 158.43C441.235 158.928 441.235 159.426 440.737 159.924C440.488 160.173 440.239 160.173 439.99 160.173C439.99 160.422 439.741 160.173 439.492 159.924ZM431.275 150.462C429.781 148.968 428.536 147.225 427.042 145.731C426.544 145.233 426.793 144.735 427.042 144.237C427.54 143.739 428.038 143.988 428.536 144.237C430.03 145.731 431.275 147.474 432.769 148.968C433.267 149.466 433.018 149.964 432.769 150.462C432.52 150.711 432.271 150.711 432.022 150.711C431.773 150.711 431.524 150.462 431.275 150.462ZM422.809 141C421.315 139.506 419.821 138.012 418.328 136.518C417.83 136.021 417.83 135.523 418.328 135.025C418.825 134.527 419.323 134.527 419.821 135.025C421.315 136.518 422.809 138.012 424.303 139.506C424.801 140.004 424.801 140.502 424.303 141C424.054 141.249 423.805 141.249 423.556 141.249C423.307 141.498 423.058 141.249 422.809 141ZM414.095 132.037C412.601 130.543 411.107 129.049 409.613 127.555C409.115 127.057 409.115 126.559 409.613 126.061C410.111 125.563 410.609 125.563 411.107 126.061C412.601 127.555 414.095 129.049 415.589 130.543C416.086 131.041 416.086 131.539 415.589 132.037C415.34 132.286 415.091 132.286 414.842 132.286C414.344 132.535 414.095 132.286 414.095 132.037ZM404.882 123.571C403.388 122.077 401.645 120.832 400.151 119.338C399.653 118.84 399.653 118.342 400.151 117.844C400.649 117.346 401.147 117.346 401.645 117.844C403.139 119.338 404.882 120.583 406.376 122.077C406.874 122.575 406.874 123.073 406.376 123.571C406.127 123.82 405.878 123.82 405.629 123.82C405.38 123.82 405.131 123.571 404.882 123.571ZM395.42 115.105C393.926 113.86 392.183 112.366 390.689 111.121C390.191 110.872 390.191 110.125 390.44 109.627C390.689 109.129 391.436 109.129 391.934 109.378C393.677 110.623 395.171 112.117 396.914 113.362C397.412 113.86 397.412 114.358 397.163 114.856C396.914 115.105 396.665 115.105 396.416 115.105C395.669 115.354 395.42 115.354 395.42 115.105ZM385.71 107.386C383.967 106.141 382.473 104.897 380.73 103.652C380.232 103.403 380.232 102.656 380.481 102.158C380.73 101.66 381.477 101.66 381.975 101.909C383.718 103.154 385.212 104.399 386.954 105.644C387.452 105.893 387.453 106.64 387.204 107.138C386.955 107.387 386.705 107.635 386.456 107.635C385.958 107.386 385.71 107.386 385.71 107.386ZM375.501 99.6678C373.758 98.4228 372.015 97.1778 370.272 95.9329C369.774 95.6839 369.774 94.9369 370.023 94.4389C370.272 93.9409 371.019 93.9409 371.517 94.1899C373.26 95.4349 375.003 96.6798 376.746 97.9248C377.244 98.1738 377.244 98.9208 376.995 99.4188C376.746 99.6677 376.497 99.9167 376.248 99.9167C375.999 99.9167 375.75 99.9168 375.501 99.6678Z" fill="#18CFAE"/>
<path d="M73.7231 610.349C73.2251 610.1 72.9761 609.353 73.2251 608.855L73.4741 608.357C73.7231 607.859 74.47 607.61 74.968 607.859C75.466 608.108 75.715 608.855 75.466 609.353L75.217 609.851C74.968 610.1 74.7191 610.349 74.2211 610.349C74.2211 610.598 73.9721 610.349 73.7231 610.349ZM77.2089 604.374C76.711 604.125 76.462 603.377 76.711 602.879L79.9479 597.402C80.1969 596.904 80.9438 596.655 81.4418 596.904C81.9398 597.153 82.1888 597.9 81.9398 598.398L78.7029 603.876C78.4539 604.125 78.2049 604.374 77.707 604.374C77.707 604.374 77.4579 604.374 77.2089 604.374ZM83.6827 593.418C83.1848 593.169 82.9357 592.422 83.1847 591.924L86.4217 586.446C86.6707 585.948 87.4176 585.699 87.9156 585.948C88.4136 586.197 88.6626 586.944 88.4136 587.442L85.1767 592.92C84.9277 593.169 84.6787 593.418 84.1807 593.418C83.9318 593.667 83.6827 593.418 83.6827 593.418ZM89.9075 582.462C89.4095 582.213 89.1605 581.466 89.4095 580.968L92.6465 575.49C92.8954 574.992 93.6424 574.743 94.1404 574.992C94.6384 575.241 94.8873 575.988 94.6384 576.486L91.4015 581.964C91.1525 582.213 90.9035 582.462 90.4055 582.462C90.1565 582.711 89.9075 582.711 89.9075 582.462ZM96.1323 571.507C95.6343 571.258 95.3853 570.511 95.6343 570.013L98.8712 564.535C99.1202 564.037 99.8672 563.788 100.365 564.037C100.863 564.286 101.112 565.033 100.863 565.531L97.6263 571.009C97.3773 571.258 97.1283 571.507 96.6303 571.507C96.6303 571.756 96.3813 571.756 96.1323 571.507ZM102.357 560.8C101.859 560.551 101.61 559.804 101.859 559.306L105.096 553.828C105.345 553.33 106.092 553.081 106.59 553.33C107.088 553.579 107.337 554.326 107.088 554.824L103.851 560.302C103.602 560.551 103.353 560.8 102.855 560.8C102.855 560.8 102.606 560.8 102.357 560.8ZM108.831 549.844C108.333 549.595 108.084 548.848 108.333 548.35L111.57 542.873C111.819 542.375 112.566 542.126 113.064 542.375C113.562 542.624 113.811 543.37 113.562 543.868L110.325 549.346C110.076 549.595 109.827 549.844 109.329 549.844C109.08 549.844 108.831 549.844 108.831 549.844ZM115.056 538.889C114.558 538.64 114.309 537.893 114.558 537.395L117.795 531.917C118.044 531.419 118.791 531.17 119.289 531.419C119.786 531.668 120.036 532.415 119.787 532.913L116.55 538.391C116.301 538.64 116.052 538.889 115.554 538.889C115.305 539.138 115.305 538.889 115.056 538.889ZM121.28 527.933C120.783 527.684 120.533 526.937 120.782 526.439L124.019 520.961C124.268 520.463 125.015 520.214 125.513 520.463C126.011 520.712 126.26 521.459 126.011 521.957L122.774 527.435C122.525 527.684 122.276 527.933 121.778 527.933C121.778 528.182 121.529 528.182 121.28 527.933ZM127.754 516.977C127.256 516.728 127.007 515.981 127.256 515.483L130.493 510.006C130.742 509.508 131.489 509.259 131.987 509.508C132.485 509.757 132.734 510.504 132.485 511.002L129.248 516.479C128.999 516.728 128.75 516.977 128.252 516.977C128.003 517.226 127.754 517.226 127.754 516.977ZM133.979 506.022C133.481 505.773 133.232 505.026 133.481 504.528L136.718 499.05C136.967 498.552 137.714 498.303 138.212 498.552C138.71 498.801 138.959 499.548 138.71 500.046L135.473 505.524C135.224 505.773 134.975 506.022 134.477 506.022C134.228 506.271 134.228 506.271 133.979 506.022ZM140.204 495.315C139.706 495.066 139.457 494.319 139.706 493.821L142.943 488.343C143.192 487.845 143.939 487.596 144.437 487.845C144.935 488.094 145.184 488.841 144.935 489.339L141.698 494.817C141.449 495.066 141.2 495.315 140.702 495.315C140.702 495.315 140.453 495.315 140.204 495.315ZM146.678 484.36C146.18 484.111 145.931 483.363 146.18 482.865L149.417 477.388C149.666 476.89 150.412 476.641 150.91 476.89C151.408 477.139 151.657 477.886 151.408 478.384L148.172 483.862C147.923 484.111 147.674 484.36 147.176 484.36C146.927 484.36 146.678 484.36 146.678 484.36ZM152.902 473.404C152.404 473.155 152.155 472.408 152.404 471.91L155.641 466.432C155.89 465.934 156.637 465.685 157.135 465.934C157.633 466.183 157.882 466.93 157.633 467.428L154.396 472.906C154.147 473.155 153.898 473.404 153.4 473.404C153.151 473.653 153.151 473.404 152.902 473.404ZM159.127 462.448C158.629 462.199 158.38 461.452 158.629 460.954L161.866 455.476C162.115 454.978 162.862 454.73 163.36 454.979C163.858 455.228 164.107 455.974 163.858 456.472L160.621 461.95C160.372 462.199 160.123 462.448 159.625 462.448C159.625 462.697 159.376 462.697 159.127 462.448ZM165.352 451.493C164.854 451.244 164.605 450.497 164.854 449.999L168.091 444.521C168.34 444.023 169.087 443.774 169.585 444.023C170.083 444.272 170.332 445.019 170.083 445.517L166.846 450.995C166.597 451.244 166.348 451.493 165.85 451.493C165.85 451.742 165.601 451.742 165.352 451.493ZM171.826 440.786C171.328 440.537 171.079 439.79 171.328 439.292L174.565 433.814C174.814 433.316 175.561 433.067 176.059 433.316C176.557 433.565 176.806 434.312 176.557 434.81L173.32 440.288C173.071 440.537 172.822 440.786 172.324 440.786C172.075 440.786 171.826 440.786 171.826 440.786ZM178.051 429.83C177.553 429.581 177.304 428.834 177.553 428.336L180.789 422.859C181.038 422.361 181.785 422.112 182.283 422.361C182.781 422.61 183.03 423.357 182.781 423.855L179.545 429.332C179.296 429.581 179.047 429.83 178.549 429.83C178.3 429.83 178.3 429.83 178.051 429.83ZM184.275 418.875C183.777 418.626 183.528 417.879 183.777 417.381L187.014 411.903C187.263 411.405 188.01 411.156 188.508 411.405C189.006 411.654 189.255 412.401 189.006 412.899L185.769 418.377C185.52 418.626 185.271 418.875 184.773 418.875C184.773 418.875 184.524 418.875 184.275 418.875ZM190.749 407.919C190.251 407.67 190.002 406.923 190.251 406.425L193.488 400.947C193.737 400.449 194.484 400.2 194.982 400.449C195.48 400.698 195.729 401.445 195.48 401.943L192.243 407.421C191.994 407.67 191.745 407.919 191.247 407.919C190.998 408.168 190.749 407.919 190.749 407.919ZM196.974 396.963C196.476 396.714 196.227 395.967 196.476 395.469L199.713 389.992C199.962 389.494 200.709 389.245 201.207 389.494C201.705 389.743 201.954 390.49 201.705 390.988L198.468 396.466C198.219 396.715 197.97 396.963 197.472 396.963C197.223 397.212 197.223 397.212 196.974 396.963ZM203.199 386.008C202.701 385.759 202.452 385.012 202.701 384.514L205.938 379.036C206.187 378.538 206.934 378.289 207.432 378.538C207.93 378.787 208.179 379.534 207.93 380.032L204.693 385.51C204.444 385.759 204.195 386.008 203.697 386.008C203.697 386.257 203.448 386.257 203.199 386.008ZM209.672 375.301C209.174 375.052 208.926 374.305 209.175 373.807L212.411 368.329C212.66 367.831 213.407 367.582 213.905 367.831C214.403 368.08 214.652 368.827 214.403 369.325L211.166 374.803C210.917 375.052 210.668 375.301 210.17 375.301C209.921 375.301 209.672 375.301 209.672 375.301ZM215.897 364.346C215.399 364.097 215.15 363.35 215.399 362.852L218.636 357.374C218.885 356.876 219.632 356.627 220.13 356.876C220.628 357.125 220.877 357.872 220.628 358.37L217.391 363.848C217.142 364.096 216.893 364.346 216.395 364.346C216.146 364.346 216.146 364.346 215.897 364.346ZM222.122 353.39C221.624 353.141 221.375 352.394 221.624 351.896L224.861 346.418C225.11 345.92 225.857 345.671 226.355 345.92C226.853 346.169 227.102 346.916 226.853 347.414L223.616 352.892C223.367 353.141 223.118 353.39 222.62 353.39C222.62 353.639 222.371 353.39 222.122 353.39ZM228.347 342.434C227.849 342.185 227.6 341.438 227.849 340.94L231.086 335.462C231.335 334.964 232.082 334.716 232.58 334.965C233.078 335.214 233.327 335.96 233.078 336.458L229.841 341.936C229.592 342.185 229.343 342.434 228.845 342.434C228.845 342.683 228.596 342.683 228.347 342.434ZM234.821 331.479C234.323 331.23 234.074 330.483 234.323 329.985L237.56 324.507C237.809 324.009 238.556 323.76 239.054 324.009C239.552 324.258 239.8 325.005 239.551 325.503L236.315 330.981C236.066 331.23 235.817 331.479 235.319 331.479C235.07 331.728 234.821 331.728 234.821 331.479ZM241.046 320.772C240.548 320.523 240.298 319.776 240.547 319.278L243.784 313.8C244.033 313.302 244.78 313.053 245.278 313.302C245.776 313.551 246.025 314.298 245.776 314.796L242.539 320.274C242.29 320.523 242.041 320.772 241.544 320.772C241.295 320.772 241.294 320.772 241.046 320.772ZM247.27 309.816C246.772 309.567 246.523 308.82 246.772 308.322L250.009 302.845C250.258 302.347 251.005 302.098 251.503 302.347C252.001 302.596 252.25 303.343 252.001 303.841L248.764 309.318C248.515 309.567 248.266 309.816 247.768 309.816C247.768 309.816 247.519 309.816 247.27 309.816ZM253.744 298.861C253.246 298.612 252.997 297.865 253.246 297.367L256.483 291.889C256.732 291.391 257.479 291.142 257.977 291.391C258.475 291.64 258.724 292.387 258.475 292.885L255.238 298.363C254.989 298.612 254.74 298.861 254.242 298.861C253.993 298.861 253.744 298.861 253.744 298.861ZM259.969 287.905C259.471 287.656 259.222 286.909 259.471 286.411L262.708 280.933C262.957 280.435 263.704 280.186 264.202 280.435C264.7 280.684 264.949 281.431 264.7 281.929L261.463 287.407C261.214 287.656 260.965 287.905 260.467 287.905C260.218 288.154 260.218 287.905 259.969 287.905ZM266.194 276.949C265.696 276.7 265.447 275.953 265.696 275.455L268.933 269.978C269.182 269.48 269.928 269.231 270.426 269.48C270.924 269.729 271.173 270.476 270.924 270.974L267.688 276.452C267.439 276.701 267.19 276.949 266.692 276.949C266.692 277.198 266.443 277.198 266.194 276.949ZM272.667 265.994C272.169 265.745 271.92 264.998 272.169 264.5L275.406 259.022C275.655 258.524 276.402 258.275 276.9 258.524C277.398 258.773 277.647 259.52 277.398 260.018L274.161 265.496C273.912 265.745 273.663 265.994 273.165 265.994C272.916 266.243 272.667 266.243 272.667 265.994ZM278.892 255.287C278.394 255.038 278.145 254.291 278.394 253.793L281.631 248.315C281.88 247.817 282.627 247.568 283.125 247.817C283.623 248.066 283.872 248.813 283.623 249.311L280.386 254.789C280.137 255.038 279.888 255.287 279.39 255.287C279.141 255.287 279.141 255.287 278.892 255.287ZM285.117 244.332C284.619 244.083 284.37 243.336 284.619 242.838L287.856 237.36C288.105 236.862 288.852 236.613 289.35 236.862C289.848 237.111 290.097 237.858 289.848 238.356L286.611 243.834C286.362 244.083 286.113 244.332 285.615 244.332C285.615 244.332 285.366 244.332 285.117 244.332ZM291.342 233.376C290.844 233.127 290.595 232.38 290.844 231.882L294.081 226.404C294.33 225.906 295.077 225.657 295.575 225.906C296.073 226.155 296.322 226.902 296.073 227.4L292.836 232.878C292.587 233.127 292.338 233.376 291.84 233.376C291.84 233.376 291.591 233.376 291.342 233.376ZM297.816 222.42C297.318 222.171 297.069 221.424 297.318 220.926L300.554 215.449C300.803 214.951 301.55 214.702 302.048 214.951C302.546 215.2 302.795 215.947 302.546 216.445L299.309 221.922C299.06 222.171 298.812 222.42 298.314 222.42C298.065 222.669 297.816 222.669 297.816 222.42ZM304.04 211.465C303.542 211.216 303.293 210.469 303.542 209.971L306.779 204.493C307.028 203.995 307.775 203.746 308.273 203.995C308.771 204.244 309.02 204.991 308.771 205.489L305.534 210.967C305.285 211.216 305.036 211.465 304.538 211.465C304.289 211.714 304.289 211.714 304.04 211.465ZM310.265 200.509C309.767 200.26 309.518 199.513 309.767 199.015L313.004 193.537C313.253 193.039 314 192.79 314.498 193.039C314.996 193.288 315.245 194.035 314.996 194.533L311.759 200.011C311.51 200.26 311.261 200.509 310.763 200.509C310.763 200.758 310.514 200.758 310.265 200.509ZM316.739 189.802C316.241 189.553 315.992 188.806 316.241 188.308L319.478 182.831C319.727 182.333 320.474 182.084 320.972 182.333C321.47 182.582 321.719 183.329 321.47 183.827L318.233 189.304C317.984 189.553 317.735 189.802 317.237 189.802C316.988 189.802 316.739 189.802 316.739 189.802ZM322.964 178.847C322.466 178.598 322.217 177.851 322.466 177.353L325.703 171.875C325.952 171.377 326.699 171.128 327.197 171.377C327.695 171.626 327.944 172.373 327.695 172.871L324.458 178.349C324.209 178.598 323.96 178.847 323.462 178.847C323.213 178.847 323.213 178.847 322.964 178.847ZM329.188 167.891C328.69 167.642 328.442 166.895 328.691 166.397L331.927 160.919C332.176 160.421 332.923 160.172 333.421 160.421C333.919 160.67 334.168 161.417 333.919 161.915L330.682 167.393C330.434 167.642 330.184 167.891 329.686 167.891C329.686 168.14 329.437 167.891 329.188 167.891ZM335.662 156.936C335.164 156.687 334.915 155.94 335.164 155.442L338.401 149.964C338.65 149.466 339.397 149.217 339.895 149.466C340.393 149.715 340.642 150.462 340.393 150.96L337.156 156.438C336.907 156.686 336.658 156.936 336.16 156.936C335.911 157.185 335.662 157.185 335.662 156.936ZM341.887 145.98C341.389 145.731 341.14 144.984 341.389 144.486L344.626 139.008C344.875 138.51 345.622 138.261 346.12 138.51C346.618 138.759 346.867 139.506 346.618 140.004L343.381 145.482C343.132 145.731 342.883 145.98 342.385 145.98C342.136 146.229 342.136 146.229 341.887 145.98ZM348.112 135.273C347.614 135.024 347.365 134.277 347.614 133.779L350.851 128.301C351.1 127.803 351.847 127.554 352.345 127.803C352.843 128.052 353.092 128.799 352.843 129.297L349.606 134.775C349.357 135.024 349.108 135.273 348.61 135.273C348.61 135.273 348.361 135.273 348.112 135.273ZM354.337 124.318C353.839 124.069 353.59 123.322 353.839 122.824L357.076 117.346C357.325 116.848 358.072 116.599 358.57 116.848C359.068 117.097 359.316 117.844 359.067 118.342L355.831 123.82C355.582 124.069 355.333 124.318 354.835 124.318C354.835 124.318 354.586 124.318 354.337 124.318ZM360.81 113.362C360.312 113.113 360.063 112.366 360.312 111.868L363.549 106.39C363.798 105.892 364.545 105.643 365.043 105.892C365.541 106.141 365.79 106.888 365.541 107.386L362.304 112.864C362.055 113.113 361.806 113.362 361.308 113.362C361.059 113.362 360.81 113.362 360.81 113.362ZM367.035 102.406C366.537 102.157 366.288 101.41 366.537 100.912L369.774 95.4346C370.023 94.9366 370.77 94.6876 371.268 94.9365C371.766 95.1855 372.015 95.9325 371.766 96.4305L368.529 101.908C368.28 102.157 368.031 102.406 367.533 102.406C367.284 102.655 367.284 102.406 367.035 102.406Z" fill="#18CFAE"/>
<g opacity="0.8">
<path opacity="0.8" d="M98.3732 497.307C98.3732 497.307 98.3732 497.058 98.3732 497.307C62.7674 476.641 30.8964 455.227 5.25031 434.561C4.75232 434.063 4.25432 433.814 3.75634 433.316C3.50735 433.067 3.50739 433.067 3.2584 432.818C-30.8535 405.429 -54.0097 380.032 -60.7325 362.104C-78.9089 450.746 -39.8172 544.864 42.8481 592.671C124.766 639.979 224.861 627.53 292.338 568.768C256.732 571.755 179.295 543.869 98.3732 497.307C98.6222 497.307 98.6222 497.307 98.3732 497.307Z" fill="url(#paint3_linear_366_8407)"/>
<path opacity="0.8" d="M42.101 594.165C-27.6166 553.828 -66.7083 480.873 -66.7083 405.678C-66.7083 391.236 -65.2143 376.546 -62.2264 362.104C-61.9775 361.357 -61.4795 360.859 -60.9815 360.859C-60.2345 360.859 -59.7365 361.108 -59.4875 361.855C-53.0137 379.285 -30.1065 404.433 4.00534 431.822C4.25434 432.071 4.25437 432.071 4.50336 432.32C5.00134 432.818 5.49926 433.067 5.99725 433.565C31.6434 453.982 63.2654 475.645 98.8712 496.062C98.8712 496.062 98.8712 496.062 99.1202 496.062H99.3691C176.059 540.382 250.258 567.772 287.109 567.772C288.852 567.772 290.595 567.771 292.338 567.522C293.085 567.522 293.583 567.771 293.832 568.518C294.081 569.016 293.832 569.763 293.334 570.261C253.495 604.871 202.452 623.546 150.661 623.546C113.811 623.297 76.4619 613.835 42.101 594.165ZM-63.4714 405.678C-63.4714 479.877 -25.1267 551.836 43.844 591.675C77.7069 611.096 114.558 620.558 150.91 620.558C200.709 620.558 249.76 603.128 288.354 570.759C288.105 570.759 287.607 570.759 287.358 570.759C249.013 570.759 175.063 543.121 97.8752 498.801C97.8752 498.801 97.8752 498.801 97.6262 498.801L98.3732 497.556L97.6262 498.801C97.6262 498.801 97.6262 498.801 97.3772 498.801C61.7714 478.383 30.1495 456.721 4.25435 436.055C3.75637 435.557 3.25837 435.308 2.76039 434.81C2.51139 434.561 2.51136 434.561 2.26237 434.312C-29.1106 408.915 -51.5198 385.51 -60.2345 367.582C-62.4754 380.032 -63.4714 392.979 -63.4714 405.678Z" fill="#D4DDE8"/>
</g>
<path d="M299.309 562.792C287.109 583.956 197.223 554.824 98.3731 497.556C-0.476608 440.537 -70.6923 377.044 -58.4917 355.88C-46.2911 334.716 43.5949 363.848 142.445 421.116C241.294 478.384 311.51 541.628 299.309 562.792Z" fill="url(#paint4_linear_366_8407)"/>
<path d="M97.3772 499.05C51.5627 472.657 11.973 444.77 -16.163 420.618C-44.2991 396.216 -61.4795 375.55 -61.4795 361.856C-61.4795 359.615 -60.9816 357.374 -59.9856 355.631C-56.7487 350.153 -49.7769 347.912 -40.0663 347.912C-5.70541 347.912 65.7552 375.55 142.943 420.12C188.757 446.513 228.347 474.4 256.483 498.552C284.619 522.953 301.799 543.62 301.799 557.314C301.799 559.555 301.301 561.796 300.305 563.539L299.06 562.792L300.305 563.539C297.068 569.017 290.097 571.258 280.386 571.258C246.274 571.009 174.565 543.619 97.3772 499.05ZM-57.4957 356.876C-58.2426 358.121 -58.7406 359.864 -58.7406 361.607C-58.9896 373.06 -42.5561 393.976 -14.4201 418.128C13.716 442.28 53.0567 469.918 98.8711 496.311C175.81 540.632 247.519 568.27 280.386 568.021C289.848 568.021 295.575 565.78 297.815 561.796C298.562 560.551 299.06 558.808 299.06 557.065C299.309 545.612 282.876 524.696 254.74 500.544C226.604 476.392 187.263 448.754 141.449 422.361C64.7593 378.04 -6.95037 350.651 -40.0663 350.651C-49.5279 350.651 -55.2547 353.141 -57.4957 356.876Z" fill="#D4DDE8"/>
<path opacity="0.3" d="M212.909 554.077C150.661 582.213 104.847 587.442 39.8601 550.093C-3.96246 524.696 -19.3999 511.001 -37.8253 468.175C-25.8737 528.68 0.519371 564.783 53.3056 594.165C130.742 636.991 215.399 622.55 282.378 575.739C271.173 572.751 227.849 562.294 212.909 554.077Z" fill="url(#paint5_linear_366_8407)"/>
<path opacity="0.3" d="M-59.2384 369.076C-72.186 417.132 -57.2465 505.274 1.51552 558.808C-53.2626 489.09 -48.0338 438.545 -35.8332 402.192C-47.5358 391.485 -55.2546 380.53 -59.2384 369.076Z" fill="white"/>
<g opacity="0.8">
<path opacity="0.8" d="M51.8118 449.751C52.3097 450.249 52.8077 450.498 53.3057 450.996C79.2008 471.663 111.072 493.076 146.429 513.742C147.923 514.489 149.167 515.485 150.661 516.232C151.159 516.481 151.657 516.73 152.155 516.979C153.151 517.477 154.147 518.224 155.143 518.722C155.641 518.971 156.139 519.22 156.886 519.718C157.882 520.216 158.878 520.714 159.874 521.212C160.372 521.461 160.87 521.71 161.368 521.959C162.364 522.457 163.36 523.204 164.605 523.702C165.103 523.951 165.352 524.2 165.85 524.449C167.095 525.196 168.34 525.943 169.585 526.441C169.834 526.441 169.834 526.69 170.083 526.69C242.539 565.533 309.02 587.942 340.891 584.954C358.32 569.765 373.758 551.34 385.959 530.176C390.44 522.457 394.424 514.489 397.91 506.272C379.485 512.497 339.397 503.534 291.093 484.112C290.844 484.112 290.844 483.863 290.595 483.863C288.603 483.116 286.86 482.369 284.868 481.622C256.234 469.92 224.612 454.233 191.994 435.559L191.745 435.31L191.496 435.061C159.127 416.387 129.746 396.716 105.096 377.793C62.0204 344.677 31.1454 312.557 26.1656 292.389C20.9368 299.36 16.206 306.581 11.9731 314.051C0.270497 334.219 -7.69727 355.633 -12.1791 377.295C-6.7013 395.222 16.4549 421.117 51.5628 449.253C51.3138 449.502 51.5628 449.751 51.8118 449.751Z" fill="url(#paint6_linear_366_8407)"/>
<path opacity="0.8" d="M169.087 528.184C168.838 528.184 168.838 527.935 168.589 527.935C167.344 527.188 166.099 526.441 164.605 525.943C164.107 525.694 163.858 525.445 163.36 525.196C162.364 524.698 161.368 523.951 160.123 523.453C159.625 523.204 159.127 522.955 158.629 522.706C157.633 522.208 156.637 521.71 155.641 521.212C155.143 520.963 154.645 520.714 153.898 520.216C152.902 519.718 151.906 518.971 150.91 518.473C150.412 518.224 149.914 517.975 149.416 517.726C147.922 516.979 146.678 515.983 145.184 515.236C109.827 494.819 77.7069 473.157 51.8118 452.49C51.3138 451.992 50.8158 451.743 50.3178 451.245L51.3138 450L52.3097 448.755C52.8077 449.253 53.3057 449.502 53.8037 450C79.4498 470.418 111.321 492.08 146.678 512.497C148.171 513.244 149.416 514.24 150.91 514.987C151.408 515.236 151.906 515.485 152.404 515.734C153.4 516.232 154.396 516.979 155.392 517.477C155.89 517.726 156.388 517.975 157.135 518.473C158.131 518.971 159.127 519.469 160.123 519.967C160.621 520.216 161.119 520.465 161.617 520.714C162.613 521.212 163.609 521.959 164.854 522.457C165.352 522.706 165.601 522.955 166.099 523.204C167.344 523.951 168.589 524.698 169.834 525.196C170.083 525.196 170.083 525.445 170.332 525.445C238.306 562.047 301.301 583.958 334.417 583.958C336.409 583.958 338.152 583.958 339.895 583.709C357.076 568.52 372.264 550.593 384.216 529.678C388.199 522.955 391.685 515.983 394.673 508.762C391.187 509.509 387.203 510.007 382.971 510.007C361.308 510.007 328.193 501.044 290.097 485.855C289.848 485.855 289.848 485.606 289.599 485.606C287.607 484.859 285.864 484.112 283.872 483.365C255.238 471.413 223.367 455.976 190.998 437.053C190.749 437.053 190.749 436.804 190.749 436.804L190.5 436.555C157.882 417.88 128.501 398.21 103.851 379.287C62.7674 347.665 32.6394 317.039 25.4186 296.123C20.9368 302.099 16.7039 308.573 12.9691 315.296C1.51544 335.215 -6.45231 356.13 -10.9342 377.544C-5.45634 394.724 17.4509 420.619 52.0607 448.257C52.3097 448.506 52.3097 448.506 52.5587 448.755L51.5628 450L50.5668 451.245C50.3178 450.996 50.3178 450.996 50.0688 450.747C14.961 422.362 -8.44421 396.716 -14.171 378.042V377.295C-9.44018 355.632 -1.47248 333.97 10.2301 313.802C14.712 306.083 19.4428 298.862 24.6716 291.891C24.9206 291.393 25.6676 291.144 26.1656 291.393C26.6636 291.393 27.1615 291.891 27.4105 292.389C32.1414 311.561 62.7673 343.93 105.843 376.797C130.244 395.72 159.625 415.141 191.994 433.816C191.994 433.816 192.243 433.816 192.243 434.065C192.492 434.065 192.492 434.314 192.492 434.314C224.861 452.988 256.483 468.675 285.117 480.377C287.109 481.124 288.852 481.871 290.844 482.618C291.093 482.618 291.342 482.867 291.342 482.867C329.188 498.056 362.304 506.77 382.971 506.77C388.448 506.77 393.179 506.023 396.914 505.027C397.412 504.778 398.159 505.027 398.408 505.525C398.906 506.023 398.906 506.521 398.657 507.019C395.171 515.236 391.187 523.204 386.706 530.923C374.256 552.336 359.067 570.761 341.389 586.199C341.14 586.448 340.891 586.448 340.642 586.448C338.65 586.697 336.658 586.697 334.417 586.697C300.305 586.946 237.31 564.785 169.087 528.184Z" fill="#D4DDE8"/>
</g>
<path d="M400.4 505.027C388.199 526.191 294.828 495.067 191.745 435.558C88.6625 376.049 14.9609 310.564 27.1615 289.649C39.3621 268.485 132.734 299.609 235.816 359.118C338.899 418.627 412.601 483.862 400.4 505.027Z" fill="url(#paint7_linear_366_8407)"/>
<path d="M190.998 436.803C143.192 409.165 101.61 380.282 71.98 355.134C42.35 329.737 24.6717 308.822 24.4227 294.878C24.4227 292.637 24.9206 290.645 25.9166 288.902C28.9045 283.674 35.8763 281.682 45.338 281.433C80.1968 281.433 155.392 310.814 236.813 357.873C284.619 385.511 326.2 414.394 355.83 439.542C385.46 464.939 403.139 485.855 403.388 499.798C403.388 502.039 402.89 504.031 401.894 505.774L400.649 505.027L401.894 505.774C398.906 511.003 391.934 512.995 382.473 513.244C347.365 512.995 272.418 483.614 190.998 436.803ZM399.155 504.28C399.902 503.035 400.151 501.541 400.151 499.798C400.4 488.345 382.971 466.682 353.59 441.783C324.209 416.635 282.627 388.001 235.07 360.363C154.147 313.553 78.7028 284.42 45.089 284.42C36.1253 284.42 30.3984 286.661 28.4065 290.396C27.6595 291.641 27.4105 293.135 27.4105 294.878C27.1615 306.332 44.591 327.994 73.972 352.893C103.353 378.041 144.935 406.675 192.492 434.313C273.414 481.124 348.859 510.256 382.473 510.256C391.436 510.256 397.163 508.015 399.155 504.28Z" fill="#D4DDE8"/>
<path opacity="0.3" d="M350.104 507.268C343.132 514.488 316.241 560.552 286.362 573.997C303.293 579.973 322.466 585.451 335.164 584.455C360.561 566.777 377.493 542.126 393.926 513.741C394.424 512.496 383.718 516.48 350.104 507.268Z" fill="url(#paint8_linear_366_8407)"/>
<path opacity="0.3" d="M25.1696 362.354C33.8843 347.166 34.8803 343.431 46.3339 330.981C44.342 327.993 27.6595 317.038 18.6958 307.576C12.969 315.295 17.2019 308.323 12.4711 316.789C2.2624 334.467 -7.94622 359.864 -12.926 378.539C-8.94218 389.992 1.51541 399.703 8.48717 409.414C7.24221 398.956 17.4509 375.8 25.1696 362.354Z" fill="white"/>
<g opacity="0.8">
<path opacity="0.8" d="M42.1012 329.488L42.3502 329.737C43.8441 330.982 45.5871 332.227 47.081 333.472C71.4822 352.146 100.863 371.817 132.983 390.491C165.352 409.165 196.974 424.603 225.359 436.555C277.149 457.968 320.723 467.927 339.397 460.707C355.084 423.109 359.566 382.772 353.59 344.428C353.59 344.677 353.341 344.926 353.341 345.175C342.136 364.596 288.603 355.383 225.359 325.753C224.612 325.504 224.114 325.006 223.367 324.757C205.44 317.288 193.737 310.316 180.043 302.348C166.099 294.131 155.641 287.658 142.943 278.196C85.6747 238.108 51.0649 196.278 62.2695 177.105C62.5185 176.607 63.0165 176.109 63.2655 175.611C26.1657 189.804 -6.95015 213.956 -32.0983 247.072C-27.8655 266.244 1.01755 297.368 42.1012 329.488Z" fill="url(#paint9_linear_366_8407)"/>
<path opacity="0.8" d="M225.11 437.799C196.476 426.097 164.854 410.41 132.485 391.736C100.116 373.062 70.7352 353.391 46.334 334.717C44.591 333.472 43.0971 332.227 41.6032 330.982L41.3542 330.733C0.270535 298.364 -28.8615 267.489 -33.0943 247.57C-33.0943 247.072 -33.0943 246.823 -32.8453 246.325C-7.69717 212.96 25.9166 188.559 63.2654 174.366C63.7634 174.117 64.5104 174.366 65.0084 174.864C65.5063 175.362 65.5063 176.109 65.0084 176.607C64.7594 177.105 64.2614 177.603 64.0124 178.101C62.7674 180.342 62.0204 182.832 62.0204 185.82C61.7714 205.988 94.1404 242.59 144.188 277.449C156.637 286.91 167.095 293.633 181.038 301.601C194.733 309.569 206.436 316.291 224.363 324.01C225.11 324.259 225.608 324.757 226.355 325.006C266.692 343.93 303.293 354.387 326.948 354.387C340.144 354.387 349.108 351.15 352.594 344.925C352.594 344.925 352.843 344.676 352.843 344.427C353.092 343.929 353.839 343.432 354.337 343.681C355.084 343.681 355.582 344.179 355.582 344.925C357.325 355.881 358.072 367.086 358.072 378.29C358.072 406.426 352.594 434.811 341.14 461.952C340.891 462.201 340.642 462.698 340.393 462.698C336.16 464.441 330.682 465.188 324.458 465.188C301.301 464.441 265.696 454.731 225.11 437.799ZM338.401 459.462C349.357 432.82 354.835 405.181 354.835 377.543C354.835 367.833 354.088 358.122 352.843 348.411C347.614 354.138 338.401 356.877 326.45 356.877C302.048 356.877 265.447 346.17 224.612 327.247C223.865 326.998 223.367 326.5 222.62 326.251C204.693 318.532 192.741 311.81 179.046 303.842C165.103 295.625 154.396 289.151 141.947 279.441C91.6504 244.333 58.7836 208.229 58.5346 185.322C58.5346 182.832 59.0325 180.591 59.7795 178.35C24.9207 192.543 -6.70122 215.699 -30.6044 247.321C-26.3716 265.746 2.26247 296.621 42.5991 328.243L41.6032 329.488L42.5991 328.243L42.8481 328.492C44.3421 329.737 46.085 330.982 47.5789 332.227C71.9801 350.901 101.112 370.572 133.481 389.246C165.85 407.92 197.223 423.358 225.608 435.06C265.945 451.743 301.55 461.454 323.462 461.454C329.935 461.454 334.666 460.956 338.401 459.462Z" fill="#D4DDE8"/>
</g>
<path d="M352.843 350.403C340.393 372.065 263.953 351.648 182.532 304.589C101.112 257.529 45.0889 201.755 57.7875 180.093C70.2371 158.431 146.678 178.848 228.098 225.907C309.518 272.967 365.541 328.741 352.843 350.403Z" fill="url(#paint10_linear_366_8407)"/>
<path d="M181.785 306.082C144.935 284.669 113.064 261.513 90.6544 240.597C68.2452 219.433 54.7996 200.759 54.5506 187.313C54.5506 184.574 55.2976 181.835 56.5426 179.594C60.5265 172.872 69.2411 170.133 80.9437 170.133C112.815 170.133 169.336 190.55 228.845 224.911C265.696 246.324 297.567 269.48 319.976 290.396C342.385 311.56 355.831 330.234 356.08 343.68C356.08 346.419 355.332 349.158 354.088 351.399C350.104 358.121 341.389 360.86 329.686 360.86C298.064 360.611 241.543 340.443 181.785 306.082ZM59.2815 180.839C58.2855 182.582 57.7876 184.823 57.7876 187.064C57.7876 198.767 70.4861 217.441 92.8954 238.108C115.305 259.023 146.678 281.93 183.528 303.094C242.788 337.206 299.309 357.375 329.935 357.375C341.389 357.375 348.859 354.636 351.847 349.407C352.843 347.664 353.341 345.423 353.341 343.182C353.341 331.479 340.642 312.805 318.233 292.139C295.824 271.223 264.451 248.316 227.6 227.152C168.34 193.04 111.819 172.872 81.1927 172.872C69.4901 172.872 62.0204 175.86 59.2815 180.839Z" fill="#D4DDE8"/>
<path opacity="0.3" d="M73.4741 219.931C69.4903 216.445 51.5629 191.546 59.2817 176.606C26.9128 189.803 -8.1951 218.686 -32.0983 246.573C-27.6164 260.268 -21.3917 268.484 -8.69309 283.424C15.4591 257.529 41.3542 231.883 73.4741 219.931Z" fill="white"/>
<path opacity="0.3" d="M354.337 343.929C348.61 350.9 335.662 356.378 328.441 355.133C333.421 385.012 323.462 413.646 312.506 432.57C307.028 441.783 303.791 449.003 296.073 457.718C312.257 461.204 324.956 466.682 337.903 459.461C360.063 409.663 356.578 367.583 354.337 343.929Z" fill="url(#paint11_linear_366_8407)"/>
<path d="M498.752 509.01L499.748 507.267L503.98 509.757L502.985 511.5L498.752 509.01ZM488.045 502.785L489.041 501.042L494.519 504.279L493.523 506.022L488.045 502.785ZM477.089 496.311L478.085 494.568L483.563 497.805L482.567 499.548L477.089 496.311ZM466.134 490.087L467.13 488.344L472.608 491.58L471.612 493.323L466.134 490.087ZM455.178 483.862L456.174 482.119L461.652 485.356L460.656 487.099L455.178 483.862ZM444.223 477.388L445.219 475.645L450.696 478.882L449.7 480.625L444.223 477.388ZM433.516 471.163L434.512 469.42L439.99 472.657L438.994 474.4L433.516 471.163ZM422.56 464.938L423.556 463.196L429.034 466.432L428.038 468.175L422.56 464.938ZM411.605 458.714L412.601 456.971L418.078 460.208L417.083 461.951L411.605 458.714ZM400.649 452.24L401.645 450.497L407.123 453.734L406.127 455.477L400.649 452.24ZM389.693 446.015L390.689 444.272L396.167 447.509L395.171 449.252L389.693 446.015ZM378.738 439.79L379.734 438.047L385.211 441.284L384.216 443.027L378.738 439.79ZM368.031 433.317L369.027 431.574L374.505 434.81L373.509 436.553L368.031 433.317ZM357.075 427.092L358.071 425.349L363.549 428.586L362.553 430.329L357.075 427.092ZM346.12 420.867L347.116 419.124L352.594 422.361L351.598 424.104L346.12 420.867ZM335.164 414.642L336.16 412.899L341.638 416.136L340.642 417.879L335.164 414.642ZM324.209 408.168L325.205 406.425L330.682 409.662L329.686 411.405L324.209 408.168ZM313.502 401.943L314.498 400.201L319.976 403.438L318.98 405.18L313.502 401.943ZM302.546 395.719L303.542 393.976L309.02 397.213L308.024 398.956L302.546 395.719ZM291.591 389.245L292.587 387.502L298.064 390.739L297.069 392.482L291.591 389.245ZM280.635 383.02L281.631 381.277L287.109 384.514L286.113 386.257L280.635 383.02ZM269.679 376.795L270.675 375.052L276.153 378.289L275.157 380.032L269.679 376.795ZM258.973 370.571L259.969 368.828L265.447 372.064L264.451 373.807L258.973 370.571ZM248.017 364.097L249.013 362.354L254.491 365.591L253.495 367.334L248.017 364.097ZM237.061 357.872L238.057 356.129L243.535 359.366L242.539 361.109L237.061 357.872ZM226.106 351.647L227.102 349.904L232.58 353.141L231.584 354.884L226.106 351.647Z" fill="#7195BA"/>
<path d="M427.54 636.493L428.536 634.75L431.026 636.244L430.03 637.987L427.54 636.493ZM416.585 630.02L417.58 628.277L423.058 631.513L422.062 633.256L416.585 630.02ZM405.629 623.795L406.625 622.052L412.103 625.289L411.107 627.032L405.629 623.795ZM394.673 617.57L395.669 615.827L401.147 619.064L400.151 620.807L394.673 617.57ZM383.967 611.345L384.963 609.602L390.44 612.839L389.444 614.582L383.967 611.345ZM373.011 604.871L374.007 603.129L379.485 606.365L378.489 608.108L373.011 604.871ZM362.055 598.647L363.051 596.904L368.529 600.141L367.533 601.884L362.055 598.647ZM351.1 592.422L352.096 590.679L357.573 593.916L356.577 595.659L351.1 592.422ZM340.144 585.948L341.14 584.205L346.618 587.442L345.622 589.185L340.144 585.948Z" fill="#21A497"/>
<path d="M274.161 262.508L275.157 260.765L280.635 264.001L279.639 265.744L274.161 262.508ZM263.205 256.034L264.201 254.291L269.679 257.528L268.683 259.271L263.205 256.034ZM252.25 249.809L253.246 248.066L258.724 251.303L257.728 253.046L252.25 249.809ZM241.294 243.584L242.29 241.841L247.768 245.078L246.772 246.821L241.294 243.584ZM230.339 237.11L231.335 235.367L236.812 238.604L235.816 240.347L230.339 237.11ZM219.632 230.886L220.628 229.143L226.106 232.38L225.11 234.122L219.632 230.886ZM208.676 224.661L209.672 222.918L215.15 226.155L214.154 227.898L208.676 224.661ZM197.721 218.436L198.717 216.693L204.195 219.93L203.199 221.673L197.721 218.436ZM186.765 211.962L187.761 210.219L193.239 213.456L192.243 215.199L186.765 211.962ZM175.809 205.737L176.805 203.994L182.283 207.231L181.287 208.974L175.809 205.737ZM165.103 199.513L166.099 197.77L171.577 201.007L170.581 202.75L165.103 199.513ZM154.147 193.039L155.143 191.296L160.621 194.533L159.625 196.276L154.147 193.039ZM143.192 186.814L144.188 185.071L149.665 188.308L148.669 190.051L143.192 186.814ZM132.236 180.589L133.232 178.846L138.71 182.083L137.714 183.826L132.236 180.589ZM121.28 174.115L122.276 172.373L127.754 175.609L126.758 177.352L121.28 174.115ZM110.574 167.891L111.57 166.148L117.047 169.385L116.051 171.128L110.574 167.891ZM99.618 161.666L100.614 159.923L106.092 163.16L105.096 164.903L99.618 161.666ZM88.6624 155.441L89.6583 153.698L95.1362 156.935L94.1402 158.678L88.6624 155.441ZM77.7068 148.967L78.7027 147.224L84.1806 150.461L83.1845 152.204L77.7068 148.967ZM66.7512 142.743L67.7471 141L73.2249 144.236L72.2289 145.979L66.7512 142.743ZM56.0445 136.518L57.0404 134.775L62.5183 138.012L61.5223 139.755L56.0445 136.518ZM45.0889 130.044L46.0848 128.301L51.5627 131.538L50.5667 133.281L45.0889 130.044ZM34.1332 123.819L35.1292 122.076L40.607 125.313L39.611 127.056L34.1332 123.819ZM23.1776 117.594L24.1736 115.851L29.6513 119.088L28.6554 120.831L23.1776 117.594ZM12.2219 111.37L13.218 109.627L18.6957 112.864L17.6998 114.607L12.2219 111.37ZM1.26632 104.896L2.26227 103.153L7.74012 106.39L6.74416 108.133L1.26632 104.896ZM-9.44029 98.671L-8.44434 96.9281L-2.96649 100.165L-3.96252 101.908L-9.44029 98.671ZM-20.3959 92.4462L-19.4 90.7033L-13.9222 93.9402L-14.9181 95.6831L-20.3959 92.4462ZM-31.3516 85.9725L-30.3556 84.2295L-24.8778 87.4664L-25.8738 89.2093L-31.3516 85.9725Z" fill="#98A2AE"/>
<path d="M23.4265 697.497C22.9285 697.248 22.6796 696.501 22.9286 696.003L26.1654 690.525C26.4144 690.027 27.1614 689.778 27.6594 690.027C28.1574 690.276 28.4064 691.023 28.1574 691.521L24.9205 696.999C24.6715 697.248 24.4225 697.497 23.9245 697.497C23.9245 697.746 23.6755 697.497 23.4265 697.497ZM29.9003 686.541C29.4023 686.292 29.1534 685.545 29.4024 685.047L32.6392 679.569C32.8882 679.071 33.6352 678.822 34.1332 679.071C34.6312 679.32 34.8801 680.067 34.6311 680.565L31.3943 686.043C31.1453 686.292 30.8963 686.541 30.3983 686.541C30.1493 686.79 29.9003 686.79 29.9003 686.541ZM36.1251 675.585C35.6271 675.336 35.3782 674.589 35.6271 674.092L38.864 668.614C39.113 668.116 39.86 667.867 40.358 668.116C40.856 668.365 41.1049 669.112 40.8559 669.61L37.6191 675.087C37.3701 675.336 37.1211 675.585 36.6231 675.585C36.3741 675.834 36.3741 675.834 36.1251 675.585ZM42.3499 664.879C41.8519 664.63 41.6029 663.883 41.8519 663.385L45.0888 657.907C45.3378 657.409 46.0848 657.16 46.5828 657.409C47.0808 657.658 47.3297 658.405 47.0807 658.903L43.8438 664.381C43.5949 664.63 43.3459 664.879 42.8479 664.879C42.8479 664.879 42.5989 664.879 42.3499 664.879ZM48.5747 653.923C48.0767 653.674 47.8277 652.927 48.0767 652.429L51.3136 646.951C51.5626 646.453 52.3096 646.204 52.8076 646.453C53.3055 646.702 53.5545 647.449 53.3055 647.947L50.0686 653.425C49.8196 653.674 49.5707 653.923 49.0727 653.923C49.0727 653.923 48.8237 653.923 48.5747 653.923ZM55.0485 642.968C54.5505 642.719 54.3015 641.971 54.5505 641.474L57.7874 635.996C58.0364 635.498 58.7834 635.249 59.2814 635.498C59.7793 635.747 60.0283 636.494 59.7793 636.992L56.5424 642.47C56.2934 642.719 56.0445 642.968 55.5465 642.968C55.2975 642.968 55.0485 642.968 55.0485 642.968ZM61.2733 632.012C60.7753 631.763 60.5263 631.016 60.7752 630.518L64.0122 625.04C64.2612 624.542 65.0082 624.293 65.5061 624.542C66.0041 624.791 66.2531 625.538 66.0041 626.036L62.7672 631.514C62.5182 631.763 62.2693 632.012 61.7713 632.012C61.5223 632.261 61.5223 632.261 61.2733 632.012ZM67.4981 621.056C67.0001 620.807 66.751 620.06 67 619.562L70.237 614.084C70.486 613.586 71.233 613.337 71.7309 613.586C72.2289 613.835 72.4779 614.582 72.2289 615.08L68.992 620.558C68.743 620.807 68.494 621.056 67.9961 621.056C67.9961 621.305 67.747 621.305 67.4981 621.056ZM73.9719 610.101C73.4739 609.852 73.2248 609.105 73.4738 608.607L76.7108 603.129C76.9598 602.631 77.7067 602.382 78.2047 602.631C78.7026 602.88 78.9517 603.627 78.7027 604.125L75.4658 609.603C75.2168 609.852 74.9678 610.101 74.4698 610.101C74.2208 610.35 73.9719 610.35 73.9719 610.101Z" fill="#092D66"/>
<path d="M405.131 369.077C391.934 391.984 318.233 374.057 240.298 329.238C162.613 284.42 110.076 229.393 123.272 206.486C136.469 183.578 210.17 201.506 288.105 246.324C365.79 291.143 418.327 346.17 405.131 369.077Z" fill="url(#paint12_linear_366_8407)"/>
<path d="M239.8 330.234C170.083 289.897 120.533 241.842 120.284 214.702C120.284 211.465 121.031 208.477 122.525 205.987C126.758 198.766 136.469 195.529 149.665 195.529C181.038 195.529 233.825 213.706 288.852 245.577C358.57 285.913 408.119 333.969 408.368 361.109C408.368 364.346 407.621 367.334 406.127 369.823L405.131 369.325L406.127 369.823C401.894 377.044 392.183 380.281 378.987 380.281C347.365 380.032 294.579 361.856 239.8 330.234ZM124.268 206.983C123.023 209.224 122.276 211.714 122.276 214.702C122.027 239.85 171.079 288.403 240.796 328.491C295.574 360.113 348.112 378.289 378.987 378.289C391.934 378.289 400.649 375.052 404.135 368.827C405.38 366.587 406.127 364.097 406.127 361.109C406.376 335.961 357.325 287.407 287.607 247.32C232.829 215.698 180.291 197.521 149.416 197.521C136.469 197.521 127.754 200.758 124.268 206.983Z" fill="#D4DDE8"/>
<g opacity="0.8">
<path opacity="0.8" d="M305.285 215.696C247.27 182.083 180.291 178.597 122.027 200.259C121.28 201.006 120.533 202.002 120.035 202.749C108.831 222.17 143.441 264.001 200.709 303.84C212.909 312.305 226.355 321.02 240.547 329.237C253.993 336.955 267.439 343.927 280.386 350.152C280.884 350.401 281.133 350.401 281.631 350.65C344.875 380.28 398.408 389.244 409.613 370.071C409.862 369.573 410.111 369.075 410.36 368.328C400.4 306.578 363.798 249.559 305.285 215.696Z" fill="url(#paint13_linear_366_8407)"/>
<path opacity="0.8" d="M281.133 352.394C280.635 352.145 280.386 352.145 279.888 351.896C266.94 345.671 253.495 338.699 239.8 330.98C225.608 322.764 212.162 314.298 199.962 305.583C149.665 270.475 116.799 234.372 116.55 211.464C116.55 208.228 117.297 204.991 118.791 202.252C119.288 201.256 120.035 200.26 120.782 199.513L121.28 199.015C145.433 190.051 171.328 185.32 197.472 185.32C234.323 185.32 271.671 194.782 306.032 214.452L305.285 215.697L304.538 216.942C270.675 197.521 233.825 188.059 197.472 188.059C171.826 188.059 146.678 192.541 122.774 201.505C122.276 202.252 121.778 202.75 121.28 203.497C120.035 205.738 119.288 208.228 119.288 211.215C119.039 231.384 151.408 267.985 201.456 302.844C213.656 311.31 227.102 319.776 241.294 327.992C254.74 335.711 268.185 342.683 281.133 348.908C281.631 349.157 281.88 349.157 282.378 349.406C322.964 368.329 359.316 378.787 382.971 378.787C396.167 378.787 405.131 375.55 408.617 369.325C408.866 369.076 409.115 368.578 409.115 368.08C399.155 306.828 362.553 250.307 304.787 216.693L305.534 215.448L306.281 214.203C365.292 248.315 402.143 305.583 412.352 368.08V368.827C412.103 369.574 411.854 370.072 411.356 370.57C406.874 378.289 396.665 381.526 383.22 381.526C358.32 382.024 321.719 371.317 281.133 352.394Z" fill="#D4DDE8"/>
</g>
<path opacity="0.3" d="M316.739 262.258C360.312 287.406 388.448 317.783 405.878 361.606C395.42 299.358 362.055 250.307 304.04 216.942C247.768 184.324 182.532 180.589 124.517 200.508C110.574 217.191 129.497 237.359 139.706 250.805C196.227 233.126 262.459 230.885 316.739 262.258Z" fill="white"/>
<g filter="url(#filter0_d_366_8407)">


</g>





<path d="M42.3866 194.826C41.5958 194.826 40.9697 194.206 40.9697 193.422V191.104C40.9697 190.321 41.5958 189.7 42.3866 189.7C43.1774 189.7 43.8035 190.321 43.8035 191.104V193.422C43.7705 194.206 43.1444 194.826 42.3866 194.826Z" fill="#21A497"/>

<path d="M82.0266 188.916H69.8348C69.0439 188.916 68.4179 188.296 68.4179 187.512C68.4179 186.729 69.0439 186.108 69.8348 186.108H82.0266C82.8174 186.108 83.4434 186.729 83.4434 187.512C83.4104 188.263 82.7844 188.916 82.0266 188.916Z" fill="#21A497"/>

<path d="M82.1254 199.919H69.1098C68.319 199.919 67.6929 199.299 67.6929 198.515C67.6929 197.732 68.319 197.111 69.1098 197.111H82.1254C82.9162 197.111 83.5423 197.732 83.5423 198.515C83.5423 199.299 82.8833 199.919 82.1254 199.919Z" fill="#21A497"/>





































<path d="M83.0529 430.868C82.8612 430.868 82.7094 430.744 82.7094 430.588V430.087C82.7094 429.93 82.8612 429.807 83.0529 429.807C83.2446 429.807 83.3964 429.93 83.3964 430.087V430.588C83.3964 430.744 83.2446 430.868 83.0529 430.868Z" fill="white"/>



<defs>
<filter id="filter0_d_366_8407" x="9" y="100.307" width="366.385" height="193.885" filterUnits="userSpaceOnUse" color-interpolation-filters="sRGB">
<feFlood flood-opacity="0" result="BackgroundImageFix"/>
<feColorMatrix in="SourceAlpha" type="matrix" values="0 0 0 0 0 0 0 0 0 0 0 0 0 0 0 0 0 0 127 0" result="hardAlpha"/>
<feOffset dx="4.69256"/>
<feGaussianBlur stdDeviation="2.34628"/>
<feComposite in2="hardAlpha" operator="out"/>
<feColorMatrix type="matrix" values="0 0 0 0 0 0 0 0 0 0 0 0 0 0 0 0 0 0 0.25 0"/>
<feBlend mode="normal" in2="BackgroundImageFix" result="effect1_dropShadow_366_8407"/>
<feBlend mode="normal" in="SourceGraphic" in2="effect1_dropShadow_366_8407" result="shape"/>
</filter>
<filter id="filter1_d_366_8407" x="9" y="562.307" width="366.385" height="193.885" filterUnits="userSpaceOnUse" color-interpolation-filters="sRGB">
<feFlood flood-opacity="0" result="BackgroundImageFix"/>
<feColorMatrix in="SourceAlpha" type="matrix" values="0 0 0 0 0 0 0 0 0 0 0 0 0 0 0 0 0 0 127 0" result="hardAlpha"/>
<feOffset dx="4.69256"/>
<feGaussianBlur stdDeviation="2.34628"/>
<feComposite in2="hardAlpha" operator="out"/>
<feColorMatrix type="matrix" values="0 0 0 0 0 0 0 0 0 0 0 0 0 0 0 0 0 0 0.25 0"/>
<feBlend mode="normal" in2="BackgroundImageFix" result="effect1_dropShadow_366_8407"/>
<feBlend mode="normal" in="SourceGraphic" in2="effect1_dropShadow_366_8407" result="shape"/>
</filter>
<filter id="filter2_d_366_8407" x="9" y="331.307" width="366.385" height="193.885" filterUnits="userSpaceOnUse" color-interpolation-filters="sRGB">
<feFlood flood-opacity="0" result="BackgroundImageFix"/>
<feColorMatrix in="SourceAlpha" type="matrix" values="0 0 0 0 0 0 0 0 0 0 0 0 0 0 0 0 0 0 127 0" result="hardAlpha"/>
<feOffset dx="4.69256"/>
<feGaussianBlur stdDeviation="2.34628"/>
<feComposite in2="hardAlpha" operator="out"/>
<feColorMatrix type="matrix" values="0 0 0 0 0 0 0 0 0 0 0 0 0 0 0 0 0 0 0.25 0"/>
<feBlend mode="normal" in2="BackgroundImageFix" result="effect1_dropShadow_366_8407"/>
<feBlend mode="normal" in="SourceGraphic" in2="effect1_dropShadow_366_8407" result="shape"/>
</filter>
<linearGradient id="paint0_linear_366_8407" x1="128" y1="812" x2="128" y2="305" gradientUnits="userSpaceOnUse">
<stop stop-color="#05AB9C" stop-opacity="0.207843"/>
<stop offset="1" stop-color="#05AB9C" stop-opacity="0"/>
</linearGradient>
<linearGradient id="paint1_linear_366_8407" x1="-3" y1="-3.47954e-05" x2="-3.00005" y2="609" gradientUnits="userSpaceOnUse">
<stop stop-color="#05AB9C" stop-opacity="0.207843"/>
<stop offset="1" stop-color="#05AB9C" stop-opacity="0"/>
</linearGradient>
<linearGradient id="paint2_linear_366_8407" x1="318.264" y1="92.3564" x2="78.2129" y2="540.416" gradientUnits="userSpaceOnUse">
<stop offset="0.1593" stop-color="#18CFAE"/>
<stop offset="0.4142" stop-color="#3DB7B3"/>
<stop offset="0.7075" stop-color="#639EB8"/>
<stop offset="0.8626" stop-color="#7195BA"/>
</linearGradient>
<linearGradient id="paint3_linear_366_8407" x1="237.24" y1="607.048" x2="21.2616" y2="493.535" gradientUnits="userSpaceOnUse">
<stop stop-color="#092D66"/>
<stop offset="0.978" stop-color="#7195BA"/>
</linearGradient>
<linearGradient id="paint4_linear_366_8407" x1="467.31" y1="612.005" x2="665.586" y2="699.138" gradientUnits="userSpaceOnUse">
<stop stop-color="#092D66"/>
<stop offset="0.978" stop-color="#7195BA"/>
</linearGradient>
<linearGradient id="paint5_linear_366_8407" x1="172.915" y1="680.649" x2="11.3639" y2="181.52" gradientUnits="userSpaceOnUse">
<stop stop-color="#4D575D"/>
<stop offset="0.4835" stop-color="#98A2AE"/>
<stop offset="0.8516" stop-color="#D4DDE8"/>
</linearGradient>
<linearGradient id="paint6_linear_366_8407" x1="42.667" y1="377.657" x2="276.177" y2="512.478" gradientUnits="userSpaceOnUse">
<stop stop-color="#94BFDD"/>
<stop offset="0.4729" stop-color="#94BFDD"/>
<stop offset="1" stop-color="#7195BA"/>
</linearGradient>
<linearGradient id="paint7_linear_366_8407" x1="537.488" y1="90.9135" x2="247.066" y2="365.727" gradientUnits="userSpaceOnUse">
<stop stop-color="#94BFDD"/>
<stop offset="0.4729" stop-color="#94BFDD"/>
<stop offset="1" stop-color="#7195BA"/>
</linearGradient>
<linearGradient id="paint8_linear_366_8407" x1="356.978" y1="596.171" x2="304.531" y2="434.131" gradientUnits="userSpaceOnUse">
<stop stop-color="#4D575D"/>
<stop offset="0.4835" stop-color="#98A2AE"/>
<stop offset="0.8516" stop-color="#D4DDE8"/>
</linearGradient>
<linearGradient id="paint9_linear_366_8407" x1="395.542" y1="452.194" x2="-47.9227" y2="199.88" gradientUnits="userSpaceOnUse">
<stop stop-color="#4D575D"/>
<stop offset="0.4835" stop-color="#98A2AE"/>
<stop offset="0.8516" stop-color="#D4DDE8"/>
</linearGradient>
<linearGradient id="paint10_linear_366_8407" x1="324.029" y1="258.261" x2="-364.679" y2="299.377" gradientUnits="userSpaceOnUse">
<stop stop-color="#4D575D"/>
<stop offset="0.4835" stop-color="#98A2AE"/>
<stop offset="0.8516" stop-color="#D4DDE8"/>
</linearGradient>
<linearGradient id="paint11_linear_366_8407" x1="352.117" y1="483.904" x2="271.903" y2="236.074" gradientUnits="userSpaceOnUse">
<stop stop-color="#4D575D"/>
<stop offset="0.4835" stop-color="#98A2AE"/>
<stop offset="0.8516" stop-color="#D4DDE8"/>
</linearGradient>
<linearGradient id="paint12_linear_366_8407" x1="313.904" y1="441.477" x2="206.115" y2="108.453" gradientUnits="userSpaceOnUse">
<stop offset="0.1593" stop-color="#18CFAE"/>
<stop offset="0.4015" stop-color="#63D5C5"/>
<stop offset="0.6196" stop-color="#A0D9D8"/>
<stop offset="0.7789" stop-color="#C6DCE4"/>
<stop offset="0.8626" stop-color="#D4DDE8"/>
</linearGradient>
<linearGradient id="paint13_linear_366_8407" x1="314.923" y1="444.62" x2="205.091" y2="105.282" gradientUnits="userSpaceOnUse">
<stop offset="0.1593" stop-color="#18CFAE"/>
<stop offset="0.4015" stop-color="#63D5C5"/>
<stop offset="0.6196" stop-color="#A0D9D8"/>
<stop offset="0.7789" stop-color="#C6DCE4"/>
<stop offset="0.8626" stop-color="#D4DDE8"/>
</linearGradient>
<linearGradient id="paint14_linear_366_8407" x1="322.398" y1="451.312" x2="66.1757" y2="451.295" gradientUnits="userSpaceOnUse">
<stop stop-color="#21A497"/>
<stop offset="1" stop-color="#107A6A"/>
</linearGradient>
</defs>
</svg>