<svg xmlns="http://www.w3.org/2000/svg" width="1920" height="2160" viewBox="0 0 1920 2160" fill="none">
<rect y="1220" width="1921" height="436" fill="#003B36"/>
<path fill-rule="evenodd" clip-rule="evenodd" d="M-69 931.5L-31.9521 857H63.9521L101 931.5L63.9521 1006H-31.9521L-69 931.5Z" stroke="#21A497" stroke-opacity="0.176471" stroke-width="1.33333" stroke-miterlimit="800"/>
<path fill-rule="evenodd" clip-rule="evenodd" d="M-69 1079.5L-31.9521 1005H63.9521L101 1079.5L63.9521 1154H-31.9521L-69 1079.5Z" stroke="#21A497" stroke-opacity="0.176471" stroke-width="1.33333" stroke-miterlimit="800"/>
<path fill-rule="evenodd" clip-rule="evenodd" d="M-69 1523L-31.9521 1449H63.9521L101 1523L63.9521 1597H-31.9521L-69 1523Z" stroke="#21A497" stroke-opacity="0.176471" stroke-width="1.33333" stroke-miterlimit="800"/>
<path fill-rule="evenodd" clip-rule="evenodd" d="M64 1005L101.048 931H196.952L234 1005L196.952 1079H101.048L64 1005Z" stroke="#21A497" stroke-opacity="0.176471" stroke-width="1.33333" stroke-miterlimit="800"/>
<path fill-rule="evenodd" clip-rule="evenodd" d="M64 1153L101.048 1079H196.952L234 1153L196.952 1227H101.048L64 1153Z" stroke="#21A497" stroke-opacity="0.176471" stroke-width="1.33333" stroke-miterlimit="800"/>
<path fill-rule="evenodd" clip-rule="evenodd" d="M64 1301L101.048 1227H196.952L234 1301L196.952 1375H101.048L64 1301Z" stroke="#21A497" stroke-opacity="0.176471" stroke-width="1.33333" stroke-miterlimit="800"/>
<path fill-rule="evenodd" clip-rule="evenodd" d="M64 1449L101.048 1375H196.952L234 1449L196.952 1523H101.048L64 1449Z" stroke="#21A497" stroke-opacity="0.176471" stroke-width="1.33333" stroke-miterlimit="800"/>
<path fill-rule="evenodd" clip-rule="evenodd" d="M64 1597L101.048 1523H196.952L234 1597L196.952 1671H101.048L64 1597Z" stroke="#21A497" stroke-opacity="0.176471" stroke-width="1.33333" stroke-miterlimit="800"/>
<path fill-rule="evenodd" clip-rule="evenodd" d="M197 932L234.048 858H329.952L367 932L329.952 1006H234.048L197 932Z" stroke="#21A497" stroke-opacity="0.176471" stroke-width="1.33333" stroke-miterlimit="800"/>
<path fill-rule="evenodd" clip-rule="evenodd" d="M197 1080L234.048 1006H329.952L367 1080L329.952 1154H234.048L197 1080Z" stroke="#21A497" stroke-opacity="0.176471" stroke-width="1.33333" stroke-miterlimit="800"/>
<path fill-rule="evenodd" clip-rule="evenodd" d="M197 1228L234.048 1154H329.952L367 1228L329.952 1302H234.048L197 1228Z" stroke="#21A497" stroke-opacity="0.176471" stroke-width="1.33333" stroke-miterlimit="800"/>
<path fill-rule="evenodd" clip-rule="evenodd" d="M197 1376L234.048 1302H329.952L367 1376L329.952 1450H234.048L197 1376Z" stroke="#21A497" stroke-opacity="0.176471" stroke-width="1.33333" stroke-miterlimit="800"/>
<path fill-rule="evenodd" clip-rule="evenodd" d="M197 1524L234.048 1450H329.952L367 1524L329.952 1598H234.048L197 1524Z" stroke="#21A497" stroke-opacity="0.176471" stroke-width="1.33333" stroke-miterlimit="800"/>
<path fill-rule="evenodd" clip-rule="evenodd" d="M330 1006L367.048 932H462.952L500 1006L462.952 1080H367.048L330 1006Z" stroke="#21A497" stroke-opacity="0.176471" stroke-width="1.33333" stroke-miterlimit="800"/>
<path fill-rule="evenodd" clip-rule="evenodd" d="M330 1154L367.048 1080H462.952L500 1154L462.952 1228H367.048L330 1154Z" stroke="#21A497" stroke-opacity="0.176471" stroke-width="1.33333" stroke-miterlimit="800"/>
<path fill-rule="evenodd" clip-rule="evenodd" d="M330 1450L367.048 1376H462.952L500 1450L462.952 1524H367.048L330 1450Z" stroke="#21A497" stroke-opacity="0.176471" stroke-width="1.33333" stroke-miterlimit="800"/>
<g clip-path="url(#clip0_186_9451)">
<path opacity="0.12" d="M185.924 712.5L192.736 717.132L195.906 712.471L192.71 707.829L185.924 712.5ZM25.38 479.296V471.058H9.70716L18.5944 483.967L25.38 479.296ZM176.928 479.296L184.105 475.251L181.741 471.058H176.928V479.296ZM262.736 631.536L255.559 635.581L262.824 648.47L269.954 635.506L262.736 631.536ZM346.468 479.296V471.058H341.597L339.25 475.326L346.468 479.296ZM491.096 479.296L497.929 483.898L506.578 471.058H491.096V479.296ZM334.012 712.5L327.179 707.898L324.083 712.495L327.174 717.095L334.012 712.5ZM508.396 972V980.238H523.857L515.234 967.405L508.396 972ZM352.004 972L344.864 976.11L347.241 980.238H352.004V972ZM257.2 807.304L264.34 803.194L257.352 791.055L250.139 803.061L257.2 807.304ZM158.244 972V980.238H162.905L165.305 976.243L158.244 972ZM9.464 972L2.6517 967.368L-6.10021 980.238H9.464V972ZM192.71 707.829L32.1656 474.625L18.5944 483.967L179.138 717.171L192.71 707.829ZM25.38 487.534H176.928V471.058H25.38V487.534ZM169.751 483.341L255.559 635.581L269.913 627.491L184.105 475.251L169.751 483.341ZM269.954 635.506L353.686 483.266L339.25 475.326L255.518 627.566L269.954 635.506ZM346.468 487.534H491.096V471.058H346.468V487.534ZM484.263 474.694L327.179 707.898L340.845 717.102L497.929 483.898L484.263 474.694ZM327.174 717.095L501.558 976.595L515.234 967.405L340.85 707.905L327.174 717.095ZM508.396 963.762H352.004V980.238H508.396V963.762ZM359.144 967.89L264.34 803.194L250.06 811.414L344.864 976.11L359.144 967.89ZM250.139 803.061L151.183 967.757L165.305 976.243L264.262 811.547L250.139 803.061ZM158.244 963.762H9.464V980.238H158.244V963.762ZM16.2763 976.632L192.736 717.132L179.112 707.868L2.6517 967.368L16.2763 976.632ZM814.33 489.676H822.568V481.438H814.33V489.676ZM814.33 972V980.238H822.568V972H814.33ZM690.462 972H682.224V980.238H690.462V972ZM690.462 677.208H698.7V668.97H690.462V677.208ZM574.898 677.208H566.66V685.446H574.898V677.208ZM574.898 590.708L574.624 582.474L566.66 582.74V590.708H574.898ZM673.162 567.18L677.381 574.256L677.401 574.244L677.42 574.232L673.162 567.18ZM716.758 489.676V481.438H709.486L708.584 488.654L716.758 489.676ZM806.092 489.676V972H822.568V489.676H806.092ZM814.33 963.762H690.462V980.238H814.33V963.762ZM698.7 972V677.208H682.224V972H698.7ZM690.462 668.97H574.898V685.446H690.462V668.97ZM583.136 677.208V590.708H566.66V677.208H583.136ZM575.173 598.942C617.457 597.532 651.753 589.534 677.381 574.256L668.944 560.104C646.593 573.428 615.38 581.116 574.624 582.474L575.173 598.942ZM677.42 574.232C704.652 557.791 720.109 529.288 724.933 490.698L708.584 488.654C704.181 523.877 690.574 547.044 668.904 560.128L677.42 574.232ZM716.758 497.914H814.33V481.438H716.758V497.914ZM1250.21 489.676H1258.45V481.438H1250.21V489.676ZM1250.21 972V980.238H1258.45V972H1250.21ZM1126.34 972H1118.1V980.238H1126.34V972ZM1126.34 677.208H1134.58V668.97H1126.34V677.208ZM1010.78 677.208H1002.54V685.446H1010.78V677.208ZM1010.78 590.708L1010.5 582.474L1002.54 582.74V590.708H1010.78ZM1109.04 567.18L1113.26 574.256L1113.28 574.244L1113.3 574.232L1109.04 567.18ZM1152.64 489.676V481.438H1145.36L1144.46 488.654L1152.64 489.676ZM1241.97 489.676V972H1258.45V489.676H1241.97ZM1250.21 963.762H1126.34V980.238H1250.21V963.762ZM1134.58 972V677.208H1118.1V972H1134.58ZM1126.34 668.97H1010.78V685.446H1126.34V668.97ZM1019.02 677.208V590.708H1002.54V677.208H1019.02ZM1011.05 598.942C1053.34 597.532 1087.63 589.534 1113.26 574.256L1104.82 560.104C1082.47 573.428 1051.26 581.116 1010.5 582.474L1011.05 598.942ZM1113.3 574.232C1140.53 557.791 1155.99 529.288 1160.81 490.698L1144.46 488.654C1140.06 523.877 1126.45 547.044 1104.78 560.128L1113.3 574.232ZM1152.64 497.914H1250.21V481.438H1152.64V497.914Z" fill="#1A6FB0"/>
<path fill-rule="evenodd" clip-rule="evenodd" d="M1 70H591.164L1 660.164V70Z" fill="url(#paint0_linear_186_9451)"/>
<path fill-rule="evenodd" clip-rule="evenodd" d="M425.504 674.116L1033.24 70H1215.15L607.412 674.116H425.504Z" fill="#176969" fill-opacity="0.0666667"/>
<path fill-rule="evenodd" clip-rule="evenodd" d="M1921 359.894H711.069L1067.27 1072.3H1921V359.894Z" fill="url(#paint1_linear_186_9451)"/>
<path fill-rule="evenodd" clip-rule="evenodd" d="M1 145.086H624.319H854.728H1478.05L1834.25 857.494H1524.6H1210.93H624.319H1V351.281L1 145.086Z" fill="url(#paint2_linear_186_9451)"/>
<path fill-rule="evenodd" clip-rule="evenodd" d="M1 351.281H417.763H648.172H1255.89L1509 857.494H1210.93H624.319H1L1 351.281Z" fill="url(#paint3_linear_186_9451)"/>


















<path fill-rule="evenodd" clip-rule="evenodd" d="M1994 74L1956.95 0H1861.05L1824 74L1861.05 148H1956.95L1994 74Z" stroke="#21A497" stroke-opacity="0.176471" stroke-width="1.33333" stroke-miterlimit="800"/>
<path fill-rule="evenodd" clip-rule="evenodd" d="M1994 222L1956.95 148H1861.05L1824 222L1861.05 296H1956.95L1994 222Z" stroke="#21A497" stroke-opacity="0.176471" stroke-width="1.33333" stroke-miterlimit="800"/>
<path fill-rule="evenodd" clip-rule="evenodd" d="M1994 370L1956.95 296H1861.05L1824 370L1861.05 444H1956.95L1994 370Z" stroke="#21A497" stroke-opacity="0.176471" stroke-width="1.33333" stroke-miterlimit="800"/>
<path fill-rule="evenodd" clip-rule="evenodd" d="M1994 518L1956.95 444H1861.05L1824 518L1861.05 592H1956.95L1994 518Z" stroke="#21A497" stroke-opacity="0.176471" stroke-width="1.33333" stroke-miterlimit="800"/>
<path fill-rule="evenodd" clip-rule="evenodd" d="M1994 666L1956.95 592H1861.05L1824 666L1861.05 740H1956.95L1994 666Z" stroke="#21A497" stroke-opacity="0.176471" stroke-width="1.33333" stroke-miterlimit="800"/>
<path fill-rule="evenodd" clip-rule="evenodd" d="M1861 1L1823.95 -73H1728.05L1691 1L1728.05 75H1823.95L1861 1Z" stroke="#21A497" stroke-opacity="0.176471" stroke-width="1.33333" stroke-miterlimit="800"/>
<path fill-rule="evenodd" clip-rule="evenodd" d="M1861 149L1823.95 75H1728.05L1691 149L1728.05 223H1823.95L1861 149Z" stroke="#21A497" stroke-opacity="0.176471" stroke-width="1.33333" stroke-miterlimit="800"/>
<path fill-rule="evenodd" clip-rule="evenodd" d="M1861 297L1823.95 223H1728.05L1691 297L1728.05 371H1823.95L1861 297Z" stroke="#21A497" stroke-opacity="0.176471" stroke-width="1.33333" stroke-miterlimit="800"/>
<path fill-rule="evenodd" clip-rule="evenodd" d="M1861 445L1823.95 371H1728.05L1691 445L1728.05 519H1823.95L1861 445Z" stroke="#21A497" stroke-opacity="0.176471" stroke-width="1.33333" stroke-miterlimit="800"/>
<path fill-rule="evenodd" clip-rule="evenodd" d="M1861 593L1823.95 519H1728.05L1691 593L1728.05 667H1823.95L1861 593Z" stroke="#21A497" stroke-opacity="0.176471" stroke-width="1.33333" stroke-miterlimit="800"/>
<path fill-rule="evenodd" clip-rule="evenodd" d="M1728 75L1690.95 1H1595.05L1558 75L1595.05 149H1690.95L1728 75Z" stroke="#21A497" stroke-opacity="0.176471" stroke-width="1.33333" stroke-miterlimit="800"/>
<path fill-rule="evenodd" clip-rule="evenodd" d="M1728 223L1690.95 149H1595.05L1558 223L1595.05 297H1690.95L1728 223Z" stroke="#21A497" stroke-opacity="0.176471" stroke-width="1.33333" stroke-miterlimit="800"/>
<path fill-rule="evenodd" clip-rule="evenodd" d="M1728 519L1690.95 445H1595.05L1558 519L1595.05 593H1690.95L1728 519Z" stroke="#21A497" stroke-opacity="0.176471" stroke-width="1.33333" stroke-miterlimit="800"/>
<path fill-rule="evenodd" clip-rule="evenodd" d="M0 1652.93H1164.89L1194.88 1589.34L1919 1589.34V2160.34H0V1652.93Z" fill="url(#paint4_linear_186_9451)"/>


<g opacity="0.75">
<path opacity="0.33" d="M1851.2 1584.92L1172.42 1769.33L1172 1751.61L1851.42 1570.78L1851.2 1584.92Z" fill="#7195BA"/>
<g opacity="0.75">
<path opacity="0.6" d="M1356.83 1898.04L2066 1687.04L1851.42 1570.78L1172 1751.61L1356.83 1898.04Z" fill="#D4DDE8"/>
<path opacity="0.36" d="M1357.26 1917.24L1356.83 1898.04L1172 1751.61L1172.42 1769.33L1357.26 1917.24Z" fill="#092D66"/>
</g>
</g>
<path opacity="0.36" d="M2065.79 1702.02L1357.26 1917.24L1356.83 1898.04L2066 1687.04L2065.79 1702.02Z" fill="#7195BA"/>
<path opacity="0.1" d="M1803.94 1582.6L1711.31 1606.02L1872.73 1718.9L1960.29 1693.58L1803.94 1582.6Z" fill="#092D66"/>
<g opacity="0.9">
<path opacity="0.9" d="M1770.6 1591.46V1441.86L1809 1434.05V1581.96L1770.6 1591.46Z" fill="url(#paint5_linear_186_9451)"/>
<path opacity="0.9" d="M1769.55 1441.02L1810.06 1433V1583.02L1770.81 1592.73L1769.55 1593.15V1441.02ZM1771.66 1591.46H1770.6H1771.66ZM1771.66 1442.71V1590.19L1807.95 1581.12V1435.32L1771.66 1442.71Z" fill="#D4DDE8"/>
</g>
<path opacity="0.8" d="M1970.42 1691.47L1929.91 1702.87L1770.6 1591.46V1441.86L1929.91 1535.97V1702.87L1770.6 1591.46L1970.42 1691.47Z" fill="url(#paint6_linear_186_9451)"/>
<path opacity="0.8" d="M1970.42 1526.26L1929.91 1535.97L1770.6 1441.86L1808.37 1433.42L1970.42 1526.26Z" fill="url(#paint7_linear_186_9451)"/>
<path d="M1809 1581.97L1970.42 1691.47L1929.91 1702.87L1770.6 1591.46L1809 1581.97Z" fill="url(#paint8_linear_186_9451)"/>
<path d="M1768.07 1591.04L1808.79 1580.91L1809.21 1580.7L1972.74 1691.68L1929.69 1703.92L1768.07 1591.04ZM1773.13 1592.09L1930.12 1701.81L1967.89 1691.05L1808.79 1583.23L1773.13 1592.09Z" fill="#D4DDE8"/>
<g opacity="0.9">
<path opacity="0.9" d="M1607.08 1660.88V1482.37L1645.48 1474.57V1651.17L1607.08 1660.88Z" fill="url(#paint9_linear_186_9451)"/>
<path opacity="0.9" d="M1606.02 1481.53L1646.54 1473.51V1652.02L1607.29 1661.72L1606.02 1662.14V1481.53ZM1608.13 1660.88H1607.08H1608.13ZM1608.13 1483.22V1659.61L1644.43 1650.54V1476.04L1608.13 1483.22Z" fill="#D4DDE8"/>
</g>
<g opacity="0.9">
<path opacity="0.9" d="M1806.68 1766.38L1766.38 1777.98L1607.08 1660.88V1482.37L1766.38 1576.48V1777.98L1607.08 1660.88L1806.68 1766.38Z" fill="url(#paint10_linear_186_9451)"/>
<path opacity="0.9" d="M1606.45 1661.72L1606.02 1661.3V1480.47L1767.44 1575.85V1776.51L1806.47 1765.32L1807.1 1767.43L1767.65 1778.83V1780.09L1606.45 1661.72ZM1608.13 1660.25L1765.33 1775.87V1576.9L1608.13 1484.06V1660.25Z" fill="#D4DDE8"/>
</g>
<g opacity="0.9">
<path opacity="0.9" d="M1806.68 1566.77L1766.38 1576.48L1607.08 1482.37L1644.85 1473.93L1806.68 1566.77Z" fill="url(#paint11_linear_186_9451)"/>
<path opacity="0.9" d="M1604.12 1481.95L1644.85 1472.88L1807.1 1565.93L1806.68 1566.77L1807.1 1565.93L1809.43 1567.19L1766.17 1577.53L1604.12 1481.95ZM1609.82 1482.8L1766.38 1575.21L1803.73 1566.35L1644.43 1474.99L1609.82 1482.8Z" fill="#D4DDE8"/>
</g>
<g opacity="0.9">
<path opacity="0.9" d="M1645.48 1651.17L1806.68 1766.38L1766.38 1777.98L1607.08 1660.88L1645.48 1651.17Z" fill="url(#paint12_linear_186_9451)"/>
<path opacity="0.9" d="M1604.55 1660.46L1645.06 1650.33L1645.48 1650.12L1809 1766.8L1766.17 1779.04L1604.55 1660.46ZM1609.4 1661.3L1766.59 1776.72L1804.36 1765.96L1645.27 1652.23L1609.4 1661.3Z" fill="#D4DDE8"/>
</g>
<g opacity="0.9">
<path opacity="0.9" d="M1766.38 1777.98V1576.48L1806.68 1566.77V1766.38L1766.38 1777.98Z" fill="url(#paint13_linear_186_9451)"/>
<path opacity="0.9" d="M1765.33 1575.63L1807.74 1565.51V1767.22L1766.59 1779.04L1765.33 1779.46V1575.63ZM1767.44 1777.98H1766.38H1767.44ZM1767.44 1577.11V1776.5L1805.63 1765.53V1568.04L1767.44 1577.11Z" fill="#D4DDE8"/>
</g>
<path opacity="0.1" d="M1638.52 1649.91L1559.39 1673.12L1724.6 1788.53L1802.04 1767.01L1638.52 1649.91Z" fill="#092D66"/>
<path opacity="0.7" d="M1424.14 1683.46V1479.42L1461.91 1471.82V1673.96L1424.14 1683.46Z" fill="url(#paint14_linear_186_9451)"/>
<g opacity="0.9">
<path opacity="0.9" d="M1635.98 1788.53L1596.11 1799.93L1424.14 1683.46V1479.42L1596.11 1572.89V1799.93L1424.14 1683.46L1635.98 1788.53Z" fill="url(#paint15_linear_186_9451)"/>
<path opacity="0.9" d="M1595.68 1800.77L1423.51 1684.51C1423.3 1684.51 1423.3 1684.3 1423.3 1684.3V1480.26C1423.3 1479.84 1423.51 1479.63 1423.72 1479.42C1423.93 1479.21 1424.35 1479.21 1424.78 1479.42L1596.95 1572.89C1597.37 1573.1 1597.58 1573.52 1597.58 1573.74V1799.29L1635.98 1788.32C1636.62 1788.11 1637.04 1788.53 1637.25 1788.95C1637.46 1789.59 1637.04 1790.01 1636.62 1790.22L1596.95 1801.61C1596.74 1801.61 1596.74 1801.61 1596.53 1801.61C1595.89 1800.98 1595.68 1800.77 1595.68 1800.77ZM1595.05 1797.82V1573.52L1425.2 1481.11V1682.82L1595.05 1797.82Z" fill="#D4DDE8"/>
</g>
<path d="M1635.98 1563.4L1596.11 1572.89L1424.14 1479.42L1461.28 1471.19L1635.98 1563.4Z" fill="url(#paint16_linear_186_9451)"/>
<path d="M1595.68 1573.74L1423.51 1480.26C1423.09 1480.05 1422.88 1479.63 1422.88 1479.21C1422.88 1478.79 1423.3 1478.36 1423.72 1478.36L1460.86 1470.14C1461.07 1470.14 1461.28 1470.14 1461.49 1470.14L1636.2 1562.34L1635.77 1563.19L1636.2 1562.34C1636.62 1562.55 1636.83 1562.98 1636.83 1563.4C1636.83 1563.82 1636.41 1564.24 1635.98 1564.24L1596.32 1573.74H1596.11C1595.9 1573.95 1595.9 1573.95 1595.68 1573.74ZM1427.1 1479.84L1596.32 1571.84L1632.82 1562.98L1461.07 1472.25L1427.1 1479.84Z" fill="#D4DDE8"/>
<g opacity="0.5">
<path opacity="0.5" d="M1461.91 1673.96L1635.98 1788.53L1596.11 1799.93L1424.14 1683.46L1461.91 1673.96Z" fill="url(#paint17_linear_186_9451)"/>
<path opacity="0.5" d="M1595.68 1800.77L1423.51 1684.51C1423.09 1684.3 1423.09 1683.88 1423.09 1683.46C1423.09 1683.03 1423.51 1682.61 1423.93 1682.61L1461.7 1673.12C1461.91 1673.12 1462.33 1673.12 1462.54 1673.33L1636.62 1787.69C1637.04 1787.9 1637.04 1788.32 1637.04 1788.74C1637.04 1789.17 1636.62 1789.38 1636.2 1789.59L1596.53 1800.98H1596.32C1595.9 1800.98 1595.68 1800.77 1595.68 1800.77ZM1426.67 1683.88L1596.53 1798.66L1633.66 1787.9L1461.91 1675.02L1426.67 1683.88Z" fill="#D4DDE8"/>
</g>
<g opacity="0.9">
<path opacity="0.9" d="M1596.11 1799.93V1572.89L1635.99 1563.4V1788.53L1596.11 1799.93Z" fill="url(#paint18_linear_186_9451)"/>
<path opacity="0.9" d="M1595.47 1800.77C1595.26 1800.56 1595.05 1800.35 1595.05 1799.93V1572.89C1595.05 1572.47 1595.47 1572.05 1595.9 1571.84L1635.56 1562.34C1635.77 1562.34 1636.2 1562.34 1636.41 1562.55C1636.62 1562.76 1636.83 1562.98 1636.83 1563.4V1788.53C1636.83 1788.95 1636.62 1789.38 1635.98 1789.59L1596.32 1800.98H1596.11C1595.9 1800.98 1595.68 1800.77 1595.47 1800.77ZM1597.16 1799.93H1596.11H1597.16ZM1597.16 1573.74V1798.45L1634.72 1787.69V1564.66L1597.16 1573.74Z" fill="#D4DDE8"/>
</g>
<path opacity="0.1" d="M1461.7 1675.23L1384.69 1696.33L1549.9 1811.74L1632.61 1787.06L1461.7 1675.23Z" fill="#092D66"/>
<path opacity="0.1" d="M1324.55 1747.6L1242.47 1772.92L1387.43 1888.33L1477.53 1861.54L1324.55 1747.6Z" fill="#092D66"/>
<g opacity="0.9">
<path opacity="0.9" d="M1289.53 1758.99V1662.99L1327.93 1655.18V1749.29L1289.53 1758.99Z" fill="url(#paint19_linear_186_9451)"/>
<path opacity="0.9" d="M1288.47 1662.14L1328.98 1654.13V1750.34L1289.74 1760.05L1288.47 1760.47V1662.14ZM1290.58 1758.99H1289.53H1290.58ZM1290.58 1663.83V1757.52L1326.87 1748.44V1656.45L1290.58 1663.83Z" fill="#D4DDE8"/>
</g>
<g opacity="0.9">
<path opacity="0.9" d="M1479 1749.29L1438.7 1758.99L1289.53 1662.99L1327.3 1654.55L1479 1749.29Z" fill="url(#paint20_linear_186_9451)"/>
<path opacity="0.9" d="M1286.78 1662.57L1327.51 1653.7L1479.64 1748.65L1479 1749.5L1479.64 1748.65L1481.75 1749.92L1438.49 1760.26L1286.78 1662.57ZM1292.27 1663.41L1438.91 1757.73L1476.26 1748.86L1327.08 1655.81L1292.27 1663.41Z" fill="#D4DDE8"/>
</g>
<g opacity="0.7">
<path opacity="0.7" d="M1327.93 1749.29L1479 1862.59L1438.7 1874.2L1289.53 1758.99L1327.93 1749.29Z" fill="url(#paint21_linear_186_9451)"/>
<path opacity="0.7" d="M1287.21 1758.36L1327.72 1748.23L1328.14 1748.02L1481.32 1863.01L1438.49 1875.25L1287.21 1758.36ZM1291.85 1759.41L1438.91 1872.93L1476.68 1862.17L1327.72 1750.55L1291.85 1759.41Z" fill="#D4DDE8"/>
</g>
<g opacity="0.9">
<path opacity="0.9" d="M1479 1862.59L1438.7 1874.2L1289.53 1758.99V1662.99L1438.7 1758.99V1874.2L1289.53 1758.99L1479 1862.59Z" fill="url(#paint22_linear_186_9451)"/>
<path opacity="0.9" d="M1438.49 1875.25L1420.35 1861.33L1288.89 1759.84L1288.47 1759.41V1660.88L1439.76 1758.15V1872.51L1478.79 1861.33L1479.42 1863.44L1439.97 1874.83V1876.1L1438.49 1875.25ZM1437.65 1871.88V1759.41L1290.58 1664.89V1758.36L1375.19 1823.56L1437.65 1871.88Z" fill="#D4DDE8"/>
</g>
<g opacity="0.9">
<path opacity="0.9" d="M1438.7 1874.2V1758.99L1479 1749.29V1862.59L1438.7 1874.2Z" fill="url(#paint23_linear_186_9451)"/>
<path opacity="0.9" d="M1437.65 1758.15L1480.06 1748.02V1863.44L1438.91 1875.25L1437.65 1875.67V1758.15ZM1439.76 1874.2H1438.7H1439.76ZM1439.76 1759.84V1872.72L1477.95 1861.75V1750.55L1439.76 1759.84Z" fill="#D4DDE8"/>
</g>
<g opacity="0.67">
<path opacity="0.67" d="M1350.5 1737.89L1351.14 1715.32L1355.78 1718.48C1357.05 1719.54 1358.31 1720.8 1359.37 1722.28C1360.42 1723.97 1361.27 1725.65 1361.69 1727.55C1362.32 1729.45 1362.53 1731.56 1362.53 1733.46V1735.57C1362.53 1737.68 1362.11 1739.16 1361.48 1740.21C1360.84 1741.27 1360 1741.9 1358.94 1742.11C1357.89 1742.11 1356.62 1741.69 1355.15 1740.85L1350.5 1737.89ZM1352.4 1717.85L1351.77 1737.05L1354.94 1739.16C1356.62 1740.42 1358.1 1740.64 1359.16 1739.79C1360.21 1738.95 1360.84 1737.26 1360.84 1734.52V1732.62C1360.84 1730.09 1360.42 1727.55 1359.37 1725.23C1358.31 1722.91 1357.05 1721.22 1355.36 1719.96L1352.4 1717.85Z" fill="white"/>
<path opacity="0.67" d="M1374.56 1748.44L1366.96 1743.17L1365.06 1748.23L1363.59 1747.18L1370.55 1729.03L1371.82 1729.88L1377.51 1756.67L1376.04 1755.62L1374.56 1748.44ZM1367.6 1741.69L1374.14 1746.33L1371.18 1731.77L1367.6 1741.69Z" fill="white"/>
<path opacity="0.67" d="M1390.38 1744.65L1384.69 1740.64L1384.05 1761.52L1382.58 1760.47L1383.21 1739.58L1377.51 1735.57V1733.88L1390.17 1742.75L1390.38 1744.65Z" fill="white"/>
<path opacity="0.67" d="M1400.72 1766.59L1393.13 1761.31L1391.23 1766.38L1389.75 1765.32L1396.71 1747.18L1397.98 1748.02L1403.68 1774.82L1402.2 1773.76L1400.72 1766.59ZM1393.55 1760.05L1400.09 1764.69L1397.14 1750.13L1393.55 1760.05Z" fill="white"/>
<path opacity="0.67" d="M1415.91 1774.18C1415.91 1777.35 1415.28 1779.46 1414.44 1780.51C1413.59 1781.57 1412.33 1781.57 1410.64 1780.3C1408.95 1779.25 1407.69 1777.56 1406.84 1775.24C1406 1772.92 1405.58 1770.39 1405.79 1767.22L1406 1763.21C1406 1760.05 1406.63 1757.94 1407.47 1756.88C1408.32 1755.83 1409.58 1756.04 1411.27 1757.09C1412.96 1758.15 1414.23 1759.84 1414.86 1762.16C1415.7 1764.27 1416.13 1767.01 1415.91 1769.96V1774.18ZM1414.65 1769.33C1414.65 1766.8 1414.44 1764.69 1413.8 1762.79C1413.17 1761.1 1412.33 1759.63 1411.06 1758.78C1409.8 1757.94 1408.95 1757.94 1408.32 1758.78C1407.69 1759.63 1407.26 1761.31 1407.26 1763.85L1407.05 1768.28C1407.05 1770.81 1407.26 1773.13 1407.9 1774.82C1408.53 1776.72 1409.37 1777.98 1410.64 1778.83C1411.91 1779.67 1412.75 1779.67 1413.38 1778.83C1414.02 1777.98 1414.44 1776.29 1414.44 1773.55L1414.65 1769.33Z" fill="white"/>
<path opacity="0.67" d="M1424.78 1790.01L1423.51 1788.95L1424.14 1768.7L1419.5 1767.85V1766.17L1425.2 1767.22L1425.41 1767.43L1424.78 1790.01Z" fill="white"/>
</g>
<g opacity="0.67">
<path opacity="0.67" d="M1504.53 1557.49L1505.17 1535.12L1509.81 1538.08C1511.29 1538.92 1512.34 1540.19 1513.4 1541.66C1514.45 1543.14 1515.29 1544.83 1515.93 1546.94C1516.56 1548.84 1516.77 1550.74 1516.77 1552.85V1554.96C1516.77 1556.86 1516.35 1558.54 1515.72 1559.6C1515.08 1560.65 1514.24 1561.5 1512.97 1561.5C1511.71 1561.5 1510.65 1561.29 1509.18 1560.44L1504.53 1557.49ZM1506.43 1537.66L1506.01 1556.64L1509.18 1558.75C1510.86 1559.81 1512.34 1560.02 1513.4 1559.18C1514.45 1558.33 1515.08 1556.43 1515.08 1553.9V1552C1515.08 1549.47 1514.66 1547.15 1513.61 1544.83C1512.55 1542.72 1511.29 1541.03 1509.6 1539.98L1506.43 1537.66Z" fill="white"/>
<path opacity="0.67" d="M1528.8 1566.56L1521.2 1561.71L1519.3 1566.77L1517.83 1565.93L1524.79 1547.57L1526.06 1548.42L1531.75 1574.79L1530.28 1573.95L1528.8 1566.56ZM1521.84 1560.44L1528.59 1564.66L1525.63 1550.31L1521.84 1560.44Z" fill="white"/>
<path opacity="0.67" d="M1544.83 1561.92L1539.14 1558.33L1538.5 1579.01L1537.03 1578.17L1537.66 1557.49L1531.96 1553.9V1552.21L1544.83 1560.44V1561.92Z" fill="white"/>
<path opacity="0.67" d="M1555.38 1583.23L1547.79 1578.38L1545.89 1583.44L1544.41 1582.6L1551.38 1564.24L1552.64 1565.08L1558.34 1591.46L1556.86 1590.62L1555.38 1583.23ZM1548.21 1577.11L1554.96 1581.33L1552.01 1566.98L1548.21 1577.11Z" fill="white"/>
<path opacity="0.67" d="M1570.58 1589.77C1570.58 1592.94 1569.94 1595.05 1569.1 1596.1C1568.25 1597.16 1566.99 1597.16 1565.3 1596.1C1563.61 1595.05 1562.35 1593.36 1561.5 1591.25C1560.66 1589.14 1560.24 1586.4 1560.24 1583.44L1560.45 1579.43C1560.45 1576.27 1561.08 1574.16 1561.92 1573.1C1562.77 1572.05 1564.25 1572.05 1565.72 1573.1C1567.41 1574.16 1568.68 1575.63 1569.52 1577.74C1570.36 1579.85 1570.79 1582.39 1570.79 1585.55L1570.58 1589.77ZM1569.31 1584.92C1569.31 1582.39 1569.1 1580.28 1568.47 1578.59C1567.83 1576.9 1566.99 1575.63 1565.72 1574.79C1564.46 1573.95 1563.61 1573.95 1562.77 1575C1562.14 1575.85 1561.71 1577.53 1561.71 1580.07L1561.5 1584.5C1561.5 1587.03 1561.71 1589.14 1562.35 1591.04C1562.98 1592.73 1563.82 1593.99 1565.09 1594.84C1566.36 1595.68 1567.2 1595.47 1567.83 1594.62C1568.47 1593.78 1568.89 1591.88 1568.89 1589.35L1569.31 1584.92Z" fill="white"/>
<path opacity="0.67" d="M1583.87 1607.5L1573.32 1600.95V1599.48L1579.23 1594.41C1580.28 1593.57 1580.92 1592.73 1581.34 1592.09C1581.76 1591.46 1581.97 1590.62 1581.97 1589.77C1581.97 1588.29 1581.76 1587.03 1581.13 1585.76C1580.49 1584.5 1579.65 1583.65 1578.59 1582.81C1577.54 1582.18 1576.48 1581.96 1575.85 1582.6C1575.22 1583.23 1574.8 1584.07 1574.8 1585.76L1573.53 1584.92C1573.53 1583.65 1573.74 1582.6 1574.16 1581.96C1574.59 1581.12 1575.22 1580.7 1576.06 1580.7C1576.91 1580.7 1577.75 1580.91 1578.81 1581.54C1580.28 1582.6 1581.55 1583.86 1582.39 1585.34C1583.24 1587.03 1583.66 1588.72 1583.66 1590.62C1583.66 1591.67 1583.45 1592.73 1582.81 1593.57C1582.39 1594.41 1581.34 1595.47 1580.07 1596.52L1575.22 1600.53L1584.08 1606.02L1583.87 1607.5Z" fill="white"/>
</g>
<g opacity="0.67">
<path opacity="0.67" d="M1674.39 1558.54L1675.02 1536.18L1679.66 1539.13C1681.14 1539.98 1682.19 1541.24 1683.25 1542.72C1684.3 1544.2 1685.15 1545.88 1685.78 1547.99C1686.41 1549.89 1686.63 1551.79 1686.63 1553.9V1556.01C1686.63 1557.91 1686.2 1559.6 1685.57 1560.65C1684.94 1561.71 1684.09 1562.55 1682.83 1562.55C1681.56 1562.55 1680.51 1562.34 1679.03 1561.5L1674.39 1558.54ZM1676.29 1538.71L1675.86 1557.7L1679.03 1559.81C1680.72 1560.86 1682.19 1561.08 1683.25 1560.23C1684.3 1559.39 1684.94 1557.49 1684.94 1554.96V1553.06C1684.94 1550.53 1684.52 1548.2 1683.46 1545.88C1682.41 1543.77 1681.14 1542.09 1679.45 1541.03L1676.29 1538.71Z" fill="white"/>
<path opacity="0.67" d="M1698.65 1567.62L1691.06 1562.76L1689.16 1567.83L1687.68 1566.98L1694.64 1548.63L1695.91 1549.47L1701.61 1575.85L1700.13 1575L1698.65 1567.62ZM1691.69 1561.5L1698.44 1565.72L1695.49 1551.37L1691.69 1561.5Z" fill="white"/>
<path opacity="0.67" d="M1714.69 1562.97L1708.99 1559.39L1708.36 1580.07L1706.88 1579.22L1707.51 1558.54L1701.82 1554.96V1553.27L1714.69 1561.5V1562.97Z" fill="white"/>
<path opacity="0.67" d="M1725.24 1584.29L1717.64 1579.43L1715.74 1584.5L1714.27 1583.65L1721.23 1565.3L1722.49 1566.14L1728.19 1592.51L1726.71 1591.67L1725.24 1584.29ZM1718.06 1578.17L1724.82 1582.39L1721.86 1568.04L1718.06 1578.17Z" fill="white"/>
<path opacity="0.67" d="M1740.43 1590.83C1740.43 1593.99 1739.8 1596.1 1738.95 1597.16C1738.11 1598.21 1736.84 1598.21 1735.15 1597.16C1733.47 1596.1 1732.2 1594.41 1731.36 1592.3C1730.51 1590.19 1730.09 1587.45 1730.09 1584.5L1730.3 1580.49C1730.3 1577.32 1730.93 1575.21 1731.78 1574.16C1732.62 1573.1 1734.1 1573.1 1735.58 1574.16C1737.26 1575.21 1738.53 1576.69 1739.37 1578.8C1740.22 1580.91 1740.64 1583.44 1740.64 1586.61L1740.43 1590.83ZM1739.16 1585.97C1739.16 1583.44 1738.95 1581.33 1738.32 1579.64C1737.69 1577.96 1736.84 1576.69 1735.58 1575.85C1734.31 1575 1733.47 1575 1732.62 1576.06C1731.99 1576.9 1731.57 1578.59 1731.57 1581.12L1731.36 1585.55C1731.36 1588.08 1731.57 1590.19 1732.2 1592.09C1732.83 1593.78 1733.68 1595.05 1734.94 1595.89C1736.21 1596.73 1737.05 1596.52 1737.69 1595.68C1738.32 1594.84 1738.74 1592.94 1738.74 1590.4L1739.16 1585.97Z" fill="white"/>
<path opacity="0.67" d="M1746.55 1591.88L1748.03 1592.73C1748.87 1593.15 1749.5 1593.57 1750.14 1593.57C1750.77 1593.57 1751.19 1593.36 1751.61 1592.94C1752.03 1592.51 1752.03 1591.88 1752.03 1591.04C1752.03 1589.56 1751.82 1588.29 1751.19 1587.03C1750.56 1585.76 1749.71 1584.92 1748.66 1584.07C1747.6 1583.44 1746.76 1583.23 1745.92 1583.65C1745.28 1584.07 1744.86 1584.92 1744.86 1586.4L1743.38 1585.55C1743.38 1584.5 1743.59 1583.44 1744.23 1582.81C1744.65 1582.18 1745.28 1581.75 1746.13 1581.75C1746.97 1581.75 1747.81 1581.96 1748.66 1582.6C1750.14 1583.65 1751.4 1584.92 1752.25 1586.61C1753.09 1588.29 1753.51 1589.98 1753.51 1591.88C1753.51 1592.94 1753.3 1593.78 1752.67 1594.41C1752.03 1595.05 1751.4 1595.26 1750.56 1595.05C1751.61 1596.1 1752.46 1597.16 1752.88 1598.63C1753.3 1599.9 1753.72 1601.17 1753.51 1602.43C1753.51 1604.33 1752.88 1605.6 1752.03 1606.23C1750.98 1606.86 1749.71 1606.65 1748.24 1605.6C1747.18 1604.96 1746.34 1604.12 1745.49 1603.06C1744.65 1602.01 1744.02 1600.95 1743.59 1599.69C1743.17 1598.42 1742.96 1597.16 1742.96 1595.89L1744.44 1596.73C1744.44 1598.21 1744.65 1599.48 1745.49 1600.95C1746.13 1602.22 1747.18 1603.28 1748.24 1604.12C1749.5 1604.96 1750.35 1604.96 1750.98 1604.75C1751.61 1604.33 1752.03 1603.49 1752.03 1601.8C1752.03 1600.32 1751.82 1598.84 1750.98 1597.79C1750.35 1596.52 1749.29 1595.47 1747.81 1594.62L1746.34 1593.78L1746.55 1591.88Z" fill="white"/>
</g>
<g opacity="0.67">
<path opacity="0.67" d="M1836.86 1518.45L1837.49 1496.09L1842.13 1499.04C1843.61 1499.89 1844.66 1501.15 1845.72 1502.63C1846.77 1504.11 1847.62 1505.79 1848.25 1507.9C1848.88 1509.8 1849.09 1511.7 1849.09 1513.81V1515.92C1849.09 1517.82 1848.67 1519.51 1848.04 1520.56C1847.41 1521.62 1846.56 1522.46 1845.3 1522.46C1844.03 1522.46 1842.97 1522.25 1841.5 1521.41L1836.86 1518.45ZM1838.75 1498.62L1838.33 1517.61L1841.5 1519.72C1843.19 1520.77 1844.66 1520.99 1845.72 1520.14C1846.77 1519.3 1847.41 1517.4 1847.41 1514.87V1512.97C1847.41 1510.44 1846.98 1508.12 1845.93 1505.79C1844.87 1503.68 1843.61 1502 1841.92 1500.94L1838.75 1498.62Z" fill="white"/>
<path opacity="0.67" d="M1861.12 1527.53L1853.52 1522.67L1851.63 1527.74L1850.15 1526.89L1857.11 1508.54L1858.38 1509.38L1864.07 1535.76L1862.6 1534.91L1861.12 1527.53ZM1854.16 1521.41L1860.91 1525.63L1857.96 1511.28L1854.16 1521.41Z" fill="white"/>
<path opacity="0.67" d="M1877.16 1522.89L1871.46 1519.3L1870.83 1539.98L1869.35 1539.13L1869.98 1518.45L1864.29 1514.87V1513.18L1877.16 1521.41V1522.89Z" fill="white"/>
<path opacity="0.67" d="M1887.71 1544.2L1880.11 1539.34L1878.21 1544.41L1876.73 1543.56L1883.7 1525.21L1884.96 1526.05L1890.66 1552.43L1889.18 1551.58L1887.71 1544.2ZM1880.53 1538.08L1887.28 1542.3L1884.33 1527.95L1880.53 1538.08Z" fill="white"/>
<path opacity="0.67" d="M1902.9 1550.74C1902.9 1553.9 1902.26 1556.01 1901.42 1557.07C1900.58 1558.12 1899.31 1558.12 1897.62 1557.07C1895.93 1556.01 1894.67 1554.32 1893.82 1552.21C1892.98 1550.1 1892.56 1547.36 1892.56 1544.41L1892.77 1540.4C1892.77 1537.23 1893.4 1535.12 1894.25 1534.07C1895.09 1533.01 1896.57 1533.01 1898.04 1534.07C1899.73 1535.12 1901 1536.6 1901.84 1538.71C1902.69 1540.82 1903.11 1543.35 1903.11 1546.52L1902.9 1550.74ZM1901.63 1545.88C1901.63 1543.35 1901.42 1541.24 1900.79 1539.55C1900.15 1537.87 1899.31 1536.6 1898.04 1535.76C1896.78 1534.91 1895.93 1534.91 1895.09 1535.97C1894.46 1536.81 1894.04 1538.5 1894.04 1541.03L1893.82 1545.46C1893.82 1547.99 1894.04 1550.1 1894.67 1552C1895.3 1553.69 1896.15 1554.96 1897.41 1555.8C1898.68 1556.65 1899.52 1556.43 1900.15 1555.59C1900.79 1554.75 1901.21 1552.85 1901.21 1550.31L1901.63 1545.88Z" fill="white"/>
<path opacity="0.67" d="M1914.29 1560.02L1916.82 1561.71V1563.19L1914.29 1561.5L1914.08 1567.19L1912.6 1566.35L1912.81 1560.65L1905.01 1555.59V1554.54L1913.24 1543.77L1914.71 1544.83L1914.29 1560.02ZM1906.7 1555.38L1912.81 1559.39L1913.24 1546.73L1912.6 1547.78L1906.7 1555.38Z" fill="white"/>
</g>





































</g>
<defs>
<filter id="filter0_d_186_9451" x="1073.31" y="374.307" width="444.385" height="540.385" filterUnits="userSpaceOnUse" color-interpolation-filters="sRGB">
<feFlood flood-opacity="0" result="BackgroundImageFix"/>
<feColorMatrix in="SourceAlpha" type="matrix" values="0 0 0 0 0 0 0 0 0 0 0 0 0 0 0 0 0 0 127 0" result="hardAlpha"/>
<feOffset dy="4"/>
<feGaussianBlur stdDeviation="2.34628"/>
<feComposite in2="hardAlpha" operator="out"/>
<feColorMatrix type="matrix" values="0 0 0 0 0 0 0 0 0 0 0 0 0 0 0 0 0 0 0.25 0"/>
<feBlend mode="normal" in2="BackgroundImageFix" result="effect1_dropShadow_186_9451"/>
<feBlend mode="normal" in="SourceGraphic" in2="effect1_dropShadow_186_9451" result="shape"/>
</filter>
<filter id="filter1_d_186_9451" x="1073.31" y="374.307" width="444.385" height="60.3851" filterUnits="userSpaceOnUse" color-interpolation-filters="sRGB">
<feFlood flood-opacity="0" result="BackgroundImageFix"/>
<feColorMatrix in="SourceAlpha" type="matrix" values="0 0 0 0 0 0 0 0 0 0 0 0 0 0 0 0 0 0 127 0" result="hardAlpha"/>
<feOffset dy="4"/>
<feGaussianBlur stdDeviation="2.34628"/>
<feComposite in2="hardAlpha" operator="out"/>
<feColorMatrix type="matrix" values="0 0 0 0 0 0 0 0 0 0 0 0 0 0 0 0 0 0 0.25 0"/>
<feBlend mode="normal" in2="BackgroundImageFix" result="effect1_dropShadow_186_9451"/>
<feBlend mode="normal" in="SourceGraphic" in2="effect1_dropShadow_186_9451" result="shape"/>
</filter>
<filter id="filter2_d_186_9451" x="496.307" y="704.307" width="550.385" height="210.385" filterUnits="userSpaceOnUse" color-interpolation-filters="sRGB">
<feFlood flood-opacity="0" result="BackgroundImageFix"/>
<feColorMatrix in="SourceAlpha" type="matrix" values="0 0 0 0 0 0 0 0 0 0 0 0 0 0 0 0 0 0 127 0" result="hardAlpha"/>
<feOffset dy="4"/>
<feGaussianBlur stdDeviation="2.34628"/>
<feComposite in2="hardAlpha" operator="out"/>
<feColorMatrix type="matrix" values="0 0 0 0 0 0 0 0 0 0 0 0 0 0 0 0 0 0 0.25 0"/>
<feBlend mode="normal" in2="BackgroundImageFix" result="effect1_dropShadow_186_9451"/>
<feBlend mode="normal" in="SourceGraphic" in2="effect1_dropShadow_186_9451" result="shape"/>
</filter>
<filter id="filter3_d_186_9451" x="496.307" y="704.307" width="550.385" height="60.3851" filterUnits="userSpaceOnUse" color-interpolation-filters="sRGB">
<feFlood flood-opacity="0" result="BackgroundImageFix"/>
<feColorMatrix in="SourceAlpha" type="matrix" values="0 0 0 0 0 0 0 0 0 0 0 0 0 0 0 0 0 0 127 0" result="hardAlpha"/>
<feOffset dy="4"/>
<feGaussianBlur stdDeviation="2.34628"/>
<feComposite in2="hardAlpha" operator="out"/>
<feColorMatrix type="matrix" values="0 0 0 0 0 0 0 0 0 0 0 0 0 0 0 0 0 0 0.25 0"/>
<feBlend mode="normal" in2="BackgroundImageFix" result="effect1_dropShadow_186_9451"/>
<feBlend mode="normal" in="SourceGraphic" in2="effect1_dropShadow_186_9451" result="shape"/>
</filter>
<filter id="filter4_d_186_9451" x="1085.31" y="1859.52" width="226.732" height="113.545" filterUnits="userSpaceOnUse" color-interpolation-filters="sRGB">
<feFlood flood-opacity="0" result="BackgroundImageFix"/>
<feColorMatrix in="SourceAlpha" type="matrix" values="0 0 0 0 0 0 0 0 0 0 0 0 0 0 0 0 0 0 127 0" result="hardAlpha"/>
<feOffset dy="4"/>
<feGaussianBlur stdDeviation="2.34628"/>
<feComposite in2="hardAlpha" operator="out"/>
<feColorMatrix type="matrix" values="0 0 0 0 0 0 0 0 0 0 0 0 0 0 0 0 0 0 0.25 0"/>
<feBlend mode="normal" in2="BackgroundImageFix" result="effect1_dropShadow_186_9451"/>
<feBlend mode="normal" in="SourceGraphic" in2="effect1_dropShadow_186_9451" result="shape"/>
</filter>
<filter id="filter5_d_186_9451" x="801.307" y="1859.52" width="226.732" height="113.545" filterUnits="userSpaceOnUse" color-interpolation-filters="sRGB">
<feFlood flood-opacity="0" result="BackgroundImageFix"/>
<feColorMatrix in="SourceAlpha" type="matrix" values="0 0 0 0 0 0 0 0 0 0 0 0 0 0 0 0 0 0 127 0" result="hardAlpha"/>
<feOffset dy="4"/>
<feGaussianBlur stdDeviation="2.34628"/>
<feComposite in2="hardAlpha" operator="out"/>
<feColorMatrix type="matrix" values="0 0 0 0 0 0 0 0 0 0 0 0 0 0 0 0 0 0 0.25 0"/>
<feBlend mode="normal" in2="BackgroundImageFix" result="effect1_dropShadow_186_9451"/>
<feBlend mode="normal" in="SourceGraphic" in2="effect1_dropShadow_186_9451" result="shape"/>
</filter>
<filter id="filter6_d_186_9451" x="801.307" y="1722.29" width="226.369" height="113.371" filterUnits="userSpaceOnUse" color-interpolation-filters="sRGB">
<feFlood flood-opacity="0" result="BackgroundImageFix"/>
<feColorMatrix in="SourceAlpha" type="matrix" values="0 0 0 0 0 0 0 0 0 0 0 0 0 0 0 0 0 0 127 0" result="hardAlpha"/>
<feOffset dy="4"/>
<feGaussianBlur stdDeviation="2.34628"/>
<feComposite in2="hardAlpha" operator="out"/>
<feColorMatrix type="matrix" values="0 0 0 0 0 0 0 0 0 0 0 0 0 0 0 0 0 0 0.25 0"/>
<feBlend mode="normal" in2="BackgroundImageFix" result="effect1_dropShadow_186_9451"/>
<feBlend mode="normal" in="SourceGraphic" in2="effect1_dropShadow_186_9451" result="shape"/>
</filter>
<filter id="filter7_d_186_9451" x="517.307" y="1859.52" width="226.732" height="113.545" filterUnits="userSpaceOnUse" color-interpolation-filters="sRGB">
<feFlood flood-opacity="0" result="BackgroundImageFix"/>
<feColorMatrix in="SourceAlpha" type="matrix" values="0 0 0 0 0 0 0 0 0 0 0 0 0 0 0 0 0 0 127 0" result="hardAlpha"/>
<feOffset dy="4"/>
<feGaussianBlur stdDeviation="2.34628"/>
<feComposite in2="hardAlpha" operator="out"/>
<feColorMatrix type="matrix" values="0 0 0 0 0 0 0 0 0 0 0 0 0 0 0 0 0 0 0.25 0"/>
<feBlend mode="normal" in2="BackgroundImageFix" result="effect1_dropShadow_186_9451"/>
<feBlend mode="normal" in="SourceGraphic" in2="effect1_dropShadow_186_9451" result="shape"/>
</filter>
<filter id="filter8_d_186_9451" x="517.307" y="1722.29" width="226.732" height="113.545" filterUnits="userSpaceOnUse" color-interpolation-filters="sRGB">
<feFlood flood-opacity="0" result="BackgroundImageFix"/>
<feColorMatrix in="SourceAlpha" type="matrix" values="0 0 0 0 0 0 0 0 0 0 0 0 0 0 0 0 0 0 127 0" result="hardAlpha"/>
<feOffset dy="4"/>
<feGaussianBlur stdDeviation="2.34628"/>
<feComposite in2="hardAlpha" operator="out"/>
<feColorMatrix type="matrix" values="0 0 0 0 0 0 0 0 0 0 0 0 0 0 0 0 0 0 0.25 0"/>
<feBlend mode="normal" in2="BackgroundImageFix" result="effect1_dropShadow_186_9451"/>
<feBlend mode="normal" in="SourceGraphic" in2="effect1_dropShadow_186_9451" result="shape"/>
</filter>
<filter id="filter9_d_186_9451" x="1085.31" y="1722.29" width="226.732" height="113.545" filterUnits="userSpaceOnUse" color-interpolation-filters="sRGB">
<feFlood flood-opacity="0" result="BackgroundImageFix"/>
<feColorMatrix in="SourceAlpha" type="matrix" values="0 0 0 0 0 0 0 0 0 0 0 0 0 0 0 0 0 0 127 0" result="hardAlpha"/>
<feOffset dy="4"/>
<feGaussianBlur stdDeviation="2.34628"/>
<feComposite in2="hardAlpha" operator="out"/>
<feColorMatrix type="matrix" values="0 0 0 0 0 0 0 0 0 0 0 0 0 0 0 0 0 0 0.25 0"/>
<feBlend mode="normal" in2="BackgroundImageFix" result="effect1_dropShadow_186_9451"/>
<feBlend mode="normal" in="SourceGraphic" in2="effect1_dropShadow_186_9451" result="shape"/>
</filter>
<filter id="filter10_f_186_9451" x="630.919" y="411.862" width="264.083" height="228.761" filterUnits="userSpaceOnUse" color-interpolation-filters="sRGB">
<feFlood flood-opacity="0" result="BackgroundImageFix"/>
<feBlend mode="normal" in="SourceGraphic" in2="BackgroundImageFix" result="shape"/>
<feGaussianBlur stdDeviation="2" result="effect1_foregroundBlur_186_9451"/>
</filter>
<filter id="filter11_d_186_9451" x="675.307" y="442.307" width="175.385" height="175.385" filterUnits="userSpaceOnUse" color-interpolation-filters="sRGB">
<feFlood flood-opacity="0" result="BackgroundImageFix"/>
<feColorMatrix in="SourceAlpha" type="matrix" values="0 0 0 0 0 0 0 0 0 0 0 0 0 0 0 0 0 0 127 0" result="hardAlpha"/>
<feOffset dy="4"/>
<feGaussianBlur stdDeviation="2.34628"/>
<feComposite in2="hardAlpha" operator="out"/>
<feColorMatrix type="matrix" values="0 0 0 0 0 0 0 0 0 0 0 0 0 0 0 0 0 0 0.25 0"/>
<feBlend mode="normal" in2="BackgroundImageFix" result="effect1_dropShadow_186_9451"/>
<feBlend mode="normal" in="SourceGraphic" in2="effect1_dropShadow_186_9451" result="shape"/>
</filter>
<linearGradient id="paint0_linear_186_9451" x1="1" y1="70" x2="0.999967" y2="660.164" gradientUnits="userSpaceOnUse">
<stop stop-color="#05AB9C" stop-opacity="0"/>
<stop offset="1" stop-color="#05AB9C" stop-opacity="0.207843"/>
</linearGradient>
<linearGradient id="paint1_linear_186_9451" x1="711.069" y1="359.894" x2="711.069" y2="1072.3" gradientUnits="userSpaceOnUse">
<stop stop-color="#05AB9C" stop-opacity="0"/>
<stop offset="1" stop-color="#05AB9C" stop-opacity="0.207843"/>
</linearGradient>
<linearGradient id="paint2_linear_186_9451" x1="1" y1="145.086" x2="0.999985" y2="857.494" gradientUnits="userSpaceOnUse">
<stop stop-color="#05AB9C" stop-opacity="0"/>
<stop offset="1" stop-color="#05AB9C" stop-opacity="0.207843"/>
</linearGradient>
<linearGradient id="paint3_linear_186_9451" x1="1" y1="351.281" x2="0.999991" y2="857.494" gradientUnits="userSpaceOnUse">
<stop stop-color="#05AB9C" stop-opacity="0.207843"/>
<stop offset="1" stop-color="#05AB9C" stop-opacity="0.207843"/>
</linearGradient>
<linearGradient id="paint4_linear_186_9451" x1="234.378" y1="1946.21" x2="1611.66" y2="1946.05" gradientUnits="userSpaceOnUse">
<stop stop-color="#21A497"/>
<stop offset="1" stop-color="#04241F"/>
</linearGradient>
<linearGradient id="paint5_linear_186_9451" x1="2025.87" y1="990.967" x2="1889.42" y2="1292.14" gradientUnits="userSpaceOnUse">
<stop stop-color="#94BFDD"/>
<stop offset="0.6868" stop-color="#94BFDD"/>
<stop offset="1" stop-color="#7195BA"/>
</linearGradient>
<linearGradient id="paint6_linear_186_9451" x1="1758.91" y1="1645.75" x2="2035.27" y2="1449.75" gradientUnits="userSpaceOnUse">
<stop offset="0.1593" stop-color="#18CFAE"/>
<stop offset="0.4015" stop-color="#63D5C5"/>
<stop offset="0.6196" stop-color="#A0D9D8"/>
<stop offset="0.7789" stop-color="#C6DCE4"/>
<stop offset="0.8626" stop-color="#D4DDE8"/>
</linearGradient>
<linearGradient id="paint7_linear_186_9451" x1="1709.36" y1="1074.4" x2="1935.89" y2="1650.32" gradientUnits="userSpaceOnUse">
<stop offset="0.1593" stop-color="#18CFAE"/>
<stop offset="0.4015" stop-color="#63D5C5"/>
<stop offset="0.6196" stop-color="#A0D9D8"/>
<stop offset="0.7789" stop-color="#C6DCE4"/>
<stop offset="0.8626" stop-color="#D4DDE8"/>
</linearGradient>
<linearGradient id="paint8_linear_186_9451" x1="1930.95" y1="1590.14" x2="2183.59" y2="1375.59" gradientUnits="userSpaceOnUse">
<stop offset="0.1593" stop-color="#18CFAE"/>
<stop offset="0.4015" stop-color="#63D5C5"/>
<stop offset="0.6196" stop-color="#A0D9D8"/>
<stop offset="0.7789" stop-color="#C6DCE4"/>
<stop offset="0.8626" stop-color="#D4DDE8"/>
</linearGradient>
<linearGradient id="paint9_linear_186_9451" x1="1901.19" y1="959.909" x2="1742.27" y2="1310.69" gradientUnits="userSpaceOnUse">
<stop stop-color="#94BFDD"/>
<stop offset="0.6868" stop-color="#94BFDD"/>
<stop offset="1" stop-color="#7195BA"/>
</linearGradient>
<linearGradient id="paint10_linear_186_9451" x1="1819.58" y1="1371.64" x2="1692.88" y2="1655.76" gradientUnits="userSpaceOnUse">
<stop stop-color="#94BFDD"/>
<stop offset="0.6868" stop-color="#94BFDD"/>
<stop offset="1" stop-color="#7195BA"/>
</linearGradient>
<linearGradient id="paint11_linear_186_9451" x1="2018" y1="1569.96" x2="2607.37" y2="1654.42" gradientUnits="userSpaceOnUse">
<stop stop-color="#94BFDD"/>
<stop offset="0.6868" stop-color="#94BFDD"/>
<stop offset="1" stop-color="#7195BA"/>
</linearGradient>
<linearGradient id="paint12_linear_186_9451" x1="1814.55" y1="1260.16" x2="1714.73" y2="1680.58" gradientUnits="userSpaceOnUse">
<stop stop-color="#94BFDD"/>
<stop offset="0.6868" stop-color="#94BFDD"/>
<stop offset="1" stop-color="#7195BA"/>
</linearGradient>
<linearGradient id="paint13_linear_186_9451" x1="1762.81" y1="1768.23" x2="1849.06" y2="1416.34" gradientUnits="userSpaceOnUse">
<stop stop-color="#94BFDD"/>
<stop offset="0.6868" stop-color="#94BFDD"/>
<stop offset="1" stop-color="#7195BA"/>
</linearGradient>
<linearGradient id="paint14_linear_186_9451" x1="1415.05" y1="1638.31" x2="1625.66" y2="1173.53" gradientUnits="userSpaceOnUse">
<stop stop-color="#092D66"/>
<stop offset="0.978" stop-color="#7195BA"/>
</linearGradient>
<linearGradient id="paint15_linear_186_9451" x1="1529.97" y1="1533.58" x2="1529.97" y2="1736.77" gradientUnits="userSpaceOnUse">
<stop stop-color="#092D66"/>
<stop offset="0.978" stop-color="#7195BA"/>
</linearGradient>
<linearGradient id="paint16_linear_186_9451" x1="2079.84" y1="1097.06" x2="1735.33" y2="1362.92" gradientUnits="userSpaceOnUse">
<stop stop-color="#092D66"/>
<stop offset="0.978" stop-color="#7195BA"/>
</linearGradient>
<linearGradient id="paint17_linear_186_9451" x1="1529.97" y1="1695.26" x2="1529.97" y2="1775.09" gradientUnits="userSpaceOnUse">
<stop stop-color="#092D66"/>
<stop offset="0.978" stop-color="#7195BA"/>
</linearGradient>
<linearGradient id="paint18_linear_186_9451" x1="1589.62" y1="1788.43" x2="1685.71" y2="1396.4" gradientUnits="userSpaceOnUse">
<stop stop-color="#092D66"/>
<stop offset="0.978" stop-color="#7195BA"/>
</linearGradient>
<linearGradient id="paint19_linear_186_9451" x1="1472" y1="1345.64" x2="1377.51" y2="1554.2" gradientUnits="userSpaceOnUse">
<stop stop-color="#94BFDD"/>
<stop offset="0.6868" stop-color="#94BFDD"/>
<stop offset="1" stop-color="#7195BA"/>
</linearGradient>
<linearGradient id="paint20_linear_186_9451" x1="1225.14" y1="1301.71" x2="1448.78" y2="1870.28" gradientUnits="userSpaceOnUse">
<stop stop-color="#4D575D"/>
<stop offset="0.4835" stop-color="#98A2AE"/>
<stop offset="0.8516" stop-color="#D4DDE8"/>
</linearGradient>
<linearGradient id="paint21_linear_186_9451" x1="1437.6" y1="1765.43" x2="1660.71" y2="1575.97" gradientUnits="userSpaceOnUse">
<stop stop-color="#4D575D"/>
<stop offset="0.4835" stop-color="#98A2AE"/>
<stop offset="0.8516" stop-color="#D4DDE8"/>
</linearGradient>
<linearGradient id="paint22_linear_186_9451" x1="1297.94" y1="1823.96" x2="1505.28" y2="1676.91" gradientUnits="userSpaceOnUse">
<stop stop-color="#4D575D"/>
<stop offset="0.4835" stop-color="#98A2AE"/>
<stop offset="0.8516" stop-color="#D4DDE8"/>
</linearGradient>
<linearGradient id="paint23_linear_186_9451" x1="1444.25" y1="1870.11" x2="1496.8" y2="1655.74" gradientUnits="userSpaceOnUse">
<stop stop-color="#4D575D"/>
<stop offset="0.4835" stop-color="#98A2AE"/>
<stop offset="0.8516" stop-color="#D4DDE8"/>
</linearGradient>
<linearGradient id="paint24_linear_186_9451" x1="591" y1="674.484" x2="934.922" y2="674.484" gradientUnits="userSpaceOnUse">
<stop stop-color="#21A497"/>
<stop offset="1" stop-color="#00665A"/>
</linearGradient>
<clipPath id="clip0_186_9451">
<rect width="1920" height="2160" fill="white" transform="translate(1)"/>
</clipPath>
</defs>
</svg>