<svg width="588" height="357" viewBox="0 0 588 357" fill="none" xmlns="http://www.w3.org/2000/svg">
<path d="M56.26 57.485C56.5987 55.0297 56.9373 52.6167 57.276 50.246C57.6993 47.7907 57.9957 45.3353 58.165 42.88C58.3343 40.34 58.292 37.8 58.038 35.26C57.8687 32.72 57.1913 30.2647 56.006 27.894C56.1753 29.8413 56.387 31.7463 56.641 33.609C56.895 35.387 56.9797 37.2497 56.895 39.197C56.7257 41.991 56.4717 44.785 56.133 47.579C55.7943 50.373 55.4133 53.2093 54.99 56.088C54.9053 56.85 54.609 57.4427 54.101 57.866C53.593 58.2047 53.0003 58.2893 52.323 58.12C51.8997 57.866 51.434 57.5273 50.926 57.104C50.418 56.596 50.1217 56.088 50.037 55.58C49.9523 54.6487 49.9947 53.7173 50.164 52.786C50.3333 51.8547 50.418 50.8387 50.418 49.738C50.5027 47.2827 50.5873 44.785 50.672 42.245C50.7567 39.6203 50.7567 37.038 50.672 34.498C50.672 33.0587 50.5027 31.6617 50.164 30.307C49.8253 28.8677 49.4443 27.386 49.021 25.862C47.5817 26.0313 46.354 26.497 45.338 27.259C44.322 28.021 43.3907 28.8677 42.544 29.799C37.718 34.7097 33.6117 40.1283 30.225 46.055C26.923 51.897 24.2983 58.2893 22.351 65.232C21.081 69.8887 20.1073 74.5877 19.43 79.329C18.8373 84.0703 18.8373 88.9387 19.43 93.934C19.684 96.1353 20.065 98.252 20.573 100.284C21.1657 102.316 22.0547 104.306 23.24 106.253C24.6793 108.624 26.4573 109.301 28.574 108.285C30.6907 107.1 32.8073 105.999 34.924 104.983C37.0407 103.882 39.0727 102.612 41.02 101.173C43.2213 99.4797 44.7453 98.2943 45.592 97.617C46.5233 96.855 47.2853 96.22 47.878 95.712C48.5553 95.204 49.3173 94.6113 50.164 93.934C51.0953 93.172 52.6617 91.9443 54.863 90.251C55.371 89.8277 55.879 89.4043 56.387 88.981C56.895 88.473 57.403 88.092 57.911 87.838C58.5037 87.584 59.0963 87.5417 59.689 87.711C60.2817 87.8803 60.959 88.3883 61.721 89.235C62.0597 89.489 62.61 89.5313 63.372 89.362C64.134 89.108 65.1077 88.9387 66.293 88.854C65.6157 89.7853 65.0653 90.505 64.642 91.013C64.2187 91.521 63.7953 91.9867 63.372 92.41C61.7633 93.7647 60.4933 94.9077 59.562 95.839C58.6307 96.6857 57.8263 97.4477 57.149 98.125C56.4717 98.7177 55.879 99.268 55.371 99.776C54.863 100.284 54.2703 100.877 53.593 101.554C52.9157 102.147 52.069 102.866 51.053 103.713C50.1217 104.56 48.8517 105.66 47.243 107.015C43.8563 109.978 40.1733 111.841 36.194 112.603C32.2993 113.28 28.193 113.45 23.875 113.111C21.843 112.942 19.9803 112.307 18.287 111.206C16.5937 110.021 15.0697 108.581 13.715 106.888C11.5137 103.925 9.905 100.75 8.889 97.363C7.95767 93.9763 7.44967 90.4203 7.365 86.695C7.19567 74.6723 9.05833 63.6657 12.953 53.675C16.8477 43.5997 22.6473 34.3287 30.352 25.862C32.2993 23.6607 34.5007 21.925 36.956 20.655C39.9193 18.4537 43.2213 17.9033 46.862 19.004C47.9627 19.4273 49.0633 19.766 50.164 20.02C51.2647 20.1893 52.323 20.4433 53.339 20.782C55.5403 21.544 57.3607 22.687 58.8 24.211C60.2393 25.735 61.1707 27.8517 61.594 30.561C61.9327 32.7623 62.102 35.0907 62.102 37.546C62.102 40.0013 61.8903 42.4567 61.467 44.912C61.1283 47.2827 60.578 49.5687 59.816 51.77C59.054 53.9713 58.165 55.9187 57.149 57.612C56.8103 57.612 56.514 57.5697 56.26 57.485ZM22.605 55.58C20.573 59.644 18.9643 64.0467 17.779 68.788C16.6783 73.5293 16.0433 78.1437 15.874 82.631C15.7047 87.1183 16.001 91.3517 16.763 95.331C17.525 99.2257 18.8797 102.358 20.827 104.729C19.303 100.411 18.287 96.1777 17.779 92.029C17.271 87.8803 17.144 83.774 17.398 79.71C17.7367 75.646 18.3717 71.6243 19.303 67.645C20.2343 63.581 21.335 59.5593 22.605 55.58ZM38.353 108.793C38.353 109.132 38.48 109.428 38.734 109.682C38.988 109.513 39.2843 109.343 39.623 109.174C40.0463 109.005 40.4697 108.793 40.893 108.539C40.7237 108.37 40.639 108.158 40.639 107.904C40.2157 108.073 39.7923 108.243 39.369 108.412C39.0303 108.497 38.6917 108.624 38.353 108.793ZM48.513 102.697C48.513 102.697 48.4283 102.655 48.259 102.57C48.1743 102.57 48.0897 102.612 48.005 102.697C47.9203 102.782 47.7933 102.866 47.624 102.951C47.5393 103.036 47.4123 103.29 47.243 103.713C47.5817 103.459 48.005 103.163 48.513 102.824V102.697ZM92.1097 29.037C92.5331 28.6137 92.9141 28.275 93.2527 28.021C93.5914 27.6823 93.9301 27.3013 94.2687 26.878C96.2161 24.5073 98.4174 22.7293 100.873 21.544C103.413 20.3587 106.291 19.9777 109.509 20.401C112.726 20.8243 115.478 21.8827 117.764 23.576C120.05 25.1847 121.701 27.513 122.717 30.561C123.309 32.2543 123.775 33.99 124.114 35.768C124.537 37.546 124.706 39.324 124.622 41.102C124.452 51.3467 123.182 61.2527 120.812 70.82C118.526 80.3873 114.716 89.6583 109.382 98.633C108.196 100.58 106.799 102.443 105.191 104.221C103.667 105.999 102.143 107.735 100.619 109.428C99.4334 110.783 98.0364 111.883 96.4277 112.73C94.9037 113.492 93.2104 113.915 91.3477 114C89.8237 114.169 88.2151 114.042 86.5217 113.619C85.5057 113.196 84.4897 112.857 83.4737 112.603C82.4577 112.349 81.3571 112.307 80.1717 112.476C78.7324 112.73 77.5047 112.518 76.4887 111.841C75.5574 111.164 74.6684 110.317 73.8217 109.301C72.4671 107.608 71.4934 105.83 70.9007 103.967C70.3927 102.104 70.1387 100.157 70.1387 98.125C70.0541 96.0083 70.0117 93.8917 70.0117 91.775C70.0964 89.5737 70.2657 87.3723 70.5197 85.171C71.5357 79.1597 73.0597 73.4023 75.0917 67.899C77.2084 62.3957 80.1294 57.1463 83.8547 52.151C84.3627 51.4737 84.7437 50.7117 84.9977 49.865C85.2517 48.9337 85.4211 48.0023 85.5057 47.071C85.8444 44.7003 86.2254 42.3297 86.6487 39.959C87.1567 37.5037 87.9187 35.1753 88.9347 32.974C89.3581 32.0427 89.8237 31.2807 90.3317 30.688C90.8397 30.0107 91.5594 29.4603 92.4907 29.037C92.1521 29.7143 91.8134 30.434 91.4747 31.196C91.1361 31.958 90.8397 32.6777 90.5857 33.355C89.0617 35.387 88.1304 37.5883 87.7917 39.959C87.4531 42.3297 87.0721 44.7003 86.6487 47.071C87.4107 46.9863 87.8341 46.9017 87.9187 46.817C88.3421 44.4463 88.7654 42.1603 89.1887 39.959C89.6121 37.7577 90.0354 35.5563 90.4587 33.355C91.1361 32.6777 91.6441 32.0427 91.9827 31.45C92.4061 30.7727 92.4484 29.9683 92.1097 29.037ZM88.1727 108.031C88.0881 108.454 88.0457 108.835 88.0457 109.174C88.0457 109.513 88.0034 109.894 87.9187 110.317C89.5274 110.317 90.8821 109.936 91.9827 109.174C93.0834 108.327 94.0994 107.438 95.0307 106.507C98.2481 103.12 100.915 99.4797 103.032 95.585C105.148 91.6903 107.011 87.711 108.62 83.647C114.546 68.915 117.34 53.7173 117.002 38.054C117.002 36.1913 116.79 34.371 116.367 32.593C115.943 30.7303 115.266 28.9523 114.335 27.259C112.387 23.449 109.466 22.6447 105.572 24.846C104.132 25.5233 102.778 26.5393 101.508 27.894C100.238 29.164 99.0947 30.6033 98.0787 32.212C97.1474 33.8207 96.4277 35.514 95.9197 37.292C95.4117 39.07 95.1577 40.8057 95.1577 42.499C96.0891 42.499 96.9781 42.499 97.8247 42.499C98.7561 42.4143 99.6874 42.4143 100.619 42.499C101.55 42.5837 102.439 42.753 103.286 43.007C104.217 43.261 105.275 43.515 106.461 43.769C105.783 44.4463 105.233 45.039 104.81 45.547C104.471 46.055 104.09 46.5207 103.667 46.944C103.074 47.6213 102.354 48.2563 101.508 48.849C100.746 49.4417 100.111 50.119 99.6027 50.881C98.7561 52.2357 97.9517 53.6327 97.1897 55.072C96.4277 56.4267 95.7081 57.8237 95.0307 59.263C93.4221 62.565 94.1417 65.4437 97.1897 67.899C97.7824 68.3223 98.5867 68.9997 99.6027 69.931C97.8247 70.439 96.3431 70.3543 95.1577 69.677C93.9724 68.915 92.7024 68.3223 91.3477 67.899C90.9244 69.3383 90.5011 70.6507 90.0777 71.836C89.6544 73.0213 89.2734 74.2913 88.9347 75.646C88.1727 78.8633 87.3684 82.123 86.5217 85.425C85.6751 88.727 85.0401 91.9867 84.6167 95.204C84.4474 96.982 84.4474 98.8023 84.6167 100.665C84.8707 102.528 85.1247 104.39 85.3787 106.253C85.4634 106.93 85.7174 107.481 86.1407 107.904C86.5641 108.327 87.2414 108.454 88.1727 108.285V108.031ZM81.3147 110.444C79.3674 107.227 78.1397 104.009 77.6317 100.792C77.2084 97.5747 77.0814 94.2727 77.2507 90.886C77.6741 86.2293 78.3091 81.6573 79.1557 77.17C80.0871 72.6827 81.3994 68.28 83.0927 63.962C83.4314 63.2847 83.7277 62.565 83.9817 61.803C84.2357 61.041 84.4897 60.2367 84.7437 59.39C83.8124 60.152 83.1774 61.041 82.8387 62.057C81.7381 65.0203 80.6797 67.9413 79.6637 70.82C78.6477 73.6987 77.6741 76.662 76.7427 79.71C76.1501 82.0807 75.6421 84.4937 75.2187 86.949C74.7954 89.4043 74.4144 91.8597 74.0757 94.315C73.8217 96.4317 73.8217 98.5483 74.0757 100.665C74.3297 102.782 74.9224 104.814 75.8537 106.761C76.2771 107.692 76.9121 108.497 77.7587 109.174C78.6054 109.851 79.7907 110.275 81.3147 110.444ZM110.779 1.986C111.625 1.224 112.557 1.224 113.573 1.986C114.335 1.81666 114.927 1.94366 115.351 2.36699C115.859 2.79033 116.324 3.29833 116.748 3.89099C116.07 5.24566 115.266 6.558 114.335 7.828C113.403 9.098 112.387 10.2833 111.287 11.384C110.186 12.4 109.085 13.289 107.985 14.051C106.884 14.7283 105.868 15.194 104.937 15.448C104.005 14.6013 103.751 13.8817 104.175 13.289C104.598 12.6117 105.021 11.9343 105.445 11.257C106.376 10.1563 107.265 9.098 108.112 8.08199C108.958 6.98133 109.805 5.92299 110.652 4.907C109.382 6.177 108.112 7.48933 106.842 8.84399C105.656 10.114 104.471 11.3417 103.286 12.527C103.116 12.781 102.862 12.9503 102.524 13.035C102.185 13.035 101.931 13.0773 101.762 13.162C101.592 13.0773 101.381 12.908 101.127 12.654C102.735 10.7913 104.344 9.01333 105.953 7.32C107.561 5.62666 109.17 3.84866 110.779 1.986ZM222.23 110.444C220.537 112.307 218.716 113.365 216.769 113.619C214.906 113.873 212.959 113.788 210.927 113.365C209.911 113.111 209.107 112.476 208.514 111.46C207.921 110.359 207.583 109.216 207.498 108.031C206.567 102.866 206.101 97.7863 206.101 92.791C206.101 85.3403 206.482 78.059 207.244 70.947C208.091 63.835 209.234 56.6807 210.673 49.484C210.758 49.1453 210.8 48.8067 210.8 48.468C210.8 48.1293 210.842 47.6213 210.927 46.944C210.504 47.3673 210.165 47.6637 209.911 47.833C209.657 47.9177 209.445 48.087 209.276 48.341C203.18 56.0457 197.338 63.962 191.75 72.09C186.162 80.1333 181.209 88.7693 176.891 97.998C176.722 98.506 176.51 99.0563 176.256 99.649C176.002 100.157 175.79 100.623 175.621 101.046C175.198 101.723 174.817 102.401 174.478 103.078C174.139 103.755 173.758 104.263 173.335 104.602C172.404 105.025 171.388 105.406 170.287 105.745C169.271 106.084 168.213 106.38 167.112 106.634C166.689 106.803 166.181 106.846 165.588 106.761C165.08 106.676 164.614 106.676 164.191 106.761C161.905 107.184 160 106.888 158.476 105.872C157.037 104.771 156.232 102.909 156.063 100.284C155.809 97.3207 155.64 94.3997 155.555 91.521C155.555 88.5577 155.682 85.5943 155.936 82.631C156.19 79.4137 156.613 76.1963 157.206 72.979C157.883 69.7617 158.476 66.4597 158.984 63.073C159.069 62.4803 159.153 61.93 159.238 61.422C159.323 60.8293 159.28 60.152 159.111 59.39C157.926 60.406 156.91 61.6337 156.063 63.073C155.216 64.4277 154.37 65.8247 153.523 67.264C151.576 70.058 149.798 72.979 148.189 76.027C147.258 77.4663 146.369 78.948 145.522 80.472C144.76 81.9113 143.913 83.393 142.982 84.917C142.22 86.441 141.458 87.965 140.696 89.489C139.934 90.9283 139.13 92.4947 138.283 94.188C137.606 95.6273 136.928 97.1513 136.251 98.76C135.658 100.284 135.023 101.808 134.346 103.332C134.092 103.247 133.923 103.205 133.838 103.205C133.753 103.12 133.626 103.078 133.457 103.078C134.558 100.369 135.616 97.617 136.632 94.823C137.733 92.029 138.876 89.1503 140.061 86.187C139.214 86.8643 138.283 88.1767 137.267 90.124C136.251 91.9867 135.235 94.1457 134.219 96.601C133.288 98.9717 132.483 101.427 131.806 103.967C131.129 106.422 130.663 108.581 130.409 110.444C125.922 112.053 124.398 110.444 125.837 105.618C126.684 102.909 127.573 100.157 128.504 97.363C129.435 94.569 130.536 91.9443 131.806 89.489C134.092 84.917 136.463 80.4297 138.918 76.027C141.458 71.6243 143.956 67.2217 146.411 62.819C149.12 58.1623 151.957 53.5903 154.92 49.103C157.968 44.6157 160.889 40.0437 163.683 35.387C164.953 33.355 166.054 31.2383 166.985 29.037C168.001 26.8357 169.059 24.6343 170.16 22.433C170.499 21.8403 170.837 21.29 171.176 20.782C171.515 20.274 172.065 20.0623 172.827 20.147C174.182 20.4857 174.986 21.5017 175.24 23.195C175.24 23.5337 175.24 23.8723 175.24 24.211C175.24 24.5497 175.282 24.9307 175.367 25.354C175.96 24.7613 176.552 24.084 177.145 23.322C177.822 22.56 178.5 21.9673 179.177 21.544C179.939 21.1207 180.701 20.909 181.463 20.909C182.225 20.909 183.114 21.3323 184.13 22.179C181.675 32.1697 179.727 42.2027 178.288 52.278C176.849 62.2687 175.663 72.4287 174.732 82.758C175.325 82.3347 175.748 81.869 176.002 81.361C179.219 75.6037 182.691 70.1003 186.416 64.851C190.226 59.6017 194.121 54.437 198.1 49.357C200.809 45.801 203.476 42.2873 206.101 38.816C208.81 35.26 211.52 31.704 214.229 28.148C214.822 27.4707 215.584 26.9203 216.515 26.497C217.446 26.0737 218.462 25.8197 219.563 25.735C220.664 25.5657 221.722 25.608 222.738 25.862C223.754 26.0313 224.643 26.37 225.405 26.878C226.082 27.386 226.463 27.9787 226.548 28.656C226.633 29.2487 226.59 29.926 226.421 30.688C225.913 33.482 225.405 36.3183 224.897 39.197C224.389 41.991 223.923 44.8273 223.5 47.706C222.823 53.3787 222.103 59.0513 221.341 64.724C220.664 70.312 220.071 75.9847 219.563 81.742C219.224 85.298 219.013 88.7693 218.928 92.156C218.928 95.458 218.928 98.887 218.928 102.443C218.928 103.544 218.97 104.433 219.055 105.11C219.14 105.787 219.309 106.422 219.563 107.015C219.817 107.608 220.156 108.158 220.579 108.666C221.002 109.174 221.553 109.767 222.23 110.444ZM167.62 67.137C168.551 62.565 169.44 57.993 170.287 53.421C171.218 48.849 172.15 44.277 173.081 39.705C172.827 39.6203 172.615 39.578 172.446 39.578C172.361 39.578 172.234 39.5357 172.065 39.451C170.795 44.023 169.821 48.595 169.144 53.167C168.551 57.739 168.043 62.3957 167.62 67.137ZM157.46 53.802C157.714 53.8867 157.926 54.0137 158.095 54.183C158.349 53.675 158.603 53.2093 158.857 52.786C159.111 52.278 159.365 51.7277 159.619 51.135C159.45 50.9657 159.238 50.881 158.984 50.881C158.561 51.9817 158.053 52.9553 157.46 53.802ZM164.572 96.728C164.572 96.3047 164.572 95.8813 164.572 95.458C164.572 95.0347 164.53 94.6113 164.445 94.188H164.318C164.233 94.6113 164.191 95.0347 164.191 95.458C164.191 95.8813 164.191 96.3047 164.191 96.728H164.572ZM248.999 29.037C249.423 28.6137 249.804 28.275 250.142 28.021C250.481 27.6823 250.82 27.3013 251.158 26.878C253.106 24.5073 255.307 22.7293 257.762 21.544C260.302 20.3587 263.181 19.9777 266.398 20.401C269.616 20.8243 272.367 21.8827 274.653 23.576C276.939 25.1847 278.59 27.513 279.606 30.561C280.199 32.2543 280.665 33.99 281.003 35.768C281.427 37.546 281.596 39.324 281.511 41.102C281.342 51.3467 280.072 61.2527 277.701 70.82C275.415 80.3873 271.605 89.6583 266.271 98.633C265.086 100.58 263.689 102.443 262.08 104.221C260.556 105.999 259.032 107.735 257.508 109.428C256.323 110.783 254.926 111.883 253.317 112.73C251.793 113.492 250.1 113.915 248.237 114C246.713 114.169 245.105 114.042 243.411 113.619C242.395 113.196 241.379 112.857 240.363 112.603C239.347 112.349 238.247 112.307 237.061 112.476C235.622 112.73 234.394 112.518 233.378 111.841C232.447 111.164 231.558 110.317 230.711 109.301C229.357 107.608 228.383 105.83 227.79 103.967C227.282 102.104 227.028 100.157 227.028 98.125C226.944 96.0083 226.901 93.8917 226.901 91.775C226.986 89.5737 227.155 87.3723 227.409 85.171C228.425 79.1597 229.949 73.4023 231.981 67.899C234.098 62.3957 237.019 57.1463 240.744 52.151C241.252 51.4737 241.633 50.7117 241.887 49.865C242.141 48.9337 242.311 48.0023 242.395 47.071C242.734 44.7003 243.115 42.3297 243.538 39.959C244.046 37.5037 244.808 35.1753 245.824 32.974C246.248 32.0427 246.713 31.2807 247.221 30.688C247.729 30.0107 248.449 29.4603 249.38 29.037C249.042 29.7143 248.703 30.434 248.364 31.196C248.026 31.958 247.729 32.6777 247.475 33.355C245.951 35.387 245.02 37.5883 244.681 39.959C244.343 42.3297 243.962 44.7003 243.538 47.071C244.3 46.9863 244.724 46.9017 244.808 46.817C245.232 44.4463 245.655 42.1603 246.078 39.959C246.502 37.7577 246.925 35.5563 247.348 33.355C248.026 32.6777 248.534 32.0427 248.872 31.45C249.296 30.7727 249.338 29.9683 248.999 29.037ZM245.062 108.031C244.978 108.454 244.935 108.835 244.935 109.174C244.935 109.513 244.893 109.894 244.808 110.317C246.417 110.317 247.772 109.936 248.872 109.174C249.973 108.327 250.989 107.438 251.92 106.507C255.138 103.12 257.805 99.4797 259.921 95.585C262.038 91.6903 263.901 87.711 265.509 83.647C271.436 68.915 274.23 53.7173 273.891 38.054C273.891 36.1913 273.68 34.371 273.256 32.593C272.833 30.7303 272.156 28.9523 271.224 27.259C269.277 23.449 266.356 22.6447 262.461 24.846C261.022 25.5233 259.667 26.5393 258.397 27.894C257.127 29.164 255.984 30.6033 254.968 32.212C254.037 33.8207 253.317 35.514 252.809 37.292C252.301 39.07 252.047 40.8057 252.047 42.499C252.979 42.499 253.868 42.499 254.714 42.499C255.646 42.4143 256.577 42.4143 257.508 42.499C258.44 42.5837 259.329 42.753 260.175 43.007C261.107 43.261 262.165 43.515 263.35 43.769C262.673 44.4463 262.123 45.039 261.699 45.547C261.361 46.055 260.98 46.5207 260.556 46.944C259.964 47.6213 259.244 48.2563 258.397 48.849C257.635 49.4417 257 50.119 256.492 50.881C255.646 52.2357 254.841 53.6327 254.079 55.072C253.317 56.4267 252.598 57.8237 251.92 59.263C250.312 62.565 251.031 65.4437 254.079 67.899C254.672 68.3223 255.476 68.9997 256.492 69.931C254.714 70.439 253.233 70.3543 252.047 69.677C250.862 68.915 249.592 68.3223 248.237 67.899C247.814 69.3383 247.391 70.6507 246.967 71.836C246.544 73.0213 246.163 74.2913 245.824 75.646C245.062 78.8633 244.258 82.123 243.411 85.425C242.565 88.727 241.93 91.9867 241.506 95.204C241.337 96.982 241.337 98.8023 241.506 100.665C241.76 102.528 242.014 104.39 242.268 106.253C242.353 106.93 242.607 107.481 243.03 107.904C243.454 108.327 244.131 108.454 245.062 108.285V108.031ZM238.204 110.444C236.257 107.227 235.029 104.009 234.521 100.792C234.098 97.5747 233.971 94.2727 234.14 90.886C234.564 86.2293 235.199 81.6573 236.045 77.17C236.977 72.6827 238.289 68.28 239.982 63.962C240.321 63.2847 240.617 62.565 240.871 61.803C241.125 61.041 241.379 60.2367 241.633 59.39C240.702 60.152 240.067 61.041 239.728 62.057C238.628 65.0203 237.569 67.9413 236.553 70.82C235.537 73.6987 234.564 76.662 233.632 79.71C233.04 82.0807 232.532 84.4937 232.108 86.949C231.685 89.4043 231.304 91.8597 230.965 94.315C230.711 96.4317 230.711 98.5483 230.965 100.665C231.219 102.782 231.812 104.814 232.743 106.761C233.167 107.692 233.802 108.497 234.648 109.174C235.495 109.851 236.68 110.275 238.204 110.444Z" fill="white"/>
<g filter="url(#filter0_d_186_9451)">
<path d="M44.756 206.516L48.99 229H67.532L48.406 130.596H25.484L4.168 229H22.71L27.09 206.516H44.756ZM28.988 191.624L32.638 171.038C33.66 165.344 35.12 155.27 36.142 148.7H36.58C37.456 155.124 38.77 165.052 39.792 171.038L43.004 191.624H28.988ZM110.386 229L132.87 130.596H111.846L105.13 172.644C103.378 183.74 101.772 195.566 100.458 207.246H100.166C98.8524 195.712 96.8084 183.74 95.2024 173.082L88.1944 130.596H67.0244L88.9244 229H110.386ZM172.221 206.516L176.455 229H194.997L175.871 130.596H152.949L131.633 229H150.175L154.555 206.516H172.221ZM156.453 191.624L160.103 171.038C161.125 165.344 162.585 155.27 163.607 148.7H164.045C164.921 155.124 166.235 165.052 167.257 171.038L170.469 191.624H156.453ZM222.592 229V206.954C222.592 187.098 221.862 171.914 221.278 161.986H221.57C223.906 170.746 228.286 183.302 231.644 191.624L246.682 229H264.202V130.596H247.412V152.35C247.412 170.454 248.726 187.536 249.31 197.902H249.018C246.244 189.434 241.572 176.732 238.506 169.14L223.322 130.596H205.802V229H222.592ZM274.221 229H326.781V212.356H297.143V211.918L326.927 144.758V130.596H277.141V147.24H305.465V147.678L274.221 217.758V229ZM372.258 206.516L376.492 229H395.034L375.908 130.596H352.986L331.67 229H350.212L354.592 206.516H372.258ZM356.49 191.624L360.14 171.038C361.162 165.344 362.622 155.27 363.644 148.7H364.082C364.958 155.124 366.272 165.052 367.294 171.038L370.506 191.624H356.49ZM405.839 229H424.965V189.726H427.885C434.163 189.726 437.229 193.23 438.981 205.348C440.441 216.298 442.631 226.226 443.945 229H463.947C462.195 225.35 459.567 213.232 457.669 202.282C455.771 191.624 452.413 185.492 445.697 182.718V182.426C455.625 177.9 460.881 168.41 460.881 157.898C460.881 149.43 458.983 142.86 452.997 137.458C446.719 131.764 437.229 130.158 426.717 130.158C419.417 130.158 411.825 130.888 405.839 132.056V229ZM424.965 145.634C425.987 145.196 427.885 145.05 429.637 145.05C438.105 145.342 441.463 151.182 441.463 159.65C441.463 168.264 436.791 174.98 428.469 174.98H424.965V145.634Z" fill="#02B8FA"/>
<path d="M44.756 206.516L46.7215 206.146L46.4145 204.516H44.756V206.516ZM48.99 229L47.0245 229.37L47.3315 231H48.99V229ZM67.532 229V231H69.9582L69.4953 228.618L67.532 229ZM48.406 130.596L50.3693 130.214L50.0547 128.596H48.406V130.596ZM25.484 130.596V128.596H23.8709L23.5293 130.173L25.484 130.596ZM4.168 229L2.21333 228.577L1.68838 231H4.168V229ZM22.71 229V231H24.358L24.6731 229.382L22.71 229ZM27.09 206.516V204.516H25.442L25.1269 206.134L27.09 206.516ZM28.988 191.624L27.0187 191.275L26.6022 193.624H28.988V191.624ZM32.638 171.038L30.6695 170.685L30.6687 170.689L32.638 171.038ZM36.142 148.7V146.7H34.4291L34.1658 148.393L36.142 148.7ZM36.58 148.7L38.5617 148.43L38.3258 146.7H36.58V148.7ZM39.792 171.038L41.7681 170.73L41.7659 170.716L41.7635 170.701L39.792 171.038ZM43.004 191.624V193.624H45.3403L44.9801 191.316L43.004 191.624ZM42.7905 206.886L47.0245 229.37L50.9555 228.63L46.7215 206.146L42.7905 206.886ZM48.99 231H67.532V227H48.99V231ZM69.4953 228.618L50.3693 130.214L46.4427 130.978L65.5687 229.382L69.4953 228.618ZM48.406 128.596H25.484V132.596H48.406V128.596ZM23.5293 130.173L2.21333 228.577L6.12267 229.423L27.4387 131.019L23.5293 130.173ZM4.168 231H22.71V227H4.168V231ZM24.6731 229.382L29.0531 206.898L25.1269 206.134L20.7469 228.618L24.6731 229.382ZM27.09 208.516H44.756V204.516H27.09V208.516ZM30.9573 191.973L34.6073 171.387L30.6687 170.689L27.0187 191.275L30.9573 191.973ZM34.6065 171.391C35.6339 165.667 37.103 155.534 38.1182 149.007L34.1658 148.393C33.137 155.006 31.6861 165.021 30.6695 170.685L34.6065 171.391ZM36.142 150.7H36.58V146.7H36.142V150.7ZM34.5983 148.97C35.4709 155.369 36.7912 165.346 37.8205 171.375L41.7635 170.701C40.7488 164.758 39.4411 154.879 38.5617 148.43L34.5983 148.97ZM37.8159 171.346L41.0279 191.932L44.9801 191.316L41.7681 170.73L37.8159 171.346ZM43.004 189.624H28.988V193.624H43.004V189.624ZM110.386 229V231H111.981L112.336 229.445L110.386 229ZM132.87 130.596L134.82 131.041L135.379 128.596H132.87V130.596ZM111.846 130.596V128.596H110.141L109.871 130.281L111.846 130.596ZM105.13 172.644L103.155 172.329L103.155 172.332L105.13 172.644ZM100.458 207.246V209.246H102.246L102.446 207.47L100.458 207.246ZM100.166 207.246L98.1793 207.472L98.3813 209.246H100.166V207.246ZM95.2024 173.082L97.1801 172.784L97.178 172.77L97.1758 172.756L95.2024 173.082ZM88.1944 130.596L90.1678 130.27L89.8915 128.596H88.1944V130.596ZM67.0244 130.596V128.596H64.5304L65.0722 131.03L67.0244 130.596ZM88.9244 229L86.9722 229.434L87.3206 231H88.9244V229ZM112.336 229.445L134.82 131.041L130.921 130.151L108.437 228.555L112.336 229.445ZM132.87 128.596H111.846V132.596H132.87V128.596ZM109.871 130.281L103.155 172.329L107.105 172.959L113.821 130.911L109.871 130.281ZM103.155 172.332C101.398 183.457 99.7883 195.313 98.471 207.022L102.446 207.47C103.757 195.819 105.359 184.023 107.106 172.956L103.155 172.332ZM100.458 205.246H100.166V209.246H100.458V205.246ZM102.154 207.02C100.834 195.438 98.778 183.388 97.1801 172.784L93.2247 173.38C94.8389 184.092 96.8707 195.986 98.1793 207.472L102.154 207.02ZM97.1758 172.756L90.1678 130.27L86.2211 130.921L93.2291 173.407L97.1758 172.756ZM88.1944 128.596H67.0244V132.596H88.1944V128.596ZM65.0722 131.03L86.9722 229.434L90.8767 228.566L68.9767 130.162L65.0722 131.03ZM88.9244 231H110.386V227H88.9244V231ZM172.221 206.516L174.186 206.146L173.879 204.516H172.221V206.516ZM176.455 229L174.489 229.37L174.796 231H176.455V229ZM194.997 229V231H197.423L196.96 228.618L194.997 229ZM175.871 130.596L177.834 130.214L177.52 128.596H175.871V130.596ZM152.949 130.596V128.596H151.336L150.994 130.173L152.949 130.596ZM131.633 229L129.678 228.577L129.153 231H131.633V229ZM150.175 229V231H151.823L152.138 229.382L150.175 229ZM154.555 206.516V204.516H152.907L152.592 206.134L154.555 206.516ZM156.453 191.624L154.484 191.275L154.067 193.624H156.453V191.624ZM160.103 171.038L158.134 170.685L158.134 170.689L160.103 171.038ZM163.607 148.7V146.7H161.894L161.631 148.393L163.607 148.7ZM164.045 148.7L166.027 148.43L165.791 146.7H164.045V148.7ZM167.257 171.038L169.233 170.73L169.231 170.716L169.228 170.701L167.257 171.038ZM170.469 191.624V193.624H172.805L172.445 191.316L170.469 191.624ZM170.255 206.886L174.489 229.37L178.42 228.63L174.186 206.146L170.255 206.886ZM176.455 231H194.997V227H176.455V231ZM196.96 228.618L177.834 130.214L173.908 130.978L193.034 229.382L196.96 228.618ZM175.871 128.596H152.949V132.596H175.871V128.596ZM150.994 130.173L129.678 228.577L133.588 229.423L154.904 131.019L150.994 130.173ZM131.633 231H150.175V227H131.633V231ZM152.138 229.382L156.518 206.898L152.592 206.134L148.212 228.618L152.138 229.382ZM154.555 208.516H172.221V204.516H154.555V208.516ZM158.422 191.973L162.072 171.387L158.134 170.689L154.484 191.275L158.422 191.973ZM162.071 171.391C163.099 165.667 164.568 155.534 165.583 149.007L161.631 148.393C160.602 155.006 159.151 165.021 158.134 170.685L162.071 171.391ZM163.607 150.7H164.045V146.7H163.607V150.7ZM162.063 148.97C162.936 155.369 164.256 165.346 165.285 171.375L169.228 170.701C168.214 164.758 166.906 154.879 166.027 148.43L162.063 148.97ZM165.281 171.346L168.493 191.932L172.445 191.316L169.233 170.73L165.281 171.346ZM170.469 189.624H156.453V193.624H170.469V189.624ZM222.592 229V231H224.592V229H222.592ZM221.278 161.986V159.986H219.157L219.281 162.103L221.278 161.986ZM221.57 161.986L223.502 161.471L223.107 159.986H221.57V161.986ZM231.644 191.624L233.499 190.877L233.499 190.876L231.644 191.624ZM246.682 229L244.827 229.747L245.331 231H246.682V229ZM264.202 229V231H266.202V229H264.202ZM264.202 130.596H266.202V128.596H264.202V130.596ZM247.412 130.596V128.596H245.412V130.596H247.412ZM249.31 197.902V199.902H251.426L251.307 197.79L249.31 197.902ZM249.018 197.902L247.117 198.525L247.569 199.902H249.018V197.902ZM238.506 169.14L236.645 169.873L236.648 169.881L236.652 169.889L238.506 169.14ZM223.322 130.596L225.183 129.863L224.684 128.596H223.322V130.596ZM205.802 130.596V128.596H203.802V130.596H205.802ZM205.802 229H203.802V231H205.802V229ZM224.592 229V206.954H220.592V229H224.592ZM224.592 206.954C224.592 187.048 223.86 171.822 223.275 161.869L219.281 162.103C219.864 172.006 220.592 187.148 220.592 206.954H224.592ZM221.278 163.986H221.57V159.986H221.278V163.986ZM219.638 162.501C222 171.36 226.409 183.995 229.789 192.372L233.499 190.876C230.163 182.609 225.812 170.132 223.502 161.471L219.638 162.501ZM229.789 192.371L244.827 229.747L248.537 228.253L233.499 190.877L229.789 192.371ZM246.682 231H264.202V227H246.682V231ZM266.202 229V130.596H262.202V229H266.202ZM264.202 128.596H247.412V132.596H264.202V128.596ZM245.412 130.596V152.35H249.412V130.596H245.412ZM245.412 152.35C245.412 170.528 246.732 187.698 247.313 198.014L251.307 197.79C250.72 187.374 249.412 170.38 249.412 152.35H245.412ZM249.31 195.902H249.018V199.902H249.31V195.902ZM250.919 197.279C248.13 188.767 243.442 176.023 240.36 168.391L236.652 169.889C239.702 177.441 244.358 190.101 247.117 198.525L250.919 197.279ZM240.367 168.407L225.183 129.863L221.461 131.329L236.645 169.873L240.367 168.407ZM223.322 128.596H205.802V132.596H223.322V128.596ZM203.802 130.596V229H207.802V130.596H203.802ZM205.802 231H222.592V227H205.802V231ZM274.221 229H272.221V231H274.221V229ZM326.781 229V231H328.781V229H326.781ZM326.781 212.356H328.781V210.356H326.781V212.356ZM297.143 212.356H295.143V214.356H297.143V212.356ZM297.143 211.918L295.315 211.107L295.143 211.494V211.918H297.143ZM326.927 144.758L328.756 145.569L328.927 145.182V144.758H326.927ZM326.927 130.596H328.927V128.596H326.927V130.596ZM277.141 130.596V128.596H275.141V130.596H277.141ZM277.141 147.24H275.141V149.24H277.141V147.24ZM305.465 147.24H307.465V145.24H305.465V147.24ZM305.465 147.678L307.292 148.492L307.465 148.104V147.678H305.465ZM274.221 217.758L272.395 216.944L272.221 217.332V217.758H274.221ZM274.221 231H326.781V227H274.221V231ZM328.781 229V212.356H324.781V229H328.781ZM326.781 210.356H297.143V214.356H326.781V210.356ZM299.143 212.356V211.918H295.143V212.356H299.143ZM298.972 212.729L328.756 145.569L325.099 143.947L295.315 211.107L298.972 212.729ZM328.927 144.758V130.596H324.927V144.758H328.927ZM326.927 128.596H277.141V132.596H326.927V128.596ZM275.141 130.596V147.24H279.141V130.596H275.141ZM277.141 149.24H305.465V145.24H277.141V149.24ZM303.465 147.24V147.678H307.465V147.24H303.465ZM303.639 146.864L272.395 216.944L276.048 218.572L307.292 148.492L303.639 146.864ZM272.221 217.758V229H276.221V217.758H272.221ZM372.258 206.516L374.223 206.146L373.916 204.516H372.258V206.516ZM376.492 229L374.526 229.37L374.833 231H376.492V229ZM395.034 229V231H397.46L396.997 228.618L395.034 229ZM375.908 130.596L377.871 130.214L377.557 128.596H375.908V130.596ZM352.986 130.596V128.596H351.373L351.031 130.173L352.986 130.596ZM331.67 229L329.715 228.577L329.19 231H331.67V229ZM350.212 229V231H351.86L352.175 229.382L350.212 229ZM354.592 206.516V204.516H352.944L352.629 206.134L354.592 206.516ZM356.49 191.624L354.521 191.275L354.104 193.624H356.49V191.624ZM360.14 171.038L358.171 170.685L358.171 170.689L360.14 171.038ZM363.644 148.7V146.7H361.931L361.668 148.393L363.644 148.7ZM364.082 148.7L366.064 148.43L365.828 146.7H364.082V148.7ZM367.294 171.038L369.27 170.73L369.268 170.716L369.265 170.701L367.294 171.038ZM370.506 191.624V193.624H372.842L372.482 191.316L370.506 191.624ZM370.293 206.886L374.526 229.37L378.457 228.63L374.223 206.146L370.293 206.886ZM376.492 231H395.034V227H376.492V231ZM396.997 228.618L377.871 130.214L373.945 130.978L393.071 229.382L396.997 228.618ZM375.908 128.596H352.986V132.596H375.908V128.596ZM351.031 130.173L329.715 228.577L333.625 229.423L354.941 131.019L351.031 130.173ZM331.67 231H350.212V227H331.67V231ZM352.175 229.382L356.555 206.898L352.629 206.134L348.249 228.618L352.175 229.382ZM354.592 208.516H372.258V204.516H354.592V208.516ZM358.459 191.973L362.109 171.387L358.171 170.689L354.521 191.275L358.459 191.973ZM362.108 171.391C363.136 165.667 364.605 155.534 365.62 149.007L361.668 148.393C360.639 155.006 359.188 165.021 358.171 170.685L362.108 171.391ZM363.644 150.7H364.082V146.7H363.644V150.7ZM362.1 148.97C362.973 155.369 364.293 165.346 365.322 171.375L369.265 170.701C368.251 164.758 366.943 154.879 366.064 148.43L362.1 148.97ZM365.318 171.346L368.53 191.932L372.482 191.316L369.27 170.73L365.318 171.346ZM370.506 189.624H356.49V193.624H370.506V189.624ZM405.839 229H403.839V231H405.839V229ZM424.965 229V231H426.965V229H424.965ZM424.965 189.726V187.726H422.965V189.726H424.965ZM438.981 205.348L440.964 205.084L440.962 205.073L440.961 205.062L438.981 205.348ZM443.945 229L442.138 229.856L442.679 231H443.945V229ZM463.947 229V231H467.126L465.75 228.135L463.947 229ZM457.669 202.282L459.64 201.94L459.638 201.931L457.669 202.282ZM445.697 182.718H443.697V184.056L444.934 184.567L445.697 182.718ZM445.697 182.426L444.867 180.606L443.697 181.14V182.426H445.697ZM452.997 137.458L451.653 138.939L451.657 138.943L452.997 137.458ZM405.839 132.056L405.456 130.093L403.839 130.409V132.056H405.839ZM424.965 145.634L424.177 143.796L422.965 144.315V145.634H424.965ZM429.637 145.05L429.706 143.051L429.672 143.05H429.637V145.05ZM424.965 174.98H422.965V176.98H424.965V174.98ZM405.839 231H424.965V227H405.839V231ZM426.965 229V189.726H422.965V229H426.965ZM424.965 191.726H427.885V187.726H424.965V191.726ZM427.885 191.726C430.575 191.726 432.228 192.434 433.523 194.183C434.977 196.146 436.132 199.618 437.002 205.634L440.961 205.062C440.078 198.96 438.825 194.621 436.738 191.803C434.492 188.77 431.473 187.726 427.885 187.726V191.726ZM436.999 205.612C437.735 211.135 438.656 216.405 439.562 220.657C440.449 224.823 441.365 228.226 442.138 229.856L445.753 228.144C445.211 227 444.375 224.052 443.474 219.823C442.591 215.68 441.687 210.511 440.964 205.084L436.999 205.612ZM443.945 231H463.947V227H443.945V231ZM465.75 228.135C464.988 226.546 463.935 222.829 462.812 217.931C461.709 213.12 460.584 207.389 459.64 201.94L455.698 202.624C456.652 208.125 457.79 213.928 458.913 218.826C460.017 223.637 461.155 227.804 462.144 229.865L465.75 228.135ZM459.638 201.931C457.704 191.071 454.149 184.045 446.461 180.869L444.934 184.567C450.677 186.939 453.838 192.177 455.7 202.633L459.638 201.931ZM447.697 182.718V182.426H443.697V182.718H447.697ZM446.527 184.246C457.253 179.356 462.881 169.095 462.881 157.898H458.881C458.881 167.725 453.997 176.444 444.867 180.606L446.527 184.246ZM462.881 157.898C462.881 149.087 460.884 141.882 454.337 135.973L451.657 138.943C457.082 143.838 458.881 149.773 458.881 157.898H462.881ZM454.341 135.977C447.475 129.749 437.314 128.158 426.717 128.158V132.158C437.144 132.158 445.964 133.779 451.653 138.939L454.341 135.977ZM426.717 128.158C419.3 128.158 411.579 128.898 405.456 130.093L406.222 134.019C412.071 132.878 419.534 132.158 426.717 132.158V128.158ZM403.839 132.056V229H407.839V132.056H403.839ZM425.753 147.472C425.988 147.371 426.482 147.251 427.248 147.166C427.975 147.085 428.81 147.05 429.637 147.05V143.05C428.712 143.05 427.722 143.088 426.806 143.19C425.93 143.287 424.964 143.459 424.177 143.796L425.753 147.472ZM429.568 147.049C433.306 147.178 435.647 148.494 437.12 150.477C438.659 152.549 439.463 155.634 439.463 159.65H443.463C443.463 155.198 442.588 151.129 440.331 148.091C438.008 144.964 434.436 143.214 429.706 143.051L429.568 147.049ZM439.463 159.65C439.463 163.617 438.386 166.974 436.526 169.295C434.705 171.567 432.035 172.98 428.469 172.98V176.98C433.225 176.98 437.052 175.035 439.648 171.796C442.204 168.605 443.463 164.297 443.463 159.65H439.463ZM428.469 172.98H424.965V176.98H428.469V172.98ZM426.965 174.98V145.634H422.965V174.98H426.965Z" fill="#02B8FA"/>
</g>
<rect x="3" y="262" width="456.685" height="86" fill="white"/>
<path d="M68.138 321.675C67.088 322.2 65.888 322.425 64.463 322.425C59.888 322.425 57.113 318.375 57.113 311.775C57.113 305.4 59.888 300.9 64.613 300.9C66.263 300.9 67.463 301.275 68.288 301.575L69.563 293.85C68.588 293.4 66.488 292.875 64.163 292.875C54.038 292.875 47.363 300.75 47.363 312.075C47.363 324 53.438 330.45 62.738 330.45C65.513 330.45 67.988 329.85 68.963 329.4L68.138 321.675ZM85.7812 292.65C78.5062 292.65 71.6062 298.575 71.6062 311.775C71.6062 323.7 76.8562 330.6 85.6312 330.6C91.1812 330.6 99.6562 326.85 99.6562 311.55C99.6562 299.925 94.4812 292.65 85.7812 292.65ZM85.7062 300.15C89.0812 300.15 89.9062 306.525 89.9062 311.55C89.9062 316.95 89.0812 323.1 85.8562 323.1C82.3312 323.1 81.3562 317.85 81.3562 311.55C81.3562 306.525 82.1062 300.15 85.7062 300.15ZM105.181 330H115.006V307.65C115.006 306.225 115.231 305.025 115.531 304.275C116.206 302.1 117.556 300.975 119.206 300.975C122.056 300.975 122.806 303.975 122.806 307.05V330H132.631V306.45C132.631 298.275 129.856 292.725 122.881 292.725C119.056 292.725 115.906 294.675 114.031 297.525H113.881L113.356 293.325H104.881C105.031 296.85 105.181 300.375 105.181 304.35V330ZM197.86 330H185.26L182.236 320.865H174.109L170.14 312.486L164.281 330H151.681L168.502 279.6H181.102L197.86 330ZM178.267 309.021L174.802 298.5L171.274 309.021H178.267ZM243.29 330H229.745L213.176 304.737V330H201.269V279.6H228.359C230.375 279.6 232.244 280.062 233.966 280.986C235.73 281.868 237.242 283.065 238.502 284.577C239.762 286.089 240.749 287.853 241.463 289.869C242.219 291.843 242.597 293.922 242.597 296.106C242.597 298.164 242.408 299.991 242.03 301.587C241.652 303.183 241.064 304.611 240.266 305.871C239.468 307.131 238.46 308.244 237.242 309.21C236.024 310.134 234.596 310.974 232.958 311.73C232.874 311.772 232.79 311.835 232.706 311.919C232.622 312.003 232.496 312.087 232.328 312.171L243.29 330ZM231.257 296.547C231.257 295.161 230.795 293.943 229.871 292.893C228.947 291.843 227.813 291.318 226.469 291.318H213.113V301.713H226.973C227.519 301.713 228.044 301.545 228.548 301.209C229.094 300.873 229.556 300.453 229.934 299.949C230.354 299.445 230.669 298.899 230.879 298.311C231.131 297.681 231.257 297.093 231.257 296.547ZM289.737 279.6L283.941 291.444H267.876C267.288 291.444 266.637 291.633 265.923 292.011C265.251 292.347 264.6 292.809 263.97 293.397C263.34 293.943 262.773 294.552 262.269 295.224C261.807 295.896 261.492 296.526 261.324 297.114C260.568 299.76 260.19 301.398 260.19 302.028C260.19 312.78 263.256 318.156 269.388 318.156H289.674V330H268.191C267.813 330 267.162 329.916 266.238 329.748C265.356 329.58 264.201 329.328 262.773 328.992C261.009 328.614 259.308 327.858 257.67 326.724C256.074 325.59 254.625 324.246 253.323 322.692C252.063 321.096 250.992 319.353 250.11 317.463C249.228 315.531 248.661 313.578 248.409 311.604C248.031 308.706 247.842 306.522 247.842 305.052C247.842 301.272 248.367 297.828 249.417 294.72C250.509 291.57 252.021 288.882 253.953 286.656C255.927 284.43 258.279 282.708 261.009 281.49C263.739 280.23 266.784 279.6 270.144 279.6H289.737ZM336.875 330H323.456L304.304 299.823V330H291.893V279.6H305.816L324.464 309.84V279.6H336.875V330ZM379.271 279.6L373.664 291.381H354.449V298.752H373.727V310.533H354.449V318.219H376.688V330H341.912V279.6H379.271ZM424.792 279.6L418.996 291.255H407.971V330H395.938V291.255H382.456V279.6H424.792Z" fill="#208991"/>
<defs>
<filter id="filter0_d_186_9451" x="0.167969" y="130.158" width="467.779" height="106.842" filterUnits="userSpaceOnUse" color-interpolation-filters="sRGB">
<feFlood flood-opacity="0" result="BackgroundImageFix"/>
<feColorMatrix in="SourceAlpha" type="matrix" values="0 0 0 0 0 0 0 0 0 0 0 0 0 0 0 0 0 0 127 0" result="hardAlpha"/>
<feOffset dy="4"/>
<feGaussianBlur stdDeviation="2"/>
<feComposite in2="hardAlpha" operator="out"/>
<feColorMatrix type="matrix" values="0 0 0 0 0 0 0 0 0 0 0 0 0 0 0 0 0 0 0.25 0"/>
<feBlend mode="normal" in2="BackgroundImageFix" result="effect1_dropShadow_186_9451"/>
<feBlend mode="normal" in="SourceGraphic" in2="effect1_dropShadow_186_9451" result="shape"/>
</filter>
</defs>
</svg>
