<svg xmlns="http://www.w3.org/2000/svg" width="1920" height="2634" viewBox="0 0 1920 2634" fill="none">
<path opacity="0.05" d="M838.666 1466V1473.14H848.56L845.439 1463.75L838.666 1466ZM735.892 1466L729.117 1468.24L730.737 1473.14H735.892V1466ZM711.227 1391.49L718.002 1389.25L716.382 1384.35H711.227V1391.49ZM644.937 1391.49L638.487 1394.54L640.421 1398.63H644.937V1391.49ZM612.564 1323.14L619.014 1320.09L611.422 1304.06L605.795 1320.88L612.564 1323.14ZM564.774 1466V1473.14H569.912L571.542 1468.26L564.774 1466ZM462 1466L455.23 1463.74L452.094 1473.14H462V1466ZM599.203 1054.91V1047.77H594.061L592.433 1052.65L599.203 1054.91ZM701.977 1054.91L708.749 1052.65L707.125 1047.77H701.977V1054.91ZM678.853 1294.88V1302.02H688.717L685.632 1292.65L678.853 1294.88ZM650.59 1209.07L657.369 1206.83L650.651 1186.44L643.823 1206.8L650.59 1209.07ZM621.813 1294.88L615.047 1292.61L611.892 1302.02H621.813V1294.88ZM838.666 1458.86H735.892V1473.14H838.666V1458.86ZM742.668 1463.76L718.002 1389.25L704.451 1393.73L729.117 1468.24L742.668 1463.76ZM711.227 1384.35H644.937V1398.63H711.227V1384.35ZM651.387 1388.43L619.014 1320.09L606.114 1326.2L638.487 1394.54L651.387 1388.43ZM605.795 1320.88L558.005 1463.74L571.542 1468.26L619.332 1325.41L605.795 1320.88ZM564.774 1458.86H462V1473.14H564.774V1458.86ZM468.77 1468.26L605.973 1057.16L592.433 1052.65L455.23 1463.74L468.77 1468.26ZM599.203 1062.04H701.977V1047.77H599.203V1062.04ZM695.204 1057.16L831.894 1468.25L845.439 1463.75L708.749 1052.65L695.204 1057.16ZM685.632 1292.65L657.369 1206.83L643.811 1211.3L672.074 1297.11L685.632 1292.65ZM643.823 1206.8L615.047 1292.61L628.58 1297.15L657.357 1211.34L643.823 1206.8ZM621.813 1302.02H678.853V1287.74H621.813V1302.02ZM1209.22 1466V1473.14H1221.99L1215.3 1462.26L1209.22 1466ZM1098.74 1466L1092.77 1469.91L1094.89 1473.14H1098.74V1466ZM963.592 1259.94L969.56 1256.02L956.455 1236.04V1259.94H963.592ZM963.592 1466V1473.14H970.73V1466H963.592ZM866.471 1466H859.334V1473.14H866.471V1466ZM866.471 1054.91V1047.77H859.334V1054.91H866.471ZM1133.17 1066.21L1129.79 1072.5L1129.89 1072.55L1129.98 1072.59L1133.17 1066.21ZM1170.17 1095.5L1164.69 1100.07V1100.07L1170.17 1095.5ZM1194.32 1138.67L1187.59 1141.05L1187.62 1141.13L1187.65 1141.22L1194.32 1138.67ZM1198.94 1234.25L1192 1232.6L1198.94 1234.25ZM1159.89 1296.42L1164.2 1302.11L1164.27 1302.06L1164.33 1302.02L1159.89 1296.42ZM1124.95 1316.98L1121.96 1310.5L1121.86 1310.54L1121.76 1310.59L1124.95 1316.98ZM1122.89 1318.52L1127.94 1323.57L1122.89 1318.52ZM1119.81 1320.58L1116.62 1314.19L1109.65 1317.68L1113.73 1324.31L1119.81 1320.58ZM1099.77 1163.33L1105.13 1158.62L1099.77 1163.33ZM963.079 1150.48V1143.35H955.942V1150.48H963.079ZM963.079 1235.27H955.942V1242.41H963.079V1235.27ZM1088.98 1231.16L1085.24 1225.08L1085.13 1225.15L1085.02 1225.22L1088.98 1231.16ZM1100.28 1220.88L1094.8 1216.32L1094.68 1216.46L1094.57 1216.6L1100.28 1220.88ZM1107.99 1207.52L1101.36 1204.87L1101.31 1205L1101.27 1205.12L1107.99 1207.52ZM1209.22 1458.86H1098.74V1473.14H1209.22V1458.86ZM1104.71 1462.09L969.56 1256.02L957.624 1263.85L1092.77 1469.91L1104.71 1462.09ZM956.455 1259.94V1466H970.73V1259.94H956.455ZM963.592 1458.86H866.471V1473.14H963.592V1458.86ZM873.608 1466V1054.91H859.334V1466H873.608ZM866.471 1062.04H1087.43V1047.77H866.471V1062.04ZM1087.43 1062.04C1102.74 1062.04 1116.82 1065.54 1129.79 1072.5L1136.54 1059.92C1121.43 1051.81 1105.02 1047.77 1087.43 1047.77V1062.04ZM1129.98 1072.59C1143.49 1079.35 1155.04 1088.5 1164.69 1100.07L1175.65 1090.93C1164.74 1077.84 1151.63 1067.46 1136.36 1059.83L1129.98 1072.59ZM1164.69 1100.07C1174.38 1111.7 1182.03 1125.33 1187.59 1141.05L1201.05 1136.28C1194.97 1119.11 1186.51 1103.97 1175.65 1090.93L1164.69 1100.07ZM1187.65 1141.22C1193.5 1156.48 1196.43 1172.57 1196.43 1189.54H1210.71C1210.71 1170.88 1207.47 1153.06 1200.98 1136.11L1187.65 1141.22ZM1196.43 1189.54C1196.43 1205.9 1194.93 1220.24 1192 1232.6L1205.89 1235.89C1209.13 1222.22 1210.71 1206.75 1210.71 1189.54H1196.43ZM1192 1232.6C1189.08 1244.92 1184.57 1255.82 1178.53 1265.37L1190.59 1273.01C1197.56 1262 1202.64 1249.6 1205.89 1235.89L1192 1232.6ZM1178.53 1265.37C1172.46 1274.94 1164.79 1283.43 1155.46 1290.83L1164.33 1302.02C1174.86 1293.66 1183.63 1283.99 1190.59 1273.01L1178.53 1265.37ZM1155.58 1290.74C1146.12 1297.91 1134.93 1304.51 1121.96 1310.5L1127.94 1323.46C1141.69 1317.11 1153.79 1310.01 1164.2 1302.11L1155.58 1290.74ZM1121.76 1310.59C1120.23 1311.36 1118.94 1312.38 1117.85 1313.47L1127.94 1323.57C1128.07 1323.43 1128.16 1323.36 1128.2 1323.33C1128.24 1323.3 1128.22 1323.32 1128.14 1323.36L1121.76 1310.59ZM1117.85 1313.47C1117.91 1313.41 1117.87 1313.46 1117.65 1313.61C1117.43 1313.75 1117.1 1313.95 1116.62 1314.19L1123 1326.96C1124.71 1326.11 1126.49 1325.02 1127.94 1323.57L1117.85 1313.47ZM1113.73 1324.31L1203.14 1469.74L1215.3 1462.26L1125.89 1316.84L1113.73 1324.31ZM1118.21 1193.14C1118.21 1180.08 1113.8 1168.47 1105.13 1158.62L1094.41 1168.05C1100.81 1175.32 1103.94 1183.58 1103.94 1193.14H1118.21ZM1105.13 1158.62C1096.3 1148.58 1085.13 1143.35 1072.02 1143.35V1157.62C1080.84 1157.62 1088.17 1160.95 1094.41 1168.05L1105.13 1158.62ZM1072.02 1143.35H963.079V1157.62H1072.02V1143.35ZM955.942 1150.48V1235.27H970.216V1150.48H955.942ZM963.079 1242.41H1076.13V1228.14H963.079V1242.41ZM1076.13 1242.41C1082.14 1242.41 1087.79 1240.53 1092.94 1237.1L1085.02 1225.22C1081.95 1227.27 1079.02 1228.14 1076.13 1228.14V1242.41ZM1092.72 1237.24C1097.92 1234.04 1102.36 1230.01 1105.99 1225.17L1094.57 1216.6C1092.04 1219.98 1088.94 1222.8 1085.24 1225.08L1092.72 1237.24ZM1105.76 1225.45C1109.7 1220.73 1112.7 1215.55 1114.71 1209.92L1101.27 1205.12C1099.85 1209.09 1097.72 1212.82 1094.8 1216.32L1105.76 1225.45ZM1114.62 1210.17C1116.93 1204.39 1118.21 1198.69 1118.21 1193.14H1103.94C1103.94 1196.49 1103.16 1200.38 1101.36 1204.87L1114.62 1210.17ZM1588.08 1054.91L1594.49 1058.04L1599.51 1047.77H1588.08V1054.91ZM1540.8 1151.51V1158.65H1545.25L1547.21 1154.65L1540.8 1151.51ZM1393.83 1156.14L1397.03 1162.52L1397.1 1162.48L1397.17 1162.45L1393.83 1156.14ZM1377.9 1167.44L1382.58 1172.84L1382.68 1172.75L1382.77 1172.66L1377.9 1167.44ZM1364.03 1182.34L1358.32 1178.06L1358.23 1178.18L1358.15 1178.3L1364.03 1182.34ZM1356.32 1197.76L1363.18 1199.72L1356.32 1197.76ZM1587.56 1369.39H1594.7V1362.26H1587.56V1369.39ZM1587.56 1466V1473.14H1594.7V1466H1587.56ZM1396.4 1463.95L1395.07 1470.96L1395.1 1470.96L1395.13 1470.97L1396.4 1463.95ZM1368.14 1457.78L1369.77 1450.83L1369.71 1450.81L1369.64 1450.8L1368.14 1457.78ZM1326.52 1439.28L1322.38 1445.1L1322.42 1445.12L1322.45 1445.15L1326.52 1439.28ZM1291.06 1406.39L1285.46 1410.81L1285.52 1410.9L1285.59 1410.98L1291.06 1406.39ZM1264.85 1363.74L1258.36 1366.7L1258.37 1366.73L1258.38 1366.76L1264.85 1363.74ZM1250.98 1315.95L1258.06 1315.05L1258.06 1315.04L1258.05 1315.03L1250.98 1315.95ZM1259.2 1178.23L1252.46 1175.9L1252.45 1175.92L1252.44 1175.95L1259.2 1178.23ZM1296.2 1112.46L1290.86 1107.72L1290.83 1107.75L1290.81 1107.78L1296.2 1112.46ZM1353.75 1070.32L1356.66 1076.84L1356.7 1076.82L1356.74 1076.8L1353.75 1070.32ZM1581.67 1051.77L1534.39 1148.38L1547.21 1154.65L1594.49 1058.04L1581.67 1051.77ZM1540.8 1144.38H1409.76V1158.65H1540.8V1144.38ZM1409.76 1144.38C1403.45 1144.38 1396.98 1146.4 1390.49 1149.83L1397.17 1162.45C1402.33 1159.71 1406.48 1158.65 1409.76 1158.65V1144.38ZM1390.64 1149.75C1384.47 1152.84 1378.6 1157.03 1373.03 1162.22L1382.77 1172.66C1387.48 1168.26 1392.24 1164.91 1397.03 1162.52L1390.64 1149.75ZM1373.23 1162.05C1367.7 1166.84 1362.73 1172.18 1358.32 1178.06L1369.74 1186.63C1373.55 1181.55 1377.83 1176.95 1382.58 1172.84L1373.23 1162.05ZM1358.15 1178.3C1354.08 1184.22 1351.1 1190.06 1349.46 1195.8L1363.18 1199.72C1364.28 1195.87 1366.44 1191.43 1369.91 1186.39L1358.15 1178.3ZM1349.46 1195.8C1346.36 1206.65 1344.01 1215.51 1342.43 1222.36C1340.9 1228.98 1339.93 1234.35 1339.93 1237.84H1354.21C1354.21 1236.2 1354.78 1232.32 1356.34 1225.57C1357.84 1219.06 1360.12 1210.46 1363.18 1199.72L1349.46 1195.8ZM1339.93 1237.84C1339.93 1282.14 1346.21 1316.51 1359.63 1340.04C1373.39 1364.17 1394.5 1376.53 1422.1 1376.53V1362.26C1399.68 1362.26 1383.28 1352.69 1372.03 1332.97C1360.44 1312.65 1354.21 1281.25 1354.21 1237.84H1339.93ZM1422.1 1376.53H1587.56V1362.26H1422.1V1376.53ZM1580.43 1369.39V1466H1594.7V1369.39H1580.43ZM1587.56 1458.86H1412.33V1473.14H1587.56V1458.86ZM1412.33 1458.86C1409.97 1458.86 1405.23 1458.3 1397.68 1456.92L1395.13 1470.97C1402.65 1472.33 1408.53 1473.14 1412.33 1473.14V1458.86ZM1397.74 1456.93C1390.69 1455.59 1381.38 1453.56 1369.77 1450.83L1366.51 1464.73C1378.2 1467.48 1387.73 1469.56 1395.07 1470.96L1397.74 1456.93ZM1369.64 1450.8C1356.26 1447.93 1343.25 1442.18 1330.58 1433.41L1322.45 1445.15C1336.51 1454.88 1351.24 1461.46 1366.64 1464.76L1369.64 1450.8ZM1330.65 1433.46C1318.15 1424.58 1306.77 1414.03 1296.53 1401.81L1285.59 1410.98C1296.59 1424.1 1308.85 1435.48 1322.38 1445.1L1330.65 1433.46ZM1296.66 1401.97C1286.73 1389.4 1278.29 1375.65 1271.32 1360.72L1258.38 1366.76C1265.81 1382.66 1274.83 1397.35 1285.46 1410.81L1296.66 1401.97ZM1271.34 1360.78C1264.43 1345.63 1260.02 1330.39 1258.06 1315.05L1243.9 1316.85C1246.05 1333.71 1250.89 1350.34 1258.36 1366.7L1271.34 1360.78ZM1258.05 1315.03C1254.98 1291.46 1253.49 1274.02 1253.49 1262.51H1239.22C1239.22 1274.98 1240.81 1293.17 1243.9 1316.87L1258.05 1315.03ZM1253.49 1262.51C1253.49 1232.34 1257.68 1205.03 1265.96 1180.52L1252.44 1175.95C1243.59 1202.14 1239.22 1231.02 1239.22 1262.51H1253.49ZM1265.94 1180.57C1274.59 1155.63 1286.5 1134.52 1301.59 1117.14L1290.81 1107.78C1274.38 1126.71 1261.62 1149.46 1252.46 1175.9L1265.94 1180.57ZM1301.54 1117.19C1316.96 1099.8 1335.32 1086.36 1356.66 1076.84L1350.84 1063.8C1327.65 1074.15 1307.64 1088.8 1290.86 1107.72L1301.54 1117.19ZM1356.74 1076.8C1377.97 1067.01 1401.77 1062.04 1428.26 1062.04V1047.77C1399.95 1047.77 1374.07 1053.08 1350.76 1063.84L1356.74 1076.8ZM1428.26 1062.04H1588.08V1047.77H1428.26V1062.04Z" fill="#21A497"/>
<path opacity="0.02" d="M2020.79 1466V1473.14H2027.93V1466H2020.79ZM1911.34 1466L1905.31 1469.82L1907.42 1473.14H1911.34V1466ZM1755.12 1219.86L1761.15 1216.03L1747.99 1195.29V1219.86H1755.12ZM1755.12 1466V1473.14H1762.26V1466H1755.12ZM1653.89 1466H1646.75V1473.14H1653.89V1466ZM1653.89 1054.9V1047.77H1646.75V1054.9H1653.89ZM1767.46 1054.9L1773.53 1051.16L1771.44 1047.77H1767.46V1054.9ZM1919.56 1301.56L1913.49 1305.31L1926.7 1326.73V1301.56H1919.56ZM1919.56 1054.9V1047.77H1912.42V1054.9H1919.56ZM2020.79 1054.9H2027.93V1047.77H2020.79V1054.9ZM2020.79 1458.86H1911.34V1473.14H2020.79V1458.86ZM1917.37 1462.18L1761.15 1216.03L1749.1 1223.68L1905.31 1469.82L1917.37 1462.18ZM1747.99 1219.86V1466H1762.26V1219.86H1747.99ZM1755.12 1458.86H1653.89V1473.14H1755.12V1458.86ZM1661.03 1466V1054.9H1646.75V1466H1661.03ZM1653.89 1062.04H1767.46V1047.77H1653.89V1062.04ZM1761.38 1058.65L1913.49 1305.31L1925.64 1297.82L1773.53 1051.16L1761.38 1058.65ZM1926.7 1301.56V1054.9H1912.42V1301.56H1926.7ZM1919.56 1062.04H2020.79V1047.77H1919.56V1062.04ZM2013.66 1054.9V1466H2027.93V1054.9H2013.66ZM2366.6 1054.9L2373.04 1057.97L2377.9 1047.77H2366.6V1054.9ZM2320.87 1151V1158.14H2325.37L2327.31 1154.07L2320.87 1151ZM2063.42 1151H2056.28V1158.14H2063.42V1151ZM2063.42 1054.9V1047.77H2056.28V1054.9H2063.42ZM2321.38 1307.21V1314.35H2328.52V1307.21H2321.38ZM2063.42 1307.21H2056.28V1314.35H2063.42V1307.21ZM2063.42 1211.12V1203.98H2056.28V1211.12H2063.42ZM2321.38 1211.12H2328.52V1203.98H2321.38V1211.12ZM2345.53 1466V1473.14H2352.67V1466H2345.53ZM2061.88 1466H2054.74V1473.14H2061.88V1466ZM2061.88 1369.91V1362.77H2054.74V1369.91H2061.88ZM2345.53 1369.91H2352.67V1362.77H2345.53V1369.91ZM2360.16 1051.84L2314.42 1147.93L2327.31 1154.07L2373.04 1057.97L2360.16 1051.84ZM2320.87 1143.86H2063.42V1158.14H2320.87V1143.86ZM2070.55 1151V1054.9H2056.28V1151H2070.55ZM2063.42 1062.04H2366.6V1047.77H2063.42V1062.04ZM2321.38 1300.08H2063.42V1314.35H2321.38V1300.08ZM2070.55 1307.21V1211.12H2056.28V1307.21H2070.55ZM2063.42 1218.26H2321.38V1203.98H2063.42V1218.26ZM2314.24 1211.12V1307.21H2328.52V1211.12H2314.24ZM2345.53 1458.86H2061.88V1473.14H2345.53V1458.86ZM2069.01 1466V1369.91H2054.74V1466H2069.01ZM2061.88 1377.04H2345.53V1362.77H2061.88V1377.04ZM2338.39 1369.91V1466H2352.67V1369.91H2338.39ZM2732.38 1054.9L2738.77 1058.08L2743.9 1047.77H2732.38V1054.9ZM2685.1 1149.97V1157.11H2689.52L2691.49 1153.15L2685.1 1149.97ZM2595.17 1149.97V1142.83H2588.04V1149.97H2595.17ZM2595.17 1466V1473.14H2602.31V1466H2595.17ZM2497.03 1466H2489.89V1473.14H2497.03V1466ZM2497.03 1149.97H2504.16V1142.83H2497.03V1149.97ZM2387.06 1149.97H2379.92V1157.11H2387.06V1149.97ZM2387.06 1054.9V1047.77H2379.92V1054.9H2387.06ZM2725.99 1051.73L2678.71 1146.79L2691.49 1153.15L2738.77 1058.08L2725.99 1051.73ZM2685.1 1142.83H2595.17V1157.11H2685.1V1142.83ZM2588.04 1149.97V1466H2602.31V1149.97H2588.04ZM2595.17 1458.86H2497.03V1473.14H2595.17V1458.86ZM2504.16 1466V1149.97H2489.89V1466H2504.16ZM2497.03 1142.83H2387.06V1157.11H2497.03V1142.83ZM2394.2 1149.97V1054.9H2379.92V1149.97H2394.2ZM2387.06 1062.04H2732.38V1047.77H2387.06V1062.04Z" fill="black"/>
<path fill-rule="evenodd" clip-rule="evenodd" d="M1818.76 1464H2268V2413H1344L1818.76 1464Z" fill="url(#paint0_linear_186_9451)"/>
<path fill-rule="evenodd" clip-rule="evenodd" d="M0 169H408.5L0 788V169Z" fill="url(#paint1_linear_186_9451)"/>
<path fill-rule="evenodd" clip-rule="evenodd" d="M2010.5 2415H1602L2010.5 1796V2415Z" fill="url(#paint2_linear_186_9451)"/>
<path fill-rule="evenodd" clip-rule="evenodd" d="M1723.76 194H2173V1143H1249L1723.76 194Z" fill="url(#paint3_linear_186_9451)"/>
<path fill-rule="evenodd" clip-rule="evenodd" d="M1976 267.5L1938.95 193H1843.05L1806 267.5L1843.05 342H1938.95L1976 267.5Z" stroke="#21A497" stroke-opacity="0.176471" stroke-width="1.33333" stroke-miterlimit="800"/>
<path fill-rule="evenodd" clip-rule="evenodd" d="M1976 415.5L1938.95 341H1843.05L1806 415.5L1843.05 490H1938.95L1976 415.5Z" stroke="#21A497" stroke-opacity="0.176471" stroke-width="1.33333" stroke-miterlimit="800"/>
<path fill-rule="evenodd" clip-rule="evenodd" d="M1976 859L1938.95 785H1843.05L1806 859L1843.05 933H1938.95L1976 859Z" stroke="#21A497" stroke-opacity="0.176471" stroke-width="1.33333" stroke-miterlimit="800"/>
<path fill-rule="evenodd" clip-rule="evenodd" d="M1843 341L1805.95 267H1710.05L1673 341L1710.05 415H1805.95L1843 341Z" stroke="#21A497" stroke-opacity="0.176471" stroke-width="1.33333" stroke-miterlimit="800"/>
<path fill-rule="evenodd" clip-rule="evenodd" d="M1843 489L1805.95 415H1710.05L1673 489L1710.05 563H1805.95L1843 489Z" stroke="#21A497" stroke-opacity="0.176471" stroke-width="1.33333" stroke-miterlimit="800"/>
<path fill-rule="evenodd" clip-rule="evenodd" d="M1843 637L1805.95 563H1710.05L1673 637L1710.05 711H1805.95L1843 637Z" stroke="#21A497" stroke-opacity="0.176471" stroke-width="1.33333" stroke-miterlimit="800"/>
<path fill-rule="evenodd" clip-rule="evenodd" d="M1843 785L1805.95 711H1710.05L1673 785L1710.05 859H1805.95L1843 785Z" stroke="#21A497" stroke-opacity="0.176471" stroke-width="1.33333" stroke-miterlimit="800"/>
<path fill-rule="evenodd" clip-rule="evenodd" d="M1843 933L1805.95 859H1710.05L1673 933L1710.05 1007H1805.95L1843 933Z" stroke="#21A497" stroke-opacity="0.176471" stroke-width="1.33333" stroke-miterlimit="800"/>
<path fill-rule="evenodd" clip-rule="evenodd" d="M1710 268L1672.95 194H1577.05L1540 268L1577.05 342H1672.95L1710 268Z" stroke="#21A497" stroke-opacity="0.176471" stroke-width="1.33333" stroke-miterlimit="800"/>
<path fill-rule="evenodd" clip-rule="evenodd" d="M1710 416L1672.95 342H1577.05L1540 416L1577.05 490H1672.95L1710 416Z" stroke="#21A497" stroke-opacity="0.176471" stroke-width="1.33333" stroke-miterlimit="800"/>
<path fill-rule="evenodd" clip-rule="evenodd" d="M1710 564L1672.95 490H1577.05L1540 564L1577.05 638H1672.95L1710 564Z" stroke="#21A497" stroke-opacity="0.176471" stroke-width="1.33333" stroke-miterlimit="800"/>
<path fill-rule="evenodd" clip-rule="evenodd" d="M1710 712L1672.95 638H1577.05L1540 712L1577.05 786H1672.95L1710 712Z" stroke="#21A497" stroke-opacity="0.176471" stroke-width="1.33333" stroke-miterlimit="800"/>
<path fill-rule="evenodd" clip-rule="evenodd" d="M1710 860L1672.95 786H1577.05L1540 860L1577.05 934H1672.95L1710 860Z" stroke="#21A497" stroke-opacity="0.176471" stroke-width="1.33333" stroke-miterlimit="800"/>
<path fill-rule="evenodd" clip-rule="evenodd" d="M1577 342L1539.95 268H1444.05L1407 342L1444.05 416H1539.95L1577 342Z" stroke="#21A497" stroke-opacity="0.176471" stroke-width="1.33333" stroke-miterlimit="800"/>
<path fill-rule="evenodd" clip-rule="evenodd" d="M1577 490L1539.95 416H1444.05L1407 490L1444.05 564H1539.95L1577 490Z" stroke="#21A497" stroke-opacity="0.176471" stroke-width="1.33333" stroke-miterlimit="800"/>
<path fill-rule="evenodd" clip-rule="evenodd" d="M1577 786L1539.95 712H1444.05L1407 786L1444.05 860H1539.95L1577 786Z" stroke="#21A497" stroke-opacity="0.176471" stroke-width="1.33333" stroke-miterlimit="800"/>
<g opacity="0.02">
<path d="M-570.334 463V470.137H-560.44L-563.561 460.748L-570.334 463ZM-673.108 463L-679.883 465.243L-678.263 470.137H-673.108V463ZM-697.773 388.489L-690.998 386.246L-692.618 381.352H-697.773V388.489ZM-764.063 388.489L-770.513 391.544L-768.579 395.626H-764.063V388.489ZM-796.436 320.144L-789.986 317.089L-797.578 301.061L-803.205 317.88L-796.436 320.144ZM-844.226 463V470.137H-839.088L-837.458 465.264L-844.226 463ZM-947 463L-953.77 460.741L-956.906 470.137H-947V463ZM-809.797 51.9047V44.7676H-814.939L-816.567 49.6452L-809.797 51.9047ZM-707.023 51.9047L-700.251 49.6528L-701.875 44.7676H-707.023V51.9047ZM-730.147 291.882V299.019H-720.283L-723.368 289.649L-730.147 291.882ZM-758.41 206.065L-751.631 203.833L-758.349 183.435L-765.177 203.796L-758.41 206.065ZM-787.187 291.882L-793.953 289.612L-797.108 299.019H-787.187V291.882ZM-570.334 455.863H-673.108V470.137H-570.334V455.863ZM-666.332 460.757L-690.998 386.246L-704.549 390.732L-679.883 465.243L-666.332 460.757ZM-697.773 381.352H-764.063V395.626H-697.773V381.352ZM-757.613 385.434L-789.986 317.089L-802.886 323.2L-770.513 391.544L-757.613 385.434ZM-803.205 317.88L-850.995 460.736L-837.458 465.264L-789.668 322.409L-803.205 317.88ZM-844.226 455.863H-947V470.137H-844.226V455.863ZM-940.23 465.259L-803.027 54.1642L-816.567 49.6452L-953.77 460.741L-940.23 465.259ZM-809.797 59.0418H-707.023V44.7676H-809.797V59.0418ZM-713.796 54.1565L-577.106 465.252L-563.561 460.748L-700.251 49.6528L-713.796 54.1565ZM-723.368 289.649L-751.631 203.833L-765.189 208.298L-736.926 294.114L-723.368 289.649ZM-765.177 203.796L-793.953 289.612L-780.42 294.151L-751.643 208.335L-765.177 203.796ZM-787.187 299.019H-730.147V284.745H-787.187V299.019ZM-199.778 463V470.137H-187.012L-193.698 459.262L-199.778 463ZM-310.26 463L-316.228 466.914L-314.114 470.137H-310.26V463ZM-445.408 256.938L-439.44 253.024L-452.545 233.043V256.938H-445.408ZM-445.408 463V470.137H-438.27V463H-445.408ZM-542.529 463H-549.666V470.137H-542.529V463ZM-542.529 51.9047V44.7676H-549.666V51.9047H-542.529ZM-275.831 63.2098L-279.205 69.4987L-279.115 69.5473L-279.022 69.5934L-275.831 63.2098ZM-238.832 92.5003L-244.315 97.0694V97.0694L-238.832 92.5003ZM-214.68 135.665L-221.408 138.048L-221.378 138.133L-221.345 138.218L-214.68 135.665ZM-210.055 231.245L-217 229.6L-210.055 231.245ZM-249.109 293.423L-244.796 299.109L-244.735 299.063L-244.675 299.015L-249.109 293.423ZM-284.053 313.978L-287.043 307.498L-287.145 307.544L-287.244 307.594L-284.053 313.978ZM-286.108 315.52L-281.061 320.566L-286.108 315.52ZM-289.191 317.575L-292.383 311.191L-299.352 314.676L-295.271 321.313L-289.191 317.575ZM-309.232 160.331L-303.874 155.616L-309.232 160.331ZM-445.921 147.484V140.347H-453.058V147.484H-445.921ZM-445.921 232.273H-453.058V239.41H-445.921V232.273ZM-320.023 228.162L-323.764 222.083L-323.874 222.151L-323.982 222.223L-320.023 228.162ZM-308.718 217.884L-314.201 213.315L-314.318 213.456L-314.428 213.602L-308.718 217.884ZM-301.01 204.524L-307.637 201.873L-307.687 201.997L-307.732 202.123L-301.01 204.524ZM-199.778 455.863H-310.26V470.137H-199.778V455.863ZM-304.292 459.086L-439.44 253.024L-451.376 260.853L-316.228 466.914L-304.292 459.086ZM-452.545 256.938V463H-438.27V256.938H-452.545ZM-445.408 455.863H-542.529V470.137H-445.408V455.863ZM-535.392 463V51.9047H-549.666V463H-535.392ZM-542.529 59.0418H-321.565V44.7676H-542.529V59.0418ZM-321.565 59.0418C-306.26 59.0418 -292.18 62.5367 -279.205 69.4987L-272.456 56.9209C-287.573 48.8094 -303.982 44.7676 -321.565 44.7676V59.0418ZM-279.022 69.5934C-265.513 76.3481 -253.961 85.4945 -244.315 97.0694L-233.349 87.9313C-244.258 74.8404 -257.372 64.4598 -272.639 56.8262L-279.022 69.5934ZM-244.315 97.0694C-234.624 108.699 -226.974 122.332 -221.408 138.048L-207.953 133.283C-214.034 116.111 -222.486 100.968 -233.349 87.9313L-244.315 97.0694ZM-221.345 138.218C-215.501 153.477 -212.568 169.567 -212.568 186.538H-198.294C-198.294 167.881 -201.526 150.056 -208.015 133.113L-221.345 138.218ZM-212.568 186.538C-212.568 202.904 -214.072 217.237 -217 229.6L-203.11 232.89C-199.872 219.217 -198.294 203.745 -198.294 186.538H-212.568ZM-217 229.6C-219.919 241.924 -224.428 252.824 -230.473 262.369L-218.414 270.007C-211.442 258.997 -206.358 246.602 -203.11 232.89L-217 229.6ZM-230.473 262.369C-236.536 271.942 -244.21 280.428 -253.544 287.831L-244.675 299.015C-234.139 290.66 -225.37 280.989 -218.414 270.007L-230.473 262.369ZM-253.423 287.737C-262.881 294.912 -274.07 301.51 -287.043 307.498L-281.062 320.458C-267.314 314.113 -255.207 307.007 -244.796 299.109L-253.423 287.737ZM-287.244 307.594C-288.77 308.357 -290.064 309.382 -291.155 310.473L-281.061 320.566C-280.927 320.432 -280.838 320.36 -280.798 320.33C-280.759 320.3 -280.779 320.32 -280.861 320.361L-287.244 307.594ZM-291.155 310.473C-291.089 310.407 -291.128 310.46 -291.352 310.609C-291.569 310.754 -291.903 310.951 -292.383 311.191L-285.999 323.959C-284.293 323.106 -282.51 322.015 -281.061 320.566L-291.155 310.473ZM-295.271 321.313L-205.858 466.738L-193.698 459.262L-283.111 313.837L-295.271 321.313ZM-290.79 190.135C-290.79 177.077 -295.202 165.47 -303.874 155.616L-314.59 165.046C-308.188 172.321 -305.064 180.583 -305.064 190.135H-290.79ZM-303.874 155.616C-312.703 145.583 -323.874 140.347 -336.981 140.347V154.621C-328.163 154.621 -320.835 157.95 -314.59 165.046L-303.874 155.616ZM-336.981 140.347H-445.921V154.621H-336.981V140.347ZM-453.058 147.484V232.273H-438.784V147.484H-453.058ZM-445.921 239.41H-332.87V225.136H-445.921V239.41ZM-332.87 239.41C-326.856 239.41 -321.215 237.534 -316.065 234.1L-323.982 222.223C-327.054 224.271 -329.978 225.136 -332.87 225.136V239.41ZM-316.283 234.24C-311.08 231.038 -306.639 227.007 -303.009 222.167L-314.428 213.602C-316.964 216.983 -320.06 219.804 -323.764 222.083L-316.283 234.24ZM-303.235 222.453C-299.3 217.731 -296.298 212.55 -294.289 206.924L-307.732 202.123C-309.148 206.09 -311.285 209.816 -314.201 213.315L-303.235 222.453ZM-294.384 207.174C-292.07 201.39 -290.79 195.688 -290.79 190.135H-305.064C-305.064 193.49 -305.84 197.38 -307.637 201.873L-294.384 207.174ZM179.076 51.9047L185.487 55.0418L190.514 44.7676H179.076V51.9047ZM131.8 148.512V155.649H136.253L138.211 151.649L131.8 148.512ZM-15.1665 153.137L-11.9747 159.52L-11.9005 159.483L-11.8272 159.445L-15.1665 153.137ZM-31.0965 164.442L-26.4222 169.835L-26.3228 169.749L-26.2267 169.66L-31.0965 164.442ZM-44.9709 179.344L-50.6806 175.062L-50.7689 175.18L-50.8522 175.301L-44.9709 179.344ZM-52.679 194.76L-45.8165 196.721L-52.679 194.76ZM178.562 366.393H185.699V359.256H178.562V366.393ZM178.562 463V470.137H185.699V463H178.562ZM-12.5972 460.945L-13.9326 467.956L-13.9033 467.961L-13.8739 467.966L-12.5972 460.945ZM-40.86 454.778L-39.2253 447.831L-39.2948 447.814L-39.3646 447.799L-40.86 454.778ZM-82.4834 436.279L-86.6172 442.097L-86.5817 442.122L-86.5459 442.147L-82.4834 436.279ZM-117.94 403.391L-123.542 407.814L-123.478 407.895L-123.411 407.975L-117.94 403.391ZM-144.148 360.74L-150.64 363.704L-150.628 363.731L-150.615 363.758L-144.148 360.74ZM-158.022 312.95L-150.943 312.046L-150.944 312.037L-150.945 312.027L-158.022 312.95ZM-149.8 175.233L-156.544 172.896L-156.553 172.922L-156.562 172.949L-149.8 175.233ZM-112.802 109.458L-118.142 104.723L-118.167 104.751L-118.192 104.78L-112.802 109.458ZM-55.2483 67.3207L-52.3404 73.8385L-52.2988 73.82L-52.2574 73.8009L-55.2483 67.3207ZM172.665 48.7676L125.389 145.375L138.211 151.649L185.487 55.0418L172.665 48.7676ZM131.8 141.375H0.763428V155.649H131.8V141.375ZM0.763428 141.375C-5.54993 141.375 -12.0187 143.395 -18.5059 146.829L-11.8272 159.445C-6.66669 156.713 -2.51544 155.649 0.763428 155.649V141.375ZM-18.3583 146.753C-24.5342 149.841 -30.399 154.028 -35.9662 159.224L-26.2267 169.66C-21.5165 165.263 -16.7614 161.914 -11.9747 159.52L-18.3583 146.753ZM-35.7708 159.049C-41.296 163.837 -46.2673 169.178 -50.6806 175.062L-39.2613 183.626C-35.4526 178.548 -31.1743 173.954 -26.4222 169.835L-35.7708 159.049ZM-50.8522 175.301C-54.9215 181.22 -57.9015 187.06 -59.5414 192.8L-45.8165 196.721C-44.7158 192.869 -42.5571 188.431 -39.0897 183.388L-50.8522 175.301ZM-59.5414 192.8C-62.6401 203.645 -64.9896 212.512 -66.5705 219.363C-68.0969 225.977 -69.0657 231.35 -69.0657 234.842H-54.7916C-54.7916 233.196 -54.2188 229.319 -52.6619 222.572C-51.1595 216.062 -48.8843 207.458 -45.8165 196.721L-59.5414 192.8ZM-69.0657 234.842C-69.0657 279.137 -62.7912 313.511 -49.3721 337.041C-35.6127 361.167 -14.5048 373.53 13.0963 373.53V359.256C-9.31927 359.256 -25.7238 349.693 -36.9727 329.969C-48.5619 309.648 -54.7916 278.248 -54.7916 234.842H-69.0657ZM13.0963 373.53H178.562V359.256H13.0963V373.53ZM171.425 366.393V463H185.699V366.393H171.425ZM178.562 455.863H3.33276V470.137H178.562V455.863ZM3.33276 455.863C0.96637 455.863 -3.76727 455.296 -11.3204 453.923L-13.8739 467.966C-6.35358 469.334 -0.467285 470.137 3.33276 470.137V455.863ZM-11.2617 453.934C-18.3133 452.59 -27.6234 450.561 -39.2253 447.831L-42.4946 461.725C-30.8012 464.477 -21.2694 466.558 -13.9326 467.956L-11.2617 453.934ZM-39.3646 447.799C-52.7407 444.933 -65.7534 439.181 -78.4209 430.411L-86.5459 442.147C-72.4922 451.876 -57.756 458.457 -42.3554 461.757L-39.3646 447.799ZM-78.3495 430.461C-90.8537 421.576 -102.227 411.033 -112.47 398.808L-123.411 407.975C-112.414 421.1 -100.149 432.482 -86.6172 442.097L-78.3495 430.461ZM-112.339 398.969C-122.265 386.395 -130.713 372.651 -137.68 357.722L-150.615 363.758C-143.194 379.661 -134.17 394.352 -123.542 407.814L-112.339 398.969ZM-137.655 357.776C-144.571 342.627 -148.984 327.389 -150.943 312.046L-165.102 313.854C-162.949 330.714 -158.113 347.336 -150.64 363.704L-137.655 357.776ZM-150.945 312.027C-154.019 288.459 -155.51 271.019 -155.51 259.508H-169.784C-169.784 271.978 -168.192 290.166 -165.099 313.873L-150.945 312.027ZM-155.51 259.508C-155.51 229.336 -151.32 202.03 -143.039 177.518L-156.562 172.949C-165.41 199.138 -169.784 228.015 -169.784 259.508H-155.51ZM-143.057 177.571C-134.409 152.625 -122.501 131.522 -107.412 114.136L-118.192 104.78C-134.62 123.708 -147.378 146.455 -156.544 172.896L-143.057 177.571ZM-107.462 114.193C-92.0383 96.8009 -73.6843 83.3612 -52.3404 73.8385L-58.1562 60.8029C-81.3477 71.1499 -101.363 85.8016 -118.142 104.723L-107.462 114.193ZM-52.2574 73.8009C-31.0323 64.0047 -7.23291 59.0418 19.2627 59.0418V44.7676C-9.05438 44.7676 -34.929 50.0821 -58.2391 60.8406L-52.2574 73.8009ZM19.2627 59.0418H179.076V44.7676H19.2627V59.0418Z" fill="#21A497"/>
<path d="M611.794 463V470.137H618.931V463H611.794ZM502.34 463L496.314 466.824L498.416 470.137H502.34V463ZM346.123 216.857L352.149 213.032L338.986 192.292V216.857H346.123ZM346.123 463V470.137H353.26V463H346.123ZM244.891 463H237.754V470.137H244.891V463ZM244.891 51.9047V44.7676H237.754V51.9047H244.891ZM358.456 51.9047L364.531 48.1585L362.44 44.7676H358.456V51.9047ZM510.561 298.562L504.487 302.308L517.699 323.733V298.562H510.561ZM510.561 51.9047V44.7676H503.424V51.9047H510.561ZM611.794 51.9047H618.931V44.7676H611.794V51.9047ZM611.794 455.863H502.34V470.137H611.794V455.863ZM508.366 459.176L352.149 213.032L340.097 220.681L496.314 466.824L508.366 459.176ZM338.986 216.857V463H353.26V216.857H338.986ZM346.123 455.863H244.891V470.137H346.123V455.863ZM252.028 463V51.9047H237.754V463H252.028ZM244.891 59.0418H358.456V44.7676H244.891V59.0418ZM352.381 55.6508L504.487 302.308L516.636 294.816L364.531 48.1585L352.381 55.6508ZM517.699 298.562V51.9047H503.424V298.562H517.699ZM510.561 59.0418H611.794V44.7676H510.561V59.0418ZM604.657 51.9047V463H618.931V51.9047H604.657ZM957.6 51.9047L964.044 54.9718L968.901 44.7676H957.6V51.9047ZM911.865 147.998V155.135H916.373L918.31 151.065L911.865 147.998ZM654.417 147.998H647.28V155.135H654.417V147.998ZM654.417 51.9047V44.7676H647.28V51.9047H654.417ZM912.379 304.214V311.352H919.516V304.214H912.379ZM654.417 304.214H647.28V311.352H654.417V304.214ZM654.417 208.121V200.984H647.28V208.121H654.417ZM912.379 208.121H919.516V200.984H912.379V208.121ZM936.531 463V470.137H943.668V463H936.531ZM652.875 463H645.738V470.137H652.875V463ZM652.875 366.906V359.769H645.738V366.906H652.875ZM936.531 366.906H943.668V359.769H936.531V366.906ZM951.155 48.8376L905.421 144.931L918.31 151.065L964.044 54.9718L951.155 48.8376ZM911.865 140.861H654.417V155.135H911.865V140.861ZM661.554 147.998V51.9047H647.28V147.998H661.554ZM654.417 59.0418H957.6V44.7676H654.417V59.0418ZM912.379 297.077H654.417V311.352H912.379V297.077ZM661.554 304.214V208.121H647.28V304.214H661.554ZM654.417 215.258H912.379V200.984H654.417V215.258ZM905.242 208.121V304.214H919.516V208.121H905.242ZM936.531 455.863H652.875V470.137H936.531V455.863ZM660.012 463V366.906H645.738V463H660.012ZM652.875 374.044H936.531V359.769H652.875V374.044ZM929.394 366.906V463H943.668V366.906H929.394ZM1323.38 51.9047L1329.77 55.0827L1334.9 44.7676H1323.38V51.9047ZM1276.1 146.97V154.108H1280.52L1282.49 150.148L1276.1 146.97ZM1186.17 146.97V139.833H1179.04V146.97H1186.17ZM1186.17 463V470.137H1193.31V463H1186.17ZM1088.03 463H1080.89V470.137H1088.03V463ZM1088.03 146.97H1095.16V139.833H1088.03V146.97ZM978.058 146.97H970.921V154.108H978.058V146.97ZM978.058 51.9047V44.7676H970.921V51.9047H978.058ZM1316.99 48.7267L1269.71 143.792L1282.49 150.148L1329.77 55.0827L1316.99 48.7267ZM1276.1 139.833H1186.17V154.108H1276.1V139.833ZM1179.04 146.97V463H1193.31V146.97H1179.04ZM1186.17 455.863H1088.03V470.137H1186.17V455.863ZM1095.16 463V146.97H1080.89V463H1095.16ZM1088.03 139.833H978.058V154.108H1088.03V139.833ZM985.195 146.97V51.9047H970.921V146.97H985.195ZM978.058 59.0418H1323.38V44.7676H978.058V59.0418Z" fill="black"/>
</g>


















































































































<path fill-rule="evenodd" clip-rule="evenodd" d="M-58 1226L-20.9521 1152H74.9521L112 1226L74.9521 1300H-20.9521L-58 1226Z" stroke="#21A497" stroke-opacity="0.176471" stroke-width="1.33333" stroke-miterlimit="800"/>
<path fill-rule="evenodd" clip-rule="evenodd" d="M-58 1374L-20.9521 1300H74.9521L112 1374L74.9521 1448H-20.9521L-58 1374Z" stroke="#21A497" stroke-opacity="0.176471" stroke-width="1.33333" stroke-miterlimit="800"/>
<path fill-rule="evenodd" clip-rule="evenodd" d="M-58 1522L-20.9521 1448H74.9521L112 1522L74.9521 1596H-20.9521L-58 1522Z" stroke="#21A497" stroke-opacity="0.176471" stroke-width="1.33333" stroke-miterlimit="800"/>
<path fill-rule="evenodd" clip-rule="evenodd" d="M-58 1670L-20.9521 1596H74.9521L112 1670L74.9521 1744H-20.9521L-58 1670Z" stroke="#21A497" stroke-opacity="0.176471" stroke-width="1.33333" stroke-miterlimit="800"/>
<path fill-rule="evenodd" clip-rule="evenodd" d="M-58 1818L-20.9521 1744H74.9521L112 1818L74.9521 1892H-20.9521L-58 1818Z" stroke="#21A497" stroke-opacity="0.176471" stroke-width="1.33333" stroke-miterlimit="800"/>
<path fill-rule="evenodd" clip-rule="evenodd" d="M75 1153L112.048 1079H207.952L245 1153L207.952 1227H112.048L75 1153Z" stroke="#21A497" stroke-opacity="0.176471" stroke-width="1.33333" stroke-miterlimit="800"/>
<path fill-rule="evenodd" clip-rule="evenodd" d="M75 1301L112.048 1227H207.952L245 1301L207.952 1375H112.048L75 1301Z" stroke="#21A497" stroke-opacity="0.176471" stroke-width="1.33333" stroke-miterlimit="800"/>
<path fill-rule="evenodd" clip-rule="evenodd" d="M75 1449L112.048 1375H207.952L245 1449L207.952 1523H112.048L75 1449Z" stroke="#21A497" stroke-opacity="0.176471" stroke-width="1.33333" stroke-miterlimit="800"/>
<path fill-rule="evenodd" clip-rule="evenodd" d="M75 1597L112.048 1523H207.952L245 1597L207.952 1671H112.048L75 1597Z" stroke="#21A497" stroke-opacity="0.176471" stroke-width="1.33333" stroke-miterlimit="800"/>
<path fill-rule="evenodd" clip-rule="evenodd" d="M75 1745L112.048 1671H207.952L245 1745L207.952 1819H112.048L75 1745Z" stroke="#21A497" stroke-opacity="0.176471" stroke-width="1.33333" stroke-miterlimit="800"/>
<path fill-rule="evenodd" clip-rule="evenodd" d="M208 1227L245.048 1153H340.952L378 1227L340.952 1301H245.048L208 1227Z" stroke="#21A497" stroke-opacity="0.176471" stroke-width="1.33333" stroke-miterlimit="800"/>
<path fill-rule="evenodd" clip-rule="evenodd" d="M208 1375L245.048 1301H340.952L378 1375L340.952 1449H245.048L208 1375Z" stroke="#21A497" stroke-opacity="0.176471" stroke-width="1.33333" stroke-miterlimit="800"/>
<path fill-rule="evenodd" clip-rule="evenodd" d="M208 1671L245.048 1597H340.952L378 1671L340.952 1745H245.048L208 1671Z" stroke="#21A497" stroke-opacity="0.176471" stroke-width="1.33333" stroke-miterlimit="800"/>
<path fill-rule="evenodd" clip-rule="evenodd" d="M-58 1967L-20.9521 1893H74.9521L112 1967L74.9521 2041H-20.9521L-58 1967Z" stroke="#21A497" stroke-opacity="0.176471" stroke-width="1.33333" stroke-miterlimit="800"/>
<path fill-rule="evenodd" clip-rule="evenodd" d="M-58 2115L-20.9521 2041H74.9521L112 2115L74.9521 2189H-20.9521L-58 2115Z" stroke="#21A497" stroke-opacity="0.176471" stroke-width="1.33333" stroke-miterlimit="800"/>
<path fill-rule="evenodd" clip-rule="evenodd" d="M-58 2263L-20.9521 2189H74.9521L112 2263L74.9521 2337H-20.9521L-58 2263Z" stroke="#21A497" stroke-opacity="0.176471" stroke-width="1.33333" stroke-miterlimit="800"/>
<path fill-rule="evenodd" clip-rule="evenodd" d="M-58 2411L-20.9521 2337H74.9521L112 2411L74.9521 2485H-20.9521L-58 2411Z" stroke="#21A497" stroke-opacity="0.176471" stroke-width="1.33333" stroke-miterlimit="800"/>
<path fill-rule="evenodd" clip-rule="evenodd" d="M-58 2559L-20.9521 2485H74.9521L112 2559L74.9521 2633H-20.9521L-58 2559Z" stroke="#21A497" stroke-opacity="0.176471" stroke-width="1.33333" stroke-miterlimit="800"/>
<path fill-rule="evenodd" clip-rule="evenodd" d="M75 1894L112.048 1820H207.952L245 1894L207.952 1968H112.048L75 1894Z" stroke="#21A497" stroke-opacity="0.176471" stroke-width="1.33333" stroke-miterlimit="800"/>
<path fill-rule="evenodd" clip-rule="evenodd" d="M75 2042L112.048 1968H207.952L245 2042L207.952 2116H112.048L75 2042Z" stroke="#21A497" stroke-opacity="0.176471" stroke-width="1.33333" stroke-miterlimit="800"/>
<path fill-rule="evenodd" clip-rule="evenodd" d="M75 2190L112.048 2116H207.952L245 2190L207.952 2264H112.048L75 2190Z" stroke="#21A497" stroke-opacity="0.176471" stroke-width="1.33333" stroke-miterlimit="800"/>
<path fill-rule="evenodd" clip-rule="evenodd" d="M75 2338L112.048 2264H207.952L245 2338L207.952 2412H112.048L75 2338Z" stroke="#21A497" stroke-opacity="0.176471" stroke-width="1.33333" stroke-miterlimit="800"/>
<path fill-rule="evenodd" clip-rule="evenodd" d="M75 2486L112.048 2412H207.952L245 2486L207.952 2560H112.048L75 2486Z" stroke="#21A497" stroke-opacity="0.176471" stroke-width="1.33333" stroke-miterlimit="800"/>
<path fill-rule="evenodd" clip-rule="evenodd" d="M208 1968L245.048 1894H340.952L378 1968L340.952 2042H245.048L208 1968Z" stroke="#21A497" stroke-opacity="0.176471" stroke-width="1.33333" stroke-miterlimit="800"/>
<path fill-rule="evenodd" clip-rule="evenodd" d="M208 2116L245.048 2042H340.952L378 2116L340.952 2190H245.048L208 2116Z" stroke="#21A497" stroke-opacity="0.176471" stroke-width="1.33333" stroke-miterlimit="800"/>
<path fill-rule="evenodd" clip-rule="evenodd" d="M208 2412L245.048 2338H340.952L378 2412L340.952 2486H245.048L208 2412Z" stroke="#21A497" stroke-opacity="0.176471" stroke-width="1.33333" stroke-miterlimit="800"/>




































































































































































<defs>
<filter id="filter0_d_186_9451" x="888.197" y="943.409" width="638.188" height="143.123" filterUnits="userSpaceOnUse" color-interpolation-filters="sRGB">
<feFlood flood-opacity="0" result="BackgroundImageFix"/>
<feColorMatrix in="SourceAlpha" type="matrix" values="0 0 0 0 0 0 0 0 0 0 0 0 0 0 0 0 0 0 127 0" result="hardAlpha"/>
<feOffset dx="4.69256"/>
<feGaussianBlur stdDeviation="2.34628"/>
<feComposite in2="hardAlpha" operator="out"/>
<feColorMatrix type="matrix" values="0 0 0 0 0 0 0 0 0 0 0 0 0 0 0 0 0 0 0.25 0"/>
<feBlend mode="normal" in2="BackgroundImageFix" result="effect1_dropShadow_186_9451"/>
<feBlend mode="normal" in="SourceGraphic" in2="effect1_dropShadow_186_9451" result="shape"/>
</filter>
<filter id="filter1_d_186_9451" x="792" y="943.409" width="184.183" height="143.123" filterUnits="userSpaceOnUse" color-interpolation-filters="sRGB">
<feFlood flood-opacity="0" result="BackgroundImageFix"/>
<feColorMatrix in="SourceAlpha" type="matrix" values="0 0 0 0 0 0 0 0 0 0 0 0 0 0 0 0 0 0 127 0" result="hardAlpha"/>
<feOffset dx="4.69256"/>
<feGaussianBlur stdDeviation="2.34628"/>
<feComposite in2="hardAlpha" operator="out"/>
<feColorMatrix type="matrix" values="0 0 0 0 0 0 0 0 0 0 0 0 0 0 0 0 0 0 0.25 0"/>
<feBlend mode="normal" in2="BackgroundImageFix" result="effect1_dropShadow_186_9451"/>
<feBlend mode="normal" in="SourceGraphic" in2="effect1_dropShadow_186_9451" result="shape"/>
</filter>
<filter id="filter2_d_186_9451" x="888.197" y="591.468" width="638.188" height="143.123" filterUnits="userSpaceOnUse" color-interpolation-filters="sRGB">
<feFlood flood-opacity="0" result="BackgroundImageFix"/>
<feColorMatrix in="SourceAlpha" type="matrix" values="0 0 0 0 0 0 0 0 0 0 0 0 0 0 0 0 0 0 127 0" result="hardAlpha"/>
<feOffset dx="4.69256"/>
<feGaussianBlur stdDeviation="2.34628"/>
<feComposite in2="hardAlpha" operator="out"/>
<feColorMatrix type="matrix" values="0 0 0 0 0 0 0 0 0 0 0 0 0 0 0 0 0 0 0.25 0"/>
<feBlend mode="normal" in2="BackgroundImageFix" result="effect1_dropShadow_186_9451"/>
<feBlend mode="normal" in="SourceGraphic" in2="effect1_dropShadow_186_9451" result="shape"/>
</filter>
<filter id="filter3_d_186_9451" x="792" y="591.468" width="184.183" height="143.123" filterUnits="userSpaceOnUse" color-interpolation-filters="sRGB">
<feFlood flood-opacity="0" result="BackgroundImageFix"/>
<feColorMatrix in="SourceAlpha" type="matrix" values="0 0 0 0 0 0 0 0 0 0 0 0 0 0 0 0 0 0 127 0" result="hardAlpha"/>
<feOffset dx="4.69256"/>
<feGaussianBlur stdDeviation="2.34628"/>
<feComposite in2="hardAlpha" operator="out"/>
<feColorMatrix type="matrix" values="0 0 0 0 0 0 0 0 0 0 0 0 0 0 0 0 0 0 0.25 0"/>
<feBlend mode="normal" in2="BackgroundImageFix" result="effect1_dropShadow_186_9451"/>
<feBlend mode="normal" in="SourceGraphic" in2="effect1_dropShadow_186_9451" result="shape"/>
</filter>
<filter id="filter4_d_186_9451" x="887.024" y="762.307" width="639.361" height="153.385" filterUnits="userSpaceOnUse" color-interpolation-filters="sRGB">
<feFlood flood-opacity="0" result="BackgroundImageFix"/>
<feColorMatrix in="SourceAlpha" type="matrix" values="0 0 0 0 0 0 0 0 0 0 0 0 0 0 0 0 0 0 127 0" result="hardAlpha"/>
<feOffset dx="4.69256"/>
<feGaussianBlur stdDeviation="2.34628"/>
<feComposite in2="hardAlpha" operator="out"/>
<feColorMatrix type="matrix" values="0 0 0 0 0 0 0 0 0 0 0 0 0 0 0 0 0 0 0.25 0"/>
<feBlend mode="normal" in2="BackgroundImageFix" result="effect1_dropShadow_186_9451"/>
<feBlend mode="normal" in="SourceGraphic" in2="effect1_dropShadow_186_9451" result="shape"/>
</filter>
<filter id="filter5_d_186_9451" x="792" y="762.307" width="184.183" height="153.385" filterUnits="userSpaceOnUse" color-interpolation-filters="sRGB">
<feFlood flood-opacity="0" result="BackgroundImageFix"/>
<feColorMatrix in="SourceAlpha" type="matrix" values="0 0 0 0 0 0 0 0 0 0 0 0 0 0 0 0 0 0 127 0" result="hardAlpha"/>
<feOffset dx="4.69256"/>
<feGaussianBlur stdDeviation="2.34628"/>
<feComposite in2="hardAlpha" operator="out"/>
<feColorMatrix type="matrix" values="0 0 0 0 0 0 0 0 0 0 0 0 0 0 0 0 0 0 0.25 0"/>
<feBlend mode="normal" in2="BackgroundImageFix" result="effect1_dropShadow_186_9451"/>
<feBlend mode="normal" in="SourceGraphic" in2="effect1_dropShadow_186_9451" result="shape"/>
</filter>
<filter id="filter6_f_186_9451" x="383" y="1600.66" width="389.337" height="197.142" filterUnits="userSpaceOnUse" color-interpolation-filters="sRGB">
<feFlood flood-opacity="0" result="BackgroundImageFix"/>
<feBlend mode="normal" in="SourceGraphic" in2="BackgroundImageFix" result="shape"/>
<feGaussianBlur stdDeviation="11" result="effect1_foregroundBlur_186_9451"/>
</filter>
<filter id="filter7_d_186_9451" x="405" y="1617.96" width="354.722" height="162.527" filterUnits="userSpaceOnUse" color-interpolation-filters="sRGB">
<feFlood flood-opacity="0" result="BackgroundImageFix"/>
<feColorMatrix in="SourceAlpha" type="matrix" values="0 0 0 0 0 0 0 0 0 0 0 0 0 0 0 0 0 0 127 0" result="hardAlpha"/>
<feOffset dx="4.69256"/>
<feGaussianBlur stdDeviation="2.34628"/>
<feComposite in2="hardAlpha" operator="out"/>
<feColorMatrix type="matrix" values="0 0 0 0 0 0 0 0 0 0 0 0 0 0 0 0 0 0 0.25 0"/>
<feBlend mode="normal" in2="BackgroundImageFix" result="effect1_dropShadow_186_9451"/>
<feBlend mode="normal" in="SourceGraphic" in2="effect1_dropShadow_186_9451" result="shape"/>
</filter>
<filter id="filter8_d_186_9451" x="501" y="1837.76" width="354.722" height="162.527" filterUnits="userSpaceOnUse" color-interpolation-filters="sRGB">
<feFlood flood-opacity="0" result="BackgroundImageFix"/>
<feColorMatrix in="SourceAlpha" type="matrix" values="0 0 0 0 0 0 0 0 0 0 0 0 0 0 0 0 0 0 127 0" result="hardAlpha"/>
<feOffset dx="4.69256"/>
<feGaussianBlur stdDeviation="2.34628"/>
<feComposite in2="hardAlpha" operator="out"/>
<feColorMatrix type="matrix" values="0 0 0 0 0 0 0 0 0 0 0 0 0 0 0 0 0 0 0.25 0"/>
<feBlend mode="normal" in2="BackgroundImageFix" result="effect1_dropShadow_186_9451"/>
<feBlend mode="normal" in="SourceGraphic" in2="effect1_dropShadow_186_9451" result="shape"/>
</filter>
<filter id="filter9_f_186_9451" x="576" y="2040.25" width="389.337" height="197.142" filterUnits="userSpaceOnUse" color-interpolation-filters="sRGB">
<feFlood flood-opacity="0" result="BackgroundImageFix"/>
<feBlend mode="normal" in="SourceGraphic" in2="BackgroundImageFix" result="shape"/>
<feGaussianBlur stdDeviation="11" result="effect1_foregroundBlur_186_9451"/>
</filter>
<filter id="filter10_d_186_9451" x="598" y="2057.56" width="354.722" height="162.527" filterUnits="userSpaceOnUse" color-interpolation-filters="sRGB">
<feFlood flood-opacity="0" result="BackgroundImageFix"/>
<feColorMatrix in="SourceAlpha" type="matrix" values="0 0 0 0 0 0 0 0 0 0 0 0 0 0 0 0 0 0 127 0" result="hardAlpha"/>
<feOffset dx="4.69256"/>
<feGaussianBlur stdDeviation="2.34628"/>
<feComposite in2="hardAlpha" operator="out"/>
<feColorMatrix type="matrix" values="0 0 0 0 0 0 0 0 0 0 0 0 0 0 0 0 0 0 0.25 0"/>
<feBlend mode="normal" in2="BackgroundImageFix" result="effect1_dropShadow_186_9451"/>
<feBlend mode="normal" in="SourceGraphic" in2="effect1_dropShadow_186_9451" result="shape"/>
</filter>
<linearGradient id="paint0_linear_186_9451" x1="1344" y1="1464" x2="1344" y2="2413" gradientUnits="userSpaceOnUse">
<stop stop-color="#05AB9C" stop-opacity="0"/>
<stop offset="1" stop-color="#05AB9C" stop-opacity="0.207843"/>
</linearGradient>
<linearGradient id="paint1_linear_186_9451" x1="0" y1="169" x2="-5.23749e-05" y2="788" gradientUnits="userSpaceOnUse">
<stop stop-color="#05AB9C" stop-opacity="0.207843"/>
<stop offset="1" stop-color="#05AB9C" stop-opacity="0"/>
</linearGradient>
<linearGradient id="paint2_linear_186_9451" x1="2010.5" y1="2415" x2="2010.5" y2="1796" gradientUnits="userSpaceOnUse">
<stop stop-color="#05AB9C" stop-opacity="0.207843"/>
<stop offset="1" stop-color="#05AB9C" stop-opacity="0"/>
</linearGradient>
<linearGradient id="paint3_linear_186_9451" x1="1249" y1="194" x2="1249" y2="1143" gradientUnits="userSpaceOnUse">
<stop stop-color="#05AB9C" stop-opacity="0.207843"/>
<stop offset="1" stop-color="#05AB9C" stop-opacity="0"/>
</linearGradient>
<linearGradient id="paint4_linear_186_9451" x1="606.538" y1="529.026" x2="425.437" y2="867.053" gradientUnits="userSpaceOnUse">
<stop offset="0.1593" stop-color="#18CFAE"/>
<stop offset="0.4142" stop-color="#3DB7B3"/>
<stop offset="0.7075" stop-color="#639EB8"/>
<stop offset="0.8626" stop-color="#7195BA"/>
</linearGradient>
<linearGradient id="paint5_linear_186_9451" x1="545.412" y1="917.322" x2="382.472" y2="831.685" gradientUnits="userSpaceOnUse">
<stop stop-color="#092D66"/>
<stop offset="0.978" stop-color="#7195BA"/>
</linearGradient>
<linearGradient id="paint6_linear_186_9451" x1="718.983" y1="921.062" x2="868.567" y2="986.797" gradientUnits="userSpaceOnUse">
<stop stop-color="#092D66"/>
<stop offset="0.978" stop-color="#7195BA"/>
</linearGradient>
<linearGradient id="paint7_linear_186_9451" x1="496.883" y1="972.849" x2="375.005" y2="596.293" gradientUnits="userSpaceOnUse">
<stop stop-color="#4D575D"/>
<stop offset="0.4835" stop-color="#98A2AE"/>
<stop offset="0.8516" stop-color="#D4DDE8"/>
</linearGradient>
<linearGradient id="paint8_linear_186_9451" x1="398.621" y1="744.263" x2="574.787" y2="845.975" gradientUnits="userSpaceOnUse">
<stop stop-color="#94BFDD"/>
<stop offset="0.4729" stop-color="#94BFDD"/>
<stop offset="1" stop-color="#7195BA"/>
</linearGradient>
<linearGradient id="paint9_linear_186_9451" x1="771.927" y1="527.937" x2="552.824" y2="735.263" gradientUnits="userSpaceOnUse">
<stop stop-color="#94BFDD"/>
<stop offset="0.4729" stop-color="#94BFDD"/>
<stop offset="1" stop-color="#7195BA"/>
</linearGradient>
<linearGradient id="paint10_linear_186_9451" x1="635.746" y1="909.116" x2="596.178" y2="786.869" gradientUnits="userSpaceOnUse">
<stop stop-color="#4D575D"/>
<stop offset="0.4835" stop-color="#98A2AE"/>
<stop offset="0.8516" stop-color="#D4DDE8"/>
</linearGradient>
<linearGradient id="paint11_linear_186_9451" x1="664.839" y1="800.496" x2="330.277" y2="610.144" gradientUnits="userSpaceOnUse">
<stop stop-color="#4D575D"/>
<stop offset="0.4835" stop-color="#98A2AE"/>
<stop offset="0.8516" stop-color="#D4DDE8"/>
</linearGradient>
<linearGradient id="paint12_linear_186_9451" x1="610.887" y1="654.188" x2="91.3081" y2="685.208" gradientUnits="userSpaceOnUse">
<stop stop-color="#4D575D"/>
<stop offset="0.4835" stop-color="#98A2AE"/>
<stop offset="0.8516" stop-color="#D4DDE8"/>
</linearGradient>
<linearGradient id="paint13_linear_186_9451" x1="632.078" y1="824.42" x2="571.562" y2="637.45" gradientUnits="userSpaceOnUse">
<stop stop-color="#4D575D"/>
<stop offset="0.4835" stop-color="#98A2AE"/>
<stop offset="0.8516" stop-color="#D4DDE8"/>
</linearGradient>
<linearGradient id="paint14_linear_186_9451" x1="743.384" y1="640.36" x2="963.32" y2="448.085" gradientUnits="userSpaceOnUse">
<stop offset="0.1593" stop-color="#18CFAE"/>
<stop offset="0.4015" stop-color="#63D5C5"/>
<stop offset="0.6196" stop-color="#A0D9D8"/>
<stop offset="0.7789" stop-color="#C6DCE4"/>
<stop offset="0.8626" stop-color="#D4DDE8"/>
</linearGradient>
<linearGradient id="paint15_linear_186_9451" x1="729.465" y1="889.814" x2="949.4" y2="697.54" gradientUnits="userSpaceOnUse">
<stop stop-color="#94BFDD"/>
<stop offset="0.4729" stop-color="#94BFDD"/>
<stop offset="1" stop-color="#7195BA"/>
</linearGradient>
<linearGradient id="paint16_linear_186_9451" x1="603.249" y1="792.412" x2="521.931" y2="541.17" gradientUnits="userSpaceOnUse">
<stop offset="0.1593" stop-color="#18CFAE"/>
<stop offset="0.4015" stop-color="#63D5C5"/>
<stop offset="0.6196" stop-color="#A0D9D8"/>
<stop offset="0.7789" stop-color="#C6DCE4"/>
<stop offset="0.8626" stop-color="#D4DDE8"/>
</linearGradient>
<linearGradient id="paint17_linear_186_9451" x1="604.018" y1="794.783" x2="521.158" y2="538.778" gradientUnits="userSpaceOnUse">
<stop offset="0.1593" stop-color="#18CFAE"/>
<stop offset="0.4015" stop-color="#63D5C5"/>
<stop offset="0.6196" stop-color="#A0D9D8"/>
<stop offset="0.7789" stop-color="#C6DCE4"/>
<stop offset="0.8626" stop-color="#D4DDE8"/>
</linearGradient>
<linearGradient id="paint18_linear_186_9451" x1="674.289" y1="759.34" x2="624.938" y2="606.866" gradientUnits="userSpaceOnUse">
<stop stop-color="#4D575D"/>
<stop offset="0.4835" stop-color="#98A2AE"/>
<stop offset="0.8516" stop-color="#D4DDE8"/>
</linearGradient>
<linearGradient id="paint19_linear_186_9451" x1="945.449" y1="1031.69" x2="819.995" y2="1031.68" gradientUnits="userSpaceOnUse">
<stop stop-color="#21A497"/>
<stop offset="1" stop-color="#107A6A"/>
</linearGradient>
<linearGradient id="paint20_linear_186_9451" x1="945.449" y1="679.746" x2="819.995" y2="679.74" gradientUnits="userSpaceOnUse">
<stop stop-color="#21A497"/>
<stop offset="1" stop-color="#107A6A"/>
</linearGradient>
<linearGradient id="paint21_linear_186_9451" x1="1440.06" y1="856.999" x2="987.919" y2="856.934" gradientUnits="userSpaceOnUse">
<stop stop-color="#21A497"/>
<stop offset="1" stop-color="#107A6A"/>
</linearGradient>
<linearGradient id="paint22_linear_186_9451" x1="547.504" y1="1631.07" x2="603.668" y2="1631.07" gradientUnits="userSpaceOnUse">
<stop stop-color="#21A497"/>
<stop offset="1" stop-color="#107A6A"/>
</linearGradient>
<linearGradient id="paint23_linear_186_9451" x1="543.178" y1="1938.17" x2="791.029" y2="1938.15" gradientUnits="userSpaceOnUse">
<stop stop-color="#21A497"/>
<stop offset="1" stop-color="#107A6A"/>
</linearGradient>
<linearGradient id="paint24_linear_186_9451" x1="740.504" y1="2070.67" x2="796.668" y2="2070.67" gradientUnits="userSpaceOnUse">
<stop stop-color="#21A497"/>
<stop offset="1" stop-color="#107A6A"/>
</linearGradient>
<linearGradient id="paint25_linear_186_9451" x1="864.861" y1="1922.77" x2="1556.48" y2="1922.77" gradientUnits="userSpaceOnUse">
<stop stop-color="#C4D0DC"/>
<stop offset="0.5323" stop-color="white"/>
<stop offset="0.6666" stop-color="#F9FAFC"/>
<stop offset="0.8423" stop-color="#E9EDF3"/>
<stop offset="1" stop-color="#D4DDE8"/>
</linearGradient>
<linearGradient id="paint26_linear_186_9451" x1="1205" y1="1442.23" x2="1213.12" y2="1988.46" gradientUnits="userSpaceOnUse">
<stop stop-color="#EBEDEE"/>
<stop offset="0.5323" stop-color="#E1E7F4"/>
<stop offset="0.5814" stop-color="#DBE2F0"/>
<stop offset="0.646" stop-color="#CBD4E5"/>
<stop offset="0.7192" stop-color="#AFBCD3"/>
<stop offset="0.7987" stop-color="#8A9CBA"/>
<stop offset="0.8832" stop-color="#59729A"/>
<stop offset="0.9708" stop-color="#1E3F74"/>
<stop offset="1" stop-color="#092D66"/>
</linearGradient>
<linearGradient id="paint27_linear_186_9451" x1="1491.2" y1="2149.49" x2="1041.75" y2="1679.43" gradientUnits="userSpaceOnUse">
<stop stop-color="#C4D0DC"/>
<stop offset="0.5323" stop-color="white"/>
<stop offset="0.6666" stop-color="#F9FAFC"/>
<stop offset="0.8423" stop-color="#E9EDF3"/>
<stop offset="1" stop-color="#D4DDE8"/>
</linearGradient>
<linearGradient id="paint28_linear_186_9451" x1="1223.92" y1="1475.05" x2="1201.27" y2="2051.64" gradientUnits="userSpaceOnUse">
<stop stop-color="#EBEDEE"/>
<stop offset="0.5323" stop-color="#E1E7F4"/>
<stop offset="0.5814" stop-color="#DBE2F0"/>
<stop offset="0.646" stop-color="#CBD4E5"/>
<stop offset="0.7192" stop-color="#AFBCD3"/>
<stop offset="0.7987" stop-color="#8A9CBA"/>
<stop offset="0.8832" stop-color="#59729A"/>
<stop offset="0.9708" stop-color="#1E3F74"/>
<stop offset="1" stop-color="#092D66"/>
</linearGradient>
<linearGradient id="paint29_linear_186_9451" x1="1484.89" y1="2142.53" x2="1045.56" y2="1683.06" gradientUnits="userSpaceOnUse">
<stop stop-color="#C4D0DC"/>
<stop offset="0.5323" stop-color="white"/>
<stop offset="0.6666" stop-color="#F9FAFC"/>
<stop offset="0.8423" stop-color="#E9EDF3"/>
<stop offset="1" stop-color="#D4DDE8"/>
</linearGradient>
<linearGradient id="paint30_linear_186_9451" x1="1191.63" y1="1842.37" x2="1758.1" y2="1902.61" gradientUnits="userSpaceOnUse">
<stop stop-color="#94BFDD"/>
<stop offset="0.4729" stop-color="#94BFDD"/>
<stop offset="1" stop-color="#7195BA"/>
</linearGradient>
<linearGradient id="paint31_linear_186_9451" x1="1432.35" y1="1813.26" x2="1386.27" y2="1764.01" gradientUnits="userSpaceOnUse">
<stop stop-color="#EBEDEE"/>
<stop offset="0.5323" stop-color="#E1E7F4"/>
<stop offset="0.5814" stop-color="#DBE2F0"/>
<stop offset="0.646" stop-color="#CBD4E5"/>
<stop offset="0.7192" stop-color="#AFBCD3"/>
<stop offset="0.7987" stop-color="#8A9CBA"/>
<stop offset="0.8832" stop-color="#59729A"/>
<stop offset="0.9708" stop-color="#1E3F74"/>
<stop offset="1" stop-color="#092D66"/>
</linearGradient>
<linearGradient id="paint32_linear_186_9451" x1="1430.1" y1="1791.64" x2="1387.84" y2="1775.2" gradientUnits="userSpaceOnUse">
<stop stop-color="#092D66"/>
<stop offset="0.978" stop-color="#7195BA"/>
</linearGradient>
<linearGradient id="paint33_linear_186_9451" x1="974.96" y1="1924.05" x2="1005.42" y2="1941.97" gradientUnits="userSpaceOnUse">
<stop stop-color="#092D66"/>
<stop offset="0.978" stop-color="#7195BA"/>
</linearGradient>
<linearGradient id="paint34_linear_186_9451" x1="988.014" y1="1928.24" x2="996.036" y2="1966.5" gradientUnits="userSpaceOnUse">
<stop stop-color="#EBEDEE"/>
<stop offset="0.5323" stop-color="#E1E7F4"/>
<stop offset="0.5814" stop-color="#DBE2F0"/>
<stop offset="0.646" stop-color="#CBD4E5"/>
<stop offset="0.7192" stop-color="#AFBCD3"/>
<stop offset="0.7987" stop-color="#8A9CBA"/>
<stop offset="0.8832" stop-color="#59729A"/>
<stop offset="0.9708" stop-color="#1E3F74"/>
<stop offset="1" stop-color="#092D66"/>
</linearGradient>
<linearGradient id="paint35_linear_186_9451" x1="901.116" y1="1799.99" x2="1446.97" y2="1789.41" gradientUnits="userSpaceOnUse">
<stop stop-color="#092D66"/>
<stop offset="0.0347178" stop-color="#0D3169"/>
<stop offset="0.978" stop-color="#7195BA"/>
</linearGradient>
<linearGradient id="paint36_linear_186_9451" x1="1024.07" y1="1853.62" x2="1013.82" y2="1921.84" gradientUnits="userSpaceOnUse">
<stop stop-color="#EBEDEE"/>
<stop offset="0.5323" stop-color="white"/>
<stop offset="0.7485" stop-color="#F9FAFA"/>
<stop offset="1" stop-color="#EBEDEE"/>
</linearGradient>
<linearGradient id="paint37_linear_186_9451" x1="1034.23" y1="1889.85" x2="1014.88" y2="1910.29" gradientUnits="userSpaceOnUse">
<stop stop-color="#EBEDEE"/>
<stop offset="0.5323" stop-color="white"/>
<stop offset="0.6666" stop-color="#F9FAFC"/>
<stop offset="0.8423" stop-color="#E9EDF3"/>
<stop offset="1" stop-color="#D4DDE8"/>
</linearGradient>
<linearGradient id="paint38_linear_186_9451" x1="1085.58" y1="1889.76" x2="1044.02" y2="1945.52" gradientUnits="userSpaceOnUse">
<stop stop-color="#EBEDEE"/>
<stop offset="0.5323" stop-color="white"/>
<stop offset="0.7485" stop-color="#F9FAFA"/>
<stop offset="1" stop-color="#EBEDEE"/>
</linearGradient>
<linearGradient id="paint39_linear_186_9451" x1="1087.86" y1="1891.37" x2="1046.3" y2="1947.13" gradientUnits="userSpaceOnUse">
<stop stop-color="#EBEDEE"/>
<stop offset="0.5323" stop-color="white"/>
<stop offset="0.6666" stop-color="#F9FAFC"/>
<stop offset="0.8423" stop-color="#E9EDF3"/>
<stop offset="1" stop-color="#D4DDE8"/>
</linearGradient>
<linearGradient id="paint40_linear_186_9451" x1="954.741" y1="1594.5" x2="1279.27" y2="1594.5" gradientUnits="userSpaceOnUse">
<stop offset="0.1593" stop-color="#18CFAE"/>
<stop offset="0.4142" stop-color="#3DB7B3"/>
<stop offset="0.7075" stop-color="#639EB8"/>
<stop offset="0.8626" stop-color="#7195BA"/>
</linearGradient>
<linearGradient id="paint41_linear_186_9451" x1="956.581" y1="1679.23" x2="1279.27" y2="1679.23" gradientUnits="userSpaceOnUse">
<stop offset="0.1593" stop-color="#18CFAE"/>
<stop offset="0.4142" stop-color="#3DB7B3"/>
<stop offset="0.7075" stop-color="#639EB8"/>
<stop offset="0.8626" stop-color="#7195BA"/>
</linearGradient>
<linearGradient id="paint42_linear_186_9451" x1="959.272" y1="1766.93" x2="1278.8" y2="1766.93" gradientUnits="userSpaceOnUse">
<stop offset="0.1593" stop-color="#18CFAE"/>
<stop offset="0.4142" stop-color="#3DB7B3"/>
<stop offset="0.7075" stop-color="#639EB8"/>
<stop offset="0.8626" stop-color="#7195BA"/>
</linearGradient>
<linearGradient id="paint43_linear_186_9451" x1="1021.16" y1="1841.79" x2="1405.38" y2="1841.79" gradientUnits="userSpaceOnUse">
<stop stop-color="#EBEDEE"/>
<stop offset="0.5323" stop-color="white"/>
<stop offset="0.7485" stop-color="#F9FAFA"/>
<stop offset="1" stop-color="#EBEDEE"/>
</linearGradient>
<linearGradient id="paint44_linear_186_9451" x1="959.81" y1="1806.66" x2="1345.64" y2="1806.66" gradientUnits="userSpaceOnUse">
<stop stop-color="#EBEDEE"/>
<stop offset="0.5323" stop-color="white"/>
<stop offset="0.7485" stop-color="#F9FAFA"/>
<stop offset="1" stop-color="#EBEDEE"/>
</linearGradient>
<linearGradient id="paint45_linear_186_9451" x1="1204.92" y1="1948" x2="1593.18" y2="1948" gradientUnits="userSpaceOnUse">
<stop offset="0.1593" stop-color="#18CFAE"/>
<stop offset="0.4142" stop-color="#3DB7B3"/>
<stop offset="0.7075" stop-color="#639EB8"/>
<stop offset="0.8626" stop-color="#7195BA"/>
</linearGradient>
<linearGradient id="paint46_linear_186_9451" x1="1372.45" y1="1814.84" x2="2440.43" y2="-198.08" gradientUnits="userSpaceOnUse">
<stop stop-color="#092D66"/>
<stop offset="0.978" stop-color="#7195BA"/>
</linearGradient>
<linearGradient id="paint47_linear_186_9451" x1="1453.45" y1="1886.81" x2="1415.33" y2="1604.17" gradientUnits="userSpaceOnUse">
<stop stop-color="#092D66"/>
<stop offset="0.978" stop-color="#7195BA"/>
</linearGradient>
<linearGradient id="paint48_linear_186_9451" x1="1500.3" y1="1644.97" x2="1302.09" y2="1963.95" gradientUnits="userSpaceOnUse">
<stop stop-color="#092D66"/>
<stop offset="0.978" stop-color="#7195BA"/>
</linearGradient>
<linearGradient id="paint49_linear_186_9451" x1="1136.16" y1="1896.49" x2="1429.89" y2="1893.02" gradientUnits="userSpaceOnUse">
<stop stop-color="#092D66"/>
<stop offset="0.978" stop-color="#7195BA"/>
</linearGradient>
<linearGradient id="paint50_linear_186_9451" x1="1474.83" y1="1796.48" x2="1067.1" y2="1947.45" gradientUnits="userSpaceOnUse">
<stop stop-color="#092D66"/>
<stop offset="0.978" stop-color="#7195BA"/>
</linearGradient>
<linearGradient id="paint51_linear_186_9451" x1="1110.45" y1="1938.21" x2="1199.96" y2="1773.79" gradientUnits="userSpaceOnUse">
<stop stop-color="#092D66"/>
<stop offset="0.978" stop-color="#7195BA"/>
</linearGradient>
<linearGradient id="paint52_linear_186_9451" x1="960.088" y1="1820.82" x2="1243.39" y2="1823.85" gradientUnits="userSpaceOnUse">
<stop stop-color="#EBEDEE"/>
<stop offset="0.5323" stop-color="white"/>
<stop offset="0.7485" stop-color="#F9FAFA"/>
<stop offset="1" stop-color="#EBEDEE"/>
</linearGradient>
<linearGradient id="paint53_linear_186_9451" x1="1071.13" y1="1846.14" x2="1293.41" y2="1798.13" gradientUnits="userSpaceOnUse">
<stop offset="0.1593" stop-color="#18CFAE"/>
<stop offset="0.4015" stop-color="#63D5C5"/>
<stop offset="0.6196" stop-color="#A0D9D8"/>
<stop offset="0.7789" stop-color="#C6DCE4"/>
<stop offset="0.8626" stop-color="#D4DDE8"/>
</linearGradient>
<linearGradient id="paint54_linear_186_9451" x1="1025.17" y1="1825.53" x2="1351.74" y2="1597.04" gradientUnits="userSpaceOnUse">
<stop offset="0.1593" stop-color="#18CFAE"/>
<stop offset="0.4015" stop-color="#63D5C5"/>
<stop offset="0.6196" stop-color="#A0D9D8"/>
<stop offset="0.7789" stop-color="#C6DCE4"/>
<stop offset="0.8626" stop-color="#D4DDE8"/>
</linearGradient>
<linearGradient id="paint55_linear_186_9451" x1="907.597" y1="1868.93" x2="1322.59" y2="1752.23" gradientUnits="userSpaceOnUse">
<stop offset="0.1593" stop-color="#18CFAE"/>
<stop offset="0.4015" stop-color="#63D5C5"/>
<stop offset="0.6196" stop-color="#A0D9D8"/>
<stop offset="0.7789" stop-color="#C6DCE4"/>
<stop offset="0.8626" stop-color="#D4DDE8"/>
</linearGradient>
<linearGradient id="paint56_linear_186_9451" x1="1179.89" y1="1802.52" x2="1192.36" y2="1808.77" gradientUnits="userSpaceOnUse">
<stop offset="0.1593" stop-color="#18CFAE"/>
<stop offset="0.4015" stop-color="#63D5C5"/>
<stop offset="0.6196" stop-color="#A0D9D8"/>
<stop offset="0.7789" stop-color="#C6DCE4"/>
<stop offset="0.8626" stop-color="#D4DDE8"/>
</linearGradient>
<linearGradient id="paint57_linear_186_9451" x1="1218.58" y1="1998.81" x2="1405.05" y2="1978.17" gradientUnits="userSpaceOnUse">
<stop offset="0.1593" stop-color="#18CFAE"/>
<stop offset="0.4142" stop-color="#3DB7B3"/>
<stop offset="0.7075" stop-color="#639EB8"/>
<stop offset="0.8626" stop-color="#7195BA"/>
</linearGradient>
<linearGradient id="paint58_linear_186_9451" x1="1362.52" y1="1950.65" x2="1537.19" y2="1931.32" gradientUnits="userSpaceOnUse">
<stop offset="0.1593" stop-color="#18CFAE"/>
<stop offset="0.4142" stop-color="#3DB7B3"/>
<stop offset="0.7075" stop-color="#639EB8"/>
<stop offset="0.8626" stop-color="#7195BA"/>
</linearGradient>
<linearGradient id="paint59_linear_186_9451" x1="1500.73" y1="1904.83" x2="1668.87" y2="1886.22" gradientUnits="userSpaceOnUse">
<stop offset="0.1593" stop-color="#18CFAE"/>
<stop offset="0.4142" stop-color="#3DB7B3"/>
<stop offset="0.7075" stop-color="#639EB8"/>
<stop offset="0.8626" stop-color="#7195BA"/>
</linearGradient>
<linearGradient id="paint60_linear_186_9451" x1="1215.33" y1="1783.03" x2="1423.72" y2="1627.8" gradientUnits="userSpaceOnUse">
<stop stop-color="#4D575D"/>
<stop offset="0.4835" stop-color="#98A2AE"/>
<stop offset="0.8516" stop-color="#D4DDE8"/>
</linearGradient>
<linearGradient id="paint61_linear_186_9451" x1="1184.57" y1="1921.86" x2="1335.77" y2="1580.66" gradientUnits="userSpaceOnUse">
<stop stop-color="#4D575D"/>
<stop offset="0.4835" stop-color="#98A2AE"/>
<stop offset="0.8516" stop-color="#D4DDE8"/>
</linearGradient>
<linearGradient id="paint62_linear_186_9451" x1="1198.38" y1="1771.08" x2="1675.2" y2="1803.66" gradientUnits="userSpaceOnUse">
<stop stop-color="#4D575D"/>
<stop offset="0.4835" stop-color="#98A2AE"/>
<stop offset="0.8516" stop-color="#D4DDE8"/>
</linearGradient>
<linearGradient id="paint63_linear_186_9451" x1="1070.13" y1="1873.6" x2="1261.7" y2="1873.6" gradientUnits="userSpaceOnUse">
<stop stop-color="#4D575D"/>
<stop offset="0.4835" stop-color="#98A2AE"/>
<stop offset="0.8516" stop-color="#D4DDE8"/>
</linearGradient>
<linearGradient id="paint64_linear_186_9451" x1="1049.4" y1="1894.43" x2="1092.8" y2="1975.17" gradientUnits="userSpaceOnUse">
<stop stop-color="#4D575D"/>
<stop offset="0.4835" stop-color="#98A2AE"/>
<stop offset="0.8516" stop-color="#D4DDE8"/>
</linearGradient>
<linearGradient id="paint65_linear_186_9451" x1="1024.92" y1="1853.68" x2="1261.16" y2="1853.68" gradientUnits="userSpaceOnUse">
<stop stop-color="#4D575D"/>
<stop offset="0.4835" stop-color="#98A2AE"/>
<stop offset="0.8516" stop-color="#D4DDE8"/>
</linearGradient>
<linearGradient id="paint66_linear_186_9451" x1="1106.72" y1="1883.9" x2="1370.67" y2="1883.9" gradientUnits="userSpaceOnUse">
<stop stop-color="#EBEDEE"/>
<stop offset="0.5323" stop-color="white"/>
<stop offset="0.7485" stop-color="#F9FAFA"/>
<stop offset="1" stop-color="#EBEDEE"/>
</linearGradient>
<linearGradient id="paint67_linear_186_9451" x1="1034.61" y1="1854.79" x2="1242.73" y2="1854.79" gradientUnits="userSpaceOnUse">
<stop stop-color="#EBEDEE"/>
<stop offset="0.5323" stop-color="white"/>
<stop offset="0.7485" stop-color="#F9FAFA"/>
<stop offset="1" stop-color="#EBEDEE"/>
</linearGradient>
<linearGradient id="paint68_linear_186_9451" x1="1091.14" y1="1871.22" x2="1382.24" y2="1871.22" gradientUnits="userSpaceOnUse">
<stop stop-color="#092D66"/>
<stop offset="0.978" stop-color="#7195BA"/>
</linearGradient>
<linearGradient id="paint69_linear_186_9451" x1="926.023" y1="1863.85" x2="1217.92" y2="1781.77" gradientUnits="userSpaceOnUse">
<stop stop-color="#EBEDEE"/>
<stop offset="0.5323" stop-color="white"/>
<stop offset="0.7485" stop-color="#F9FAFA"/>
<stop offset="1" stop-color="#EBEDEE"/>
</linearGradient>
<linearGradient id="paint70_linear_186_9451" x1="1088.89" y1="1909.57" x2="1897.32" y2="385.838" gradientUnits="userSpaceOnUse">
<stop stop-color="#4D575D"/>
<stop offset="0.4835" stop-color="#98A2AE"/>
<stop offset="0.8516" stop-color="#D4DDE8"/>
</linearGradient>
<linearGradient id="paint71_linear_186_9451" x1="1042.17" y1="1878.97" x2="1885.06" y2="290.286" gradientUnits="userSpaceOnUse">
<stop offset="0.1593" stop-color="#18CFAE"/>
<stop offset="0.4015" stop-color="#63D5C5"/>
<stop offset="0.6196" stop-color="#A0D9D8"/>
<stop offset="0.7789" stop-color="#C6DCE4"/>
<stop offset="0.8626" stop-color="#D4DDE8"/>
</linearGradient>
<linearGradient id="paint72_linear_186_9451" x1="1008.37" y1="1632.1" x2="1047.13" y2="1550.18" gradientUnits="userSpaceOnUse">
<stop stop-color="#092D66"/>
<stop offset="0.978" stop-color="#7195BA"/>
</linearGradient>
<linearGradient id="paint73_linear_186_9451" x1="982.94" y1="1596.9" x2="1089.52" y2="1596.9" gradientUnits="userSpaceOnUse">
<stop stop-color="#092D66"/>
<stop offset="0.978" stop-color="#7195BA"/>
</linearGradient>
<linearGradient id="paint74_linear_186_9451" x1="987.63" y1="1596.88" x2="1078.73" y2="1596.88" gradientUnits="userSpaceOnUse">
<stop stop-color="#EBEDEE"/>
<stop offset="0.5323" stop-color="white"/>
<stop offset="0.7485" stop-color="#F9FAFA"/>
<stop offset="1" stop-color="#EBEDEE"/>
</linearGradient>
<linearGradient id="paint75_linear_186_9451" x1="986.328" y1="1451.94" x2="1146.87" y2="1674.33" gradientUnits="userSpaceOnUse">
<stop stop-color="#4D575D"/>
<stop offset="0.4835" stop-color="#98A2AE"/>
<stop offset="0.8516" stop-color="#D4DDE8"/>
</linearGradient>
</defs>
</svg>