<svg xmlns="http://www.w3.org/2000/svg" width="374" height="1280" viewBox="0 0 374 1280" fill="none">
<g clip-path="url(#clip0_407_1226)">
<path d="M496.716 605.088C471.394 612.873 266.085 675.967 266.085 675.967C266.085 675.967 241.477 686.89 220.434 675.735C206.525 668.415 132.343 623.563 132.343 623.563C132.343 623.563 123.902 619.38 121.881 614.616V624.028C121.881 631 132.343 636.81 132.343 636.81C132.343 636.81 206.525 681.661 220.434 688.981C241.477 700.136 266.085 689.214 266.085 689.214C266.085 689.214 471.513 626.468 496.716 618.334C505.989 615.313 509.318 611.944 509.793 608.806C509.912 608.806 509.912 608.806 509.912 608.806V596.141C509.199 599.162 505.751 602.299 496.716 605.088Z" fill="url(#paint0_linear_407_1226)"/>
<path opacity="0.36" d="M241.952 693.397C234.106 693.397 226.973 691.77 220.791 688.4C207.12 681.08 133.413 636.693 132.7 636.229C132.581 636.112 122.476 630.535 122.476 624.028V616.94C125.567 620.891 131.749 623.912 131.986 624.028C132.7 624.493 206.407 668.88 220.078 676.2C226.498 679.57 233.749 681.313 241.833 681.313C254.792 681.313 265.491 676.781 266.204 676.549C269.89 675.387 471.87 613.338 496.835 605.669C503.017 603.81 507.178 601.486 509.199 598.814V608.226H509.08L508.961 608.574C508.367 612.06 504.206 615.081 496.36 617.521C471.395 625.539 267.75 687.82 265.729 688.4C265.729 688.749 255.029 693.397 241.952 693.397Z" fill="url(#paint1_linear_407_1226)"/>
<path d="M509.912 593.469C508.842 589.169 503.255 585.8 503.255 585.8C503.255 585.8 423.247 538.857 410.883 533.047C398.52 527.121 380.806 531.072 380.806 531.072L134.839 604.275C122.594 607.064 120.454 611.13 121.881 614.733C123.902 619.497 132.343 623.68 132.343 623.68C132.343 623.68 206.525 668.531 220.434 675.851C241.476 687.006 266.085 676.084 266.085 676.084C266.085 676.084 471.394 612.99 496.716 605.204C505.751 602.416 509.199 599.162 509.912 596.257V593.469C509.912 593.585 509.912 593.585 509.912 593.469Z" fill="url(#paint2_linear_407_1226)"/>
<path d="M220.435 675.968C206.525 668.647 132.343 623.796 132.343 623.796C132.343 623.796 123.902 619.729 121.763 614.849C121.525 614.151 121.287 613.454 121.287 612.757C121.287 609.62 124.616 606.483 134.721 604.159L380.688 530.955C380.688 530.955 386.394 529.677 393.646 529.677C399.114 529.677 405.534 530.374 410.884 532.931C423.247 538.857 503.255 585.8 503.255 585.8C503.255 585.8 508.961 589.169 510.031 593.585V593.701V596.257C509.318 599.395 505.752 602.532 496.716 605.437C471.395 613.222 266.085 676.316 266.085 676.316C266.085 676.316 255.267 681.08 241.833 681.08C235.057 680.964 227.568 679.686 220.435 675.968ZM384.492 530.491C382.114 530.839 380.688 531.072 380.688 531.072L134.721 604.275C124.616 606.599 121.525 609.736 121.525 612.525C121.525 613.222 121.644 613.803 122 614.384C124.021 619.032 132.462 623.215 132.462 623.215C132.462 623.215 151.007 634.37 171.336 646.57C191.665 658.654 213.658 671.784 220.553 675.387C227.686 679.105 235.176 680.383 241.952 680.383C255.267 680.383 265.966 675.619 266.085 675.619C266.085 675.619 471.395 612.525 496.716 604.74C505.752 601.951 509.199 598.814 509.794 595.909V593.469C509.794 593.469 509.794 593.469 509.794 593.352H509.912H509.794C508.724 589.169 503.136 585.8 503.136 585.8C503.136 585.8 483.164 574.064 461.527 561.631C440.01 549.198 416.828 535.952 410.646 533.047C405.296 530.491 398.995 529.793 393.527 529.793C389.96 529.91 386.751 530.258 384.492 530.491Z" fill="#98B5D4"/>
<path d="M193.924 648.894C191.784 648.894 189.526 648.313 187.98 647.499L175.616 640.412C173.476 639.25 173.239 637.855 173.239 637.158C173.239 636.577 173.714 635.299 175.616 634.602L190.358 629.024C191.309 628.676 192.379 628.56 193.567 628.56C195.707 628.56 197.966 629.141 199.512 629.954L211.875 637.042C214.015 638.204 214.253 639.598 214.253 640.295C214.253 640.876 213.777 642.154 211.875 642.852L197.134 648.429C196.183 648.661 195.113 648.894 193.924 648.894Z" fill="url(#paint3_linear_407_1226)"/>
<path d="M196.777 647.267C194.519 648.08 190.833 647.732 188.574 646.454L176.211 639.366C173.833 638.088 173.833 636.345 176.092 635.531L190.833 629.954C193.092 629.141 196.777 629.489 199.036 630.767L211.4 637.855C213.777 639.133 213.777 640.876 211.519 641.69L196.777 647.267Z" fill="url(#paint4_linear_407_1226)"/>
<g opacity="0.36">
<path opacity="0.36" d="M191.903 639.714L188.337 637.623C187.98 637.39 187.742 637.158 187.624 636.809C187.624 636.461 187.861 636.229 188.218 636.112L192.498 634.486C192.735 634.369 193.092 634.369 193.449 634.369C194.043 634.369 194.638 634.486 195.113 634.834L198.68 636.926C199.036 637.158 199.274 637.39 199.274 637.739C199.274 638.088 199.036 638.32 198.68 638.436L194.4 640.063C194.162 640.179 193.805 640.179 193.449 640.179C193.092 640.179 192.379 640.063 191.903 639.714ZM193.568 634.834C193.33 634.834 193.092 634.834 192.854 634.95L188.575 636.577C188.337 636.693 188.337 636.809 188.337 636.809C188.337 636.809 188.456 637.042 188.693 637.158L192.26 639.25C192.617 639.482 193.211 639.598 193.687 639.598C193.924 639.598 194.162 639.598 194.4 639.482L198.68 637.855C198.917 637.739 199.036 637.623 198.917 637.623C198.917 637.623 198.798 637.39 198.561 637.274L194.994 635.183C194.638 635.067 194.043 634.834 193.568 634.834Z" fill="#092D66"/>
</g>
<path d="M211.281 637.971L198.917 630.884C196.539 629.605 192.854 629.257 190.714 630.07L175.854 635.531C175.022 635.88 174.427 636.345 174.309 636.81L188.812 631.348C191.071 630.535 194.756 630.884 197.015 632.162L209.379 639.25C210.805 640.063 211.4 640.993 211.043 641.806L211.281 641.69C213.658 640.993 213.54 639.25 211.281 637.971Z" fill="url(#paint5_linear_407_1226)"/>
<path d="M190.358 645.059L177.994 637.971C176.567 637.158 175.973 636.229 176.329 635.415L176.092 635.531C173.833 636.345 173.952 638.088 176.211 639.366L188.574 646.454C190.952 647.732 194.637 648.08 196.777 647.267L211.519 641.69C212.351 641.341 212.945 640.876 213.064 640.412L198.56 645.873C196.302 646.686 192.616 646.338 190.358 645.059Z" fill="url(#paint6_linear_407_1226)"/>
<path d="M164.084 603.113C163.965 602.764 164.203 602.532 164.441 602.416L385.443 537.578C385.799 537.462 386.037 537.695 386.156 537.927C386.275 538.276 386.037 538.508 385.799 538.624L164.798 603.461H164.679C164.322 603.461 164.084 603.345 164.084 603.113Z" fill="#7195BA"/>
<path d="M163.727 573.25C163.609 573.018 163.846 572.786 163.965 572.786L384.491 512.364C384.729 512.248 384.967 512.48 384.967 512.596C385.086 512.829 384.848 513.061 384.729 513.061L164.203 573.483H164.084C163.965 573.599 163.727 573.483 163.727 573.25Z" fill="#7195BA"/>
<path d="M162.182 545.015C162.182 544.783 162.301 544.55 162.539 544.55L384.61 487.033C384.848 487.033 385.086 487.15 385.086 487.382C385.205 487.614 384.967 487.847 384.729 487.847L162.776 545.247H162.658C162.42 545.247 162.301 545.131 162.182 545.015Z" fill="#7195BA"/>
<path d="M162.658 514.688C162.658 514.456 162.777 514.223 163.014 514.223L383.541 462.516C383.778 462.516 384.016 462.632 384.016 462.865C384.016 463.097 383.897 463.329 383.66 463.329L163.133 515.037H163.014C162.896 515.037 162.777 514.92 162.658 514.688Z" fill="#7195BA"/>
<path d="M162.182 484.942C162.182 484.71 162.301 484.477 162.539 484.477L382.589 435.675C382.827 435.675 383.065 435.791 383.065 436.024C383.065 436.256 382.946 436.488 382.708 436.488L162.658 485.291H162.539C162.42 485.291 162.301 485.174 162.182 484.942Z" fill="#7195BA"/>
<path d="M160.755 456.706C160.755 456.474 160.874 456.242 161.112 456.242L382.708 408.95C382.946 408.95 383.184 409.066 383.184 409.299C383.184 409.531 383.065 409.763 382.827 409.763L161.231 457.055H161.112C160.874 457.055 160.755 456.939 160.755 456.706Z" fill="#7195BA"/>
<path d="M168.958 601.486L165.392 450.199C165.392 449.967 165.511 449.735 165.748 449.735C165.986 449.735 166.224 449.967 166.224 450.083L169.79 601.37C169.79 601.602 169.553 601.835 169.434 601.835C169.077 601.835 168.958 601.718 168.958 601.486Z" fill="#7195BA"/>
<path d="M205.098 594.398L201.532 443.111C201.532 442.879 201.769 442.647 201.888 442.647C202.126 442.647 202.364 442.879 202.364 442.995L205.93 594.282C205.93 594.514 205.693 594.747 205.574 594.747C205.217 594.863 205.098 594.631 205.098 594.398Z" fill="#7195BA"/>
<path d="M241.239 586.497L237.672 435.21C237.672 434.978 237.91 434.745 238.029 434.745C238.266 434.745 238.504 434.978 238.504 435.094L242.071 586.381C242.071 586.613 241.833 586.845 241.714 586.845C241.476 586.845 241.239 586.729 241.239 586.497Z" fill="#7195BA"/>
<path d="M277.379 578.595L273.812 427.309C273.812 427.076 274.05 426.844 274.169 426.844C274.406 426.844 274.644 426.96 274.644 427.193L278.211 578.479C278.211 578.712 277.973 578.944 277.854 578.944C277.616 578.944 277.379 578.828 277.379 578.595Z" fill="#7195BA"/>
<path d="M313.519 570.694L309.952 419.408C309.952 419.175 310.071 418.943 310.309 418.943C310.547 418.943 310.785 419.059 310.785 419.291L314.351 570.578C314.351 570.81 314.113 571.043 313.994 571.043C313.757 571.043 313.519 570.927 313.519 570.694Z" fill="#7195BA"/>
<path d="M346.092 411.39H346.924L350.491 562.677H349.659L346.092 411.39Z" fill="#7195BA"/>
<g opacity="0.9">
<path opacity="0.9" d="M276.547 665.277L167.175 602.416L358.694 544.783L471.632 606.018L276.547 665.277Z" fill="url(#paint7_linear_407_1226)"/>
<path opacity="0.9" d="M166.224 602.299L358.813 544.318L472.702 606.134L276.784 665.626H276.666L166.224 602.299ZM276.547 665.278L276.784 664.929L276.547 665.278ZM168.245 602.532L276.666 664.813L470.562 605.902L358.694 545.131L168.245 602.532Z" fill="#0D3169"/>
</g>
<path opacity="0.3" d="M150.651 649.94L149.938 641.574L189.05 665.394L189.763 673.76L150.651 649.94Z" fill="white"/>
<path opacity="0.6" d="M188.217 671.32L151.958 649.126L151.483 644.13L187.742 666.207L188.217 671.32Z" fill="url(#paint8_linear_407_1226)"/>
<path d="M152.077 649.242L157.308 647.732L187.742 666.207L188.217 671.32L152.077 649.242Z" fill="url(#paint9_linear_407_1226)"/>
<path opacity="0.3" d="M404.406 419.023C422.714 467.941 367.671 532.662 281.244 563.686C194.817 594.71 109.935 580.186 91.5082 531.268C73.2004 482.465 128.362 417.628 214.67 386.72C301.097 355.696 385.979 370.104 404.406 419.023Z" fill="url(#paint10_radial_407_1226)"/>
<path d="M167.176 602.416L358.694 544.783L470.206 606.018L466.877 607.296L357.387 548.152L171.218 604.74L167.176 602.416Z" fill="url(#paint11_linear_407_1226)"/>
<g opacity="0.67">
<path opacity="0.67" d="M353.464 503.533L382.233 497.143L407.317 506.787L378.786 514.339L353.464 503.533Z" fill="url(#paint12_linear_407_1226)"/>
<path opacity="0.67" d="M353.226 503.998L353.464 503.417L353.583 503.998L353.464 503.417L353.226 503.998L351.562 503.301L382.353 496.562L409.22 506.903L378.786 515.037L353.226 503.998ZM378.905 513.758L405.416 506.671L382.234 497.84L355.366 503.766L378.905 513.758Z" fill="#D4DDE8"/>
</g>
<g opacity="0.67">
<path opacity="0.67" d="M378.786 598.581L353.107 584.289L383.422 576.272L407.317 589.983L378.786 598.581Z" fill="url(#paint13_linear_407_1226)"/>
<path opacity="0.67" d="M378.786 598.581L378.548 599.046L351.562 584.057L383.422 575.575L408.625 589.983L378.904 599.046L378.786 598.581ZM354.653 584.522L378.904 598L405.772 589.867L383.303 576.969L354.653 584.522Z" fill="#D4DDE8"/>
</g>
<g opacity="0.67">
<path opacity="0.67" d="M378.786 598.581V514.339L353.107 503.533V584.289L378.786 598.581Z" fill="url(#paint14_linear_407_1226)"/>
<path opacity="0.67" d="M352.513 584.638V502.604L379.38 513.991V598.697V599.743L352.513 584.638ZM378.786 598.581L379.023 598.116L378.786 598.581ZM353.702 583.941L378.191 597.535V514.688L353.702 504.347V583.941Z" fill="#D4DDE8"/>
</g>
<path opacity="0.1" d="M180.49 601.137L210.686 591.726L315.54 653.309L284.512 662.256L180.49 601.137Z" fill="white"/>
<path d="M367.611 472.625C367.849 461.703 374.506 453.453 382.471 452.059C384.373 451.594 386.037 451.594 386.037 451.594C381.995 450.78 378.667 451.129 376.17 451.826C368.324 453.453 361.786 461.587 361.548 472.393C360.953 482.386 368.918 497.491 374.625 502.836C376.884 505.857 383.779 505.857 383.779 505.857C383.422 505.509 383.779 505.392 383.065 505.16C378.31 503.766 366.897 484.361 367.611 472.625Z" fill="url(#paint15_linear_407_1226)"/>
<g opacity="0.67">
<path opacity="0.67" d="M385.086 451.826C384.254 451.826 383.303 451.942 382.471 452.059C374.387 453.453 367.848 461.935 367.611 472.974C366.897 484.942 378.667 504.463 383.422 505.857C383.66 505.857 383.778 505.973 383.897 505.973C387.82 505.857 396.38 491.449 398.758 483.431C399.946 480.41 400.66 477.041 400.779 473.439C401.016 461.122 394.24 451.942 385.086 451.826Z" fill="url(#paint16_linear_407_1226)"/>
<path opacity="0.67" d="M383.779 506.438C383.541 506.438 383.303 506.438 383.184 506.322C380.45 505.392 376.646 500.512 373.198 494.121C369.751 487.731 366.897 480.062 366.897 473.903C366.897 473.555 366.897 473.206 366.897 472.858C367.135 461.587 373.912 452.872 382.352 451.361C383.184 451.245 384.016 451.129 384.849 451.129C384.968 451.129 384.968 451.129 385.086 451.129C394.478 451.245 401.373 460.425 401.373 472.509C401.373 472.741 401.373 472.974 401.373 473.322C401.254 477.041 400.541 480.41 399.352 483.431C398.163 487.498 395.429 493.192 392.457 497.84C389.366 502.604 386.513 506.322 383.779 506.438ZM391.387 497.259C394.24 492.727 396.975 487.033 398.163 483.083C399.352 480.178 400.066 476.808 400.184 473.322C400.184 473.09 400.184 472.858 400.184 472.625C400.184 461.006 393.646 452.523 385.086 452.407V451.826V452.407C384.968 452.407 384.968 452.407 384.968 452.407C384.135 452.407 383.422 452.523 382.709 452.64C374.981 454.034 368.562 462.168 368.324 472.974C368.324 473.322 368.324 473.671 368.324 473.903C368.324 479.713 371.058 487.382 374.506 493.54C377.835 499.815 381.877 504.695 383.779 505.16C383.898 505.16 384.016 505.16 384.135 505.16C385.324 505.276 388.653 501.79 391.387 497.259Z" fill="#D4DDE8"/>
</g>
<path d="M396.142 473.555C395.905 481.572 390.436 488.079 384.017 487.963C377.478 487.847 372.366 481.34 372.604 473.322C372.842 465.305 378.31 458.798 384.73 458.914C391.268 459.03 396.38 465.537 396.142 473.555Z" fill="white"/>
<path d="M384.017 488.544C377.24 488.428 372.009 481.805 372.009 473.787C372.009 473.671 372.009 473.438 372.009 473.322C372.247 465.072 377.716 458.333 384.611 458.333H384.73C391.506 458.449 396.737 465.072 396.737 473.09C396.737 473.206 396.737 473.439 396.737 473.555H396.142H396.737C396.499 481.805 391.031 488.544 384.135 488.544C384.017 488.544 384.017 488.544 384.017 488.544ZM373.198 473.322C373.198 473.438 373.198 473.671 373.198 473.787C373.198 481.34 378.072 487.382 384.017 487.382H384.135C390.198 487.382 395.429 481.34 395.548 473.555C395.548 473.439 395.548 473.206 395.548 473.09C395.548 465.537 390.674 459.495 384.73 459.495C384.73 459.495 384.73 459.495 384.611 459.495C378.548 459.495 373.436 465.653 373.198 473.322Z" fill="#D4DDE8"/>
<path opacity="0.2" d="M369.394 474.484C369.632 462.284 377.716 453.221 386.87 453.337C389.485 453.337 391.863 454.15 393.884 455.428C391.268 452.988 388.177 451.594 384.611 451.594C375.457 451.478 367.373 460.541 367.135 472.741C366.541 484.361 377.597 503.068 382.471 505.509C377.002 499.931 368.8 484.477 369.394 474.484Z" fill="white"/>
<path d="M368.086 473.555C368.324 461.354 376.408 452.291 385.562 452.407C388.415 452.407 391.03 453.337 393.289 455.08C393.527 455.196 393.765 455.312 393.884 455.428C391.268 452.988 388.177 451.594 384.611 451.594C375.457 451.478 367.373 460.541 367.135 472.741C366.541 483.199 376.289 499.931 381.639 504.811C376.289 499.118 367.492 483.431 368.086 473.555Z" fill="white"/>
<g opacity="0.8">
<path opacity="0.8" d="M312.093 456.474L340.862 448.456L365.946 457.984L337.415 465.537L312.093 456.474Z" fill="url(#paint17_linear_407_1226)"/>
<path opacity="0.8" d="M337.295 466.118L311.855 457.055L312.092 456.474L312.211 457.055L312.092 456.474L311.855 457.055C311.617 456.939 311.498 456.706 311.498 456.474C311.498 456.242 311.736 456.009 311.974 455.893L340.743 447.759C340.862 447.759 340.981 447.759 341.1 447.759L366.065 457.404C366.303 457.52 366.421 457.752 366.421 457.984C366.421 458.217 366.184 458.449 365.946 458.565L337.533 466.118H337.295ZM337.533 464.956L364.044 457.868L340.862 449.037L313.994 456.59L337.533 464.956Z" fill="#D4DDE8"/>
</g>
<g opacity="0.8">
<path opacity="0.8" d="M337.415 610.549L311.736 596.257L342.051 588.24L365.946 601.835L337.415 610.549Z" fill="url(#paint18_linear_407_1226)"/>
<path opacity="0.8" d="M337.296 611.014C337.177 611.014 337.177 611.014 337.296 611.014C337.177 611.014 337.177 611.014 337.296 611.014C337.177 611.014 337.177 611.014 337.177 611.014L311.498 596.722C311.261 596.606 311.142 596.374 311.261 596.141C311.261 595.909 311.498 595.676 311.736 595.676L342.051 587.659C342.17 587.659 342.408 587.659 342.527 587.775L366.422 601.486C366.66 601.602 366.778 601.835 366.66 602.067C366.66 602.299 366.422 602.532 366.303 602.532L337.89 611.13H337.771C337.415 611.13 337.415 611.014 337.296 611.014ZM313.282 596.373L337.534 609.852L364.401 601.718L341.932 588.821L313.282 596.373Z" fill="#D4DDE8"/>
</g>
<g opacity="0.8">
<path opacity="0.8" d="M337.414 610.549V465.537L365.946 457.985V601.835L337.414 610.549Z" fill="url(#paint19_linear_407_1226)"/>
<path opacity="0.8" d="M337.177 611.014C337.058 610.898 336.939 610.782 336.939 610.549V465.537C336.939 465.305 337.177 465.073 337.415 464.956L365.827 457.404C365.946 457.404 366.184 457.404 366.303 457.52C366.422 457.636 366.541 457.752 366.541 457.985V601.835C366.541 602.067 366.422 602.3 366.184 602.416L337.771 611.014H337.652C337.296 611.13 337.177 611.014 337.177 611.014ZM338.009 610.549H337.415H338.009ZM338.009 466.002V609.736L365.233 601.486V458.798L338.009 466.002Z" fill="#D4DDE8"/>
</g>
<g opacity="0.8">
<path opacity="0.8" d="M337.415 610.549V465.537L311.736 456.474V596.257L337.415 610.549Z" fill="url(#paint20_linear_407_1226)"/>
<path opacity="0.8" d="M337.177 611.014L311.498 596.722C311.261 596.606 311.142 596.374 311.142 596.257V456.474C311.142 456.242 311.261 456.125 311.38 456.009C311.498 455.893 311.736 455.893 311.974 455.893L337.652 464.956C337.89 465.072 338.009 465.305 338.009 465.537V610.433C338.009 610.666 337.89 610.782 337.771 610.898C337.652 610.898 337.534 611.014 337.415 611.014C337.415 611.13 337.296 611.014 337.177 611.014ZM337.415 610.549L337.652 610.085L337.415 610.549ZM312.331 595.909L336.82 609.504V466.002L312.331 457.404V595.909Z" fill="#D4DDE8"/>
</g>
<path opacity="0.1" d="M227.567 586.381L255.861 578.828L363.925 638.553L332.897 647.5L227.567 586.381Z" fill="white"/>
<g opacity="0.8">
<path opacity="0.8" d="M266.442 496.678L295.211 488.544L320.295 498.072L291.883 505.741L266.442 496.678Z" fill="url(#paint21_linear_407_1226)"/>
<path opacity="0.8" d="M291.644 506.206L266.204 497.143L266.441 496.562L266.56 497.143L266.441 496.562L266.204 497.143C265.966 497.026 265.847 496.794 265.847 496.562C265.847 496.329 266.085 496.097 266.322 495.981L295.092 487.847C295.211 487.847 295.33 487.847 295.449 487.847L320.414 497.491C320.652 497.607 320.77 497.84 320.77 498.072C320.77 498.304 320.533 498.537 320.295 498.653L291.882 506.206H291.644ZM291.882 505.044L318.393 497.956L295.211 489.125L268.343 496.678L291.882 505.044Z" fill="#D4DDE8"/>
</g>
<g opacity="0.8">
<path opacity="0.8" d="M291.882 622.982L266.085 608.69L296.4 600.673L320.295 614.384L291.882 622.982Z" fill="url(#paint22_linear_407_1226)"/>
<path opacity="0.8" d="M291.526 623.447L265.847 609.155C265.61 609.039 265.491 608.807 265.61 608.574C265.61 608.342 265.847 608.109 266.085 608.109L296.4 600.092C296.519 600.092 296.757 600.092 296.875 600.208L320.771 613.919C321.009 614.035 321.127 614.268 321.009 614.5C321.009 614.732 320.771 614.965 320.533 614.965L292.12 623.563C292.001 623.563 292.001 623.563 291.882 623.563C291.764 623.563 291.645 623.563 291.526 623.447ZM267.749 608.923L292.001 622.401L318.869 614.268L296.4 601.37L267.749 608.923Z" fill="#D4DDE8"/>
</g>
<g opacity="0.8">
<path opacity="0.8" d="M291.882 622.982V505.741L320.295 498.072V614.384L291.882 622.982Z" fill="url(#paint23_linear_407_1226)"/>
<path opacity="0.8" d="M291.526 623.447C291.407 623.331 291.288 623.215 291.288 622.982V505.741C291.288 505.509 291.526 505.276 291.764 505.16L320.176 497.607C320.295 497.607 320.533 497.607 320.652 497.724C320.771 497.84 320.89 497.956 320.89 498.188V614.384C320.89 614.616 320.771 614.849 320.414 614.965L292.001 623.563H291.882C291.764 623.563 291.645 623.563 291.526 623.447ZM292.477 622.982H291.882H292.477ZM292.477 506.206V622.285L319.701 614.035V499.002L292.477 506.206Z" fill="#D4DDE8"/>
</g>
<g opacity="0.8">
<path opacity="0.8" d="M291.883 622.982V505.741L266.085 496.678V608.69L291.883 622.982Z" fill="url(#paint24_linear_407_1226)"/>
<path opacity="0.8" d="M291.526 623.447L265.847 609.155C265.61 609.039 265.491 608.807 265.491 608.69V496.562C265.491 496.329 265.61 496.213 265.729 496.097C265.847 495.981 266.085 495.981 266.323 495.981L292.001 505.044C292.239 505.16 292.358 505.392 292.358 505.625V622.866C292.358 623.099 292.239 623.215 292.12 623.331C292.001 623.331 291.883 623.447 291.764 623.447C291.764 623.563 291.645 623.563 291.526 623.447ZM291.883 622.982L292.12 622.518L291.883 622.982ZM266.68 608.342L291.169 621.937V506.09L266.68 497.491V608.342Z" fill="#D4DDE8"/>
</g>
<path d="M277.736 462.284C277.973 451.361 284.631 443.111 292.596 441.717C294.498 441.252 296.162 441.252 296.162 441.252C292.12 440.439 288.792 440.787 286.295 441.485C278.449 443.111 271.91 451.245 271.673 462.051C271.078 472.044 279.043 487.15 284.75 492.495C287.009 495.516 293.904 495.516 293.904 495.516C293.547 495.167 293.904 495.051 293.19 494.818C288.435 493.54 277.022 474.019 277.736 462.284Z" fill="url(#paint25_linear_407_1226)"/>
<g opacity="0.8">
<path opacity="0.8" d="M295.212 441.485C294.379 441.485 293.428 441.601 292.596 441.717C284.512 443.111 277.974 451.594 277.736 462.632C277.023 474.6 288.792 494.121 293.547 495.516C293.666 495.516 293.904 495.632 294.023 495.632C297.946 495.516 306.505 481.107 308.883 473.09C310.072 470.069 310.785 466.699 310.904 463.097C311.142 450.897 304.365 441.601 295.212 441.485Z" fill="url(#paint26_linear_407_1226)"/>
<path opacity="0.8" d="M293.904 496.213C293.666 496.213 293.428 496.213 293.309 496.097C290.575 495.283 286.771 490.287 283.323 483.896C279.876 477.505 277.022 469.836 277.022 463.678C277.022 463.33 277.022 462.981 277.022 462.632C277.26 451.361 284.036 442.647 292.477 441.136C293.309 441.02 294.141 440.904 294.974 440.904C295.092 440.904 295.092 440.904 295.211 440.904C304.603 441.02 311.498 450.199 311.498 462.284C311.498 462.516 311.498 462.749 311.498 463.097C311.379 466.815 310.666 470.185 309.477 473.206C308.288 477.273 305.554 482.967 302.582 487.614C299.491 492.262 296.638 496.097 293.904 496.213C294.023 496.213 294.023 496.213 293.904 496.213ZM294.023 495.051C295.449 495.051 298.659 491.565 301.512 487.033C304.365 482.502 307.1 476.808 308.288 472.858C309.477 469.953 310.191 466.583 310.309 463.097C310.309 462.865 310.309 462.632 310.309 462.4C310.309 450.78 303.771 442.298 295.211 442.182V441.601V442.182H295.093C294.26 442.182 293.547 442.298 292.715 442.414C284.988 443.809 278.568 451.942 278.33 462.749C278.33 463.097 278.33 463.446 278.33 463.678C278.33 469.488 281.064 477.157 284.512 483.315C287.841 489.59 291.883 494.47 293.785 494.935C293.785 495.051 293.904 495.051 294.023 495.051Z" fill="#D4DDE8"/>
</g>
<path d="M307.813 463.329C307.575 471.347 301.75 477.854 294.855 477.738C287.96 477.621 282.491 471.115 282.729 463.097C282.966 455.08 288.792 448.573 295.687 448.689C302.582 448.805 308.051 455.312 307.813 463.329Z" fill="white"/>
<path d="M294.855 478.319C287.603 478.203 282.134 471.579 282.134 463.562C282.134 463.446 282.134 463.213 282.134 463.097C282.372 454.847 288.316 448.108 295.568 448.108H295.687C302.939 448.224 308.407 454.847 308.407 462.865C308.407 462.981 308.407 463.213 308.407 463.33H307.813H308.407C308.17 471.579 302.225 478.319 294.974 478.319H294.855ZM294.974 477.157C301.393 477.157 306.981 470.998 307.218 463.33C307.218 463.213 307.218 462.981 307.218 462.865C307.218 455.312 301.988 449.27 295.687 449.27C295.687 449.27 295.687 449.27 295.568 449.27C289.148 449.27 283.561 455.428 283.323 463.097C283.323 463.213 283.323 463.446 283.323 463.562C283.323 471.115 288.554 477.157 294.855 477.157C294.855 477.157 294.855 477.157 294.974 477.157Z" fill="#D4DDE8"/>
<path opacity="0.2" d="M279.519 464.259C279.757 452.059 287.841 442.995 296.995 443.111C299.61 443.111 301.988 443.925 304.009 445.203C301.393 442.763 298.302 441.369 294.736 441.369C285.582 441.252 277.498 450.316 277.26 462.516C276.666 474.136 287.722 492.843 292.596 495.283C287.127 489.706 278.925 474.252 279.519 464.259Z" fill="white"/>
<path d="M278.211 463.33C278.449 451.129 286.533 442.066 295.687 442.182C298.54 442.182 301.156 443.111 303.414 444.854C303.652 444.971 303.89 445.087 304.009 445.203C301.393 442.763 298.302 441.369 294.736 441.369C285.582 441.252 277.498 450.316 277.26 462.516C276.666 472.974 286.414 489.706 291.764 494.586C286.414 488.776 277.617 473.206 278.211 463.33Z" fill="white"/>
<g opacity="0.9">
<path opacity="0.9" d="M219.008 566.163L247.778 559.888L272.862 569.416L244.449 577.085L219.008 566.163Z" fill="url(#paint27_linear_407_1226)"/>
<path opacity="0.9" d="M218.77 566.744L219.008 566.163L219.127 566.744L219.008 566.163L218.77 566.744L217.106 566.046L247.897 559.307L274.764 569.649L244.33 577.782L218.77 566.744ZM244.449 576.388L270.96 569.3L247.778 560.469L220.91 566.395L244.449 576.388Z" fill="#D4DDE8"/>
</g>
<g opacity="0.8">
<path opacity="0.8" d="M244.449 637.275L218.652 622.982L248.967 614.965L272.862 628.676L244.449 637.275Z" fill="url(#paint28_linear_407_1226)"/>
<path opacity="0.8" d="M244.092 637.739L218.414 623.447C218.176 623.331 218.057 623.099 218.176 622.866C218.176 622.634 218.414 622.401 218.652 622.401L248.967 614.384C249.085 614.384 249.323 614.384 249.442 614.5L273.337 628.211C273.575 628.327 273.694 628.56 273.575 628.792C273.575 629.025 273.337 629.257 273.218 629.257L244.806 637.855H244.687C244.33 637.855 244.211 637.855 244.092 637.739ZM220.197 623.215L244.449 636.693L271.316 628.56L248.848 615.662L220.197 623.215Z" fill="#D4DDE8"/>
</g>
<g opacity="0.9">
<path opacity="0.9" d="M244.449 637.274V577.085L272.862 569.416V628.676L244.449 637.274Z" fill="url(#paint29_linear_407_1226)"/>
<path opacity="0.9" d="M243.854 576.62L273.456 568.719V629.025L244.568 637.739L243.854 637.972V576.62ZM245.043 637.274H244.449H245.043ZM245.043 577.55V636.461L272.267 628.211V570.23L245.043 577.55Z" fill="#D4DDE8"/>
</g>
<g opacity="0.9">
<path opacity="0.9" d="M244.449 637.274V577.085L218.652 566.163V622.982L244.449 637.274Z" fill="url(#paint30_linear_407_1226)"/>
<path opacity="0.9" d="M218.057 623.331V565.349L244.924 576.736V637.274V638.32L218.057 623.331ZM244.449 637.274L244.687 636.81L244.449 637.274ZM219.246 622.634L243.736 636.229V577.434L219.246 567.092V622.634Z" fill="#D4DDE8"/>
</g>
<path d="M232.085 535.371C232.323 524.448 238.98 516.199 246.946 514.804C248.848 514.339 250.512 514.339 250.512 514.339C246.47 513.526 243.141 513.875 240.645 514.572C232.799 516.199 226.26 524.332 226.022 535.138C225.428 545.131 233.393 560.237 239.099 565.582C241.358 568.603 248.253 568.603 248.253 568.603C247.897 568.254 248.253 568.138 247.54 567.906C242.785 566.627 231.372 547.107 232.085 535.371Z" fill="url(#paint31_linear_407_1226)"/>
<g opacity="0.8">
<path opacity="0.8" d="M249.561 514.572C248.729 514.572 247.778 514.688 246.945 514.804C238.862 516.199 232.323 524.681 232.085 535.719C231.372 547.688 243.141 567.208 247.897 568.603C248.134 568.603 248.253 568.719 248.372 568.719C252.295 568.603 260.855 554.195 263.232 546.177C264.421 543.156 265.134 539.786 265.253 536.184C265.491 523.984 258.715 514.688 249.561 514.572Z" fill="url(#paint32_linear_407_1226)"/>
<path opacity="0.8" d="M248.253 569.3C248.015 569.3 247.778 569.3 247.659 569.184C244.924 568.254 241.12 563.374 237.673 556.983C234.225 550.592 231.372 542.924 231.372 536.765C231.372 536.417 231.372 536.068 231.372 535.719C231.61 524.448 238.386 515.734 246.826 514.223C247.659 514.107 248.491 513.991 249.323 513.991C249.442 513.991 249.442 513.991 249.561 513.991C258.952 514.107 265.848 523.287 265.848 535.371C265.848 535.603 265.848 535.836 265.848 536.184C265.729 539.902 265.015 543.272 263.827 546.293C262.638 550.36 259.903 556.054 256.931 560.701C253.841 565.349 250.987 569.068 248.253 569.3ZM248.372 568.138C249.799 568.138 253.008 564.652 255.862 560.121C258.715 555.589 261.449 549.895 262.638 545.945C263.827 543.04 264.54 539.67 264.659 536.184C264.659 535.952 264.659 535.719 264.659 535.487C264.659 523.867 258.12 515.385 249.561 515.269V514.688V515.269H249.442C248.61 515.269 247.896 515.385 247.064 515.501C239.337 516.896 232.917 525.029 232.68 535.836C232.68 536.184 232.68 536.533 232.68 536.765C232.68 542.575 235.414 550.244 238.861 556.402C242.19 562.677 246.232 567.557 248.134 568.022C248.134 568.138 248.253 568.138 248.372 568.138Z" fill="#D4DDE8"/>
</g>
<path d="M261.687 536.416C261.449 544.434 255.743 550.941 248.966 550.825C242.19 550.709 236.84 544.202 237.078 536.184C237.316 528.167 243.022 521.66 249.799 521.776C256.575 521.892 261.925 528.399 261.687 536.416Z" fill="white"/>
<path d="M236.484 536.649C236.484 536.533 236.484 536.3 236.484 536.184C236.722 527.934 242.547 521.195 249.68 521.195H249.799C256.932 521.311 262.281 527.934 262.281 535.952C262.281 536.068 262.281 536.3 262.281 536.416H261.687H262.281C262.043 544.666 256.218 551.406 249.085 551.406H248.966C241.952 551.29 236.484 544.666 236.484 536.649ZM249.085 550.244C255.386 550.244 260.855 544.202 261.092 536.416C261.092 536.3 261.092 536.068 261.092 535.952C261.092 528.399 255.981 522.357 249.68 522.357C249.68 522.357 249.68 522.357 249.561 522.357C243.26 522.357 237.792 528.399 237.554 536.184C237.554 536.3 237.554 536.533 237.554 536.649C237.554 544.202 242.666 550.244 248.848 550.244C248.966 550.244 249.085 550.244 249.085 550.244Z" fill="#D4DDE8"/>
<path opacity="0.2" d="M233.868 537.346C234.106 525.146 242.19 516.082 251.344 516.199C253.959 516.199 256.337 517.012 258.358 518.29C255.743 515.85 252.652 514.456 249.085 514.456C239.931 514.339 231.847 523.403 231.61 535.603C231.015 547.223 242.071 565.93 246.945 568.37C241.596 562.793 233.274 547.339 233.868 537.346Z" fill="white"/>
<path d="M232.561 536.417C232.798 524.216 240.882 515.153 250.036 515.269C252.89 515.269 255.505 516.199 257.764 517.942C258.001 518.058 258.239 518.174 258.358 518.29C255.743 515.85 252.652 514.456 249.085 514.456C239.931 514.339 231.847 523.403 231.61 535.603C231.015 546.061 240.764 562.793 246.113 567.673C240.764 561.863 231.966 546.293 232.561 536.417Z" fill="white"/>
<path opacity="0.1" d="M270.84 572.553L299.134 564.536L407.317 624.725L377.121 633.672L270.84 572.553Z" fill="white"/>
<path opacity="0.1" d="M309.596 561.05L342.526 552.103L451.066 611.828L420.037 621.239L309.596 561.05Z" fill="white"/>
<path d="M302.437 376.086C303.013 349.628 319.14 329.643 338.435 326.266C343.042 325.14 347.074 325.14 347.074 325.14C337.283 323.17 329.219 324.014 323.172 325.703C304.165 329.643 288.326 349.346 287.751 375.523C286.311 399.73 305.605 436.321 319.428 449.269C324.9 456.587 341.603 456.587 341.603 456.587C340.739 455.742 341.603 455.461 339.875 454.898C328.643 451.52 300.998 404.515 302.437 376.086Z" fill="url(#paint33_linear_407_1226)"/>
<g opacity="0.8">
<path opacity="0.8" d="M345.058 325.703C343.042 325.703 340.738 325.985 338.723 326.266C319.14 329.644 303.301 350.191 302.725 376.931C300.997 405.922 329.507 453.209 341.026 456.587C341.314 456.587 341.89 456.869 342.178 456.869C351.682 456.587 372.416 421.685 378.176 402.263C381.055 394.945 382.783 386.782 383.071 378.057C383.647 348.502 367.232 325.984 345.058 325.703Z" fill="url(#paint34_linear_407_1226)"/>
<path opacity="0.8" d="M341.89 458.276C341.315 458.276 340.739 458.276 340.163 457.994C333.539 456.024 324.324 443.921 315.972 428.44C307.621 412.959 300.709 394.382 300.709 379.464C300.709 378.619 300.709 377.775 300.709 376.931C301.285 349.628 317.7 328.518 338.147 324.858C340.163 324.577 342.178 324.295 344.194 324.295C344.482 324.295 344.482 324.295 344.77 324.295C367.521 324.577 384.223 346.813 384.223 376.086C384.223 376.649 384.223 377.212 384.223 378.056C383.935 387.064 382.207 395.226 379.328 402.544C376.448 412.396 369.824 426.188 362.625 437.447C355.425 448.706 348.226 457.713 341.89 458.276ZM342.178 455.461C345.634 455.461 353.41 447.017 360.321 436.039C367.233 425.062 373.856 411.27 376.736 401.7C379.616 394.663 381.343 386.501 381.631 378.056C381.631 377.494 381.631 376.931 381.631 376.368C381.631 348.221 365.793 327.673 345.058 327.392V325.984V327.392H344.77C342.754 327.392 341.026 327.673 339.011 327.955C320.292 331.332 304.741 351.035 304.165 377.212C304.165 378.056 304.165 378.901 304.165 379.464C304.165 393.537 310.789 412.114 319.14 427.032C327.204 442.232 336.995 454.054 341.602 455.179C341.602 455.461 341.89 455.461 342.178 455.461C341.89 455.461 341.89 455.461 342.178 455.461C341.89 455.461 342.178 455.461 342.178 455.461Z" fill="#D4DDE8"/>
</g>
<path d="M375.008 378.619C374.432 398.041 360.609 413.803 343.906 413.522C327.204 413.24 314.244 397.478 314.82 378.056C315.396 358.635 329.219 342.872 345.922 343.154C362.625 343.154 375.584 359.198 375.008 378.619Z" fill="white"/>
<path d="M343.906 414.929C326.627 414.648 313.38 398.604 313.38 379.182C313.38 378.901 313.38 378.338 313.38 378.056C313.956 358.072 328.067 341.747 345.634 341.747H345.922C363.2 342.028 376.447 358.072 376.447 377.493C376.447 377.775 376.447 378.338 376.447 378.619H375.008H376.447C375.872 398.604 361.761 414.929 344.194 414.929H343.906ZM344.194 412.114C359.745 412.114 372.992 397.478 373.568 378.619C373.568 378.338 373.568 377.775 373.568 377.493C373.568 359.198 361.185 344.561 345.634 344.561C345.634 344.561 345.634 344.561 345.346 344.561C329.795 344.561 316.548 359.198 315.972 378.056C315.972 378.338 315.972 378.901 315.972 379.182C315.972 397.478 328.355 412.114 343.618 412.114C343.906 412.114 343.906 412.114 344.194 412.114Z" fill="#21A497"/>
<path opacity="0.2" d="M307.045 380.871C307.621 351.317 327.204 329.362 349.378 329.644C355.714 329.644 361.473 331.614 366.369 334.71C360.034 328.799 352.546 325.421 343.907 325.421C321.732 325.14 302.15 347.095 301.574 376.649C300.134 404.796 326.916 450.113 338.723 456.024C325.476 442.513 305.606 405.078 307.045 380.871Z" fill="white"/>
<path d="M303.59 378.619C304.165 349.065 323.748 327.11 345.922 327.392C352.834 327.392 359.169 329.644 364.641 333.866C365.217 334.147 365.793 334.429 366.081 334.71C359.745 328.799 352.258 325.421 343.619 325.421C321.444 325.14 301.862 347.095 301.286 376.649C299.846 401.982 323.46 442.513 336.419 454.335C323.46 440.262 302.438 402.544 303.59 378.619Z" fill="white"/>




<path fill-rule="evenodd" clip-rule="evenodd" d="M459.931 562H-750L-393.797 1274.41H459.931V562Z" fill="url(#paint35_linear_407_1226)"/>
</g>
<defs>
<filter id="filter0_d_407_1226" x="19.3074" y="153.307" width="339.385" height="274.385" filterUnits="userSpaceOnUse" color-interpolation-filters="sRGB">
<feFlood flood-opacity="0" result="BackgroundImageFix"/>
<feColorMatrix in="SourceAlpha" type="matrix" values="0 0 0 0 0 0 0 0 0 0 0 0 0 0 0 0 0 0 127 0" result="hardAlpha"/>
<feOffset dy="4"/>
<feGaussianBlur stdDeviation="2.34628"/>
<feComposite in2="hardAlpha" operator="out"/>
<feColorMatrix type="matrix" values="0 0 0 0 0 0 0 0 0 0 0 0 0 0 0 0 0 0 0.25 0"/>
<feBlend mode="normal" in2="BackgroundImageFix" result="effect1_dropShadow_407_1226"/>
<feBlend mode="normal" in="SourceGraphic" in2="effect1_dropShadow_407_1226" result="shape"/>
</filter>
<linearGradient id="paint0_linear_407_1226" x1="121.82" y1="645.088" x2="509.946" y2="645.088" gradientUnits="userSpaceOnUse">
<stop stop-color="#C4D0DC"/>
<stop offset="0.5323" stop-color="white"/>
<stop offset="0.6666" stop-color="#F9FAFC"/>
<stop offset="0.8423" stop-color="#E9EDF3"/>
<stop offset="1" stop-color="#D4DDE8"/>
</linearGradient>
<linearGradient id="paint1_linear_407_1226" x1="312.694" y1="395.819" x2="316.741" y2="682.364" gradientUnits="userSpaceOnUse">
<stop stop-color="#EBEDEE"/>
<stop offset="0.5323" stop-color="#E1E7F4"/>
<stop offset="0.5814" stop-color="#DBE2F0"/>
<stop offset="0.646" stop-color="#CBD4E5"/>
<stop offset="0.7192" stop-color="#AFBCD3"/>
<stop offset="0.7987" stop-color="#8A9CBA"/>
<stop offset="0.8832" stop-color="#59729A"/>
<stop offset="0.9708" stop-color="#1E3F74"/>
<stop offset="1" stop-color="#092D66"/>
</linearGradient>
<linearGradient id="paint2_linear_407_1226" x1="464.154" y1="759.514" x2="238.953" y2="511.802" gradientUnits="userSpaceOnUse">
<stop stop-color="#C4D0DC"/>
<stop offset="0.5323" stop-color="white"/>
<stop offset="0.6666" stop-color="#F9FAFC"/>
<stop offset="0.8423" stop-color="#E9EDF3"/>
<stop offset="1" stop-color="#D4DDE8"/>
</linearGradient>
<linearGradient id="paint3_linear_407_1226" x1="198.36" y1="600.19" x2="192.799" y2="648.418" gradientUnits="userSpaceOnUse">
<stop stop-color="#EBEDEE"/>
<stop offset="0.5323" stop-color="white"/>
<stop offset="0.7485" stop-color="#F9FAFA"/>
<stop offset="1" stop-color="#EBEDEE"/>
</linearGradient>
<linearGradient id="paint4_linear_407_1226" x1="223.104" y1="606.175" x2="190.11" y2="644.335" gradientUnits="userSpaceOnUse">
<stop stop-color="#EBEDEE"/>
<stop offset="0.5323" stop-color="white"/>
<stop offset="0.6666" stop-color="#F9FAFC"/>
<stop offset="0.8423" stop-color="#E9EDF3"/>
<stop offset="1" stop-color="#D4DDE8"/>
</linearGradient>
<linearGradient id="paint5_linear_407_1226" x1="243.691" y1="624.264" x2="215.414" y2="665.773" gradientUnits="userSpaceOnUse">
<stop stop-color="#EBEDEE"/>
<stop offset="0.5323" stop-color="white"/>
<stop offset="0.7485" stop-color="#F9FAFA"/>
<stop offset="1" stop-color="#EBEDEE"/>
</linearGradient>
<linearGradient id="paint6_linear_407_1226" x1="245.37" y1="625.343" x2="217.092" y2="666.853" gradientUnits="userSpaceOnUse">
<stop stop-color="#EBEDEE"/>
<stop offset="0.5323" stop-color="white"/>
<stop offset="0.6666" stop-color="#F9FAFC"/>
<stop offset="0.8423" stop-color="#E9EDF3"/>
<stop offset="1" stop-color="#D4DDE8"/>
</linearGradient>
<linearGradient id="paint7_linear_407_1226" x1="284.157" y1="608.252" x2="573.615" y2="578.827" gradientUnits="userSpaceOnUse">
<stop stop-color="#092D66"/>
<stop offset="0.0347178" stop-color="#0D3169"/>
<stop offset="0.978" stop-color="#7195BA"/>
</linearGradient>
<linearGradient id="paint8_linear_407_1226" x1="155.65" y1="649.304" x2="186.003" y2="668.09" gradientUnits="userSpaceOnUse">
<stop stop-color="#092D66"/>
<stop offset="0.978" stop-color="#7195BA"/>
</linearGradient>
<linearGradient id="paint9_linear_407_1226" x1="169.01" y1="653.383" x2="176.463" y2="690.774" gradientUnits="userSpaceOnUse">
<stop stop-color="#EBEDEE"/>
<stop offset="0.5323" stop-color="#E1E7F4"/>
<stop offset="0.5814" stop-color="#DBE2F0"/>
<stop offset="0.646" stop-color="#CBD4E5"/>
<stop offset="0.7192" stop-color="#AFBCD3"/>
<stop offset="0.7987" stop-color="#8A9CBA"/>
<stop offset="0.8832" stop-color="#59729A"/>
<stop offset="0.9708" stop-color="#1E3F74"/>
<stop offset="1" stop-color="#092D66"/>
</linearGradient>
<radialGradient id="paint10_radial_407_1226" cx="0" cy="0" r="1" gradientUnits="userSpaceOnUse" gradientTransform="translate(247.97 475.171) rotate(-19.7447) scale(166.206 94.5391)">
<stop offset="0.2692" stop-color="#98A2AE"/>
<stop offset="1" stop-color="white"/>
</radialGradient>
<linearGradient id="paint11_linear_407_1226" x1="282.559" y1="588.814" x2="407.332" y2="575.979" gradientUnits="userSpaceOnUse">
<stop stop-color="#EBEDEE"/>
<stop offset="0.5323" stop-color="white"/>
<stop offset="0.7485" stop-color="#F9FAFA"/>
<stop offset="1" stop-color="#EBEDEE"/>
</linearGradient>
<linearGradient id="paint12_linear_407_1226" x1="393.113" y1="497.253" x2="500.269" y2="428.156" gradientUnits="userSpaceOnUse">
<stop stop-color="#4D575D"/>
<stop offset="0.4835" stop-color="#98A2AE"/>
<stop offset="0.8516" stop-color="#D4DDE8"/>
</linearGradient>
<linearGradient id="paint13_linear_407_1226" x1="380.201" y1="580.078" x2="380.201" y2="594.215" gradientUnits="userSpaceOnUse">
<stop stop-color="#4D575D"/>
<stop offset="0.4835" stop-color="#98A2AE"/>
<stop offset="0.8516" stop-color="#D4DDE8"/>
</linearGradient>
<linearGradient id="paint14_linear_407_1226" x1="330.603" y1="631.315" x2="428.918" y2="397.808" gradientUnits="userSpaceOnUse">
<stop stop-color="#4D575D"/>
<stop offset="0.4835" stop-color="#98A2AE"/>
<stop offset="0.8516" stop-color="#D4DDE8"/>
</linearGradient>
<linearGradient id="paint15_linear_407_1226" x1="373.186" y1="485.126" x2="396.794" y2="435.267" gradientUnits="userSpaceOnUse">
<stop stop-color="#4D575D"/>
<stop offset="0.4835" stop-color="#98A2AE"/>
<stop offset="0.8516" stop-color="#D4DDE8"/>
</linearGradient>
<linearGradient id="paint16_linear_407_1226" x1="502.481" y1="357.972" x2="401.745" y2="463.749" gradientUnits="userSpaceOnUse">
<stop stop-color="#4D575D"/>
<stop offset="0.4835" stop-color="#98A2AE"/>
<stop offset="0.8516" stop-color="#D4DDE8"/>
</linearGradient>
<linearGradient id="paint17_linear_407_1226" x1="352.032" y1="449.216" x2="461.57" y2="378.583" gradientUnits="userSpaceOnUse">
<stop stop-color="#21A497"/>
<stop offset="0.978" stop-color="#18CFAE"/>
</linearGradient>
<linearGradient id="paint18_linear_407_1226" x1="338.836" y1="591.969" x2="338.836" y2="606.107" gradientUnits="userSpaceOnUse">
<stop offset="0.1593" stop-color="#18CFAE"/>
<stop offset="0.4015" stop-color="#63D5C5"/>
<stop offset="0.6196" stop-color="#A0D9D8"/>
<stop offset="0.7789" stop-color="#C6DCE4"/>
<stop offset="0.8626" stop-color="#D4DDE8"/>
</linearGradient>
<linearGradient id="paint19_linear_407_1226" x1="273.017" y1="733.983" x2="352.797" y2="521.399" gradientUnits="userSpaceOnUse">
<stop stop-color="#18CFAE"/>
<stop offset="0.978" stop-color="#21A497"/>
</linearGradient>
<linearGradient id="paint20_linear_407_1226" x1="297.138" y1="578.955" x2="492.033" y2="241.508" gradientUnits="userSpaceOnUse">
<stop stop-color="#18CFAE"/>
<stop offset="0.978" stop-color="#63D5C5" stop-opacity="0.17"/>
</linearGradient>
<linearGradient id="paint21_linear_407_1226" x1="306.41" y1="489.348" x2="415.948" y2="418.715" gradientUnits="userSpaceOnUse">
<stop offset="0.1593" stop-color="#7195BA"/>
<stop offset="0.4015" stop-color="#63D5C5"/>
<stop offset="0.6196" stop-color="#A0D9D8"/>
<stop offset="0.7789" stop-color="#C6DCE4"/>
<stop offset="0.8626" stop-color="#D4DDE8"/>
</linearGradient>
<linearGradient id="paint22_linear_407_1226" x1="293.213" y1="604.455" x2="293.213" y2="618.592" gradientUnits="userSpaceOnUse">
<stop offset="0.1593" stop-color="#18CFAE"/>
<stop offset="0.4015" stop-color="#63D5C5"/>
<stop offset="0.6196" stop-color="#A0D9D8"/>
<stop offset="0.7789" stop-color="#C6DCE4"/>
<stop offset="0.8626" stop-color="#D4DDE8"/>
</linearGradient>
<linearGradient id="paint23_linear_407_1226" x1="197.696" y1="753.019" x2="365.926" y2="439.419" gradientUnits="userSpaceOnUse">
<stop offset="0.1593" stop-color="#94BFDD"/>
<stop offset="0.4015" stop-color="#7799BD"/>
<stop offset="0.6196" stop-color="#A0D9D8"/>
<stop offset="0.7789" stop-color="#C6DCE4"/>
<stop offset="0.8626" stop-color="#D4DDE8"/>
</linearGradient>
<linearGradient id="paint24_linear_407_1226" x1="312.846" y1="531.476" x2="487.321" y2="378.599" gradientUnits="userSpaceOnUse">
<stop offset="0.1593" stop-color="#7799BD"/>
<stop offset="0.4015" stop-color="#63D5C5"/>
<stop offset="0.6196" stop-color="#A0D9D8"/>
<stop offset="0.7789" stop-color="#C6DCE4"/>
<stop offset="0.8626" stop-color="#D4DDE8"/>
</linearGradient>
<linearGradient id="paint25_linear_407_1226" x1="283.309" y1="474.869" x2="306.917" y2="425.011" gradientUnits="userSpaceOnUse">
<stop stop-color="#4D575D"/>
<stop offset="0.4835" stop-color="#98A2AE"/>
<stop offset="0.8516" stop-color="#D4DDE8"/>
</linearGradient>
<linearGradient id="paint26_linear_407_1226" x1="294.289" y1="498.574" x2="294.289" y2="313.965" gradientUnits="userSpaceOnUse">
<stop offset="0.1593" stop-color="#7799BD"/>
<stop offset="0.4015" stop-color="#7195BA"/>
<stop offset="0.6196" stop-color="#A0D9D8"/>
<stop offset="0.7789" stop-color="#C6DCE4"/>
<stop offset="0.8626" stop-color="#D4DDE8"/>
</linearGradient>
<linearGradient id="paint27_linear_407_1226" x1="258.678" y1="559.978" x2="365.834" y2="490.881" gradientUnits="userSpaceOnUse">
<stop stop-color="#94BFDD"/>
<stop offset="0.6868" stop-color="#94BFDD"/>
<stop offset="1" stop-color="#7195BA"/>
</linearGradient>
<linearGradient id="paint28_linear_407_1226" x1="245.767" y1="618.724" x2="245.767" y2="632.861" gradientUnits="userSpaceOnUse">
<stop offset="0.1593" stop-color="#18CFAE"/>
<stop offset="0.4015" stop-color="#63D5C5"/>
<stop offset="0.6196" stop-color="#A0D9D8"/>
<stop offset="0.7789" stop-color="#C6DCE4"/>
<stop offset="0.8626" stop-color="#D4DDE8"/>
</linearGradient>
<linearGradient id="paint29_linear_407_1226" x1="253.787" y1="502.526" x2="263.377" y2="712.127" gradientUnits="userSpaceOnUse">
<stop stop-color="#94BFDD"/>
<stop offset="0.6868" stop-color="#94BFDD"/>
<stop offset="1" stop-color="#7195BA"/>
</linearGradient>
<linearGradient id="paint30_linear_407_1226" x1="311.987" y1="367.758" x2="239.309" y2="589.042" gradientUnits="userSpaceOnUse">
<stop stop-color="#94BFDD"/>
<stop offset="0.6868" stop-color="#94BFDD"/>
<stop offset="1" stop-color="#7195BA"/>
</linearGradient>
<linearGradient id="paint31_linear_407_1226" x1="237.669" y1="547.954" x2="261.277" y2="498.096" gradientUnits="userSpaceOnUse">
<stop stop-color="#4D575D"/>
<stop offset="0.4835" stop-color="#98A2AE"/>
<stop offset="0.8516" stop-color="#D4DDE8"/>
</linearGradient>
<linearGradient id="paint32_linear_407_1226" x1="366.965" y1="420.8" x2="266.228" y2="526.577" gradientUnits="userSpaceOnUse">
<stop stop-color="#94BFDD"/>
<stop offset="0.6868" stop-color="#94BFDD"/>
<stop offset="1" stop-color="#7195BA"/>
</linearGradient>
<linearGradient id="paint33_linear_407_1226" x1="316.159" y1="406.518" x2="373.346" y2="285.742" gradientUnits="userSpaceOnUse">
<stop stop-color="#18CFAE"/>
<stop offset="0.4835" stop-color="#21A497"/>
<stop offset="0.8516" stop-color="#63D5C5"/>
</linearGradient>
<linearGradient id="paint34_linear_407_1226" x1="366.278" y1="76.8319" x2="343.045" y2="388.003" gradientUnits="userSpaceOnUse">
<stop stop-color="#21A497"/>
<stop offset="0.978" stop-color="#63D5C5"/>
</linearGradient>
<linearGradient id="paint35_linear_407_1226" x1="-750" y1="562" x2="-750" y2="1274.41" gradientUnits="userSpaceOnUse">
<stop stop-color="#05AB9C" stop-opacity="0"/>
<stop offset="1" stop-color="#05AB9C" stop-opacity="0.207843"/>
</linearGradient>
<clipPath id="clip0_407_1226">
<rect width="375" height="1280" fill="white"/>
</clipPath>
</defs>
</svg>