<svg xmlns="http://www.w3.org/2000/svg" width="80" height="69" viewBox="0 0 80 69" fill="none">
<path fill-rule="evenodd" clip-rule="evenodd" d="M0.946899 34.4563L17.8118 0.798828H62.3355L79.2005 34.4563L62.3355 68.1137H17.8118L0.946899 34.4563Z" fill="white"/>
<mask id="path-2-outside-1_366_8407" maskUnits="userSpaceOnUse" x="8.17163" y="7.86719" width="64" height="53" fill="black">
<rect fill="white" x="8.17163" y="7.86719" width="64" height="53"/>
<path d="M40.1698 28.3663C38.5651 28.3663 37.0589 28.9891 35.9246 30.1218C34.7904 31.2544 34.1668 32.7586 34.1668 34.361C34.1668 35.9635 34.7904 37.4676 35.9246 38.6003C37.0589 39.7329 38.5651 40.3557 40.1698 40.3557C41.7745 40.3557 43.2808 39.7329 44.415 38.6003C46.7564 36.2621 46.7564 32.4599 44.415 30.1218C43.2808 28.9891 41.7745 28.3663 40.1698 28.3663ZM44.0248 38.2106C42.9963 39.2376 41.625 39.8058 40.1698 39.8058C38.7146 39.8058 37.3433 39.2413 36.3149 38.2106C35.2864 37.1836 34.7175 35.8142 34.7175 34.361C34.7175 32.9079 35.2864 31.5385 36.3149 30.5114C37.3433 29.4844 38.7146 28.9163 40.1698 28.9163C41.625 28.9163 42.9963 29.4808 44.0248 30.5114C46.151 32.6347 46.151 36.0873 44.0248 38.2106ZM40.1698 31.2216C39.331 31.2216 38.5396 31.5494 37.9451 32.1394C37.3506 32.7331 37.0224 33.5197 37.0224 34.361C37.0224 35.1987 37.3506 35.989 37.9451 36.5826C38.5396 37.1763 39.3273 37.504 40.1698 37.504C41.0086 37.504 41.8 37.1763 42.3945 36.5826C43.6199 35.3589 43.6199 33.3668 42.3945 32.1431C41.8 31.5458 41.0123 31.2216 40.1698 31.2216ZM42.0043 36.1929C41.5156 36.681 40.8628 36.9505 40.1698 36.9505C39.4769 36.9505 38.824 36.681 38.3353 36.1929C37.8466 35.7049 37.5768 35.053 37.5768 34.361C37.5768 33.669 37.8466 33.0171 38.3353 32.5291C38.824 32.0411 39.4769 31.7716 40.1698 31.7716C40.8628 31.7716 41.5156 32.0411 42.0043 32.5291C43.0145 33.5416 43.0145 35.1841 42.0043 36.1929ZM50.4217 41.8198L48.8316 39.7002C49.4042 38.7751 49.8199 37.7699 50.0716 36.7028L52.7011 36.3277C52.8361 36.3095 52.9382 36.1929 52.9382 36.0545V32.6675C52.9382 32.5291 52.8361 32.4126 52.7011 32.3944L50.0716 32.0192C49.8199 30.9521 49.4042 29.9433 48.8316 29.0219L50.4217 26.9023C50.5056 26.793 50.4946 26.64 50.3962 26.5417L48.0001 24.1489C47.9016 24.0506 47.7484 24.0397 47.639 24.1234L45.5164 25.715C44.59 25.1432 43.5835 24.728 42.5149 24.4767L42.1392 21.8508C42.121 21.7161 42.0043 21.6141 41.8657 21.6141H38.4739C38.3353 21.6141 38.2186 21.7161 38.2004 21.8508L37.8248 24.4767C36.7562 24.728 35.7496 25.1432 34.8232 25.715L32.7006 24.1234C32.5912 24.0397 32.438 24.0506 32.3396 24.1489L29.9435 26.5417C29.845 26.64 29.834 26.793 29.9179 26.9023L31.5117 29.0219C30.9391 29.9469 30.5233 30.9521 30.2717 32.0192L27.6422 32.3944C27.5072 32.4126 27.4051 32.5291 27.4051 32.6675V36.0545C27.4051 36.1929 27.5072 36.3095 27.6422 36.3277L30.2717 36.7028C30.5233 37.7699 30.9391 38.7751 31.5117 39.7002L29.9179 41.8198C29.834 41.929 29.845 42.082 29.9435 42.1803L32.3396 44.5731C32.438 44.6715 32.5912 44.6824 32.7006 44.5986L34.8232 43.0071C35.7496 43.5789 36.7562 43.994 37.8248 44.2453L38.2004 46.8712C38.2186 47.006 38.3353 47.1079 38.4739 47.1079H41.8657C42.0043 47.1079 42.121 47.006 42.1392 46.8712L42.5149 44.2453C43.5835 43.994 44.5937 43.5789 45.5164 43.0071L47.639 44.5986C47.7484 44.6824 47.9016 44.6715 48.0001 44.5731L50.3962 42.1803C50.4946 42.082 50.5056 41.929 50.4217 41.8198ZM47.7776 44.0159L45.6951 42.4571C45.6039 42.3879 45.4763 42.3843 45.3815 42.4462C44.415 43.069 43.3501 43.5097 42.2122 43.7537C42.0991 43.7792 42.0152 43.8702 41.997 43.9831L41.6286 46.5616H38.7146L38.3463 43.9831C38.3317 43.8702 38.2442 43.7755 38.1311 43.7537C36.9932 43.5097 35.9283 43.069 34.9618 42.4462C34.8633 42.3843 34.7393 42.3879 34.6482 42.4571L32.5657 44.0159L30.5051 41.9582L32.066 39.8786C32.1353 39.7876 32.139 39.6601 32.077 39.5654C31.4533 38.6003 31.012 37.5368 30.7677 36.4005C30.7422 36.2876 30.651 36.2039 30.5379 36.1856L27.9558 35.8142V32.9079L30.5379 32.54C30.651 32.5255 30.7458 32.4381 30.7677 32.3252C31.012 31.1889 31.4533 30.1254 32.077 29.1603C32.139 29.0619 32.1353 28.9381 32.066 28.8471L30.5051 26.7675L32.5657 24.7098L34.6482 26.2685C34.7393 26.3377 34.867 26.3414 34.9618 26.2795C35.9283 25.6567 36.9969 25.216 38.1311 24.972C38.2442 24.9465 38.328 24.8555 38.3463 24.7426L38.7146 22.164H41.625L41.9933 24.7426C42.0079 24.8555 42.0955 24.9502 42.2085 24.972C43.3464 25.216 44.4113 25.6567 45.3778 26.2795C45.4763 26.3414 45.6003 26.3377 45.6915 26.2685L47.7739 24.7098L49.8345 26.7675L48.2736 28.8471C48.2043 28.9381 48.2006 29.0656 48.2626 29.1603C48.8863 30.1254 49.3276 31.1889 49.5719 32.3252C49.5975 32.4381 49.6886 32.5218 49.8017 32.54L52.3838 32.9079V35.8142L49.8017 36.182C49.6886 36.1966 49.5938 36.284 49.5719 36.3969C49.3276 37.5332 48.8863 38.5966 48.2626 39.5618C48.2006 39.6601 48.2043 39.7839 48.2736 39.875L49.8345 41.9545L47.7776 44.0159ZM71.0859 41.0586L64.9589 47.1771C64.9078 47.2281 64.8385 47.2573 64.7656 47.2573C64.6926 47.2573 64.6233 47.2281 64.5723 47.1771L58.4452 41.0586C58.3358 40.9494 58.3358 40.7782 58.4452 40.6689L60.3928 38.7241C60.4949 38.6221 60.6809 38.6221 60.783 38.7241L63.1135 41.0513V19.6329C63.1135 19.4799 63.2375 19.3561 63.3906 19.3561C63.5438 19.3561 63.6678 19.4799 63.6678 19.6329V41.7142C63.6678 41.8271 63.6022 41.9254 63.4964 41.9691C63.3943 42.0128 63.2739 41.9873 63.1973 41.9108L60.5897 39.3068L59.0324 40.8619L64.7692 46.5908L70.5061 40.8619L68.9488 39.3068L66.3411 41.9108C66.2609 41.991 66.1442 42.0128 66.0421 41.9691C65.9399 41.9254 65.8706 41.8271 65.8706 41.7142V23.0053C65.8706 22.8524 65.9946 22.7285 66.1478 22.7285C66.301 22.7285 66.425 22.8524 66.425 23.0053V41.0477L68.7555 38.7205C68.8065 38.6695 68.8758 38.6403 68.9488 38.6403C69.0217 38.6403 69.091 38.6695 69.1421 38.7205L71.0896 40.6653C71.1954 40.7782 71.1954 40.953 71.0859 41.0586ZM51.3517 28.7597L53.2992 26.8148C53.4086 26.7092 53.5801 26.7056 53.6895 26.8148L55.0863 28.2097V18.624C55.0863 18.4711 55.2103 18.3473 55.3635 18.3473C55.5166 18.3473 55.6406 18.4711 55.6406 18.624V28.8726C55.6406 28.9855 55.575 29.0838 55.4692 29.1275C55.3671 29.1712 55.2468 29.1457 55.1702 29.0692L53.4962 27.4012L51.9389 28.9563L56.7457 33.7528L61.5452 28.9563L59.9879 27.3976L58.3139 29.0692C58.2337 29.1494 58.117 29.1712 58.0149 29.1275C57.9128 29.0838 57.8435 28.9855 57.8435 28.8726V15.2516C57.8435 15.0986 57.9675 14.9748 58.1206 14.9748C58.2738 14.9748 58.3978 15.0986 58.3978 15.2516V28.2097L59.7946 26.8148C59.8457 26.7639 59.915 26.7347 59.9879 26.7347C60.0609 26.7347 60.1302 26.7639 60.1812 26.8148L62.1288 28.7633C62.2382 28.8726 62.2345 29.0437 62.1288 29.153L56.9353 34.3392C56.8806 34.3938 56.8114 34.4193 56.7421 34.4193C56.6728 34.4193 56.5998 34.3938 56.5488 34.3392L51.3517 29.153C51.3006 29.102 51.2715 29.0328 51.2715 28.96C51.2715 28.8835 51.3006 28.8106 51.3517 28.7597ZM19.5603 29.9979L17.2298 27.6707V49.0892C17.2298 49.2421 17.1058 49.366 16.9526 49.366C16.7995 49.366 16.6755 49.2421 16.6755 49.0892V27.0079C16.6755 26.895 16.7411 26.7966 16.8469 26.7529C16.949 26.7092 17.0693 26.7347 17.1459 26.8112L19.7536 29.4152L21.3109 27.8601L15.5777 22.1276L9.84087 27.8565L11.3982 29.4152L14.0058 26.8112C14.086 26.7311 14.2027 26.7092 14.3049 26.7529C14.407 26.7966 14.4763 26.895 14.4763 27.0079V45.7167C14.4763 45.8697 14.3523 45.9935 14.1991 45.9935C14.0459 45.9935 13.9219 45.8697 13.9219 45.7167V27.6707L11.5915 29.9979C11.5404 30.0489 11.4711 30.0781 11.3982 30.0781C11.3252 30.0781 11.2559 30.0489 11.2049 29.9979L9.25369 28.0531C9.14428 27.9439 9.14428 27.7727 9.25369 27.6634L15.3807 21.5449C15.4829 21.4429 15.6689 21.4429 15.771 21.5449L21.898 27.6634C22.0075 27.7727 22.0075 27.9439 21.898 28.0531L19.9505 29.9979C19.8448 30.1035 19.6624 30.1035 19.5603 29.9979ZM28.9879 39.9624L27.0404 41.9072C26.9346 42.0165 26.7596 42.0165 26.6502 41.9072L25.2533 40.5123V50.098C25.2533 50.251 25.1293 50.3748 24.9762 50.3748C24.823 50.3748 24.699 50.251 24.699 50.098V39.8495C24.699 39.7366 24.7646 39.6382 24.8704 39.5945C24.9725 39.5508 25.0929 39.5763 25.1695 39.6528L26.8435 41.3208L28.4008 39.7657L23.5976 34.9692L18.7944 39.7657L20.3517 41.3245L22.0257 39.6528C22.1059 39.5727 22.2226 39.5508 22.3248 39.5945C22.4269 39.6382 22.4962 39.7366 22.4962 39.8495V53.4741C22.4962 53.6271 22.3722 53.7509 22.219 53.7509C22.0658 53.7509 21.9418 53.6271 21.9418 53.4741V40.5123L20.545 41.9072C20.4939 41.9582 20.4246 41.9873 20.3517 41.9873C20.2788 41.9873 20.2095 41.9582 20.1584 41.9072L18.2109 39.9587C18.1015 39.8495 18.1051 39.6783 18.2109 39.569L23.4043 34.3829C23.5137 34.2736 23.6851 34.2736 23.7945 34.3829L28.9916 39.569C29.0426 39.62 29.0718 39.6892 29.0718 39.7621C29.0682 39.8386 29.0426 39.9114 28.9879 39.9624ZM24.5385 17.7245H25.6363V23.2712H24.5495C23.0213 23.2712 21.774 22.0293 21.774 20.4997C21.774 20.3467 21.65 20.2229 21.4969 20.2229C21.3437 20.2229 21.2197 20.3467 21.2197 20.4997C21.2197 22.3316 22.7113 23.8211 24.5458 23.8211H25.6326V25.755C25.6326 25.908 25.7566 26.0318 25.9098 26.0318C26.063 26.0318 26.187 25.908 26.187 25.755V23.8211H27.2848C28.1746 23.8211 29.0098 23.4752 29.6371 22.8487C30.2644 22.2223 30.6109 21.3883 30.6109 20.496C30.6109 18.6641 29.1192 17.1745 27.2848 17.1745H26.187V11.6278H27.2848C28.8129 11.6278 30.0602 12.8697 30.0602 14.3993V14.5596C30.0602 14.7126 30.1842 14.8364 30.3373 14.8364C30.4905 14.8364 30.6145 14.7126 30.6145 14.5596V14.3993C30.6145 12.5674 29.1229 11.0779 27.2884 11.0779H26.1906V9.14398C26.1906 8.99101 26.0666 8.86719 25.9135 8.86719C25.7603 8.86719 25.6363 8.99101 25.6363 9.14398V11.0779H24.5385C23.6486 11.0779 22.8135 11.4239 22.1862 12.0503C21.5589 12.6767 21.2124 13.5107 21.2124 14.403C21.216 16.2313 22.7077 17.7208 24.5385 17.7245ZM27.2884 17.7245C28.8165 17.7245 30.0638 18.9664 30.0638 20.4997C30.0638 21.239 29.7757 21.9346 29.2505 22.459C28.7253 22.9835 28.0288 23.2712 27.2884 23.2712H26.1906V17.7245H27.2884ZM22.58 12.4363C23.1052 11.9119 23.8018 11.6242 24.5422 11.6242H25.6399V17.1709H24.5422C23.014 17.1709 21.7668 15.929 21.7668 14.3957C21.7668 13.6564 22.0549 12.9608 22.58 12.4363ZM55.8011 44.9009H54.7034V42.967C54.7034 42.814 54.5793 42.6902 54.4262 42.6902C54.273 42.6902 54.149 42.814 54.149 42.967V44.9009H53.0512C52.1613 44.9009 51.3262 45.2469 50.6989 45.8733C50.0716 46.4997 49.7251 47.3337 49.7251 48.226C49.7251 50.0579 51.2168 51.5475 53.0512 51.5475H54.149V57.0942H53.0622C51.5341 57.0942 50.2868 55.8487 50.2868 54.3227C50.2868 54.1697 50.1628 54.0459 50.0096 54.0459C49.8564 54.0459 49.7324 54.1697 49.7324 54.3227C49.7324 56.1546 51.2241 57.6442 53.0585 57.6442H54.1453V59.5781C54.1453 59.731 54.2693 59.8549 54.4225 59.8549C54.5757 59.8549 54.6997 59.731 54.6997 59.5781V57.6442H55.7975C56.6873 57.6442 57.5225 57.2982 58.1498 56.6718C58.7771 56.0453 59.1236 55.2113 59.1236 54.319C59.1236 52.4871 57.6319 50.9976 55.7975 50.9976H54.6997V45.4508H55.7975C57.3256 45.4508 58.5729 46.6927 58.5729 48.2224V48.3826C58.5729 48.5356 58.6969 48.6594 58.8501 48.6594C59.0032 48.6594 59.1272 48.5356 59.1272 48.3826V48.2224C59.1272 46.3905 57.6356 44.9009 55.8011 44.9009ZM55.8011 51.5511C57.3292 51.5511 58.5765 52.7931 58.5765 54.3263C58.5765 55.0657 58.2884 55.7613 57.7632 56.2857C57.2381 56.8102 56.5415 57.0979 55.8011 57.0979H54.7034V51.5511H55.8011ZM54.1526 50.9976H53.0549C51.5268 50.9976 50.2795 49.7557 50.2795 48.2224C50.2795 47.4831 50.5676 46.7874 51.0928 46.263C51.6179 45.7386 52.3145 45.4508 53.0549 45.4508H54.1526V50.9976ZM46.8695 50.9976H36.541C36.3988 48.8779 34.6263 47.1953 32.4672 47.1953C30.217 47.1953 28.3825 49.0236 28.3825 51.2744C28.3825 53.5215 30.2133 55.3534 32.4672 55.3534C34.6263 55.3534 36.3988 53.6708 36.541 51.5511H46.8658C47.019 51.5511 47.143 51.4273 47.143 51.2744C47.143 51.1214 47.0226 50.9976 46.8695 50.9976ZM32.4672 54.8034C30.5197 54.8034 28.9369 53.2228 28.9369 51.278C28.9369 49.3332 30.5197 47.7526 32.4672 47.7526C34.4148 47.7526 35.9976 49.3332 35.9976 51.278C36.0012 53.2192 34.4148 54.8034 32.4672 54.8034ZM32.4672 49.4789C31.4752 49.4789 30.6692 50.2837 30.6692 51.2744C30.6692 52.265 31.4752 53.0698 32.4672 53.0698C33.4592 53.0698 34.2652 52.265 34.2652 51.2744C34.2689 50.2837 33.4592 49.4789 32.4672 49.4789ZM32.4672 52.5199C31.7779 52.5199 31.2199 51.9627 31.2199 51.2744C31.2199 50.586 31.7779 50.0288 32.4672 50.0288C33.1565 50.0288 33.7145 50.586 33.7145 51.2744C33.7145 51.9627 33.1565 52.5199 32.4672 52.5199ZM33.4738 17.7245H43.8023C43.9445 19.8441 45.717 21.5267 47.876 21.5267C50.1263 21.5267 51.9608 19.6984 51.9608 17.4477C51.9608 15.2006 50.1299 13.3687 47.876 13.3687C45.717 13.3687 43.9445 15.0513 43.8023 17.1709H33.4738C33.3206 17.1709 33.1966 17.2947 33.1966 17.4477C33.1966 17.6006 33.3206 17.7245 33.4738 17.7245ZM47.8724 13.9186C49.8199 13.9186 51.4028 15.4992 51.4028 17.444C51.4028 19.3889 49.8199 20.9695 47.8724 20.9695C45.9249 20.9695 44.342 19.3889 44.342 17.444C44.342 15.5029 45.9249 13.9186 47.8724 13.9186ZM47.8724 19.2432C48.8644 19.2432 49.6704 18.4383 49.6704 17.4477C49.6704 16.4571 48.8644 15.6522 47.8724 15.6522C46.8804 15.6522 46.0744 16.4571 46.0744 17.4477C46.0744 18.4383 46.8804 19.2432 47.8724 19.2432ZM47.8724 16.2021C48.5617 16.2021 49.1197 16.7593 49.1197 17.4477C49.1197 18.136 48.5617 18.6932 47.8724 18.6932C47.1831 18.6932 46.6251 18.136 46.6251 17.4477C46.6251 16.7593 47.1868 16.2021 47.8724 16.2021Z"/>
</mask>
<path d="M40.1698 28.3663C38.5651 28.3663 37.0589 28.9891 35.9246 30.1218C34.7904 31.2544 34.1668 32.7586 34.1668 34.361C34.1668 35.9635 34.7904 37.4676 35.9246 38.6003C37.0589 39.7329 38.5651 40.3557 40.1698 40.3557C41.7745 40.3557 43.2808 39.7329 44.415 38.6003C46.7564 36.2621 46.7564 32.4599 44.415 30.1218C43.2808 28.9891 41.7745 28.3663 40.1698 28.3663ZM44.0248 38.2106C42.9963 39.2376 41.625 39.8058 40.1698 39.8058C38.7146 39.8058 37.3433 39.2413 36.3149 38.2106C35.2864 37.1836 34.7175 35.8142 34.7175 34.361C34.7175 32.9079 35.2864 31.5385 36.3149 30.5114C37.3433 29.4844 38.7146 28.9163 40.1698 28.9163C41.625 28.9163 42.9963 29.4808 44.0248 30.5114C46.151 32.6347 46.151 36.0873 44.0248 38.2106ZM40.1698 31.2216C39.331 31.2216 38.5396 31.5494 37.9451 32.1394C37.3506 32.7331 37.0224 33.5197 37.0224 34.361C37.0224 35.1987 37.3506 35.989 37.9451 36.5826C38.5396 37.1763 39.3273 37.504 40.1698 37.504C41.0086 37.504 41.8 37.1763 42.3945 36.5826C43.6199 35.3589 43.6199 33.3668 42.3945 32.1431C41.8 31.5458 41.0123 31.2216 40.1698 31.2216ZM42.0043 36.1929C41.5156 36.681 40.8628 36.9505 40.1698 36.9505C39.4769 36.9505 38.824 36.681 38.3353 36.1929C37.8466 35.7049 37.5768 35.053 37.5768 34.361C37.5768 33.669 37.8466 33.0171 38.3353 32.5291C38.824 32.0411 39.4769 31.7716 40.1698 31.7716C40.8628 31.7716 41.5156 32.0411 42.0043 32.5291C43.0145 33.5416 43.0145 35.1841 42.0043 36.1929ZM50.4217 41.8198L48.8316 39.7002C49.4042 38.7751 49.8199 37.7699 50.0716 36.7028L52.7011 36.3277C52.8361 36.3095 52.9382 36.1929 52.9382 36.0545V32.6675C52.9382 32.5291 52.8361 32.4126 52.7011 32.3944L50.0716 32.0192C49.8199 30.9521 49.4042 29.9433 48.8316 29.0219L50.4217 26.9023C50.5056 26.793 50.4946 26.64 50.3962 26.5417L48.0001 24.1489C47.9016 24.0506 47.7484 24.0397 47.639 24.1234L45.5164 25.715C44.59 25.1432 43.5835 24.728 42.5149 24.4767L42.1392 21.8508C42.121 21.7161 42.0043 21.6141 41.8657 21.6141H38.4739C38.3353 21.6141 38.2186 21.7161 38.2004 21.8508L37.8248 24.4767C36.7562 24.728 35.7496 25.1432 34.8232 25.715L32.7006 24.1234C32.5912 24.0397 32.438 24.0506 32.3396 24.1489L29.9435 26.5417C29.845 26.64 29.834 26.793 29.9179 26.9023L31.5117 29.0219C30.9391 29.9469 30.5233 30.9521 30.2717 32.0192L27.6422 32.3944C27.5072 32.4126 27.4051 32.5291 27.4051 32.6675V36.0545C27.4051 36.1929 27.5072 36.3095 27.6422 36.3277L30.2717 36.7028C30.5233 37.7699 30.9391 38.7751 31.5117 39.7002L29.9179 41.8198C29.834 41.929 29.845 42.082 29.9435 42.1803L32.3396 44.5731C32.438 44.6715 32.5912 44.6824 32.7006 44.5986L34.8232 43.0071C35.7496 43.5789 36.7562 43.994 37.8248 44.2453L38.2004 46.8712C38.2186 47.006 38.3353 47.1079 38.4739 47.1079H41.8657C42.0043 47.1079 42.121 47.006 42.1392 46.8712L42.5149 44.2453C43.5835 43.994 44.5937 43.5789 45.5164 43.0071L47.639 44.5986C47.7484 44.6824 47.9016 44.6715 48.0001 44.5731L50.3962 42.1803C50.4946 42.082 50.5056 41.929 50.4217 41.8198ZM47.7776 44.0159L45.6951 42.4571C45.6039 42.3879 45.4763 42.3843 45.3815 42.4462C44.415 43.069 43.3501 43.5097 42.2122 43.7537C42.0991 43.7792 42.0152 43.8702 41.997 43.9831L41.6286 46.5616H38.7146L38.3463 43.9831C38.3317 43.8702 38.2442 43.7755 38.1311 43.7537C36.9932 43.5097 35.9283 43.069 34.9618 42.4462C34.8633 42.3843 34.7393 42.3879 34.6482 42.4571L32.5657 44.0159L30.5051 41.9582L32.066 39.8786C32.1353 39.7876 32.139 39.6601 32.077 39.5654C31.4533 38.6003 31.012 37.5368 30.7677 36.4005C30.7422 36.2876 30.651 36.2039 30.5379 36.1856L27.9558 35.8142V32.9079L30.5379 32.54C30.651 32.5255 30.7458 32.4381 30.7677 32.3252C31.012 31.1889 31.4533 30.1254 32.077 29.1603C32.139 29.0619 32.1353 28.9381 32.066 28.8471L30.5051 26.7675L32.5657 24.7098L34.6482 26.2685C34.7393 26.3377 34.867 26.3414 34.9618 26.2795C35.9283 25.6567 36.9969 25.216 38.1311 24.972C38.2442 24.9465 38.328 24.8555 38.3463 24.7426L38.7146 22.164H41.625L41.9933 24.7426C42.0079 24.8555 42.0955 24.9502 42.2085 24.972C43.3464 25.216 44.4113 25.6567 45.3778 26.2795C45.4763 26.3414 45.6003 26.3377 45.6915 26.2685L47.7739 24.7098L49.8345 26.7675L48.2736 28.8471C48.2043 28.9381 48.2006 29.0656 48.2626 29.1603C48.8863 30.1254 49.3276 31.1889 49.5719 32.3252C49.5975 32.4381 49.6886 32.5218 49.8017 32.54L52.3838 32.9079V35.8142L49.8017 36.182C49.6886 36.1966 49.5938 36.284 49.5719 36.3969C49.3276 37.5332 48.8863 38.5966 48.2626 39.5618C48.2006 39.6601 48.2043 39.7839 48.2736 39.875L49.8345 41.9545L47.7776 44.0159ZM71.0859 41.0586L64.9589 47.1771C64.9078 47.2281 64.8385 47.2573 64.7656 47.2573C64.6926 47.2573 64.6233 47.2281 64.5723 47.1771L58.4452 41.0586C58.3358 40.9494 58.3358 40.7782 58.4452 40.6689L60.3928 38.7241C60.4949 38.6221 60.6809 38.6221 60.783 38.7241L63.1135 41.0513V19.6329C63.1135 19.4799 63.2375 19.3561 63.3906 19.3561C63.5438 19.3561 63.6678 19.4799 63.6678 19.6329V41.7142C63.6678 41.8271 63.6022 41.9254 63.4964 41.9691C63.3943 42.0128 63.2739 41.9873 63.1973 41.9108L60.5897 39.3068L59.0324 40.8619L64.7692 46.5908L70.5061 40.8619L68.9488 39.3068L66.3411 41.9108C66.2609 41.991 66.1442 42.0128 66.0421 41.9691C65.9399 41.9254 65.8706 41.8271 65.8706 41.7142V23.0053C65.8706 22.8524 65.9946 22.7285 66.1478 22.7285C66.301 22.7285 66.425 22.8524 66.425 23.0053V41.0477L68.7555 38.7205C68.8065 38.6695 68.8758 38.6403 68.9488 38.6403C69.0217 38.6403 69.091 38.6695 69.1421 38.7205L71.0896 40.6653C71.1954 40.7782 71.1954 40.953 71.0859 41.0586ZM51.3517 28.7597L53.2992 26.8148C53.4086 26.7092 53.5801 26.7056 53.6895 26.8148L55.0863 28.2097V18.624C55.0863 18.4711 55.2103 18.3473 55.3635 18.3473C55.5166 18.3473 55.6406 18.4711 55.6406 18.624V28.8726C55.6406 28.9855 55.575 29.0838 55.4692 29.1275C55.3671 29.1712 55.2468 29.1457 55.1702 29.0692L53.4962 27.4012L51.9389 28.9563L56.7457 33.7528L61.5452 28.9563L59.9879 27.3976L58.3139 29.0692C58.2337 29.1494 58.117 29.1712 58.0149 29.1275C57.9128 29.0838 57.8435 28.9855 57.8435 28.8726V15.2516C57.8435 15.0986 57.9675 14.9748 58.1206 14.9748C58.2738 14.9748 58.3978 15.0986 58.3978 15.2516V28.2097L59.7946 26.8148C59.8457 26.7639 59.915 26.7347 59.9879 26.7347C60.0609 26.7347 60.1302 26.7639 60.1812 26.8148L62.1288 28.7633C62.2382 28.8726 62.2345 29.0437 62.1288 29.153L56.9353 34.3392C56.8806 34.3938 56.8114 34.4193 56.7421 34.4193C56.6728 34.4193 56.5998 34.3938 56.5488 34.3392L51.3517 29.153C51.3006 29.102 51.2715 29.0328 51.2715 28.96C51.2715 28.8835 51.3006 28.8106 51.3517 28.7597ZM19.5603 29.9979L17.2298 27.6707V49.0892C17.2298 49.2421 17.1058 49.366 16.9526 49.366C16.7995 49.366 16.6755 49.2421 16.6755 49.0892V27.0079C16.6755 26.895 16.7411 26.7966 16.8469 26.7529C16.949 26.7092 17.0693 26.7347 17.1459 26.8112L19.7536 29.4152L21.3109 27.8601L15.5777 22.1276L9.84087 27.8565L11.3982 29.4152L14.0058 26.8112C14.086 26.7311 14.2027 26.7092 14.3049 26.7529C14.407 26.7966 14.4763 26.895 14.4763 27.0079V45.7167C14.4763 45.8697 14.3523 45.9935 14.1991 45.9935C14.0459 45.9935 13.9219 45.8697 13.9219 45.7167V27.6707L11.5915 29.9979C11.5404 30.0489 11.4711 30.0781 11.3982 30.0781C11.3252 30.0781 11.2559 30.0489 11.2049 29.9979L9.25369 28.0531C9.14428 27.9439 9.14428 27.7727 9.25369 27.6634L15.3807 21.5449C15.4829 21.4429 15.6689 21.4429 15.771 21.5449L21.898 27.6634C22.0075 27.7727 22.0075 27.9439 21.898 28.0531L19.9505 29.9979C19.8448 30.1035 19.6624 30.1035 19.5603 29.9979ZM28.9879 39.9624L27.0404 41.9072C26.9346 42.0165 26.7596 42.0165 26.6502 41.9072L25.2533 40.5123V50.098C25.2533 50.251 25.1293 50.3748 24.9762 50.3748C24.823 50.3748 24.699 50.251 24.699 50.098V39.8495C24.699 39.7366 24.7646 39.6382 24.8704 39.5945C24.9725 39.5508 25.0929 39.5763 25.1695 39.6528L26.8435 41.3208L28.4008 39.7657L23.5976 34.9692L18.7944 39.7657L20.3517 41.3245L22.0257 39.6528C22.1059 39.5727 22.2226 39.5508 22.3248 39.5945C22.4269 39.6382 22.4962 39.7366 22.4962 39.8495V53.4741C22.4962 53.6271 22.3722 53.7509 22.219 53.7509C22.0658 53.7509 21.9418 53.6271 21.9418 53.4741V40.5123L20.545 41.9072C20.4939 41.9582 20.4246 41.9873 20.3517 41.9873C20.2788 41.9873 20.2095 41.9582 20.1584 41.9072L18.2109 39.9587C18.1015 39.8495 18.1051 39.6783 18.2109 39.569L23.4043 34.3829C23.5137 34.2736 23.6851 34.2736 23.7945 34.3829L28.9916 39.569C29.0426 39.62 29.0718 39.6892 29.0718 39.7621C29.0682 39.8386 29.0426 39.9114 28.9879 39.9624ZM24.5385 17.7245H25.6363V23.2712H24.5495C23.0213 23.2712 21.774 22.0293 21.774 20.4997C21.774 20.3467 21.65 20.2229 21.4969 20.2229C21.3437 20.2229 21.2197 20.3467 21.2197 20.4997C21.2197 22.3316 22.7113 23.8211 24.5458 23.8211H25.6326V25.755C25.6326 25.908 25.7566 26.0318 25.9098 26.0318C26.063 26.0318 26.187 25.908 26.187 25.755V23.8211H27.2848C28.1746 23.8211 29.0098 23.4752 29.6371 22.8487C30.2644 22.2223 30.6109 21.3883 30.6109 20.496C30.6109 18.6641 29.1192 17.1745 27.2848 17.1745H26.187V11.6278H27.2848C28.8129 11.6278 30.0602 12.8697 30.0602 14.3993V14.5596C30.0602 14.7126 30.1842 14.8364 30.3373 14.8364C30.4905 14.8364 30.6145 14.7126 30.6145 14.5596V14.3993C30.6145 12.5674 29.1229 11.0779 27.2884 11.0779H26.1906V9.14398C26.1906 8.99101 26.0666 8.86719 25.9135 8.86719C25.7603 8.86719 25.6363 8.99101 25.6363 9.14398V11.0779H24.5385C23.6486 11.0779 22.8135 11.4239 22.1862 12.0503C21.5589 12.6767 21.2124 13.5107 21.2124 14.403C21.216 16.2313 22.7077 17.7208 24.5385 17.7245ZM27.2884 17.7245C28.8165 17.7245 30.0638 18.9664 30.0638 20.4997C30.0638 21.239 29.7757 21.9346 29.2505 22.459C28.7253 22.9835 28.0288 23.2712 27.2884 23.2712H26.1906V17.7245H27.2884ZM22.58 12.4363C23.1052 11.9119 23.8018 11.6242 24.5422 11.6242H25.6399V17.1709H24.5422C23.014 17.1709 21.7668 15.929 21.7668 14.3957C21.7668 13.6564 22.0549 12.9608 22.58 12.4363ZM55.8011 44.9009H54.7034V42.967C54.7034 42.814 54.5793 42.6902 54.4262 42.6902C54.273 42.6902 54.149 42.814 54.149 42.967V44.9009H53.0512C52.1613 44.9009 51.3262 45.2469 50.6989 45.8733C50.0716 46.4997 49.7251 47.3337 49.7251 48.226C49.7251 50.0579 51.2168 51.5475 53.0512 51.5475H54.149V57.0942H53.0622C51.5341 57.0942 50.2868 55.8487 50.2868 54.3227C50.2868 54.1697 50.1628 54.0459 50.0096 54.0459C49.8564 54.0459 49.7324 54.1697 49.7324 54.3227C49.7324 56.1546 51.2241 57.6442 53.0585 57.6442H54.1453V59.5781C54.1453 59.731 54.2693 59.8549 54.4225 59.8549C54.5757 59.8549 54.6997 59.731 54.6997 59.5781V57.6442H55.7975C56.6873 57.6442 57.5225 57.2982 58.1498 56.6718C58.7771 56.0453 59.1236 55.2113 59.1236 54.319C59.1236 52.4871 57.6319 50.9976 55.7975 50.9976H54.6997V45.4508H55.7975C57.3256 45.4508 58.5729 46.6927 58.5729 48.2224V48.3826C58.5729 48.5356 58.6969 48.6594 58.8501 48.6594C59.0032 48.6594 59.1272 48.5356 59.1272 48.3826V48.2224C59.1272 46.3905 57.6356 44.9009 55.8011 44.9009ZM55.8011 51.5511C57.3292 51.5511 58.5765 52.7931 58.5765 54.3263C58.5765 55.0657 58.2884 55.7613 57.7632 56.2857C57.2381 56.8102 56.5415 57.0979 55.8011 57.0979H54.7034V51.5511H55.8011ZM54.1526 50.9976H53.0549C51.5268 50.9976 50.2795 49.7557 50.2795 48.2224C50.2795 47.4831 50.5676 46.7874 51.0928 46.263C51.6179 45.7386 52.3145 45.4508 53.0549 45.4508H54.1526V50.9976ZM46.8695 50.9976H36.541C36.3988 48.8779 34.6263 47.1953 32.4672 47.1953C30.217 47.1953 28.3825 49.0236 28.3825 51.2744C28.3825 53.5215 30.2133 55.3534 32.4672 55.3534C34.6263 55.3534 36.3988 53.6708 36.541 51.5511H46.8658C47.019 51.5511 47.143 51.4273 47.143 51.2744C47.143 51.1214 47.0226 50.9976 46.8695 50.9976ZM32.4672 54.8034C30.5197 54.8034 28.9369 53.2228 28.9369 51.278C28.9369 49.3332 30.5197 47.7526 32.4672 47.7526C34.4148 47.7526 35.9976 49.3332 35.9976 51.278C36.0012 53.2192 34.4148 54.8034 32.4672 54.8034ZM32.4672 49.4789C31.4752 49.4789 30.6692 50.2837 30.6692 51.2744C30.6692 52.265 31.4752 53.0698 32.4672 53.0698C33.4592 53.0698 34.2652 52.265 34.2652 51.2744C34.2689 50.2837 33.4592 49.4789 32.4672 49.4789ZM32.4672 52.5199C31.7779 52.5199 31.2199 51.9627 31.2199 51.2744C31.2199 50.586 31.7779 50.0288 32.4672 50.0288C33.1565 50.0288 33.7145 50.586 33.7145 51.2744C33.7145 51.9627 33.1565 52.5199 32.4672 52.5199ZM33.4738 17.7245H43.8023C43.9445 19.8441 45.717 21.5267 47.876 21.5267C50.1263 21.5267 51.9608 19.6984 51.9608 17.4477C51.9608 15.2006 50.1299 13.3687 47.876 13.3687C45.717 13.3687 43.9445 15.0513 43.8023 17.1709H33.4738C33.3206 17.1709 33.1966 17.2947 33.1966 17.4477C33.1966 17.6006 33.3206 17.7245 33.4738 17.7245ZM47.8724 13.9186C49.8199 13.9186 51.4028 15.4992 51.4028 17.444C51.4028 19.3889 49.8199 20.9695 47.8724 20.9695C45.9249 20.9695 44.342 19.3889 44.342 17.444C44.342 15.5029 45.9249 13.9186 47.8724 13.9186ZM47.8724 19.2432C48.8644 19.2432 49.6704 18.4383 49.6704 17.4477C49.6704 16.4571 48.8644 15.6522 47.8724 15.6522C46.8804 15.6522 46.0744 16.4571 46.0744 17.4477C46.0744 18.4383 46.8804 19.2432 47.8724 19.2432ZM47.8724 16.2021C48.5617 16.2021 49.1197 16.7593 49.1197 17.4477C49.1197 18.136 48.5617 18.6932 47.8724 18.6932C47.1831 18.6932 46.6251 18.136 46.6251 17.4477C46.6251 16.7593 47.1868 16.2021 47.8724 16.2021Z" fill="#21A497"/>
<path d="M40.1698 28.3663C38.5651 28.3663 37.0589 28.9891 35.9246 30.1218C34.7904 31.2544 34.1668 32.7586 34.1668 34.361C34.1668 35.9635 34.7904 37.4676 35.9246 38.6003C37.0589 39.7329 38.5651 40.3557 40.1698 40.3557C41.7745 40.3557 43.2808 39.7329 44.415 38.6003C46.7564 36.2621 46.7564 32.4599 44.415 30.1218C43.2808 28.9891 41.7745 28.3663 40.1698 28.3663ZM44.0248 38.2106C42.9963 39.2376 41.625 39.8058 40.1698 39.8058C38.7146 39.8058 37.3433 39.2413 36.3149 38.2106C35.2864 37.1836 34.7175 35.8142 34.7175 34.361C34.7175 32.9079 35.2864 31.5385 36.3149 30.5114C37.3433 29.4844 38.7146 28.9163 40.1698 28.9163C41.625 28.9163 42.9963 29.4808 44.0248 30.5114C46.151 32.6347 46.151 36.0873 44.0248 38.2106ZM40.1698 31.2216C39.331 31.2216 38.5396 31.5494 37.9451 32.1394C37.3506 32.7331 37.0224 33.5197 37.0224 34.361C37.0224 35.1987 37.3506 35.989 37.9451 36.5826C38.5396 37.1763 39.3273 37.504 40.1698 37.504C41.0086 37.504 41.8 37.1763 42.3945 36.5826C43.6199 35.3589 43.6199 33.3668 42.3945 32.1431C41.8 31.5458 41.0123 31.2216 40.1698 31.2216ZM42.0043 36.1929C41.5156 36.681 40.8628 36.9505 40.1698 36.9505C39.4769 36.9505 38.824 36.681 38.3353 36.1929C37.8466 35.7049 37.5768 35.053 37.5768 34.361C37.5768 33.669 37.8466 33.0171 38.3353 32.5291C38.824 32.0411 39.4769 31.7716 40.1698 31.7716C40.8628 31.7716 41.5156 32.0411 42.0043 32.5291C43.0145 33.5416 43.0145 35.1841 42.0043 36.1929ZM50.4217 41.8198L48.8316 39.7002C49.4042 38.7751 49.8199 37.7699 50.0716 36.7028L52.7011 36.3277C52.8361 36.3095 52.9382 36.1929 52.9382 36.0545V32.6675C52.9382 32.5291 52.8361 32.4126 52.7011 32.3944L50.0716 32.0192C49.8199 30.9521 49.4042 29.9433 48.8316 29.0219L50.4217 26.9023C50.5056 26.793 50.4946 26.64 50.3962 26.5417L48.0001 24.1489C47.9016 24.0506 47.7484 24.0397 47.639 24.1234L45.5164 25.715C44.59 25.1432 43.5835 24.728 42.5149 24.4767L42.1392 21.8508C42.121 21.7161 42.0043 21.6141 41.8657 21.6141H38.4739C38.3353 21.6141 38.2186 21.7161 38.2004 21.8508L37.8248 24.4767C36.7562 24.728 35.7496 25.1432 34.8232 25.715L32.7006 24.1234C32.5912 24.0397 32.438 24.0506 32.3396 24.1489L29.9435 26.5417C29.845 26.64 29.834 26.793 29.9179 26.9023L31.5117 29.0219C30.9391 29.9469 30.5233 30.9521 30.2717 32.0192L27.6422 32.3944C27.5072 32.4126 27.4051 32.5291 27.4051 32.6675V36.0545C27.4051 36.1929 27.5072 36.3095 27.6422 36.3277L30.2717 36.7028C30.5233 37.7699 30.9391 38.7751 31.5117 39.7002L29.9179 41.8198C29.834 41.929 29.845 42.082 29.9435 42.1803L32.3396 44.5731C32.438 44.6715 32.5912 44.6824 32.7006 44.5986L34.8232 43.0071C35.7496 43.5789 36.7562 43.994 37.8248 44.2453L38.2004 46.8712C38.2186 47.006 38.3353 47.1079 38.4739 47.1079H41.8657C42.0043 47.1079 42.121 47.006 42.1392 46.8712L42.5149 44.2453C43.5835 43.994 44.5937 43.5789 45.5164 43.0071L47.639 44.5986C47.7484 44.6824 47.9016 44.6715 48.0001 44.5731L50.3962 42.1803C50.4946 42.082 50.5056 41.929 50.4217 41.8198ZM47.7776 44.0159L45.6951 42.4571C45.6039 42.3879 45.4763 42.3843 45.3815 42.4462C44.415 43.069 43.3501 43.5097 42.2122 43.7537C42.0991 43.7792 42.0152 43.8702 41.997 43.9831L41.6286 46.5616H38.7146L38.3463 43.9831C38.3317 43.8702 38.2442 43.7755 38.1311 43.7537C36.9932 43.5097 35.9283 43.069 34.9618 42.4462C34.8633 42.3843 34.7393 42.3879 34.6482 42.4571L32.5657 44.0159L30.5051 41.9582L32.066 39.8786C32.1353 39.7876 32.139 39.6601 32.077 39.5654C31.4533 38.6003 31.012 37.5368 30.7677 36.4005C30.7422 36.2876 30.651 36.2039 30.5379 36.1856L27.9558 35.8142V32.9079L30.5379 32.54C30.651 32.5255 30.7458 32.4381 30.7677 32.3252C31.012 31.1889 31.4533 30.1254 32.077 29.1603C32.139 29.0619 32.1353 28.9381 32.066 28.8471L30.5051 26.7675L32.5657 24.7098L34.6482 26.2685C34.7393 26.3377 34.867 26.3414 34.9618 26.2795C35.9283 25.6567 36.9969 25.216 38.1311 24.972C38.2442 24.9465 38.328 24.8555 38.3463 24.7426L38.7146 22.164H41.625L41.9933 24.7426C42.0079 24.8555 42.0955 24.9502 42.2085 24.972C43.3464 25.216 44.4113 25.6567 45.3778 26.2795C45.4763 26.3414 45.6003 26.3377 45.6915 26.2685L47.7739 24.7098L49.8345 26.7675L48.2736 28.8471C48.2043 28.9381 48.2006 29.0656 48.2626 29.1603C48.8863 30.1254 49.3276 31.1889 49.5719 32.3252C49.5975 32.4381 49.6886 32.5218 49.8017 32.54L52.3838 32.9079V35.8142L49.8017 36.182C49.6886 36.1966 49.5938 36.284 49.5719 36.3969C49.3276 37.5332 48.8863 38.5966 48.2626 39.5618C48.2006 39.6601 48.2043 39.7839 48.2736 39.875L49.8345 41.9545L47.7776 44.0159ZM71.0859 41.0586L64.9589 47.1771C64.9078 47.2281 64.8385 47.2573 64.7656 47.2573C64.6926 47.2573 64.6233 47.2281 64.5723 47.1771L58.4452 41.0586C58.3358 40.9494 58.3358 40.7782 58.4452 40.6689L60.3928 38.7241C60.4949 38.6221 60.6809 38.6221 60.783 38.7241L63.1135 41.0513V19.6329C63.1135 19.4799 63.2375 19.3561 63.3906 19.3561C63.5438 19.3561 63.6678 19.4799 63.6678 19.6329V41.7142C63.6678 41.8271 63.6022 41.9254 63.4964 41.9691C63.3943 42.0128 63.2739 41.9873 63.1973 41.9108L60.5897 39.3068L59.0324 40.8619L64.7692 46.5908L70.5061 40.8619L68.9488 39.3068L66.3411 41.9108C66.2609 41.991 66.1442 42.0128 66.0421 41.9691C65.9399 41.9254 65.8706 41.8271 65.8706 41.7142V23.0053C65.8706 22.8524 65.9946 22.7285 66.1478 22.7285C66.301 22.7285 66.425 22.8524 66.425 23.0053V41.0477L68.7555 38.7205C68.8065 38.6695 68.8758 38.6403 68.9488 38.6403C69.0217 38.6403 69.091 38.6695 69.1421 38.7205L71.0896 40.6653C71.1954 40.7782 71.1954 40.953 71.0859 41.0586ZM51.3517 28.7597L53.2992 26.8148C53.4086 26.7092 53.5801 26.7056 53.6895 26.8148L55.0863 28.2097V18.624C55.0863 18.4711 55.2103 18.3473 55.3635 18.3473C55.5166 18.3473 55.6406 18.4711 55.6406 18.624V28.8726C55.6406 28.9855 55.575 29.0838 55.4692 29.1275C55.3671 29.1712 55.2468 29.1457 55.1702 29.0692L53.4962 27.4012L51.9389 28.9563L56.7457 33.7528L61.5452 28.9563L59.9879 27.3976L58.3139 29.0692C58.2337 29.1494 58.117 29.1712 58.0149 29.1275C57.9128 29.0838 57.8435 28.9855 57.8435 28.8726V15.2516C57.8435 15.0986 57.9675 14.9748 58.1206 14.9748C58.2738 14.9748 58.3978 15.0986 58.3978 15.2516V28.2097L59.7946 26.8148C59.8457 26.7639 59.915 26.7347 59.9879 26.7347C60.0609 26.7347 60.1302 26.7639 60.1812 26.8148L62.1288 28.7633C62.2382 28.8726 62.2345 29.0437 62.1288 29.153L56.9353 34.3392C56.8806 34.3938 56.8114 34.4193 56.7421 34.4193C56.6728 34.4193 56.5998 34.3938 56.5488 34.3392L51.3517 29.153C51.3006 29.102 51.2715 29.0328 51.2715 28.96C51.2715 28.8835 51.3006 28.8106 51.3517 28.7597ZM19.5603 29.9979L17.2298 27.6707V49.0892C17.2298 49.2421 17.1058 49.366 16.9526 49.366C16.7995 49.366 16.6755 49.2421 16.6755 49.0892V27.0079C16.6755 26.895 16.7411 26.7966 16.8469 26.7529C16.949 26.7092 17.0693 26.7347 17.1459 26.8112L19.7536 29.4152L21.3109 27.8601L15.5777 22.1276L9.84087 27.8565L11.3982 29.4152L14.0058 26.8112C14.086 26.7311 14.2027 26.7092 14.3049 26.7529C14.407 26.7966 14.4763 26.895 14.4763 27.0079V45.7167C14.4763 45.8697 14.3523 45.9935 14.1991 45.9935C14.0459 45.9935 13.9219 45.8697 13.9219 45.7167V27.6707L11.5915 29.9979C11.5404 30.0489 11.4711 30.0781 11.3982 30.0781C11.3252 30.0781 11.2559 30.0489 11.2049 29.9979L9.25369 28.0531C9.14428 27.9439 9.14428 27.7727 9.25369 27.6634L15.3807 21.5449C15.4829 21.4429 15.6689 21.4429 15.771 21.5449L21.898 27.6634C22.0075 27.7727 22.0075 27.9439 21.898 28.0531L19.9505 29.9979C19.8448 30.1035 19.6624 30.1035 19.5603 29.9979ZM28.9879 39.9624L27.0404 41.9072C26.9346 42.0165 26.7596 42.0165 26.6502 41.9072L25.2533 40.5123V50.098C25.2533 50.251 25.1293 50.3748 24.9762 50.3748C24.823 50.3748 24.699 50.251 24.699 50.098V39.8495C24.699 39.7366 24.7646 39.6382 24.8704 39.5945C24.9725 39.5508 25.0929 39.5763 25.1695 39.6528L26.8435 41.3208L28.4008 39.7657L23.5976 34.9692L18.7944 39.7657L20.3517 41.3245L22.0257 39.6528C22.1059 39.5727 22.2226 39.5508 22.3248 39.5945C22.4269 39.6382 22.4962 39.7366 22.4962 39.8495V53.4741C22.4962 53.6271 22.3722 53.7509 22.219 53.7509C22.0658 53.7509 21.9418 53.6271 21.9418 53.4741V40.5123L20.545 41.9072C20.4939 41.9582 20.4246 41.9873 20.3517 41.9873C20.2788 41.9873 20.2095 41.9582 20.1584 41.9072L18.2109 39.9587C18.1015 39.8495 18.1051 39.6783 18.2109 39.569L23.4043 34.3829C23.5137 34.2736 23.6851 34.2736 23.7945 34.3829L28.9916 39.569C29.0426 39.62 29.0718 39.6892 29.0718 39.7621C29.0682 39.8386 29.0426 39.9114 28.9879 39.9624ZM24.5385 17.7245H25.6363V23.2712H24.5495C23.0213 23.2712 21.774 22.0293 21.774 20.4997C21.774 20.3467 21.65 20.2229 21.4969 20.2229C21.3437 20.2229 21.2197 20.3467 21.2197 20.4997C21.2197 22.3316 22.7113 23.8211 24.5458 23.8211H25.6326V25.755C25.6326 25.908 25.7566 26.0318 25.9098 26.0318C26.063 26.0318 26.187 25.908 26.187 25.755V23.8211H27.2848C28.1746 23.8211 29.0098 23.4752 29.6371 22.8487C30.2644 22.2223 30.6109 21.3883 30.6109 20.496C30.6109 18.6641 29.1192 17.1745 27.2848 17.1745H26.187V11.6278H27.2848C28.8129 11.6278 30.0602 12.8697 30.0602 14.3993V14.5596C30.0602 14.7126 30.1842 14.8364 30.3373 14.8364C30.4905 14.8364 30.6145 14.7126 30.6145 14.5596V14.3993C30.6145 12.5674 29.1229 11.0779 27.2884 11.0779H26.1906V9.14398C26.1906 8.99101 26.0666 8.86719 25.9135 8.86719C25.7603 8.86719 25.6363 8.99101 25.6363 9.14398V11.0779H24.5385C23.6486 11.0779 22.8135 11.4239 22.1862 12.0503C21.5589 12.6767 21.2124 13.5107 21.2124 14.403C21.216 16.2313 22.7077 17.7208 24.5385 17.7245ZM27.2884 17.7245C28.8165 17.7245 30.0638 18.9664 30.0638 20.4997C30.0638 21.239 29.7757 21.9346 29.2505 22.459C28.7253 22.9835 28.0288 23.2712 27.2884 23.2712H26.1906V17.7245H27.2884ZM22.58 12.4363C23.1052 11.9119 23.8018 11.6242 24.5422 11.6242H25.6399V17.1709H24.5422C23.014 17.1709 21.7668 15.929 21.7668 14.3957C21.7668 13.6564 22.0549 12.9608 22.58 12.4363ZM55.8011 44.9009H54.7034V42.967C54.7034 42.814 54.5793 42.6902 54.4262 42.6902C54.273 42.6902 54.149 42.814 54.149 42.967V44.9009H53.0512C52.1613 44.9009 51.3262 45.2469 50.6989 45.8733C50.0716 46.4997 49.7251 47.3337 49.7251 48.226C49.7251 50.0579 51.2168 51.5475 53.0512 51.5475H54.149V57.0942H53.0622C51.5341 57.0942 50.2868 55.8487 50.2868 54.3227C50.2868 54.1697 50.1628 54.0459 50.0096 54.0459C49.8564 54.0459 49.7324 54.1697 49.7324 54.3227C49.7324 56.1546 51.2241 57.6442 53.0585 57.6442H54.1453V59.5781C54.1453 59.731 54.2693 59.8549 54.4225 59.8549C54.5757 59.8549 54.6997 59.731 54.6997 59.5781V57.6442H55.7975C56.6873 57.6442 57.5225 57.2982 58.1498 56.6718C58.7771 56.0453 59.1236 55.2113 59.1236 54.319C59.1236 52.4871 57.6319 50.9976 55.7975 50.9976H54.6997V45.4508H55.7975C57.3256 45.4508 58.5729 46.6927 58.5729 48.2224V48.3826C58.5729 48.5356 58.6969 48.6594 58.8501 48.6594C59.0032 48.6594 59.1272 48.5356 59.1272 48.3826V48.2224C59.1272 46.3905 57.6356 44.9009 55.8011 44.9009ZM55.8011 51.5511C57.3292 51.5511 58.5765 52.7931 58.5765 54.3263C58.5765 55.0657 58.2884 55.7613 57.7632 56.2857C57.2381 56.8102 56.5415 57.0979 55.8011 57.0979H54.7034V51.5511H55.8011ZM54.1526 50.9976H53.0549C51.5268 50.9976 50.2795 49.7557 50.2795 48.2224C50.2795 47.4831 50.5676 46.7874 51.0928 46.263C51.6179 45.7386 52.3145 45.4508 53.0549 45.4508H54.1526V50.9976ZM46.8695 50.9976H36.541C36.3988 48.8779 34.6263 47.1953 32.4672 47.1953C30.217 47.1953 28.3825 49.0236 28.3825 51.2744C28.3825 53.5215 30.2133 55.3534 32.4672 55.3534C34.6263 55.3534 36.3988 53.6708 36.541 51.5511H46.8658C47.019 51.5511 47.143 51.4273 47.143 51.2744C47.143 51.1214 47.0226 50.9976 46.8695 50.9976ZM32.4672 54.8034C30.5197 54.8034 28.9369 53.2228 28.9369 51.278C28.9369 49.3332 30.5197 47.7526 32.4672 47.7526C34.4148 47.7526 35.9976 49.3332 35.9976 51.278C36.0012 53.2192 34.4148 54.8034 32.4672 54.8034ZM32.4672 49.4789C31.4752 49.4789 30.6692 50.2837 30.6692 51.2744C30.6692 52.265 31.4752 53.0698 32.4672 53.0698C33.4592 53.0698 34.2652 52.265 34.2652 51.2744C34.2689 50.2837 33.4592 49.4789 32.4672 49.4789ZM32.4672 52.5199C31.7779 52.5199 31.2199 51.9627 31.2199 51.2744C31.2199 50.586 31.7779 50.0288 32.4672 50.0288C33.1565 50.0288 33.7145 50.586 33.7145 51.2744C33.7145 51.9627 33.1565 52.5199 32.4672 52.5199ZM33.4738 17.7245H43.8023C43.9445 19.8441 45.717 21.5267 47.876 21.5267C50.1263 21.5267 51.9608 19.6984 51.9608 17.4477C51.9608 15.2006 50.1299 13.3687 47.876 13.3687C45.717 13.3687 43.9445 15.0513 43.8023 17.1709H33.4738C33.3206 17.1709 33.1966 17.2947 33.1966 17.4477C33.1966 17.6006 33.3206 17.7245 33.4738 17.7245ZM47.8724 13.9186C49.8199 13.9186 51.4028 15.4992 51.4028 17.444C51.4028 19.3889 49.8199 20.9695 47.8724 20.9695C45.9249 20.9695 44.342 19.3889 44.342 17.444C44.342 15.5029 45.9249 13.9186 47.8724 13.9186ZM47.8724 19.2432C48.8644 19.2432 49.6704 18.4383 49.6704 17.4477C49.6704 16.4571 48.8644 15.6522 47.8724 15.6522C46.8804 15.6522 46.0744 16.4571 46.0744 17.4477C46.0744 18.4383 46.8804 19.2432 47.8724 19.2432ZM47.8724 16.2021C48.5617 16.2021 49.1197 16.7593 49.1197 17.4477C49.1197 18.136 48.5617 18.6932 47.8724 18.6932C47.1831 18.6932 46.6251 18.136 46.6251 17.4477C46.6251 16.7593 47.1868 16.2021 47.8724 16.2021Z" stroke="#117B6A" stroke-width="0.8" mask="url(#path-2-outside-1_366_8407)"/>
</svg>