<svg width="588" height="357" viewBox="0 0 588 357" fill="none" xmlns="http://www.w3.org/2000/svg">
<path d="M56.26 40.485C56.5987 38.0297 56.9373 35.6167 57.276 33.246C57.6993 30.7907 57.9957 28.3353 58.165 25.88C58.3343 23.34 58.292 20.8 58.038 18.26C57.8687 15.72 57.1913 13.2647 56.006 10.894C56.1753 12.8413 56.387 14.7463 56.641 16.609C56.895 18.387 56.9797 20.2497 56.895 22.197C56.7257 24.991 56.4717 27.785 56.133 30.579C55.7943 33.373 55.4133 36.2093 54.99 39.088C54.9053 39.85 54.609 40.4427 54.101 40.866C53.593 41.2047 53.0003 41.2893 52.323 41.12C51.8997 40.866 51.434 40.5273 50.926 40.104C50.418 39.596 50.1217 39.088 50.037 38.58C49.9523 37.6487 49.9947 36.7173 50.164 35.786C50.3333 34.8547 50.418 33.8387 50.418 32.738C50.5027 30.2827 50.5873 27.785 50.672 25.245C50.7567 22.6203 50.7567 20.038 50.672 17.498C50.672 16.0587 50.5027 14.6617 50.164 13.307C49.8253 11.8677 49.4443 10.386 49.021 8.862C47.5817 9.03133 46.354 9.497 45.338 10.259C44.322 11.021 43.3907 11.8677 42.544 12.799C37.718 17.7097 33.6117 23.1283 30.225 29.055C26.923 34.897 24.2983 41.2893 22.351 48.232C21.081 52.8887 20.1073 57.5877 19.43 62.329C18.8373 67.0703 18.8373 71.9387 19.43 76.934C19.684 79.1353 20.065 81.252 20.573 83.284C21.1657 85.316 22.0547 87.3057 23.24 89.253C24.6793 91.6237 26.4573 92.301 28.574 91.285C30.6907 90.0997 32.8073 88.999 34.924 87.983C37.0407 86.8823 39.0727 85.6123 41.02 84.173C43.2213 82.4797 44.7453 81.2943 45.592 80.617C46.5233 79.855 47.2853 79.22 47.878 78.712C48.5553 78.204 49.3173 77.6113 50.164 76.934C51.0953 76.172 52.6617 74.9443 54.863 73.251C55.371 72.8277 55.879 72.4043 56.387 71.981C56.895 71.473 57.403 71.092 57.911 70.838C58.5037 70.584 59.0963 70.5417 59.689 70.711C60.2817 70.8803 60.959 71.3883 61.721 72.235C62.0597 72.489 62.61 72.5313 63.372 72.362C64.134 72.108 65.1077 71.9387 66.293 71.854C65.6157 72.7853 65.0653 73.505 64.642 74.013C64.2187 74.521 63.7953 74.9867 63.372 75.41C61.7633 76.7647 60.4933 77.9077 59.562 78.839C58.6307 79.6857 57.8263 80.4477 57.149 81.125C56.4717 81.7177 55.879 82.268 55.371 82.776C54.863 83.284 54.2703 83.8767 53.593 84.554C52.9157 85.1467 52.069 85.8663 51.053 86.713C50.1217 87.5597 48.8517 88.6603 47.243 90.015C43.8563 92.9783 40.1733 94.841 36.194 95.603C32.2993 96.2803 28.193 96.4497 23.875 96.111C21.843 95.9417 19.9803 95.3067 18.287 94.206C16.5937 93.0207 15.0697 91.5813 13.715 89.888C11.5137 86.9247 9.905 83.7497 8.889 80.363C7.95767 76.9763 7.44967 73.4203 7.365 69.695C7.19567 57.6723 9.05833 46.6657 12.953 36.675C16.8477 26.5997 22.6473 17.3287 30.352 8.862C32.2993 6.66066 34.5007 4.925 36.956 3.655C39.9193 1.45366 43.2213 0.903329 46.862 2.004C47.9627 2.42733 49.0633 2.766 50.164 3.02C51.2647 3.18933 52.323 3.44333 53.339 3.782C55.5403 4.544 57.3607 5.687 58.8 7.211C60.2393 8.735 61.1707 10.8517 61.594 13.561C61.9327 15.7623 62.102 18.0907 62.102 20.546C62.102 23.0013 61.8903 25.4567 61.467 27.912C61.1283 30.2827 60.578 32.5687 59.816 34.77C59.054 36.9713 58.165 38.9187 57.149 40.612C56.8103 40.612 56.514 40.5697 56.26 40.485ZM22.605 38.58C20.573 42.644 18.9643 47.0467 17.779 51.788C16.6783 56.5293 16.0433 61.1437 15.874 65.631C15.7047 70.1183 16.001 74.3517 16.763 78.331C17.525 82.2257 18.8797 85.3583 20.827 87.729C19.303 83.411 18.287 79.1777 17.779 75.029C17.271 70.8803 17.144 66.774 17.398 62.71C17.7367 58.646 18.3717 54.6243 19.303 50.645C20.2343 46.581 21.335 42.5593 22.605 38.58ZM38.353 91.793C38.353 92.1317 38.48 92.428 38.734 92.682C38.988 92.5127 39.2843 92.3433 39.623 92.174C40.0463 92.0047 40.4697 91.793 40.893 91.539C40.7237 91.3697 40.639 91.158 40.639 90.904C40.2157 91.0733 39.7923 91.2427 39.369 91.412C39.0303 91.4967 38.6917 91.6237 38.353 91.793ZM48.513 85.697C48.513 85.697 48.4283 85.6547 48.259 85.57C48.1743 85.57 48.0897 85.6123 48.005 85.697C47.9203 85.7817 47.7933 85.8663 47.624 85.951C47.5393 86.0357 47.4123 86.2897 47.243 86.713C47.5817 86.459 48.005 86.1627 48.513 85.824V85.697ZM92.1097 12.037C92.5331 11.6137 92.9141 11.275 93.2527 11.021C93.5914 10.6823 93.9301 10.3013 94.2687 9.87799C96.2161 7.50733 98.4174 5.72933 100.873 4.54399C103.413 3.35866 106.291 2.97766 109.509 3.40099C112.726 3.82433 115.478 4.88266 117.764 6.576C120.05 8.18466 121.701 10.513 122.717 13.561C123.309 15.2543 123.775 16.99 124.114 18.768C124.537 20.546 124.706 22.324 124.622 24.102C124.452 34.3467 123.182 44.2527 120.812 53.82C118.526 63.3873 114.716 72.6583 109.382 81.633C108.196 83.5803 106.799 85.443 105.191 87.221C103.667 88.999 102.143 90.7347 100.619 92.428C99.4334 93.7827 98.0364 94.8833 96.4277 95.73C94.9037 96.492 93.2104 96.9153 91.3477 97C89.8237 97.1693 88.2151 97.0423 86.5217 96.619C85.5057 96.1957 84.4897 95.857 83.4737 95.603C82.4577 95.349 81.3571 95.3067 80.1717 95.476C78.7324 95.73 77.5047 95.5183 76.4887 94.841C75.5574 94.1637 74.6684 93.317 73.8217 92.301C72.4671 90.6077 71.4934 88.8297 70.9007 86.967C70.3927 85.1043 70.1387 83.157 70.1387 81.125C70.0541 79.0083 70.0117 76.8917 70.0117 74.775C70.0964 72.5737 70.2657 70.3723 70.5197 68.171C71.5357 62.1597 73.0597 56.4023 75.0917 50.899C77.2084 45.3957 80.1294 40.1463 83.8547 35.151C84.3627 34.4737 84.7437 33.7117 84.9977 32.865C85.2517 31.9337 85.4211 31.0023 85.5057 30.071C85.8444 27.7003 86.2254 25.3297 86.6487 22.959C87.1567 20.5037 87.9187 18.1753 88.9347 15.974C89.3581 15.0427 89.8237 14.2807 90.3317 13.688C90.8397 13.0107 91.5594 12.4603 92.4907 12.037C92.1521 12.7143 91.8134 13.434 91.4747 14.196C91.1361 14.958 90.8397 15.6777 90.5857 16.355C89.0617 18.387 88.1304 20.5883 87.7917 22.959C87.4531 25.3297 87.0721 27.7003 86.6487 30.071C87.4107 29.9863 87.8341 29.9017 87.9187 29.817C88.3421 27.4463 88.7654 25.1603 89.1887 22.959C89.6121 20.7577 90.0354 18.5563 90.4587 16.355C91.1361 15.6777 91.6441 15.0427 91.9827 14.45C92.4061 13.7727 92.4484 12.9683 92.1097 12.037ZM88.1727 91.031C88.0881 91.4543 88.0457 91.8353 88.0457 92.174C88.0457 92.5127 88.0034 92.8937 87.9187 93.317C89.5274 93.317 90.8821 92.936 91.9827 92.174C93.0834 91.3273 94.0994 90.4383 95.0307 89.507C98.2481 86.1203 100.915 82.4797 103.032 78.585C105.148 74.6903 107.011 70.711 108.62 66.647C114.546 51.915 117.34 36.7173 117.002 21.054C117.002 19.1913 116.79 17.371 116.367 15.593C115.943 13.7303 115.266 11.9523 114.335 10.259C112.387 6.449 109.466 5.64466 105.572 7.846C104.132 8.52333 102.778 9.53933 101.508 10.894C100.238 12.164 99.0947 13.6033 98.0787 15.212C97.1474 16.8207 96.4277 18.514 95.9197 20.292C95.4117 22.07 95.1577 23.8057 95.1577 25.499C96.0891 25.499 96.9781 25.499 97.8247 25.499C98.7561 25.4143 99.6874 25.4143 100.619 25.499C101.55 25.5837 102.439 25.753 103.286 26.007C104.217 26.261 105.275 26.515 106.461 26.769C105.783 27.4463 105.233 28.039 104.81 28.547C104.471 29.055 104.09 29.5207 103.667 29.944C103.074 30.6213 102.354 31.2563 101.508 31.849C100.746 32.4417 100.111 33.119 99.6027 33.881C98.7561 35.2357 97.9517 36.6327 97.1897 38.072C96.4277 39.4267 95.7081 40.8237 95.0307 42.263C93.4221 45.565 94.1417 48.4437 97.1897 50.899C97.7824 51.3223 98.5867 51.9997 99.6027 52.931C97.8247 53.439 96.3431 53.3543 95.1577 52.677C93.9724 51.915 92.7024 51.3223 91.3477 50.899C90.9244 52.3383 90.5011 53.6507 90.0777 54.836C89.6544 56.0213 89.2734 57.2913 88.9347 58.646C88.1727 61.8633 87.3684 65.123 86.5217 68.425C85.6751 71.727 85.0401 74.9867 84.6167 78.204C84.4474 79.982 84.4474 81.8023 84.6167 83.665C84.8707 85.5277 85.1247 87.3903 85.3787 89.253C85.4634 89.9303 85.7174 90.4807 86.1407 90.904C86.5641 91.3273 87.2414 91.4543 88.1727 91.285V91.031ZM81.3147 93.444C79.3674 90.2267 78.1397 87.0093 77.6317 83.792C77.2084 80.5747 77.0814 77.2727 77.2507 73.886C77.6741 69.2293 78.3091 64.6573 79.1557 60.17C80.0871 55.6827 81.3994 51.28 83.0927 46.962C83.4314 46.2847 83.7277 45.565 83.9817 44.803C84.2357 44.041 84.4897 43.2367 84.7437 42.39C83.8124 43.152 83.1774 44.041 82.8387 45.057C81.7381 48.0203 80.6797 50.9413 79.6637 53.82C78.6477 56.6987 77.6741 59.662 76.7427 62.71C76.1501 65.0807 75.6421 67.4937 75.2187 69.949C74.7954 72.4043 74.4144 74.8597 74.0757 77.315C73.8217 79.4317 73.8217 81.5483 74.0757 83.665C74.3297 85.7817 74.9224 87.8137 75.8537 89.761C76.2771 90.6923 76.9121 91.4967 77.7587 92.174C78.6054 92.8513 79.7907 93.2747 81.3147 93.444ZM222.23 93.444C220.537 95.3067 218.716 96.365 216.769 96.619C214.906 96.873 212.959 96.7883 210.927 96.365C209.911 96.111 209.107 95.476 208.514 94.46C207.921 93.3593 207.583 92.2163 207.498 91.031C206.567 85.8663 206.101 80.7863 206.101 75.791C206.101 68.3403 206.482 61.059 207.244 53.947C208.091 46.835 209.234 39.6807 210.673 32.484C210.758 32.1453 210.8 31.8067 210.8 31.468C210.8 31.1293 210.842 30.6213 210.927 29.944C210.504 30.3673 210.165 30.6637 209.911 30.833C209.657 30.9177 209.445 31.087 209.276 31.341C203.18 39.0457 197.338 46.962 191.75 55.09C186.162 63.1333 181.209 71.7693 176.891 80.998C176.722 81.506 176.51 82.0563 176.256 82.649C176.002 83.157 175.79 83.6227 175.621 84.046C175.198 84.7233 174.817 85.4007 174.478 86.078C174.139 86.7553 173.758 87.2633 173.335 87.602C172.404 88.0253 171.388 88.4063 170.287 88.745C169.271 89.0837 168.213 89.38 167.112 89.634C166.689 89.8033 166.181 89.8457 165.588 89.761C165.08 89.6763 164.614 89.6763 164.191 89.761C161.905 90.1843 160 89.888 158.476 88.872C157.037 87.7713 156.232 85.9087 156.063 83.284C155.809 80.3207 155.64 77.3997 155.555 74.521C155.555 71.5577 155.682 68.5943 155.936 65.631C156.19 62.4137 156.613 59.1963 157.206 55.979C157.883 52.7617 158.476 49.4597 158.984 46.073C159.069 45.4803 159.153 44.93 159.238 44.422C159.323 43.8293 159.28 43.152 159.111 42.39C157.926 43.406 156.91 44.6337 156.063 46.073C155.216 47.4277 154.37 48.8247 153.523 50.264C151.576 53.058 149.798 55.979 148.189 59.027C147.258 60.4663 146.369 61.948 145.522 63.472C144.76 64.9113 143.913 66.393 142.982 67.917C142.22 69.441 141.458 70.965 140.696 72.489C139.934 73.9283 139.13 75.4947 138.283 77.188C137.606 78.6273 136.928 80.1513 136.251 81.76C135.658 83.284 135.023 84.808 134.346 86.332C134.092 86.2473 133.923 86.205 133.838 86.205C133.753 86.1203 133.626 86.078 133.457 86.078C134.558 83.3687 135.616 80.617 136.632 77.823C137.733 75.029 138.876 72.1503 140.061 69.187C139.214 69.8643 138.283 71.1767 137.267 73.124C136.251 74.9867 135.235 77.1457 134.219 79.601C133.288 81.9717 132.483 84.427 131.806 86.967C131.129 89.4223 130.663 91.5813 130.409 93.444C125.922 95.0527 124.398 93.444 125.837 88.618C126.684 85.9087 127.573 83.157 128.504 80.363C129.435 77.569 130.536 74.9443 131.806 72.489C134.092 67.917 136.463 63.4297 138.918 59.027C141.458 54.6243 143.956 50.2217 146.411 45.819C149.12 41.1623 151.957 36.5903 154.92 32.103C157.968 27.6157 160.889 23.0437 163.683 18.387C164.953 16.355 166.054 14.2383 166.985 12.037C168.001 9.83566 169.059 7.63433 170.16 5.433C170.499 4.84033 170.837 4.29 171.176 3.782C171.515 3.274 172.065 3.06233 172.827 3.147C174.182 3.48566 174.986 4.50166 175.24 6.195C175.24 6.53366 175.24 6.87233 175.24 7.211C175.24 7.54967 175.282 7.93067 175.367 8.354C175.96 7.76133 176.552 7.08399 177.145 6.32199C177.822 5.55999 178.5 4.96733 179.177 4.54399C179.939 4.12066 180.701 3.90899 181.463 3.90899C182.225 3.90899 183.114 4.33233 184.13 5.17899C181.675 15.1697 179.727 25.2027 178.288 35.278C176.849 45.2687 175.663 55.4287 174.732 65.758C175.325 65.3347 175.748 64.869 176.002 64.361C179.219 58.6037 182.691 53.1003 186.416 47.851C190.226 42.6017 194.121 37.437 198.1 32.357C200.809 28.801 203.476 25.2873 206.101 21.816C208.81 18.26 211.52 14.704 214.229 11.148C214.822 10.4707 215.584 9.92033 216.515 9.497C217.446 9.07367 218.462 8.81966 219.563 8.73499C220.664 8.56566 221.722 8.608 222.738 8.862C223.754 9.03133 224.643 9.37 225.405 9.87799C226.082 10.386 226.463 10.9787 226.548 11.656C226.633 12.2487 226.59 12.926 226.421 13.688C225.913 16.482 225.405 19.3183 224.897 22.197C224.389 24.991 223.923 27.8273 223.5 30.706C222.823 36.3787 222.103 42.0513 221.341 47.724C220.664 53.312 220.071 58.9847 219.563 64.742C219.224 68.298 219.013 71.7693 218.928 75.156C218.928 78.458 218.928 81.887 218.928 85.443C218.928 86.5437 218.97 87.4327 219.055 88.11C219.14 88.7873 219.309 89.4223 219.563 90.015C219.817 90.6077 220.156 91.158 220.579 91.666C221.002 92.174 221.553 92.7667 222.23 93.444ZM167.62 50.137C168.551 45.565 169.44 40.993 170.287 36.421C171.218 31.849 172.15 27.277 173.081 22.705C172.827 22.6203 172.615 22.578 172.446 22.578C172.361 22.578 172.234 22.5357 172.065 22.451C170.795 27.023 169.821 31.595 169.144 36.167C168.551 40.739 168.043 45.3957 167.62 50.137ZM157.46 36.802C157.714 36.8867 157.926 37.0137 158.095 37.183C158.349 36.675 158.603 36.2093 158.857 35.786C159.111 35.278 159.365 34.7277 159.619 34.135C159.45 33.9657 159.238 33.881 158.984 33.881C158.561 34.9817 158.053 35.9553 157.46 36.802ZM164.572 79.728C164.572 79.3047 164.572 78.8813 164.572 78.458C164.572 78.0347 164.53 77.6113 164.445 77.188H164.318C164.233 77.6113 164.191 78.0347 164.191 78.458C164.191 78.8813 164.191 79.3047 164.191 79.728H164.572ZM248.999 12.037C249.423 11.6137 249.804 11.275 250.142 11.021C250.481 10.6823 250.82 10.3013 251.158 9.87799C253.106 7.50733 255.307 5.72933 257.762 4.54399C260.302 3.35866 263.181 2.97766 266.398 3.40099C269.616 3.82433 272.367 4.88266 274.653 6.576C276.939 8.18466 278.59 10.513 279.606 13.561C280.199 15.2543 280.665 16.99 281.003 18.768C281.427 20.546 281.596 22.324 281.511 24.102C281.342 34.3467 280.072 44.2527 277.701 53.82C275.415 63.3873 271.605 72.6583 266.271 81.633C265.086 83.5803 263.689 85.443 262.08 87.221C260.556 88.999 259.032 90.7347 257.508 92.428C256.323 93.7827 254.926 94.8833 253.317 95.73C251.793 96.492 250.1 96.9153 248.237 97C246.713 97.1693 245.105 97.0423 243.411 96.619C242.395 96.1957 241.379 95.857 240.363 95.603C239.347 95.349 238.247 95.3067 237.061 95.476C235.622 95.73 234.394 95.5183 233.378 94.841C232.447 94.1637 231.558 93.317 230.711 92.301C229.357 90.6077 228.383 88.8297 227.79 86.967C227.282 85.1043 227.028 83.157 227.028 81.125C226.944 79.0083 226.901 76.8917 226.901 74.775C226.986 72.5737 227.155 70.3723 227.409 68.171C228.425 62.1597 229.949 56.4023 231.981 50.899C234.098 45.3957 237.019 40.1463 240.744 35.151C241.252 34.4737 241.633 33.7117 241.887 32.865C242.141 31.9337 242.311 31.0023 242.395 30.071C242.734 27.7003 243.115 25.3297 243.538 22.959C244.046 20.5037 244.808 18.1753 245.824 15.974C246.248 15.0427 246.713 14.2807 247.221 13.688C247.729 13.0107 248.449 12.4603 249.38 12.037C249.042 12.7143 248.703 13.434 248.364 14.196C248.026 14.958 247.729 15.6777 247.475 16.355C245.951 18.387 245.02 20.5883 244.681 22.959C244.343 25.3297 243.962 27.7003 243.538 30.071C244.3 29.9863 244.724 29.9017 244.808 29.817C245.232 27.4463 245.655 25.1603 246.078 22.959C246.502 20.7577 246.925 18.5563 247.348 16.355C248.026 15.6777 248.534 15.0427 248.872 14.45C249.296 13.7727 249.338 12.9683 248.999 12.037ZM245.062 91.031C244.978 91.4543 244.935 91.8353 244.935 92.174C244.935 92.5127 244.893 92.8937 244.808 93.317C246.417 93.317 247.772 92.936 248.872 92.174C249.973 91.3273 250.989 90.4383 251.92 89.507C255.138 86.1203 257.805 82.4797 259.921 78.585C262.038 74.6903 263.901 70.711 265.509 66.647C271.436 51.915 274.23 36.7173 273.891 21.054C273.891 19.1913 273.68 17.371 273.256 15.593C272.833 13.7303 272.156 11.9523 271.224 10.259C269.277 6.449 266.356 5.64466 262.461 7.846C261.022 8.52333 259.667 9.53933 258.397 10.894C257.127 12.164 255.984 13.6033 254.968 15.212C254.037 16.8207 253.317 18.514 252.809 20.292C252.301 22.07 252.047 23.8057 252.047 25.499C252.979 25.499 253.868 25.499 254.714 25.499C255.646 25.4143 256.577 25.4143 257.508 25.499C258.44 25.5837 259.329 25.753 260.175 26.007C261.107 26.261 262.165 26.515 263.35 26.769C262.673 27.4463 262.123 28.039 261.699 28.547C261.361 29.055 260.98 29.5207 260.556 29.944C259.964 30.6213 259.244 31.2563 258.397 31.849C257.635 32.4417 257 33.119 256.492 33.881C255.646 35.2357 254.841 36.6327 254.079 38.072C253.317 39.4267 252.598 40.8237 251.92 42.263C250.312 45.565 251.031 48.4437 254.079 50.899C254.672 51.3223 255.476 51.9997 256.492 52.931C254.714 53.439 253.233 53.3543 252.047 52.677C250.862 51.915 249.592 51.3223 248.237 50.899C247.814 52.3383 247.391 53.6507 246.967 54.836C246.544 56.0213 246.163 57.2913 245.824 58.646C245.062 61.8633 244.258 65.123 243.411 68.425C242.565 71.727 241.93 74.9867 241.506 78.204C241.337 79.982 241.337 81.8023 241.506 83.665C241.76 85.5277 242.014 87.3903 242.268 89.253C242.353 89.9303 242.607 90.4807 243.03 90.904C243.454 91.3273 244.131 91.4543 245.062 91.285V91.031ZM238.204 93.444C236.257 90.2267 235.029 87.0093 234.521 83.792C234.098 80.5747 233.971 77.2727 234.14 73.886C234.564 69.2293 235.199 64.6573 236.045 60.17C236.977 55.6827 238.289 51.28 239.982 46.962C240.321 46.2847 240.617 45.565 240.871 44.803C241.125 44.041 241.379 43.2367 241.633 42.39C240.702 43.152 240.067 44.041 239.728 45.057C238.628 48.0203 237.569 50.9413 236.553 53.82C235.537 56.6987 234.564 59.662 233.632 62.71C233.04 65.0807 232.532 67.4937 232.108 69.949C231.685 72.4043 231.304 74.8597 230.965 77.315C230.711 79.4317 230.711 81.5483 230.965 83.665C231.219 85.7817 231.812 87.8137 232.743 89.761C233.167 90.6923 233.802 91.4967 234.648 92.174C235.495 92.8513 236.68 93.2747 238.204 93.444Z" fill="white"/>
<g filter="url(#filter0_d_186_9451)">
<path d="M43.612 189.132L47.73 211H65.764L47.162 115.292H24.868L4.136 211H22.17L26.43 189.132H43.612ZM28.276 174.648L31.826 154.626C32.82 149.088 34.24 139.29 35.234 132.9H35.66C36.512 139.148 37.79 148.804 38.784 154.626L41.908 174.648H28.276ZM107.444 211L129.312 115.292H108.864L102.332 156.188C100.628 166.98 99.0663 178.482 97.7883 189.842H97.5043C96.2263 178.624 94.2383 166.98 92.6763 156.614L85.8603 115.292H65.2703L86.5703 211H107.444ZM167.585 189.132L171.703 211H189.737L171.135 115.292H148.841L128.109 211H146.143L150.403 189.132H167.585ZM152.249 174.648L155.799 154.626C156.793 149.088 158.213 139.29 159.207 132.9H159.633C160.485 139.148 161.763 148.804 162.757 154.626L165.881 174.648H152.249ZM216.576 211V189.558C216.576 170.246 215.866 155.478 215.298 145.822H215.582C217.854 154.342 222.114 166.554 225.38 174.648L240.006 211H257.046V115.292H240.716V136.45C240.716 154.058 241.994 170.672 242.562 180.754H242.278C239.58 172.518 235.036 160.164 232.054 152.78L217.286 115.292H200.246V211H216.576ZM317.343 193.96C315.071 194.67 311.521 195.38 308.397 195.38C297.179 195.38 288.517 186.434 288.517 163.572C288.517 139.858 298.031 130.77 308.539 130.77C312.515 130.77 314.929 131.622 317.201 132.616L320.183 116.996C318.337 115.718 313.793 114.44 307.261 114.44C288.801 114.44 268.779 128.498 268.779 164.566C268.779 189.558 277.725 207.024 297.179 211.142L291.925 222.502C298.173 223.07 301.581 225.058 301.581 227.756C301.581 230.454 299.309 231.306 297.037 231.306C294.623 231.306 291.925 230.454 289.653 229.318L286.955 237.27C289.653 238.832 293.771 239.826 297.605 239.826C305.557 239.826 313.225 236.56 313.225 227.472C313.225 221.934 308.681 218.1 303.711 217.106L306.551 211.852C311.521 211.852 316.633 210.858 319.189 209.58L317.343 193.96ZM365.192 189.132L369.31 211H387.344L368.742 115.292H346.448L325.716 211H343.75L348.01 189.132H365.192ZM349.856 174.648L353.406 154.626C354.4 149.088 355.82 139.29 356.814 132.9H357.24C358.092 139.148 359.37 148.804 360.364 154.626L363.488 174.648H349.856ZM397.853 211H416.455V172.802H419.295C425.401 172.802 428.383 176.21 430.087 187.996C431.507 198.646 433.637 208.302 434.915 211H454.369C452.665 207.45 450.109 195.664 448.263 185.014C446.417 174.648 443.151 168.684 436.619 165.986V165.702C446.275 161.3 451.387 152.07 451.387 141.846C451.387 133.61 449.541 127.22 443.719 121.966C437.613 116.428 428.383 114.866 418.159 114.866C411.059 114.866 403.675 115.576 397.853 116.712V211ZM416.455 129.918C417.449 129.492 419.295 129.35 420.999 129.35C429.235 129.634 432.501 135.314 432.501 143.55C432.501 151.928 427.957 158.46 419.863 158.46H416.455V129.918Z" fill="#02B8FA"/>
<path d="M43.612 189.132L45.5775 188.762L45.2705 187.132H43.612V189.132ZM47.73 211L45.7645 211.37L46.0715 213H47.73V211ZM65.764 211V213H68.1902L67.7273 210.618L65.764 211ZM47.162 115.292L49.1253 114.91L48.8107 113.292H47.162V115.292ZM24.868 115.292V113.292H23.2549L22.9133 114.869L24.868 115.292ZM4.136 211L2.18133 210.577L1.65638 213H4.136V211ZM22.17 211V213H23.818L24.1331 211.382L22.17 211ZM26.43 189.132V187.132H24.782L24.4669 188.75L26.43 189.132ZM28.276 174.648L26.3067 174.299L25.8902 176.648H28.276V174.648ZM31.826 154.626L29.8575 154.273L29.8567 154.277L31.826 154.626ZM35.234 132.9V130.9H33.5211L33.2578 132.593L35.234 132.9ZM35.66 132.9L37.6417 132.63L37.4058 130.9H35.66V132.9ZM38.784 154.626L40.7601 154.318L40.7579 154.304L40.7555 154.289L38.784 154.626ZM41.908 174.648V176.648H44.2443L43.8841 174.34L41.908 174.648ZM41.6465 189.502L45.7645 211.37L49.6955 210.63L45.5775 188.762L41.6465 189.502ZM47.73 213H65.764V209H47.73V213ZM67.7273 210.618L49.1253 114.91L45.1987 115.674L63.8007 211.382L67.7273 210.618ZM47.162 113.292H24.868V117.292H47.162V113.292ZM22.9133 114.869L2.18133 210.577L6.09067 211.423L26.8227 115.715L22.9133 114.869ZM4.136 213H22.17V209H4.136V213ZM24.1331 211.382L28.3931 189.514L24.4669 188.75L20.2069 210.618L24.1331 211.382ZM26.43 191.132H43.612V187.132H26.43V191.132ZM30.2453 174.997L33.7953 154.975L29.8567 154.277L26.3067 174.299L30.2453 174.997ZM33.7945 154.979C34.7939 149.411 36.223 139.554 37.2102 133.207L33.2578 132.593C32.257 139.026 30.8461 148.765 29.8575 154.273L33.7945 154.979ZM35.234 134.9H35.66V130.9H35.234V134.9ZM33.6783 133.17C34.5269 139.393 35.8112 149.098 36.8125 154.963L40.7555 154.289C39.7688 148.51 38.4971 138.903 37.6417 132.63L33.6783 133.17ZM36.8079 154.934L39.9319 174.956L43.8841 174.34L40.7601 154.318L36.8079 154.934ZM41.908 172.648H28.276V176.648H41.908V172.648ZM107.444 211V213H109.039L109.394 211.445L107.444 211ZM129.312 115.292L131.262 115.737L131.821 113.292H129.312V115.292ZM108.864 115.292V113.292H107.158L106.889 114.977L108.864 115.292ZM102.332 156.188L100.357 155.873L100.357 155.876L102.332 156.188ZM97.7883 189.842V191.842H99.5759L99.7758 190.066L97.7883 189.842ZM97.5043 189.842L95.5172 190.068L95.7192 191.842H97.5043V189.842ZM92.6763 156.614L94.654 156.316L94.6519 156.302L94.6497 156.288L92.6763 156.614ZM85.8603 115.292L87.8337 114.966L87.5575 113.292H85.8603V115.292ZM65.2703 115.292V113.292H62.7763L63.3181 115.726L65.2703 115.292ZM86.5703 211L84.6181 211.434L84.9665 213H86.5703V211ZM109.394 211.445L131.262 115.737L127.363 114.847L105.495 210.555L109.394 211.445ZM129.312 113.292H108.864V117.292H129.312V113.292ZM106.889 114.977L100.357 155.873L104.307 156.503L110.839 115.607L106.889 114.977ZM100.357 155.876C98.6482 166.697 97.0822 178.229 95.8009 189.618L99.7758 190.066C101.05 178.735 102.608 167.263 104.308 156.5L100.357 155.876ZM97.7883 187.842H97.5043V191.842H97.7883V187.842ZM99.4915 189.616C98.208 178.35 96.2079 166.628 94.654 156.316L90.6987 156.912C92.2688 167.332 94.2446 178.898 95.5172 190.068L99.4915 189.616ZM94.6497 156.288L87.8337 114.966L83.887 115.617L90.703 156.939L94.6497 156.288ZM85.8603 113.292H65.2703V117.292H85.8603V113.292ZM63.3181 115.726L84.6181 211.434L88.5226 210.566L67.2226 114.858L63.3181 115.726ZM86.5703 213H107.444V209H86.5703V213ZM167.585 189.132L169.55 188.762L169.243 187.132H167.585V189.132ZM171.703 211L169.737 211.37L170.044 213H171.703V211ZM189.737 211V213H192.163L191.7 210.618L189.737 211ZM171.135 115.292L173.098 114.91L172.783 113.292H171.135V115.292ZM148.841 115.292V113.292H147.228L146.886 114.869L148.841 115.292ZM128.109 211L126.154 210.577L125.629 213H128.109V211ZM146.143 211V213H147.791L148.106 211.382L146.143 211ZM150.403 189.132V187.132H148.755L148.44 188.75L150.403 189.132ZM152.249 174.648L150.279 174.299L149.863 176.648H152.249V174.648ZM155.799 154.626L153.83 154.273L153.829 154.277L155.799 154.626ZM159.207 132.9V130.9H157.494L157.23 132.593L159.207 132.9ZM159.633 132.9L161.614 132.63L161.378 130.9H159.633V132.9ZM162.757 154.626L164.733 154.318L164.731 154.304L164.728 154.289L162.757 154.626ZM165.881 174.648V176.648H168.217L167.857 174.34L165.881 174.648ZM165.619 189.502L169.737 211.37L173.668 210.63L169.55 188.762L165.619 189.502ZM171.703 213H189.737V209H171.703V213ZM191.7 210.618L173.098 114.91L169.171 115.674L187.773 211.382L191.7 210.618ZM171.135 113.292H148.841V117.292H171.135V113.292ZM146.886 114.869L126.154 210.577L130.063 211.423L150.795 115.715L146.886 114.869ZM128.109 213H146.143V209H128.109V213ZM148.106 211.382L152.366 189.514L148.44 188.75L144.18 210.618L148.106 211.382ZM150.403 191.132H167.585V187.132H150.403V191.132ZM154.218 174.997L157.768 154.975L153.829 154.277L150.279 174.299L154.218 174.997ZM157.767 154.979C158.767 149.411 160.196 139.554 161.183 133.207L157.23 132.593C156.23 139.026 154.819 148.765 153.83 154.273L157.767 154.979ZM159.207 134.9H159.633V130.9H159.207V134.9ZM157.651 133.17C158.5 139.393 159.784 149.098 160.785 154.963L164.728 154.289C163.741 148.51 162.47 138.903 161.614 132.63L157.651 133.17ZM160.781 154.934L163.905 174.956L167.857 174.34L164.733 154.318L160.781 154.934ZM165.881 172.648H152.249V176.648H165.881V172.648ZM216.576 211V213H218.576V211H216.576ZM215.298 145.822V143.822H213.177L213.301 145.939L215.298 145.822ZM215.582 145.822L217.514 145.307L217.118 143.822H215.582V145.822ZM225.38 174.648L227.235 173.901L227.234 173.9L225.38 174.648ZM240.006 211L238.15 211.747L238.655 213H240.006V211ZM257.046 211V213H259.046V211H257.046ZM257.046 115.292H259.046V113.292H257.046V115.292ZM240.716 115.292V113.292H238.716V115.292H240.716ZM242.562 180.754V182.754H244.678L244.559 180.642L242.562 180.754ZM242.278 180.754L240.377 181.377L240.828 182.754H242.278V180.754ZM232.054 152.78L230.193 153.513L230.196 153.521L230.199 153.529L232.054 152.78ZM217.286 115.292L219.147 114.559L218.647 113.292H217.286V115.292ZM200.246 115.292V113.292H198.246V115.292H200.246ZM200.246 211H198.246V213H200.246V211ZM218.576 211V189.558H214.576V211H218.576ZM218.576 189.558C218.576 170.196 217.864 155.386 217.294 145.705L213.301 145.939C213.868 155.57 214.576 170.296 214.576 189.558H218.576ZM215.298 147.822H215.582V143.822H215.298V147.822ZM213.649 146.337C215.948 154.956 220.237 167.247 223.525 175.396L227.234 173.9C223.991 165.861 219.76 153.728 217.514 145.307L213.649 146.337ZM223.524 175.395L238.15 211.747L241.861 210.253L227.235 173.901L223.524 175.395ZM240.006 213H257.046V209H240.006V213ZM259.046 211V115.292H255.046V211H259.046ZM257.046 113.292H240.716V117.292H257.046V113.292ZM238.716 115.292V136.45H242.716V115.292H238.716ZM238.716 136.45C238.716 154.132 240 170.834 240.565 180.866L244.559 180.642C243.988 170.51 242.716 153.984 242.716 136.45H238.716ZM242.562 178.754H242.278V182.754H242.562V178.754ZM244.178 180.131C241.466 171.851 236.906 159.455 233.908 152.031L230.199 153.529C233.165 160.873 237.694 173.185 240.377 181.377L244.178 180.131ZM233.915 152.047L219.147 114.559L215.425 116.025L230.193 153.513L233.915 152.047ZM217.286 113.292H200.246V117.292H217.286V113.292ZM198.246 115.292V211H202.246V115.292H198.246ZM200.246 213H216.576V209H200.246V213ZM317.343 193.96L319.329 193.725L319.046 191.332L316.746 192.051L317.343 193.96ZM317.201 132.616L316.399 134.448L318.695 135.453L319.165 132.991L317.201 132.616ZM320.183 116.996L322.147 117.371L322.391 116.092L321.321 115.352L320.183 116.996ZM297.179 211.142L298.994 211.982L300.047 209.705L297.593 209.185L297.179 211.142ZM291.925 222.502L290.109 221.662L288.919 224.237L291.743 224.494L291.925 222.502ZM289.653 229.318L290.547 227.529L288.495 226.503L287.759 228.675L289.653 229.318ZM286.955 237.27L285.061 236.627L284.534 238.18L285.952 239.001L286.955 237.27ZM303.711 217.106L301.951 216.155L300.664 218.536L303.318 219.067L303.711 217.106ZM306.551 211.852V209.852H305.358L304.791 210.901L306.551 211.852ZM319.189 209.58L320.083 211.369L321.34 210.741L321.175 209.345L319.189 209.58ZM316.746 192.051C314.62 192.715 311.274 193.38 308.397 193.38V197.38C311.767 197.38 315.521 196.625 317.939 195.869L316.746 192.051ZM308.397 193.38C303.391 193.38 299.054 191.423 295.888 186.902C292.651 182.28 290.517 174.798 290.517 163.572H286.517C286.517 175.208 288.713 183.63 292.612 189.197C296.581 194.864 302.184 197.38 308.397 197.38V193.38ZM290.517 163.572C290.517 151.944 292.855 144.206 296.222 139.431C299.535 134.731 303.929 132.77 308.539 132.77V128.77C302.64 128.77 297.023 131.353 292.952 137.126C288.935 142.823 286.517 151.486 286.517 163.572H290.517ZM308.539 132.77C312.156 132.77 314.292 133.526 316.399 134.448L318.002 130.784C315.565 129.718 312.873 128.77 308.539 128.77V132.77ZM319.165 132.991L322.147 117.371L318.218 116.621L315.236 132.241L319.165 132.991ZM321.321 115.352C320.091 114.5 318.204 113.789 315.908 113.285C313.567 112.771 310.652 112.44 307.261 112.44V116.44C310.401 116.44 313.024 116.748 315.05 117.192C317.12 117.647 318.428 118.214 319.044 118.64L321.321 115.352ZM307.261 112.44C297.52 112.44 287.345 116.154 279.619 124.63C271.892 133.107 266.779 146.163 266.779 164.566H270.779C270.779 146.901 275.676 134.894 282.575 127.325C289.475 119.755 298.541 116.44 307.261 116.44V112.44ZM266.779 164.566C266.779 177.271 269.048 188.273 273.956 196.689C278.902 205.171 286.473 210.92 296.764 213.099L297.593 209.185C288.43 207.246 281.801 202.203 277.411 194.674C272.982 187.08 270.779 176.853 270.779 164.566H266.779ZM295.363 210.302L290.109 221.662L293.74 223.342L298.994 211.982L295.363 210.302ZM291.743 224.494C294.731 224.765 296.835 225.364 298.126 226.079C299.402 226.787 299.581 227.405 299.581 227.756H303.581C303.581 225.409 302.055 223.684 300.065 222.581C298.091 221.486 295.366 220.807 292.106 220.51L291.743 224.494ZM299.581 227.756C299.581 228.143 299.501 228.367 299.431 228.497C299.361 228.627 299.254 228.748 299.075 228.863C298.675 229.121 297.976 229.306 297.037 229.306V233.306C298.369 233.306 299.942 233.065 301.246 232.223C302.675 231.3 303.581 229.776 303.581 227.756H299.581ZM297.037 229.306C295.039 229.306 292.655 228.583 290.547 227.529L288.758 231.107C291.194 232.325 294.206 233.306 297.037 233.306V229.306ZM287.759 228.675L285.061 236.627L288.848 237.913L291.546 229.961L287.759 228.675ZM285.952 239.001C289.015 240.774 293.495 241.826 297.605 241.826V237.826C294.046 237.826 290.29 236.89 287.957 235.539L285.952 239.001ZM297.605 241.826C301.807 241.826 306.152 240.971 309.511 238.718C312.978 236.393 315.225 232.68 315.225 227.472H311.225C311.225 231.352 309.637 233.816 307.282 235.396C304.819 237.048 301.355 237.826 297.605 237.826V241.826ZM315.225 227.472C315.225 220.677 309.673 216.259 304.103 215.145L303.318 219.067C307.688 219.941 311.225 223.191 311.225 227.472H315.225ZM305.47 218.057L308.31 212.803L304.791 210.901L301.951 216.155L305.47 218.057ZM306.551 213.852C311.68 213.852 317.14 212.84 320.083 211.369L318.294 207.791C316.125 208.876 311.361 209.852 306.551 209.852V213.852ZM321.175 209.345L319.329 193.725L315.356 194.195L317.202 209.815L321.175 209.345ZM365.192 189.132L367.158 188.762L366.851 187.132H365.192V189.132ZM369.31 211L367.345 211.37L367.652 213H369.31V211ZM387.344 211V213H389.77L389.307 210.618L387.344 211ZM368.742 115.292L370.705 114.91L370.391 113.292H368.742V115.292ZM346.448 115.292V113.292H344.835L344.493 114.869L346.448 115.292ZM325.716 211L323.761 210.577L323.236 213H325.716V211ZM343.75 211V213H345.398L345.713 211.382L343.75 211ZM348.01 189.132V187.132H346.362L346.047 188.75L348.01 189.132ZM349.856 174.648L347.887 174.299L347.47 176.648H349.856V174.648ZM353.406 154.626L351.438 154.273L351.437 154.277L353.406 154.626ZM356.814 132.9V130.9H355.101L354.838 132.593L356.814 132.9ZM357.24 132.9L359.222 132.63L358.986 130.9H357.24V132.9ZM360.364 154.626L362.34 154.318L362.338 154.304L362.336 154.289L360.364 154.626ZM363.488 174.648V176.648H365.824L365.464 174.34L363.488 174.648ZM363.227 189.502L367.345 211.37L371.276 210.63L367.158 188.762L363.227 189.502ZM369.31 213H387.344V209H369.31V213ZM389.307 210.618L370.705 114.91L366.779 115.674L385.381 211.382L389.307 210.618ZM368.742 113.292H346.448V117.292H368.742V113.292ZM344.493 114.869L323.761 210.577L327.671 211.423L348.403 115.715L344.493 114.869ZM325.716 213H343.75V209H325.716V213ZM345.713 211.382L349.973 189.514L346.047 188.75L341.787 210.618L345.713 211.382ZM348.01 191.132H365.192V187.132H348.01V191.132ZM351.825 174.997L355.375 154.975L351.437 154.277L347.887 174.299L351.825 174.997ZM355.375 154.979C356.374 149.411 357.803 139.554 358.79 133.207L354.838 132.593C353.837 139.026 352.426 148.765 351.438 154.273L355.375 154.979ZM356.814 134.9H357.24V130.9H356.814V134.9ZM355.258 133.17C356.107 139.393 357.391 149.098 358.393 154.963L362.336 154.289C361.349 148.51 360.077 138.903 359.222 132.63L355.258 133.17ZM358.388 154.934L361.512 174.956L365.464 174.34L362.34 154.318L358.388 154.934ZM363.488 172.648H349.856V176.648H363.488V172.648ZM397.853 211H395.853V213H397.853V211ZM416.455 211V213H418.455V211H416.455ZM416.455 172.802V170.802H414.455V172.802H416.455ZM430.087 187.996L432.07 187.732L432.068 187.721L432.067 187.71L430.087 187.996ZM434.915 211L433.108 211.856L433.65 213H434.915V211ZM454.369 211V213H457.548L456.172 210.135L454.369 211ZM448.263 185.014L450.234 184.672L450.232 184.663L448.263 185.014ZM436.619 165.986H434.619V167.324L435.856 167.835L436.619 165.986ZM436.619 165.702L435.79 163.882L434.619 164.416V165.702H436.619ZM443.719 121.966L442.376 123.447L442.379 123.451L443.719 121.966ZM397.853 116.712L397.47 114.749L395.853 115.065V116.712H397.853ZM416.455 129.918L415.667 128.08L414.455 128.599V129.918H416.455ZM420.999 129.35L421.068 127.351L421.034 127.35H420.999V129.35ZM416.455 158.46H414.455V160.46H416.455V158.46ZM397.853 213H416.455V209H397.853V213ZM418.455 211V172.802H414.455V211H418.455ZM416.455 174.802H419.295V170.802H416.455V174.802ZM419.295 174.802C421.899 174.802 423.488 175.486 424.735 177.169C426.14 179.067 427.262 182.432 428.108 188.282L432.067 187.71C431.208 181.774 429.988 177.542 427.949 174.789C425.752 171.822 422.797 170.802 419.295 170.802V174.802ZM428.105 188.26C428.821 193.633 429.717 198.76 430.598 202.897C431.461 206.948 432.353 210.264 433.108 211.856L436.723 210.144C436.199 209.038 435.387 206.177 434.511 202.063C433.652 198.035 432.773 193.009 432.07 187.732L428.105 188.26ZM434.915 213H454.369V209H434.915V213ZM456.172 210.135C455.434 208.596 454.411 204.987 453.319 200.222C452.246 195.544 451.152 189.971 450.234 184.672L446.293 185.356C447.22 190.707 448.327 196.352 449.42 201.117C450.493 205.795 451.601 209.854 452.566 211.865L456.172 210.135ZM450.232 184.663C448.35 174.095 444.887 167.237 437.383 164.137L435.856 167.835C441.415 170.131 444.484 175.201 446.294 185.365L450.232 184.663ZM438.619 165.986V165.702H434.619V165.986H438.619ZM437.449 167.522C447.904 162.756 453.387 152.755 453.387 141.846H449.387C449.387 151.385 444.647 159.844 435.79 163.882L437.449 167.522ZM453.387 141.846C453.387 133.267 451.442 126.242 445.059 120.481L442.379 123.451C447.64 128.198 449.387 133.953 449.387 141.846H453.387ZM445.063 120.485C438.369 114.413 428.468 112.866 418.159 112.866V116.866C428.298 116.866 436.858 118.443 442.376 123.447L445.063 120.485ZM418.159 112.866C410.942 112.866 403.429 113.586 397.47 114.749L398.236 118.675C403.921 117.566 411.176 116.866 418.159 116.866V112.866ZM395.853 116.712V211H399.853V116.712H395.853ZM417.243 131.756C417.464 131.661 417.938 131.545 418.682 131.462C419.386 131.384 420.196 131.35 420.999 131.35V127.35C420.099 127.35 419.134 127.387 418.24 127.486C417.386 127.581 416.44 127.749 415.667 128.08L417.243 131.756ZM420.93 131.349C424.553 131.474 426.812 132.748 428.233 134.661C429.72 136.663 430.501 139.65 430.501 143.55H434.501C434.501 139.214 433.649 135.243 431.444 132.275C429.173 129.218 425.682 127.51 421.068 127.351L420.93 131.349ZM430.501 143.55C430.501 147.399 429.456 150.651 427.657 152.896C425.896 155.093 423.315 156.46 419.863 156.46V160.46C424.505 160.46 428.243 158.561 430.778 155.397C433.275 152.282 434.501 148.079 434.501 143.55H430.501ZM419.863 156.46H416.455V160.46H419.863V156.46ZM418.455 158.46V129.918H414.455V158.46H418.455Z" fill="#02B8FA"/>
</g>
<rect x="3" y="245" width="456.685" height="86" fill="white"/>
<path d="M44.988 302.122C43.616 302.808 42.048 303.102 40.186 303.102C34.208 303.102 30.582 297.81 30.582 289.186C30.582 280.856 34.208 274.976 40.382 274.976C42.538 274.976 44.106 275.466 45.184 275.858L46.85 265.764C45.576 265.176 42.832 264.49 39.794 264.49C26.564 264.49 17.842 274.78 17.842 289.578C17.842 305.16 25.78 313.588 37.932 313.588C41.558 313.588 44.792 312.804 46.066 312.216L44.988 302.122ZM68.0417 264.196C58.5357 264.196 49.5197 271.938 49.5197 289.186C49.5197 304.768 56.3797 313.784 67.8457 313.784C75.0977 313.784 86.1717 308.884 86.1717 288.892C86.1717 273.702 79.4097 264.196 68.0417 264.196ZM67.9437 273.996C72.3537 273.996 73.4317 282.326 73.4317 288.892C73.4317 295.948 72.3537 303.984 68.1397 303.984C63.5337 303.984 62.2597 297.124 62.2597 288.892C62.2597 282.326 63.2397 273.996 67.9437 273.996ZM93.2928 313H106.131V282.816C106.131 281.444 106.327 280.072 106.621 279.19C107.503 276.25 109.463 274.878 111.423 274.878C115.441 274.878 115.735 279.386 115.735 282.914V313H128.573V282.62C128.573 281.248 128.671 279.974 128.965 279.19C129.749 276.446 131.513 274.878 133.767 274.878C137.589 274.878 138.177 279.288 138.177 284.678V313H151.015V282.522C151.015 271.056 147.193 264.196 138.569 264.196C136.119 264.196 133.865 264.784 131.905 265.96C130.043 267.136 128.181 268.9 127.005 270.762H126.809C125.143 266.646 121.713 264.196 116.323 264.196C111.423 264.196 107.405 267.038 104.955 270.566H104.759L104.073 265.078H92.9008C93.0968 269.684 93.2928 274.29 93.2928 279.484V313ZM217.271 313H204.671L201.647 303.865H193.52L189.551 295.486L183.692 313H171.092L187.913 262.6H200.513L217.271 313ZM197.678 292.021L194.213 281.5L190.685 292.021H197.678ZM262.701 313H249.156L232.587 287.737V313H220.68V262.6H247.77C249.786 262.6 251.655 263.062 253.377 263.986C255.141 264.868 256.653 266.065 257.913 267.577C259.173 269.089 260.16 270.853 260.874 272.869C261.63 274.843 262.008 276.922 262.008 279.106C262.008 281.164 261.819 282.991 261.441 284.587C261.063 286.183 260.475 287.611 259.677 288.871C258.879 290.131 257.871 291.244 256.653 292.21C255.435 293.134 254.007 293.974 252.369 294.73C252.285 294.772 252.201 294.835 252.117 294.919C252.033 295.003 251.907 295.087 251.739 295.171L262.701 313ZM250.668 279.547C250.668 278.161 250.206 276.943 249.282 275.893C248.358 274.843 247.224 274.318 245.88 274.318H232.524V284.713H246.384C246.93 284.713 247.455 284.545 247.959 284.209C248.505 283.873 248.967 283.453 249.345 282.949C249.765 282.445 250.08 281.899 250.29 281.311C250.542 280.681 250.668 280.093 250.668 279.547ZM309.148 262.6L303.352 274.444H287.287C286.699 274.444 286.048 274.633 285.334 275.011C284.662 275.347 284.011 275.809 283.381 276.397C282.751 276.943 282.184 277.552 281.68 278.224C281.218 278.896 280.903 279.526 280.735 280.114C279.979 282.76 279.601 284.398 279.601 285.028C279.601 295.78 282.667 301.156 288.799 301.156H309.085V313H287.602C287.224 313 286.573 312.916 285.649 312.748C284.767 312.58 283.612 312.328 282.184 311.992C280.42 311.614 278.719 310.858 277.081 309.724C275.485 308.59 274.036 307.246 272.734 305.692C271.474 304.096 270.403 302.353 269.521 300.463C268.639 298.531 268.072 296.578 267.82 294.604C267.442 291.706 267.253 289.522 267.253 288.052C267.253 284.272 267.778 280.828 268.828 277.72C269.92 274.57 271.432 271.882 273.364 269.656C275.338 267.43 277.69 265.708 280.42 264.49C283.15 263.23 286.195 262.6 289.555 262.6H309.148ZM356.286 313H342.867L323.715 282.823V313H311.304V262.6H325.227L343.875 292.84V262.6H356.286V313ZM398.681 262.6L393.074 274.381H373.859V281.752H393.137V293.533H373.859V301.219H396.098V313H361.322V262.6H398.681ZM444.202 262.6L438.406 274.255H427.381V313H415.348V274.255H401.866V262.6H444.202Z" fill="#208991"/>
<defs>
<filter id="filter0_d_186_9451" x="0.13623" y="114.44" width="458.233" height="133.386" filterUnits="userSpaceOnUse" color-interpolation-filters="sRGB">
<feFlood flood-opacity="0" result="BackgroundImageFix"/>
<feColorMatrix in="SourceAlpha" type="matrix" values="0 0 0 0 0 0 0 0 0 0 0 0 0 0 0 0 0 0 127 0" result="hardAlpha"/>
<feOffset dy="4"/>
<feGaussianBlur stdDeviation="2"/>
<feComposite in2="hardAlpha" operator="out"/>
<feColorMatrix type="matrix" values="0 0 0 0 0 0 0 0 0 0 0 0 0 0 0 0 0 0 0.25 0"/>
<feBlend mode="normal" in2="BackgroundImageFix" result="effect1_dropShadow_186_9451"/>
<feBlend mode="normal" in="SourceGraphic" in2="effect1_dropShadow_186_9451" result="shape"/>
</filter>
</defs>
</svg>
