<svg xmlns="http://www.w3.org/2000/svg" width="1920" height="1790" viewBox="0 0 1920 1790" fill="none">




<path d="M1651.51 694.812V689.936H1653.14V694.812H1651.51ZM1651.51 685.06V680.183H1653.14V685.06H1651.51ZM1651.51 675.307V670.431H1653.14V675.307H1651.51ZM1651.51 665.555V660.679H1653.14V665.555H1651.51ZM1651.51 655.803V650.927H1653.14V655.803H1651.51ZM1651.51 646.05V641.174H1653.14V646.05H1651.51ZM1651.51 636.298V631.422H1653.14V636.298H1651.51ZM1651.51 626.546V621.67H1653.14V626.546H1651.51ZM1651.51 616.794V611.917H1653.14V616.794H1651.51ZM1651.51 607.041V602.165H1653.14V607.041H1651.51ZM1651.51 597.289V592.413H1653.14V597.289H1651.51ZM1651.51 587.537V582.661H1653.14V587.537H1651.51ZM1651.51 577.785V572.908H1653.14V577.785H1651.51ZM1651.51 568.032V563.156H1653.14V568.032H1651.51ZM1651.51 558.28V553.404H1653.14V558.28H1651.51ZM1651.51 548.528V543.652H1653.14V548.528H1651.51ZM1651.51 538.775V533.899H1653.14V538.775H1651.51ZM1651.51 529.023V524.147H1653.14V529.023H1651.51ZM1651.51 519.271V514.395H1653.14V519.271H1651.51ZM1651.51 509.519V504.642H1653.14V509.519H1651.51ZM1651.51 499.766V494.89H1653.14V499.766H1651.51ZM1651.51 490.014V485.138H1653.14V490.014H1651.51ZM1651.51 480.262V475.386H1653.14V480.262H1651.51ZM1651.51 470.509V465.633H1653.14V470.509H1651.51ZM1651.51 460.757V455.881H1653.14V460.757H1651.51ZM1651.51 451.005V446.129H1653.14V451.005H1651.51ZM1651.51 441.253V436.377H1653.14V441.253H1651.51ZM1651.51 431.5V426.624H1653.14V431.5H1651.51Z" fill="#092D66"/>
<path d="M1615.75 644.263V639.386H1617.38V644.263H1615.75ZM1615.75 634.51V629.634H1617.38V634.51H1615.75ZM1615.75 624.758V619.882H1617.38V624.758H1615.75ZM1615.75 615.006V610.13H1617.38V615.006H1615.75ZM1615.75 605.254V600.377H1617.38V605.254H1615.75ZM1615.75 595.501V590.625H1617.38V595.501H1615.75ZM1615.75 585.749V580.873H1617.38V585.749H1615.75ZM1615.75 575.997V571.121H1617.38V575.997H1615.75ZM1615.75 566.244V561.368H1617.38V566.244H1615.75ZM1615.75 556.492V551.616H1617.38V556.492H1615.75ZM1615.75 546.74V541.864H1617.38V546.74H1615.75ZM1615.75 536.988V532.111H1617.38V536.988H1615.75ZM1615.75 527.235V522.359H1617.38V527.235H1615.75ZM1615.75 517.483V512.607H1617.38V517.483H1615.75ZM1615.75 507.731V502.855H1617.38V507.731H1615.75ZM1615.75 497.979V493.102H1617.38V497.979H1615.75ZM1615.75 488.226V483.35H1617.38V488.226H1615.75ZM1615.75 478.474V473.598H1617.38V478.474H1615.75ZM1615.75 468.722V463.846H1617.38V468.722H1615.75ZM1615.75 458.969V454.093H1617.38V458.969H1615.75ZM1615.75 449.217V444.341H1617.38V449.217H1615.75ZM1615.75 439.627V434.751H1617.38V439.627H1615.75ZM1615.75 429.875V424.999H1617.38V429.875H1615.75ZM1615.75 420.123V415.247H1617.38V420.123H1615.75ZM1615.75 410.371V405.494H1617.38V410.371H1615.75ZM1615.75 400.618V395.742H1617.38V400.618H1615.75ZM1615.75 390.866V385.99H1617.38V390.866H1615.75ZM1615.75 381.114V376.238H1617.38V381.114H1615.75ZM1615.75 371.361V366.485H1617.38V371.361H1615.75Z" fill="#7195BA"/>
<path d="M1568.62 550.153V546.577H1570.24V550.153H1568.62ZM1568.62 541.701V536.825H1570.24V541.701H1568.62ZM1568.62 531.949V527.073H1570.24V531.949H1568.62ZM1568.62 522.197V517.32H1570.24V522.197H1568.62ZM1568.62 512.444V507.568H1570.24V512.444H1568.62ZM1568.62 502.692V497.816H1570.24V502.692H1568.62ZM1568.62 492.94V488.064H1570.24V492.94H1568.62ZM1568.62 483.188V478.311H1570.24V483.188H1568.62ZM1568.62 473.435V468.559H1570.24V473.435H1568.62ZM1568.62 463.683V458.807H1570.24V463.683H1568.62ZM1568.62 453.931V449.055H1570.24V453.931H1568.62ZM1568.62 444.178V439.302H1570.24V444.178H1568.62ZM1568.62 434.426V429.55H1570.24V434.426H1568.62ZM1568.62 424.674V419.798H1570.24V424.674H1568.62ZM1568.62 414.922V410.045H1570.24V414.922H1568.62ZM1568.62 405.169V400.293H1570.24V405.169H1568.62ZM1568.62 395.417V390.541H1570.24V395.417H1568.62ZM1568.62 385.665V380.789H1570.24V385.665H1568.62ZM1568.62 375.913V371.036H1570.24V375.913H1568.62ZM1568.62 366.16V361.284H1570.24V366.16H1568.62ZM1568.62 356.408V351.532H1570.24V356.408H1568.62ZM1568.62 346.656V341.78H1570.24V346.656H1568.62ZM1568.62 336.903V332.027H1570.24V336.903H1568.62ZM1568.62 327.151V322.275H1570.24V327.151H1568.62ZM1568.62 317.399V312.523H1570.24V317.399H1568.62ZM1568.62 307.647V302.77H1570.24V307.647H1568.62ZM1568.62 297.894V293.018H1570.24V297.894H1568.62ZM1568.62 288.142V283.266H1570.24V288.142H1568.62ZM1568.62 278.39V273.514H1570.24V278.39H1568.62ZM1568.62 268.638V263.761H1570.24V268.638H1568.62ZM1568.62 258.885V254.009H1570.24V258.885H1568.62ZM1568.62 249.133V244.257H1570.24V249.133H1568.62ZM1568.62 239.381V234.505H1570.24V239.381H1568.62ZM1568.62 229.628V224.752H1570.24V229.628H1568.62ZM1568.62 219.876V215H1570.24V219.876H1568.62Z" fill="#18CFAE"/>
<path opacity="0.3" d="M1366.75 634.673C1530.66 634.673 1663.54 557.754 1663.54 462.87C1663.54 367.986 1530.66 291.068 1366.75 291.068C1202.83 291.068 1069.95 367.986 1069.95 462.87C1069.95 557.754 1202.83 634.673 1366.75 634.673Z" fill="url(#paint0_radial_186_9451)"/>
<path d="M1083.61 621.345C1083.44 620.857 1083.77 620.532 1084.26 620.37L1583.73 494.565V249.946C1583.73 249.458 1584.06 249.133 1584.55 249.133C1585.03 249.133 1585.36 249.458 1585.36 249.946V495.053C1585.36 495.378 1585.03 495.703 1584.71 495.866L1084.58 621.832H1084.42C1084.09 621.832 1083.77 621.67 1083.61 621.345Z" fill="#7195BA"/>
<path d="M1085.88 571.933L1585.2 448.405L1585.52 449.38L1086.21 572.909L1085.88 571.933Z" fill="#7195BA"/>
<path d="M1086.69 461.407L1582.76 353.482L1582.92 354.62L1087.02 462.545L1086.69 461.407Z" fill="#7195BA"/>
<path d="M1085.39 401.594L1584.38 305.209L1584.55 306.347L1085.56 402.731L1085.39 401.594Z" fill="#7195BA"/>
<path d="M1085.39 347.794L1585.2 254.497L1585.36 255.635L1085.56 348.932L1085.39 347.794Z" fill="#7195BA"/>
<path d="M1145.04 605.091V327.964H1146.18V605.091H1145.04Z" fill="#7195BA"/>
<path d="M1210.06 593.714V316.586H1211.2V593.714H1210.06Z" fill="#7195BA"/>
<path d="M1275.07 580.711V303.583H1276.21V580.711H1275.07Z" fill="#7195BA"/>
<path d="M1340.09 567.707V290.58H1341.23V567.707H1340.09Z" fill="#7195BA"/>
<path d="M1405.1 554.704V277.577H1406.24V554.704H1405.1Z" fill="#7195BA"/>
<path d="M1470.12 541.701V264.574H1471.26V541.701H1470.12Z" fill="#7195BA"/>
<path d="M1535.13 533.575V256.448H1536.27V533.575H1535.13Z" fill="#7195BA"/>
<path d="M1084.74 619.394V340.967C1084.74 340.479 1085.07 340.154 1085.56 340.154C1086.04 340.154 1086.37 340.479 1086.37 340.967V619.394C1086.37 619.882 1086.04 620.207 1085.56 620.207C1085.07 620.37 1084.74 619.882 1084.74 619.394Z" fill="#7195BA"/>
<g opacity="0.75">
<path opacity="0.33" d="M1622.26 478.149L1047.36 634.348L1046.87 619.232L1622.26 466.284V478.149Z" fill="#7195BA"/>
<g opacity="0.75">
<path opacity="0.6" d="M1152.68 703.426L1757 524.96L1622.26 466.284L1046.87 619.232L1152.68 703.426Z" fill="#D4DDE8"/>
<path opacity="0.36" d="M1153.01 719.68L1152.68 703.427L1046.87 619.232L1047.36 634.348L1153.01 719.68Z" fill="#092D66"/>
</g>
</g>
<path opacity="0.36" d="M1756.84 537.638L1153.01 719.681L1152.68 703.427L1757 524.96L1756.84 537.638Z" fill="#7195BA"/>
<path opacity="0.8" d="M1094.5 638.411L1570.73 495.378V328.777C1570.73 328.777 1556.92 325.526 1548.79 339.342C1540.66 353.157 1542.29 371.037 1528.47 378.351C1514.66 385.665 1505.72 399.481 1502.47 415.734C1499.21 431.988 1494.34 452.306 1485.4 451.493C1476.46 450.68 1469.14 432.801 1467.52 427.112C1465.89 421.423 1460.21 407.608 1456.14 416.547C1452.08 425.487 1452.08 428.738 1442.33 436.052C1432.57 443.366 1430.14 458.807 1429.32 468.559C1428.51 478.312 1424.45 488.877 1413.07 476.686C1401.69 464.496 1388.69 461.245 1379.75 486.438C1370.81 511.632 1367.88 517.483 1352.12 514.883C1342.37 513.257 1329.36 517.321 1314.73 536.013C1307.26 545.602 1286.29 535.2 1274.91 553.079C1263.53 570.958 1255.73 559.906 1244.84 569.333C1220.46 590.463 1211.52 575.022 1185.52 594.526C1165.04 609.805 1151.38 610.78 1139.19 611.593C1127 612.405 1094.5 638.411 1094.5 638.411Z" fill="url(#paint1_linear_186_9451)"/>
<path opacity="0.9" d="M1122.13 659.541L1617.05 509.194V353.157C1617.05 353.157 1608.6 358.033 1604.05 371.849C1600.96 381.439 1597.22 405.169 1594.3 412.484C1586.98 430.363 1582.11 423.861 1579.67 414.922C1577.23 405.982 1566.67 390.541 1560.98 407.607C1555.29 424.674 1553.66 456.369 1534.97 454.743C1516.28 453.118 1518.72 449.055 1507.34 462.058C1495.96 475.061 1481.34 464.496 1474.83 481.562C1468.33 498.629 1462.64 492.94 1451.27 490.502C1439.89 488.064 1439.08 487.251 1418.76 502.692C1398.44 518.133 1379.75 504.317 1365.93 526.26C1352.12 548.203 1342.37 541.701 1325.3 549.015C1308.23 556.33 1297.67 570.958 1285.48 569.333C1273.29 567.707 1261.91 570.145 1249.72 587.212C1244.52 594.526 1226.64 615.006 1187.95 626.221C1122.94 644.913 1122.13 659.541 1122.13 659.541Z" fill="url(#paint2_linear_186_9451)"/>
<path opacity="0.7" d="M1653.63 423.861V530.324L1142.44 682.297C1142.44 682.297 1168.45 652.227 1202.58 645.726C1202.58 645.726 1247.28 644.1 1273.29 629.472C1286.13 622.32 1317.17 598.59 1335.86 595.339C1354.56 592.088 1360.24 577.46 1381.37 567.707C1402.5 557.955 1399.25 543.327 1409.82 537.638C1420.38 531.949 1427.7 566.895 1442.33 549.828C1442.33 549.828 1450.45 531.136 1459.39 530.324C1468.33 529.511 1469.14 540.889 1480.52 531.949C1491.9 523.009 1492.39 499.929 1505.39 495.866C1518.39 491.802 1516.28 518.133 1527.66 516.508C1539.04 514.883 1534.65 493.102 1552.04 497.816C1569.92 502.692 1575.61 485.626 1584.55 477.499C1593.49 469.372 1600.31 464.496 1608.93 469.372C1617.54 474.248 1625.18 444.829 1634.93 432.801C1641.76 424.349 1653.63 423.861 1653.63 423.861Z" fill="url(#paint3_linear_186_9451)"/>
<g opacity="0.7">
<path opacity="0.7" d="M1141.96 682.946C1141.63 682.621 1141.63 682.134 1141.79 681.809C1141.79 681.809 1167.96 651.577 1202.42 644.913H1202.58C1202.58 644.913 1213.64 644.587 1228.1 642.312C1242.4 640.036 1260.12 635.973 1272.96 628.821C1285.64 621.67 1316.68 597.939 1335.86 594.526C1354.07 591.438 1359.76 576.972 1381.21 566.894C1391.61 562.018 1395.84 556.167 1399.09 550.641C1402.18 545.114 1404.13 539.913 1409.66 536.825C1410.63 536.337 1411.44 536.012 1412.42 536.012C1416.81 536.175 1420.06 540.726 1423.63 545.114C1427.21 549.503 1430.79 553.729 1434.69 553.566C1436.8 553.566 1439.08 552.429 1442 549.178C1442.33 548.365 1444.28 544.139 1447.2 539.751C1450.45 534.874 1454.68 529.836 1459.72 529.348C1460.04 529.348 1460.37 529.348 1460.69 529.348C1466.87 529.511 1469.31 534.712 1473.37 534.387C1475 534.387 1477.27 533.574 1480.52 531.136C1485.89 526.91 1488.97 518.946 1492.06 511.631C1495.31 504.317 1498.73 497.166 1505.72 495.053C1506.69 494.728 1507.67 494.565 1508.48 494.565C1514.17 494.728 1516.44 500.416 1518.72 505.618C1520.99 510.981 1523.11 515.695 1527.17 515.695C1527.5 515.695 1527.82 515.695 1527.98 515.695C1532.53 515.045 1534.49 510.656 1536.6 505.943C1538.71 501.392 1541.47 496.353 1547.98 496.353C1549.44 496.353 1550.9 496.515 1552.69 497.003C1554.8 497.653 1556.75 497.816 1558.54 497.816C1571.22 497.978 1576.42 484.325 1584.55 476.848C1591.05 470.997 1596.41 466.609 1602.59 466.609C1604.86 466.609 1607.3 467.259 1609.74 468.721C1610.23 469.047 1610.88 469.209 1611.37 469.209C1614.45 469.372 1618.52 463.195 1622.26 455.231C1626.16 447.429 1630.22 438.002 1634.77 432.313C1641.92 423.536 1653.95 423.048 1654.11 423.048C1654.6 423.048 1654.93 423.373 1654.93 423.861C1654.93 424.349 1654.6 424.674 1654.11 424.674C1654.11 424.674 1651.19 424.836 1647.61 425.974C1643.87 427.112 1639.32 429.225 1636.07 433.288C1631.68 438.652 1627.62 447.917 1623.72 455.881C1619.66 463.683 1616.24 470.509 1611.37 470.672C1610.55 470.672 1609.74 470.509 1609.09 470.022C1606.81 468.721 1604.7 468.234 1602.75 468.234C1597.39 468.234 1592.19 472.135 1585.68 478.149C1578.05 484.975 1572.68 499.441 1558.7 499.604C1556.75 499.604 1554.64 499.279 1552.53 498.791C1550.9 498.303 1549.44 498.141 1548.3 498.141C1542.77 498.141 1540.66 502.042 1538.39 506.755C1536.27 511.306 1534.16 516.67 1528.47 517.483C1528.15 517.483 1527.66 517.483 1527.33 517.483C1521.81 517.32 1519.69 511.631 1517.42 506.43C1515.14 501.067 1512.87 496.353 1508.64 496.353C1507.99 496.353 1507.18 496.515 1506.37 496.678C1500.35 498.466 1496.94 504.967 1493.85 512.444C1490.6 519.758 1487.67 527.885 1481.82 532.599C1478.57 535.199 1475.97 536.175 1473.7 536.175C1468.33 536.012 1466.22 530.974 1461.02 531.136C1460.69 531.136 1460.53 531.136 1460.21 531.136C1456.3 531.461 1452.08 536.175 1448.99 540.888C1445.9 545.602 1443.95 550.153 1443.95 550.153L1443.79 550.315C1440.86 553.891 1437.94 555.354 1435.17 555.354C1430.14 555.354 1426.4 550.641 1422.98 546.252C1419.41 541.864 1416 537.638 1413.07 537.8C1412.42 537.8 1411.77 537.963 1411.12 538.288C1406.08 540.888 1404.29 545.764 1401.2 551.453C1397.95 557.142 1393.4 563.481 1382.67 568.357C1361.87 577.947 1356.18 592.575 1337 595.989C1318.64 599.077 1287.59 622.807 1274.75 629.959C1249.07 644.425 1205.83 646.213 1203.72 646.375C1186.82 649.626 1171.86 658.728 1161.3 666.855C1150.57 675.145 1144.23 682.621 1144.07 682.621C1143.91 682.784 1143.74 682.946 1143.42 682.946C1142.28 683.109 1141.96 683.109 1141.96 682.946Z" fill="#D4DDE8"/>
</g>
<g opacity="0.7">
<path opacity="0.7" d="M1122.29 660.354C1121.8 660.354 1121.48 659.866 1121.48 659.541C1121.64 658.891 1122.78 644.262 1187.95 625.408C1226.48 614.355 1244.03 594.038 1249.23 586.724C1259.47 572.258 1269.39 568.032 1279.63 568.032C1281.58 568.032 1283.69 568.195 1285.64 568.52C1286.29 568.52 1286.78 568.682 1287.43 568.682C1298.15 568.845 1308.72 555.354 1324.97 548.365C1333.59 544.627 1340.41 544.464 1346.59 542.514C1352.77 540.563 1358.46 536.825 1365.28 525.935C1372.27 514.72 1380.89 512.607 1389.83 511.306C1398.77 510.006 1408.36 509.681 1418.27 502.042C1432.25 491.477 1437.12 488.388 1442.81 488.388C1445.41 488.388 1447.85 489.039 1451.43 489.689C1456.63 490.827 1460.69 492.614 1463.94 492.614C1467.52 492.614 1470.61 490.501 1474.18 481.237C1477.43 472.46 1483.29 470.509 1489.14 469.372C1495.15 468.234 1501.33 467.746 1506.69 461.407C1513.03 454.093 1515.31 451.98 1519.53 451.98C1522.78 451.98 1526.85 453.118 1534.97 453.93C1535.46 453.93 1535.79 453.93 1536.27 453.93C1544.4 453.93 1548.95 446.779 1552.2 437.189C1555.45 427.599 1557.24 415.734 1560 407.282C1561.95 401.593 1564.39 398.993 1567.48 398.993C1570.57 398.993 1573.17 401.431 1575.44 404.519C1577.72 407.607 1579.51 411.345 1580.32 414.596C1581.62 419.31 1583.73 423.048 1585.52 422.886C1587.15 423.048 1590.07 420.285 1593.32 411.996C1596.25 404.844 1599.83 381.113 1603.08 371.361C1607.63 357.22 1616.4 352.344 1616.4 352.182C1616.73 352.019 1617.22 352.019 1617.54 352.507C1617.7 352.832 1617.7 353.319 1617.22 353.645C1617.22 353.645 1616.73 353.97 1615.92 354.62C1615.1 355.27 1613.97 356.245 1612.67 357.708C1610.06 360.634 1606.81 365.185 1604.7 372.011C1601.61 381.601 1598.04 405.169 1594.95 412.646C1591.54 420.935 1588.77 424.348 1585.52 424.511C1581.95 424.348 1580.16 419.797 1578.7 415.084C1577.88 412.158 1576.26 408.42 1574.14 405.657C1572.03 402.731 1569.59 400.781 1567.48 400.781C1565.53 400.781 1563.42 402.406 1561.63 407.932C1558.87 416.222 1557.08 427.924 1553.83 437.839C1550.58 447.591 1545.54 455.718 1536.27 455.718C1535.79 455.718 1535.3 455.718 1534.81 455.718C1526.52 455.068 1522.29 453.768 1519.53 453.768C1516.12 453.768 1514.33 455.393 1507.83 462.707C1501.98 469.371 1495.15 470.022 1489.3 471.159C1483.45 472.297 1478.73 473.76 1475.48 481.887C1471.91 491.152 1468.33 494.24 1463.78 494.24C1460.04 494.24 1456.14 492.452 1450.94 491.314C1447.36 490.501 1444.93 490.014 1442.65 490.014C1437.77 490.014 1433.06 492.777 1419.08 503.342C1408.68 511.144 1398.77 511.631 1389.83 512.769C1380.89 514.069 1373.25 515.857 1366.42 526.585C1359.43 537.637 1353.42 541.701 1346.92 543.814C1340.41 545.927 1333.91 546.089 1325.46 549.665C1309.53 556.492 1299.29 569.982 1287.26 570.145C1286.61 570.145 1285.96 570.145 1285.31 569.982C1283.36 569.657 1281.41 569.495 1279.46 569.495C1269.71 569.495 1260.45 573.396 1250.37 587.537C1245 595.013 1227.13 615.656 1188.12 626.871C1131.23 643.124 1123.75 656.453 1122.94 659.053C1122.78 659.378 1122.78 659.541 1122.78 659.541C1123.1 660.028 1122.78 660.354 1122.29 660.354Z" fill="#D4DDE8"/>
</g>
<g opacity="0.7">
<path opacity="0.7" d="M1093.85 638.899C1093.52 638.574 1093.68 638.086 1094.01 637.761C1094.17 637.761 1126.35 611.755 1139.19 610.78C1151.38 609.967 1164.71 608.992 1185.03 593.876C1198.19 583.961 1207.13 582.986 1215.75 581.686C1224.2 580.385 1232.33 579.085 1244.36 568.683C1250.04 563.806 1255.08 564.132 1259.63 563.481C1264.18 562.831 1268.57 561.368 1274.26 552.591C1280.11 543.327 1288.57 541.376 1296.2 540.564C1303.84 539.751 1310.83 539.751 1314.08 535.525C1326.92 519.109 1338.63 513.745 1348.22 513.745C1349.68 513.745 1350.98 513.907 1352.28 514.07C1354.56 514.395 1356.34 514.557 1358.13 514.557C1363.33 514.557 1366.42 512.932 1369.51 508.544C1372.6 504.155 1375.2 496.841 1379.1 486.113C1383.98 472.298 1390.31 466.609 1397.14 466.609C1402.83 466.609 1408.52 470.51 1413.72 476.199C1417.3 480.099 1420.06 481.4 1422.01 481.4C1423.96 481.4 1425.42 479.937 1426.56 477.499C1427.7 475.061 1428.35 471.81 1428.67 468.559C1429.49 458.807 1431.92 443.041 1442 435.402C1451.59 428.087 1451.43 425.324 1455.49 416.222C1456.47 414.109 1457.77 412.809 1459.23 412.809C1461.67 412.971 1463.29 415.572 1464.92 418.335C1466.38 421.261 1467.68 424.674 1468.33 426.95C1469.15 429.713 1471.42 435.564 1474.51 440.765C1477.6 445.966 1481.66 450.355 1485.56 450.68C1485.72 450.68 1485.89 450.68 1486.05 450.68C1489.62 450.843 1493.04 446.292 1495.64 439.302C1498.24 432.476 1500.19 423.536 1501.82 415.572C1505.07 399.156 1514.17 385.015 1528.31 377.701C1541.64 370.874 1540.01 353.157 1548.3 339.017C1553.99 329.264 1562.6 327.639 1567.32 327.639C1569.59 327.639 1571.06 327.964 1571.06 327.964C1571.54 328.127 1571.71 328.452 1571.71 328.939C1571.54 329.427 1571.22 329.589 1570.73 329.589C1570.73 329.589 1570.41 329.589 1569.76 329.427C1569.11 329.427 1568.29 329.264 1567.32 329.264C1562.77 329.264 1554.97 330.727 1549.6 339.829C1541.64 353.32 1543.26 371.362 1528.96 379.163C1515.47 386.315 1506.53 399.968 1503.44 416.06C1501.82 424.024 1499.86 432.963 1497.1 440.115C1494.34 447.104 1491.09 452.468 1486.05 452.468C1485.89 452.468 1485.72 452.468 1485.4 452.468C1480.36 451.98 1476.3 447.104 1473.05 441.741C1469.8 436.377 1467.68 430.525 1466.71 427.6C1466.06 425.487 1464.92 422.073 1463.46 419.31C1461.99 416.547 1460.21 414.434 1459.23 414.597C1458.74 414.597 1457.77 415.084 1456.95 417.035C1452.89 425.812 1452.73 429.55 1442.81 436.864C1433.39 443.853 1430.95 459.132 1430.14 468.722C1429.81 472.135 1429.16 475.548 1428.02 478.312C1426.72 481.075 1424.77 483.025 1422.01 483.188C1419.41 483.188 1416.32 481.4 1412.58 477.499C1407.54 471.973 1402.02 468.559 1397.14 468.559C1391.29 468.559 1385.44 473.435 1380.56 487.089C1376.66 497.979 1374.06 505.13 1370.81 509.844C1367.56 514.557 1363.66 516.67 1358.13 516.67C1356.34 516.67 1354.23 516.508 1351.96 516.02C1350.66 515.858 1349.52 515.695 1348.05 515.695C1339.11 515.695 1327.9 520.734 1315.22 536.825C1311.16 542.026 1303.68 541.701 1296.2 542.514C1288.73 543.327 1280.93 545.115 1275.4 553.892C1269.71 562.994 1264.51 564.944 1259.63 565.594C1254.76 566.245 1250.53 565.757 1245.17 570.308C1232.82 581.035 1224.2 582.498 1215.75 583.636C1207.13 584.936 1198.68 585.749 1185.84 595.501C1165.36 610.942 1151.22 611.918 1139.03 612.73C1133.34 613.055 1122.13 619.719 1112.54 626.384C1102.95 633.048 1094.82 639.387 1094.82 639.387C1094.66 639.549 1094.5 639.549 1094.33 639.549C1094.17 639.224 1094.01 639.224 1093.85 638.899Z" fill="#D4DDE8"/>
</g>
<path d="M1614.29 343.73L1598.69 346.981V344.705L1606.98 333.653C1608.11 332.027 1609.09 330.727 1609.58 329.752C1610.07 328.776 1610.23 327.801 1610.23 326.826C1610.23 325.526 1609.9 324.55 1609.09 323.9C1608.28 323.25 1607.3 323.088 1606.16 323.25C1604.7 323.575 1603.56 324.225 1602.59 325.363C1601.78 326.338 1601.29 327.639 1601.29 329.264L1598.2 329.914C1598.2 327.639 1598.85 325.688 1600.31 324.063C1601.78 322.437 1603.56 321.3 1606 320.812C1608.28 320.325 1609.9 320.65 1611.2 321.462C1612.5 322.437 1613.15 323.9 1613.15 325.851C1613.15 328.289 1611.69 331.377 1608.77 335.278L1602.43 343.567L1614.29 341.129V343.73Z" fill="#18CFAE"/>
<path d="M1632.33 329.59C1632.33 333.165 1631.68 335.928 1630.55 338.041C1629.41 339.992 1627.46 341.292 1624.86 341.78C1622.26 342.267 1620.47 341.78 1619.17 340.317C1617.87 338.854 1617.38 336.416 1617.22 333.003V328.939C1617.22 325.364 1617.87 322.6 1619.01 320.65C1620.14 318.699 1622.09 317.399 1624.69 316.912C1627.29 316.424 1629.08 316.749 1630.38 318.212C1631.52 319.675 1632.17 322.113 1632.17 325.526L1632.33 329.59ZM1629.41 326.014C1629.41 323.413 1629.08 321.625 1628.27 320.487C1627.62 319.512 1626.48 319.025 1624.86 319.35C1623.23 319.675 1622.26 320.487 1621.44 321.788C1620.79 323.088 1620.31 325.038 1620.31 327.477V332.353C1620.31 334.953 1620.63 336.904 1621.44 337.879C1622.26 339.017 1623.39 339.342 1624.86 339.017C1626.32 338.692 1627.46 337.879 1628.11 336.579C1628.76 335.278 1629.25 333.328 1629.25 330.727L1629.41 326.014Z" fill="#18CFAE"/>
<path d="M1646.15 337.066L1643.06 337.716V317.236L1637.05 320.812V318.049L1645.66 313.01L1646.15 312.848V337.066Z" fill="#18CFAE"/>
<path d="M1669.39 314.311C1669.39 315.449 1669.07 316.586 1668.42 317.724C1667.77 318.862 1666.95 319.674 1665.82 320.487C1667.12 320.812 1668.09 321.3 1668.74 322.275C1669.39 323.25 1669.88 324.226 1669.88 325.526C1669.88 327.639 1669.23 329.427 1667.77 331.052C1666.3 332.515 1664.52 333.653 1662.24 333.978C1659.96 334.465 1658.18 334.14 1656.71 333.165C1655.41 332.19 1654.6 330.727 1654.6 328.614C1654.6 327.314 1654.93 326.013 1655.58 324.876C1656.23 323.738 1657.2 322.6 1658.5 321.95C1657.53 321.625 1656.55 321.137 1656.06 320.325C1655.41 319.512 1655.09 318.537 1655.09 317.236C1655.09 315.123 1655.74 313.498 1657.04 312.035C1658.34 310.572 1659.96 309.597 1662.08 309.11C1664.19 308.622 1665.82 308.947 1667.12 309.922C1668.74 310.897 1669.39 312.36 1669.39 314.311ZM1666.95 326.176C1666.95 324.876 1666.47 323.738 1665.65 323.088C1664.84 322.438 1663.7 322.275 1662.4 322.438C1661.1 322.763 1659.96 323.413 1659.15 324.388C1658.34 325.363 1657.85 326.664 1657.85 327.964C1657.85 329.264 1658.18 330.402 1658.99 330.89C1659.8 331.54 1660.94 331.702 1662.4 331.377C1663.87 331.052 1665 330.402 1665.65 329.427C1666.63 328.777 1666.95 327.639 1666.95 326.176ZM1662.4 311.71C1661.27 312.035 1660.29 312.523 1659.48 313.498C1658.66 314.473 1658.34 315.449 1658.34 316.749C1658.34 318.049 1658.66 318.862 1659.48 319.512C1660.13 320.162 1661.1 320.325 1662.4 320C1663.54 319.675 1664.52 319.187 1665.33 318.212C1665.98 317.236 1666.47 316.261 1666.47 314.961C1666.47 313.661 1666.14 312.848 1665.33 312.198C1664.52 311.71 1663.54 311.385 1662.4 311.71Z" fill="#18CFAE"/>













<path d="M1646.47 390.216L1631.52 393.304V391.191L1639.81 380.464C1641.11 378.838 1641.92 377.538 1642.41 376.563C1642.9 375.587 1643.06 374.612 1643.22 373.799C1643.22 372.499 1642.9 371.686 1642.25 371.036C1641.6 370.386 1640.62 370.224 1639.32 370.386C1637.86 370.711 1636.72 371.361 1635.91 372.337C1635.1 373.312 1634.61 374.612 1634.61 376.075L1631.68 376.725C1631.68 374.612 1632.5 372.662 1633.96 371.036C1635.42 369.411 1637.21 368.436 1639.48 367.948C1641.6 367.46 1643.22 367.786 1644.52 368.598C1645.66 369.411 1646.31 370.874 1646.31 372.824C1646.31 375.1 1644.69 378.188 1641.76 381.926L1635.42 390.053L1646.96 387.615L1646.47 390.216Z" fill="#7195BA"/>
<path d="M1664.35 376.562C1664.19 379.975 1663.54 382.739 1662.4 384.689C1661.1 386.639 1659.31 387.777 1656.88 388.427C1654.44 388.915 1652.65 388.427 1651.51 387.127C1650.37 385.664 1649.89 383.389 1649.89 380.138L1650.05 376.237C1650.21 372.824 1650.86 370.061 1652 368.11C1653.14 366.16 1655.09 365.022 1657.53 364.372C1659.96 363.884 1661.75 364.209 1662.89 365.672C1664.03 366.972 1664.52 369.41 1664.52 372.824L1664.35 376.562ZM1661.43 373.149C1661.43 370.548 1661.26 368.923 1660.61 367.785C1659.96 366.81 1658.83 366.485 1657.36 366.81C1655.9 367.135 1654.76 367.948 1654.11 369.248C1653.46 370.548 1652.98 372.336 1652.81 374.774L1652.65 379.488C1652.65 382.088 1652.81 383.876 1653.63 384.852C1654.28 385.989 1655.41 386.314 1656.88 385.989C1658.34 385.664 1659.48 384.852 1660.13 383.551C1660.94 382.251 1661.26 380.463 1661.43 377.862V373.149Z" fill="#7195BA"/>
<path d="M1677.19 383.714L1674.27 384.364L1674.92 364.534L1668.9 367.948L1669.07 365.184L1677.52 360.308L1678.01 360.146L1677.19 383.714Z" fill="#7195BA"/>
<path d="M1701.25 357.058L1691.01 380.788L1687.92 381.438L1698 358.521L1685.65 361.121V358.683L1701.09 355.432L1701.25 357.058Z" fill="#7195BA"/>
<path d="M1676.22 440.278L1661.43 443.854V441.741L1669.55 430.851C1670.69 429.225 1671.67 427.925 1671.99 426.95C1672.48 425.974 1672.64 424.999 1672.8 424.186C1672.8 423.049 1672.48 422.074 1671.83 421.423C1671.18 420.773 1670.2 420.611 1669.07 420.936C1667.6 421.261 1666.47 421.911 1665.65 423.049C1664.84 424.024 1664.35 425.324 1664.35 426.787L1661.43 427.437C1661.43 425.324 1662.24 423.374 1663.54 421.748C1664.84 420.123 1666.79 418.985 1668.9 418.498C1671.02 418.01 1672.64 418.173 1673.78 418.985C1674.92 419.798 1675.57 421.261 1675.41 423.049C1675.41 425.324 1673.78 428.412 1670.85 432.313L1664.51 440.603L1675.89 437.84L1676.22 440.278Z" fill="#092D66"/>
<path d="M1693.61 426.137C1693.45 429.55 1692.8 432.313 1691.66 434.264C1690.52 436.214 1688.57 437.515 1686.13 438.165C1683.69 438.815 1681.91 438.327 1680.77 437.027C1679.63 435.727 1679.14 433.289 1679.14 430.038L1679.31 426.137C1679.47 422.724 1680.12 419.961 1681.26 418.01C1682.39 416.06 1684.34 414.759 1686.78 414.109C1689.22 413.459 1691.01 413.947 1692.15 415.247C1693.28 416.547 1693.77 418.823 1693.77 422.236L1693.61 426.137ZM1690.85 422.724C1690.85 420.286 1690.68 418.498 1690.03 417.523C1689.38 416.547 1688.25 416.222 1686.78 416.547C1685.32 416.872 1684.18 417.685 1683.53 418.985C1682.88 420.286 1682.39 422.074 1682.39 424.512L1682.23 429.225C1682.23 431.663 1682.39 433.451 1683.21 434.589C1683.86 435.564 1684.99 435.889 1686.46 435.564C1687.92 435.239 1688.9 434.426 1689.71 433.126C1690.36 431.826 1690.85 429.875 1691.01 427.437L1690.85 422.724Z" fill="#092D66"/>
<path d="M1706.45 432.801L1703.52 433.451L1704.17 413.784L1698.32 417.36V414.597L1706.61 409.395L1707.1 409.233L1706.45 432.801Z" fill="#092D66"/>
<path d="M1726.93 404.519V406.957L1726.44 407.12C1724.17 407.77 1722.38 408.908 1721.08 410.533C1719.78 412.159 1718.97 414.272 1718.64 416.71C1719.94 415.084 1721.57 413.946 1723.52 413.459C1725.47 412.971 1727.09 413.296 1728.23 414.434C1729.37 415.572 1729.86 417.197 1729.86 419.473C1729.86 421.911 1729.04 424.024 1727.74 425.649C1726.44 427.437 1724.65 428.575 1722.54 429.062C1720.43 429.55 1718.64 429.225 1717.34 427.762C1716.04 426.462 1715.39 424.349 1715.55 421.586V420.448C1715.71 416.222 1716.69 412.646 1718.48 409.883C1720.27 407.12 1723.03 405.332 1726.44 404.519H1726.93ZM1722.87 416.059C1721.89 416.222 1720.92 416.872 1720.1 417.685C1719.29 418.498 1718.64 419.473 1718.32 420.448V421.586C1718.32 423.536 1718.64 424.999 1719.45 425.974C1720.27 426.95 1721.24 427.275 1722.54 426.949C1723.84 426.624 1724.82 425.812 1725.63 424.674C1726.44 423.536 1726.77 422.073 1726.93 420.611C1726.93 418.985 1726.6 417.847 1725.95 417.035C1724.98 415.897 1724 415.734 1722.87 416.059Z" fill="#092D66"/>




<path fill-rule="evenodd" clip-rule="evenodd" d="M1200.89 153.559H-2.00301V0H1200.89V153.559Z" fill="url(#paint4_linear_186_9451)"/>
<path fill-rule="evenodd" clip-rule="evenodd" d="M276.178 292H178.857V86.4749H379.028L276.178 292Z" fill="url(#paint5_linear_186_9451)"/>
<path fill-rule="evenodd" clip-rule="evenodd" d="M245.47 292H-6V86.4749H245.47V292Z" fill="url(#paint6_linear_186_9451)"/>
<path fill-rule="evenodd" clip-rule="evenodd" d="M717.104 153.559H1920V0H717.104V153.559Z" fill="url(#paint7_linear_186_9451)"/>
<path fill-rule="evenodd" clip-rule="evenodd" d="M1641.82 292H1739.14V86.4749H1538.97L1641.82 292Z" fill="url(#paint8_linear_186_9451)"/>
<path fill-rule="evenodd" clip-rule="evenodd" d="M1668.42 292H1919.89V86.4749H1668.42V292Z" fill="url(#paint9_linear_186_9451)"/>
<path fill-rule="evenodd" clip-rule="evenodd" d="M-36.251 1176.55L4.3561 1257.76H109.474L150.081 1176.55L109.474 1095.34H4.3561L-36.251 1176.55Z" stroke="#21A497" stroke-opacity="0.176471" stroke-width="1.33333" stroke-miterlimit="800"/>
<path fill-rule="evenodd" clip-rule="evenodd" d="M-36.251 1014.44L4.3561 1095.65H109.474L150.081 1014.44L109.474 933.226H4.3561L-36.251 1014.44Z" stroke="#21A497" stroke-opacity="0.176471" stroke-width="1.33333" stroke-miterlimit="800"/>
<path fill-rule="evenodd" clip-rule="evenodd" d="M-36.251 528.11L4.3561 609.324H109.474L150.081 528.11L109.474 446.896H4.3561L-36.251 528.11Z" stroke="#21A497" stroke-opacity="0.176471" stroke-width="1.33333" stroke-miterlimit="800"/>
<path fill-rule="evenodd" clip-rule="evenodd" d="M109.098 1095.65L149.705 1176.87H254.823L295.43 1095.65L254.823 1014.44H149.705L109.098 1095.65Z" stroke="#21A497" stroke-opacity="0.176471" stroke-width="1.33333" stroke-miterlimit="800"/>
<path fill-rule="evenodd" clip-rule="evenodd" d="M109.098 933.545L149.705 1014.76H254.823L295.43 933.545L254.823 852.331H149.705L109.098 933.545Z" stroke="#21A497" stroke-opacity="0.176471" stroke-width="1.33333" stroke-miterlimit="800"/>
<path fill-rule="evenodd" clip-rule="evenodd" d="M109.098 771.434L149.705 852.648H254.823L295.43 771.434L254.823 690.22H149.705L109.098 771.434Z" stroke="#21A497" stroke-opacity="0.176471" stroke-width="1.33333" stroke-miterlimit="800"/>
<path fill-rule="evenodd" clip-rule="evenodd" d="M109.098 609.324L149.705 690.538H254.823L295.43 609.324L254.823 528.11H149.705L109.098 609.324Z" stroke="#21A497" stroke-opacity="0.176471" stroke-width="1.33333" stroke-miterlimit="800"/>
<path fill-rule="evenodd" clip-rule="evenodd" d="M109.098 447.214L149.705 528.428H254.823L295.43 447.214L254.823 366H149.705L109.098 447.214Z" stroke="#21A497" stroke-opacity="0.176471" stroke-width="1.33333" stroke-miterlimit="800"/>
<path fill-rule="evenodd" clip-rule="evenodd" d="M255.77 1175.85L296.377 1257.07H401.494L442.101 1175.85L401.494 1094.64H296.377L255.77 1175.85Z" stroke="#21A497" stroke-opacity="0.176471" stroke-width="1.33333" stroke-miterlimit="800"/>
<path fill-rule="evenodd" clip-rule="evenodd" d="M255.77 1013.74L296.377 1094.96H401.494L442.101 1013.74L401.494 932.527H296.377L255.77 1013.74Z" stroke="#21A497" stroke-opacity="0.176471" stroke-width="1.33333" stroke-miterlimit="800"/>
<path fill-rule="evenodd" clip-rule="evenodd" d="M255.77 851.631L296.377 932.845H401.494L442.101 851.631L401.494 770.417H296.377L255.77 851.631Z" stroke="#21A497" stroke-opacity="0.176471" stroke-width="1.33333" stroke-miterlimit="800"/>
<path fill-rule="evenodd" clip-rule="evenodd" d="M255.77 689.521L296.377 770.735H401.494L442.101 689.521L401.494 608.307H296.377L255.77 689.521Z" stroke="#21A497" stroke-opacity="0.176471" stroke-width="1.33333" stroke-miterlimit="800"/>
<path fill-rule="evenodd" clip-rule="evenodd" d="M255.77 527.411L296.377 608.625H401.494L442.101 527.411L401.494 446.197H296.377L255.77 527.411Z" stroke="#21A497" stroke-opacity="0.176471" stroke-width="1.33333" stroke-miterlimit="800"/>
<path fill-rule="evenodd" clip-rule="evenodd" d="M401.119 1094.96L441.726 1176.17H546.844L587.451 1094.96L546.844 1013.74H441.726L401.119 1094.96Z" stroke="#21A497" stroke-opacity="0.176471" stroke-width="1.33333" stroke-miterlimit="800"/>
<path fill-rule="evenodd" clip-rule="evenodd" d="M401.119 932.845L441.726 1014.06H546.844L587.451 932.845L546.844 851.631H441.726L401.119 932.845Z" stroke="#21A497" stroke-opacity="0.176471" stroke-width="1.33333" stroke-miterlimit="800"/>
<path fill-rule="evenodd" clip-rule="evenodd" d="M401.119 608.625L441.726 689.839H546.844L587.451 608.625L546.844 527.411H441.726L401.119 608.625Z" stroke="#21A497" stroke-opacity="0.176471" stroke-width="1.33333" stroke-miterlimit="800"/>
<path fill-rule="evenodd" clip-rule="evenodd" d="M-36.251 1176.55L4.3561 1257.76H109.474L150.081 1176.55L109.474 1095.34H4.3561L-36.251 1176.55Z" stroke="white" stroke-opacity="0.0588235" stroke-width="1.33333" stroke-miterlimit="800"/>
<path fill-rule="evenodd" clip-rule="evenodd" d="M-36.251 1014.44L4.3561 1095.65H109.474L150.081 1014.44L109.474 933.226H4.3561L-36.251 1014.44Z" stroke="white" stroke-opacity="0.0588235" stroke-width="1.33333" stroke-miterlimit="800"/>
<path fill-rule="evenodd" clip-rule="evenodd" d="M-36.251 528.11L4.3561 609.324H109.474L150.081 528.11L109.474 446.896H4.3561L-36.251 528.11Z" stroke="white" stroke-opacity="0.0588235" stroke-width="1.33333" stroke-miterlimit="800"/>
<path fill-rule="evenodd" clip-rule="evenodd" d="M109.098 1095.65L149.705 1176.87H254.823L295.43 1095.65L254.823 1014.44H149.705L109.098 1095.65Z" stroke="white" stroke-opacity="0.0588235" stroke-width="1.33333" stroke-miterlimit="800"/>
<path fill-rule="evenodd" clip-rule="evenodd" d="M109.098 933.545L149.705 1014.76H254.823L295.43 933.545L254.823 852.331H149.705L109.098 933.545Z" stroke="white" stroke-opacity="0.0588235" stroke-width="1.33333" stroke-miterlimit="800"/>
<path fill-rule="evenodd" clip-rule="evenodd" d="M109.098 771.434L149.705 852.648H254.823L295.43 771.434L254.823 690.22H149.705L109.098 771.434Z" stroke="white" stroke-opacity="0.0588235" stroke-width="1.33333" stroke-miterlimit="800"/>
<path fill-rule="evenodd" clip-rule="evenodd" d="M109.098 609.324L149.705 690.538H254.823L295.43 609.324L254.823 528.11H149.705L109.098 609.324Z" stroke="white" stroke-opacity="0.0588235" stroke-width="1.33333" stroke-miterlimit="800"/>
<path fill-rule="evenodd" clip-rule="evenodd" d="M109.098 447.214L149.705 528.428H254.823L295.43 447.214L254.823 366H149.705L109.098 447.214Z" stroke="white" stroke-opacity="0.0588235" stroke-width="1.33333" stroke-miterlimit="800"/>
<path fill-rule="evenodd" clip-rule="evenodd" d="M255.77 1175.85L296.377 1257.07H401.494L442.101 1175.85L401.494 1094.64H296.377L255.77 1175.85Z" stroke="white" stroke-opacity="0.0588235" stroke-width="1.33333" stroke-miterlimit="800"/>
<path fill-rule="evenodd" clip-rule="evenodd" d="M255.77 1013.74L296.377 1094.96H401.494L442.101 1013.74L401.494 932.527H296.377L255.77 1013.74Z" stroke="white" stroke-opacity="0.0588235" stroke-width="1.33333" stroke-miterlimit="800"/>
<path fill-rule="evenodd" clip-rule="evenodd" d="M255.77 851.631L296.377 932.845H401.494L442.101 851.631L401.494 770.417H296.377L255.77 851.631Z" stroke="white" stroke-opacity="0.0588235" stroke-width="1.33333" stroke-miterlimit="800"/>
<path fill-rule="evenodd" clip-rule="evenodd" d="M255.77 689.521L296.377 770.735H401.494L442.101 689.521L401.494 608.307H296.377L255.77 689.521Z" stroke="white" stroke-opacity="0.0588235" stroke-width="1.33333" stroke-miterlimit="800"/>
<path fill-rule="evenodd" clip-rule="evenodd" d="M255.77 527.411L296.377 608.625H401.494L442.101 527.411L401.494 446.197H296.377L255.77 527.411Z" stroke="white" stroke-opacity="0.0588235" stroke-width="1.33333" stroke-miterlimit="800"/>
<path fill-rule="evenodd" clip-rule="evenodd" d="M401.119 1094.96L441.726 1176.17H546.844L587.451 1094.96L546.844 1013.74H441.726L401.119 1094.96Z" stroke="white" stroke-opacity="0.0588235" stroke-width="1.33333" stroke-miterlimit="800"/>
<path fill-rule="evenodd" clip-rule="evenodd" d="M401.119 932.845L441.726 1014.06H546.844L587.451 932.845L546.844 851.631H441.726L401.119 932.845Z" stroke="white" stroke-opacity="0.0588235" stroke-width="1.33333" stroke-miterlimit="800"/>
<path fill-rule="evenodd" clip-rule="evenodd" d="M401.119 608.625L441.726 689.839H546.844L587.451 608.625L546.844 527.411H441.726L401.119 608.625Z" stroke="white" stroke-opacity="0.0588235" stroke-width="1.33333" stroke-miterlimit="800"/>
<path fill-rule="evenodd" clip-rule="evenodd" d="M-292 1790L432.313 1070H649.115L-75.1981 1790H-292Z" fill="url(#paint10_linear_186_9451)"/>
<path fill-rule="evenodd" clip-rule="evenodd" d="M-95.5547 1472.74L309.602 1070H430.874L25.7172 1472.74H-95.5547Z" fill="url(#paint11_linear_186_9451)"/>
<defs>
<filter id="filter0_d_186_9451" x="489.307" y="329.307" width="583.385" height="284.385" filterUnits="userSpaceOnUse" color-interpolation-filters="sRGB">
<feFlood flood-opacity="0" result="BackgroundImageFix"/>
<feColorMatrix in="SourceAlpha" type="matrix" values="0 0 0 0 0 0 0 0 0 0 0 0 0 0 0 0 0 0 127 0" result="hardAlpha"/>
<feOffset dy="4"/>
<feGaussianBlur stdDeviation="2.34628"/>
<feComposite in2="hardAlpha" operator="out"/>
<feColorMatrix type="matrix" values="0 0 0 0 0 0 0 0 0 0 0 0 0 0 0 0 0 0 0.25 0"/>
<feBlend mode="normal" in2="BackgroundImageFix" result="effect1_dropShadow_186_9451"/>
<feBlend mode="normal" in="SourceGraphic" in2="effect1_dropShadow_186_9451" result="shape"/>
</filter>
<radialGradient id="paint0_radial_186_9451" cx="0" cy="0" r="1" gradientUnits="userSpaceOnUse" gradientTransform="translate(1366.71 462.878) scale(296.857 171.842)">
<stop offset="0.2692" stop-color="#98A2AE"/>
<stop offset="1" stop-color="white"/>
</radialGradient>
<linearGradient id="paint1_linear_186_9451" x1="1573.88" y1="416.037" x2="742.539" y2="645.206" gradientUnits="userSpaceOnUse">
<stop offset="0.1593" stop-color="#18CFAE"/>
<stop offset="0.4015" stop-color="#63D5C5"/>
<stop offset="0.6196" stop-color="#A0D9D8"/>
<stop offset="0.7789" stop-color="#C6DCE4"/>
<stop offset="0.8626" stop-color="#D4DDE8"/>
</linearGradient>
<linearGradient id="paint2_linear_186_9451" x1="1072.99" y1="527.208" x2="1438.54" y2="501.529" gradientUnits="userSpaceOnUse">
<stop stop-color="#94BFDD"/>
<stop offset="0.6868" stop-color="#94BFDD"/>
<stop offset="1" stop-color="#7195BA"/>
</linearGradient>
<linearGradient id="paint3_linear_186_9451" x1="1542.27" y1="521.502" x2="886.832" y2="664.394" gradientUnits="userSpaceOnUse">
<stop stop-color="#092D66"/>
<stop offset="0.978" stop-color="#7195BA"/>
</linearGradient>
<linearGradient id="paint4_linear_186_9451" x1="229.233" y1="182.499" x2="1611.54" y2="182.196" gradientUnits="userSpaceOnUse">
<stop stop-color="#0D6557"/>
<stop offset="1" stop-color="#21A497"/>
</linearGradient>
<linearGradient id="paint5_linear_186_9451" x1="229.233" y1="182.499" x2="1611.54" y2="182.196" gradientUnits="userSpaceOnUse">
<stop stop-color="#0D6557"/>
<stop offset="1" stop-color="#21A497"/>
</linearGradient>
<linearGradient id="paint6_linear_186_9451" x1="229.233" y1="182.499" x2="1611.54" y2="182.196" gradientUnits="userSpaceOnUse">
<stop stop-color="#0D6557"/>
<stop offset="1" stop-color="#21A497"/>
</linearGradient>
<linearGradient id="paint7_linear_186_9451" x1="229.233" y1="182.499" x2="1611.54" y2="182.196" gradientUnits="userSpaceOnUse">
<stop stop-color="#0D6557"/>
<stop offset="1" stop-color="#21A497"/>
</linearGradient>
<linearGradient id="paint8_linear_186_9451" x1="229.233" y1="182.499" x2="1611.54" y2="182.196" gradientUnits="userSpaceOnUse">
<stop stop-color="#0D6557"/>
<stop offset="1" stop-color="#21A497"/>
</linearGradient>
<linearGradient id="paint9_linear_186_9451" x1="229.233" y1="182.499" x2="1611.54" y2="182.196" gradientUnits="userSpaceOnUse">
<stop stop-color="#0D6557"/>
<stop offset="1" stop-color="#21A497"/>
</linearGradient>
<linearGradient id="paint10_linear_186_9451" x1="-292" y1="1070" x2="-292" y2="1790" gradientUnits="userSpaceOnUse">
<stop stop-color="#05AB9C" stop-opacity="0"/>
<stop offset="0.208333" stop-color="#05AB9C" stop-opacity="0.36"/>
</linearGradient>
<linearGradient id="paint11_linear_186_9451" x1="-95.5547" y1="1070" x2="-95.5547" y2="1472.74" gradientUnits="userSpaceOnUse">
<stop stop-color="#05AB9C" stop-opacity="0"/>
<stop offset="1" stop-color="#05AB9C" stop-opacity="0.207843"/>
</linearGradient>
</defs>
</svg>