<svg xmlns="http://www.w3.org/2000/svg" width="375" height="1280" viewBox="0 0 375 1280" fill="none">
<path fill-rule="evenodd" clip-rule="evenodd" d="M402.2 253.433L386.378 222.052H345.421L329.599 253.433L345.421 284.813H386.378L402.2 253.433Z" stroke="#21A497" stroke-opacity="0.176471" stroke-width="0.56942" stroke-miterlimit="800"/>
<path fill-rule="evenodd" clip-rule="evenodd" d="M402.2 316.194L386.378 284.813H345.421L329.599 316.194L345.421 347.575H386.378L402.2 316.194Z" stroke="#21A497" stroke-opacity="0.176471" stroke-width="0.56942" stroke-miterlimit="800"/>
<path fill-rule="evenodd" clip-rule="evenodd" d="M402.2 378.955L386.378 347.574H345.421L329.599 378.955L345.421 410.336H386.378L402.2 378.955Z" stroke="#21A497" stroke-opacity="0.176471" stroke-width="0.56942" stroke-miterlimit="800"/>
<path fill-rule="evenodd" clip-rule="evenodd" d="M402.2 441.717L386.378 410.336H345.421L329.599 441.717L345.421 473.098H386.378L402.2 441.717Z" stroke="#21A497" stroke-opacity="0.176471" stroke-width="0.56942" stroke-miterlimit="800"/>
<path fill-rule="evenodd" clip-rule="evenodd" d="M402.2 504.479L386.378 473.098H345.421L329.599 504.479L345.421 535.859H386.378L402.2 504.479Z" stroke="#21A497" stroke-opacity="0.176471" stroke-width="0.56942" stroke-miterlimit="800"/>
<path fill-rule="evenodd" clip-rule="evenodd" d="M345.401 222.475L329.579 191.095H288.622L272.8 222.475L288.622 253.856H329.579L345.401 222.475Z" stroke="#21A497" stroke-opacity="0.176471" stroke-width="0.56942" stroke-miterlimit="800"/>
<path fill-rule="evenodd" clip-rule="evenodd" d="M345.401 285.237L329.579 253.856H288.622L272.8 285.237L288.622 316.618H329.579L345.401 285.237Z" stroke="#21A497" stroke-opacity="0.176471" stroke-width="0.56942" stroke-miterlimit="800"/>
<path fill-rule="evenodd" clip-rule="evenodd" d="M345.401 347.999L329.579 316.618H288.622L272.8 347.999L288.622 379.38H329.579L345.401 347.999Z" stroke="#21A497" stroke-opacity="0.176471" stroke-width="0.56942" stroke-miterlimit="800"/>
<path fill-rule="evenodd" clip-rule="evenodd" d="M345.401 410.761L329.579 379.38H288.622L272.8 410.761L288.622 442.142H329.579L345.401 410.761Z" stroke="#21A497" stroke-opacity="0.176471" stroke-width="0.56942" stroke-miterlimit="800"/>
<path fill-rule="evenodd" clip-rule="evenodd" d="M345.401 473.522L329.579 442.142H288.622L272.8 473.522L288.622 504.903H329.579L345.401 473.522Z" stroke="#21A497" stroke-opacity="0.176471" stroke-width="0.56942" stroke-miterlimit="800"/>
<path fill-rule="evenodd" clip-rule="evenodd" d="M288.601 253.856L272.779 222.476H231.822L216 253.856L231.822 285.237H272.779L288.601 253.856Z" stroke="#21A497" stroke-opacity="0.176471" stroke-width="0.56942" stroke-miterlimit="800"/>
<path fill-rule="evenodd" clip-rule="evenodd" d="M288.601 316.618L272.779 285.237H231.822L216 316.618L231.822 347.999H272.779L288.601 316.618Z" stroke="#21A497" stroke-opacity="0.176471" stroke-width="0.56942" stroke-miterlimit="800"/>
<path fill-rule="evenodd" clip-rule="evenodd" d="M288.601 442.141L272.779 410.761H231.822L216 442.141L231.822 473.522H272.779L288.601 442.141Z" stroke="#21A497" stroke-opacity="0.176471" stroke-width="0.56942" stroke-miterlimit="800"/>
<g clip-path="url(#clip0_366_8407)">




<path fill-rule="evenodd" clip-rule="evenodd" d="M0 293H181.056L244.5 420L0 420V293Z" fill="url(#paint0_linear_366_8407)"/>

<g filter="url(#filter3_d_366_8407)">

</g>





<path opacity="0.12" d="M92.436 1202.5L94.2867 1203.76L95.1478 1202.49L94.2795 1201.23L92.436 1202.5ZM48.82 1139.14V1136.91H44.5621L46.9765 1140.41L48.82 1139.14ZM89.992 1139.14L91.9417 1138.05L91.2997 1136.91H89.992V1139.14ZM113.304 1180.5L111.354 1181.6L113.328 1185.1L115.265 1181.58L113.304 1180.5ZM136.052 1139.14V1136.91H134.729L134.091 1138.07L136.052 1139.14ZM175.344 1139.14L177.2 1140.39L179.55 1136.91H175.344V1139.14ZM132.668 1202.5L130.812 1201.25L129.971 1202.5L130.81 1203.75L132.668 1202.5ZM180.044 1273V1275.24H184.245L181.902 1271.75L180.044 1273ZM137.556 1273L135.616 1274.12L136.262 1275.24H137.556V1273ZM111.8 1228.26L113.74 1227.14L111.841 1223.84L109.882 1227.1L111.8 1228.26ZM84.916 1273V1275.24H86.1823L86.8344 1274.15L84.916 1273ZM44.496 1273L42.6453 1271.74L40.2676 1275.24H44.496V1273ZM94.2795 1201.23L50.6635 1137.87L46.9765 1140.41L90.5925 1203.77L94.2795 1201.23ZM48.82 1141.38H89.992V1136.91H48.82V1141.38ZM88.0423 1140.24L111.354 1181.6L115.254 1179.41L91.9417 1138.05L88.0423 1140.24ZM115.265 1181.58L138.013 1140.22L134.091 1138.07L111.343 1179.43L115.265 1181.58ZM136.052 1141.38H175.344V1136.91H136.052V1141.38ZM173.488 1137.89L130.812 1201.25L134.524 1203.75L177.2 1140.39L173.488 1137.89ZM130.81 1203.75L178.186 1274.25L181.902 1271.75L134.526 1201.25L130.81 1203.75ZM180.044 1270.76H137.556V1275.24H180.044V1270.76ZM139.496 1271.88L113.74 1227.14L109.86 1229.37L135.616 1274.12L139.496 1271.88ZM109.882 1227.1L82.9976 1271.85L86.8344 1274.15L113.718 1229.41L109.882 1227.1ZM84.916 1270.76H44.496V1275.24H84.916V1270.76ZM46.3467 1274.26L94.2867 1203.76L90.5853 1201.24L42.6453 1271.74L46.3467 1274.26ZM263.159 1141.96H265.397V1139.73H263.159V1141.96ZM263.159 1273V1275.24H265.397V1273H263.159ZM229.507 1273H227.269V1275.24H229.507V1273ZM229.507 1192.91H231.745V1190.67H229.507V1192.91ZM198.111 1192.91H195.873V1195.15H198.111V1192.91ZM198.111 1169.41L198.037 1167.18L195.873 1167.25V1169.41H198.111ZM224.807 1163.02L225.953 1164.94L225.964 1164.94L224.807 1163.02ZM236.651 1141.96V1139.73H234.675L234.43 1141.69L236.651 1141.96ZM260.921 1141.96V1273H265.397V1141.96H260.921ZM263.159 1270.76H229.507V1275.24H263.159V1270.76ZM231.745 1273V1192.91H227.269V1273H231.745ZM229.507 1190.67H198.111V1195.15H229.507V1190.67ZM200.349 1192.91V1169.41H195.873V1192.91H200.349ZM198.186 1171.65C209.673 1171.27 218.991 1169.09 225.953 1164.94L223.661 1161.1C217.589 1164.72 209.109 1166.81 198.037 1167.18L198.186 1171.65ZM225.964 1164.94C233.362 1160.47 237.561 1152.73 238.872 1142.24L234.43 1141.69C233.234 1151.26 229.537 1157.55 223.65 1161.1L225.964 1164.94ZM236.651 1144.2H263.159V1139.73H236.651V1144.2ZM381.577 1141.96H383.815V1139.73H381.577V1141.96ZM381.577 1273V1275.24H383.815V1273H381.577ZM347.925 1273H345.687V1275.24H347.925V1273ZM347.925 1192.91H350.163V1190.67H347.925V1192.91ZM316.529 1192.91H314.291V1195.15H316.529V1192.91ZM316.529 1169.41L316.454 1167.18L314.291 1167.25V1169.41H316.529ZM343.225 1163.02L344.371 1164.94L344.382 1164.94L343.225 1163.02ZM355.069 1141.96V1139.73H353.093L352.848 1141.69L355.069 1141.96ZM379.339 1141.96V1273H383.815V1141.96H379.339ZM381.577 1270.76H347.925V1275.24H381.577V1270.76ZM350.163 1273V1192.91H345.687V1273H350.163ZM347.925 1190.67H316.529V1195.15H347.925V1190.67ZM318.767 1192.91V1169.41H314.291V1192.91H318.767ZM316.604 1171.65C328.091 1171.27 337.409 1169.09 344.371 1164.94L342.079 1161.1C336.007 1164.72 327.527 1166.81 316.454 1167.18L316.604 1171.65ZM344.382 1164.94C351.78 1160.47 355.979 1152.73 357.29 1142.24L352.848 1141.69C351.652 1151.26 347.955 1157.55 342.068 1161.1L344.382 1164.94ZM355.069 1144.2H381.577V1139.73H355.069V1144.2Z" fill="#1A6FB0"/>









</g>
<defs>
<filter id="filter0_d_366_8407" x="53.8074" y="279.444" width="185.307" height="161.042" filterUnits="userSpaceOnUse" color-interpolation-filters="sRGB">
<feFlood flood-opacity="0" result="BackgroundImageFix"/>
<feColorMatrix in="SourceAlpha" type="matrix" values="0 0 0 0 0 0 0 0 0 0 0 0 0 0 0 0 0 0 127 0" result="hardAlpha"/>
<feOffset dy="4"/>
<feGaussianBlur stdDeviation="2.34628"/>
<feComposite in2="hardAlpha" operator="out"/>
<feColorMatrix type="matrix" values="0 0 0 0 0 0 0 0 0 0 0 0 0 0 0 0 0 0 0.25 0"/>
<feBlend mode="normal" in2="BackgroundImageFix" result="effect1_dropShadow_366_8407"/>
<feBlend mode="normal" in="SourceGraphic" in2="effect1_dropShadow_366_8407" result="shape"/>
</filter>
<filter id="filter1_d_366_8407" x="98.3074" y="312.307" width="95.3851" height="95.3851" filterUnits="userSpaceOnUse" color-interpolation-filters="sRGB">
<feFlood flood-opacity="0" result="BackgroundImageFix"/>
<feColorMatrix in="SourceAlpha" type="matrix" values="0 0 0 0 0 0 0 0 0 0 0 0 0 0 0 0 0 0 127 0" result="hardAlpha"/>
<feOffset dy="4"/>
<feGaussianBlur stdDeviation="2.34628"/>
<feComposite in2="hardAlpha" operator="out"/>
<feColorMatrix type="matrix" values="0 0 0 0 0 0 0 0 0 0 0 0 0 0 0 0 0 0 0.25 0"/>
<feBlend mode="normal" in2="BackgroundImageFix" result="effect1_dropShadow_366_8407"/>
<feBlend mode="normal" in="SourceGraphic" in2="effect1_dropShadow_366_8407" result="shape"/>
</filter>
<filter id="filter2_f_366_8407" x="76.9656" y="295.503" width="138.991" height="120.923" filterUnits="userSpaceOnUse" color-interpolation-filters="sRGB">
<feFlood flood-opacity="0" result="BackgroundImageFix"/>
<feBlend mode="normal" in="SourceGraphic" in2="BackgroundImageFix" result="shape"/>
<feGaussianBlur stdDeviation="2" result="effect1_foregroundBlur_366_8407"/>
</filter>
<filter id="filter3_d_366_8407" x="28.8074" y="455.307" width="317.385" height="256.385" filterUnits="userSpaceOnUse" color-interpolation-filters="sRGB">
<feFlood flood-opacity="0" result="BackgroundImageFix"/>
<feColorMatrix in="SourceAlpha" type="matrix" values="0 0 0 0 0 0 0 0 0 0 0 0 0 0 0 0 0 0 127 0" result="hardAlpha"/>
<feOffset dy="4"/>
<feGaussianBlur stdDeviation="2.34628"/>
<feComposite in2="hardAlpha" operator="out"/>
<feColorMatrix type="matrix" values="0 0 0 0 0 0 0 0 0 0 0 0 0 0 0 0 0 0 0.25 0"/>
<feBlend mode="normal" in2="BackgroundImageFix" result="effect1_dropShadow_366_8407"/>
<feBlend mode="normal" in="SourceGraphic" in2="effect1_dropShadow_366_8407" result="shape"/>
</filter>
<filter id="filter4_d_366_8407" x="28.8074" y="455.307" width="317.385" height="60.3851" filterUnits="userSpaceOnUse" color-interpolation-filters="sRGB">
<feFlood flood-opacity="0" result="BackgroundImageFix"/>
<feColorMatrix in="SourceAlpha" type="matrix" values="0 0 0 0 0 0 0 0 0 0 0 0 0 0 0 0 0 0 127 0" result="hardAlpha"/>
<feOffset dy="4"/>
<feGaussianBlur stdDeviation="2.34628"/>
<feComposite in2="hardAlpha" operator="out"/>
<feColorMatrix type="matrix" values="0 0 0 0 0 0 0 0 0 0 0 0 0 0 0 0 0 0 0.25 0"/>
<feBlend mode="normal" in2="BackgroundImageFix" result="effect1_dropShadow_366_8407"/>
<feBlend mode="normal" in="SourceGraphic" in2="effect1_dropShadow_366_8407" result="shape"/>
</filter>
<filter id="filter5_d_366_8407" x="28.8074" y="726.307" width="317.385" height="462.385" filterUnits="userSpaceOnUse" color-interpolation-filters="sRGB">
<feFlood flood-opacity="0" result="BackgroundImageFix"/>
<feColorMatrix in="SourceAlpha" type="matrix" values="0 0 0 0 0 0 0 0 0 0 0 0 0 0 0 0 0 0 127 0" result="hardAlpha"/>
<feOffset dy="4"/>
<feGaussianBlur stdDeviation="2.34628"/>
<feComposite in2="hardAlpha" operator="out"/>
<feColorMatrix type="matrix" values="0 0 0 0 0 0 0 0 0 0 0 0 0 0 0 0 0 0 0.25 0"/>
<feBlend mode="normal" in2="BackgroundImageFix" result="effect1_dropShadow_366_8407"/>
<feBlend mode="normal" in="SourceGraphic" in2="effect1_dropShadow_366_8407" result="shape"/>
</filter>
<filter id="filter6_d_366_8407" x="28.8074" y="726.307" width="317.385" height="60.3851" filterUnits="userSpaceOnUse" color-interpolation-filters="sRGB">
<feFlood flood-opacity="0" result="BackgroundImageFix"/>
<feColorMatrix in="SourceAlpha" type="matrix" values="0 0 0 0 0 0 0 0 0 0 0 0 0 0 0 0 0 0 127 0" result="hardAlpha"/>
<feOffset dy="4"/>
<feGaussianBlur stdDeviation="2.34628"/>
<feComposite in2="hardAlpha" operator="out"/>
<feColorMatrix type="matrix" values="0 0 0 0 0 0 0 0 0 0 0 0 0 0 0 0 0 0 0.25 0"/>
<feBlend mode="normal" in2="BackgroundImageFix" result="effect1_dropShadow_366_8407"/>
<feBlend mode="normal" in="SourceGraphic" in2="effect1_dropShadow_366_8407" result="shape"/>
</filter>
<linearGradient id="paint0_linear_366_8407" x1="0" y1="293" x2="-3.68352e-06" y2="420" gradientUnits="userSpaceOnUse">
<stop stop-color="#05AB9C" stop-opacity="0.207843"/>
<stop offset="1" stop-color="#05AB9C" stop-opacity="0.207843"/>
</linearGradient>
<linearGradient id="paint1_linear_366_8407" x1="58.5" y1="431.793" x2="234.422" y2="431.793" gradientUnits="userSpaceOnUse">
<stop stop-color="#21A497"/>
<stop offset="1" stop-color="#00665A"/>
</linearGradient>
<clipPath id="clip0_366_8407">
<rect width="375" height="1280" fill="white"/>
</clipPath>
</defs>
</svg>