<svg width="260" height="97" viewBox="0 0 260 97" fill="none" xmlns="http://www.w3.org/2000/svg">
<path d="M82.026 4.81399C81.4333 8.62399 80.883 12.307 80.375 15.863C79.867 19.419 79.359 23.0597 78.851 26.785C78.4277 30.4257 77.7927 33.8547 76.946 37.072C76.692 38.7653 76.6073 40.374 76.692 41.898C76.7767 43.3373 77.708 44.6497 79.486 45.835C78.724 46.2583 78.0043 46.6817 77.327 47.105C76.7343 47.4437 76.2687 47.8247 75.93 48.248C75.5067 48.756 75.2527 49.391 75.168 50.153C75.168 50.915 75.0833 51.6347 74.914 52.312C74.3213 57.646 73.6863 62.8953 73.009 68.06C72.3317 73.2247 71.739 78.474 71.231 83.808C71.0617 85.5013 71.0193 87.2793 71.104 89.142C71.1887 91.0047 71.231 92.7827 71.231 94.476C69.7917 95.5767 68.3947 96.0847 67.04 96C65.77 96 64.4153 95.7883 62.976 95.365C62.214 91.4703 62.0023 87.618 62.341 83.808C62.7643 79.9133 63.1877 76.061 63.611 72.251C64.0343 68.3563 64.5423 64.5463 65.135 60.821C65.7277 57.0957 66.3203 53.201 66.913 49.137C66.405 49.0523 65.897 48.9677 65.389 48.883C64.881 48.7983 64.2883 48.8407 63.611 49.01C58.3617 50.026 53.1547 51.0843 47.99 52.185C42.8253 53.201 37.576 54.2593 32.242 55.36C30.2947 55.6987 29.067 57.011 28.559 59.297C28.305 60.6517 27.9663 61.964 27.543 63.234C27.2043 64.4193 26.8233 65.6893 26.4 67.044C26.2307 67.044 26.0613 67.044 25.892 67.044C25.8073 66.9593 25.6803 66.917 25.511 66.917C25.6803 65.3083 25.8073 63.7843 25.892 62.345C26.0613 60.821 26.273 59.2547 26.527 57.646C25.0877 59.5087 24.241 61.4983 23.987 63.615C23.8177 65.7317 23.5637 67.8483 23.225 69.965C22.8017 72.251 22.4207 74.537 22.082 76.823C21.828 79.109 21.574 81.395 21.32 83.681C21.1507 85.8823 21.0237 88.0837 20.939 90.285C20.8543 92.4863 20.7273 94.6877 20.558 96.889C17.002 96.8043 14.5467 96.127 13.192 94.857C11.922 93.587 11.3293 91.174 11.414 87.618C11.414 84.062 11.541 80.5483 11.795 77.077C12.1337 73.6057 12.3877 70.092 12.557 66.536C12.7263 65.6047 12.8533 64.7157 12.938 63.869C13.0227 62.9377 13.1497 61.837 13.319 60.567C12.049 60.9903 10.8637 61.3713 9.763 61.71C8.747 62.0487 7.77333 62.3027 6.842 62.472C6.08 62.6413 5.27567 62.726 4.429 62.726C3.667 62.6413 2.98967 62.472 2.397 62.218C1.381 61.8793 0.873 61.2867 0.873 60.44C0.788333 59.5933 1.21167 58.916 2.143 58.408C3.24367 57.8153 4.38667 57.2227 5.572 56.63C6.842 56.0373 8.15433 55.6563 9.509 55.487C11.4563 55.0637 12.8957 54.2593 13.827 53.074C14.843 51.804 15.5627 50.026 15.986 47.74C17.1713 42.152 18.4413 36.6487 19.796 31.23C21.1507 25.7267 22.5477 20.181 23.987 14.593C24.241 13.831 24.495 13.069 24.749 12.307C25.003 11.4603 25.2993 10.6137 25.638 9.767C26.908 7.05766 28.178 5.49133 29.448 5.068C30.718 4.64466 32.496 5.322 34.782 7.09999C32.9193 14.0427 31.226 21.0277 29.702 28.055C28.178 35.0823 27.0773 42.279 26.4 49.645C26.654 49.899 26.9927 50.0683 27.416 50.153C27.5853 49.7297 27.7547 49.3487 27.924 49.01C28.178 48.6713 28.3897 48.2903 28.559 47.867C29.4903 43.8877 30.4217 39.866 31.353 35.802C32.369 31.738 33.3427 27.674 34.274 23.61C34.8667 21.2393 35.671 19.1227 36.687 17.26C36.2637 22.594 35.417 27.8857 34.147 33.135C32.9617 38.3843 31.9033 43.803 30.972 49.391C31.8187 49.3063 32.496 49.3063 33.004 49.391C33.5967 49.391 34.147 49.3063 34.655 49.137C39.5657 48.2903 44.434 47.4437 49.26 46.597C54.1707 45.6657 59.1237 44.7767 64.119 43.93C65.3043 43.7607 66.2357 43.549 66.913 43.295C67.675 42.9563 68.2677 42.533 68.691 42.025C69.199 41.517 69.58 40.8397 69.834 39.993C70.1727 39.1463 70.469 38.088 70.723 36.818C71.993 30.8913 73.2207 25.007 74.406 19.165C75.676 13.2383 76.9883 7.354 78.343 1.512C78.343 1.08866 78.724 0.665332 79.486 0.241999C79.232 1.93533 78.978 3.58633 78.724 5.195C78.5547 6.80366 78.343 8.32766 78.089 9.767C78.2583 9.85166 78.47 9.894 78.724 9.894C79.0627 8.96266 79.4013 8.07366 79.74 7.22699C80.0787 6.38033 80.375 5.49133 80.629 4.56C80.883 4.64466 81.0947 4.72933 81.264 4.81399C81.4333 4.81399 81.6873 4.81399 82.026 4.81399ZM116.753 59.932C115.821 60.1013 114.678 60.2707 113.324 60.44C112.054 60.5247 111.08 60.6093 110.403 60.694H110.149C109.725 62.5567 109.048 64.6733 108.117 67.044C107.27 69.33 106.254 71.489 105.069 73.521C103.883 75.553 102.571 77.2887 101.132 78.728C99.6922 80.1673 98.2952 80.9717 96.9406 81.141C94.4852 81.4797 92.0722 81.4373 89.7016 81.014C87.3309 80.5907 85.2989 79.109 83.6056 76.569C82.1662 74.1983 81.3196 71.6583 81.0656 68.949C80.7269 66.155 80.8962 63.5303 81.5736 61.075C82.2509 58.6197 83.3516 56.503 84.8756 54.725C86.4842 52.947 88.4316 51.931 90.7176 51.677C90.2942 50.407 90.0826 48.9253 90.0826 47.232C90.1672 45.5387 90.5482 43.93 91.2256 42.406C91.9876 40.882 93.0459 39.612 94.4006 38.596C95.8399 37.58 97.7449 37.1143 100.116 37.199C102.74 37.3683 104.815 38.2573 106.339 39.866C107.863 41.39 108.963 43.168 109.641 45.2C110.318 47.232 110.699 49.264 110.784 51.296C110.953 53.2433 110.995 54.725 110.911 55.741C111.927 55.8257 112.9 55.868 113.832 55.868C114.763 55.868 115.737 55.9103 116.753 55.995C119.377 55.995 120.774 56.503 120.944 57.519C121.113 58.535 119.716 59.3393 116.753 59.932ZM93.0036 55.995C91.9876 57.8577 91.3102 59.805 90.9716 61.837C90.6329 63.7843 90.6329 65.647 90.9716 67.425C91.3102 69.1183 91.9029 70.6423 92.7496 71.997C93.6809 73.3517 94.8662 74.283 96.3056 74.791C97.4062 73.9443 98.3799 72.9283 99.2266 71.743C100.158 70.5577 100.92 69.2877 101.513 67.933C102.19 66.5783 102.74 65.266 103.164 63.996C103.587 62.726 103.926 61.6253 104.18 60.694C101.894 60.6093 99.6076 60.186 97.3216 59.424C95.1202 58.662 93.6809 57.519 93.0036 55.995ZM104.942 55.614C105.111 53.582 105.026 51.423 104.688 49.137C104.434 46.851 103.926 44.8613 103.164 43.168C102.232 41.3053 101.216 40.2893 100.116 40.12C99.0149 39.866 97.9989 40.12 97.0676 40.882C96.2209 41.644 95.5436 42.7447 95.0356 44.184C94.5276 45.6233 94.4852 47.0203 94.9086 48.375C95.4166 50.407 96.5596 52.185 98.3376 53.709C100.116 55.1483 102.317 55.7833 104.942 55.614ZM170.133 63.615C168.948 64.5463 167.763 65.139 166.577 65.393C165.477 65.647 164.334 65.7317 163.148 65.647C162.048 65.4777 160.905 65.1813 159.719 64.758C158.619 64.3347 157.476 63.9113 156.29 63.488C155.782 64.5887 155.274 65.6893 154.766 66.79C154.258 67.8907 153.793 69.076 153.369 70.346C152.692 72.378 151.845 74.2407 150.829 75.934C149.813 77.6273 148.543 79.0667 147.019 80.252C145.326 81.6913 143.717 82.1993 142.193 81.776C140.754 81.3527 139.569 80.0403 138.637 77.839C137.791 75.4683 137.113 72.759 136.605 69.711C136.267 68.5257 136.013 67.298 135.843 66.028C135.674 64.6733 135.42 63.1917 135.081 61.583C133.642 63.361 132.584 65.3083 131.906 67.425C131.314 69.457 130.679 71.4467 130.001 73.394C128.985 76.3573 127.842 78.3893 126.572 79.49C125.302 80.506 123.482 80.9717 121.111 80.887C118.825 80.887 117.471 79.4477 117.047 76.569C116.285 71.9123 115.947 67.3403 116.031 62.853C116.116 58.281 116.666 53.7937 117.682 49.391C117.852 48.7137 118.19 48.0787 118.698 47.486C119.291 46.8933 119.799 46.5123 120.222 46.343C121.069 46.089 121.958 46.0467 122.889 46.216C123.821 46.3007 124.879 46.343 126.064 46.343C125.895 50.2377 125.726 53.8783 125.556 57.265C125.387 60.567 125.218 63.869 125.048 67.171C125.218 67.2557 125.345 67.3827 125.429 67.552C125.514 67.6367 125.641 67.7213 125.81 67.806C126.234 67.1287 126.657 66.409 127.08 65.647C127.588 64.8003 128.054 63.9537 128.477 63.107C129.155 61.4137 129.79 59.8473 130.382 58.408C131.06 56.9687 131.779 55.5293 132.541 54.09C133.473 51.7193 134.489 50.153 135.589 49.391C136.69 48.629 138.553 48.248 141.177 48.248C141.601 52.3967 142.024 56.503 142.447 60.567C142.871 64.631 143.336 68.949 143.844 73.521C144.606 73.013 145.199 72.4203 145.622 71.743C146.046 71.0657 146.384 70.346 146.638 69.584C146.977 68.822 147.231 68.06 147.4 67.298C147.654 66.536 147.951 65.8163 148.289 65.139C148.797 63.615 149.305 62.1333 149.813 60.694C150.321 59.17 150.787 57.6037 151.21 55.995C151.718 54.3863 152.184 52.82 152.607 51.296C153.031 49.6873 153.539 47.9517 154.131 46.089C154.893 46.597 155.571 47.0627 156.163 47.486C156.841 47.8247 157.518 48.2057 158.195 48.629C159.127 49.4757 159.804 50.2377 160.227 50.915C160.735 51.5923 160.354 52.82 159.084 54.598C158.153 55.7833 157.899 57.0533 158.322 58.408C158.83 59.678 159.804 60.4823 161.243 60.821C162.767 61.2443 164.249 61.71 165.688 62.218C167.128 62.726 168.609 63.1917 170.133 63.615ZM142.193 76.061C142.363 76.061 142.447 76.0187 142.447 75.934C142.447 75.8493 142.532 75.807 142.701 75.807C142.701 75.4683 142.701 75.1297 142.701 74.791C142.701 74.3677 142.617 73.9443 142.447 73.521C142.447 73.1823 142.363 72.886 142.193 72.632C142.024 72.2933 141.855 71.9547 141.685 71.616C141.516 71.7853 141.389 71.87 141.304 71.87C141.304 71.87 141.262 71.9123 141.177 71.997C141.347 72.6743 141.516 73.3517 141.685 74.029C141.855 74.6217 142.024 75.299 142.193 76.061ZM205.288 32.373C204.357 32.373 203.553 32.3307 202.875 32.246C202.283 32.1613 201.69 32.2037 201.097 32.373C197.626 33.0503 194.239 33.77 190.937 34.532C187.551 35.294 184.122 36.056 180.65 36.818C179.888 36.9873 179.296 37.1143 178.872 37.199C178.449 37.2837 178.068 37.2413 177.729 37.072C177.391 36.9027 177.052 36.6063 176.713 36.183C176.375 35.675 175.951 34.9977 175.443 34.151C176.036 33.8123 176.629 33.4737 177.221 33.135C177.729 32.7963 178.28 32.5423 178.872 32.373C181.158 31.6957 183.444 31.103 185.73 30.595C188.016 30.087 190.302 29.5367 192.588 28.944C193.266 28.8593 194.112 28.69 195.128 28.436C196.144 28.182 197.245 27.928 198.43 27.674C199.616 27.42 200.801 27.166 201.986 26.912C203.172 26.658 204.23 26.4463 205.161 26.277C205.246 25.515 205.373 24.5837 205.542 23.483C205.796 22.3823 206.093 21.2817 206.431 20.181C206.77 18.9957 207.151 17.895 207.574 16.879C207.998 15.863 208.463 14.974 208.971 14.212L211.003 21.959C211.342 23.3983 211.681 24.2873 212.019 24.626C212.358 24.88 213.205 24.9223 214.559 24.753C217.438 24.4143 220.274 24.0757 223.068 23.737C225.862 23.3137 228.699 23.0173 231.577 22.848C235.387 22.6787 239.155 22.594 242.88 22.594C246.69 22.5093 250.5 22.3823 254.31 22.213C255.496 22.213 256.512 22.467 257.358 22.975C258.205 23.3983 258.798 24.3297 259.136 25.769C256.596 25.9383 254.056 26.0653 251.516 26.15C248.976 26.2347 246.479 26.404 244.023 26.658C241.568 26.912 238.943 27.2507 236.149 27.674C233.355 28.0973 230.519 28.5207 227.64 28.944C224.762 29.2827 221.925 29.6637 219.131 30.087C216.337 30.4257 213.67 30.722 211.13 30.976C210.453 35.4633 209.776 39.5697 209.098 43.295C208.506 46.9357 207.955 50.534 207.447 54.09C207.024 57.5613 206.685 61.1173 206.431 64.758C206.177 68.314 206.05 72.2087 206.05 76.442C206.22 77.2887 206.558 77.458 207.066 76.95C207.659 76.442 208.336 75.553 209.098 74.283C209.86 73.013 210.665 71.489 211.511 69.711C212.358 67.8483 213.205 65.9857 214.051 64.123C214.898 62.2603 215.66 60.567 216.337 59.043C217.099 57.4343 217.692 56.2067 218.115 55.36C219.047 55.6987 219.639 56.249 219.893 57.011C220.147 57.6883 220.147 58.3657 219.893 59.043L212.019 78.474C211.427 79.744 210.792 80.8447 210.114 81.776C209.437 82.792 208.633 83.554 207.701 84.062C206.77 84.4853 205.796 84.697 204.78 84.697C203.849 84.6123 202.918 84.316 201.986 83.808C201.14 83.2153 200.462 82.411 199.954 81.395C198.854 79.2783 198.261 77.077 198.176 74.791C198.007 71.997 198.007 68.7797 198.176 65.139C198.261 61.4983 198.515 57.773 198.938 53.963C199.362 50.153 199.912 46.47 200.589 42.914C201.267 39.358 201.986 36.2253 202.748 33.516C202.918 33.1773 203.129 32.9657 203.383 32.881C203.637 32.7117 203.764 33.0503 203.764 33.897C203.764 34.405 203.68 35.04 203.51 35.802C203.426 36.564 203.299 37.326 203.129 38.088C202.96 38.85 202.791 39.612 202.621 40.374C202.537 41.0513 202.494 41.6017 202.494 42.025C202.579 42.8717 202.706 43.2527 202.875 43.168C203.045 42.9987 203.214 42.7023 203.383 42.279C203.468 42.025 203.595 41.4323 203.764 40.501C204.018 39.5697 204.23 38.596 204.399 37.58C204.653 36.4793 204.865 35.4633 205.034 34.532C205.204 33.516 205.288 32.7963 205.288 32.373ZM250.698 59.932C249.767 60.1013 248.624 60.2707 247.269 60.44C245.999 60.5247 245.025 60.6093 244.348 60.694H244.094C243.671 62.5567 242.993 64.6733 242.062 67.044C241.215 69.33 240.199 71.489 239.014 73.521C237.829 75.553 236.516 77.2887 235.077 78.728C233.638 80.1673 232.241 80.9717 230.886 81.141C228.431 81.4797 226.018 81.4373 223.647 81.014C221.276 80.5907 219.244 79.109 217.551 76.569C216.112 74.1983 215.265 71.6583 215.011 68.949C214.672 66.155 214.842 63.5303 215.519 61.075C216.196 58.6197 217.297 56.503 218.821 54.725C220.43 52.947 222.377 51.931 224.663 51.677C224.24 50.407 224.028 48.9253 224.028 47.232C224.113 45.5387 224.494 43.93 225.171 42.406C225.933 40.882 226.991 39.612 228.346 38.596C229.785 37.58 231.69 37.1143 234.061 37.199C236.686 37.3683 238.76 38.2573 240.284 39.866C241.808 41.39 242.909 43.168 243.586 45.2C244.263 47.232 244.644 49.264 244.729 51.296C244.898 53.2433 244.941 54.725 244.856 55.741C245.872 55.8257 246.846 55.868 247.777 55.868C248.708 55.868 249.682 55.9103 250.698 55.995C253.323 55.995 254.72 56.503 254.889 57.519C255.058 58.535 253.661 59.3393 250.698 59.932ZM226.949 55.995C225.933 57.8577 225.256 59.805 224.917 61.837C224.578 63.7843 224.578 65.647 224.917 67.425C225.256 69.1183 225.848 70.6423 226.695 71.997C227.626 73.3517 228.812 74.283 230.251 74.791C231.352 73.9443 232.325 72.9283 233.172 71.743C234.103 70.5577 234.865 69.2877 235.458 67.933C236.135 66.5783 236.686 65.266 237.109 63.996C237.532 62.726 237.871 61.6253 238.125 60.694C235.839 60.6093 233.553 60.186 231.267 59.424C229.066 58.662 227.626 57.519 226.949 55.995ZM238.887 55.614C239.056 53.582 238.972 51.423 238.633 49.137C238.379 46.851 237.871 44.8613 237.109 43.168C236.178 41.3053 235.162 40.2893 234.061 40.12C232.96 39.866 231.944 40.12 231.013 40.882C230.166 41.644 229.489 42.7447 228.981 44.184C228.473 45.6233 228.431 47.0203 228.854 48.375C229.362 50.407 230.505 52.185 232.283 53.709C234.061 55.1483 236.262 55.7833 238.887 55.614Z" fill="white"/>
</svg>
