<svg xmlns="http://www.w3.org/2000/svg" width="588" height="357" viewBox="0 0 588 357" fill="none" style="&#10;">
<path d="M89.026 4.81399C88.4333 8.62399 87.883 12.307 87.375 15.863C86.867 19.419 86.359 23.0597 85.851 26.785C85.4277 30.4257 84.7927 33.8547 83.946 37.072C83.692 38.7653 83.6073 40.374 83.692 41.898C83.7767 43.3373 84.708 44.6497 86.486 45.835C85.724 46.2583 85.0043 46.6817 84.327 47.105C83.7343 47.4437 83.2687 47.8247 82.93 48.248C82.5067 48.756 82.2527 49.391 82.168 50.153C82.168 50.915 82.0833 51.6347 81.914 52.312C81.3213 57.646 80.6863 62.8953 80.009 68.06C79.3317 73.2247 78.739 78.474 78.231 83.808C78.0617 85.5013 78.0193 87.2793 78.104 89.142C78.1887 91.0047 78.231 92.7827 78.231 94.476C76.7917 95.5767 75.3947 96.0847 74.04 96C72.77 96 71.4153 95.7883 69.976 95.365C69.214 91.4703 69.0023 87.618 69.341 83.808C69.7643 79.9133 70.1877 76.061 70.611 72.251C71.0343 68.3563 71.5423 64.5463 72.135 60.821C72.7277 57.0957 73.3203 53.201 73.913 49.137C73.405 49.0523 72.897 48.9677 72.389 48.883C71.881 48.7983 71.2883 48.8407 70.611 49.01C65.3617 50.026 60.1547 51.0843 54.99 52.185C49.8253 53.201 44.576 54.2593 39.242 55.36C37.2947 55.6987 36.067 57.011 35.559 59.297C35.305 60.6517 34.9663 61.964 34.543 63.234C34.2043 64.4193 33.8233 65.6893 33.4 67.044C33.2307 67.044 33.0613 67.044 32.892 67.044C32.8073 66.9593 32.6803 66.917 32.511 66.917C32.6803 65.3083 32.8073 63.7843 32.892 62.345C33.0613 60.821 33.273 59.2547 33.527 57.646C32.0877 59.5087 31.241 61.4983 30.987 63.615C30.8177 65.7317 30.5637 67.8483 30.225 69.965C29.8017 72.251 29.4207 74.537 29.082 76.823C28.828 79.109 28.574 81.395 28.32 83.681C28.1507 85.8823 28.0237 88.0837 27.939 90.285C27.8543 92.4863 27.7273 94.6877 27.558 96.889C24.002 96.8043 21.5467 96.127 20.192 94.857C18.922 93.587 18.3293 91.174 18.414 87.618C18.414 84.062 18.541 80.5483 18.795 77.077C19.1337 73.6057 19.3877 70.092 19.557 66.536C19.7263 65.6047 19.8533 64.7157 19.938 63.869C20.0227 62.9377 20.1497 61.837 20.319 60.567C19.049 60.9903 17.8637 61.3713 16.763 61.71C15.747 62.0487 14.7733 62.3027 13.842 62.472C13.08 62.6413 12.2757 62.726 11.429 62.726C10.667 62.6413 9.98967 62.472 9.397 62.218C8.381 61.8793 7.873 61.2867 7.873 60.44C7.78833 59.5933 8.21167 58.916 9.143 58.408C10.2437 57.8153 11.3867 57.2227 12.572 56.63C13.842 56.0373 15.1543 55.6563 16.509 55.487C18.4563 55.0637 19.8957 54.2593 20.827 53.074C21.843 51.804 22.5627 50.026 22.986 47.74C24.1713 42.152 25.4413 36.6487 26.796 31.23C28.1507 25.7267 29.5477 20.181 30.987 14.593C31.241 13.831 31.495 13.069 31.749 12.307C32.003 11.4603 32.2993 10.6137 32.638 9.767C33.908 7.05766 35.178 5.49133 36.448 5.068C37.718 4.64466 39.496 5.322 41.782 7.09999C39.9193 14.0427 38.226 21.0277 36.702 28.055C35.178 35.0823 34.0773 42.279 33.4 49.645C33.654 49.899 33.9927 50.0683 34.416 50.153C34.5853 49.7297 34.7547 49.3487 34.924 49.01C35.178 48.6713 35.3897 48.2903 35.559 47.867C36.4903 43.8877 37.4217 39.866 38.353 35.802C39.369 31.738 40.3427 27.674 41.274 23.61C41.8667 21.2393 42.671 19.1227 43.687 17.26C43.2637 22.594 42.417 27.8857 41.147 33.135C39.9617 38.3843 38.9033 43.803 37.972 49.391C38.8187 49.3063 39.496 49.3063 40.004 49.391C40.5967 49.391 41.147 49.3063 41.655 49.137C46.5657 48.2903 51.434 47.4437 56.26 46.597C61.1707 45.6657 66.1237 44.7767 71.119 43.93C72.3043 43.7607 73.2357 43.549 73.913 43.295C74.675 42.9563 75.2677 42.533 75.691 42.025C76.199 41.517 76.58 40.8397 76.834 39.993C77.1727 39.1463 77.469 38.088 77.723 36.818C78.993 30.8913 80.2207 25.007 81.406 19.165C82.676 13.2383 83.9883 7.354 85.343 1.512C85.343 1.08866 85.724 0.665332 86.486 0.241999C86.232 1.93533 85.978 3.58633 85.724 5.195C85.5547 6.80366 85.343 8.32766 85.089 9.767C85.2583 9.85166 85.47 9.894 85.724 9.894C86.0627 8.96266 86.4013 8.07366 86.74 7.22699C87.0787 6.38033 87.375 5.49133 87.629 4.56C87.883 4.64466 88.0947 4.72933 88.264 4.81399C88.4333 4.81399 88.6873 4.81399 89.026 4.81399ZM123.753 59.932C122.821 60.1013 121.678 60.2707 120.324 60.44C119.054 60.5247 118.08 60.6093 117.403 60.694H117.149C116.725 62.5567 116.048 64.6733 115.117 67.044C114.27 69.33 113.254 71.489 112.069 73.521C110.883 75.553 109.571 77.2887 108.132 78.728C106.692 80.1673 105.295 80.9717 103.941 81.141C101.485 81.4797 99.0722 81.4373 96.7016 81.014C94.3309 80.5907 92.2989 79.109 90.6056 76.569C89.1662 74.1983 88.3196 71.6583 88.0656 68.949C87.7269 66.155 87.8962 63.5303 88.5736 61.075C89.2509 58.6197 90.3516 56.503 91.8756 54.725C93.4842 52.947 95.4316 51.931 97.7176 51.677C97.2942 50.407 97.0826 48.9253 97.0826 47.232C97.1672 45.5387 97.5482 43.93 98.2256 42.406C98.9876 40.882 100.046 39.612 101.401 38.596C102.84 37.58 104.745 37.1143 107.116 37.199C109.74 37.3683 111.815 38.2573 113.339 39.866C114.863 41.39 115.963 43.168 116.641 45.2C117.318 47.232 117.699 49.264 117.784 51.296C117.953 53.2433 117.995 54.725 117.911 55.741C118.927 55.8257 119.9 55.868 120.832 55.868C121.763 55.868 122.737 55.9103 123.753 55.995C126.377 55.995 127.774 56.503 127.944 57.519C128.113 58.535 126.716 59.3393 123.753 59.932ZM100.004 55.995C98.9876 57.8577 98.3102 59.805 97.9716 61.837C97.6329 63.7843 97.6329 65.647 97.9716 67.425C98.3102 69.1183 98.9029 70.6423 99.7496 71.997C100.681 73.3517 101.866 74.283 103.306 74.791C104.406 73.9443 105.38 72.9283 106.227 71.743C107.158 70.5577 107.92 69.2877 108.513 67.933C109.19 66.5783 109.74 65.266 110.164 63.996C110.587 62.726 110.926 61.6253 111.18 60.694C108.894 60.6093 106.608 60.186 104.322 59.424C102.12 58.662 100.681 57.519 100.004 55.995ZM111.942 55.614C112.111 53.582 112.026 51.423 111.688 49.137C111.434 46.851 110.926 44.8613 110.164 43.168C109.232 41.3053 108.216 40.2893 107.116 40.12C106.015 39.866 104.999 40.12 104.068 40.882C103.221 41.644 102.544 42.7447 102.036 44.184C101.528 45.6233 101.485 47.0203 101.909 48.375C102.417 50.407 103.56 52.185 105.338 53.709C107.116 55.1483 109.317 55.7833 111.942 55.614ZM177.133 63.615C175.948 64.5463 174.763 65.139 173.577 65.393C172.477 65.647 171.334 65.7317 170.148 65.647C169.048 65.4777 167.905 65.1813 166.719 64.758C165.619 64.3347 164.476 63.9113 163.29 63.488C162.782 64.5887 162.274 65.6893 161.766 66.79C161.258 67.8907 160.793 69.076 160.369 70.346C159.692 72.378 158.845 74.2407 157.829 75.934C156.813 77.6273 155.543 79.0667 154.019 80.252C152.326 81.6913 150.717 82.1993 149.193 81.776C147.754 81.3527 146.569 80.0403 145.637 77.839C144.791 75.4683 144.113 72.759 143.605 69.711C143.267 68.5257 143.013 67.298 142.843 66.028C142.674 64.6733 142.42 63.1917 142.081 61.583C140.642 63.361 139.584 65.3083 138.906 67.425C138.314 69.457 137.679 71.4467 137.001 73.394C135.985 76.3573 134.842 78.3893 133.572 79.49C132.302 80.506 130.482 80.9717 128.111 80.887C125.825 80.887 124.471 79.4477 124.047 76.569C123.285 71.9123 122.947 67.3403 123.031 62.853C123.116 58.281 123.666 53.7937 124.682 49.391C124.852 48.7137 125.19 48.0787 125.698 47.486C126.291 46.8933 126.799 46.5123 127.222 46.343C128.069 46.089 128.958 46.0467 129.889 46.216C130.821 46.3007 131.879 46.343 133.064 46.343C132.895 50.2377 132.726 53.8783 132.556 57.265C132.387 60.567 132.218 63.869 132.048 67.171C132.218 67.2557 132.345 67.3827 132.429 67.552C132.514 67.6367 132.641 67.7213 132.81 67.806C133.234 67.1287 133.657 66.409 134.08 65.647C134.588 64.8003 135.054 63.9537 135.477 63.107C136.155 61.4137 136.79 59.8473 137.382 58.408C138.06 56.9687 138.779 55.5293 139.541 54.09C140.473 51.7193 141.489 50.153 142.589 49.391C143.69 48.629 145.553 48.248 148.177 48.248C148.601 52.3967 149.024 56.503 149.447 60.567C149.871 64.631 150.336 68.949 150.844 73.521C151.606 73.013 152.199 72.4203 152.622 71.743C153.046 71.0657 153.384 70.346 153.638 69.584C153.977 68.822 154.231 68.06 154.4 67.298C154.654 66.536 154.951 65.8163 155.289 65.139C155.797 63.615 156.305 62.1333 156.813 60.694C157.321 59.17 157.787 57.6037 158.21 55.995C158.718 54.3863 159.184 52.82 159.607 51.296C160.031 49.6873 160.539 47.9517 161.131 46.089C161.893 46.597 162.571 47.0627 163.163 47.486C163.841 47.8247 164.518 48.2057 165.195 48.629C166.127 49.4757 166.804 50.2377 167.227 50.915C167.735 51.5923 167.354 52.82 166.084 54.598C165.153 55.7833 164.899 57.0533 165.322 58.408C165.83 59.678 166.804 60.4823 168.243 60.821C169.767 61.2443 171.249 61.71 172.688 62.218C174.128 62.726 175.609 63.1917 177.133 63.615ZM149.193 76.061C149.363 76.061 149.447 76.0187 149.447 75.934C149.447 75.8493 149.532 75.807 149.701 75.807C149.701 75.4683 149.701 75.1297 149.701 74.791C149.701 74.3677 149.617 73.9443 149.447 73.521C149.447 73.1823 149.363 72.886 149.193 72.632C149.024 72.2933 148.855 71.9547 148.685 71.616C148.516 71.7853 148.389 71.87 148.304 71.87C148.304 71.87 148.262 71.9123 148.177 71.997C148.347 72.6743 148.516 73.3517 148.685 74.029C148.855 74.6217 149.024 75.299 149.193 76.061ZM212.288 32.373C211.357 32.373 210.553 32.3307 209.875 32.246C209.283 32.1613 208.69 32.2037 208.097 32.373C204.626 33.0503 201.239 33.77 197.937 34.532C194.551 35.294 191.122 36.056 187.65 36.818C186.888 36.9873 186.296 37.1143 185.872 37.199C185.449 37.2837 185.068 37.2413 184.729 37.072C184.391 36.9027 184.052 36.6063 183.713 36.183C183.375 35.675 182.951 34.9977 182.443 34.151C183.036 33.8123 183.629 33.4737 184.221 33.135C184.729 32.7963 185.28 32.5423 185.872 32.373C188.158 31.6957 190.444 31.103 192.73 30.595C195.016 30.087 197.302 29.5367 199.588 28.944C200.266 28.8593 201.112 28.69 202.128 28.436C203.144 28.182 204.245 27.928 205.43 27.674C206.616 27.42 207.801 27.166 208.986 26.912C210.172 26.658 211.23 26.4463 212.161 26.277C212.246 25.515 212.373 24.5837 212.542 23.483C212.796 22.3823 213.093 21.2817 213.431 20.181C213.77 18.9957 214.151 17.895 214.574 16.879C214.998 15.863 215.463 14.974 215.971 14.212L218.003 21.959C218.342 23.3983 218.681 24.2873 219.019 24.626C219.358 24.88 220.205 24.9223 221.559 24.753C224.438 24.4143 227.274 24.0757 230.068 23.737C232.862 23.3137 235.699 23.0173 238.577 22.848C242.387 22.6787 246.155 22.594 249.88 22.594C253.69 22.5093 257.5 22.3823 261.31 22.213C262.496 22.213 263.512 22.467 264.358 22.975C265.205 23.3983 265.798 24.3297 266.136 25.769C263.596 25.9383 261.056 26.0653 258.516 26.15C255.976 26.2347 253.479 26.404 251.023 26.658C248.568 26.912 245.943 27.2507 243.149 27.674C240.355 28.0973 237.519 28.5207 234.64 28.944C231.762 29.2827 228.925 29.6637 226.131 30.087C223.337 30.4257 220.67 30.722 218.13 30.976C217.453 35.4633 216.776 39.5697 216.098 43.295C215.506 46.9357 214.955 50.534 214.447 54.09C214.024 57.5613 213.685 61.1173 213.431 64.758C213.177 68.314 213.05 72.2087 213.05 76.442C213.22 77.2887 213.558 77.458 214.066 76.95C214.659 76.442 215.336 75.553 216.098 74.283C216.86 73.013 217.665 71.489 218.511 69.711C219.358 67.8483 220.205 65.9857 221.051 64.123C221.898 62.2603 222.66 60.567 223.337 59.043C224.099 57.4343 224.692 56.2067 225.115 55.36C226.047 55.6987 226.639 56.249 226.893 57.011C227.147 57.6883 227.147 58.3657 226.893 59.043L219.019 78.474C218.427 79.744 217.792 80.8447 217.114 81.776C216.437 82.792 215.633 83.554 214.701 84.062C213.77 84.4853 212.796 84.697 211.78 84.697C210.849 84.6123 209.918 84.316 208.986 83.808C208.14 83.2153 207.462 82.411 206.954 81.395C205.854 79.2783 205.261 77.077 205.176 74.791C205.007 71.997 205.007 68.7797 205.176 65.139C205.261 61.4983 205.515 57.773 205.938 53.963C206.362 50.153 206.912 46.47 207.589 42.914C208.267 39.358 208.986 36.2253 209.748 33.516C209.918 33.1773 210.129 32.9657 210.383 32.881C210.637 32.7117 210.764 33.0503 210.764 33.897C210.764 34.405 210.68 35.04 210.51 35.802C210.426 36.564 210.299 37.326 210.129 38.088C209.96 38.85 209.791 39.612 209.621 40.374C209.537 41.0513 209.494 41.6017 209.494 42.025C209.579 42.8717 209.706 43.2527 209.875 43.168C210.045 42.9987 210.214 42.7023 210.383 42.279C210.468 42.025 210.595 41.4323 210.764 40.501C211.018 39.5697 211.23 38.596 211.399 37.58C211.653 36.4793 211.865 35.4633 212.034 34.532C212.204 33.516 212.288 32.7963 212.288 32.373ZM257.698 59.932C256.767 60.1013 255.624 60.2707 254.269 60.44C252.999 60.5247 252.025 60.6093 251.348 60.694H251.094C250.671 62.5567 249.993 64.6733 249.062 67.044C248.215 69.33 247.199 71.489 246.014 73.521C244.829 75.553 243.516 77.2887 242.077 78.728C240.638 80.1673 239.241 80.9717 237.886 81.141C235.431 81.4797 233.018 81.4373 230.647 81.014C228.276 80.5907 226.244 79.109 224.551 76.569C223.112 74.1983 222.265 71.6583 222.011 68.949C221.672 66.155 221.842 63.5303 222.519 61.075C223.196 58.6197 224.297 56.503 225.821 54.725C227.43 52.947 229.377 51.931 231.663 51.677C231.24 50.407 231.028 48.9253 231.028 47.232C231.113 45.5387 231.494 43.93 232.171 42.406C232.933 40.882 233.991 39.612 235.346 38.596C236.785 37.58 238.69 37.1143 241.061 37.199C243.686 37.3683 245.76 38.2573 247.284 39.866C248.808 41.39 249.909 43.168 250.586 45.2C251.263 47.232 251.644 49.264 251.729 51.296C251.898 53.2433 251.941 54.725 251.856 55.741C252.872 55.8257 253.846 55.868 254.777 55.868C255.708 55.868 256.682 55.9103 257.698 55.995C260.323 55.995 261.72 56.503 261.889 57.519C262.058 58.535 260.661 59.3393 257.698 59.932ZM233.949 55.995C232.933 57.8577 232.256 59.805 231.917 61.837C231.578 63.7843 231.578 65.647 231.917 67.425C232.256 69.1183 232.848 70.6423 233.695 71.997C234.626 73.3517 235.812 74.283 237.251 74.791C238.352 73.9443 239.325 72.9283 240.172 71.743C241.103 70.5577 241.865 69.2877 242.458 67.933C243.135 66.5783 243.686 65.266 244.109 63.996C244.532 62.726 244.871 61.6253 245.125 60.694C242.839 60.6093 240.553 60.186 238.267 59.424C236.066 58.662 234.626 57.519 233.949 55.995ZM245.887 55.614C246.056 53.582 245.972 51.423 245.633 49.137C245.379 46.851 244.871 44.8613 244.109 43.168C243.178 41.3053 242.162 40.2893 241.061 40.12C239.96 39.866 238.944 40.12 238.013 40.882C237.166 41.644 236.489 42.7447 235.981 44.184C235.473 45.6233 235.431 47.0203 235.854 48.375C236.362 50.407 237.505 52.185 239.283 53.709C241.061 55.1483 243.262 55.7833 245.887 55.614Z" fill="white"/>
<g filter="url(#filter0_d_523_8682)">
<path d="M44.756 189.516L48.99 212H67.532L48.406 113.596H25.484L4.168 212H22.71L27.09 189.516H44.756ZM28.988 174.624L32.638 154.038C33.66 148.344 35.12 138.27 36.142 131.7H36.58C37.456 138.124 38.77 148.052 39.792 154.038L43.004 174.624H28.988ZM78.3371 211.562C82.1331 212.146 88.1191 212.73 94.2511 212.73C107.829 212.73 117.465 209.518 124.181 203.24C132.795 195.648 137.905 181.486 137.905 161.63C137.905 142.504 133.525 129.51 125.057 121.918C118.779 116.078 110.165 113.158 97.7551 113.158C90.1631 113.158 83.1551 113.888 78.3371 115.056V211.562ZM97.4631 128.926C98.6311 128.488 99.9451 128.488 101.259 128.488C112.793 128.488 118.049 140.752 118.049 160.9C118.049 188.056 110.019 197.108 100.821 197.108C99.7991 197.108 98.4851 197.108 97.4631 196.816V128.926ZM185.24 212L207.724 113.596H186.7L179.984 155.644C178.232 166.74 176.626 178.566 175.312 190.246H175.02C173.706 178.712 171.662 166.74 170.056 156.082L163.048 113.596H141.878L163.778 212H185.24ZM247.074 189.516L251.308 212H269.85L250.724 113.596H227.802L206.486 212H225.028L229.408 189.516H247.074ZM231.306 174.624L234.956 154.038C235.978 148.344 237.438 138.27 238.46 131.7H238.898C239.774 138.124 241.088 148.052 242.11 154.038L245.322 174.624H231.306ZM297.446 212V189.954C297.446 170.098 296.716 154.914 296.132 144.986H296.424C298.76 153.746 303.14 166.302 306.498 174.624L321.536 212H339.056V113.596H322.266V135.35C322.266 153.454 323.58 170.536 324.164 180.902H323.872C321.098 172.434 316.426 159.732 313.36 152.14L298.176 113.596H280.656V212H297.446ZM401.197 194.48C398.861 195.21 395.211 195.94 391.999 195.94C380.319 195.94 371.413 186.742 371.413 163.236C371.413 138.854 381.195 129.51 391.999 129.51C396.233 129.51 398.715 130.386 400.905 131.408L404.117 115.348C402.219 114.034 397.547 112.72 390.831 112.72C371.705 112.72 351.119 127.174 351.119 164.258C351.119 192.29 363.091 212.876 388.349 212.876C394.919 212.876 400.321 211.854 403.095 210.54L401.197 194.48ZM455.002 152.87H432.664V130.24H456.316V113.596H413.538V212H457.922V195.356H432.664V168.784H455.002V152.87Z" fill="#02B8FA"/>
<path d="M44.756 189.516L46.7215 189.146L46.4145 187.516H44.756V189.516ZM48.99 212L47.0245 212.37L47.3315 214H48.99V212ZM67.532 212V214H69.9582L69.4953 211.618L67.532 212ZM48.406 113.596L50.3693 113.214L50.0547 111.596H48.406V113.596ZM25.484 113.596V111.596H23.8709L23.5293 113.173L25.484 113.596ZM4.168 212L2.21333 211.577L1.68838 214H4.168V212ZM22.71 212V214H24.358L24.6731 212.382L22.71 212ZM27.09 189.516V187.516H25.442L25.1269 189.134L27.09 189.516ZM28.988 174.624L27.0187 174.275L26.6022 176.624H28.988V174.624ZM32.638 154.038L30.6695 153.685L30.6687 153.689L32.638 154.038ZM36.142 131.7V129.7H34.4291L34.1658 131.393L36.142 131.7ZM36.58 131.7L38.5617 131.43L38.3258 129.7H36.58V131.7ZM39.792 154.038L41.7681 153.73L41.7659 153.716L41.7635 153.701L39.792 154.038ZM43.004 174.624V176.624H45.3403L44.9801 174.316L43.004 174.624ZM42.7905 189.886L47.0245 212.37L50.9555 211.63L46.7215 189.146L42.7905 189.886ZM48.99 214H67.532V210H48.99V214ZM69.4953 211.618L50.3693 113.214L46.4427 113.978L65.5687 212.382L69.4953 211.618ZM48.406 111.596H25.484V115.596H48.406V111.596ZM23.5293 113.173L2.21333 211.577L6.12267 212.423L27.4387 114.019L23.5293 113.173ZM4.168 214H22.71V210H4.168V214ZM24.6731 212.382L29.0531 189.898L25.1269 189.134L20.7469 211.618L24.6731 212.382ZM27.09 191.516H44.756V187.516H27.09V191.516ZM30.9573 174.973L34.6073 154.387L30.6687 153.689L27.0187 174.275L30.9573 174.973ZM34.6065 154.391C35.6339 148.667 37.103 138.534 38.1182 132.007L34.1658 131.393C33.137 138.006 31.6861 148.021 30.6695 153.685L34.6065 154.391ZM36.142 133.7H36.58V129.7H36.142V133.7ZM34.5983 131.97C35.4709 138.369 36.7912 148.346 37.8205 154.375L41.7635 153.701C40.7488 147.758 39.4411 137.879 38.5617 131.43L34.5983 131.97ZM37.8159 154.346L41.0279 174.932L44.9801 174.316L41.7681 153.73L37.8159 154.346ZM43.004 172.624H28.988V176.624H43.004V172.624ZM78.3371 211.562H76.3371V213.278L78.033 213.539L78.3371 211.562ZM124.181 203.24L122.859 201.74L122.837 201.759L122.815 201.779L124.181 203.24ZM125.057 121.918L123.695 123.382L123.708 123.395L123.722 123.407L125.057 121.918ZM78.3371 115.056L77.8659 113.112L76.3371 113.483V115.056H78.3371ZM97.4631 128.926L96.7609 127.053L95.4631 127.54V128.926H97.4631ZM97.4631 196.816H95.4631V198.325L96.9137 198.739L97.4631 196.816ZM78.033 213.539C81.9202 214.137 88.0082 214.73 94.2511 214.73V210.73C88.2301 210.73 82.3461 210.155 78.6413 209.585L78.033 213.539ZM94.2511 214.73C108.134 214.73 118.335 211.442 125.547 204.701L122.815 201.779C116.595 207.594 107.524 210.73 94.2511 210.73V214.73ZM125.504 204.74C134.741 196.599 139.905 181.741 139.905 161.63H135.905C135.905 181.231 130.85 194.697 122.859 201.74L125.504 204.74ZM139.905 161.63C139.905 142.274 135.483 128.579 126.392 120.429L123.722 123.407C131.567 130.441 135.905 142.734 135.905 161.63H139.905ZM126.419 120.454C119.655 114.161 110.485 111.158 97.7551 111.158V115.158C109.845 115.158 117.904 117.995 123.695 123.382L126.419 120.454ZM97.7551 111.158C90.062 111.158 82.8856 111.895 77.8659 113.112L78.8083 117C83.4247 115.881 90.2643 115.158 97.7551 115.158V111.158ZM76.3371 115.056V211.562H80.3371V115.056H76.3371ZM98.1654 130.799C98.9326 130.511 99.8651 130.488 101.259 130.488V126.488C100.025 126.488 98.3297 126.465 96.7609 127.053L98.1654 130.799ZM101.259 130.488C103.767 130.488 105.855 131.148 107.61 132.363C109.382 133.591 110.92 135.458 112.186 138.024C114.741 143.201 116.049 150.941 116.049 160.9H120.049C120.049 150.711 118.729 142.245 115.773 136.253C114.283 133.234 112.344 130.777 109.887 129.075C107.413 127.361 104.518 126.488 101.259 126.488V130.488ZM116.049 160.9C116.049 174.337 114.053 182.99 111.138 188.213C108.295 193.308 104.618 195.108 100.821 195.108V199.108C106.223 199.108 111.16 196.382 114.631 190.162C118.03 184.07 120.049 174.619 120.049 160.9H116.049ZM100.821 195.108C99.722 195.108 98.7118 195.093 98.0126 194.893L96.9137 198.739C98.2585 199.123 99.8763 199.108 100.821 199.108V195.108ZM99.4631 196.816V128.926H95.4631V196.816H99.4631ZM185.24 212V214H186.835L187.19 212.445L185.24 212ZM207.724 113.596L209.674 114.041L210.232 111.596H207.724V113.596ZM186.7 113.596V111.596H184.994L184.725 113.281L186.7 113.596ZM179.984 155.644L178.009 155.329L178.008 155.332L179.984 155.644ZM175.312 190.246V192.246H177.1L177.299 190.47L175.312 190.246ZM175.02 190.246L173.033 190.472L173.235 192.246H175.02V190.246ZM170.056 156.082L172.034 155.784L172.032 155.77L172.029 155.756L170.056 156.082ZM163.048 113.596L165.021 113.27L164.745 111.596H163.048V113.596ZM141.878 113.596V111.596H139.384L139.926 114.03L141.878 113.596ZM163.778 212L161.826 212.434L162.174 214H163.778V212ZM187.19 212.445L209.674 114.041L205.774 113.151L183.29 211.555L187.19 212.445ZM207.724 111.596H186.7V115.596H207.724V111.596ZM184.725 113.281L178.009 155.329L181.959 155.959L188.675 113.911L184.725 113.281ZM178.008 155.332C176.252 166.457 174.642 178.313 173.324 190.022L177.299 190.47C178.61 178.819 180.212 167.023 181.959 155.956L178.008 155.332ZM175.312 188.246H175.02V192.246H175.312V188.246ZM177.007 190.02C175.688 178.438 173.631 166.388 172.034 155.784L168.078 156.38C169.692 167.092 171.724 178.986 173.033 190.472L177.007 190.02ZM172.029 155.756L165.021 113.27L161.075 113.921L168.083 156.407L172.029 155.756ZM163.048 111.596H141.878V115.596H163.048V111.596ZM139.926 114.03L161.826 212.434L165.73 211.566L143.83 113.162L139.926 114.03ZM163.778 214H185.24V210H163.778V214ZM247.074 189.516L249.04 189.146L248.733 187.516H247.074V189.516ZM251.308 212L249.343 212.37L249.65 214H251.308V212ZM269.85 212V214H272.277L271.814 211.618L269.85 212ZM250.724 113.596L252.688 113.214L252.373 111.596H250.724V113.596ZM227.802 113.596V111.596H226.189L225.848 113.173L227.802 113.596ZM206.486 212L204.532 211.577L204.007 214H206.486V212ZM225.028 212V214H226.676L226.991 212.382L225.028 212ZM229.408 189.516V187.516H227.76L227.445 189.134L229.408 189.516ZM231.306 174.624L229.337 174.275L228.921 176.624H231.306V174.624ZM234.956 154.038L232.988 153.685L232.987 153.689L234.956 154.038ZM238.46 131.7V129.7H236.747L236.484 131.393L238.46 131.7ZM238.898 131.7L240.88 131.43L240.644 129.7H238.898V131.7ZM242.11 154.038L244.086 153.73L244.084 153.716L244.082 153.701L242.11 154.038ZM245.322 174.624V176.624H247.659L247.298 174.316L245.322 174.624ZM245.109 189.886L249.343 212.37L253.274 211.63L249.04 189.146L245.109 189.886ZM251.308 214H269.85V210H251.308V214ZM271.814 211.618L252.688 113.214L248.761 113.978L267.887 212.382L271.814 211.618ZM250.724 111.596H227.802V115.596H250.724V111.596ZM225.848 113.173L204.532 211.577L208.441 212.423L229.757 114.019L225.848 113.173ZM206.486 214H225.028V210H206.486V214ZM226.991 212.382L231.371 189.898L227.445 189.134L223.065 211.618L226.991 212.382ZM229.408 191.516H247.074V187.516H229.408V191.516ZM233.276 174.973L236.926 154.387L232.987 153.689L229.337 174.275L233.276 174.973ZM236.925 154.391C237.952 148.667 239.421 138.534 240.437 132.007L236.484 131.393C235.455 138.006 234.004 148.021 232.988 153.685L236.925 154.391ZM238.46 133.7H238.898V129.7H238.46V133.7ZM236.917 131.97C237.789 138.369 239.11 148.346 240.139 154.375L244.082 153.701C243.067 147.758 241.759 137.879 240.88 131.43L236.917 131.97ZM240.134 154.346L243.346 174.932L247.298 174.316L244.086 153.73L240.134 154.346ZM245.322 172.624H231.306V176.624H245.322V172.624ZM297.445 212V214H299.445V212H297.445ZM296.132 144.986V142.986H294.01L294.135 145.103L296.132 144.986ZM296.423 144.986L298.356 144.471L297.96 142.986H296.423V144.986ZM306.497 174.624L308.353 173.877L308.352 173.876L306.497 174.624ZM321.535 212L319.68 212.747L320.184 214H321.535V212ZM339.056 212V214H341.056V212H339.056ZM339.056 113.596H341.056V111.596H339.056V113.596ZM322.266 113.596V111.596H320.266V113.596H322.266ZM324.164 180.902V182.902H326.279L326.16 180.79L324.164 180.902ZM323.871 180.902L321.971 181.525L322.422 182.902H323.871V180.902ZM313.359 152.14L311.499 152.873L311.502 152.881L311.505 152.889L313.359 152.14ZM298.176 113.596L300.036 112.863L299.537 111.596H298.176V113.596ZM280.655 113.596V111.596H278.655V113.596H280.655ZM280.655 212H278.655V214H280.655V212ZM299.445 212V189.954H295.445V212H299.445ZM299.445 189.954C299.445 170.048 298.714 154.822 298.128 144.869L294.135 145.103C294.717 155.006 295.445 170.148 295.445 189.954H299.445ZM296.132 146.986H296.423V142.986H296.132V146.986ZM294.491 145.501C296.853 154.36 301.263 166.995 304.643 175.372L308.352 173.876C305.016 165.609 300.666 153.132 298.356 144.471L294.491 145.501ZM304.642 175.371L319.68 212.747L323.391 211.253L308.353 173.877L304.642 175.371ZM321.535 214H339.056V210H321.535V214ZM341.056 212V113.596H337.056V212H341.056ZM339.056 111.596H322.266V115.596H339.056V111.596ZM320.266 113.596V135.35H324.266V113.596H320.266ZM320.266 135.35C320.266 153.528 321.585 170.698 322.167 181.014L326.16 180.79C325.574 170.374 324.266 153.38 324.266 135.35H320.266ZM324.164 178.902H323.871V182.902H324.164V178.902ZM325.772 180.279C322.983 171.767 318.296 159.023 315.214 151.391L311.505 152.889C314.555 160.441 319.212 173.101 321.971 181.525L325.772 180.279ZM315.22 151.407L300.036 112.863L296.315 114.329L311.499 152.873L315.22 151.407ZM298.176 111.596H280.655V115.596H298.176V111.596ZM278.655 113.596V212H282.655V113.596H278.655ZM280.655 214H297.445V210H280.655V214ZM401.197 194.48L403.183 194.245L402.9 191.852L400.6 192.571L401.197 194.48ZM400.905 131.408L400.059 133.22L402.367 134.297L402.866 131.8L400.905 131.408ZM404.117 115.348L406.078 115.74L406.336 114.452L405.255 113.704L404.117 115.348ZM403.095 210.54L403.951 212.347L405.25 211.732L405.081 210.305L403.095 210.54ZM400.6 192.571C398.41 193.255 394.964 193.94 391.999 193.94V197.94C395.457 197.94 399.312 197.165 401.793 196.389L400.6 192.571ZM391.999 193.94C386.754 193.94 382.242 191.914 378.961 187.252C375.609 182.488 373.413 174.785 373.413 163.236H369.413C369.413 175.193 371.67 183.842 375.69 189.554C379.782 195.367 385.563 197.94 391.999 197.94V193.94ZM373.413 163.236C373.413 151.274 375.818 143.305 379.289 138.382C382.707 133.535 387.241 131.51 391.999 131.51V127.51C385.953 127.51 380.194 130.157 376.02 136.077C371.898 141.922 369.413 150.816 369.413 163.236H373.413ZM391.999 131.51C395.887 131.51 398.08 132.297 400.059 133.22L401.751 129.596C399.349 128.475 396.579 127.51 391.999 127.51V131.51ZM402.866 131.8L406.078 115.74L402.156 114.956L398.944 131.016L402.866 131.8ZM405.255 113.704C403.999 112.834 402.068 112.105 399.709 111.588C397.307 111.06 394.315 110.72 390.831 110.72V114.72C394.063 114.72 396.765 115.037 398.852 115.495C400.983 115.963 402.337 116.548 402.978 116.992L405.255 113.704ZM390.831 110.72C380.762 110.72 370.278 114.53 362.326 123.233C354.373 131.937 349.119 145.347 349.119 164.258H353.119C353.119 146.085 358.157 133.726 365.279 125.932C372.401 118.137 381.774 114.72 390.831 114.72V110.72ZM349.119 164.258C349.119 178.518 352.158 191.132 358.632 200.238C365.17 209.434 375.095 214.876 388.349 214.876V210.876C376.345 210.876 367.654 206.025 361.892 197.92C356.066 189.725 353.119 178.03 353.119 164.258H349.119ZM388.349 214.876C395.043 214.876 400.788 213.846 403.951 212.347L402.239 208.733C399.853 209.862 394.795 210.876 388.349 210.876V214.876ZM405.081 210.305L403.183 194.245L399.211 194.715L401.109 210.775L405.081 210.305ZM455.002 152.87H457.002V150.87H455.002V152.87ZM432.664 152.87H430.664V154.87H432.664V152.87ZM432.664 130.24V128.24H430.664V130.24H432.664ZM456.316 130.24V132.24H458.316V130.24H456.316ZM456.316 113.596H458.316V111.596H456.316V113.596ZM413.538 113.596V111.596H411.538V113.596H413.538ZM413.538 212H411.538V214H413.538V212ZM457.922 212V214H459.922V212H457.922ZM457.922 195.356H459.922V193.356H457.922V195.356ZM432.664 195.356H430.664V197.356H432.664V195.356ZM432.664 168.784V166.784H430.664V168.784H432.664ZM455.002 168.784V170.784H457.002V168.784H455.002ZM455.002 150.87H432.664V154.87H455.002V150.87ZM434.664 152.87V130.24H430.664V152.87H434.664ZM432.664 132.24H456.316V128.24H432.664V132.24ZM458.316 130.24V113.596H454.316V130.24H458.316ZM456.316 111.596H413.538V115.596H456.316V111.596ZM411.538 113.596V212H415.538V113.596H411.538ZM413.538 214H457.922V210H413.538V214ZM459.922 212V195.356H455.922V212H459.922ZM457.922 193.356H432.664V197.356H457.922V193.356ZM434.664 195.356V168.784H430.664V195.356H434.664ZM432.664 170.784H455.002V166.784H432.664V170.784ZM457.002 168.784V152.87H453.002V168.784H457.002Z" fill="#02B8FA"/>
</g>
<rect x="3" y="235" width="456.685" height="86" fill="white"/>
<path d="M35.35 303L38.725 286.5C39.775 281.55 40.6 275.925 41.5 269.85H41.65C42.325 276 43.075 281.775 43.9 286.425L46.9 303H57.025L65.95 252.45H56.35L53.875 272.475C53.2 278.325 52.6 283.725 51.925 290.325H51.775C51.175 283.725 50.275 278.1 49.375 272.4L46 252.45H38.05L34.45 272.55C33.4 278.625 32.275 284.1 31.6 290.325H31.375C30.775 284.175 30.325 278.4 29.65 272.625L27.175 252.45H16.975L25.6 303H35.35ZM71.2533 252.45V303H81.0783V252.45H71.2533ZM95.3318 303H105.157V261.525H114.157V252.45H86.4068V261.525H95.3318V303ZM119.3 252.45V303H129.125V281.85H139.4V303H149.225V252.45H139.4V272.7H129.125V252.45H119.3ZM215.327 303H202.727L199.703 293.865H191.576L187.607 285.486L181.748 303H169.148L185.969 252.6H198.569L215.327 303ZM195.734 282.021L192.269 271.5L188.741 282.021H195.734ZM260.757 303H247.212L230.643 277.737V303H218.736V252.6H245.826C247.842 252.6 249.711 253.062 251.433 253.986C253.197 254.868 254.709 256.065 255.969 257.577C257.229 259.089 258.216 260.853 258.93 262.869C259.686 264.843 260.064 266.922 260.064 269.106C260.064 271.164 259.875 272.991 259.497 274.587C259.119 276.183 258.531 277.611 257.733 278.871C256.935 280.131 255.927 281.244 254.709 282.21C253.491 283.134 252.063 283.974 250.425 284.73C250.341 284.772 250.257 284.835 250.173 284.919C250.089 285.003 249.963 285.087 249.795 285.171L260.757 303ZM248.724 269.547C248.724 268.161 248.262 266.943 247.338 265.893C246.414 264.843 245.28 264.318 243.936 264.318H230.58V274.713H244.44C244.986 274.713 245.511 274.545 246.015 274.209C246.561 273.873 247.023 273.453 247.401 272.949C247.821 272.445 248.136 271.899 248.346 271.311C248.598 270.681 248.724 270.093 248.724 269.547ZM307.205 252.6L301.409 264.444H285.344C284.756 264.444 284.105 264.633 283.391 265.011C282.719 265.347 282.068 265.809 281.438 266.397C280.808 266.943 280.241 267.552 279.737 268.224C279.275 268.896 278.96 269.526 278.792 270.114C278.036 272.76 277.658 274.398 277.658 275.028C277.658 285.78 280.724 291.156 286.856 291.156H307.142V303H285.659C285.281 303 284.63 302.916 283.706 302.748C282.824 302.58 281.669 302.328 280.241 301.992C278.477 301.614 276.776 300.858 275.138 299.724C273.542 298.59 272.093 297.246 270.791 295.692C269.531 294.096 268.46 292.353 267.578 290.463C266.696 288.531 266.129 286.578 265.877 284.604C265.499 281.706 265.31 279.522 265.31 278.052C265.31 274.272 265.835 270.828 266.885 267.72C267.977 264.57 269.489 261.882 271.421 259.656C273.395 257.43 275.747 255.708 278.477 254.49C281.207 253.23 284.252 252.6 287.612 252.6H307.205ZM354.342 303H340.923L321.771 272.823V303H309.36V252.6H323.283L341.931 282.84V252.6H354.342V303ZM396.738 252.6L391.131 264.381H371.916V271.752H391.194V283.533H371.916V291.219H394.155V303H359.379V252.6H396.738ZM442.259 252.6L436.463 264.255H425.438V303H413.405V264.255H399.923V252.6H442.259Z" fill="#208991"/>
<defs>
<filter id="filter0_d_523_8682" x="0.167969" y="112.72" width="461.754" height="108.156" filterUnits="userSpaceOnUse" color-interpolation-filters="sRGB">
<feFlood flood-opacity="0" result="BackgroundImageFix"/>
<feColorMatrix in="SourceAlpha" type="matrix" values="0 0 0 0 0 0 0 0 0 0 0 0 0 0 0 0 0 0 127 0" result="hardAlpha"/>
<feOffset dy="4"/>
<feGaussianBlur stdDeviation="2"/>
<feComposite in2="hardAlpha" operator="out"/>
<feColorMatrix type="matrix" values="0 0 0 0 0 0 0 0 0 0 0 0 0 0 0 0 0 0 0.25 0"/>
<feBlend mode="normal" in2="BackgroundImageFix" result="effect1_dropShadow_523_8682"/>
<feBlend mode="normal" in="SourceGraphic" in2="effect1_dropShadow_523_8682" result="shape"/>
</filter>
</defs>
</svg>