<svg width="201" height="147" viewBox="0 0 201 147" fill="none" xmlns="http://www.w3.org/2000/svg">
<path d="M61.0696 18.2196C61.2181 17.143 61.3666 16.085 61.5151 15.0455C61.7007 13.9689 61.8307 12.8923 61.9049 11.8157C61.9792 10.7019 61.9606 9.58822 61.8492 8.47449C61.775 7.36077 61.478 6.28416 60.9582 5.24469C61.0325 6.09854 61.1253 6.93384 61.2367 7.75057C61.3481 8.53018 61.3852 9.34691 61.3481 10.2008C61.2738 11.4259 61.1624 12.651 61.0139 13.8761C60.8654 15.1012 60.6984 16.3448 60.5128 17.607C60.4756 17.9412 60.3457 18.201 60.123 18.3867C59.9002 18.5351 59.6403 18.5723 59.3433 18.498C59.1577 18.3867 58.9535 18.2382 58.7308 18.0525C58.5081 17.8298 58.3781 17.607 58.341 17.3843C58.3039 16.9759 58.3224 16.5676 58.3967 16.1592C58.4709 15.7508 58.5081 15.3053 58.5081 14.8227C58.5452 13.7461 58.5823 12.651 58.6194 11.5372C58.6565 10.3864 58.6565 9.2541 58.6194 8.14037C58.6194 7.50926 58.5452 6.89671 58.3967 6.30272C58.2482 5.67161 58.0811 5.02194 57.8955 4.35371C57.2644 4.42795 56.7261 4.63214 56.2806 4.96625C55.8351 5.30037 55.4267 5.67161 55.0555 6.07998C52.9394 8.23318 51.1389 10.6091 49.6539 13.2078C48.2061 15.7694 47.0552 18.5723 46.2014 21.6165C45.6445 23.6583 45.2176 25.7187 44.9206 27.7976C44.6607 29.8766 44.6607 32.0112 44.9206 34.2016C45.032 35.1668 45.199 36.0949 45.4218 36.9859C45.6816 37.8769 46.0714 38.7493 46.5912 39.6031C47.2223 40.6426 48.0019 40.9396 48.93 40.4941C49.8581 39.9744 50.7862 39.4918 51.7143 39.0463C52.6424 38.5637 53.5334 38.0068 54.3873 37.3757C55.3525 36.6332 56.0207 36.1135 56.392 35.8165C56.8003 35.4823 57.1345 35.2039 57.3943 34.9812C57.6913 34.7584 58.0254 34.4986 58.3967 34.2016C58.805 33.8674 59.4918 33.3291 60.4571 32.5867C60.6798 32.401 60.9026 32.2154 61.1253 32.0298C61.3481 31.8071 61.5708 31.64 61.7935 31.5286C62.0534 31.4172 62.3133 31.3987 62.5732 31.4729C62.833 31.5472 63.13 31.7699 63.4641 32.1412C63.6126 32.2525 63.8539 32.2711 64.1881 32.1969C64.5222 32.0855 64.9491 32.0112 65.4688 31.9741C65.1718 32.3825 64.9305 32.698 64.7449 32.9208C64.5593 33.1435 64.3737 33.3477 64.1881 33.5333C63.4827 34.1273 62.9258 34.6285 62.5175 35.0369C62.1091 35.4081 61.7564 35.7422 61.4594 36.0392C61.1624 36.2991 60.9026 36.5404 60.6798 36.7631C60.4571 36.9859 60.1972 37.2457 59.9002 37.5427C59.6032 37.8026 59.232 38.1182 58.7865 38.4894C58.3781 38.8607 57.8213 39.3433 57.1159 39.9373C55.6309 41.2366 54.016 42.0533 52.2712 42.3875C50.5635 42.6844 48.7629 42.7587 46.8696 42.6102C45.9786 42.5359 45.1619 42.2575 44.4194 41.7749C43.6769 41.2552 43.0087 40.6241 42.4147 39.8816C41.4495 38.5822 40.7441 37.1901 40.2986 35.7051C39.8903 34.2201 39.6675 32.6609 39.6304 31.0274C39.5561 25.7558 40.3729 20.9297 42.0806 16.549C43.7883 12.1312 46.3313 8.06612 49.7096 4.35371C50.5635 3.38848 51.5287 2.62743 52.6053 2.07057C53.9046 1.10534 55.3525 0.864029 56.9488 1.34664C57.4314 1.53227 57.9141 1.68076 58.3967 1.79214C58.8793 1.86638 59.3433 1.97776 59.7888 2.12625C60.7541 2.46037 61.5522 2.96155 62.1833 3.62978C62.8145 4.29802 63.2228 5.22612 63.4084 6.4141C63.5569 7.37933 63.6312 8.40024 63.6312 9.47684C63.6312 10.5534 63.5384 11.63 63.3528 12.7066C63.2043 13.7461 62.963 14.7485 62.6288 15.7137C62.2947 16.6789 61.9049 17.5328 61.4594 18.2753C61.3109 18.2753 61.181 18.2567 61.0696 18.2196ZM46.3127 17.3843C45.4218 19.1663 44.7164 21.0967 44.1967 23.1757C43.7141 25.2546 43.4356 27.2779 43.3614 29.2455C43.2871 31.2131 43.4171 33.0693 43.7512 34.8141C44.0853 36.5218 44.6793 37.8954 45.5331 38.9349C44.8649 37.0416 44.4194 35.1854 44.1967 33.3663C43.9739 31.5472 43.9182 29.7467 44.0296 27.9647C44.1781 26.1827 44.4565 24.4193 44.8649 22.6745C45.2733 20.8925 45.7559 19.1291 46.3127 17.3843ZM53.2179 40.7169C53.2179 40.8654 53.2735 40.9953 53.3849 41.1067C53.4963 41.0324 53.6262 40.9582 53.7747 40.8839C53.9603 40.8097 54.146 40.7169 54.3316 40.6055C54.2573 40.5312 54.2202 40.4384 54.2202 40.3271C54.0346 40.4013 53.849 40.4756 53.6633 40.5498C53.5148 40.5869 53.3663 40.6426 53.2179 40.7169ZM57.6728 38.0439C57.6728 38.0439 57.6356 38.0254 57.5614 37.9882C57.5243 37.9882 57.4871 38.0068 57.45 38.0439C57.4129 38.081 57.3572 38.1182 57.283 38.1553C57.2458 38.1924 57.1901 38.3038 57.1159 38.4894C57.2644 38.378 57.45 38.2481 57.6728 38.0996V38.0439ZM76.7888 5.74586C76.9744 5.56024 77.1415 5.41174 77.29 5.30037C77.4385 5.15187 77.587 4.98481 77.7355 4.79919C78.5893 3.75972 79.5546 2.98011 80.6312 2.46037C81.7449 1.94063 83.0071 1.77357 84.4178 1.95919C85.8286 2.14481 87.0351 2.60887 88.0375 3.35135C89.0398 4.05671 89.7637 5.07763 90.2092 6.4141C90.4691 7.15658 90.6733 7.91763 90.8218 8.69723C91.0074 9.47684 91.0816 10.2565 91.0445 11.0361C90.9703 15.5281 90.4134 19.8716 89.3739 24.0667C88.3716 28.2617 86.701 32.3268 84.3622 36.262C83.8424 37.1158 83.2299 37.9325 82.5245 38.7122C81.8563 39.4918 81.188 40.2528 80.5198 40.9953C80.0001 41.5893 79.3875 42.0719 78.6822 42.4431C78.0139 42.7773 77.2714 42.9629 76.4547 43C75.7865 43.0742 75.0811 43.0186 74.3386 42.8329C73.8931 42.6473 73.4476 42.4988 73.0022 42.3875C72.5567 42.2761 72.074 42.2575 71.5543 42.3318C70.9232 42.4431 70.3849 42.3503 69.9394 42.0533C69.531 41.7563 69.1412 41.3851 68.77 40.9396C68.176 40.1971 67.7491 39.4175 67.4892 38.6008C67.2665 37.784 67.1551 36.9302 67.1551 36.0392C67.118 35.1111 67.0994 34.183 67.0994 33.2549C67.1365 32.2897 67.2108 31.3244 67.3221 30.3592C67.7676 27.7234 68.4359 25.1989 69.3269 22.7859C70.255 20.3728 71.5357 18.0711 73.1692 15.8808C73.392 15.5838 73.559 15.2497 73.6704 14.8784C73.7818 14.4701 73.856 14.0617 73.8931 13.6533C74.0416 12.6138 74.2087 11.5744 74.3943 10.5349C74.6171 9.45828 74.9512 8.43737 75.3967 7.47214C75.5823 7.06377 75.7865 6.72965 76.0092 6.46978C76.232 6.17279 76.5475 5.93148 76.9559 5.74586C76.8074 6.04286 76.6589 6.35841 76.5104 6.69253C76.3619 7.02665 76.232 7.3422 76.1206 7.6392C75.4523 8.53018 75.044 9.49541 74.8955 10.5349C74.747 11.5744 74.5799 12.6138 74.3943 13.6533C74.7284 13.6162 74.914 13.5791 74.9512 13.5419C75.1368 12.5025 75.3224 11.5001 75.508 10.5349C75.6937 9.56966 75.8793 8.60443 76.0649 7.6392C76.3619 7.3422 76.5846 7.06377 76.7331 6.8039C76.9188 6.50691 76.9373 6.15423 76.7888 5.74586ZM75.0625 40.3827C75.0254 40.5684 75.0069 40.7354 75.0069 40.8839C75.0069 41.0324 74.9883 41.1995 74.9512 41.3851C75.6565 41.3851 76.2505 41.218 76.7331 40.8839C77.2157 40.5127 77.6612 40.1229 78.0696 39.7145C79.4803 38.2295 80.6497 36.6332 81.5778 34.9255C82.5059 33.2178 83.3227 31.4729 84.028 29.691C86.6267 23.2314 87.8518 16.5676 87.7033 9.69959C87.7033 8.88286 87.6105 8.08469 87.4249 7.30508C87.2393 6.48835 86.9423 5.70874 86.5339 4.96625C85.6801 3.29566 84.3993 2.94298 82.6916 3.90821C82.0605 4.20521 81.4665 4.6507 80.9096 5.24469C80.3527 5.80155 79.8516 6.43266 79.4061 7.13802C78.9977 7.84338 78.6822 8.58586 78.4594 9.36547C78.2367 10.1451 78.1253 10.9061 78.1253 11.6486C78.5337 11.6486 78.9235 11.6486 79.2947 11.6486C79.7031 11.6115 80.1114 11.6115 80.5198 11.6486C80.9282 11.6857 81.318 11.76 81.6892 11.8714C82.0976 11.9827 82.5616 12.0941 83.0814 12.2055C82.7844 12.5025 82.5431 12.7623 82.3575 12.9851C82.209 13.2078 82.0419 13.412 81.8563 13.5976C81.5964 13.8946 81.2808 14.1731 80.9096 14.4329C80.5755 14.6928 80.2971 14.9898 80.0743 15.3239C79.7031 15.9179 79.3504 16.5304 79.0163 17.1616C78.6822 17.7555 78.3666 18.3681 78.0696 18.9992C77.3642 20.447 77.6798 21.7093 79.0163 22.7859C79.2761 22.9715 79.6288 23.2685 80.0743 23.6769C79.2947 23.8996 78.645 23.8625 78.1253 23.5655C77.6056 23.2314 77.0487 22.9715 76.4547 22.7859C76.2691 23.417 76.0835 23.9924 75.8978 24.5121C75.7122 25.0319 75.5452 25.5887 75.3967 26.1827C75.0625 27.5935 74.7099 29.0227 74.3386 30.4706C73.9674 31.9184 73.6889 33.3477 73.5033 34.7584C73.4291 35.538 73.4291 36.3362 73.5033 37.1529C73.6147 37.9697 73.7261 38.7864 73.8374 39.6031C73.8746 39.9001 73.9859 40.1414 74.1716 40.3271C74.3572 40.5127 74.6542 40.5684 75.0625 40.4941V40.3827ZM72.0555 41.4408C71.2016 40.0301 70.6633 38.6193 70.4406 37.2086C70.255 35.7979 70.1993 34.3501 70.2735 32.8651C70.4591 30.8233 70.7376 28.8186 71.1088 26.851C71.5172 24.8834 72.0926 22.9529 72.8351 21.0596C72.9836 20.7626 73.1135 20.447 73.2249 20.1129C73.3363 19.7788 73.4476 19.4261 73.559 19.0549C73.1506 19.389 72.8722 19.7788 72.7237 20.2243C72.2411 21.5236 71.7771 22.8044 71.3316 24.0667C70.8861 25.3289 70.4591 26.6282 70.0508 27.9647C69.7909 29.0042 69.5682 30.0622 69.3825 31.1388C69.1969 32.2154 69.0299 33.292 68.8814 34.3686C68.77 35.2967 68.77 36.2248 68.8814 37.1529C68.9927 38.081 69.2526 38.972 69.661 39.8259C69.8466 40.2342 70.125 40.5869 70.4963 40.8839C70.8675 41.1809 71.3872 41.3665 72.0555 41.4408ZM133.843 41.4408C133.101 42.2575 132.303 42.7216 131.449 42.8329C130.632 42.9443 129.778 42.9072 128.887 42.7216C128.442 42.6102 128.089 42.3318 127.829 41.8863C127.569 41.4037 127.421 40.9025 127.384 40.3827C126.975 38.1182 126.771 35.8907 126.771 33.7004C126.771 30.4335 126.938 27.2408 127.272 24.1223C127.644 21.0039 128.145 17.8669 128.776 14.7114C128.813 14.5629 128.832 14.4144 128.832 14.2659C128.832 14.1174 128.85 13.8946 128.887 13.5976C128.702 13.7833 128.553 13.9132 128.442 13.9874C128.33 14.0246 128.238 14.0988 128.163 14.2102C125.49 17.5885 122.929 21.0596 120.479 24.6235C118.028 28.1503 115.857 31.937 113.963 35.9835C113.889 36.2063 113.796 36.4476 113.685 36.7074C113.574 36.9302 113.481 37.1344 113.406 37.32C113.221 37.617 113.054 37.914 112.905 38.211C112.757 38.508 112.59 38.7307 112.404 38.8792C111.996 39.0648 111.55 39.2319 111.068 39.3804C110.622 39.5289 110.158 39.6588 109.675 39.7702C109.49 39.8444 109.267 39.863 109.007 39.8259C108.785 39.7888 108.58 39.7888 108.395 39.8259C107.392 40.0115 106.557 39.8816 105.889 39.4361C105.258 38.9535 104.905 38.1367 104.831 36.9859C104.719 35.6865 104.645 34.4057 104.608 33.1435C104.608 31.8442 104.664 30.5448 104.775 29.2455C104.886 27.8348 105.072 26.424 105.332 25.0133C105.629 23.6026 105.889 22.1548 106.112 20.6698C106.149 20.4099 106.186 20.1686 106.223 19.9459C106.26 19.686 106.242 19.389 106.167 19.0549C105.648 19.5004 105.202 20.0387 104.831 20.6698C104.46 21.2638 104.088 21.8763 103.717 22.5074C102.863 23.7325 102.084 25.0133 101.378 26.3498C100.97 26.9809 100.58 27.6306 100.209 28.2988C99.8747 28.9299 99.5035 29.5796 99.0951 30.2478C98.761 30.9161 98.4269 31.5843 98.0927 32.2525C97.7586 32.8837 97.4059 33.5705 97.0347 34.3129C96.7377 34.944 96.4407 35.6123 96.1437 36.3176C95.8839 36.9859 95.6054 37.6541 95.3084 38.3224C95.1971 38.2852 95.1228 38.2667 95.0857 38.2667C95.0486 38.2295 94.9929 38.211 94.9186 38.211C95.4012 37.023 95.8653 35.8165 96.3108 34.5914C96.7934 33.3663 97.2946 32.104 97.8143 30.8047C97.4431 31.1017 97.0347 31.6771 96.5892 32.531C96.1437 33.3477 95.6982 34.2944 95.2527 35.371C94.8444 36.4105 94.4917 37.4871 94.1947 38.6008C93.8977 39.6774 93.6935 40.6241 93.5821 41.4408C91.6146 42.1461 90.9463 41.4408 91.5774 39.3247C91.9487 38.1367 92.3385 36.9302 92.7469 35.7051C93.1552 34.48 93.6378 33.3291 94.1947 32.2525C95.1971 30.2478 96.2365 28.2803 97.3131 26.3498C98.4269 24.4193 99.522 22.4889 100.599 20.5584C101.787 18.5166 103.03 16.5119 104.33 14.5443C105.666 12.5767 106.947 10.572 108.172 8.53018C108.729 7.6392 109.211 6.71109 109.62 5.74586C110.065 4.78063 110.529 3.8154 111.012 2.85018C111.16 2.5903 111.309 2.349 111.457 2.12625C111.606 1.90351 111.847 1.8107 112.181 1.84782C112.775 1.99632 113.128 2.44181 113.239 3.18429C113.239 3.33279 113.239 3.48129 113.239 3.62978C113.239 3.77828 113.258 3.94534 113.295 4.13096C113.555 3.87109 113.815 3.5741 114.075 3.23998C114.372 2.90586 114.669 2.64599 114.966 2.46037C115.3 2.27475 115.634 2.18194 115.968 2.18194C116.302 2.18194 116.692 2.36756 117.137 2.7388C116.061 7.11946 115.207 11.5187 114.576 15.9365C113.945 20.3171 113.425 24.772 113.017 29.3012C113.277 29.1155 113.462 28.9114 113.574 28.6886C114.984 26.1642 116.506 23.7511 118.14 21.4494C119.81 19.1477 121.518 16.8831 123.263 14.6557C124.451 13.0965 125.62 11.5558 126.771 10.0337C127.959 8.47449 129.147 6.91527 130.335 5.35606C130.595 5.05906 130.929 4.81776 131.337 4.63214C131.746 4.44652 132.191 4.33514 132.674 4.29802C133.157 4.22377 133.621 4.24233 134.066 4.35371C134.512 4.42795 134.901 4.57645 135.236 4.79919C135.532 5.02194 135.7 5.28181 135.737 5.5788C135.774 5.83867 135.755 6.13567 135.681 6.46978C135.458 7.69488 135.236 8.93854 135.013 10.2008C134.79 11.4259 134.586 12.6695 134.4 13.9317C134.103 16.4191 133.788 18.9064 133.454 21.3937C133.157 23.8439 132.897 26.3312 132.674 28.8557C132.525 30.4149 132.433 31.937 132.396 33.422C132.396 34.8698 132.396 36.3733 132.396 37.9325C132.396 38.4152 132.414 38.805 132.451 39.102C132.488 39.399 132.563 39.6774 132.674 39.9373C132.785 40.1971 132.934 40.4384 133.119 40.6612C133.305 40.8839 133.546 41.1438 133.843 41.4408ZM109.898 22.4518C110.307 20.447 110.696 18.4423 111.068 16.4376C111.476 14.4329 111.884 12.4282 112.293 10.4235C112.181 10.3864 112.089 10.3678 112.014 10.3678C111.977 10.3678 111.922 10.3493 111.847 10.3121C111.29 12.3168 110.863 14.3216 110.566 16.3263C110.307 18.331 110.084 20.3728 109.898 22.4518ZM105.443 16.6047C105.555 16.6418 105.648 16.6975 105.722 16.7718C105.833 16.549 105.945 16.3448 106.056 16.1592C106.167 15.9365 106.279 15.6951 106.39 15.4353C106.316 15.361 106.223 15.3239 106.112 15.3239C105.926 15.8065 105.703 16.2334 105.443 16.6047ZM108.562 35.4267C108.562 35.241 108.562 35.0554 108.562 34.8698C108.562 34.6842 108.543 34.4986 108.506 34.3129H108.45C108.413 34.4986 108.395 34.6842 108.395 34.8698C108.395 35.0554 108.395 35.241 108.395 35.4267H108.562ZM145.581 5.74586C145.767 5.56024 145.934 5.41174 146.082 5.30037C146.231 5.15187 146.379 4.98481 146.528 4.79919C147.382 3.75972 148.347 2.98011 149.423 2.46037C150.537 1.94063 151.799 1.77357 153.21 1.95919C154.621 2.14481 155.827 2.60887 156.83 3.35135C157.832 4.05671 158.556 5.07763 159.001 6.4141C159.261 7.15658 159.465 7.91763 159.614 8.69723C159.8 9.47684 159.874 10.2565 159.837 11.0361C159.762 15.5281 159.206 19.8716 158.166 24.0667C157.164 28.2617 155.493 32.3268 153.154 36.262C152.635 37.1158 152.022 37.9325 151.317 38.7122C150.648 39.4918 149.98 40.2528 149.312 40.9953C148.792 41.5893 148.18 42.0719 147.474 42.4431C146.806 42.7773 146.064 42.9629 145.247 43C144.579 43.0742 143.873 43.0186 143.131 42.8329C142.685 42.6473 142.24 42.4988 141.794 42.3875C141.349 42.2761 140.866 42.2575 140.346 42.3318C139.715 42.4431 139.177 42.3503 138.732 42.0533C138.323 41.7563 137.933 41.3851 137.562 40.9396C136.968 40.1971 136.541 39.4175 136.281 38.6008C136.059 37.784 135.947 36.9302 135.947 36.0392C135.91 35.1111 135.892 34.183 135.892 33.2549C135.929 32.2897 136.003 31.3244 136.114 30.3592C136.56 27.7234 137.228 25.1989 138.119 22.7859C139.047 20.3728 140.328 18.0711 141.961 15.8808C142.184 15.5838 142.351 15.2497 142.463 14.8784C142.574 14.4701 142.648 14.0617 142.685 13.6533C142.834 12.6138 143.001 11.5744 143.186 10.5349C143.409 9.45828 143.743 8.43737 144.189 7.47214C144.374 7.06377 144.579 6.72965 144.801 6.46978C145.024 6.17279 145.34 5.93148 145.748 5.74586C145.6 6.04286 145.451 6.35841 145.303 6.69253C145.154 7.02665 145.024 7.3422 144.913 7.6392C144.245 8.53018 143.836 9.49541 143.688 10.5349C143.539 11.5744 143.372 12.6138 143.186 13.6533C143.521 13.6162 143.706 13.5791 143.743 13.5419C143.929 12.5025 144.115 11.5001 144.3 10.5349C144.486 9.56966 144.671 8.60443 144.857 7.6392C145.154 7.3422 145.377 7.06377 145.525 6.8039C145.711 6.50691 145.729 6.15423 145.581 5.74586ZM143.855 40.3827C143.818 40.5684 143.799 40.7354 143.799 40.8839C143.799 41.0324 143.78 41.1995 143.743 41.3851C144.449 41.3851 145.043 41.218 145.525 40.8839C146.008 40.5127 146.453 40.1229 146.862 39.7145C148.272 38.2295 149.442 36.6332 150.37 34.9255C151.298 33.2178 152.115 31.4729 152.82 29.691C155.419 23.2314 156.644 16.5676 156.496 9.69959C156.496 8.88286 156.403 8.08469 156.217 7.30508C156.031 6.48835 155.734 5.70874 155.326 4.96625C154.472 3.29566 153.191 2.94298 151.484 3.90821C150.853 4.20521 150.259 4.6507 149.702 5.24469C149.145 5.80155 148.644 6.43266 148.198 7.13802C147.79 7.84338 147.474 8.58586 147.252 9.36547C147.029 10.1451 146.917 10.9061 146.917 11.6486C147.326 11.6486 147.716 11.6486 148.087 11.6486C148.495 11.6115 148.904 11.6115 149.312 11.6486C149.72 11.6857 150.11 11.76 150.481 11.8714C150.89 11.9827 151.354 12.0941 151.874 12.2055C151.577 12.5025 151.335 12.7623 151.15 12.9851C151.001 13.2078 150.834 13.412 150.648 13.5976C150.389 13.8946 150.073 14.1731 149.702 14.4329C149.368 14.6928 149.089 14.9898 148.866 15.3239C148.495 15.9179 148.143 16.5304 147.808 17.1616C147.474 17.7555 147.159 18.3681 146.862 18.9992C146.156 20.447 146.472 21.7093 147.808 22.7859C148.068 22.9715 148.421 23.2685 148.866 23.6769C148.087 23.8996 147.437 23.8625 146.917 23.5655C146.398 23.2314 145.841 22.9715 145.247 22.7859C145.061 23.417 144.876 23.9924 144.69 24.5121C144.504 25.0319 144.337 25.5887 144.189 26.1827C143.855 27.5935 143.502 29.0227 143.131 30.4706C142.76 31.9184 142.481 33.3477 142.295 34.7584C142.221 35.538 142.221 36.3362 142.295 37.1529C142.407 37.9697 142.518 38.7864 142.63 39.6031C142.667 39.9001 142.778 40.1414 142.964 40.3271C143.149 40.5127 143.446 40.5684 143.855 40.4941V40.3827ZM140.848 41.4408C139.994 40.0301 139.455 38.6193 139.233 37.2086C139.047 35.7979 138.991 34.3501 139.066 32.8651C139.251 30.8233 139.53 28.8186 139.901 26.851C140.309 24.8834 140.885 22.9529 141.627 21.0596C141.776 20.7626 141.906 20.447 142.017 20.1129C142.128 19.7788 142.24 19.4261 142.351 19.0549C141.943 19.389 141.664 19.7788 141.516 20.2243C141.033 21.5236 140.569 22.8044 140.124 24.0667C139.678 25.3289 139.251 26.6282 138.843 27.9647C138.583 29.0042 138.36 30.0622 138.175 31.1388C137.989 32.2154 137.822 33.292 137.674 34.3686C137.562 35.2967 137.562 36.2248 137.674 37.1529C137.785 38.081 138.045 38.972 138.453 39.8259C138.639 40.2342 138.917 40.5869 139.288 40.8839C139.66 41.1809 140.179 41.3665 140.848 41.4408Z" fill="white"/>
<g filter="url(#filter0_d_366_8407)">
<path d="M19.135 83.4951L20.9249 93H28.7633L20.678 51.4007H10.9879L1.97682 93H9.81526L11.6669 83.4951H19.135ZM12.4692 77.1997L14.0122 68.4972C14.4443 66.0901 15.0615 61.8314 15.4935 59.054H15.6787C16.049 61.7697 16.6045 65.9666 17.0365 68.4972L18.3943 77.1997H12.4692ZM46.8796 93L56.3845 51.4007H47.4968L44.6577 69.1761C43.917 73.8668 43.2381 78.8661 42.6826 83.8037H42.5592C42.0037 78.9278 41.1396 73.8668 40.4607 69.3612L37.4981 51.4007H28.5487L37.8067 93H46.8796ZM73.0194 83.4951L74.8093 93H82.6478L74.5624 51.4007H64.8724L55.8613 93H63.6997L65.5513 83.4951H73.0194ZM66.3537 77.1997L67.8967 68.4972C68.3287 66.0901 68.9459 61.8314 69.378 59.054H69.5631C69.9334 61.7697 70.4889 65.9666 70.921 68.4972L72.2788 77.1997H66.3537ZM94.3133 93V83.6803C94.3133 75.2864 94.0047 68.8675 93.7578 64.6705H93.8813C94.8688 68.3737 96.7204 73.6816 98.14 77.1997L104.497 93H111.904V51.4007H104.806V60.597C104.806 68.2503 105.361 75.4715 105.608 79.8536H105.485C104.312 76.2739 102.337 70.9042 101.041 67.6948L94.6219 51.4007H87.2155V93H94.3133ZM138.111 85.5936C137.124 85.9022 135.581 86.2108 134.223 86.2108C129.347 86.2108 125.582 82.3224 125.582 72.3855C125.582 62.0783 129.717 58.1282 134.285 58.1282C136.013 58.1282 137.062 58.4985 138.05 58.9306L139.346 52.1414C138.543 51.5859 136.568 51.0304 133.729 51.0304C125.706 51.0304 117.003 57.1407 117.003 72.8176C117.003 83.6803 120.891 91.2718 129.347 93.0617L127.063 97.9993C129.779 98.2462 131.26 99.1103 131.26 100.283C131.26 101.456 130.273 101.826 129.285 101.826C128.236 101.826 127.063 101.456 126.076 100.962L124.903 104.418C126.076 105.097 127.866 105.529 129.532 105.529C132.989 105.529 136.321 104.11 136.321 100.16C136.321 97.7524 134.346 96.086 132.186 95.654L133.421 93.3703C135.581 93.3703 137.803 92.9383 138.914 92.3828L138.111 85.5936ZM158.909 83.4951L160.699 93H168.537L160.452 51.4007H150.762L141.751 93H149.589L151.441 83.4951H158.909ZM152.243 77.1997L153.786 68.4972C154.218 66.0901 154.836 61.8314 155.268 59.054H155.453C155.823 61.7697 156.379 65.9666 156.811 68.4972L158.168 77.1997H152.243ZM173.105 93H181.19V76.3973H182.425C185.079 76.3973 186.375 77.8786 187.116 83.0014C187.733 87.6304 188.659 91.8273 189.214 93H197.67C196.929 91.457 195.818 86.3342 195.016 81.7052C194.213 77.1997 192.794 74.6074 189.955 73.4348V73.3113C194.152 71.398 196.374 67.3862 196.374 62.9424C196.374 59.3626 195.571 56.5852 193.041 54.3016C190.387 51.8945 186.375 51.2156 181.931 51.2156C178.845 51.2156 175.636 51.5242 173.105 52.0179V93ZM181.19 57.7579C181.623 57.5727 182.425 57.511 183.166 57.511C186.745 57.6344 188.165 60.1032 188.165 63.683C188.165 67.3245 186.19 70.1636 182.672 70.1636H181.19V57.7579Z" fill="#02B8FA"/>
<path d="M19.135 83.4951L19.9968 83.3328L19.8622 82.6182H19.135V83.4951ZM20.9249 93L20.0631 93.1623L20.1976 93.8769H20.9249V93ZM28.7633 93V93.8769H29.8271L29.6241 92.8327L28.7633 93ZM20.678 51.4007L21.5388 51.2334L21.4009 50.5238H20.678V51.4007ZM10.9879 51.4007V50.5238H10.2806L10.1309 51.2151L10.9879 51.4007ZM1.97682 93L1.11975 92.8143L0.889572 93.8769H1.97682V93ZM9.81526 93V93.8769H10.5379L10.676 93.1677L9.81526 93ZM11.6669 83.4951V82.6182H10.9443L10.8061 83.3274L11.6669 83.4951ZM12.4692 77.1997L11.6057 77.0466L11.4231 78.0766H12.4692V77.1997ZM14.0122 68.4972L13.1491 68.3422L13.1487 68.3441L14.0122 68.4972ZM15.4935 59.054V58.177H14.7424L14.627 58.9192L15.4935 59.054ZM15.6787 59.054L16.5476 58.9355L16.4441 58.177H15.6787V59.054ZM17.0365 68.4972L17.9031 68.362L17.9009 68.3496L17.0365 68.4972ZM18.3943 77.1997V78.0766H19.4187L19.2608 77.0645L18.3943 77.1997ZM18.2732 83.6574L20.0631 93.1623L21.7867 92.8377L19.9968 83.3328L18.2732 83.6574ZM20.9249 93.8769H28.7633V92.1231H20.9249V93.8769ZM29.6241 92.8327L21.5388 51.2334L19.8171 51.568L27.9025 93.1673L29.6241 92.8327ZM20.678 50.5238H10.9879V52.2777H20.678V50.5238ZM10.1309 51.2151L1.11975 92.8143L2.83389 93.1857L11.845 51.5864L10.1309 51.2151ZM1.97682 93.8769H9.81526V92.1231H1.97682V93.8769ZM10.676 93.1677L12.5276 83.6628L10.8061 83.3274L8.95449 92.8323L10.676 93.1677ZM11.6669 84.3721H19.135V82.6182H11.6669V84.3721ZM13.3327 77.3528L14.8757 68.6503L13.1487 68.3441L11.6057 77.0466L13.3327 77.3528ZM14.8754 68.6521C15.3098 66.2319 15.931 61.9471 16.36 59.1888L14.627 58.9192C14.192 61.7157 13.5788 65.9483 13.1491 68.3422L14.8754 68.6521ZM15.4935 59.9309H15.6787V58.177H15.4935V59.9309ZM14.8098 59.1725C15.1786 61.8771 15.7368 66.0954 16.1721 68.6447L17.9009 68.3496C17.4721 65.8379 16.9194 61.6623 16.5476 58.9355L14.8098 59.1725ZM16.17 68.6324L17.5279 77.3349L19.2608 77.0645L17.903 68.362L16.17 68.6324ZM18.3943 76.3227H12.4692V78.0766H18.3943V76.3227ZM46.8796 93V93.8769H47.5788L47.7345 93.1953L46.8796 93ZM56.3844 51.4007L57.2394 51.5961L57.4844 50.5238H56.3844V51.4007ZM47.4968 51.4007V50.5238H46.7488L46.6308 51.2624L47.4968 51.4007ZM44.6576 69.1761L43.7917 69.0378L43.7914 69.0393L44.6576 69.1761ZM42.6826 83.8037V84.6807H43.4664L43.5541 83.9018L42.6826 83.8037ZM42.5592 83.8037L41.6879 83.903L41.7765 84.6807H42.5592V83.8037ZM40.4607 69.3612L41.3279 69.2306L41.3259 69.2185L40.4607 69.3612ZM37.4981 51.4007L38.3634 51.258L38.2423 50.5238H37.4981V51.4007ZM28.5487 51.4007V50.5238H27.4552L27.6927 51.5912L28.5487 51.4007ZM37.8067 93L36.9507 93.1905L37.1035 93.8769H37.8067V93ZM47.7345 93.1953L57.2394 51.5961L55.5295 51.2054L46.0247 92.8047L47.7345 93.1953ZM56.3844 50.5238H47.4968V52.2777H56.3844V50.5238ZM46.6308 51.2624L43.7917 69.0378L45.5236 69.3144L48.3627 51.539L46.6308 51.2624ZM43.7914 69.0393C43.0488 73.7428 42.3681 78.755 41.8112 83.7057L43.5541 83.9018C44.1081 78.9772 44.7852 73.9908 45.5239 69.3129L43.7914 69.0393ZM42.6826 82.9268H42.5592V84.6807H42.6826V82.9268ZM43.4305 83.7045C42.8726 78.8076 42.0032 73.7125 41.3279 69.2306L39.5935 69.4919C40.276 74.0211 41.1348 79.048 41.6879 83.903L43.4305 83.7045ZM41.3259 69.2185L38.3634 51.258L36.6329 51.5434L39.5954 69.504L41.3259 69.2185ZM37.4981 50.5238H28.5487V52.2777H37.4981V50.5238ZM27.6927 51.5912L36.9507 93.1905L38.6627 92.8095L29.4047 51.2102L27.6927 51.5912ZM37.8067 93.8769H46.8796V92.1231H37.8067V93.8769ZM73.0194 83.4951L73.8812 83.3328L73.7467 82.6182H73.0194V83.4951ZM74.8093 93L73.9475 93.1623L74.0821 93.8769H74.8093V93ZM82.6478 93V93.8769H83.7116L83.5086 92.8327L82.6478 93ZM74.5624 51.4007L75.4233 51.2334L75.2854 50.5238H74.5624V51.4007ZM64.8724 51.4007V50.5238H64.1651L64.0153 51.2151L64.8724 51.4007ZM55.8613 93L55.0042 92.8143L54.774 93.8769H55.8613V93ZM63.6997 93V93.8769H64.4223L64.5605 93.1677L63.6997 93ZM65.5513 83.4951V82.6182H64.8287L64.6905 83.3274L65.5513 83.4951ZM66.3537 77.1997L65.4902 77.0466L65.3076 78.0766H66.3537V77.1997ZM67.8967 68.4972L67.0335 68.3422L67.0332 68.3441L67.8967 68.4972ZM69.378 59.054V58.177H68.6269L68.5114 58.9192L69.378 59.054ZM69.5631 59.054L70.432 58.9355L70.3286 58.177H69.5631V59.054ZM70.921 68.4972L71.7875 68.362L71.7854 68.3496L70.921 68.4972ZM72.2788 77.1997V78.0766H73.3032L73.1453 77.0645L72.2788 77.1997ZM72.1576 83.6574L73.9475 93.1623L75.6711 92.8377L73.8812 83.3328L72.1576 83.6574ZM74.8093 93.8769H82.6478V92.1231H74.8093V93.8769ZM83.5086 92.8327L75.4233 51.2334L73.7016 51.568L81.7869 93.1673L83.5086 92.8327ZM74.5624 50.5238H64.8724V52.2777H74.5624V50.5238ZM64.0153 51.2151L55.0042 92.8143L56.7183 93.1857L65.7295 51.5864L64.0153 51.2151ZM55.8613 93.8769H63.6997V92.1231H55.8613V93.8769ZM64.5605 93.1677L66.4121 83.6628L64.6905 83.3274L62.8389 92.8323L64.5605 93.1677ZM65.5513 84.3721H73.0194V82.6182H65.5513V84.3721ZM67.2172 77.3528L68.7602 68.6503L67.0332 68.3441L65.4902 77.0466L67.2172 77.3528ZM68.7598 68.6521C69.1942 66.2319 69.8154 61.9471 70.2445 59.1888L68.5114 58.9192C68.0764 61.7157 67.4632 65.9483 67.0335 68.3422L68.7598 68.6521ZM69.378 59.9309H69.5631V58.177H69.378V59.9309ZM68.6942 59.1725C69.063 61.8771 69.6213 66.0954 70.0565 68.6447L71.7854 68.3496C71.3566 65.8379 70.8039 61.6623 70.432 58.9355L68.6942 59.1725ZM70.0545 68.6324L71.4123 77.3349L73.1453 77.0645L71.7874 68.362L70.0545 68.6324ZM72.2788 76.3227H66.3537V78.0766H72.2788V76.3227ZM94.3133 93V93.8769H95.1903V93H94.3133ZM93.7578 64.6705V63.7936H92.8278L92.8824 64.722L93.7578 64.6705ZM93.8813 64.6705L94.7286 64.4446L94.555 63.7936H93.8813V64.6705ZM98.14 77.1997L98.9535 76.8723L98.9532 76.8715L98.14 77.1997ZM104.497 93L103.684 93.3273L103.905 93.8769H104.497V93ZM111.904 93V93.8769H112.78V93H111.904ZM111.904 51.4007H112.78V50.5238H111.904V51.4007ZM104.806 51.4007V50.5238H103.929V51.4007H104.806ZM105.608 79.8536V80.7306H106.536L106.484 79.8043L105.608 79.8536ZM105.485 79.8536L104.651 80.1266L104.849 80.7306H105.485V79.8536ZM101.041 67.6948L100.225 68.0162L100.228 68.0232L101.041 67.6948ZM94.6219 51.4007L95.4378 51.0793L95.219 50.5238H94.6219V51.4007ZM87.2155 51.4007V50.5238H86.3386V51.4007H87.2155ZM87.2155 93H86.3386V93.8769H87.2155V93ZM95.1903 93V83.6803H93.4364V93H95.1903ZM95.1903 83.6803C95.1903 75.2642 94.8808 68.8274 94.6333 64.619L92.8824 64.722C93.1286 68.9076 93.4364 75.3085 93.4364 83.6803H95.1903ZM93.7578 65.5475H93.8813V63.7936H93.7578V65.5475ZM93.0339 64.8965C94.033 68.6428 95.8974 73.9857 97.3267 77.5278L98.9532 76.8715C97.5434 73.3776 95.7046 68.1046 94.7286 64.4446L93.0339 64.8965ZM97.3264 77.527L103.684 93.3273L105.311 92.6727L98.9535 76.8723L97.3264 77.527ZM104.497 93.8769H111.904V92.1231H104.497V93.8769ZM112.78 93V51.4007H111.027V93H112.78ZM111.904 50.5238H104.806V52.2777H111.904V50.5238ZM103.929 51.4007V60.597H105.683V51.4007H103.929ZM103.929 60.597C103.929 68.2827 104.487 75.5425 104.733 79.903L106.484 79.8043C106.236 75.4006 105.683 68.2179 105.683 60.597H103.929ZM105.608 78.9767H105.485V80.7306H105.608V78.9767ZM106.318 79.5806C105.139 75.9813 103.157 70.5932 101.854 67.3664L100.228 68.0232C101.517 71.2153 103.485 76.5665 104.651 80.1266L106.318 79.5806ZM101.857 67.3734L95.4378 51.0793L93.806 51.7221L100.225 68.0162L101.857 67.3734ZM94.6219 50.5238H87.2155V52.2777H94.6219V50.5238ZM86.3386 51.4007V93H88.0925V51.4007H86.3386ZM87.2155 93.8769H94.3133V92.1231H87.2155V93.8769ZM138.111 85.5936L138.982 85.4907L138.858 84.4414L137.85 84.7566L138.111 85.5936ZM138.05 58.9306L137.698 59.734L138.705 60.1745L138.911 59.095L138.05 58.9306ZM139.346 52.1414L140.207 52.3058L140.314 51.7452L139.845 51.4203L139.346 52.1414ZM129.347 93.0617L130.143 93.4298L130.605 92.4316L129.529 92.2038L129.347 93.0617ZM127.063 97.9993L126.268 97.6312L125.745 98.7601L126.984 98.8727L127.063 97.9993ZM126.076 100.962L126.468 100.178L125.569 99.7278L125.246 100.68L126.076 100.962ZM124.903 104.418L124.073 104.136L123.842 104.817L124.464 105.177L124.903 104.418ZM132.186 95.654L131.415 95.237L130.85 96.2811L132.014 96.5139L132.186 95.654ZM133.421 93.3703V92.4934H132.898L132.649 92.9533L133.421 93.3703ZM138.914 92.3828L139.306 93.1672L139.857 92.8917L139.785 92.2799L138.914 92.3828ZM137.85 84.7566C136.926 85.0452 135.473 85.3338 134.223 85.3338V87.0877C135.689 87.0877 137.322 86.7592 138.373 86.4306L137.85 84.7566ZM134.223 85.3338C132.05 85.3338 130.167 84.4844 128.792 82.5214C127.387 80.5144 126.459 77.2641 126.459 72.3855H124.705C124.705 77.4438 125.66 81.1062 127.356 83.5276C129.083 85.993 131.52 87.0877 134.223 87.0877V85.3338ZM126.459 72.3855C126.459 67.3324 127.475 63.9706 128.937 61.897C130.376 59.8563 132.284 59.0051 134.285 59.0051V57.2512C131.719 57.2512 129.275 58.3752 127.504 60.8863C125.757 63.3645 124.705 67.1314 124.705 72.3855H126.459ZM134.285 59.0051C135.856 59.0051 136.783 59.3335 137.698 59.734L138.401 58.1271C137.341 57.6635 136.17 57.2512 134.285 57.2512V59.0051ZM138.911 59.095L140.207 52.3058L138.484 51.9769L137.188 58.7661L138.911 59.095ZM139.845 51.4203C139.309 51.0493 138.488 50.7402 137.489 50.521C136.471 50.2975 135.204 50.1534 133.729 50.1534V51.9073C135.094 51.9073 136.233 52.041 137.113 52.2341C138.012 52.4315 138.58 52.6779 138.847 52.8624L139.845 51.4203ZM133.729 50.1534C129.494 50.1534 125.069 51.7686 121.709 55.4544C118.349 59.1406 116.126 64.8172 116.126 72.8176H117.88C117.88 65.141 120.008 59.9241 123.005 56.6359C126.003 53.3474 129.941 51.9073 133.729 51.9073V50.1534ZM116.126 72.8176C116.126 78.3404 117.113 83.1241 119.247 86.7837C121.398 90.472 124.69 92.9723 129.166 93.9197L129.529 92.2038C125.549 91.3613 122.669 89.1708 120.762 85.9002C118.838 82.6008 117.88 78.1574 117.88 72.8176H116.126ZM128.551 92.6936L126.268 97.6312L127.859 98.3674L130.143 93.4298L128.551 92.6936ZM126.984 98.8727C128.282 98.9907 129.195 99.2505 129.755 99.5609C130.309 99.8677 130.383 100.134 130.383 100.283H132.137C132.137 99.2589 131.472 98.5071 130.606 98.027C129.746 97.5505 128.561 97.2549 127.143 97.126L126.984 98.8727ZM130.383 100.283C130.383 100.45 130.349 100.546 130.319 100.601C130.29 100.657 130.244 100.708 130.167 100.758C129.995 100.869 129.693 100.949 129.285 100.949V102.703C129.865 102.703 130.551 102.598 131.119 102.231C131.742 101.828 132.137 101.163 132.137 100.283H130.383ZM129.285 100.949C128.419 100.949 127.384 100.635 126.468 100.178L125.684 101.746C126.743 102.276 128.053 102.703 129.285 102.703V100.949ZM125.246 100.68L124.073 104.136L125.734 104.7L126.906 101.244L125.246 100.68ZM124.464 105.177C125.797 105.949 127.745 106.406 129.532 106.406V104.652C127.986 104.652 126.355 104.246 125.343 103.659L124.464 105.177ZM129.532 106.406C131.36 106.406 133.25 106.034 134.712 105.054C136.221 104.042 137.198 102.426 137.198 100.16H135.445C135.445 101.843 134.756 102.912 133.735 103.597C132.665 104.314 131.161 104.652 129.532 104.652V106.406ZM137.198 100.16C137.198 97.2011 134.782 95.2787 132.358 94.794L132.014 96.5139C133.911 96.8933 135.445 98.3038 135.445 100.16H137.198ZM132.958 96.071L134.192 93.7873L132.649 92.9533L131.415 95.237L132.958 96.071ZM133.421 94.2473C135.651 94.2473 138.025 93.8075 139.306 93.1672L138.522 91.5984C137.58 92.0691 135.511 92.4934 133.421 92.4934V94.2473ZM139.785 92.2799L138.982 85.4907L137.24 85.6965L138.043 92.4857L139.785 92.2799ZM158.909 83.4951L159.771 83.3328L159.636 82.6182H158.909V83.4951ZM160.699 93L159.837 93.1623L159.972 93.8769H160.699V93ZM168.537 93V93.8769H169.601L169.398 92.8327L168.537 93ZM160.452 51.4007L161.313 51.2334L161.175 50.5238H160.452V51.4007ZM150.762 51.4007V50.5238H150.055L149.905 51.2151L150.762 51.4007ZM141.751 93L140.894 92.8143L140.664 93.8769H141.751V93ZM149.589 93V93.8769H150.312L150.45 93.1677L149.589 93ZM151.441 83.4951V82.6182H150.718L150.58 83.3274L151.441 83.4951ZM152.243 77.1997L151.38 77.0466L151.197 78.0766H152.243V77.1997ZM153.786 68.4972L152.923 68.3422L152.923 68.3441L153.786 68.4972ZM155.268 59.054V58.177H154.517L154.401 58.9192L155.268 59.054ZM155.453 59.054L156.322 58.9355L156.218 58.177H155.453V59.054ZM156.811 68.4972L157.677 68.362L157.675 68.3496L156.811 68.4972ZM158.168 77.1997V78.0766H159.193L159.035 77.0645L158.168 77.1997ZM158.047 83.6574L159.837 93.1623L161.561 92.8377L159.771 83.3328L158.047 83.6574ZM160.699 93.8769H168.537V92.1231H160.699V93.8769ZM169.398 92.8327L161.313 51.2334L159.591 51.568L167.677 93.1673L169.398 92.8327ZM160.452 50.5238H150.762V52.2777H160.452V50.5238ZM149.905 51.2151L140.894 92.8143L142.608 93.1857L151.619 51.5864L149.905 51.2151ZM141.751 93.8769H149.589V92.1231H141.751V93.8769ZM150.45 93.1677L152.302 83.6628L150.58 83.3274L148.729 92.8323L150.45 93.1677ZM151.441 84.3721H158.909V82.6182H151.441V84.3721ZM153.107 77.3528L154.65 68.6503L152.923 68.3441L151.38 77.0466L153.107 77.3528ZM154.649 68.6521C155.084 66.2319 155.705 61.9471 156.134 59.1888L154.401 58.9192C153.966 61.7157 153.353 65.9483 152.923 68.3422L154.649 68.6521ZM155.268 59.9309H155.453V58.177H155.268V59.9309ZM154.584 59.1725C154.953 61.8771 155.511 66.0954 155.946 68.6447L157.675 68.3496C157.246 65.8379 156.694 61.6623 156.322 58.9355L154.584 59.1725ZM155.944 68.6324L157.302 77.3349L159.035 77.0645L157.677 68.362L155.944 68.6324ZM158.168 76.3227H152.243V78.0766H158.168V76.3227ZM173.105 93H172.228V93.8769H173.105V93ZM181.19 93V93.8769H182.067V93H181.19ZM181.19 76.3973V75.5204H180.314V76.3973H181.19ZM187.116 83.0014L187.985 82.8855L187.984 82.8759L187.116 83.0014ZM189.214 93L188.422 93.3754L188.659 93.8769H189.214V93ZM197.67 93V93.8769H199.063L198.46 92.6205L197.67 93ZM195.016 81.7052L195.88 81.5555L195.879 81.5515L195.016 81.7052ZM189.955 73.4348H189.078V74.0214L189.62 74.2453L189.955 73.4348ZM189.955 73.3113L189.591 72.5134L189.078 72.7473V73.3113H189.955ZM193.041 54.3016L192.452 54.9511L192.453 54.9526L193.041 54.3016ZM173.105 52.0179L172.937 51.1572L172.228 51.2955V52.0179H173.105ZM181.19 57.7579L180.845 56.9518L180.314 57.1796V57.7579H181.19ZM183.166 57.511L183.196 56.6346L183.181 56.634H183.166V57.511ZM181.19 70.1636H180.314V71.0405H181.19V70.1636ZM173.105 93.8769H181.19V92.1231H173.105V93.8769ZM182.067 93V76.3973H180.314V93H182.067ZM181.19 77.2743H182.425V75.5204H181.19V77.2743ZM182.425 77.2743C183.555 77.2743 184.243 77.5709 184.783 78.3002C185.392 79.1233 185.88 80.5841 186.248 83.1268L187.984 82.8759C187.611 80.2958 187.08 78.4547 186.193 77.2564C185.236 75.9644 183.949 75.5204 182.425 75.5204V77.2743ZM186.246 83.1173C186.558 85.4526 186.947 87.6814 187.33 89.4795C187.705 91.2404 188.093 92.6822 188.422 93.3754L190.007 92.6246C189.779 92.1451 189.427 90.9021 189.046 89.1141C188.673 87.3633 188.291 85.1792 187.985 82.8855L186.246 83.1173ZM189.214 93.8769H197.67V92.1231H189.214V93.8769ZM198.46 92.6205C198.14 91.9526 197.696 90.3848 197.221 88.3139C196.754 86.2804 196.279 83.8584 195.88 81.5555L194.152 81.855C194.555 84.1811 195.036 86.6349 195.511 88.7059C195.977 90.7394 196.459 92.5044 196.879 93.3795L198.46 92.6205ZM195.879 81.5515C195.061 76.9573 193.555 73.9731 190.29 72.6242L189.62 74.2453C192.033 75.2418 193.366 77.442 194.152 81.859L195.879 81.5515ZM190.832 73.4348V73.3113H189.078V73.4348H190.832ZM190.318 74.1093C194.866 72.0363 197.251 67.6864 197.251 62.9424H195.497C195.497 67.086 193.438 70.7597 189.591 72.5134L190.318 74.1093ZM197.251 62.9424C197.251 59.2122 196.405 56.1563 193.628 53.6505L192.453 54.9526C194.738 57.0141 195.497 59.513 195.497 62.9424H197.251ZM193.63 53.652C190.718 51.011 186.412 50.3386 181.931 50.3386V52.0925C186.338 52.0925 190.055 52.7779 192.452 54.9511L193.63 53.652ZM181.931 50.3386C178.794 50.3386 175.528 50.6517 172.937 51.1572L173.273 52.8786C175.743 52.3966 178.896 52.0925 181.931 52.0925V50.3386ZM172.228 52.0179V93H173.982V52.0179H172.228ZM181.536 58.5639C181.631 58.5232 181.836 58.4725 182.159 58.4366C182.465 58.4026 182.817 58.3879 183.166 58.3879V56.634C182.774 56.634 182.354 56.6502 181.965 56.6934C181.594 56.7347 181.182 56.8074 180.845 56.9518L181.536 58.5639ZM183.135 58.3874C184.708 58.4417 185.688 58.9946 186.304 59.8238C186.949 60.6922 187.288 61.9887 187.288 63.683H189.042C189.042 61.7975 188.671 60.0698 187.712 58.7779C186.723 57.4469 185.203 56.7038 183.196 56.6346L183.135 58.3874ZM187.288 63.683C187.288 65.3547 186.834 66.7663 186.053 67.7405C185.289 68.6937 184.17 69.2866 182.672 69.2866V71.0405C184.692 71.0405 186.319 70.214 187.422 68.8372C188.508 67.4815 189.042 65.6528 189.042 63.683H187.288ZM182.672 69.2866H181.19V71.0405H182.672V69.2866ZM182.067 70.1636V57.7579H180.314V70.1636H182.067Z" fill="#02B8FA"/>
</g>
<rect y="109" width="200.245" height="37.7088" fill="white"/>
<path d="M31.6474 133.546C31.0458 133.846 30.3583 133.975 29.5418 133.975C26.9206 133.975 25.3307 131.655 25.3307 127.874C25.3307 124.221 26.9206 121.643 29.6278 121.643C30.5731 121.643 31.2607 121.858 31.7333 122.03L32.4638 117.604C31.9052 117.346 30.702 117.045 29.37 117.045C23.5689 117.045 19.7446 121.557 19.7446 128.045C19.7446 134.878 23.2252 138.573 28.5535 138.573C30.1434 138.573 31.5615 138.229 32.1201 137.972L31.6474 133.546ZM66.4486 138.315H60.9238L59.5979 134.31H56.0344L54.2941 130.636L51.725 138.315H46.2003L53.5758 116.216H59.1006L66.4486 138.315ZM57.8576 129.117L56.3382 124.503L54.7913 129.117H57.8576ZM86.3685 138.315H80.4293L73.1642 127.238V138.315H67.9433V116.216H79.8216C80.7056 116.216 81.5251 116.419 82.2801 116.824C83.0536 117.211 83.7166 117.736 84.269 118.399C84.8215 119.062 85.2543 119.835 85.5674 120.719C85.8989 121.585 86.0646 122.496 86.0646 123.454C86.0646 124.356 85.9817 125.157 85.816 125.857C85.6502 126.557 85.3924 127.183 85.0425 127.735C84.6926 128.288 84.2506 128.776 83.7166 129.2C83.1825 129.605 82.5564 129.973 81.8381 130.304C81.8013 130.323 81.7645 130.351 81.7276 130.387C81.6908 130.424 81.6356 130.461 81.5619 130.498L86.3685 138.315ZM81.0923 123.647C81.0923 123.039 80.8897 122.505 80.4846 122.045C80.0794 121.585 79.5822 121.354 78.9929 121.354H73.1366V125.912H79.2139C79.4533 125.912 79.6835 125.839 79.9045 125.691C80.1439 125.544 80.3464 125.36 80.5122 125.139C80.6963 124.918 80.8345 124.678 80.9265 124.421C81.037 124.144 81.0923 123.887 81.0923 123.647ZM106.734 116.216L104.193 121.41H97.1489C96.8911 121.41 96.6056 121.492 96.2926 121.658C95.9979 121.806 95.7125 122.008 95.4362 122.266C95.16 122.505 94.9114 122.772 94.6904 123.067C94.4878 123.362 94.3497 123.638 94.276 123.896C93.9445 125.056 93.7788 125.774 93.7788 126.05C93.7788 130.765 95.1232 133.122 97.8119 133.122H106.707V138.315H97.287C97.1213 138.315 96.8358 138.279 96.4307 138.205C96.044 138.131 95.5375 138.021 94.9114 137.873C94.1379 137.708 93.3921 137.376 92.6738 136.879C91.974 136.382 91.3387 135.792 90.7678 135.111C90.2153 134.411 89.7457 133.647 89.359 132.818C88.9722 131.971 88.7236 131.115 88.6131 130.249C88.4474 128.979 88.3645 128.021 88.3645 127.376C88.3645 125.719 88.5947 124.209 89.0551 122.846C89.5339 121.465 90.1969 120.286 91.044 119.31C91.9096 118.334 92.9409 117.579 94.1379 117.045C95.3349 116.493 96.6701 116.216 98.1434 116.216H106.734ZM127.403 138.315H121.519L113.122 125.084V138.315H107.68V116.216H113.785L121.961 129.476V116.216H127.403V138.315ZM145.993 116.216L143.534 121.382H135.109V124.614H143.562V129.78H135.109V133.15H144.86V138.315H129.612V116.216H145.993ZM165.952 116.216L163.411 121.327H158.577V138.315H153.301V121.327H147.389V116.216H165.952Z" fill="#21A497"/>
<defs>
<filter id="filter0_d_366_8407" x="0.222938" y="51.0303" width="199.201" height="58.0068" filterUnits="userSpaceOnUse" color-interpolation-filters="sRGB">
<feFlood flood-opacity="0" result="BackgroundImageFix"/>
<feColorMatrix in="SourceAlpha" type="matrix" values="0 0 0 0 0 0 0 0 0 0 0 0 0 0 0 0 0 0 127 0" result="hardAlpha"/>
<feOffset dy="1.7539"/>
<feGaussianBlur stdDeviation="0.87695"/>
<feComposite in2="hardAlpha" operator="out"/>
<feColorMatrix type="matrix" values="0 0 0 0 0 0 0 0 0 0 0 0 0 0 0 0 0 0 0.25 0"/>
<feBlend mode="normal" in2="BackgroundImageFix" result="effect1_dropShadow_366_8407"/>
<feBlend mode="normal" in="SourceGraphic" in2="effect1_dropShadow_366_8407" result="shape"/>
</filter>
</defs>
</svg>
